<svg xmlns="http://www.w3.org/2000/svg" width="168" height="74" fill="none"  xmlns:v="https://vecta.io/nano"><g clip-path="url(#A)" fill="#202020"><path d="M7.337 62.655c.172-.058.057-.058-.401.173l-.344.173.745-.346zM4.242 64.21c-.516.288-1.146.576-.802.461l1.204-.633.745-.346c.172-.058.688-.346.974-.461a21.34 21.34 0 0 0-2.121.979c-.057 0-.172.058 0 0zm40.18 9.617l-.344-.058c.115.058.229.058.344.058zm30.722-3.571c-.229.058-.287.115-.344.173.229-.115.401-.173.344-.173z"/><path d="M80.303 69.105c-.115 0-.229.058-.287.058.115 0 .229 0 .287-.058zm-35.881 4.722c.287.058.573.058.802.115.057-.058-.401-.058-.802-.115zM2.063 66.628c-.172-.058-.287-.058-.459-.058a1.41 1.41 0 0 1 .459.058c-.057 0-.057 0 0 0zm28.717 6.163l-.229-.058c-.057 0-.172 0-.229.058h.459zm-10.317-1.728c.229.058.344-.058.458-.058h-.516c-.057-.058 0 0 .057.058zM4.299 67.319l-.287-.058c.057 0 .172.058.287.058zm33.932 6.335s.057.058.115.058c0 0-.057 0-.115-.058zm51.415-7.141c-.286.115-.115.058 0 0h0zm67.75-40.599c.917-.518-.86 1.44.401.576-.229 0 .574-1.325-.401-.576zM2.293 66.686c.115.058.287.058.401.115-.172-.058-.287-.115-.401-.115z"/><path d="M157.74 26.49l.115-.115c0 .058-.058.058-.115.115zm-47.058 32.479c-.058-.058-.172-.058-.287-.058.057.058.115.058.287.058zm-15.82 5.241l.401-.115c-.172 0-.287.058-.401.115zm23.615-9.041c.229-.058.287-.058.573-.23h-.114c-.058.058-.172.173-.459.23zm8.025-4.204h-.172c-.058.058-.172.115-.23.173l.402-.173zM42.473 64.268l-.401-.115c.115.115-1.204.115.401.115zm-40.409 2.36a.76.76 0 0 1 .287.058c-.172-.058-.229-.058-.287-.058s-.057 0 0 0zm115.725-13.821l1.261-.576-1.261.576zm-11.406 4.32l-.287.115c.115-.057.23-.057.287-.115zm16.393-6.853c.286 0 .516-.115.802-.173.058-.058.115-.115.115-.173l-.917.346z"/><path d="M32.672 64.21c1.376.058.63-.115.917-.23 1.605 0 .745.115 1.318.23 1.032 0 1.777-.173 2.522-.115.057.058.229.058.057.058 1.089-.115 3.153.058 4.414-.115.115 0 .115.058.172.058-.229-.115-.229-.173-.172-.288.63 0 1.146-.115 1.376 0-.401 0-.401.058-.573.058l.631-.058c.573.173-.86.058-.86.173l3.668-.115c.229.173-2.235.058-.974.23l-1.49-.058c1.146.288-.917-.058.115.288 1.949.115 2.178-.058 4.127 0 .459-.115-.172-.173.287-.288 2.751-.23 2.178.518 4.184.173.516-.173.688-.403 2.178-.288l-.459.23c1.892 0 1.089-.346 3.038-.288-.344.115-1.49.115-1.204.173 1.261.173.917-.173 1.892-.23l.229.23 3.153-.23 3.267-.288c-.115.058-.516.173.057.23l2.178-.173 2.235-.115 4.299-.173 1.032-.346c.229 0 .459.058.172.115 1.032 0 .057-.173.516-.288.573-.057.802.058.459.173a11.51 11.51 0 0 1 1.605-.288l1.892-.346a32.25 32.25 0 0 1 3.668-.403l-.344.115c1.548-.115 1.605-.749 3.038-.749l-.287.058 2.522-.346 2.465-.461 4.413-.576c.401-.461 3.267-.518 3.325-1.094 1.891-.173 1.376.058 4.012-.403.688-.173.974-.576 1.777-.864l.115.288 1.089-.633.687.173.803-.288c-.344.058-.688.058-.688-.058 1.204-.461 3.095-.634 3.153-.518l2.865-1.152c0 .115-.515.346-.859.518 1.433-.806.401.23 1.719-.518-.229 0 .058-.23.058-.288.802 0 2.35-.633 3.553-1.094l-.172.288c1.089-.346 2.236-.749 3.325-1.267l3.496-1.44c-.917.23-.86-.173-.172-.518l.401.23c.344-.403-.745.173.058-.461.917-.346.745.115.286.403l1.032-.576c.115.058-.114.23-.114.403.343-.403 1.948-.518 2.464-1.094l.115.058 1.547-.691 3.611-1.9c-.114-.288.688-.576 1.09-1.094l4.585-2.188c1.032-.806.172-.403.573-.864.229.173 1.777-.806 1.089-.115 1.834-1.209 2.408-1.44 4.586-3.225-.344.058-.631.23-.516.058.401-.346 1.032-.518 1.032-.403l-.115.115c.573-.518 1.261-.979 2.063-1.44l2.236-1.382 2.121-1.325c.63-.461 1.203-.979 1.547-1.497l-.114.115 1.776-1.9c.975-.749-.401.633.402.173.229-.288.458-.518.687-.749l.631-.691c.401-.403.802-.749 1.204-1.094.802-.691 1.605-1.267 2.292-2.246 1.032-.346 2.35-1.785 3.611-3.225l-2.12-2.246c-1.032.979-2.121 1.9-3.038 2.419l.229.058c-.344.576-.63.403-1.032.633.172.058.631-.288.402.058-3.841 3.57-8.426 6.68-12.725 9.847-1.548 1.152-.229 1.497-2.465 2.649l.344-.749c-2.866 2.764-6.42 4.78-9.4 7.198.115-.173.115-.288.401-.518-.802.23-2.465 1.67-2.407 1.843-.516.288-.23-.115-.573 0-.746.288-1.548 1.382-2.064 1.382-.057 0 .172-.173.287-.288-.402.403-2.121 1.267-1.548 1.267-1.318.633-2.293 1.497-3.382 1.9-.516.691-2.235 1.037-2.235 1.555-.115-.461-2.407.806-3.153 1.382.23-.288-.802.23-.515-.115-.918.461-1.777.921-1.491 1.094-1.949.288-3.324 2.016-4.585 1.728-2.751 1.44-5.331 2.591-7.91 3.686-.057-.461 2.866-1.094 2.579-1.555-2.407 1.094-3.668 2.016-6.19 2.764-.688.173.286-.346.458-.461-2.407 1.094-4.814 1.67-6.993 2.649 0-.058.229-.173.459-.288-.459.173-1.032.288-.917.461l.401-.173c.803.058-1.548 1.209-1.605 1.325.573-.806-2.235.633-1.318-.461-.287.115-.63.346-.516.461-.459.115-.573.058-.229-.23-1.548.633-.917.633-2.35 1.152 0-.115.229-.23.344-.403-.688.403-1.318.864-2.579 1.152.057-.058-.115-.115.229-.23-2.063.749-3.382 1.612-5.732 2.188.573-.576-.802.115-1.032-.173l-1.204.461h.516c-1.089.288-1.949.806-2.923.979l.745-.346-2.006.634 1.204-.173c-1.032.461.229.403-1.261.691.287-.115-1.089.288-1.72.23-.516.23-1.032.461-1.891.576-.229-.058.115-.403-.057-.403-.459.403-2.522.691-3.153 1.094.229-.115.172-.288.115-.288l-.401.288c-.516.058-.63 0-.573-.115-1.548.288.573.288-1.318.461.115-.058.057-.058.344-.173-1.834.288-3.554.749-5.273.921-.516-.23 1.49-.288.86-.461-1.204.23-2.465.461-3.726.633-1.261.23-2.522.346-3.726.403h.459c-.287.403-1.777-.058-2.981.173.287-.058.401-.23.287-.173-.802 0-1.662.058-2.579.115l-3.267.173.287-.115-3.611-.173c-.287.058-.917.058-.573.173-1.605-.346-3.152-.403-4.643-.403-1.49-.058-2.923-.115-4.356-.461.344.058.802.058.573 0l-2.407-.23c.172.115.287.115.802.288-.344.058-1.032 0-1.605-.058 1.089.058 0-.173-.459-.345.057.058-.115.058-.057.115-1.261-.403-.229.173-1.949-.173l.115-.058c-.631-.058-1.261-.058-1.949-.23-.287-.173.688.058.745-.058-.974-.115-1.949-.115-2.809-.346.401.058 1.032.115 1.433.173-.917-.288-1.032-.288-1.777-.403h.057l-1.662-.346.401.115c-1.261.058-2.465-.403-4.127-.518 1.605.173.287-.058.401-.115-.401-.115-1.032-.288-.86-.288-.803-.058-1.261-.288-2.407-.403-.057-.058-.802-.173-.63-.23-1.032-.173.229.115.115.115-1.548-.23-3.611-.864-5.847-1.209-1.949-.346-2.293-.346-4.07-.749-.573-.173.516.058.516.058-.974-.23-1.662-.403-2.579-.576.172 0 0 0-.287-.115-.745-.173-.516-.058-1.433-.288.172 0 .401.058.745.115-.401-.058-.802-.173-1.204-.23l.115.058c.057 0 .115-.058.172-.115.172-.115.344-.173.516-.288.115-.058 0 0-.172.115-.057.058-.172.058-.229.115s-.115.058-.115.058c.401-.23.917-.461 1.376-.691.516-.288.917-.461 1.089-.576l-.573.288c.344-.173.172-.058-.057.058-.802.403-1.146.576-1.204.576l.573-.288c-.172.058-.401.173-.631.288-.115.058-.287.115-.401.23-.057.058-.172.058-.229.115l-.229.115H0s-.057 0 0 0c.688.173 1.49.288 2.121.461l-.573-.058 1.318.23c.287.058.459.173-.172.058.917.23.802.173 1.605.403.057 0 .057 0-.057 0l.917.173c-.172 0 .115.115-.401-.058 1.605.403 2.579.518 3.21.749h-.115c2.235.461.229 0 1.949.23l1.089.461.229-.058c.229.058.688.173.573.173.86.115-.115-.058.344 0 1.089.346 3.038.633 3.267.806.401 0-1.032-.288.172-.115.287.23 1.376.23 2.35.518-.344.058-1.261-.23-.287.058.63-.058 1.949.461 2.809.576.057-.115 1.892.288 3.325.518-.115.058 2.694.576 4.07.806h-.057c.287-.173 1.662.115 2.694.23-.057.115-.229.115-.802.115l.974.115c.229-.058.516 0 1.146.058l-.287.115 1.949.173c.688.058 1.433.115 2.235.23.115-.115-1.261-.518.458-.461.057.058.115.23-.344.23.172 0 .516 0 .86.058l-.688.058c.745.115.401-.058.974 0 0 .115.459.115.344.23-.172 0-.516-.115-.745-.058.688.115 1.49.23 1.719.346-.057-.058 0-.173.516-.115 1.261.115.401.173 1.146.288.344-.058 1.146.115 1.146-.115.401 0 .459.115.573.173.688-.058 3.095.115 2.35-.115h-.057c2.178-.115 4.528.23 6.706.058v.058c1.261-.058 2.866-.173 3.783-.346.401 0 .917.058.745.173.974-.115 1.089-.23 2.522-.23-.974.23.344.058-1.032.173 1.261-.058 1.605.058 2.923-.288-.459.23.974.115 1.605 0h-.917a24.08 24.08 0 0 1 1.892-.23l-.287.288c2.694-.058 4.585-1.325 6.649-1.209.63-.345-1.433.173-.86-.173 1.204-.23 2.522-.115 2.866-.173 1.662-.23 1.433-.749 3.095-1.094-.229-.058-.516-.23.688-.691 1.146-.288 1.548.058.86.288-.287.058-.401.115-.401.058-.344.115-.86.288-.344.288l.115-.115c.63-.058 2.235-.518 1.891-.23.86-.346.344-.288-.344-.173 1.548-.288 2.35-.633 3.898-.979-.287 0-.516-.058-.287-.115 2.293-.518.917-.518 2.407-.979.917-.115-.172.461 1.318-.115.974-.173.287.23-.057.403 1.318-.633 2.637-.691 3.439-.921l-.688.346c.401-.173.802-.288 1.146-.403l-.459-.058c.459-.115.802-.23.802-.115.401-.288-.459-.23.344-.749.63-.058 1.662-.691 2.006-.461-1.834.518.287.23-1.204.749.287-.115.631-.23 1.089-.346.057 0-.057.058-.172.115 1.777-.288.688-.576 2.465-1.152-.172.23.516.173.802.058-.688.23-.459-.173.172-.518 1.204-.23 1.204-.518 1.777-.691l-.688.173c.172-.23.745-.403 1.49-.749.115.115-.688.346-.401.288.802-.576 2.063-.346 3.267-.979.63-.058.172.288.688.23 1.318-.691 1.547-.288 2.923-.979-.516-.115-.573 0 .401-.576l-2.293.979 1.376-.864c-.688.23-1.433.691-1.891.806.63-.461.63-.346.172-.403 1.09 0 1.835-.864 3.096-1.037l.172.576c1.777-.346 2.923-1.382 5.158-2.073l-.745.173c.229-.345 1.319-.518 2.006-.921 0 .23.459.115.803.115-.115-.115 1.605-.633 1.662-1.094l1.089-.115c1.777-.633 1.777-1.382 3.439-2.073-.401.461.401.23-.63.864.573-.23 1.089-.461 1.031-.576.402 0 1.433-.979 2.007-1.037.171-.173.171-.461.802-.691.057 0 .057.115.057.115-.057-.115.917-.633.23-.576 2.006-.23 4.585-2.419 6.305-2.764 1.146-.691 2.464-1.613 3.496-2.246-.057.115.057.115-.172.173 1.49-.691.516-1.094 2.235-1.9 1.032-.23-.745.691-.171.518.63.461 1.834-1.325 3.152-1.67l-.229.23c.974-.346 1.777-1.555 3.152-2.419 0 0 0 .115.058.115.687-.921 2.235-2.246 3.439-3.225-.23.518-.459.518-.058.576.516-.461-.458-.288.631-1.152.458-.115 1.318-.633 1.605-.461l-1.032.806c.745-.058 1.318-1.037 1.892-1.382l.057.173c1.547-1.267 1.261-1.613 2.98-2.937l-.229.058c.631-1.094.917-.403 1.605-1.382l.573.115c.516-.576 1.777-2.016 2.809-2.937-.401.749-1.49 1.9-2.178 2.707.573-.461 1.949-1.67 2.121-2.073-.23.23-.459.576-.688.691.516-.864 1.318-1.785 2.464-2.707.344.864 3.153-2.361 4.414-2.534 1.204-1.325 2.637-2.361 4.184-3.513l-1.777-1.843c-.688.633-1.375 1.267-2.063 2.016 1.261-.288-.631.633 0 1.037-.459.518-.688.749-.745.749-.574.403-1.261.806-1.892 1.209-.516.173.401-.576.229-.633-1.203 1.037-.687.23-1.547.806.344.058-.172.633-.86 1.152l1.146-.633c-1.375 1.728-1.719.864-3.209 2.534l.401-.634c-.401.403-1.204 1.094-1.949 1.785-.401.346-.745.691-1.089 1.036s-.573.633-.745.921c-.229.058-.516.058-.172-.288-1.089.749-2.178 1.785-3.267 2.707s-2.178 1.728-3.153 2.188l.058-.23c-.402.346-.574.749-1.147.979 0-.058.057-.23-.114-.115-.172.173-.975.921-1.605 1.209l.401-.461c-1.204.576-1.949 1.209-2.694 1.843s-1.433 1.209-2.407 1.785c-.23-.461-2.121.461-3.038.864v-.058c-1.376.633-2.522 1.325-3.554 2.016-1.089.691-2.178 1.325-3.439 2.016-.459.058-1.032.23-1.662.461l-2.121.806c-1.49.576-3.153 1.267-4.528 1.612.458-.058.057.346-.402.576-.63.115-1.604.921-1.662.518l.229-.058c-.286-.115-.745 0-1.261.173l-1.604.518v.576c-.746.058-1.491.23-2.35.461-.402.115-.803.288-1.204.403s-.803.288-1.204.403c-1.605.518-3.038 1.037-3.84.921-.631.288-1.433.518-2.064.806l-.057-.288c-1.834.403-2.751.634-4.987 1.209l.401-.288c-1.261.288-1.433 1.094-2.637 1.382l-.459-.288c-1.089.23-2.235.346-3.382.576-1.146.173-2.235.403-3.325.749 0-.058.057-.173.459-.23-1.089.173-4.127.461-3.668.864-.057-.288-2.35.346-3.554.633l.172-.23c-.974.461-1.032.518-2.465.806-.344 0-.344-.115.115-.115-1.146.058-.86.346-2.235.346l.516-.173c-1.204.115-1.089.173-1.719.403-.745.173-2.235.173-2.407 0-.172.115-.802.346-1.49.346-.115-.058.172-.115.287-.173-2.006.058-2.923.518-4.299.403-.057-.058-.115-.115-.229-.115 1.548-.115 2.809-.23 2.694-.173 0-.173-1.261-.115-.287-.461-.974.23-2.694.691-3.955.691-.057 0-.115 0-.172-.058l.115-.058c-.287 0-.516.058-.803.115h-1.032c-.172-.115-1.433.058-2.063.058.057.173-.745.23 0 .346-.115 0 .115-.058.516-.058.115 0 .229 0 .287-.058h-.057c.401-.058.974-.058 1.548-.115-.516.115-1.032.288-1.72.173-.344.115-.688.288-.86.345-.86-.23-2.579-.288-2.809-.403-1.949.23-4.528.23-5.732.633-.573.058-.631-.058-.86-.115.344-.058.688-.058.86-.115-1.089.115-3.267.115-3.496.346-1.376-.057.802-.23-1.146-.115l.229-.058c-3.726-.23-6.076.576-10.26.173.287 0 .459.058.516.058l-7.222-.115c-2.407-.058-4.872-.058-7.165-.23-1.318-.058-1.49 0-2.293 0l-.287-.115-1.376.058c-1.949-.058-3.382-.288-5.904-.288l.344.058c-.917-.058-2.809-.115-2.694-.115h-.631l-2.178-.058c-1.72-.058.287-.058-2.235-.115-.86 0-1.949-.058-2.293-.058.344 0 .86.058.974.058l-.86-.058c-.172 0-.802-.057 1.261.115l1.433.058.459.058-1.204-.058c.688.058 1.146.058 1.605.115.115 0 .344.058.63.058l1.433.058c.172.058-.63 0 .287.058.688 0-.63-.058.459 0 .688.058.458.058 1.318.115.115 0-.057 0-.401 0 .745 0 1.892.115 2.293.115.745.115 2.407.115 2.35.23.229 0 1.261 0 1.949.058-1.204.058 2.465.173 2.178.288.917-.058 3.21.115 4.815.115h-.401c.917.058 1.146.115 1.72.173.115-.115 1.49-.115 2.293-.173 1.089.173-.688.115-.344.288-.057-.115 1.892 0 1.548-.115.86.115.745.058 1.146.23.172-.173.803 0 1.49-.115 1.204.115.287.173 1.662.173.631-.403-.573-.403-.573-.403zm31.697-.691c-.287 0-.516.058-.63.058.115 0 .344 0 .63-.058zm2.694-.173c-.344 0-.745.058-1.146.058-.115-.058 0-.115.287-.173-.172.115.459.115.86.115zm-5.732-.979c.401-.057.573-.057.631 0-.172 0-.401.058-.745.058h-.057c.057 0 .115 0 .172-.058z"/><path d="M60.586 62.655h-.172c.115 0 .172 0 .229.058.057 0 .115-.058.172-.058h-.229zM44.021 73.827h-.057c.057-.058.057-.058.057 0zm59.553-15.779l-.057-.058-.172.115.229-.058zM29.462 71.927s-.057-.058-.172-.058c0 0 .115.058.172.058zm-6.248-.979l-.86-.173c.401.058.688.115.86.173zm70.731-8.408c.057 0 .115-.058.172-.058.401-.23.115-.115-.172.058zm-21.724 7.544c.229-.115.459-.23.688-.288-.401.058-.745.115-.688.288zm45.454-17.219c.057 0 .114-.058.114-.058l-.114.058z"/><path d="M73.941 69.508a4.47 4.47 0 0 0-1.032.288c.344-.115.688-.173 1.032-.288zM2.006 65.361l.229-.115-.229.115z"/><path d="M2.235 65.247l.229-.115c-.115.058-.172.115-.229.115z"/><path d="M2.981 64.901l-.516.23c.172-.058.401-.173.516-.23zm3.037 2.592l-1.777-.403h-.057c.287 0 1.376.346 1.834.403zm7.91 2.073l-1.605-.403c.287.115.631.23-.115.058 2.006.576-.401-.115 1.72.346zm4.987 1.094c-.86-.173 0 .058-.057.058.573.115.688.115.057-.058zm36.627 3.11l-.057.173c.688-.058 0-.058.057-.173zm6.878-1.843h-.688l-.286.23c.344-.058.688-.173.974-.23zm4.356.748l-.287.058 1.089-.288-.802.23zm58.465-20.674l-.344-.23c-.402.288-.287.691.344.23zm21.952-15.433c.344-.058 1.032-.403 1.261-.864l-1.261.864zM109.65 53.614l.459-.23-.918.346.459-.115zM115.21.057c-.115-.058-.057-.058.229.173l.172.173-.401-.346z"/><path d="M116.872 1.497l.459.346-.688-.518c-.229-.23-.401-.403-.401-.346-.115-.058-.344-.288-.516-.461.344.23.745.633 1.146.979 0 0 .115.058 0 0zm28.373 13.821l-.172-.057c.057 0 .114.057.172.057z"/><path d="M159.001 26.49c0-.115-.057-.173-.057-.23.057.173.057.288.057.23zm-13.756-11.172l.515.173c.058-.058-.229-.115-.515-.173zM120.426 4.089a.78.78 0 0 1-.229-.173l.229.173s-.058 0 0 0zm16.393 9.041l-.172-.058h-.172l.344.058zm-6.248-2.534c.115.058.229 0 .287-.057-.115 0-.23 0-.344-.058.057.058.057.058.057.115zm-9.056-5.471l-.172-.115c.057.058.115.058.172.115zm19.889 9.444s0 .058.058.058l-.058-.058zm25.736 14.052c-.401.633-.172-1.152-.688-.23.172-.058.344 1.037.688.23z"/><path d="M120.54 4.204l.23.173c-.115-.115-.172-.173-.23-.173zm45.97 24.244l-.058.115c0-.115.058-.115.058-.115zm-8.827 21.768c.057 0 .114-.057.114-.115 0 0-.057 0-.114.115zm.802-10.596l-.057.288c.057-.115.057-.23.057-.288z"/><path d="M157.855 55.745c0 .115-.058.173-.058.403 0 0 0-.057.058-.057 0-.058-.058-.173 0-.346zm1.719 3.052s-.057.058-.057.115v.173l.057-.288zm-7.623-41.291a.78.78 0 0 1-.229-.173c.057.115-.803 0 .229.173zM120.368 4.088c.058 0 .058.058.172.058-.057 0-.114 0-.172-.058zm39.894 52.002l-.057.921c.057-.288.057-.633.057-.921zm-24.246-37.72l-.229.058c.115 0 .172 0 .229-.058zm24.131 41.291c-.114.173-.172.288-.229.461l-2.694-.115c0-.058-.057-.058-.057-.115l-.058.115 2.924.115.114-.461z"/><path d="M145.703 16.643c.86.173.401-.058.631-.115 1.031.115.458.173.802.346.631.058 1.146 0 1.605.058.057.058.115.058 0 .058.688 0 2.006.346 2.809.23.057 0 .057.058.114.058-.114-.115-.114-.23-.057-.288.401.058.745 0 .86.115-.23-.058-.287 0-.402.058h.402c.344.23-.573 0-.573.115l2.292.173c.115.23-1.433-.173-.63.115l-.917-.23c.687.403-.574-.115.057.288 1.204.23 1.376.115 2.579.403.287-.058-.057-.173.23-.23 1.261.058 1.375.403 1.834.576l.344-1.555c-.172-.115-.402-.173-.745-.173-.344.058-.574.23-1.433-.173l.344-.173c-1.147-.346-.746.173-1.949-.346.229-.058.917.173.745.115-.745-.403-.573 0-1.204-.173l-.057-.23-2.006-.288c-.688-.115-1.433-.173-2.121-.23.115-.058.344-.115 0-.23-1.834-.115-3.84-.518-5.617-.691-.23.058-.459.115-.688.23-.172 0-.287-.115-.115-.173-.688-.115-.057.173-.344.23-.401 0-.516-.115-.286-.23-1.204.173-3.382.518-4.7.403l.229-.115c-.974 0-1.032.633-2.006.518l.172-.058c-2.121.173-4.414.921-6.076.921-.115.23-.573.346-1.089.403l-6.936 1.497 7.223.288c.515 0 1.031.058 1.089-.23 1.203.288.859.345 2.579.518.458 0 .688-.346 1.204-.403v.288l.745-.346.401.346.516-.058c-.229 0-.459-.115-.401-.23.802-.173 2.006.173 2.006.346l1.949-.288c-.058.115-.344.173-.631.23 1.032-.346.172.346 1.146.058-.114-.058.058-.173.115-.23.459.173 1.548.173 2.35.115l-.172.23c1.433.058 3.038-.115 4.643-.115-.573-.115-.459-.461 0-.518l.172.345c.286-.23-.516-.115.115-.403.63.058.401.403.057.518l.745-.115c.057.115-.115.173-.172.288.287-.23 1.261.346 1.72-.058l.057.115 3.668-.173c0-.288.516-.23.917-.518l3.153.288c.802-.173.229-.288.573-.461.057.288 1.146.288.573.461l1.491.058c.458.058.917.058 1.662.23-.115-.173-.287-.288-.172-.346.286.058.573.346.458.461h-.057c.86.173 1.605.979 1.949 1.785.401.806.458 1.612.917 2.188l-.057-.058c.229.403.401.864.515 1.382 0 .691-.229-.403-.401.115.287.749.23 1.44.172 2.015-.114.634-.229 1.152-.172 1.9-.516.461-.688 1.382-.917 2.361s-.458 2.016-.974 2.649h.229c.057.403-.287.403-.401.633.172 0 .286-.346.344-.058-.402 1.555-1.147 3.167-1.834 4.78l-1.892 4.953c-.401 1.209.86.979 0 2.419l-.287-.518c-.172 2.591-1.089 5.183-1.031 7.717-.058-.173-.172-.173-.115-.403-.344.518-.229 1.958-.057 2.016-.058.403-.23.058-.344.288-.229.518.229 1.382-.057 1.613-.058.058-.058-.173-.115-.23.115.346-.172 1.612.172 1.325-.229.921.057 1.785-.172 2.534l2.637.115c-.287-.518.229-1.555-.23-1.728.516.058.459-1.612.23-2.188.114.173.171-.518.343-.288 0-.691-.057-1.267-.343-1.152.63-1.209-.402-2.476.343-3.167l-.401-5.644c.459.058 0 1.958.459 1.9-.172-1.728-.516-2.707-.344-4.377.057-.461.172.23.286.403-.114-1.728.115-3.282-.057-4.78.057 0 .057.173.115.346 0-.288.057-.691-.115-.691l.057.288c-.286.461-.573-1.209-.745-1.267.573.518.172-1.497.86-.633-.057-.173-.115-.461-.229-.403.057-.288.114-.403.286-.058-.057-1.094-.286-.691-.286-1.67.114 0 .114.23.229.288-.172-.518-.344-.979-.229-1.785.057.058.114-.058.114.23 0-1.382-.401-2.419-.172-3.916.402.461.115-.518.459-.576l-.115-.864-.172.346c0-.749-.229-1.382-.172-2.016l.172.576-.172-1.382c0 .288 0 .518-.057.806-.229-.749-.401.115-.401-.864.057.173-.115-.749 0-1.152-.172-.345-.401-.691-.516-1.209.057-.173.401 0 .401-.115-.229-.115-.401-.518-.63-.921s-.516-.749-.745-.921c.114.115.286 0 .286-.058l-.344-.173c-.172-.288-.172-.346 0-.403-.63-.864-.114.518-.745-.576.058.058.058 0 .229.173-.802-.979-1.776-1.612-2.693-2.246-.115-.403.859.461.687.058-1.433-.921-3.152-1.382-4.585-1.958l.286.115c-.343.288-1.031-.576-1.834-.633.172 0 .287-.115.23-.115-.975-.346-2.121-.518-3.669-.806l.229-.058c-.573-.23-1.604-.403-2.235-.576-.229.058-.573-.058-.401.115-.975-.461-1.949-.633-2.866-.806s-1.834-.345-2.694-.806c.229.058.516.115.344.058l-1.49-.403c.057.173.172.115.458.345-.229 0-.63-.058-1.032-.173.688.173.058-.173-.229-.345.057.058-.057.058-.057.115-.688-.461-.229.173-1.204-.345l.057-.058c-.401-.115-.802-.173-1.203-.345-.115-.173.458.115.516 0-.574-.23-1.261-.23-1.72-.576.229.058.631.23.86.288-.516-.345-.573-.345-1.032-.576h.057l-.974-.461.229.115c-.86-.058-1.49-.576-2.522-.921.975.288.172 0 .287-.058-.229-.173-.573-.346-.459-.346-.516-.173-.745-.403-1.433-.633 0-.058-.458-.23-.344-.288-.573-.288.115.115.058.115-.917-.403-2.006-1.209-3.325-1.843l-2.292-1.325c-.287-.23.286.115.286.115l-1.375-.979c.114.058 0 0-.115-.173-.401-.288-.287-.115-.803-.518a3.26 3.26 0 0 1 .402.23c-.459-.288-.917-.633-1.376-.979.344.115.745.403.917.518l-1.548-1.094.344.288c-.172-.173-.057-.115.058 0l.63.518-.344-.23c.287.288 1.319 1.037 2.006 1.497l-.286-.23.745.461c.115.115.229.23-.115 0 .459.403.459.288.86.633.057.058 0 0 0 0l.516.288c-.115-.058.057.115-.229-.115.802.633 1.433.921 1.719 1.152l-.057-.058c1.261.749.172 0 1.146.518l.516.576h.172c.115.058.401.23.287.23.516.23-.058-.058.229.058.573.461 1.777.921 1.834 1.152.287.058-.573-.403.115-.058.114.288.802.403 1.375.749-.229 0-.745-.346-.229.058.401.058 1.147.633 1.662.806.058-.115 1.147.461 2.007.806-.058.058 1.605.749 2.407 1.152h-.057c.229-.115 1.031.23 1.662.403-.057.115-.172.115-.516 0 .172.058.401.173.573.23.172 0 .344 0 .745.115l-.172.115c.803.288 1.605.345 2.637.749.115-.115-.688-.633.401-.403 0 .115 0 .23-.286.173a2.13 2.13 0 0 1 .516.115h-.459c.459.173.287-.058.63.058-.057.115.23.173.172.23-.114 0-.286-.115-.458-.115.401.115.917.346 1.032.461 0-.058.057-.173.344-.115.802.173.229.23.687.403.23-.058.688.173.745 0 .23.058.23.173.344.23.459 0 1.892.461 1.491.115l-.115-.058h.057c1.376.115 2.752.806 4.07 1.152v.058c.401.058.86.23 1.261.346l1.089.288c.229.115.459.346.344.403.573.173.688.173 1.433.633-.631-.173.115.173-.631-.173.688.403.746.633 1.605.864-.344 0 .344.518.688.691l-.401-.403c.344.23.688.403.917.691l-.287.058c.516.634 1.089.979 1.605 1.382l.688.691c.172.288.287.576.287.864.401.23-.287-.806.057-.576.172.346.287.691.287 1.037s0 .576.057.691c.115.461.229.633.401.864.172.173.344.403.344.921.057-.173.344-.346.573.461.058.749-.344.979-.458.518 0-.173 0-.288.057-.288-.057-.23-.172-.518-.229-.23l.114.058c-.057.345 0 1.382-.172 1.152.115.576.172.23.23-.173-.115.979 0 1.497-.115 2.476.057-.173.172-.288.172-.115-.172 1.497.172.633.172 1.67-.172.576-.401-.23-.287.806-.114.633-.286.115-.401-.115.172.921-.229 1.728-.286 2.246l-.058-.518c.058.288 0 .518 0 .749l.23-.288c-.058.288-.058.518-.172.518.114.288.401-.23.573.403-.115.403.057 1.152-.23 1.267.172-1.209-.286.115-.286-.921 0 .173 0 .461-.057.749-.058.058-.058-.058-.058-.115-.344 1.152.344.518.287 1.728-.172-.173-.344.288-.287.461 0-.461.287-.23.401.23-.171.749.058.806.058 1.209l.057-.461c.172.173.115.518.172 1.094-.115.058-.057-.461-.172-.288.287.576-.401 1.325-.172 2.131-.114.403-.344 0-.458.345.172.921-.287.979-.115 1.958.229-.288.172-.346.401.346l-.114-1.613.286 1.037c0-.461-.114-1.037-.057-1.325.172.518.114.461.344.23-.401.633.172 1.325-.115 2.073l-.63-.058c-.344 1.152.229 2.073 0 3.513l.114-.461c.23.23 0 .921.058 1.382-.23-.058-.287.23-.459.461.172 0-.057 1.094.344 1.267l-.287.633c-.172 1.209.574 1.382.459 2.534-.229-.345-.401.173-.516-.633 0 .403-.057.749.057.749-.114.23.23 1.094.058 1.44.114.173.286.23.286.633-.057.058-.114 0-.114 0 .114 0 .114.691.344.288-.459.806-.344 2.016-.402 3.052l1.147.058c.057-.518.114-.921.286-1.267l.058-2.591c.057.058.114 0 .057.173.286-1.037-.573-.691-.229-1.843.401-.576.114.634.286.288.745-.058.058-1.44.573-2.188v.173c.344-.576-.057-1.497.172-2.476 0 0 .058.058.115 0-.229-.749-.115-2.016-.057-2.995.229.346.057.461.401.346.057-.403-.516 0-.401-.864.229-.23.458-.806.802-.806l-.172.806c.459-.288.229-1.037.401-1.44l.172.115c.23-1.209-.172-1.325.172-2.649l-.172.115c-.229-.806.402-.518.287-1.325l.516-.058c.057-.518.057-1.728.286-2.591.172.576 0 1.612 0 2.246.115-.461.459-1.555.344-1.843 0 .173 0 .461-.114.633-.172-.691-.058-1.44.229-2.361.745.461 1.089-2.246 1.949-2.707.286-1.728 1.261-3.225 1.662-5.24-.802.576.115-.576-.573-.633.057-.461.114-.634.172-.691l.63-1.382c.23-.346.115.461.23.461.172-1.094.343-.403.63-1.152-.287.115-.344-.403-.229-1.037l-.344.864c-.115-.749 0-1.094.172-1.44.114-.346.286-.691 0-1.497l.286.461c-.114-.403-.172-1.209-.458-1.958-.229-.749-.688-1.497-1.089-1.728 0-.173.057-.461.286-.115-.458-.979-1.318-1.843-2.292-2.419-.917-.576-1.892-.921-2.58-1.325l.172-.115c-.401-.058-.688.115-1.089-.173.058-.058.172-.115 0-.173-.229 0-.974.115-1.433 0 .115-.058.287-.115.402-.115-1.835-.403-2.809.346-4.185.461 0-.461-1.318-.633-2.006-.691v-.058c-1.949 0-3.324.461-5.159.691-1.146-.461-3.84-.115-5.674-.345.287.058-.057.345-.344.403-.401-.058-1.204.345-1.089-.058h.172c-.344-.403-1.204-.288-1.892-.288l-.114.518c-1.834-.749-4.7.403-5.675-.288l-1.375.288v-.288c-1.147-.058-1.777-.058-3.21.058l.344 2.419s.057 0 .114-.058l-.057.058-.401-2.534.229-.115h-.229l.401 2.764c.573-.288.631-.979 1.318-1.152l.459.634c1.376-.346 2.866-.346 4.184-.921 0 .058-.057.173-.286.23.687-.115 2.579-.173 2.292-.633.058.288 1.491-.115 2.236-.346l-.115.23c.631-.345.631-.403 1.548-.576.229 0 .172.173-.115.115.745.058.573-.23 1.433-.115l-.344.173c.745 0 .688-.058 1.089-.23.459-.058 1.433.115 1.548.288.114-.115.516-.288.974-.173.057.058-.114.115-.172.115 1.261.23 1.892-.115 2.694.173 0 .058.057.115.115.115l-1.72-.173c0 .173.803.288.115.518.63-.058 1.777-.288 2.522-.115.057 0 .057.058.115.058h-.058c.172.058.344.058.516.058.229.058.401.115.631.115.057.173.859.23 1.261.288 0-.173.515-.058.057-.288.057 0-.057 0-.344 0h-.115l-.974-.173c.344-.058.688-.058 1.089.115.229-.115.459-.173.63-.23.516.346 1.491.749 1.605.921.631.058 1.319.23 1.949.345s1.261.23 1.662.173h.058l.114-.576c-.286 0-.286-.173-.401-.23h.459l-.23.979h-.114.114l.23-.979c-.745 0-1.949-.23-2.178-.058-.86-.23.516-.115-.688-.23l.172-.058c-1.147-.288-2.121-.288-3.153-.346-1.031 0-2.063-.058-3.324-.403.172.058.286.058.286.115-1.49-.288-3.037-.461-4.585-.633l-4.528-.633c-.86-.115-.917-.058-1.433-.115l-.172-.115h-.917l-3.726-.518.172.058-1.72-.23c-.057 0-.171 0-.401-.058l-1.375-.173c-1.089-.173.172 0-1.376-.23l-1.433-.173c.229.058.516.058.631.058l-.516-.058c-.115 0-.516-.115.802.115l.917.173.287.058-.745-.115 1.031.173c.058 0 .172.058.402.058l.917.115c.114.058-.402-.058.172.058.401.058-.402-.115.286 0 .459.115.287.115.803.173.057 0-.058 0-.23 0l1.433.173c.459.115 1.548.23 1.491.288a13.43 13.43 0 0 1 1.203.115c-.802 0 1.548.288 1.319.345.573 0 2.063.288 3.038.403h-.23c.573.115.745.173 1.089.288.115-.115.975 0 1.433 0 .688.23-.458.115-.229.23 0-.115 1.204.115.974-.058.516.173.459.115.688.288.115-.173.516.058.975 0 .745.23.172.23 1.031.288.402.23-.401.173-.401.173zm3.669-1.382c.171 0 .343.057.401.057-.115 0-.23 0-.401-.057zm-1.72-.173c.229.058.459.058.745.115.057.058 0 .115-.172.115.057-.057-.344-.173-.573-.23zm3.382 1.843c-.287 0-.344-.058-.401-.115.114 0 .286.058.458.058h.057c-.057 0-.114.058-.114.058z"/><path d="M151.55 16.758h.114c-.057 0-.114-.058-.172-.058s-.057.058-.114.058h.172zm-17.425 1.785v-.115l-.172.115h.172zm2.063-6.334s-.057-.058-.114-.058c0 0 .057.058.114.058zm-3.783-1.441l-.516-.288c.23.173.402.23.516.288zm27.972 28.679v.115c.057.288.057.115 0-.115zm-.688-14.858c.057.173.172.288.229.461-.057-.288-.115-.461-.229-.461zm.286 1.152a2.17 2.17 0 0 0-.114-.691c.057.23.057.518.114.691zM118.19 2.476l-.114-.115.114.115zm-.172-.115l-.114-.115.114.115z"/><path d="M117.617 2.015l.287.23c-.115-.058-.229-.173-.287-.23zm4.93 3.513c-.23-.173-.574-.461-.975-.633h-.057c.229.058.802.518 1.032.633zm4.298 2.995l-.917-.518c.115.115.344.288-.114.058 1.146.749-.172-.23 1.031.461zm2.866 1.612c-.515-.23 0 .058-.057.058.344.115.401.115.057-.058zm22.183 7.429l-.115.173c.401.115.057-.115.115-.173zm4.413 1.382l-.287-.346h-.286l.573.346zm.688 2.88l-.115-.115c.172.173.287.346.401.518-.057-.115-.114-.288-.286-.403zm2.808 37.95l-.343.115c0 .288.401.403.343-.115zm2.293-16.643c.229-.115.459-.576.401-.864-.172.346-.401.634-.401.864zm-23.5-27.181l.344-.115-.631.115h.287z"/></g><defs><clipPath id="A"><path fill="#fff" d="M0 0h168v74H0z"/></clipPath></defs></svg>