<svg xmlns="http://www.w3.org/2000/svg" viewBox="0 0 132.24 128.98"><defs><style>.cls-1{fill:#ef9293;}.cls-2{fill:#202020;}</style></defs><g id="Laag_2" data-name="Laag 2"><g id="Laag_8" data-name="Laag 8"><path class="cls-1" d="M34.08,49.64l.59,6.89a6,6,0,0,0,12,0l1.32-18H36l.68,6.87c.5,5.14,8.58,9.14,11.18,3A102,102,0,0,1,61,25.69l-9.42-7.27C42,35.71,32.22,54.34,33.93,74.75c.64,7.64,12.65,7.71,12,0-1.54-18.36,7.35-34.73,16-50.27,3.17-5.69-5.1-12.84-9.42-7.27a112.83,112.83,0,0,0-15,25.15l11.19,3L48,38.52c-.75-7.64-11.43-7.79-12,0l-1.32,18h12l-.59-6.89c-.64-7.64-12.65-7.71-12,0Z"/><path class="cls-1" d="M47.34,62.18l-.22-5.89h-12a129.43,129.43,0,0,1-.63,30.28c-1.1,7.49-6.42,18.85,2.42,23.54,14.28,7.57,31.68-5.64,45.39,2.19,6.11,3.49,11.68-4.39,7.27-9.42C69.32,79.72,67.18,47.46,65.35,18.19c-.47-7.64-12.09-7.79-12,0a57.21,57.21,0,0,0,17.78,41c3.17,3,8.92,1.85,10-2.65a36.69,36.69,0,0,0-3-25.78c-2.19-4.41-10.1-3.62-11,1.43-1.2,7,.06,12.51.86,19.33.77,6.62.33,13,2,19.58C73.31,83.85,82.51,94.23,85,107.17c1.24,6.55,12.66,5.14,11.78-1.6A284,284,0,0,0,73.22,23.46L65,31.67l4.3,2.51c5,2.89,9.53-1.86,8.82-6.78A134.48,134.48,0,0,0,74.38,9.86c-1.21-4.23-6.89-6-10-2.65-4.9,5.22-7.33,11.61-8.94,18.48C53.47,34,51.81,42.4,50,50.75c-3.56,16.57-9.86,34.6-7,51.64,1,5.71,10.66,5.76,11.57,0a187.74,187.74,0,0,0,.83-54.18l-11.79,1.6c4.52,16.16.15,36.41,17.15,46.43l4.62-11c-8.7-2.35-16.25,7.32-11.55,15.14a6.06,6.06,0,0,0,9.42,1.21c1.6-1.69,3.28-3.34,4.81-5.09A6.25,6.25,0,0,0,69,89.27l-2.75-5.59c-2.23-4.53-10-3.52-11,1.43a21.32,21.32,0,0,0,2.35,15.53c3.83,6.71,14.2.67,10.36-6a8.39,8.39,0,0,1-1.14-6.29l-11,1.43,2.75,5.6.94-7.27c-1.54,1.74-3.21,3.39-4.81,5.08l9.42,1.22-2,2.49c6.56,1.77,10.53-7.49,4.63-11-5.44-3.21-7.47-9.4-8.42-15.34-1.28-8-1-16.06-3.22-23.92-1.74-6.26-12.7-5.31-11.78,1.59a177.08,177.08,0,0,1-.4,51H54.57c-1.29-7.76.65-15.55,2.27-23.11Q59.21,65,61.59,53.94t4.75-22.16c1.24-5.68,2.38-11.71,6.49-16.08l-10-2.65a132.86,132.86,0,0,1,3.75,17.54l8.82-6.77-4.31-2.51c-5.55-3.24-10.59,3-8.21,8.2a264.87,264.87,0,0,1,21.9,76.06L96.54,104C94.27,92,86.26,82.6,82.61,71.2a51.7,51.7,0,0,1-2.47-17.11c.15-6.42-2.45-12.18-1.33-18.74l-11,1.44a23.65,23.65,0,0,1,1.74,16.53l10-2.65A45.08,45.08,0,0,1,65.35,18.19h-12C55.41,51,58.49,85.52,81.09,111.36l7.27-9.42c-13.31-7.6-26.92-.74-41-1.57a13.73,13.73,0,0,1-4.84-.87q1.83,2.93,1.8-.5c.21-.91.4-1.83.59-2.76.85-4.21,1.48-8.46,2-12.73a134.58,134.58,0,0,0,.24-27.22c-.67-7.57-12.29-7.83-12,0l.22,5.89c.28,7.7,12.29,7.74,12,0Z"/><g id="home"><path class="cls-2" d="M25.85,123.15l.11.06.09,0Z"/><path class="cls-2" d="M26.31,123.9c0,.17,0,.37,0,.27a1.08,1.08,0,0,0,0-.4,1.35,1.35,0,0,0,0-.23.54.54,0,0,0-.18-.23.73.73,0,0,1,.22.6S26.31,123.91,26.31,123.9Z"/><path class="cls-2" d="M24.45,114.72l-.06.08A.24.24,0,0,0,24.45,114.72Z"/><path class="cls-2" d="M26,106.32a.1.1,0,0,0,.09.11C26,106.36,26,106.31,26,106.32Z"/><path class="cls-2" d="M26.75,105a.25.25,0,0,0-.05.08C26.75,105,26.78,105,26.75,105Z"/><path class="cls-2" d="M24.45,114.72l.15-.21C24.48,114.47,24.49,114.61,24.45,114.72Z"/><path class="cls-2" d="M25.15,125.46l.12-.08-.12.06Z"/><path class="cls-2" d="M24.12,118.46v.07l.11.07Z"/><path class="cls-2" d="M23.66,121.3c0-.06-.18-.11-.26-.14.07,0,.11.1.11.15A.27.27,0,0,0,23.66,121.3Z"/><path class="cls-2" d="M24.47,125.15h0Z"/><path class="cls-2" d="M24.53,116.43h.11A.21.21,0,0,0,24.53,116.43Z"/><path class="cls-2" d="M33.21,36.28h0S33.22,36.26,33.21,36.28Z"/><polygon class="cls-2" points="34.06 33.02 34.05 33.07 34.05 33.08 34.06 33.02"/><path class="cls-2" d="M27.77,102.4h0C27.8,102.48,27.79,102.44,27.77,102.4Z"/><path class="cls-2" d="M30.79,78.15c-.53.21-.59-.53-1.19-.18C29.82,78,30.42,78.45,30.79,78.15Z"/><path class="cls-2" d="M25.06,125.47l-.13,0Z"/><path class="cls-2" d="M29.6,78h0l-.06,0Z"/><path class="cls-2" d="M28.43,96.3a1.43,1.43,0,0,0-.23,0A.54.54,0,0,0,28.43,96.3Z"/><path class="cls-2" d="M27.05,100.73l.08-.1A.22.22,0,0,0,27.05,100.73Z"/><path class="cls-2" d="M28,93.86c.05-.06.12-.07.06-.16l-.07,0C28.1,93.76,28.13,93.8,28,93.86Z"/><path class="cls-2" d="M28.37,91.41l-.12,0,0,.09Z"/><path class="cls-2" d="M31.66,43.65a1.44,1.44,0,0,1,.25-.08C31.73,43.58,31.74,43.22,31.66,43.65Z"/><path class="cls-2" d="M25.14,125.42a.1.1,0,0,1-.08,0l.09,0S25.16,125.42,25.14,125.42Z"/><path class="cls-2" d="M23.89,93.24l.11-.38A.89.89,0,0,0,23.89,93.24Z"/><path class="cls-2" d="M28.59,61.12l0-.09S28.54,61.09,28.59,61.12Z"/><path class="cls-2" d="M24,91.69a.83.83,0,0,0,.4-.17l-.14-.06Z"/><path class="cls-2" d="M31.91,43.57Z"/><path class="cls-2" d="M31.93,41c-.1.36.21.2.35.3,0,.45-.24.18-.41.31,0,.28.22.52.17.72-.05,0-.08.05-.13,0,.18.32-.16.86.09,1.23a.12.12,0,0,1-.09,0,1.18,1.18,0,0,1,.46,0c0,.17.16.34-.06.37,0-.1-.07-.12-.13-.18l.07.19c-.34.12-.07-.25-.3-.28,0,.35.24.78.11,1-.33,0,0-.62-.35-.31L31.9,44c-.54.25.09-.24-.49,0-.21.51,0,.61-.17,1.12.17.14.29,0,.45.13.22.8-1,.48-.62,1.09.21.17.66.28.35.64l-.4-.18c-.14.5.56.37.18.86-.16-.11-.07-.41-.14-.34-.4.3.2.27.16.54h-.4c-.05.55.14,1.19.11,1.8-.12,0-.23-.17-.38,0a4.05,4.05,0,0,1-.76,2.3l.35.33c0,.07-.2.1-.27,0-.2.27.25,0,.39.2s-.27.19-.37.07c.24.55.51,1.53,0,2l-.11-.12c-.25.39.81.57.34.91L30,55.23c-.34.88-.07,1.92-.88,2.52.65.21-.45.85.49,1-.55.45-.7.28-1.15,1-.07.19.57.37.64.62l-.52-.06.49.39-.65.1.1.24A.44.44,0,0,1,29,60.9c.19.38-.49.8-.77.78l.32.88c-.21,0-.26-.19-.38-.32.47.51-.58,0-.15.48.14,0,.32.07.43.09a.83.83,0,0,0-.35,1l-.37-.12a15.91,15.91,0,0,0-.13,2c.22-.23.88-.09.91.12h-.6c.34.18.25-.18.66.14-.1.25-.7.09-.87-.08l.16.34a3.14,3.14,0,0,1-.49-.14c.35.17-.68.46-.07.73h-.18a14,14,0,0,0,0,1.59c.53.07.38.28.78.5-.23.39-.71.79-.74,1.3.22.38.44.16.74.35-.49,0-.52.47-.83.17a3.22,3.22,0,0,0,.29,1.58c.21-.06.31-.14.47-.07s-.25.28-.48.23l0,0c.63.94-1.72,1.78-.77,2.58l0,0,.46.77c-.13.31-.36-.24-.7,0,.74.86-.28,1.18.2,1.87-1.56.3-.11,1.73-1.15,2.26h.36c.32.21-.23.17-.33.29.28,0,.34-.15.52,0,.25,1.48-.88,2.88-1.37,4.3-.15.52,1.79.53.87,1.1l-.63-.27c.66,1.17-.28,2.2.26,3.34-.14-.08-.33-.11-.32-.21-.49.16-.11.82.27.87-.06.16-.35,0-.55.07s.53.64.05.7c-.07,0-.14-.08-.17-.13.21.18-.13.68.42.6-.3.37.15.79-.19,1.07.56.28-.36.64.46.81-.85-.13-.76.61-.38.91-.25-.11-.29.19-.64.05a.51.51,0,0,0,.56.57c-1.06.4.69,1.16-.62,1.3a10.4,10.4,0,0,1,.69,2.52c-.8-.13,0-.86-.85-.93.27.77.92,1.27.65,2-.13.17-.33-.15-.46-.23.25.77-.2,1.4.16,2.1a.36.36,0,0,1-.2-.17c0,.13-.14.28.21.31l-.08-.13c.53-.14,1,.63,1.27.69-1-.34-.32.61-1.54.11a.55.55,0,0,0,.45.22c-.08.12-.22.14-.47,0,.15.47.52.36.48.77-.17,0-.22-.11-.41-.18.3.25.6.5.42.83-.09,0-.22,0-.21-.11,0,.6.73,1.12.36,1.74-.66-.28-.25.2-.83.16l.14.38.29-.11c0,.31.36.63.14.88l-.21-.26.05.59.25-.3c.26.35.72.06.52.45-.05-.09-.05.31-.39.43h0c.16.17.32.35.16.56-.18,0-.6-.12-.72-.1.44.21.06.75.51,1a.89.89,0,0,0-.44-.11l.35.18c-.13.12-.19.14-.41.09-.11.42.69-.06.34.42,0,0-.08,0-.12-.12-.2.5.12,1-.1,1.47-.52.08-.09-.43-.53-.32,0,.69.47,1.49.29,2.13l.06-.11c.66.17-.38.45-.09.82,0-.09-.36-.15-.29-.12-.14.44.09.94.21,1.65l-.15-.1a5.1,5.1,0,0,0-.24,1c.14.1.11.26.33.19-.89.79.25,1.74-.46,2.45,0-.09-.1-.24-.1-.16l.06.68c.21,0,.13-.07.31-.19a.6.6,0,0,1,.17.47c-.1-.32-.33,0-.46.08.07,0,.13,0,.2,0-.4.31.39.11.1.56l-.1,0c0,.18.15.36.09.55-.22.06-.08-.2-.25-.23,0,.27.34.58.1.8,0-.12,0-.29-.07-.41a.58.58,0,0,0-.26.47v0l-.14.45.07-.11c.48.39,0,.71.32,1.2-.26-.47-.16-.08-.36-.13-.06.12-.11.3-.17.25.16.23-.1.39.15.71-.06,0,0,.25-.13.21.09.3.09-.08.17-.06a2.33,2.33,0,0,1,.15.8,1.38,1.38,0,0,0,.46.89,2.3,2.3,0,0,0,1.08.58c.15.11-.18.06-.18.05a.79.79,0,0,0,.78.09c-.05,0,0,.05.1.06s.12-.14.39-.23a.76.76,0,0,1-.16.2,2.35,2.35,0,0,0,.59-.54c.08,0-.07.16-.13.24a1.58,1.58,0,0,0,.47-.73.86.86,0,0,1-.1.16c.06-.09.06,0,0,0-.1.24-.24.27-.26.27l.12-.15c-.2.07-.51.54-.9.65a1.51,1.51,0,0,0,.1-.17,1.6,1.6,0,0,1-.34.2c-.09,0-.13-.1,0-.13-.24-.06-.22.07-.42-.06,0,0,0,0,0,0a.46.46,0,0,1-.23-.05c.05,0,0-.11.12,0-.28-.26-.61-.33-.6-.54l0,0c-.37-.46-.15,0-.53-.29a2.13,2.13,0,0,1,.23-.42h-.17c0-.06,0-.19,0-.18-.16-.2-.06.06-.19,0,.07-.32-.19-.84.1-.93-.14-.1-.1.3-.2,0,.31-.1-.07-.38.1-.67.18.1.06.35.24.09-.29-.19.12-.53.1-.77-.25,0,0-.52-.06-.93.09,0,.27-.73.45-1.09l.05,0c-.3-.11-.18-.49-.21-.78a.37.37,0,0,1,.33.26l0-.26a.41.41,0,0,1-.15-.34l.24.1c.05-.35-.19-.74.06-1.17-.25-.06-.74.27-.86-.22.14,0,.38,0,.42.14,0-.05-.09-.16,0-.24l.2.22c.13-.19-.18-.13-.13-.29.19,0,.16-.1.31-.06s-.1.13,0,.2a.73.73,0,0,1,.38-.44c-.12,0-.27,0-.28-.17,0-.35.27-.09.41-.28-.13-.1.06-.3-.26-.35,0-.1.17-.1.26-.13-.11-.2.1-.85-.28-.69l0,0v0h0c-.25-.63.37-1.2.31-1.81l.12,0c-.08-.37,0-.79-.2-1.08,0-.1.27-.21.41-.15-.05-.28-.19-.33.08-.69.18.3.21-.07.12.3.16-.34.39-.39.09-.81.32.17.47-.2.4-.38l-.29.21a1.22,1.22,0,0,1,.09-.51l.44.14c.7-.64-.76-1.4.3-1.82-.31-.23-.3.36-.67.14.11-.32.87-.58.89-.68.35-.41-.65-.51-.4-1-.18,0-.67,0-.79-.34.11-.32.82-.31.93-.08a.1.1,0,0,1-.12.1c.05.11.1.26.32.15l-.17-.06c.21-.14.26-.59.54-.45-.13-.27-.28-.14-.4,0,.33-.39.11-.66.36-1.07-.12.06-.35.09-.33,0,.33-.61-.32-.33-.34-.77.33-.21.68.17.5-.29.24-.24.52,0,.66.13-.31-.44.36-.7.47-.92l.12.23a.46.46,0,0,1,0-.34l-.41.07c.09-.12.11-.22.27-.2-.24-.15-.67,0-1-.27.23-.14-.14-.53.39-.52-.26.49.54,0,.55.45a.27.27,0,0,1,.06-.3.14.14,0,0,1,.14.07c.55-.43-.56-.3-.47-.81.29.1.59,0,.54-.14,0,.21-.52,0-.72-.18.28-.29-.13-.37-.07-.54l-.14.18c-.3-.1-.23-.26-.3-.5.24,0,.14.23.25.16-.5-.32.64-.5.33-.9.24-.13.59.06.75-.07-.34-.44.5-.37.23-.82-.45.06-.34.1-.71-.25l.19.72-.55-.51c0,.2.21.47.12.58-.31-.25-.21-.22-.58-.16.67-.2-.29-.61.18-.88l1.05.14c.55-.43-.41-.93-.05-1.53l-.22.18c-.41-.14,0-.4-.15-.63a1.42,1.42,0,0,0,.75-.11c-.27,0,.09-.46-.63-.61l.52-.22c.28-.49-1-.71-.77-1.19.38.2.68,0,.92.37,0-.16.11-.3-.14-.34.24-.06-.44-.52-.07-.62-.15-.09-.54-.16-.48-.34a.35.35,0,0,1,.18,0c-.18,0-.21-.32-.64-.21,1.23-.36.1-1.43,1.16-1.75a5.23,5.23,0,0,1-.12-1.15c.11,0,.19,0,.14.08.41-.4-1.06-.41-.6-.87.65-.19.3.31.56.18,1.27.08-.09-.64.69-.9l.06.1c.47-.21-.39-.71-.25-1.12a.64.64,0,0,0,.2,0A2.14,2.14,0,0,1,28,86.39c.49.19.24.22.76.2-.05-.19-.82,0-.92-.43a2.42,2.42,0,0,1,1.11-.3v.36c.72-.09,0-.46.18-.63l.3.06c0-.54-.8-.65-.67-1.22l-.25,0c-.73-.41.47-.21-.06-.59h.79a5,5,0,0,1-.76-1.21,4,4,0,0,1,1.1,1.07c0-.21,0-.71-.34-.86.07.09.24.22.11.28-.58-.33-.84-.7-.78-1.1,1.51.26.52-1,1.74-1.18-.48-.79.41-1.41.42-2.27-1.21.16,0-.25-1.22-.35-.05-.2,0-.27.06-.28l.79-.51c.37-.1.25.22.52.24.14-.42.53-.12.88-.37-.43,0-.6-.22-.4-.45l-.6.28c-.57-.69,1.07-.4.51-1.09l.35.24c-.18-.34.14-1.15-.79-1.57.15,0,.48-.07.55.08.23-.73-.82-1.79-.17-2.3l.28.09c-.07-.15-.52-.31-.21-.44.12,0,.28.09.31,0s-.47-.44-.28-.6l.31.2c.45-.69-.67-1.22-.79-1.85a1.27,1.27,0,0,0,1.33-.71l.11,0c.18-.84-.54-1.53-.77-2.35.92-.38.53-1.61,1.08-2.34-.15.11-.61-.09-.67-.24.18-.16-.49-.58.22-.46l0,.07c.71-.06.56-.46.6-.75L31.83,63c1.4-.61-.28-2.09.92-2.37-.21-.21-.18-.44-.39-.65l.47.07A2.89,2.89,0,0,0,33,58.68l.32.17c.05-.36-1.27-.62-1.27-1l.68,0c0-.63.66-1.2.13-1.89.09,0,.27.06.29.17,0-.3.5-1.1-.36-1.1.56.06.11-.64-.1-1l.4.1c-.49-.35-.63-.37-.73-.79.06-.09.32,0,.21.07.23-.29-.34-.29-.1-.65l.23.17c.06-.32-.07-.31-.34-.52s.16-.61.5-.62c-.21-.07-.46-.28-.35-.46a.29.29,0,0,1,.24.11c.29-.51-.34-.86,0-1.19a.29.29,0,0,0,.21,0,3.12,3.12,0,0,1-.11.75c.33,0,.41-.31.85,0-.24-.31-.73-.86-.56-1.18a.42.42,0,0,1,.12,0l0,0a.2.2,0,0,0,0-.22.85.85,0,0,0,.12-.28c.26,0,.16-.38.18-.55-.33,0-.26-.25-.55-.07,0,0,0,0,0,.15s0,.06,0,.08h0c0,.11,0,.26,0,.43-.16-.16-.29-.32-.09-.49a5.07,5.07,0,0,1-.51-.31c.49-.18.76-.61,1-.64-.14-.55-.05-1.27-.57-1.67-.05-.16.17-.16.26-.2s0,.2.11.25c-.12-.32,0-.9-.34-1,.19-.36.31.26.3-.27l.1.08c.32-.48.11-.93,0-1.38a1.51,1.51,0,0,1,.09-1.46c0,.08-.06.11-.12.12.34-1.27.06-2.7.45-4,.07-.36,0-.41-.1-.65l.14-.06-.12-.4c0-.55.33-.9.22-1.61l-.07.08c0-.24,0-.78.09-.73a.25.25,0,0,1,0-.18h0c0-.21,0-.41,0-.61,0-.47.07.08.1-.61,0-.25,0-.73,0-.63l0,.27,0-.23a3,3,0,1,0-.09.34l-.08.39-.05.12.08-.32a1.65,1.65,0,0,0-.09.43.62.62,0,0,0-.07.16c0,.13,0,.26,0,.39s0-.18-.1.08.11-.16.07.14-.1.12-.11.34c0,0,0,0,0-.11,0,.2-.11.52-.06.63-.12.19-.12.66-.26.63a1.75,1.75,0,0,1,0,.53c-.12-.35-.15.67-.37.56.14.27-.11.88-.07,1.33,0,0,0-.08,0-.12a1.44,1.44,0,0,1-.25.45c.21.06.18.44.3.67-.29.27-.25-.22-.48-.15.19,0,.07.54.26.46-.19.21-.11.18-.34.27.31.08,0,.22.17.44-.23.3-.34,0-.31.41C32,41.3,31.93,41,31.93,41Zm-.88,8.69h0v0Zm-.11.72a1.42,1.42,0,0,0,.06-.31c.13,0,.25,0,.23.1S31.06,50.29,30.94,50.38Zm2.58-1.24c0,.12,0,.15-.1.16s0-.12,0-.21l0,0Z"/><path class="cls-2" d="M33.09,48.87s0,0,0,0l-.08.06.1.06Z"/><path class="cls-2" d="M24.38,114.81h0l-.05,0Z"/><polygon class="cls-2" points="28.49 60.28 28.61 60.3 28.51 60.22 28.49 60.28"/><path class="cls-2" d="M22.93,118.71a.07.07,0,0,0-.06,0Z"/><path class="cls-2" d="M22.74,120.44l-.1.24A1.8,1.8,0,0,0,22.74,120.44Z"/><path class="cls-2" d="M22.55,121.8l.08,0h0Z"/><path class="cls-2" d="M23.81,100.42a.06.06,0,0,0,0,0C23.71,100.24,23.74,100.32,23.81,100.42Z"/><path class="cls-2" d="M24.25,106.88a1.62,1.62,0,0,1-.18-.23C24,106.76,24,106.84,24.25,106.88Z"/><polygon class="cls-2" points="23.87 93.28 23.88 93.29 23.89 93.24 23.87 93.28"/><path class="cls-2" d="M24.11,106.35a.23.23,0,0,0,0,.3A.35.35,0,0,0,24.11,106.35Z"/><path class="cls-2" d="M26.15,124.62l0-.06h0Z"/><path class="cls-2" d="M26.19,124.55l0-.07Z"/><path class="cls-2" d="M26.28,124.33l-.06.15A.36.36,0,0,0,26.28,124.33Z"/><path class="cls-2" d="M24.46,125.51l0,0S24.46,125.53,24.46,125.51Z"/><path class="cls-2" d="M23.84,125.28a1,1,0,0,0,.56.28l0,0C24.3,125.6,24,125.31,23.84,125.28Z"/><path class="cls-2" d="M23.34,123.05a3.09,3.09,0,0,0,0,.43c.05-.09.11-.2.15,0C23.6,122.92,23.37,123.6,23.34,123.05Z"/><path class="cls-2" d="M23.5,121.71c0,.23.1,0,.14,0C23.6,121.58,23.58,121.54,23.5,121.71Z"/><path class="cls-2" d="M25.13,111.72l.32.06C25.43,111.59,25.32,111.76,25.13,111.72Z"/><polygon class="cls-2" points="23.6 109.57 23.37 109.73 23.68 109.86 23.6 109.57"/><polygon class="cls-2" points="26.31 108.76 26.35 108.84 26.27 108.52 26.31 108.76"/><path class="cls-2" d="M28.78,91.91l-.6,0C28.27,92,28.94,92.14,28.78,91.91Z"/><path class="cls-2" d="M29.13,84.54c.32,0,.55-.22.26-.38C29.32,84.32,29.06,84.45,29.13,84.54Z"/><polygon class="cls-2" points="32.55 62.75 32.72 62.92 32.59 62.63 32.55 62.75"/><path class="cls-2" d="M100.76,107.28s0,0,0,.09v-.09Z"/><path class="cls-2" d="M100.63,107.94c0,.12,0,.26.05.2s0-.16,0-.29,0-.17,0-.15a1.17,1.17,0,0,1,0-.21,2.73,2.73,0,0,0-.08.46S100.63,108,100.63,107.94Z"/><path class="cls-2" d="M93.58,113.67l.07,0A.08.08,0,0,0,93.58,113.67Z"/><path class="cls-2" d="M87.76,114.43a.1.1,0,0,0,0-.11A.13.13,0,0,0,87.76,114.43Z"/><path class="cls-2" d="M86.71,113.92l.06,0S86.72,113.88,86.71,113.92Z"/><path class="cls-2" d="M93.58,113.67l-.18-.07C93.42,113.72,93.5,113.66,93.58,113.67Z"/><path class="cls-2" d="M100.43,109.31v-.1l0,.09Z"/><path class="cls-2" d="M95.88,112.54h0a.69.69,0,0,0,0-.13Z"/><path class="cls-2" d="M97.56,111.6s.07.18.11.26c0-.08,0-.13,0-.16A.31.31,0,0,0,97.56,111.6Z"/><path class="cls-2" d="M99.91,109.56l0,0Z"/><path class="cls-2" d="M94.56,113a.23.23,0,0,0-.06-.09A.47.47,0,0,0,94.56,113Z"/><path class="cls-2" d="M38.34,119.87h0S38.32,119.87,38.34,119.87Z"/><polygon class="cls-2" points="35.95 119.63 35.98 119.63 35.99 119.63 35.95 119.63"/><path class="cls-2" d="M84.79,113.38h0S84.82,113.35,84.79,113.38Z"/><path class="cls-2" d="M67.58,114.76c.24.48-.26.66.08,1.19C67.61,115.74,67.85,115.06,67.58,114.76Z"/><path class="cls-2" d="M100.4,109.36s0,0,0,.08A.45.45,0,0,0,100.4,109.36Z"/><path class="cls-2" d="M67.66,116h0l0,.05Z"/><path class="cls-2" d="M80.48,113.82a2.18,2.18,0,0,0,.06.22A.73.73,0,0,0,80.48,113.82Z"/><path class="cls-2" d="M83.77,114.39l-.09-.06A.2.2,0,0,0,83.77,114.39Z"/><path class="cls-2" d="M78.87,114.64c-.05,0-.07-.11-.12,0a.11.11,0,0,0,0,.06C78.79,114.6,78.81,114.56,78.87,114.64Z"/><path class="cls-2" d="M77.13,114.76l0,.1,0,0Z"/><path class="cls-2" d="M43.67,120.07a2.14,2.14,0,0,1-.1-.22C43.61,120,43.36,120.08,43.67,120.07Z"/><path class="cls-2" d="M100.38,109.29a.08.08,0,0,1,0,.07v-.06S100.39,109.28,100.38,109.29Z"/><path class="cls-2" d="M79.13,118.83l-.28,0A.45.45,0,0,0,79.13,118.83Z"/><path class="cls-2" d="M56.22,120l-.06.06S56.21,120,56.22,120Z"/><path class="cls-2" d="M78,119a1.16,1.16,0,0,0-.18-.36s0,.08,0,.14Z"/><path class="cls-2" d="M43.57,119.84h0Z"/><path class="cls-2" d="M41.78,120.3c.26,0,.1-.25.14-.4.32-.07.17.2.29.35.19-.06.32-.32.47-.3s0,.06,0,.13c.18-.24.62,0,.83-.32l0,.08a1.53,1.53,0,0,1-.07-.44c.12,0,.2-.22.26,0-.07,0-.07.09-.1.16l.12-.1c.14.31-.16.11-.14.34.23-.1.49-.38.68-.29.07.33-.42.11-.15.4l-.3-.12c.26.49-.18,0,.07.49.39.11.41-.15.8,0,.07-.18-.05-.28,0-.46.5-.36.49.88.85.42.08-.24.08-.71.38-.46l-.06.42c.37,0,.16-.62.57-.33-.06.17-.28.14-.22.2.28.34.16-.25.35-.25l.07.39c.39-.06.79-.35,1.22-.44,0,.13-.08.26,0,.39a2.19,2.19,0,0,1,1.72.33l.17-.4s.1.18,0,.26c.22.15,0-.26.08-.42s.17.23.11.35c.33-.34,1-.78,1.38-.33l-.06.13c.31.18.26-.9.57-.5l0,.08c.66.18,1.34-.28,1.88.41,0-.68.66.29.63-.67.4.47.31.64.86,1,.14,0,.15-.62.31-.73l0,.52.19-.56.17.62.15-.14a.56.56,0,0,1-.16-.38c.23-.25.64.34.67.62l.55-.47a.72.72,0,0,1-.15.43c.27-.56.1.57.35.06a1.31,1.31,0,0,1,0-.44.49.49,0,0,0,.73.17v.38c.44.08.91-.21,1.4-.23-.19-.17-.21-.84-.07-.92l.11.6c.06-.38-.17-.22,0-.68.18.06.17.67.08.87l.21-.22a4.54,4.54,0,0,1,0,.51c.06-.38.43.58.51-.07l0,.18c.49,0,.7-.23,1.1-.28,0-.53.13-.42.21-.86.31.15.67.56,1,.49.23-.28,0-.46.12-.78.06.49.41.42.25.78a1.85,1.85,0,0,0,1-.56c-.07-.2-.14-.29-.12-.46s.24.2.24.44l0,0c.54-.79,1.51,1.37,1.9.29l0,.06.46-.59c.23.08-.11.39.08.69.47-.88.86.07,1.26-.53.46,1.48,1.2-.19,1.74.73l0-.35c.09-.36.16.19.25.26,0-.27-.15-.3-.09-.5,1-.51,2.12.35,3.19.57.38.06.06-1.84.61-1l-.08.66c.7-.85,1.56-.12,2.25-.85,0,.15,0,.34-.09.35.2.45.59,0,.56-.42.12,0,.06.34.14.53s.35-.64.47-.18a.29.29,0,0,1,0,.19c.08-.24.48,0,.34-.52.3.23.52-.29.77,0,.09-.61.5.23.48-.61,0,.87.54.64.69.22,0,.27.18.25.13.62.21,0,.38-.22.31-.65.45,1,.68-.89,1,.37a6.37,6.37,0,0,1,1.62-1.13c0,.81-.59.15-.5,1,.48-.4.72-1.12,1.25-1,.14.1,0,.36-.08.5.48-.39,1-.05,1.41-.53a.4.4,0,0,1-.08.22c.09,0,.22.08.18-.27l-.08.11c-.18-.5.27-1.1.27-1.37-.07,1,.47.21.33,1.49a.75.75,0,0,0,.08-.48c.09.06.13.19.06.46.31-.22.17-.57.46-.6a2.59,2.59,0,0,1-.06.43c.12-.34.25-.67.5-.56,0,.1,0,.22,0,.23.42-.11.65-.92,1.15-.68-.08.7.18.21.27.79l.24-.21-.13-.27c.22,0,.37-.46.59-.31l-.14.26.4-.17-.26-.18c.19-.33-.11-.72.21-.6-.06.06.22,0,.37.29h0c.09-.19.18-.39.36-.28s.05.61.09.73c0-.48.51-.23.57-.74a1.32,1.32,0,0,0,0,.46l0-.38c.12.1.14.15.16.37.32,0-.21-.65.21-.43,0,0,0,.09-.06.15.4.08.67-.37,1-.28.21.48-.26.2-.07.59.48-.21.88-.85,1.37-.86l-.1,0c-.11-.67.42.23.58-.16a.59.59,0,0,0,0,.3c.35,0,.61-.37,1-.72v.17c.23.06.51-.12.73-.13,0-.17.12-.19,0-.36.45.28.69,0,.92-.23s.42-.47.81-.35c-.06,0-.1.19-.05.16l.38-.36c-.13-.16-.12-.08-.28-.17a.37.37,0,0,1,.17-.34c-.12.22.16.29.3.34,0-.05,0-.13-.09-.18.4.19-.16-.37.25-.34l0,.1c.08-.12.11-.3.24-.35.16.15-.06.16,0,.32.16-.13.1-.55.36-.47,0,.09-.13.16-.17.25.3.1.28,0,.42,0h0l.32-.14H98c-.11-.57.34-.41.39-.86-.06.42.07.16.18.33.1,0,.23-.08.24,0,0-.24.26-.13.26-.46,0,0,.11-.12.19,0,.11-.19-.1,0-.14-.09.1-.34.62-.48.7-1s0-.53.17-.86c.11-.08.07.15.07.15a1.11,1.11,0,0,0,.24-.47c0,.05,0,0,.09,0s-.06-.13,0-.3a1.06,1.06,0,0,1,.05.18,4.68,4.68,0,0,1,.07-.54s0,.12,0,.19c0-.21.13-.51.08-.59a.56.56,0,0,1,0,.12c0-.07,0,0,0,0s-.09.23-.11.24l0-.13c-.15.09-.16.49-.23.74l-.07-.15c0,.09,0,.19,0,.28s-.14,0-.1-.08c-.15.13,0,.16-.18.26s0,0,0,0l-.06.18s-.1,0,0-.11c-.25.21-.16.5-.34.52v0c-.23.37.08.1,0,.47a3.18,3.18,0,0,1-.43-.06l.09.13s-.1.1-.14,0c0,.2.07,0,.09.17-.24.07-.37.48-.6.32,0,.15.22-.07.12.16-.27-.19-.15.23-.4.25-.07-.17.13-.22-.12-.21.11.31-.35.17-.45.31.15.2-.22.29-.4.52,0-.09-.54.13-.82.15l0-.05c.12.3-.15.38-.29.51-.09-.18-.1-.26,0-.38l-.17.08a.27.27,0,0,1-.1.26l-.07-.24c-.22.09-.3.48-.67.41.08.25.52.55.28.84-.07-.12-.18-.33-.12-.42s0,.15-.13.11l0-.26c-.17,0,0,.21-.1.23-.08-.19-.14-.1-.19-.25s.13,0,.14,0a.55.55,0,0,1-.43-.17c0,.1.1.25,0,.31-.23.1-.18-.2-.35-.26,0,.16-.2,0-.09.36-.07,0-.13-.12-.19-.2-.07.17-.54.2-.29.5h0l0,0h0c-.29.46-.89,0-1.24.29l0-.12c-.2.2-.51.21-.61.5-.08,0-.23-.19-.23-.34-.16.13-.15.28-.46.12.13-.26-.11-.18.15-.2-.26-.06-.36-.26-.54.13,0-.34-.27-.39-.36-.28l.22.22a.51.51,0,0,1-.36,0l0-.46c-.58-.5-.72,1.07-1.25.15-.07.35.31.21.25.61-.24,0-.57-.7-.64-.7-.34-.26-.19.74-.54.58.06.17.16.64-.06.84-.24,0-.37-.73-.25-.89s.09,0,.09.1a.24.24,0,0,0,0-.35v.19c-.14-.18-.45-.14-.41-.44-.15.18,0,.3.1.39-.32-.25-.45,0-.77-.16.06.11.12.32.07.32-.46-.21-.16.37-.45.47-.2-.28,0-.69-.28-.44-.21-.19-.09-.5,0-.66-.26.38-.55-.23-.72-.3l.14-.16a.26.26,0,0,1-.23.09l.12.39c-.1-.07-.17-.07-.18-.23-.07.26.12.65,0,1-.13-.19-.34.24-.42-.29.38.17-.08-.53.22-.62,0,.06-.13.06-.22,0a.16.16,0,0,1,0-.14c-.38-.47-.11.6-.47.61,0-.31-.13-.57-.19-.51.15,0,.11.5,0,.74-.25-.23-.24.19-.36.17l.14.1c0,.31-.14.28-.29.38,0-.24.13-.17.07-.27-.14.55-.46-.54-.68-.17-.13-.2-.05-.58-.17-.72-.25.42-.34-.42-.61-.07.12.42.13.31,0,.74l.47-.32-.27.63c.15,0,.29-.29.39-.22-.13.35-.12.25,0,.59-.25-.62-.37.4-.63,0L82,114c-.39-.46-.58.57-1.05.33l.16.18c0,.43-.27.07-.41.25a1.58,1.58,0,0,0-.2-.71c0,.27-.33,0-.31.72l-.24-.47c-.38-.18-.33,1.07-.69,1,.07-.4-.11-.66.1-1-.12,0-.23-.06-.21.2-.09-.23-.28.52-.42.17,0,.17,0,.56-.16.54a.69.69,0,0,1,0-.19c0,.19-.19.27,0,.68-.45-1.15-1,.16-1.39-.84a2.89,2.89,0,0,1-.78.34c0-.12,0-.2,0-.16-.35-.33-.11,1.11-.51.74-.23-.6.17-.35,0-.57-.15-1.26-.42.2-.73-.52l.06-.08c-.23-.42-.42.51-.73.44a1,1,0,0,0,0-.19,1.76,1.76,0,0,1-.81,1.12c0-.51.11-.28,0-.78-.12.08.11.81-.14,1a3.05,3.05,0,0,1-.39-1l.25,0c-.19-.7-.32,0-.47-.07v-.31c-.38.13-.32.91-.73.89l.06.23c-.16.79-.22-.42-.4.17l-.13-.78a4.22,4.22,0,0,1-.71,1,4.3,4.3,0,0,1,.55-1.28.55.55,0,0,0-.53.49c0-.08.11-.28.18-.16-.13.63-.34,1-.64,1-.07-1.52-.79-.32-1.09-1.49-.47.61-1-.15-1.64,0,.31,1.17-.17,0,0,1.26-.13.09-.18.08-.2,0l-.48-.69c-.13-.34.11-.28.07-.55-.31-.07-.17-.5-.4-.81.08.43,0,.63-.24.49l.29.53c-.37.68-.45-1-.83-.3l.11-.39c-.21.24-.82.07-1,1.05,0-.13-.13-.45,0-.55-.54-.09-1.09,1.13-1.55.59l0-.3c-.09.1-.13.56-.28.28,0-.12,0-.29,0-.3s-.22.53-.36.38l.08-.34c-.54-.32-.72.87-1.14,1.11a1.25,1.25,0,0,0-.7-1.18v-.12c-.6,0-1,.81-1.49,1.18-.41-.84-1.19-.23-1.78-.64a.93.93,0,0,1-.06.7c-.14-.14-.32.58-.35-.13h0c-.15-.69-.4-.46-.61-.46l0,.93c-.65-1.26-1.39.65-1.78-.48-.11.24-.28.26-.39.5l0-.47a1.47,1.47,0,0,0-1,.07l.06-.34c-.25,0-.21,1.36-.44,1.41l-.13-.66c-.44.07-.93-.44-1.32.21,0-.09,0-.28.07-.31-.21,0-.84-.3-.7.54-.05-.55-.46,0-.68.29v-.41c-.16.54-.16.68-.43.85-.07,0-.08-.3,0-.21-.24-.18-.14.39-.43.21l.08-.26c-.23,0-.2.13-.3.43s-.45,0-.51-.37c0,.21-.11.49-.26.41a.42.42,0,0,1,0-.25c-.4-.19-.54.49-.83.18a.37.37,0,0,0-.06-.21,2,2,0,0,1,.53,0c0-.33-.28-.35-.12-.84-.17.29-.47.87-.72.76a.66.66,0,0,1,0-.11l0,0s-.1,0-.14.08a.36.36,0,0,0-.21-.06c0-.26-.29-.09-.41-.09,0,.34-.13.31,0,.56,0,0,0,0,.1-.07a.1.1,0,0,0,0,0v0l.31-.07c-.09.19-.18.34-.33.18,0,.22-.09.45-.12.55-.21-.44-.55-.63-.62-.9-.36.24-.87.27-1.06.85-.1.09-.13-.14-.18-.22s.13-.06.16-.15c-.2.18-.63.15-.65.52-.28-.12.13-.35-.24-.24l0-.12c-.38-.22-.66.06-.94.29a.8.8,0,0,1-1,.17c.06,0,.09,0,.1.09-.93-.09-1.87.44-2.8.28-.26,0-.27.11-.42.21l-.07-.13-.26.19c-.37.13-.68-.17-1.14.08l.06,0c-.17,0-.54.11-.52.05a.14.14,0,0,1-.12,0v0l-.42.11c-.33,0,0-.09-.43,0a3.31,3.31,0,0,1-.44.1l.19,0-.16,0s-.16,0,.25,0a1.31,1.31,0,0,0,.28,0l.1,0-.24,0a.86.86,0,0,0,.31,0l.13,0,.27,0s-.12,0,.07.08-.13-.08.08-.09.1.08.26,0,0,0-.07,0c.14,0,.37,0,.44,0s.48,0,.47.14a1.17,1.17,0,0,1,.37-.11c-.22.19.49,0,.45.27.16-.19.63,0,.93-.17,0,0,0,.06-.08,0a.88.88,0,0,1,.35.17c0-.21.28-.26.41-.41.23.24-.11.28,0,.5,0-.19.36-.17.27-.34.18.15.15.07.25.29,0-.33.15,0,.27-.25.25.17.08.32.34.23C42,120.19,41.78,120.3,41.78,120.3Zm6.13-.7h0l-.13,0Zm.52,0a.88.88,0,0,0-.23,0c0-.13,0-.25,0-.25S48.34,119.48,48.43,119.58Zm-1.29-2.3c.08-.07.11,0,.13.06l-.14.07v0C47.13,117.39,47.13,117.32,47.14,117.28Z"/><path class="cls-2" d="M47,117.74l0,0,0,.07,0-.11Z"/><path class="cls-2" d="M93.67,113.7h0a.08.08,0,0,1,0,0Z"/><polygon class="cls-2" points="55.66 120.22 55.65 120.1 55.61 120.2 55.66 120.22"/><path class="cls-2" d="M96.67,113.43s0,0,.06,0Z"/><path class="cls-2" d="M97.75,112.74l.18-.06Z"/><path class="cls-2" d="M98.56,112.15a.43.43,0,0,0,0-.07h0Z"/><path class="cls-2" d="M84.09,117.62l0,0C84,117.75,84,117.7,84.09,117.62Z"/><path class="cls-2" d="M88.49,116a.91.91,0,0,1-.12.22C88.46,116.22,88.52,116.22,88.49,116Z"/><path class="cls-2" d="M79.16,118.84h0Z"/><path class="cls-2" d="M88.16,116.23a.13.13,0,0,0,.21,0C88.3,116.18,88.22,116.15,88.16,116.23Z"/><polygon class="cls-2" points="100.65 108.46 100.66 108.42 100.66 108.41 100.65 108.46"/><path class="cls-2" d="M100.66,108.41v0S100.65,108.4,100.66,108.41Z"/><path class="cls-2" d="M100.66,108.24v.12A.24.24,0,0,0,100.66,108.24Z"/><path class="cls-2" d="M100.24,109.69l0,0Z"/><path class="cls-2" d="M100.08,110.06c0-.09.17-.18.2-.32v0C100.29,109.8,100.07,109.94,100.08,110.06Z"/><path class="cls-2" d="M98.67,111a1.44,1.44,0,0,0,.25-.18c-.07,0-.18,0-.1-.11C98.41,110.83,99,110.72,98.67,111Z"/><path class="cls-2" d="M97.87,111.51c.11-.12-.07-.08-.09-.12C97.73,111.5,97.72,111.53,97.87,111.51Z"/><path class="cls-2" d="M91.48,114l-.06-.33C91.3,113.69,91.45,113.75,91.48,114Z"/><polygon class="cls-2" points="90.51 115.97 90.68 116.16 90.68 115.82 90.51 115.97"/><polygon class="cls-2" points="89.27 113.56 89.32 113.51 89.13 113.66 89.27 113.56"/><path class="cls-2" d="M77.4,114.26l.09.6C77.57,114.75,77.53,114.07,77.4,114.26Z"/><path class="cls-2" d="M72.27,115.24c-.09-.31-.25-.5-.31-.18C72.08,115.09,72.21,115.33,72.27,115.24Z"/><polygon class="cls-2" points="56.68 115.78 56.77 115.58 56.59 115.76 56.68 115.78"/><path class="cls-2" d="M100,114.73l.06.11.06.1Z"/><path class="cls-2" d="M100.44,115.69c.1.16.24.34.22.21s-.14-.19-.27-.35-.12-.25-.1-.23l-.17-.29a6.26,6.26,0,0,0,.35.66C100.49,115.75,100.46,115.7,100.44,115.69Z"/><path class="cls-2" d="M105.68,121.23l0,.1A.13.13,0,0,0,105.68,121.23Z"/><path class="cls-2" d="M105.65,111.49a.12.12,0,0,0,.11.11C105.73,111.53,105.69,111.48,105.65,111.49Z"/><path class="cls-2" d="M106.2,109.81a.54.54,0,0,0,0,.1S106.24,109.83,106.2,109.81Z"/><path class="cls-2" d="M105.68,121.23l.11-.27C105.67,121,105.71,121.1,105.68,121.23Z"/><path class="cls-2" d="M101.62,117.52l-.09-.11.08.11Z"/><path class="cls-2" d="M106.1,125.5v.08l.12.06Z"/><path class="cls-2" d="M103.57,123.22c0,.07.21,0,.3,0a.21.21,0,0,1-.19-.09A.47.47,0,0,0,103.57,123.22Z"/><path class="cls-2" d="M101.65,118.34l-.05-.08Z"/><path class="cls-2" d="M106.1,123.14l.11,0A.25.25,0,0,0,106.1,123.14Z"/><path class="cls-2" d="M107.41,31.16h0S107.41,31.13,107.41,31.16Z"/><polygon class="cls-2" points="108.3 27.42 108.3 27.47 108.3 27.48 108.3 27.42"/><path class="cls-2" d="M106.78,106.76h0C106.83,106.85,106.82,106.81,106.78,106.76Z"/><path class="cls-2" d="M106.69,79c-.5.3-.63-.53-1.19-.07C105.72,78.85,106.36,79.34,106.69,79Z"/><path class="cls-2" d="M101.66,117.6l.07.12Z"/><path class="cls-2" d="M105.5,78.89h0l0,0Z"/><path class="cls-2" d="M106.52,99.78a.93.93,0,0,0-.22.08A.45.45,0,0,0,106.52,99.78Z"/><path class="cls-2" d="M105.82,105l.06-.13A.22.22,0,0,0,105.82,105Z"/><path class="cls-2" d="M105.79,97.09c0-.07.12-.09,0-.19l-.06,0C105.84,97,105.88,97,105.79,97.09Z"/><path class="cls-2" d="M105.79,94.28l-.11,0,0,.09Z"/><path class="cls-2" d="M105.81,39.62a.87.87,0,0,1,.25-.1C105.87,39.54,105.88,39.13,105.81,39.62Z"/><path class="cls-2" d="M101.58,117.55s0,0,.08,0l0-.08A0,0,0,0,0,101.58,117.55Z"/><path class="cls-2" d="M101.6,97l.06-.45A1.09,1.09,0,0,0,101.6,97Z"/><path class="cls-2" d="M103.24,59.79l0-.11A.08.08,0,0,0,103.24,59.79Z"/><path class="cls-2" d="M101.53,95.24a.88.88,0,0,0,.37-.26l-.14,0Z"/><path class="cls-2" d="M106.06,39.52Z"/><path class="cls-2" d="M106.08,36.54c-.1.42.22.23.35.33,0,.52-.24.22-.41.37,0,.32.22.59.17.83,0,0-.07,0-.13,0,.18.36-.17,1,.09,1.41a.2.2,0,0,1-.09.05,1.05,1.05,0,0,1,.46,0c0,.19.17.38-.06.43,0-.12-.07-.14-.13-.2l.07.21c-.34.15-.07-.28-.3-.31,0,.4.25.88.12,1.17-.33,0,0-.71-.35-.34l.19-.45c-.55.3.08-.27-.5,0-.2.59,0,.69-.15,1.28.16.16.28,0,.45.14.23.9-1,.59-.61,1.27.21.19.66.29.36.72l-.4-.19c-.14.58.56.39.18,1-.15-.13-.07-.48-.14-.39-.4.36.21.3.16.61l-.39,0c0,.63.15,1.35.14,2-.12,0-.23-.18-.38,0a5.3,5.3,0,0,1-.7,2.69l.36.35a.17.17,0,0,1-.27,0c-.2.32.25,0,.39.21s-.26.23-.37.1c.26.61.55,1.71,0,2.29l-.11-.13c-.24.47.83.61.38,1l-.07-.09c-.31,1,0,2.2-.78,2.94.66.2-.42,1,.54,1.14-.54.56-.7.38-1.11,1.19-.07.22.58.37.67.66l-.52,0,.51.41-.64.16.11.26a.42.42,0,0,1,.4-.17c.21.41-.45,1-.73,1l.37,1c-.21,0-.27-.2-.4-.34.5.54-.58.06-.12.56.13-.06.32,0,.43.07a1,1,0,0,0-.29,1.14l-.37-.09a15.93,15.93,0,0,0,0,2.3c.21-.27.87-.17.92.06l-.6.07c.36.17.24-.24.67.1-.08.29-.69.16-.87,0l.18.37c-.18,0-.27-.07-.5-.11.37.17-.65.6,0,.85h-.18c-.07.79.12,1.17.1,1.82.53,0,.4.28.81.5-.19.47-.65,1-.64,1.56.25.41.45.13.76.33-.49,0-.47.58-.81.27a4,4,0,0,0,.42,1.78c.2-.09.3-.19.46-.13s-.22.35-.46.32l0,0c.71,1-1.57,2.21-.55,3l-.05,0,.52.83c-.1.37-.38-.24-.7,0,.82.9-.17,1.38.38,2.11-1.52.53,0,2-.93,2.72l.36,0c.34.2-.21.23-.3.37.28,0,.33-.2.52-.08.39,1.66-.56,3.4-.89,5.09-.1.62,1.83.36,1,1.14l-.66-.23c.78,1.25,0,2.55.67,3.78-.15-.08-.35-.08-.34-.2-.47.26,0,1,.37,1,0,.19-.35,0-.54.16s.61.65.15.79c-.08,0-.16-.07-.19-.12.23.17,0,.79.49.62-.25.46.25.88-.06,1.24.6.24-.26.79.58.86-.87,0-.67.81-.26,1.09-.26-.09-.26.26-.62.15,0,.33.19.63.63.57-1,.62.85,1.21-.43,1.57a14.68,14.68,0,0,1,1,2.76c-.82,0-.13-1-1-.92.39.83,1.1,1.3,1,2.13-.1.22-.36-.11-.5-.18.37.82,0,1.62.48,2.35-.07,0-.15-.08-.22-.16,0,.15-.09.35.26.32l-.1-.14c.5-.25,1.09.55,1.36.57-1-.22-.23.74-1.5.39a.52.52,0,0,0,.47.18c-.06.14-.19.19-.46,0,.21.52.57.32.59.8-.17,0-.24-.09-.44-.13.34.23.68.46.56.86-.1,0-.22,0-.23-.09.1.69.91,1.15.65,1.92-.7-.2-.21.26-.8.32l.21.4.27-.17c0,.36.46.65.28,1l-.25-.26.15.66.2-.38c.31.35.72-.07.58.41-.06-.09,0,.36-.31.56h0c.19.17.38.35.26.61-.18.08-.62,0-.73,0,.47.15.18.82.68,1a.75.75,0,0,0-.46,0l.38.13c-.11.17-.16.19-.39.18,0,.5.67-.19.42.41,0,0-.09,0-.15-.11-.1.59.31,1.13.17,1.68-.49.18-.16-.47-.58-.26.17.77.73,1.58.67,2.35l0-.15c.68.07-.29.58.06.95-.06-.09-.37-.1-.3-.08a5,5,0,0,0,.52,1.82l-.17-.09a6.18,6.18,0,0,0,0,1.14c.16.09.15.28.36.15-.72,1.07.58,1.91,0,2.86,0-.11-.14-.25-.13-.16l.2.75c.2-.07.11-.11.26-.28a.66.66,0,0,1,.25.4l.09,0,0-.08.09.06-.18,0c-.06-.08-.13,0-.19,0l.55-.15c0-.09,0-.22.06-.31s-.13,0-.18.08c.13-.52-.4.12-.43-.48l.11,0c-.15-.15-.35-.26-.42-.48.15-.17.19.15.35.09-.16-.27-.64-.37-.58-.71.11.09.2.26.31.35a.69.69,0,0,0-.07-.6v0l-.16-.51v.14c-.64-.11-.46-.65-1-1,.49.33.19,0,.38,0,0-.15-.06-.35,0-.32-.26-.15-.1-.42-.47-.62,0,0-.13-.24,0-.25-.2-.26,0,.11-.13.12-.4-.36-.39-1.11-.94-1.64a10.74,10.74,0,0,1-.85-1c0-.19.18.09.18.09a2.81,2.81,0,0,0-.39-.75c.05,0,0,0,0-.11s-.17-.1-.28-.39a1.67,1.67,0,0,1,.21.16c-.16-.23-.34-.45-.49-.69,0-.08.13.13.21.2-.18-.27-.45-.71-.53-.78l.08.19c0-.1,0-.07.06,0,.17.23.18.36.17.38l-.11-.17c0,.24.39.72.59,1.08l-.18-.1.28.33c0,.1,0,.19-.14,0,.07.3.16.21.2.48,0,0,0,0,0,0l.16.24s-.08.09-.13-.08c.13.51.46.7.43.94l0,0c.36.62.15,0,.54.41l-.17.49h.17c0,.07.08.21,0,.21.21.2,0-.07.2,0,0,.39.5.85.28,1,.18.06,0-.35.2,0-.24.24.24.37.25.73-.2,0-.24-.33-.25,0,.35,0,.21.61.37.83.24-.1.35.5.63.87-.1,0,.23.86.3,1.3h0c.29-.06.43.32.61.58l.93,1.35-.35-1.51v-.06a.36.36,0,0,1,.22,0l.77.46L105,126a.45.45,0,0,1-.21-.1l.08.17,1.33,2.94-.09-3.28v-.12a.47.47,0,0,1-.21-.35l.25.06c0-.4-.33-.79-.16-1.32-.26,0-.68.46-.89-.08.14,0,.37-.06.44.07,0,0-.13-.16-.07-.25l.24.2c.09-.24-.2-.11-.19-.3.2,0,.14-.15.3-.13s-.08.17,0,.23a.87.87,0,0,1,.29-.57c-.11,0-.27,0-.3-.14,0-.4.24-.15.34-.39-.15-.09,0-.36-.32-.34,0-.12.15-.15.23-.2-.14-.2-.07-1-.41-.72l0,.06,0,0h0c-.37-.66.13-1.43,0-2.1h.12c-.15-.4-.11-.9-.39-1.17,0-.12.22-.3.37-.25-.1-.31-.25-.34,0-.79.24.3.2-.12.18.31.1-.41.31-.51-.06-.93.34.13.42-.32.32-.51l-.24.3a1.52,1.52,0,0,1,0-.6l.46.08c.57-.84-1-1.43,0-2.1-.34-.2-.23.46-.63.28,0-.38.75-.81.76-.93.27-.53-.73-.45-.55-1-.18.08-.66.17-.84-.23.05-.38.75-.5.9-.27a.11.11,0,0,1-.1.14c.07.12.15.28.34.12l-.18,0c.18-.2.16-.72.46-.61-.17-.28-.3-.11-.39.11.26-.5,0-.76.18-1.27-.11.09-.33.17-.33.09.23-.74-.36-.31-.45-.8.28-.3.69.07.44-.42.2-.31.51-.08.67,0-.38-.44.24-.86.31-1.12l.16.24a.62.62,0,0,1-.09-.38l-.39.15c.07-.14.07-.26.23-.26-.26-.14-.65.13-1-.15.2-.19-.22-.56.31-.64-.18.59.53-.09.61.41a.34.34,0,0,1,0-.35.11.11,0,0,1,.14.05c.49-.58-.59-.24-.58-.83.3.07.57-.15.51-.24,0,.23-.51.13-.74-.08.24-.39-.18-.41-.15-.6l-.11.22c-.31-.06-.27-.25-.37-.51.24,0,.17.23.27.14-.55-.28.56-.68.19-1.07.21-.19.58,0,.73-.2-.41-.45.43-.5.09-1-.42.15-.32.17-.73-.16l.3.78-.62-.49c0,.24.27.49.2.64-.35-.24-.24-.21-.59-.09.63-.34-.38-.63,0-1h1.06c.48-.57-.56-1-.28-1.73l-.19.24c-.43-.09-.06-.45-.23-.68a1.34,1.34,0,0,0,.72-.24c-.27,0,0-.53-.71-.59l.49-.33c.2-.6-1-.66-.93-1.23.4.17.67-.1.95.28,0-.19.08-.36-.18-.36.23-.11-.5-.52-.15-.7-.16-.07-.56-.1-.53-.31a.55.55,0,0,1,.19,0c-.19,0-.26-.33-.67-.14,1.17-.6-.11-1.63.92-2.15a5.75,5.75,0,0,1-.27-1.28c.11,0,.19,0,.15.07.36-.52-1.1-.32-.7-.91.62-.3.33.32.57.13,1.27-.09-.17-.71.57-1.11l.08.1c.43-.31-.48-.74-.39-1.24a.46.46,0,0,0,.19,0,2.37,2.37,0,0,1-1-1.46c.5.15.26.21.77.13-.07-.22-.82,0-1-.37a2.22,2.22,0,0,1,1.07-.48l0,.4c.71-.2,0-.52.11-.73l.31,0c-.09-.62-.88-.63-.81-1.3l-.24.07c-.77-.37.44-.3-.13-.67l.79-.1a5.67,5.67,0,0,1-.9-1.27,4.19,4.19,0,0,1,1.22,1.07c0-.24,0-.81-.44-.94.08.1.27.22.15.32-.62-.3-.92-.69-.9-1.16,1.53.11.4-1.22,1.6-1.55-.55-.84.27-1.64.2-2.61-1.19.31,0-.29-1.25-.26-.07-.22,0-.31,0-.33l.74-.67c.36-.15.27.23.54.21.1-.49.52-.19.85-.51-.44.06-.62-.19-.45-.47l-.57.39c-.63-.71,1-.57.4-1.29l.38.23c-.22-.36,0-1.31-.92-1.69.14-.06.47-.13.55,0,.16-.85-1-1.94-.37-2.58l.29.07c-.08-.16-.54-.3-.24-.49.12,0,.29.08.3,0s-.49-.45-.32-.65l.32.19c.39-.82-.76-1.31-.93-2a1.3,1.3,0,0,0,1.28-.92h.11c.13-1-.64-1.68-.93-2.59.9-.52.41-1.87.93-2.74-.15.13-.61-.06-.68-.22.16-.21-.53-.62.19-.54l0,.07c.71-.12.54-.56.57-.9l-.93-.11c1.36-.8-.39-2.34.79-2.75-.22-.23-.21-.49-.42-.72l.47,0a3.63,3.63,0,0,0,.12-1.61l.33.18c0-.41-1.3-.62-1.31-1l.68-.07c0-.72.61-1.4.05-2.15.09,0,.28,0,.3.17,0-.34.46-1.28-.4-1.22.55,0,.07-.74-.14-1.15l.4.09c-.5-.36-.64-.39-.75-.85.06-.11.32-.07.21.06.23-.34-.35-.31-.12-.73l.24.18c0-.37-.08-.35-.35-.58s.14-.69.47-.72c-.2-.07-.46-.3-.35-.51a.26.26,0,0,1,.24.11c.27-.6-.37-1,0-1.35a.33.33,0,0,0,.21-.06,3,3,0,0,1-.1.85c.34,0,.41-.36.86,0-.25-.35-.76-.94-.59-1.32l.11,0,0,0a.29.29,0,0,0,0-.25.77.77,0,0,0,.11-.31c.26,0,.15-.45.18-.65-.34,0-.27-.26-.56,0,0,0,0,0,0,.18a.14.14,0,0,0,0,.09l0,0c0,.13,0,.3,0,.5-.16-.18-.29-.35-.09-.56l-.52-.32c.48-.23.75-.73,1-.78-.15-.63-.06-1.45-.59-1.88,0-.18.18-.19.26-.24s0,.22.11.28c-.12-.36,0-1-.35-1.15.19-.42.32.28.29-.32l.11.09a1.86,1.86,0,0,0-.06-1.58,1.92,1.92,0,0,1,.09-1.66c0,.09-.06.13-.11.14.33-1.46,0-3.08.45-4.52a1.16,1.16,0,0,0-.09-.73l.14-.08-.11-.45c0-.62.35-1,.24-1.84l-.06.1a4.7,4.7,0,0,1,.09-.84.46.46,0,0,1,0-.21h0v-.7c.06-.53.08.1.11-.69,0-.29,0-.83,0-.72a2.84,2.84,0,0,1,0,.31l0-.27s.06-.25-.1.39l-.08.45-.05.14.08-.37a1.76,1.76,0,0,0-.1.5.55.55,0,0,0-.07.18c0,.15,0,.3,0,.45s0-.21-.09.08.11-.18.06.16-.1.14-.12.4c0,0,0,0,0-.13a4.4,4.4,0,0,0-.07.72c-.12.21-.13.76-.27.72a2.33,2.33,0,0,1,0,.61c-.12-.4-.17.77-.38.64.14.31-.14,1-.09,1.53,0,0,0-.09,0-.13a1.94,1.94,0,0,1-.25.52c.21.06.18.5.29.75-.29.31-.24-.24-.48-.16.2,0,.08.61.27.52-.19.24-.11.21-.35.32.32.08,0,.25.18.49-.24.36-.34.06-.31.49C106.13,36.92,106.08,36.54,106.08,36.54Zm-.8,10h0v0Zm-.09.84a3.13,3.13,0,0,0,0-.36c.13,0,.25,0,.24.11C105.4,47,105.31,47.23,105.19,47.35Zm2.54-1.55c0,.13,0,.17-.09.18s0-.13,0-.23l0,0A.59.59,0,0,1,107.73,45.8Z"/><path class="cls-2" d="M107.31,45.52a.11.11,0,0,1,0-.06l-.08.07.1.06Z"/><path class="cls-2" d="M105.64,121.35v0a.08.08,0,0,1,0,0Z"/><polygon class="cls-2" points="103.1 58.84 103.22 58.85 103.12 58.77 103.1 58.84"/><path class="cls-2" d="M105.77,125.3a.12.12,0,0,0,0-.08S105.78,125.27,105.77,125.3Z"/><path class="cls-2" d="M104.86,123.53l-.07-.28A2.26,2.26,0,0,0,104.86,123.53Z"/><path class="cls-2" d="M104.21,122.14h0Z"/><path class="cls-2" d="M102.57,105.2a.08.08,0,0,0,0,0C102.45,105,102.49,105.1,102.57,105.2Z"/><path class="cls-2" d="M104.06,112.43a1.52,1.52,0,0,1-.22-.22C103.82,112.34,103.82,112.44,104.06,112.43Z"/><polygon class="cls-2" points="101.59 97.08 101.6 97.08 101.59 97.03 101.59 97.08"/><path class="cls-2" d="M103.83,111.87a.3.3,0,0,0,0,.34A.4.4,0,0,0,103.83,111.87Z"/><path class="cls-2" d="M100.93,116.34l0-.06h0Z"/><path class="cls-2" d="M100.88,116.27l0-.07Z"/><path class="cls-2" d="M100.74,116.06l.1.14A.85.85,0,0,0,100.74,116.06Z"/><path class="cls-2" d="M101.93,118.11h0Z"/><path class="cls-2" d="M102.24,118.65a2.19,2.19,0,0,0-.24-.53h0C102.07,118.18,102.12,118.55,102.24,118.65Z"/><path class="cls-2" d="M102.88,121.21l-.18-.49c0,.11,0,.25-.14,0C102.66,121.44,102.62,120.58,102.88,121.21Z"/><path class="cls-2" d="M103.45,122.71c-.14-.24-.09.05-.13.06C103.45,122.9,103.48,122.93,103.45,122.71Z"/><path class="cls-2" d="M105.79,117.72h.33C106.07,117.52,106,117.74,105.79,117.72Z"/><polygon class="cls-2" points="103.9 115.6 103.7 115.82 104.03 115.9 103.9 115.6"/><polygon class="cls-2" points="106.42 114.17 106.47 114.26 106.33 113.91 106.42 114.17"/><path class="cls-2" d="M106.26,94.78l-.6.07C105.76,95,106.44,95,106.26,94.78Z"/><path class="cls-2" d="M105.71,86.4c.31-.09.52-.32.21-.47C105.88,86.12,105.63,86.31,105.71,86.4Z"/><polygon class="cls-2" points="107.29 61.34 107.47 61.52 107.33 61.19 107.29 61.34"/><path class="cls-2" d="M132.21,49.92c.06.07,0,0-.16-.15l-.14-.13Z"/><path class="cls-2" d="M131,48.65c-.22-.22-.5-.44-.39-.27s.29.25.55.46a3.34,3.34,0,0,1,.29.3l.39.39c-.23-.25-.53-.57-.87-.88C130.88,48.57,131,48.64,131,48.65Z"/><path class="cls-2" d="M112.8,30.31l.09.14A.42.42,0,0,0,112.8,30.31Z"/><path class="cls-2" d="M101,19.51c.11.07.18.06.21,0S101,19.46,101,19.51Z"/><path class="cls-2" d="M99.22,17.3l.1.13C99.3,17.36,99.27,17.3,99.22,17.3Z"/><path class="cls-2" d="M112.8,30.31l-.23-.38C112.46,30,112.66,30.14,112.8,30.31Z"/><path class="cls-2" d="M128.33,46.26l.19.14-.17-.14Z"/><path class="cls-2" d="M118.09,35l.1.09.16,0Z"/><path class="cls-2" d="M121.94,38.79c-.08-.09-.25,0-.34.05a.39.39,0,0,1,.28.09A.2.2,0,0,0,121.94,38.79Z"/><path class="cls-2" d="M127.72,45.16l.12.1Z"/><path class="cls-2" d="M115.35,32.22a.17.17,0,0,0,0-.11A.21.21,0,0,0,115.35,32.22Z"/><path class="cls-2" d="M4.47,70.73s0,0,0,0S4.45,70.76,4.47,70.73Z"/><polygon class="cls-2" points="0.02 75.16 0.07 75.09 0.09 75.08 0.02 75.16"/><path class="cls-2" d="M95.72,13.63l0,0C95.87,13.69,95.81,13.65,95.72,13.63Z"/><path class="cls-2" d="M54.15,9.84c.72-.06-.07,1.06.86.84C54.8,10.59,54.83,9.56,54.15,9.84Z"/><path class="cls-2" d="M128.23,46.16l-.16-.16Z"/><path class="cls-2" d="M55,10.68h0l.09,0Z"/><path class="cls-2" d="M86.45,6.69a.59.59,0,0,0,0,.26A.66.66,0,0,0,86.45,6.69Z"/><path class="cls-2" d="M92.83,12.54l-.13-.19A.62.62,0,0,0,92.83,12.54Z"/><path class="cls-2" d="M82.36,4.62c-.07-.1-.06-.18-.24-.21a.22.22,0,0,0,0,.08C82.22,4.46,82.3,4.48,82.36,4.62Z"/><path class="cls-2" d="M78.2,2.14a.57.57,0,0,0,0,.14l.15.05Z"/><path class="cls-2" d="M14.23,60.55a.88.88,0,0,1-.32,0C14.1,60.62,13.67,61.16,14.23,60.55Z"/><path class="cls-2" d="M128.36,46.23a.42.42,0,0,1-.13-.07l.12.1S128.38,46.25,128.36,46.23Z"/><path class="cls-2" d="M79.87,8l-.54-.44A2.71,2.71,0,0,0,79.87,8Z"/><path class="cls-2" d="M36.81,36.13l-.07.16A.16.16,0,0,0,36.81,36.13Z"/><path class="cls-2" d="M77.55,6.61a.93.93,0,0,0-.16-.51.77.77,0,0,0-.13.09Z"/><path class="cls-2" d="M13.91,60.56Z"/><path class="cls-2" d="M11,64.41c.5-.5,0-.41,0-.62.52-.66.42-.15.72-.26.32-.42.39-.88.67-1.16.05,0,.12,0,.11.07.2-.56,1.12-1.19,1.32-1.88a.24.24,0,0,1,.12,0,.68.68,0,0,1-.41-.23c.21-.23.23-.57.48-.51-.14.13-.08.2-.09.32l.15-.31c.44,0-.22.4,0,.56a7.88,7.88,0,0,1,1.07-1.58c.31.14-.7.92,0,.63l-.61.48c.77-.1-.34.31.42.27.77-.66.65-.92,1.42-1.58,0-.29-.26-.13-.25-.42.7-1.27,1.43-.24,1.79-1.31,0-.35-.27-.73.42-1.12l.14.46c.7-.68-.08-.81.83-1.36,0,.24-.42.65-.28.58.71-.26.14-.5.48-.88l.36.18C20.41,54,21,52.92,21.68,52c.05.13,0,.36.29.25a13.71,13.71,0,0,1,3.3-3.06l.06-.66c.09-.08.3,0,.26.11.49-.3-.17-.19-.11-.49s.45-.15.41.08c.4-.93,1.27-2.52,2.3-3l0,.23c.67-.46-.07-1.24.72-1.51l0,.15c1.29-1.13,2.24-2.81,3.65-3.31-.35-.63,1.36-1,.71-1.75,1-.41,1-.09,2.13-.89.29-.24-.09-.81.13-1.21l.4.33v-.81l.69.17.19-.41a.43.43,0,0,1-.52,0,1.56,1.56,0,0,1,1.58-.79L38.52,34c.14.17,0,.41,0,.65.15-1,.53.27.67-.63-.17,0-.21-.26-.28-.34.5-.07,1.09-.71,1.42-1.28l.2.34c.86-.8,1.52-1.94,2.4-2.9-.46.22-.89-.3-.68-.63l.55.28c-.11-.43-.44.15-.44-.53.38-.31.73.21.69.55l.24-.58c.16.09.14.26.29.43-.12-.42,1.14-.36.88-1l.16.1c.88-1,1.12-1.55,1.81-2.36-.39-.36,0-.6-.13-1.12a9.8,9.8,0,0,0,2.13-1.57c.24-.67-.21-.45-.26-.88.41.29,1-.44.94.15a10.23,10.23,0,0,0,1.53-2.47c-.25,0-.44.05-.5-.13a.47.47,0,0,1,.7-.12V20c.5-1.7,3.57-1.81,3.62-3.46v.09l.46-1.36c.47-.39,0,.53.58.4.31-1.63,1.59-1.61,1.94-2.87,1.72.32,2-2.44,3.55-2.59l-.3-.2c0-.47.4-.12.61-.21-.21-.18-.45,0-.46-.27C62.32,7.44,65,6.46,67.1,5.9c.38-.12.31-.57.31-1s.1-.73.73-.47l-.08.71a3.37,3.37,0,0,1,2.28-.83,14.09,14.09,0,0,0,2.49-.11c-.13.13-.17.32-.32.29a.65.65,0,0,0,.72.28c.29,0,.58-.17.63-.35.25.11,0,.35.07.57.24.37,1-.29,1.07.23,0,.08-.15.1-.23.11.31-.13,1,.46,1-.12.5.49,1.28.32,1.61.86.61-.35.9.83,1.42.16-.48.71.69,1.23,1.29,1.15-.27.13.19.43-.16.63.43.28.92.41,1.09,0,.21,1.37,2.08.46,1.78,1.83A29,29,0,0,1,87,11.75c-.53.62-1.33-.87-1.8-.14,1.31.52,2.36.43,3.33,1.39.22.29-.37.16-.55.2,1.3.53,2.08,1.62,3.31,2,0,.06-.2,0-.34,0,.21.13.38.43.57.13l-.24-.06c0-.64,1.41-.27,1.61-.46-.94.55.8.93-.49,1.53a.46.46,0,0,0,.54-.17c.14.2.11.35-.24.41.8.37.79-.1,1.4.38-.11.13-.27.08-.46.19a1.58,1.58,0,0,1,1.46.48c-.09.05-.11.2-.26.08.93.63,2,.52,2.82,1.52-.72.31.18.44-.14.94l.64.27,0-.39c.45.37,1.12.36,1.39.82l-.49-.08.92.59-.34-.55c.65.14.41-.6.91,0-.16-.05.45.38.47.83h0a1.12,1.12,0,0,1,.93.46c0,.21-.46.42-.48.55.52-.17,1.15.76,1.73.63a.5.5,0,0,0-.36.29l.42-.13c.14.26.13.33-.05.47.59.57.24-.68.8.16-.08,0-.09,0-.25,0,.65.73,1.6,1,2.16,1.72-.13.56-.68-.4-.73.12a23.08,23.08,0,0,1,3.3,2.14l-.14-.19c.58-.4.49.85,1.17,1-.15-.06-.39.14-.31.11a12.88,12.88,0,0,0,2.53,1.71h-.23a15,15,0,0,0,1.31,1.34c.22,0,.43.21.44-.07a3.74,3.74,0,0,0,1.68,1.72,4.11,4.11,0,0,1,1.65,1.55c-.14-.11-.4-.19-.29-.1l1,.75c.07-.22,0-.2-.12-.5a1.57,1.57,0,0,1,.76.4c-.51-.29-.22.25-.12.49,0-.07.12-.06.15-.12.24.71.36-.22.85.57l-.1,0a3.94,3.94,0,0,1,.84.58c0,.26-.33-.17-.47-.06.38.34,1,.4,1.21.87-.2-.11-.43-.32-.63-.43a1.68,1.68,0,0,0,.54.79l0,0,.57.66-.12-.2c.82.07,1,.82,1.85,1.19-.8-.37-.21,0-.4.12.12.19.33.46.22.44.41.16.42.54,1,.77,0,.05.31.3.15.34.42.32,0-.16.06-.18.71.43,1.25,1.45,2.27,2.09.8.63,1,.68,1.72,1.31.18.26-.28-.1-.28-.1a7.46,7.46,0,0,0,1,1c-.08,0,0,0,.05.16.29.26.26.11.6.5a3,3,0,0,1-.35-.2c.34.3.7.57,1,.9.06.11-.24-.17-.38-.26.39.35,1,.93,1.15,1l-.23-.25c.14.13,0,.09-.06,0a1.5,1.5,0,0,1-.46-.51l.25.23a9.84,9.84,0,0,0-1.45-1.41l.28.11-.56-.42c-.08-.12-.09-.25.15,0-.29-.4-.33-.28-.57-.63,0,0,0,0,0,0l-.36-.32c.09,0,0-.13.21.1-.52-.69-1-.91-1.17-1.23l.06,0c-.87-.8-.17,0-.92-.5l-.16-.68-.19,0c-.08-.1-.24-.27-.16-.29-.4-.24,0,.11-.26,0-.3-.52-1.19-1.09-1.09-1.38-.24,0,.33.47-.19.1.1-.35-.55-.47-.83-1,.24,0,.53.42.27-.08-.44,0-.69-.78-1.05-1.07-.19.17-.76-.62-1.37-1.08a19.62,19.62,0,0,0-1.34-1.69l.06,0c-.32.13-.8-.42-1.22-.74.15-.13.27-.12.53,0l-.35-.35a1,1,0,0,1-.57-.27l.26-.1c-.48-.45-1.16-.7-1.66-1.43-.21.16,0,1-.76.5.07-.13.21-.32.42-.2-.07,0-.28-.11-.35-.26l.42.08c-.22-.35-.28,0-.49-.23.14-.14-.07-.26.07-.35s.14.25.27.28a1.91,1.91,0,0,1-.45-.87c0,.11-.18.21-.39.05-.49-.44,0-.34-.2-.68-.22,0-.42-.41-.64-.18-.14-.14-.07-.27-.06-.39-.35-.13-1.2-1.07-1.15-.54l0,.07-.06,0h0c-1-.52-1.59-1.72-2.51-2.37l.08-.09c-.59-.34-1.15-.94-1.69-1-.15-.13-.19-.49,0-.54-.44-.27-.58-.2-1-.85.53.17,0-.27.5.23-.42-.53-.39-.79-1.16-1,.4-.1-.09-.67-.39-.8l.18.5a4.59,4.59,0,0,1-.72-.66l.42-.23c-.64-1.35-2.46-.88-2.61-2.3-.49,0,.4.67-.09.76-.43-.46-.48-1.42-.62-1.56-.47-.77-1.07,0-1.63-.68,0,.21-.25.65-.87.35-.44-.45-.1-1.08.29-.94.13.08.14.18.1.22.2.08.45.19.38-.12l-.17.09c-.12-.35-.79-.89-.44-1-.47-.17-.35.11-.14.41-.44-.73-1-.81-1.47-1.49,0,.17,0,.42-.11.33-.78-1-.64-.06-1.32-.52-.18-.52.57-.43-.22-.77-.27-.48.24-.47.49-.46-.81-.19-.93-1.09-1.22-1.42l.4.13a1.65,1.65,0,0,1-.54-.33l-.07.45c-.13-.2-.28-.33-.18-.46-.35,0-.26.63-.85.61-.12-.35-.87-.42-.63-.91.65.76.25-.48.94,0a1,1,0,0,1-.45-.39c0-.07.1-.06.16,0-.42-1-.7.19-1.44-.42a.39.39,0,0,0,0-.65c.3.25-.16.52-.58.48-.34-.57-.64-.28-.88-.5l.22.32c-.28.16-.5-.06-.9-.25.12-.22.41.11.35-.07-.71.14-.51-1.12-1.25-1.24-.12-.36.33-.49.2-.77-.84-.14-.38-.84-1.21-1.06-.07.48,0,.42-.67.41l1.21.56-1,0c.3.24.81.29,1,.49-.52,0-.42,0-.49.37,0-.83-1.06-.35-1.29-1.07l.65-.83c-.45-1-1.63-.58-2.44-1.52l.2.38c-.39.25-.64-.39-1-.49.24-.27.12-.52.13-.8-.15.23-.7-.56-1.22,0l-.14-.72c-.67-.75-1.52.19-2.21-.46.46-.16.26-.63,1-.49-.26-.19-.46-.42-.61-.21,0-.3-1-.09-1.05-.55-.21.06-.46.36-.74.14a.24.24,0,0,1,.1-.15c-.1.15-.6-.1-.57.42-.2-1.54-2.36-1.34-2.68-2.62-.7-.21-1.55-.44-2.18-.64.08-.1.07-.18.17-.1-.75-.65-.87.84-1.71.18-.35-.74.61-.18.36-.5C75,.6,74.66.55,74.25.55S73.35.64,73,.22l.19,0C73-.08,72.61,0,72.21.1a3,3,0,0,1-1.3.26.26.26,0,0,0,0-.19,8.69,8.69,0,0,1-2.51,1.3c.16-.54.33-.33.07-.8-.36.14.26.78-.43,1.07-.29-.23-.87-.29-1.11-.8l.71-.23C67.1.13,66.72,1,66.32,1l0-.31c-1.06.51-.75,1.23-1.82,1.69l.22.15c-.18,1-.67-.12-.93.68l-.58-.57c-.12.2-.33.55-.57.93a6.32,6.32,0,0,1-.72,1.06,4.84,4.84,0,0,1,.81-2.06c-.38.22-1.16.86-1.1,1.3.09-.15.15-.44.35-.43a2.6,2.6,0,0,1-1,1.92c-.43-.64-.9-.36-1.41,0s-1,.85-1.64.64c-.62,1.4-2.15,1.87-3.17,3.16,1.26.35-.29.38.69,1.11-.19.33-.3.43-.38.4l-1.29.37c-.44,0,0-.44-.2-.6-.6.56-.61-.08-1.21.12.4.2.28.62-.15.86l.86-.12c-.27,1.28-1.42.07-1.69,1.36l-.05-.53c-.22.6-1.42,1.65-1.08,2.72-.17,0-.51-.13-.4-.38-1,1-1.28,3.05-2.44,3.49l-.15-.28c-.11.26.11.71-.33.77-.08-.1-.14-.27-.24-.19s-.07.86-.43,1l0-.44C45,19.64,45.39,21,44.78,22c-.63-.55-1.53.09-2,.41l-.07-.09c-1.12,1.15-1.25,2.52-2,3.85-1.26.12-2.3,2.13-3.62,2.94.26-.08.44.43.33.69-.34.15-.21,1.08-.72.57l.09-.09c-.69-.26-1,.41-1.39.82l.64.68C34.13,32,34,35,32.57,34.8c-.06.42-.34.75-.4,1.16l-.35-.33a10.45,10.45,0,0,0-1.76,2l-.09-.4c-.45.5.45,1.52.06,2L29.4,39c-.76.91-1.95,1.45-2.26,2.74-.06-.08-.18-.23-.07-.39-.37.42-1.7,1.38-.92,1.79-.43-.36-.82.91-1.06,1.55l-.24-.34c0,.76.14.86-.25,1.53-.15.1-.33-.09-.11-.21-.53.32,0,.6-.64,1v-.36c-.42.44-.29.49-.29.94s-.83.82-1.14.67a.71.71,0,0,1-.22.84c-.12,0-.1-.19-.08-.27-.85.62-.67,1.44-1.39,1.75a.26.26,0,0,0-.24-.05,10.87,10.87,0,0,1,.95-1c-.25-.22-.71.25-.73-.45-.14.57-.32,1.62-.84,2a.23.23,0,0,1-.14,0l0-.07a.62.62,0,0,0-.22.35,2,2,0,0,0-.41.34c-.24-.11-.58.5-.8.74.27.2,0,.5.42.37-.05,0,0-.08.14-.25s.06-.1.06-.13v0l.51-.64a.81.81,0,0,1-.48.77c.05.27.1.56.11.71-.64,0-1.38.53-1.66.45-.5.89-1.4,1.9-1.39,2.75-.13.26-.33.14-.47.17.07-.16.2-.31.2-.43-.26.53-1,1.34-.85,1.68-.59.44,0-.53-.58.27v-.18a4.84,4.84,0,0,0-1.54,2.07,5,5,0,0,1-1.73,2.12c.13-.09.19-.14.25-.13a26.82,26.82,0,0,0-2.43,2.85,27.69,27.69,0,0,1-2.46,2.79,3.13,3.13,0,0,0-.64,1l-.2,0L5.23,69a29.8,29.8,0,0,0-2,2.28l.15-.09a9.24,9.24,0,0,1-.91,1,.69.69,0,0,1-.19.27h0l-.69.9c-.57.66,0-.17-.78.84L0,75.15c.12-.15.31-.38.33-.39l-.29.33c0,.07-.29.3.48-.46l.51-.54.18-.16-.44.45a6.2,6.2,0,0,0,.58-.6l.24-.21c.16-.18.32-.37.47-.57.09,0-.19.28.17-.06s-.28.19.1-.24a1.89,1.89,0,0,0,.49-.46c.06,0,0,.05-.1.18a8.17,8.17,0,0,0,.77-.9c.32-.22.86-.92.94-.8a7,7,0,0,1,.6-.81c-.28.59.9-.92,1-.64A23.19,23.19,0,0,1,7.6,67.33a.38.38,0,0,1-.11.19A4.76,4.76,0,0,1,8.23,67c-.12-.18.34-.74.49-1.12.56-.26,0,.43.26.45-.16-.11.54-.84.28-.81.41-.22.31-.23.63-.25-.2-.26.24-.32.33-.72.56-.34.35.1.75-.47C11.28,63.89,11,64.41,11,64.41ZM21.59,52h0l-.22.27Zm.92-1a5.94,5.94,0,0,0-.41.43c-.12,0-.18-.17-.09-.27C22,51.2,22.3,51,22.51,50.93Zm-3.72.6c.1-.2.19-.21.27-.19l-.22.32,0,.05A.31.31,0,0,1,18.79,51.53Z"/><path class="cls-2" d="M18.87,52.13s0,0,0,.08l.14-.05,0-.13Z"/><path class="cls-2" d="M112.91,30.48l0,0a.11.11,0,0,1,0,.08S112.91,30.5,112.91,30.48Z"/><polygon class="cls-2" points="35.95 37.42 35.86 37.34 35.86 37.5 35.95 37.42"/><path class="cls-2" d="M117.84,36.31a.21.21,0,0,0,0,.12S117.86,36.37,117.84,36.31Z"/><path class="cls-2" d="M120.23,38.55l.29.37C120.4,38.75,120.3,38.64,120.23,38.55Z"/><path class="cls-2" d="M122,40.33a.16.16,0,0,0,.09,0h0Z"/><path class="cls-2" d="M91,15.21l-.09,0C90.65,15.11,90.8,15.18,91,15.21Z"/><path class="cls-2" d="M101,21.68a1.84,1.84,0,0,1-.42-.09C100.74,21.75,100.86,21.86,101,21.68Z"/><polygon class="cls-2" points="79.93 8.05 79.94 8.04 79.87 8 79.93 8.05"/><path class="cls-2" d="M100.17,21.24a.73.73,0,0,0,.43.35A1.13,1.13,0,0,0,100.17,21.24Z"/><path class="cls-2" d="M130,47.8l.09.09h0Z"/><path class="cls-2" d="M130.06,47.89l.1.09Z"/><path class="cls-2" d="M130.38,48.17l-.22-.19A2.9,2.9,0,0,0,130.38,48.17Z"/><path class="cls-2" d="M127.56,45.49h0Z"/><path class="cls-2" d="M126.82,44.8a7.46,7.46,0,0,0,.64.69h.05C127.35,45.42,127,44.91,126.82,44.8Z"/><path class="cls-2" d="M124.23,41.41l.56.64c-.07-.15-.14-.35.13-.08C124.31,41.07,125,42.23,124.23,41.41Z"/><path class="cls-2" d="M122.45,39.45c.34.31.07-.08.12-.09C122.32,39.2,122.26,39.16,122.45,39.45Z"/><path class="cls-2" d="M108.69,26.26l.25-.22C108.65,25.84,108.86,26.14,108.69,26.26Z"/><polygon class="cls-2" points="104.78 25.23 104.9 25.61 105.23 25.47 104.78 25.23"/><polygon class="cls-2" points="104.81 21.87 104.96 21.93 104.43 21.64 104.81 21.87"/><path class="cls-2" d="M79.21,2.12,79,2.71C79.29,2.74,79.66,2.17,79.21,2.12Z"/><path class="cls-2" d="M64.41,2c-.29-.21-.77-.17-.84.22C63.89,2.11,64.29,2.15,64.41,2Z"/><polygon class="cls-2" points="35.1 31.81 35.14 31.48 34.92 31.98 35.1 31.81"/></g></g></g></svg>