<svg xmlns="http://www.w3.org/2000/svg" width="38" height="74" fill="none"  xmlns:v="https://vecta.io/nano"><g clip-path="url(#A)" fill="#202020"><path d="M16.02 73.969c.031.031 0 .031-.062-.092l-.031-.062.093.154z"/><path d="M15.678 73.261l-.093-.185c.062.123.062.154.124.308.031.123.062.185.062.185.031.031.093.154.124.216-.031-.062-.093-.154-.124-.216l-.093-.308c-.031-.062 0 0 0 0zm4.316-10.413l-.062.062c.031 0 .062-.031.062-.062zm2.514-6.778v.092c.031-.062.031-.092 0-.092zm.466-1.171c0 .031-.031.062-.031.062s.031-.031.031-.062z"/><path d="M19.994 62.848l.124-.154c-.031-.031-.062.092-.124.154zm-1.522 2.803l-.031.062v.062l.031-.123zm-1.304 2.034c.031-.031 0-.092-.031-.123 0 .031 0 .092-.031.123h.062zM20.149.77l-.031-.03.031.031zm-1.242 31.732c-.031.277-.373-.246-.342.154.062-.031.404.154.342-.154zm4.719 14.88c-.031 0-.062.031-.062.062 0 0 .031 0 .062-.062zm-.28 3.913l.031-.092c-.031.062-.031.092-.031.092zm-.124-5.915c0-.062.031-.062 0-.154l-.031.031c.031.031.062.062.031.123zm-.31-2.095l-.031.031c0 .031 0 .031.031.062v-.092zM13.815 5.977c.031-.031.093-.031.124-.062-.062.031.062-.246-.124.062zm8.103 39.495l-.031-.308c0 .062.031.185.031.308zM11.239 20.641l-.062-.093c.031.031.031.062.062.093zm10.493 23.568c.062-.062.062-.123.093-.185 0 0-.031-.031-.062-.031l-.031.216z"/><path d="M14.933 3.974c-.186.277 0 .154 0 .246-.186.339-.155.123-.248.216-.093.216-.124.401-.217.555-.031 0-.031.031-.031 0-.062.246-.373.647-.435.924-.031 0-.031.031-.031.031.062-.031.124 0 .155.031-.062.123-.062.246-.155.277.031-.062.031-.092.031-.154l-.031.154c-.155.062.062-.185 0-.216-.124.277-.186.616-.341.801-.124 0 .217-.462 0-.246l.186-.277c-.28.154.124-.185-.155-.031-.248.37-.217.462-.435.863 0 .123.093 0 .093.123-.186.616-.497.339-.559.832 0 .154.124.246-.093.524l-.062-.154c-.217.4.062.308-.217.678-.031-.092.093-.339.062-.277-.217.246 0 .216-.093.431h-.124c-.093.216-.155.462-.217.709l-.217.739c-.031-.031-.031-.123-.124-.031l-.31.986-.373.955.062.277c0 .062-.093.093-.093.031-.093.246.062.031.093.154-.031.154-.093.185-.124.062v.863c0 .308-.062.647-.155.863 0-.031-.031-.062-.031-.092-.093.37.248.431.093.739l-.031-.062c-.031.185-.031.401-.031.585v1.14c0 .185 0 .339-.062.493.217.092 0 .801.279.801-.062.462-.124.339-.124.986.031.185.248.216.311.401l-.155.031c.062.092.155.154.248.246l-.155.185.093.185c0-.092.031-.185.062-.185.155.277.093.739.031.77.093.216.248.431.372.647-.062 0-.124-.092-.217-.185.279.308-.155.123.124.401.031-.062.093 0 .124 0-.031.185.093.585.248.832h-.124c.186.493.466 1.017.745 1.571-.031-.216.155-.247.248-.123l-.124.154c.155.062-.031-.185.217-.031.093.216-.124.216-.248.123l.186.216c-.031.031-.093 0-.155 0 .155.062.031.524.279.554l-.031.031.683 1.171c.155-.062.217.123.404.185.124.339.217.739.435 1.109.217.216.155 0 .31.062-.124.092.093.462-.093.308.28.431.373.555.807 1.047.031-.092 0-.185.062-.154.093.093.093.247 0 .277l-.031-.031c.59.493.466 1.664 1.055 1.972l-.031-.031.466.431c.124.246-.186-.092-.155.154.559.431.497.893.9 1.263-.217.585.745 1.232.745 1.848l.093-.092c.155.062.031.185.062.277.062-.062 0-.185.124-.123.341.493.559 1.078.776 1.633l.528 1.756c.124.431.621.031.559.647l-.248-.092c.248.37.404.801.559 1.232.124.431.217.863.435 1.263-.062-.031-.124-.031-.155-.092-.093.216.186.647.279.647 0 .123-.093.062-.124.154-.031.185.279.401.155.554-.031.031-.062-.031-.062-.062.093.092.093.555.248.401 0 .339.217.585.155.863.217.154 0 .555.248.585-.279.031-.124.585.031.801-.093-.062-.062.185-.186.123.031.246.124.431.248.401-.279.462.341.863-.031 1.14.217.678.31 1.355.404 1.972-.248-.031-.031-.709-.31-.678.062.308.155.524.217.77l.093.37v.401c-.031.154-.093-.092-.155-.154.093.616-.062 1.171.062 1.694-.031 0-.031-.062-.062-.123 0 .093-.062.246.062.246l-.031-.092c.186-.154.279.431.373.462-.279-.216-.124.524-.497.216 0 .062.062.154.124.154-.031.092-.062.123-.155.031.031.37.155.277.124.616-.062 0-.062-.093-.124-.123.093.185.186.37.093.647-.031-.031-.062 0-.062-.092-.062.493.124.893-.062 1.417-.186-.185-.093.185-.28.154v.308h.031c-.062.247.031.493-.093.709l-.031-.216-.062.493.124-.246c.031.277.217.031.093.339 0-.062-.062.247-.186.37.031.154.062.277-.031.462-.062.031-.186-.092-.217-.062.093.154-.124.585-.031.801-.031-.062-.093-.092-.124-.062l.093.123c-.062.092-.093.123-.155.092-.124.339.248-.062.031.339 0-.031-.031-.031-.031-.092-.093.216-.124.401-.155.616a1.85 1.85 0 0 1-.186.585c-.186.062.093-.339-.093-.246-.155.555-.217 1.171-.435 1.694l.062-.092c.155.154-.248.339-.279.647 0-.062-.062-.123-.062-.092-.186.339-.248.739-.435 1.294v-.092c-.155.185-.279.524-.404.709 0 .093-.062.216.031.154-.279.277-.404.616-.559.924s-.279.616-.528.863c.031-.062.062-.185.031-.123l-.248.493c.093 0 .062-.031.186-.123 0 .092-.062.246-.124.37.093-.246-.093-.062-.186.031.031 0 .031.031.031.031-.248.185.093.123-.217.401v-.031c-.062.123-.093.277-.217.401-.093.031.062-.154.031-.185-.124.185-.124.462-.31.585.031-.092.124-.216.155-.308-.186.154-.186.185-.279.339l-.217.308.062-.062c0 .339-.279.524-.373.924.093-.37 0-.092-.062-.123-.062.093-.155.216-.155.154-.031.185-.155.246-.217.524-.031 0-.093.185-.093.123-.093.216.062-.031.062 0-.093.37-.404.77-.497 1.294-.062.216-.093.37-.093.493s-.031.247-.062.462c-.031.123-.031-.123-.031-.123-.031.216-.093.4-.093.616 0-.031 0 0-.031.062 0 .185.031.123 0 .339 0-.031-.031-.092-.031-.185 0 .216.031.4.062.616 0 .062-.031-.123-.031-.216 0 .246.124.616.124.678l-.031-.154c.031.092 0 .062-.031-.031s-.031-.185-.062-.216v-.092c0 .062 0 .093.031.154 0-.093 0-.216-.031-.4s-.031-.37-.031-.524l.031.123v-.308c.031-.062.031-.092.031.031.031-.216 0-.185.062-.37 0-.031 0 0 0 0l.031-.216c0 .031.031-.031 0 .092.031-.185.093-.339.093-.462.031-.123.031-.216.093-.277v.031c.155-.493-.031-.062.062-.462.062-.062.124-.154.217-.216l-.031-.062c.031-.062.062-.154.093-.123.031-.216-.031.031-.031-.092.155-.216.279-.678.404-.678 0-.092-.155.216-.031-.062.124-.031.124-.308.279-.493 0 .092-.124.277.031.092 0-.154.248-.401.341-.585-.062-.062.186-.4.373-.678 0 .031.404-.524.59-.77v.031c-.062-.092.155-.37.248-.585.062.031.031.093 0 .216l.124-.185c0-.062.031-.123.093-.246l.031.092c.155-.246.248-.555.497-.863-.062-.062-.341.154-.186-.216.031 0 .124.031.062.123a.34.34 0 0 1 .093-.185l-.031.185c.124-.123 0-.123.062-.216.062.031.093-.062.124-.031 0 .031-.093.092-.093.154.093-.123.217-.277.31-.308-.031 0-.062-.031-.031-.154.124-.277.124-.062.217-.185 0-.092.124-.247.031-.277.031-.092.093-.062.124-.092.031-.154.341-.647.155-.554l-.031.031v-.031c.155-.493.497-.924.683-1.417l.031.031c.093-.277.248-.616.248-.863.031-.092.155-.185.155-.123.062-.216.031-.277.186-.555 0 .246.093-.062-.031.246.124-.277.217-.308.217-.647.062.123.217-.154.217-.308l-.155.185c.031-.154.093-.277.155-.4l.093.123c.372-.524.031-1.14.466-1.51-.062-.185-.155.308-.248.123.093-.277.404-.493.435-.585.186-.37-.124-.401.031-.801-.062.031-.217.062-.217-.246.093-.277.31-.277.31-.092 0 .062-.031.092-.062.092 0 .092 0 .216.093.123l-.031-.062c.093-.123.186-.493.248-.4 0-.216-.062-.123-.124.031.155-.339.155-.555.248-.924-.031.062-.124.092-.093.031.155-.524-.062-.247-.031-.616.124-.185.186.123.186-.277.093-.216.155-.031.186.062-.062-.37.186-.616.248-.801l.031.185a.76.76 0 0 1 .031-.277l-.124.093c.031-.093.031-.185.093-.185-.062-.123-.217.062-.311-.185.093-.123-.031-.431.155-.462-.093.431.155-.031.155.339 0-.062 0-.154.031-.277.031 0 .031.031.031.062.186-.401-.155-.216-.124-.647.093.062.186-.092.186-.154-.031.185-.155.062-.217-.092.093-.277-.031-.308 0-.462 0 .062-.031.123-.031.154-.093-.062-.062-.216-.093-.401.062 0 .031.185.093.123-.155-.216.186-.493.093-.801.062-.123.186 0 .248-.123-.124-.339.155-.37.062-.739-.124.092-.093.123-.217-.123.031.185.031.401.062.585l-.186-.37c0 .185.062.37.031.493-.093-.185-.062-.154-.186-.093.217-.246-.093-.493.031-.77h.341c.155-.431-.186-.739-.093-1.294l-.062.185c-.124-.062-.031-.339-.093-.524.124 0 .155-.092.217-.185-.093 0-.031-.401-.248-.431l.124-.246c.031-.462-.373-.462-.373-.893.124.123.186-.092.311.185 0-.154 0-.277-.093-.277.062-.092-.186-.37-.093-.524-.062-.062-.186-.062-.186-.216.031-.031.062 0 .062 0-.062 0-.124-.246-.217-.092.155-.247.093-.555.031-.832-.031-.154-.062-.277-.062-.431 0-.123 0-.246.062-.37l-.279-.924c.031 0 .062 0 .062.031.031-.401-.373-.154-.341-.616.124-.277.155.216.186.062.372-.154-.186-.493-.031-.832l.031.062c.062-.246-.279-.493-.373-.863h.062c-.248-.185-.466-.616-.652-.924.186.062.124.123.248 0-.062-.154-.217.123-.372-.154.062-.123.031-.37.186-.462l.093.277c.155-.216-.124-.37-.155-.524h.093c-.186-.431-.404-.339-.59-.801l-.062.062c-.341-.154.031-.246-.248-.431l.186-.185c-.124-.154-.466-.493-.621-.739.248.093.466.401.652.555-.062-.154-.248-.555-.404-.585.062.062.124.123.124.185-.248-.123-.466-.339-.621-.647.466-.154-.279-.893-.093-1.263-.466-.462-.528-1.14-.931-1.756-.186.4-.124-.185-.435.062-.093-.123-.124-.185-.124-.216l-.062-.554c.031-.154.155.092.217.031-.155-.339.062-.216.031-.462-.093.123-.217 0-.31-.216v.339c-.435-.339.031-.555-.404-.893l.186.092c-.186-.185-.528-.832-.9-.893 0-.062.062-.154.155-.092-.31-.555-1.024-1.047-1.118-1.54h.093c-.093-.092-.248-.092-.248-.246.031 0 .093 0 .093-.062-.062-.031-.311-.185-.342-.339l.155.062c-.217-.585-.683-.678-.993-1.109.217-.123.062-.585-.031-.801h.031c-.31-.647-.776-.955-1.149-1.479.031-.246-.093-.554-.248-.893s-.31-.709-.372-1.047c0 .092-.186.062-.248-.031-.031-.154-.311-.339-.093-.401v.062c.155-.185 0-.462-.093-.678l-.279.062c.031-.185 0-.37-.031-.555s-.124-.37-.186-.555c-.155-.339-.311-.678-.155-.893-.093-.123-.155-.308-.248-.462l.155-.031-.186-1.14.124.092c-.031-.277-.466-.308-.497-.585l.186-.092c-.062-.246 0-.524 0-.77s0-.524-.124-.77c.031 0 .093.031.093.093 0-.247.155-.924-.124-.863.155 0 .062-.524 0-.801l.124.062c-.124-.246-.186-.277-.155-.616.031-.062.093-.062.062.031.093-.246-.093-.216.031-.524l.062.123c.062-.277 0-.246-.031-.4 0-.185.124-.493.248-.524-.062-.062-.093-.216-.031-.37.031 0 .062.062.062.092.186-.431.031-.678.248-.955.031 0 .062 0 .093-.031l-.186.585c.093.031.186-.247.279 0-.031-.247-.062-.678.062-.924l.031-.031v.031c.031-.062.031-.123.031-.185.031-.092.062-.123.093-.216.093 0 .155-.308.186-.431-.093-.031-.031-.185-.155-.062 0-.031 0 .031-.031.123v.062c-.031.092-.062.216-.124.339 0-.123 0-.246.093-.401l-.093-.246c.186-.123.404-.462.528-.493.093-.431.373-.986.31-1.325.031-.123.093-.123.155-.154a.64.64 0 0 0-.062.185c.062-.246.31-.678.217-.801.186-.277 0 .216.186-.185v.062c.528-.709.404-1.386 1.056-2.126-.031.062-.062.092-.093.092l1.708-2.896c.186-.246.186-.277.279-.462l.062-.031.186-.277c.155-.185.31-.308.466-.431l.59-.431-.062.031c.093-.062.217-.123.341-.185s.217-.092.217-.062c.031 0 .062-.031.124-.062.279.185.373.154.466.154s.155-.031.248-.031c.186.031.155.031.186.062a2.14 2.14 0 0 0 .311.092c.186.092.466.37.404.308l-.155-.154.124.154c.031.031.124.123-.217-.216-.093-.062-.186-.154-.279-.185l-.093-.062c.093.031.186.062.248.123C19.712.35 19.65.35 19.588.32s-.093-.062-.155-.062c-.031 0-.062-.031-.155-.031-.124-.031-.217 0-.341 0-.031 0 .155-.031-.093 0-.155.031.155 0-.093.062-.155.031-.124 0-.31.062-.031 0 0-.031.093-.031l-.497.216c-.155.062-.497.308-.497.277l-.342.308c.093-.123-.031-.031-.155.092s-.279.277-.279.216c-.124.185-.497.585-.683.955 0-.031.031-.062.031-.092-.124.185-.186.216-.248.308.031.062-.124.339-.155.524-.186.185 0-.185-.093-.154.062.031-.186.401-.093.37-.155.154-.124.123-.217.185.062.092-.093.154-.124.339-.186.216-.124 0-.248.277-.124.092 0-.154 0-.154zm-3.167 6.716c.031-.062.031-.123.031-.154 0 .031 0 .093-.031.154zm-.217.585c.031-.062.062-.154.093-.246.031 0 .062.031.062.092 0-.031-.093.092-.155.154zm1.149-.986c-.031.092-.062.123-.062.123 0-.031.031-.092.031-.154 0 0 .031 0 .031.031zm-.062-.215v-.031c0 .031-.031.031-.031.062 0 0 0 .031.031.031-.031-.031-.031-.031 0-.062z"/><path d="M10.959 19.964h.062l-.062-.062v.063zm7.048 45.78s-.031 0-.031.031l.031-.031zm-.808 1.263l-.124.154c.062-.062.093-.123.124-.154zm5.123-15.681v-.031c-.031-.123 0-.062 0 .031zm-.435 5.268c0-.062-.031-.123-.031-.185-.031.092-.031.154.031.185z"/><path d="M21.918 56.162c-.031.092-.062.154-.062.246a.58.58 0 0 0 .062-.246zm-6.364 16.791l-.031-.123c0 .031 0 .093.031.123zm-.093-1.756c-.032-.032-.032 0 0 0h0zm.062-.463a1.49 1.49 0 0 0-.093.431v.031c0-.092.093-.37.093-.462zm.807-1.725l-.186.339c.031-.062.093-.123.031.031.279-.401-.062.062.155-.37zm.621-1.016c-.093.185.031 0 .031.031.031-.123.062-.154-.031-.031zm4.191-7.487l.093.062c.031-.154-.062-.031-.093-.062zm.031-1.725l-.124.123.093.123.031-.247zm1.025-.678v.062l.062-.277-.062.216zm.931-14.479l-.186.093c.062.092.279.092.186-.093zm-1.925-5.977c.062-.092.062-.277-.093-.339.062.123.031.277.093.339zm-8.475-16.482l.093.093-.124-.185.031.092zm-.342 51.449c-.031.031-.031 0 .093-.062l.062-.062-.155.123z"/><path d="M13.07 72.152c.124-.092.248-.185.155-.154l-.279.216-.155.092c-.031.031-.124.092-.217.154.155-.092.341-.185.497-.308.031-.031 0 0 0 0zm9.159-7.949l-.062.063c.031 0 .031-.031.062-.062z"/><path d="M26.078 56.255c0 .031-.031.063-.031.063.031-.031.062-.062.031-.062zm-3.849 7.948l.155-.154c-.031 0-.093.092-.155.154zm-7.824 6.932c-.031.031-.062.062-.093.062l.093-.062zm5.682-4.375l-.031.031v.062l.031-.092z"/><path d="M18.193 68.485c.031-.031.031-.092.031-.123 0 .031-.031.062-.062.123h.031zm-3.26 2.403l-.062.031c.031 0 .031-.031.062-.031zm5.775-37.801c-.031.277-.372-.246-.341.154.031-.062.373.154.341-.154zm-6.241 38.018l.093-.062c-.062.031-.093.031-.093.062zm11.829-22.737c-.031 0-.031.031-.062.063.031 0 .031-.031.062-.062zm.062 4.098l.031-.093c-.031.031-.031.062-.031.093zm-.652-6.162c0-.062.031-.092-.031-.154v.031c0 .031.031.062.031.123zm-.559-2.126s0 .031-.031.062c0 .031.031.031.031.062v-.123z"/><path d="M14.654 5.022c.031-.031.093-.031.124-.062-.093 0 .093-.277-.124.062zm-.249 66.113s.031-.031.031-.062c0 .031-.031.062-.031.062s0 .031 0 0zm9.997-24.646l-.062-.339c.031.123.031.246.062.339zM13.163 20.426l-.031-.062c0 .031.031.031.031.062zm10.898 24.769a.57.57 0 0 0 .062-.216c-.031 0-.031-.031-.062-.031v.246z"/><path d="M16.113 3.049c-.248.246-.062.154-.062.246-.248.308-.186.092-.31.154-.155.185-.217.401-.341.555-.031 0-.062.031-.031-.031-.062.123-.186.277-.31.431s-.217.339-.279.493c-.031 0-.031.031-.031.031.062 0 .124 0 .155.031-.093.123-.093.277-.186.277.062-.062.031-.092.031-.154l-.062.154c-.155.062.093-.185.031-.246l-.217.431c-.062.154-.124.277-.186.37-.124 0 .248-.493 0-.277.062-.092.124-.216.217-.308-.279.154.124-.185-.155-.062-.279.401-.217.493-.497.893 0 .123.093 0 .093.123-.186.647-.466.37-.559.893 0 .154.124.246-.062.555l-.093-.154c-.186.431.093.308-.155.739-.031-.092.093-.37.031-.308-.217.277 0 .246-.062.462h-.124l-.155.77-.124.801c-.031-.031-.062-.123-.124-.031-.093.678-.279 1.448-.435 2.126l.093.277c0 .062-.062.092-.093.031-.062.246.093.031.124.154 0 .154-.093.185-.124.092l.093.893c.031.339.031.647-.031.893l-.031-.092c-.031.37.31.401.186.77l.031.062c-.031.832.217 1.694.124 2.341.217.092.062.801.341.801-.062.493-.124.37-.093 1.047.031.185.248.216.341.4l-.124.031.248.246-.155.216.093.185c0-.092.031-.185.062-.185.155.277.093.77.031.801l.373.678c-.062 0-.124-.092-.186-.185.279.339-.155.123.124.431.031-.062.093 0 .124 0-.031.216.093.585.248.863h-.124c.186.524.466 1.078.714 1.633-.031-.216.186-.277.279-.092l-.155.154c.155.062 0-.216.217-.031.062.216-.124.216-.248.123l.155.246c-.031.031-.093 0-.155 0 .155.062.031.524.279.585l-.031.031c.248.585.435.801.652 1.232.155-.062.217.123.404.216.124.339.186.77.404 1.171.217.246.155.031.311.092-.124.092.093.493-.124.339.279.462.341.585.776 1.14.031-.092 0-.185.062-.154.093.093.062.277 0 .308l-.031-.031c.559.555.435 1.756.993 2.126l-.031-.031.435.462c.124.277-.186-.092-.155.123.559.462.466.955.9 1.355-.217.585.745 1.325.745 1.972l.093-.092c.155.092.031.185.062.308.062-.062.031-.185.124-.123.683 1.047.994 2.372 1.397 3.574.155.431.621.031.621.678l-.248-.092c.279.401.466.832.652 1.294.155.462.31.893.559 1.294-.062-.031-.124-.031-.155-.092-.062.216.217.678.341.647.031.154-.093.062-.124.154-.031.216.341.4.217.554-.031.031-.062-.031-.093-.062.093.092.155.554.279.401.031.339.248.616.248.893.217.123.062.585.341.585-.124.031-.155.185-.093.37.031.185.124.37.217.462-.093-.062-.031.216-.155.154.062.246.155.462.279.37-.093.246 0 .462.093.647s.155.37-.031.524l.341 1.017c.093.339.155.678.217.986-.248 0-.093-.739-.373-.678.155.616.435.955.404 1.571-.031.154-.124-.092-.155-.123.124.616.031 1.202.186 1.756-.031 0-.031-.062-.062-.123 0 .123-.031.246.062.246l-.031-.093c.155-.185.311.431.404.462-.31-.185-.093.555-.466.247.031.062.062.154.124.154-.031.093-.062.123-.155.031.031.401.186.277.155.616-.062 0-.062-.092-.124-.123.093.185.155.37.093.678-.031-.031-.062 0-.062-.092-.031.246.031.493.031.709 0 .123.031.246.031.37s-.031.246-.093.401c-.186-.216-.093.185-.279.185v.308l.124-.092c-.062.277.031.524-.062.739l-.031-.216c-.031.154-.031.339-.093.493.031-.092.093-.185.124-.246.031.277.217.031.093.37 0-.062-.093.246-.217.37.031.154.031.308-.062.462-.062.031-.155-.092-.217-.062.093.185-.124.616-.062.832 0-.062-.093-.093-.124-.093l.062.154c-.093.092-.093.123-.155.062-.155.339.248-.031 0 .339 0-.031-.031-.031 0-.092-.217.401-.248.832-.466 1.202-.186.031.124-.339-.062-.277-.124.277-.217.555-.31.863l-.404.801.062-.092c.062.092 0 .154-.093.277-.093.092-.248.216-.279.339.031-.062-.031-.154-.031-.123-.124.154-.217.339-.31.554s-.217.431-.373.678v-.092c-.155.154-.373.493-.559.678 0 .092-.093.185 0 .154-.683.462-.838 1.232-1.459 1.602.062-.062.093-.154.062-.123l-.373.462c.093 0 .093-.031.217-.092-.031.092-.124.216-.217.339.155-.216-.062-.062-.186 0 .031 0 0 .031.031.062-.311.154.062.123-.311.37v-.031c-.093.123-.186.246-.31.37-.093 0 .093-.123.062-.185-.155.154-.248.4-.466.524.062-.092.155-.185.217-.277-.217.093-.217.154-.373.247a2.18 2.18 0 0 1-.311.246l.093-.062c-.124.308-.435.431-.683.77.248-.339 0-.092 0-.154-.093.062-.217.154-.186.092-.124.154-.279.185-.435.4-.031 0-.155.123-.155.062-.186.185.062 0 .062.031-.248.277-.745.524-1.118.924l-.745.678c-.124.062.062-.093.062-.093-.217.123-.341.246-.528.37.031-.031 0 0-.062.031-.155.123-.093.092-.279.216l.124-.123-.497.4c-.062.031.093-.092.155-.154l-.559.431.124-.092c-.062.062-.031.031 0-.031.155-.123.248-.185.279-.185l-.124.093c.155-.062.528-.37.776-.555l-.093.093.248-.216c.062-.031.124-.031 0 .062.186-.123.155-.123.341-.216h0l.186-.154c-.031.031.062 0-.062.093.341-.216.497-.401.652-.462l-.031.031c.435-.339.031-.062.31-.37l.279-.092v-.062c.031-.031.124-.092.124-.062.155-.154-.031 0 .031-.092.248-.123.59-.493.683-.462.062-.093-.217.154-.031-.062.124.031.248-.216.466-.339-.031.092-.217.216 0 .092.062-.154.404-.308.528-.462-.031-.062.341-.308.59-.585 0 .031.528-.401.807-.616v.031c-.031-.123.248-.339.404-.524.031.062.031.093-.062.216l.155-.154c.031-.062.062-.123.155-.246v.092c.217-.216.373-.524.683-.77-.031-.062-.372.093-.124-.246.031.031.093.062.062.154.031-.031.062-.123.124-.154l-.062.185c.155-.123.031-.123.124-.216.031.031.093-.062.124 0l-.124.123c.124-.123.279-.246.373-.246-.031 0-.062-.062 0-.154.217-.246.124-.031.279-.154 0-.092.186-.216.093-.277.062-.062.093-.062.155-.062.062-.154.466-.585.279-.524l-.031.031v-.031c.217-.493.714-.863.962-1.325l.031.031c.062-.154.155-.308.248-.431.062-.154.124-.277.155-.401.031-.092.186-.154.186-.092.093-.216.062-.277.31-.555-.062.246.093-.031-.062.246.186-.246.279-.308.31-.647.031.154.217-.154.279-.308l-.155.154c.062-.154.155-.277.217-.431l.093.123c.435-.524.155-1.202.652-1.54-.031-.185-.217.308-.248.123.062-.123.186-.246.248-.37.093-.092.186-.185.186-.216.217-.37-.093-.431.093-.832-.062.031-.217.062-.186-.277.124-.277.311-.308.311-.093-.031.062-.031.093-.062.093 0 .092-.031.216.062.123l-.031-.062c.124-.123.186-.524.248-.401 0-.246-.062-.123-.124.031.155-.37.124-.585.279-.955-.031.062-.124.093-.124.031.186-.555-.062-.277 0-.647.124-.216.217.123.186-.277.093-.216.155-.031.186.062-.062-.37.155-.647.217-.863l.031.185v-.308l-.124.092c.031-.123.062-.216.093-.185-.062-.123-.217.062-.279-.154.093-.154-.031-.462.124-.493-.093.462.155-.031.186.37 0-.092 0-.185.031-.277.031-.031.031.031.031.062.186-.431-.186-.216-.155-.678.093.062.186-.092.155-.185 0 .185-.155.093-.217-.092.093-.308-.031-.308-.031-.462l-.031.185c-.093-.062-.062-.216-.124-.4.062-.031.062.185.093.123-.186-.216.155-.524.031-.832.062-.154.186-.031.217-.154-.124-.339.124-.401 0-.77-.124.123-.093.123-.248-.123l.124.616c-.062-.123-.124-.247-.217-.37 0 .185.093.401.093.493-.124-.185-.093-.154-.186-.062.186-.277-.124-.493-.031-.801l.341-.031c.093-.462-.217-.77-.217-1.356 0 .062-.031.123-.031.185-.124-.062-.062-.339-.155-.524.124 0 .124-.123.186-.216-.093.031-.062-.431-.279-.431l.124-.277c0-.462-.404-.462-.466-.893.155.092.186-.123.341.154-.031-.154-.031-.277-.124-.277.062-.093-.248-.37-.155-.524-.062-.062-.186-.031-.217-.216.031-.031.062 0 .062 0-.062 0-.124-.247-.217-.062.248-.524-.341-1.201-.124-1.694l-.373-.924c.031 0 .062-.031.062.031 0-.431-.404-.123-.435-.616.124-.277.186.185.186.031.341-.185-.217-.524-.093-.863l.062.062c.062-.277-.341-.493-.435-.863 0 0 .031 0 .062-.031-.279-.185-.528-.616-.714-.955.186.062.124.123.248 0-.093-.154-.217.123-.373-.154.031-.123.031-.37.155-.462l.124.277c.155-.216-.155-.37-.186-.554l.093-.031c-.217-.431-.435-.339-.621-.832l-.031.092c-.341-.154.031-.277-.248-.462l.186-.185c-.124-.154-.466-.493-.652-.77.248.092.497.4.683.585-.062-.185-.279-.555-.435-.585.062.062.155.123.155.185-.279-.123-.497-.339-.652-.678.466-.154-.31-.924-.093-1.294-.466-.493-.528-1.171-.9-1.849-.186.401-.124-.185-.435.031l-.124-.216-.062-.585c.031-.154.155.092.217.062-.155-.339.062-.216.031-.493-.093.123-.248-.031-.31-.246v.339c-.435-.37.062-.555-.373-.924l.186.092c-.186-.216-.497-.893-.9-.986 0-.062.062-.154.155-.062-.279-.585-.994-1.14-1.087-1.664h.093c-.093-.092-.248-.123-.248-.277.031 0 .093 0 .093-.062-.062-.031-.279-.216-.31-.37l.155.062c-.217-.616-.683-.739-.993-1.201.248-.123.093-.585 0-.832h.031c-.311-.678-.745-1.047-1.149-1.602.062-.493-.497-1.356-.621-2.033 0 .123-.186.062-.248-.062 0-.154-.311-.37-.093-.4l.031.062c.155-.185 0-.462-.093-.709l-.373-.062c.093-.401-.093-.77-.248-1.14s-.31-.709-.186-.924c-.124-.123-.155-.339-.279-.462l.155-.031c-.093-.431-.093-.647-.279-1.171l.124.092c-.062-.308-.497-.308-.528-.585l.186-.123c-.093-.524 0-1.109-.248-1.602.031 0 .093.031.093.092-.031-.246.031-.986-.217-.893.155 0 0-.555-.093-.863l.124.031c-.155-.246-.217-.246-.248-.616.031-.092.093-.062.062.031.062-.277-.124-.216-.031-.554l.062.123c0-.277-.031-.247-.124-.431-.031-.185.062-.524.186-.555-.062-.031-.124-.216-.093-.37.031-.031.062.031.062.062.124-.462-.031-.709.124-1.017.031 0 .062-.031.062-.031l-.093.647c.093 0 .155-.277.279-.031-.031-.246-.155-.678-.062-.955l.031-.031v.031c.031-.062.031-.123.031-.185.031-.092.062-.154.062-.246.093-.031.093-.339.155-.462-.093 0-.031-.185-.155-.031 0-.031 0 .031-.031.123v.062c-.031.092-.031.216-.062.37-.031-.123-.062-.277.031-.401-.031-.092-.093-.185-.093-.246.186-.154.373-.524.466-.555.031-.216.124-.493.186-.739s.093-.462.093-.647c.031-.123.093-.123.155-.154 0 .062-.062.154-.031.216.062-.246.279-.739.217-.832.186-.277 0 .216.186-.216v.062c.155-.185.248-.37.31-.524a3.75 3.75 0 0 0 .217-.524 1.71 1.71 0 0 1 .279-.524c.124-.185.248-.339.435-.524-.062.062-.062.062-.093.062l1.149-1.294c.404-.401.869-.801 1.335-1.078.279-.185.279-.216.435-.339h.093c.093-.062.186-.154.248-.216.186-.123.404-.216.59-.308l.683-.308h-.093c.186-.092.652-.246.621-.216.031 0 .062-.031.155-.062a3.07 3.07 0 0 1 .497-.154c.404-.092-.062.031.528-.123.217-.062.621-.123.559-.123-.093.031-.217.031-.248.031l.248.031c.031 0 .186-.031-.311.031-.124 0-.248.031-.341.062h-.124l.279-.062-.404.062c-.031 0-.093 0-.155.031l-.341.092c-.031 0 .155-.062-.093 0-.155.062.155-.031-.093.062-.155.031-.124 0-.31.092-.031 0 0-.031.093-.031l-.528.185c-.186.031-.559.216-.559.185-.062.031-.279.154-.404.246.248-.185-.559.277-.528.185-.124.123-.652.401-.931.647 0-.031.031-.062.062-.062-.186.123-.248.123-.373.216.031.062-.248.277-.372.431-.248.123.062-.185-.031-.154.031.031-.31.339-.217.339-.186.092-.155.092-.279.123.031.092-.124.154-.217.308-.248.185-.124 0-.341.246-.124.062.062-.185.062-.185zm-3.384 6.993c0-.062.031-.123.031-.154 0 .031 0 .092-.031.154zm-.093.647c.031-.092.031-.185.062-.277.031-.031.062 0 .062.092-.031-.062-.093.092-.124.185zm.962-1.202c0 .092-.031.123-.062.123 0-.062 0-.092.031-.185.031.031.031.062.031.062z"/><path d="M13.505 9.304v-.031c0 .031-.031.031-.031.062l.031.031v-.062zm-.59 10.445l.031-.031-.062-.031.031.063zM19.59 66.76s-.031 0-.062.031c0 0 .031-.031.062-.031zm-1.118 1.048l-.186.123c.093-.031.155-.092.186-.123zm6.892-15.281v-.031c-.031-.092-.031-.031 0 .031zm-.403 5.484v-.185c-.062.062-.062.154 0 .185z"/><path d="M25.023 57.579c-.062.092-.062.154-.062.246.031-.092.062-.185.062-.246zM13.567 71.751l-.031.031.031-.031zm-.062.062l-.062.031c.031-.031.062-.031.062-.031z"/><path d="M13.35 71.936l.093-.092-.093.092zm1.831-1.386l-.373.246v.031c.062-.062.311-.216.373-.277zm1.708-1.079l-.341.246c.062-.031.155-.062 0 .062.466-.277-.093 0 .341-.308zm.993-.77c-.155.154.031.031.031.031.062-.093.093-.093-.031-.031zm5.899-6.716l.093.062c.062-.154-.031-.031-.093-.062zm.28-1.756l-.124.092.062.123.062-.216zm1.117-.647v.062l.062-.277-.062.216zm.217-15.065l-.155.092c.062.092.279.062.155-.092zm-2.359-6.1c.062-.093.031-.308-.093-.37.031.154.031.308.093.37zM14.685 20.98l.124.092-.124-.216v.123zM.031 50.617c-.062-.092-.031-.031.124.185l.093.154-.217-.339zm.9 1.509c.155.246.373.554.279.37l-.373-.585-.217-.339-.279-.462.59 1.017c.062.092 0 .031 0 0zm14.064 21.35c-.062-.031-.093-.062-.155-.123.031.031.093.062.155.123zm12.201-9.889c-.093.092-.093.123-.093.154l.093-.154z"/><path d="M29.214 61.769c-.031.031-.093.062-.124.092.062-.031.124-.062.124-.092zM14.995 73.476a1.06 1.06 0 0 0 .466.185c.031-.031-.279-.062-.466-.185zM2.825 55.084c-.062-.062-.093-.123-.124-.185.031.062.062.123.124.185zm7.948 12.754l-.062-.092c-.031-.031-.062-.062-.093-.062l.155.154zm-2.949-4.467c.062.092.124.092.186.123-.062-.031-.124-.123-.186-.185v.062zm-4.44-7.209l-.093-.123c.031.031.062.092.093.123zm9.531 14.85v.062c.031 0 .031-.031 0-.062zm-1.894-9.611h0c0-.032 0-.032 0 0zm-2.98-5.423l.031.062.031.031-.062-.093zm24.712 2.279s-.031 0 0 0c-.093.125-.062.062 0 0zm-21.576 1.325c.124.524-.59-.616-.341.123.031-.092.59.462.341-.123zm-8.29-4.375c.031.062.093.123.124.185-.062-.092-.093-.123-.124-.185z"/><path d="M10.835 59.705l.031.092c-.031-.031-.031-.062-.031-.092zm23.936-6.407c.031 0 .093 0 .124-.031 0 0-.031 0-.124.031zm-.31 2.587l.155-.154c-.062.062-.124.092-.155.154zm-2.639.709a.71.71 0 0 0-.217.216c.031 0 .031 0 .062-.031 0-.062.062-.123.155-.185zm-3.229 3.234c.031 0 .062-.031.093-.031.031-.031.062-.062.093-.123l-.186.154zm-9.251 11.615c.031.092.031.154.031.216.031-.062.373.524-.031-.216zM2.825 55.115c.031.031.031.062.093.123-.062-.062-.062-.123-.093-.123-.031-.031-.031-.031 0 0zm29.804 2.495l-.528.493c.155-.123.341-.308.528-.493zM8.351 59.982l-.093-.154c.031.062.062.123.093.154zm22.26-.308a2.31 2.31 0 0 0-.372.216c0 .031-.031.062-.031.092l.404-.308z"/><path d="M16.051 68.793c.435.554.279.216.404.308.528.647.186.339.341.585.341.4.652.647.9.955 0 .031.062.093-.031.031.373.339.963 1.109 1.428 1.54l1.677 1.54-1.273-1.818c-.031-.062-.062-.093-.093-.123 0-.031-.031-.062-.031-.092 0 .123-.031.154-.062.154-.155-.277-.341-.462-.341-.616.093.154.124.154.186.246l-.186-.277c-.062-.308.248.37.31.339l-.993-1.571c.031-.154.59.986.341.37l.341.678c-.155-.585.217.401.093-.123l-1.056-1.818c-.155-.154-.031.092-.186-.062-.807-1.171-.311-1.109-.962-1.91-.186-.185-.373-.216-.683-.893l.248.154c-.466-.832-.435-.37-.869-1.294.124.123.435.616.373.493-.248-.616-.311-.37-.559-.77l.062-.154-1.832-2.742c.062.031.217.185.093-.062-.807-1.171-1.614-2.588-2.297-3.789l-.404-.37c-.062-.092-.062-.216.031-.123-.248-.462-.093.031-.279-.154-.186-.247-.155-.37-.031-.247l-1.149-1.448c-.435-.585-.714-.986-1.211-1.879l.217.216c-.373-.585-.59-.801-.776-.955s-.31-.246-.683-.863l.093.123-.869-1.263-.9-1.263-.031.185v.092l.093.37.186.986c.062.308.093.585.124.832l.093.77c.186.339.279.863.404 1.417.155.555.31 1.14.497 1.171l.062.37c0 .092.031.154.031.216a1.37 1.37 0 0 1 .031.339c.031.216.093.493.31 1.171.124.339.404.431.59.832l-.155.062.404.493-.031.37.217.37c-.062-.154-.093-.37-.031-.37.186.277.341.647.466.955s.155.555.124.585l.931 1.294c-.062 0-.248-.216-.404-.37.59.616-.062.216.497.801-.031-.123.124 0 .155 0 .124.37.621 1.109 1.056 1.602l-.155-.031c.683.955 1.614 1.91 2.546 2.865-.279-.37-.062-.431.217-.185l-.031.216-.124 1.325 1.18-1.972v-.031c-.093-.092-.093-.031-.062.031l.186 2.68-1.118-2.095c-.031-.062-.062-.123.062-.062l2.422 1.201-1.739-1.787c-.155-.462.093-.37.248-.123l-.248-.524c.031-.062.124.062.186.092-.186-.185-.186-1.017-.497-1.294l.031-.062c-.466-1.232-.776-1.725-1.211-2.711-.155.062-.31-.339-.559-.585-.28-.739-.559-1.571-.993-2.403-.373-.554-.217-.092-.435-.308.124-.123-.341-.924-.031-.555-.559-.986-.714-1.263-1.552-2.403.031.154.093.339 0 .277-.155-.216-.248-.524-.155-.554l.062.062c-.528-.616-.931-1.448-1.335-2.249l-1.211.647c.279.832.528 1.633.962 2.157l-.031-.062.714 1.109c.248.554-.279-.277-.155.185.869 1.171.993 2.033 1.739 2.988 0 .246.124.554.31.893s.404.678.652 1.017c.497.709 1.087 1.386 1.366 1.972l.031-.123c.279.185.186.339.341.554.031-.092-.155-.339.031-.216.931 1.017 1.925 2.033 3.074 2.957l.869.678.962.616c.342.185.745.339 1.149.462.435.092.9.154 1.366.123a1.47 1.47 0 0 0 .683-.216c.124-.092.186-.185.279-.277.155-.185.341-.339.993-.647l-.217.4c.931-.739 1.614-1.54 2.359-2.249l2.08-2.218c-.062.123 0 .154-.155.308.404-.185 1.087-1.078 1.024-1.171.217-.216.124.031.311-.062.341-.247.59-.863.869-.924.031 0-.062.123-.093.185.155-.246.9-.893.59-.832.59-.462.931-1.047 1.428-1.417.124-.4.962-.832.869-1.109.155.216 1.056-.77 1.304-1.201-.062.154.342-.246.311-.031.372-.37.683-.77.528-.801.9-.493 1.211-1.602 1.894-1.694l2.763-3.204-.714-.616c-.062.062-.093.154-.155.216-.031-.062 0-.154.062-.277l.869.77c-.279.37-.931.924-.745 1.017l.776-.986-.931-.832a10.37 10.37 0 0 1-1.304 1.787c-.248.246.031-.216.093-.339-.776 1.109-1.676 2.002-2.359 2.988 0-.031.062-.123.124-.246-.155.185-.372.401-.279.431l.124-.185c.373-.185-.373.924-.341 1.017.031-.493-.838.832-.714.123-.093.123-.186.308-.093.339-.155.154-.248.185-.155-.031-.528.678-.248.524-.745 1.109-.031-.031.062-.154.062-.277-.186.37-.372.709-.838 1.171 0-.062-.062-.031.062-.154-.745.832-1.087 1.571-1.987 2.403.093-.401-.341.246-.528.185l-.404.524.248-.123c-.404.431-.652.863-1.056 1.201l.248-.37-.745.801.466-.401c-.341.493.217.123-.373.616.093-.123-.404.401-.683.555a3.43 3.43 0 0 1-.652.77c-.124.031-.062-.185-.155-.185-.093.308-.931.986-1.087 1.325.062-.123 0-.185-.031-.154l-.093.246c-.217.154-.248.185-.279.092-.59.555.341-.031-.435.555.062-.062 0-.031.124-.154l-1.987 1.879c-.31.062.528-.555.217-.462l-2.763 2.711.186-.154c0 .277-.745.524-1.149 1.017.093-.123.062-.216.062-.185-.341.277-.652.555-.994.893-.186.154-.341.339-.559.524-.186.154-.435.308-.714.308.031-.031.093-.031.124-.062-.217 0-.435-.062-.683-.246-.217-.185-.404-.462-.559-.678-.124-.092-.31-.37-.248-.154-.745-1.479-1.925-2.495-2.608-3.82.093.154.279.308.186.216l-.745-1.017c0 .123.062.154.155.401a4.63 4.63 0 0 1-.528-.647c.341.431.093-.062-.031-.277 0 .031-.062 0-.062.031-.279-.585-.155-.031-.59-.801l.062.031c-.186-.277-.404-.493-.59-.801-.031-.154.217.277.279.277-.279-.4-.652-.77-.869-1.171l.435.585c-.217-.462-.279-.493-.466-.801l.031.031-.466-.739.093.185c-.497-.431-.745-1.047-1.304-1.725.528.647.124.092.217.092l-.217-.401c-.279-.308-.342-.585-.714-1.017 0-.031-.248-.37-.155-.308-.31-.431.031.123 0 .092-.497-.647-.993-1.602-1.676-2.557L3.477 56.44c-.155-.277.155.185.155.185l-.714-1.14c.062.092 0 0-.062-.123-.217-.308-.155-.185-.435-.647.062.062.124.154.217.308l-.745-1.14c-.062-.123.155.216.248.37l-.838-1.263.186.277c-.093-.154-.031-.092.031.031.248.37.342.555.342.585l-.186-.277c.155.308.714 1.14 1.056 1.694l-.186-.216.404.554c.062.123.093.216-.062-.062.248.431.248.339.435.709.031.031 0 .031-.031 0l.248.401c-.062-.062 0 .092-.124-.154.404.739.745 1.14.869 1.417l-.031-.062c.652.986.093.062.621.77l.217.555.093.062c.062.092.186.308.155.277.279.37-.031-.062.155.123l.869 1.479c.155.154-.279-.493.093.031 0 .216.404.585.652 1.047-.124-.093-.373-.555-.124-.062.248.216.528.863.807 1.232.093-.031.559.801.993 1.417-.062-.031.745 1.202 1.087 1.787h-.031c.155.062.528.678.838 1.078-.062.031-.124-.062-.31-.277l.279.401c.093.093.186.185.373.462l-.124-.062 1.242 1.756c.093 0-.186-.678.341.031-.031.062-.062.123-.217-.062.062.062.186.216.248.339l-.248-.246c.186.339.155.123.341.4-.062.031.093.216.031.216-.062-.062-.124-.246-.217-.308.186.277.404.647.435.801 0-.031.062-.062.217.154.373.524.062.216.248.555.124.093.341.462.404.431.124.154.093.216.124.277.124.123.342.462.559.709.248.247.466.339.31.185-.031-.031-.062-.031-.062-.062 0 0 .031.031.062.031.248.154.559.277.869.246s.59-.185.838-.339c.497-.339.931-.709 1.335-1.078l.031.031 1.397-1.356c.155-.123.404-.246.373-.154.373-.37.373-.431.962-.863-.341.4.186-.062-.341.37.497-.4.683-.462 1.118-1.017-.093.246.466-.246.652-.462l-.404.246.714-.647-.031.216c1.118-.77 1.552-1.879 2.515-2.372.186-.308-.59.462-.435.154.466-.4 1.087-.709 1.211-.832.652-.524.404-.709 1.087-1.294-.124.031-.31 0 .124-.493.435-.431.714-.37.466-.062-.093.123-.155.154-.186.123-.124.154-.279.37-.062.216l.031-.092c.248-.185.838-.77.776-.585.279-.37.062-.216-.186.031.621-.493.869-.893 1.49-1.417-.124.062-.248.123-.155.031.869-.801.279-.462.807-1.047.373-.277.031.277.559-.37.373-.308.186.031.093.216.435-.616.993-.955 1.304-1.263l-.217.308c.124-.185.279-.339.404-.462l-.248.092c.186-.154.31-.308.341-.246.093-.216-.279 0-.031-.431.248-.185.559-.739.776-.709-.683.678.186.031-.342.647.093-.123.217-.277.404-.431.031 0 0 .062-.031.092.745-.585.155-.431.776-1.14 0 .154.279-.062.373-.185-.248.277-.248.031-.062-.277.466-.4.404-.524.621-.77l-.279.246c0-.154.217-.37.466-.709.093.031-.217.339-.093.246.186-.462.838-.709 1.18-1.294.248-.185.155.092.373-.092.372-.647.621-.524 1.024-1.201-.248.092-.248.154 0-.37l-.745 1.047.373-.739-.621.832c.155-.37.155-.308-.031-.246.497-.277.59-.894 1.055-1.263l.248.216c.217-.216.404-.431.559-.647l-.931-.832c-.373.431-.714.924-1.304 1.479l.311-.216c-.031.216-.497.524-.745.832-.062-.092-.248.031-.435.093.062.031-.621.616-.528.832l-.497.277c-.714.647-.528 1.017-1.211 1.633.093-.277-.248-.031.124-.554-.217.216-.435.401-.373.462-.186.092-.497.709-.776.832-.062.123 0 .246-.248.493-.031 0-.031-.031-.031-.031.031.031-.341.431-.031.308-.931.431-1.863 1.91-2.67 2.28l-1.428 1.54c0-.062-.031-.031.062-.123-.683.524-.124.616-.9 1.202-.497.216.279-.431.031-.277-.373-.185-.776.863-1.397 1.171l.093-.123c-.435.246-.745.955-1.335 1.51 0 0 0-.062-.031-.031-.248.524-.931 1.325-1.428 1.91.062-.277.186-.308-.031-.308-.217.246.248.123-.217.616-.217.092-.652.308-.807.216l.466-.37c-.372.031-.621.493-.9.585v-.093l-.745.431a1.36 1.36 0 0 1-.931.093l.093.092c-.279.062-.404 0-.497-.062s-.186-.154-.497-.185c-.031-.092-.031-.185-.062-.277l-.838-.277-1.024-.524c.435.062 1.149.462 1.614.585-.311-.154-1.056-.647-1.304-.647.124.062.341.123.435.247-.248-.062-.497-.123-.776-.277a4.6 4.6 0 0 1-.838-.585c.217-.123-.155-.493-.559-.863l-.59-.647c-.155-.216-.279-.431-.31-.585-.993-.863-1.583-2.095-2.421-3.358-.031.647-.248-.37-.528-.092-.217-.308-.279-.431-.279-.462l-.341-1.078c-.031-.277.248.277.31.185-.341-.709-.031-.37-.186-.863-.062.154-.31-.154-.466-.585l.124.647c-.683-.893-.155-.986-.838-1.91l.248.277c-.31-.493-.9-1.91-1.428-2.311 0-.123.031-.277.155-.062l-.373-.801-1.335.739c.714.924 1.521 1.879 1.832 2.68l-.124-.031c.155.216.373.308.466.616-.031 0-.124-.031-.062.062.093.092.497.524.59.832l-.217-.216c.559 1.232 1.211 1.694 1.77 2.68-.217.123.155 1.109.341 1.602h-.031c.621 1.417 1.273 2.341 1.894 3.635.031.308.124.709.279 1.171l1.087-.678c-.683-.739-1.552-1.664-2.08-2.465.093.185-.186.092-.341-.092-.155-.308-.714-.647-.497-.739l.062.092c.031-.339-.435-.863-.714-1.294l-.279.092c-.062-.185-.124-.37-.217-.524l-.279-.554-.652-1.109c-.435-.709-.807-1.386-.807-1.818-.217-.277-.373-.678-.559-.955l.155-.031-.404-1.14c-.031-.123-.093-.246-.124-.37-.031-.062-.062-.154-.093-.246.062.062.093.092.155.123 0-.031-.031-.031-.031-.062l-.062-.062c-.062-.062-.124-.123-.217-.246-.155-.185-.373-.493-.435-.678.124.123.217.246.342.4-.031-.123-.031-.185 0-.216l.031-.031.031.062.062.092c.031.062.031.031.031-.092l.093.277.155.277c.031.031.031.031.062 0 0-.031.031-.062.031-.185 0 .154.031.185.124.277l.31.339.373.431h-.155c.435.339.497.339.931.924.093.154 0 .185-.093-.031.279.524.341.308.714.924l-.217-.185c.342.493.342.431.59.678.248.277.621.955.59 1.109.093.031.341.277.528.585 0 .062-.093-.031-.155-.092.497.893.931 1.202 1.211 1.818-.031.031 0 .092 0 .123l-.745-1.171c-.093.062.248.616-.155.246.341.401.994 1.047 1.273 1.602 0 .031.031.062.031.092l-.031-.062c.062.123.155.246.217.339l.248.462c-.031.092.373.647.528.924.062-.062.279.277.155-.092.031.062-.031-.031-.155-.216-.031-.031-.062-.092-.093-.123h.031l-.435-.678c.186.185.373.4.497.709.155.092.31.216.373.308.124.462.497 1.201.497 1.355.559.801 1.273 1.972 1.739 2.403.155.216.124.308.155.4-.093-.123-.186-.308-.248-.37.341.462.869 1.417 1.024 1.479.31.647-.279-.277.217.524l-.093-.092c.435.924.931 1.602 1.428 2.341l.28-.185c-.528-.524-1.087-1.078-1.646-1.879l.155.216-2.359-2.865-2.173-2.957c-.373-.555-.466-.616-.714-.924l-.062-.154-.435-.554c-.311-.401-.528-.77-.745-1.171l-.869-1.356.062.154-.714-1.171a1.96 1.96 0 0 1-.186-.277v-.031l-.59-.955c-.435-.77.093.092-.559-.986l-.559-1.017.248.431-.217-.37c-.031-.062-.186-.37.279.585l.341.647.093.216-.279-.555.404.739.124.277.373.616c.031.092-.186-.277.062.154.186.277-.155-.308.155.185.155.308.093.247.31.585.031.062-.031-.031-.124-.154l.621.986c.155.339.652 1.078.59 1.047l.559.832c-.373-.493.683 1.078.528.986.31.339.931 1.386 1.428 2.002a.67.67 0 0 1-.124-.154l.466.739c.093 0 .528.585.776.863.279.493-.279-.216-.217-.031.031-.062.621.739.559.554.217.37.217.308.279.524.124 0 .248.308.528.554.341.524.031.185.466.709.341 0-.093-.431-.093-.431zm-2.515-6.932c.093.123.155.216.186.277-.031-.031-.093-.123-.186-.277zm-.714-1.14l.311.493c0 .062-.062.031-.124-.092.031.062-.124-.216-.186-.401zm.9 2.834c-.124-.185-.155-.246-.155-.277l.217.308h.031c-.031 0-.062 0-.093-.031z"/><path d="M14.064 63.803l.062.062c-.031-.031-.031-.092-.062-.123s-.062-.031-.062-.062c0 .062.031.093.062.123zm-6.427-5.176l.031-.031-.093-.092.062.123zm3.043 8.411c0-.031 0-.031-.031-.092 0 0 0 .062.031.092zm-1.832-2.681l-.248-.401c.124.185.217.308.248.401zm-1.335-2.064c-.031-.031-.031-.031-.062-.031l.062.031zm26.048-6.932c.031-.031.031-.062.062-.092.124-.185.031-.062-.062.092zm-7.731 8.873l.217-.308c-.124.123-.248.246-.217.308zm6.861-6.655l-.062.063.062-.062zm-6.24 5.946c-.155.123-.279.277-.373.401.124-.123.279-.246.373-.401zM1.645 53.205l-.062-.092.062.092zm-.093-.093l-.062-.123c.031.062.062.092.062.123z"/><path d="M1.335 52.773l.155.246c-.031-.092-.124-.216-.155-.246zm2.608 4.067l-.497-.801-.031-.031c.124.154.373.647.528.832zm2.08 3.635l-.435-.709c.062.123.155.308-.062 0 .528.893-.062-.216.497.709zm1.397 2.188c-.248-.37-.031.031-.062 0 .186.246.217.308.062 0zm12.387 7.886l.031.093c.248-.247-.031-.031-.031-.093zm2.298-2.834l-.311.185-.031.185.341-.37zm2.08-.893l-.093.123.404-.431-.31.308zm4.874-7.671l.217.062c.124-.185.031-.37-.217-.062zm-9.78 8.472a.88.88 0 0 0-.652-.216c.279.123.528.246.652.216zm-8.754-6.439l.186.185-.311-.401.124.216z"/></g><defs><clipPath id="A"><path fill="#fff" d="M0 0h38v74H0z"/></clipPath></defs></svg>