<svg width="38" height="74" viewBox="0 0 38 74" fill="none" xmlns="http://www.w3.org/2000/svg">
<g clip-path="url(#clip0)">
<path d="M16.0196 73.9692C16.0507 74 16.0196 74 15.9575 73.8768L15.9265 73.8152L16.0196 73.9692Z" fill="#202020"/>
<path d="M15.6781 73.2606C15.616 73.1374 15.5539 72.9834 15.585 73.0758C15.6471 73.199 15.6471 73.2298 15.7092 73.3839C15.7402 73.5071 15.7713 73.5687 15.7713 73.5687C15.8023 73.5995 15.8644 73.7228 15.8954 73.7844C15.8644 73.7228 15.8023 73.6303 15.7713 73.5687C15.7402 73.4455 15.7092 73.3531 15.6781 73.2606C15.6471 73.199 15.6781 73.2606 15.6781 73.2606Z" fill="#202020"/>
<path d="M19.9935 62.8477L19.9314 62.9101C19.9624 62.9101 19.9935 62.8789 19.9935 62.8477Z" fill="#202020"/>
<path d="M22.5082 56.0701C22.5082 56.1317 22.5082 56.1625 22.5082 56.1625C22.5392 56.1009 22.5392 56.0701 22.5082 56.0701Z" fill="#202020"/>
<path d="M22.9739 54.8992C22.9739 54.9304 22.9428 54.9616 22.9428 54.9616C22.9428 54.9616 22.9739 54.9304 22.9739 54.8992Z" fill="#202020"/>
<path d="M19.9935 62.8476L20.1177 62.6936C20.0866 62.6628 20.0556 62.786 19.9935 62.8476Z" fill="#202020"/>
<path d="M18.4722 65.6511L18.4412 65.7127C18.4412 65.7435 18.4412 65.7435 18.4412 65.7743L18.4722 65.6511Z" fill="#202020"/>
<path d="M17.1683 67.6845C17.1994 67.6537 17.1683 67.5921 17.1373 67.5613C17.1373 67.5921 17.1373 67.6537 17.1062 67.6845C17.1062 67.6845 17.1373 67.6845 17.1683 67.6845Z" fill="#202020"/>
<path d="M20.1487 0.77031L20.1176 0.739502L20.1487 0.77031Z" fill="#202020"/>
<path d="M18.9069 32.5022C18.8758 32.7795 18.5343 32.2558 18.5653 32.6563C18.6274 32.6255 18.9689 32.8103 18.9069 32.5022Z" fill="#202020"/>
<path d="M23.6258 47.3821C23.5948 47.3821 23.5637 47.4133 23.5637 47.4445C23.5637 47.4445 23.5948 47.4445 23.6258 47.3821Z" fill="#202020"/>
<path d="M23.3464 51.2948L23.3775 51.2024C23.3464 51.264 23.3464 51.2948 23.3464 51.2948Z" fill="#202020"/>
<path d="M23.2222 45.3796C23.2222 45.318 23.2533 45.318 23.2222 45.2256C23.2222 45.2256 23.2222 45.2256 23.1912 45.2564C23.2222 45.2872 23.2533 45.318 23.2222 45.3796Z" fill="#202020"/>
<path d="M22.9118 43.2847L22.8807 43.3155C22.8807 43.3463 22.8807 43.3463 22.9118 43.3771V43.2847Z" fill="#202020"/>
<path d="M13.8154 5.97667C13.8464 5.94587 13.9085 5.94587 13.9396 5.91506C13.8775 5.94587 14.0016 5.6686 13.8154 5.97667Z" fill="#202020"/>
<path d="M21.9183 45.4721L21.8873 45.1641C21.8873 45.2257 21.9183 45.3489 21.9183 45.4721Z" fill="#202020"/>
<path d="M11.2386 20.6413L11.1765 20.5488C11.2075 20.5796 11.2075 20.6104 11.2386 20.6413Z" fill="#202020"/>
<path d="M21.732 44.2091C21.7941 44.1475 21.7941 44.0858 21.8252 44.0242C21.8252 44.0242 21.7941 43.9934 21.7631 43.9934L21.732 44.2091Z" fill="#202020"/>
<path d="M14.933 3.9742C14.7467 4.25147 14.933 4.12824 14.933 4.22066C14.7467 4.55955 14.7778 4.34389 14.6846 4.43632C14.5915 4.65197 14.5605 4.83682 14.4673 4.99086C14.4363 4.99086 14.4363 5.02166 14.4363 4.99086C14.3742 5.23732 14.0637 5.63782 14.0016 5.91509C13.9706 5.91509 13.9706 5.94589 13.9706 5.94589C14.0327 5.91509 14.0948 5.94589 14.1258 5.9767C14.0637 6.09993 14.0637 6.22316 13.9706 6.25397C14.0016 6.19235 14.0016 6.16155 14.0016 6.09993L13.9706 6.25397C13.8154 6.31559 14.0327 6.06912 13.9706 6.03832C13.8464 6.31559 13.7843 6.65447 13.6291 6.83932C13.5049 6.83932 13.8464 6.3772 13.6291 6.59285L13.8154 6.31559C13.5359 6.46962 13.9395 6.13074 13.6601 6.28478C13.4118 6.65447 13.4428 6.74689 13.2255 7.14739C13.2255 7.27062 13.3186 7.14739 13.3186 7.27062C13.1324 7.88678 12.8219 7.60951 12.7598 8.10243C12.7598 8.25647 12.884 8.34889 12.6667 8.62616L12.6046 8.47212C12.3873 8.87262 12.6667 8.7802 12.3873 9.14989C12.3562 9.05747 12.4804 8.81101 12.4493 8.87262C12.232 9.11908 12.4493 9.08827 12.3562 9.30393H12.232C12.1389 9.51958 12.0768 9.76604 12.0147 10.0125C11.9526 10.259 11.8905 10.5054 11.7974 10.7519C11.7663 10.7211 11.7663 10.6287 11.6732 10.7211C11.5801 11.0292 11.4869 11.368 11.3627 11.7069C11.2386 12.0458 11.1144 12.3539 10.9902 12.662L11.0523 12.9392C11.0523 13.0008 10.9592 13.0317 10.9592 12.97C10.866 13.2165 11.0212 13.0008 11.0523 13.1241C11.0212 13.2781 10.9592 13.3089 10.9281 13.1857C10.9281 13.4013 10.9281 13.7402 10.9281 14.0483C10.9281 14.3564 10.866 14.6953 10.7729 14.9109C10.7729 14.8801 10.7418 14.8493 10.7418 14.8185C10.6487 15.1882 10.9902 15.2498 10.835 15.5579L10.8039 15.4963C10.7729 15.6811 10.7729 15.8968 10.7729 16.0816C10.7729 16.2973 10.7729 16.4821 10.7729 16.667C10.7729 16.8518 10.7729 17.0675 10.7729 17.2215C10.7729 17.4063 10.7729 17.5604 10.7108 17.7144C10.9281 17.8068 10.7108 18.5154 10.9902 18.5154C10.9281 18.9775 10.866 18.8543 10.866 19.5013C10.8971 19.6861 11.1144 19.7169 11.1765 19.9018L11.0212 19.9326C11.0833 20.025 11.1765 20.0866 11.2696 20.179L11.1144 20.3639L11.2075 20.5487C11.2075 20.4563 11.2386 20.3639 11.2696 20.3639C11.4248 20.6411 11.3627 21.1033 11.3007 21.1341C11.3938 21.3497 11.549 21.5654 11.6732 21.781C11.6111 21.781 11.549 21.6886 11.4559 21.5962C11.7353 21.9043 11.3007 21.7194 11.5801 21.9967C11.6111 21.9351 11.6732 21.9967 11.7042 21.9967C11.6732 22.1815 11.7974 22.582 11.9526 22.8285H11.8284C12.0147 23.3214 12.2941 23.8451 12.5735 24.3997C12.5425 24.184 12.7288 24.1532 12.8219 24.2765L12.6977 24.4305C12.8529 24.4921 12.6667 24.2456 12.915 24.3997C13.0082 24.6153 12.7909 24.6153 12.6667 24.5229L12.8529 24.7386C12.8219 24.7694 12.7598 24.7386 12.6977 24.7386C12.8529 24.8002 12.7288 25.2623 12.9771 25.2931L12.9461 25.3239C13.2255 25.8476 13.4118 26.0633 13.6291 26.4946C13.7843 26.433 13.8464 26.6178 14.0327 26.6794C14.1569 27.0183 14.25 27.4188 14.4673 27.7885C14.6846 28.0042 14.6225 27.7885 14.7778 27.8501C14.6536 27.9426 14.8709 28.3123 14.6846 28.1582C14.9641 28.5895 15.0572 28.7128 15.4918 29.2057C15.5229 29.1133 15.4918 29.0208 15.5539 29.0516C15.6471 29.1441 15.6471 29.2981 15.5539 29.3289L15.5229 29.2981C16.1127 29.791 15.9886 30.9617 16.5784 31.2698L16.5474 31.239L17.0131 31.6703C17.1373 31.9168 16.8268 31.5779 16.8578 31.8243C17.4167 32.2556 17.3546 32.7178 17.7582 33.0874C17.5409 33.6728 18.5033 34.3198 18.5033 34.9359L18.5964 34.8435C18.7516 34.9051 18.6275 35.0283 18.6585 35.1208C18.7206 35.0591 18.6585 34.9359 18.7827 34.9975C19.1242 35.4904 19.3415 36.0758 19.5588 36.6303C19.7451 37.2157 19.9003 37.8318 20.0866 38.3864C20.2108 38.8177 20.7075 38.4172 20.6454 39.0333L20.3971 38.9409C20.6454 39.3106 20.8007 39.7419 20.9559 40.1732C21.0801 40.6045 21.1732 41.0358 21.3905 41.4363C21.3284 41.4055 21.2663 41.4055 21.2353 41.3439C21.1422 41.5596 21.4216 41.9909 21.5147 41.9909C21.5147 42.1141 21.4216 42.0525 21.3905 42.1449C21.3595 42.3297 21.6699 42.5454 21.5458 42.6994C21.5147 42.7302 21.4837 42.6686 21.4837 42.6378C21.5768 42.7302 21.5768 43.1924 21.732 43.0383C21.732 43.3772 21.9493 43.6237 21.8873 43.9009C22.1046 44.055 21.8873 44.4555 22.1356 44.4863C21.8562 44.5171 22.0114 45.0716 22.1667 45.2873C22.0735 45.2257 22.1046 45.4721 21.9804 45.4105C22.0114 45.657 22.1046 45.8418 22.2288 45.811C21.9493 46.2731 22.5703 46.6736 22.1977 46.9509C22.415 47.6287 22.5082 48.3064 22.6013 48.9226C22.3529 48.8918 22.5703 48.214 22.2909 48.2448C22.3529 48.5529 22.4461 48.7685 22.5082 49.015C22.5392 49.1382 22.5703 49.2615 22.6013 49.3847C22.6013 49.5079 22.6013 49.6312 22.6013 49.7852C22.5703 49.9392 22.5082 49.6928 22.4461 49.6312C22.5392 50.2473 22.384 50.8018 22.5082 51.3256C22.4771 51.3256 22.4771 51.264 22.4461 51.2023C22.4461 51.2948 22.384 51.4488 22.5082 51.4488L22.4771 51.3564C22.6634 51.2023 22.7565 51.7877 22.8497 51.8185C22.5703 51.6028 22.7255 52.3422 22.3529 52.0342C22.3529 52.0958 22.415 52.1882 22.4771 52.1882C22.4461 52.2806 22.415 52.3114 22.3219 52.219C22.3529 52.5887 22.4771 52.4963 22.4461 52.8352C22.384 52.8352 22.384 52.7427 22.3219 52.7119C22.415 52.8968 22.5082 53.0816 22.415 53.3589C22.384 53.3281 22.3529 53.3589 22.3529 53.2665C22.2909 53.7594 22.4771 54.1599 22.2909 54.6836C22.1046 54.4988 22.1977 54.8685 22.0114 54.8377C22.0114 54.9301 22.0114 55.0533 22.0114 55.1457H22.0425C21.9804 55.3922 22.0735 55.6387 21.9493 55.8543L21.9183 55.6387L21.8562 56.1316L21.9804 55.8851C22.0114 56.1624 22.1977 55.9159 22.0735 56.224C22.0735 56.1624 22.0114 56.4705 21.8873 56.5937C21.9183 56.7477 21.9493 56.871 21.8562 57.0558C21.7941 57.0866 21.6699 56.9634 21.6389 56.9942C21.732 57.1482 21.5147 57.5795 21.6078 57.7952C21.5768 57.7336 21.5147 57.7028 21.4837 57.7336L21.5768 57.8568C21.5147 57.9492 21.4837 57.98 21.4216 57.9492C21.2974 58.2881 21.6699 57.8876 21.4526 58.2881C21.4526 58.2573 21.4216 58.2573 21.4216 58.1957C21.3284 58.4113 21.2974 58.5962 21.2663 58.8118C21.2353 59.0275 21.1732 59.2123 21.0801 59.3972C20.8938 59.4588 21.1732 59.0583 20.9869 59.1507C20.8317 59.7053 20.7696 60.3214 20.5523 60.8451L20.6144 60.7527C20.7696 60.9068 20.366 61.0916 20.335 61.3997C20.335 61.3381 20.2729 61.2765 20.2729 61.3073C20.0866 61.6461 20.0245 62.0466 19.8382 62.6012V62.5088C19.683 62.6936 19.5588 63.0325 19.4346 63.2173C19.4346 63.3098 19.3726 63.433 19.4657 63.3714C19.1863 63.6486 19.0621 63.9875 18.9069 64.2956C18.7516 64.6037 18.6275 64.9118 18.3791 65.1582C18.4101 65.0966 18.4412 64.9734 18.4101 65.035L18.1618 65.5279C18.2549 65.5279 18.2239 65.4971 18.348 65.4047C18.348 65.4971 18.2859 65.6511 18.2239 65.7744C18.317 65.5279 18.1307 65.7128 18.0376 65.8052C18.0686 65.8052 18.0686 65.836 18.0686 65.836C17.8203 66.0208 18.1618 65.9592 17.8513 66.2365V66.2057C17.7892 66.3289 17.7582 66.4829 17.634 66.6062C17.5409 66.637 17.6961 66.4521 17.665 66.4213C17.5409 66.6062 17.5409 66.8834 17.3546 67.0067C17.3856 66.9143 17.4788 66.791 17.5098 66.6986C17.3235 66.8526 17.3235 66.8835 17.2304 67.0375L17.0131 67.3456L17.0752 67.2839C17.0752 67.6228 16.7958 67.8077 16.7026 68.2082C16.7958 67.8385 16.7026 68.1158 16.6405 68.0849C16.5784 68.1774 16.4853 68.3006 16.4853 68.239C16.4542 68.4238 16.3301 68.4854 16.268 68.7627C16.2369 68.7627 16.1748 68.9476 16.1748 68.8859C16.0817 69.1016 16.2369 68.8551 16.2369 68.8859C16.1438 69.2556 15.8333 69.6561 15.7402 70.1799C15.6781 70.3955 15.6471 70.5496 15.6471 70.6728C15.6471 70.796 15.616 70.9193 15.585 71.1349C15.5539 71.2581 15.5539 71.0117 15.5539 71.0117C15.5229 71.2273 15.4608 71.4122 15.4608 71.6278C15.4608 71.597 15.4608 71.6278 15.4297 71.6894C15.4297 71.8743 15.4608 71.8127 15.4297 72.0283C15.4297 71.9975 15.3987 71.9359 15.3987 71.8435C15.3987 72.0591 15.4297 72.244 15.4608 72.4596C15.4608 72.5212 15.4297 72.3364 15.4297 72.244C15.4297 72.4904 15.5539 72.8601 15.5539 72.9218L15.5229 72.7677C15.5539 72.8601 15.5229 72.8293 15.4918 72.7369C15.4608 72.6445 15.4608 72.5521 15.4297 72.5212C15.4297 72.4596 15.4297 72.4596 15.4297 72.4288C15.4297 72.4904 15.4297 72.5213 15.4608 72.5829C15.4608 72.4904 15.4608 72.3672 15.4297 72.1824C15.3987 71.9975 15.3987 71.8127 15.3987 71.6586L15.4297 71.7819V71.4738C15.4608 71.4122 15.4608 71.3814 15.4608 71.5046C15.4918 71.2889 15.4608 71.3197 15.5229 71.1349C15.5229 71.1041 15.5229 71.1349 15.5229 71.1349L15.5539 70.9193C15.5539 70.9501 15.585 70.8884 15.5539 71.0117C15.585 70.8268 15.6471 70.6728 15.6471 70.5496C15.6781 70.4263 15.6781 70.3339 15.7402 70.2723V70.3031C15.8954 69.8102 15.7092 70.2415 15.8023 69.841C15.8644 69.7794 15.9265 69.6869 16.0196 69.6253L15.9886 69.5637C16.0196 69.5021 16.0507 69.4097 16.0817 69.4405C16.1127 69.2248 16.0507 69.4713 16.0507 69.3481C16.2059 69.1324 16.3301 68.6703 16.4542 68.6703C16.4542 68.5779 16.299 68.8859 16.4232 68.6087C16.5474 68.5779 16.5474 68.3006 16.7026 68.1158C16.7026 68.2082 16.5784 68.393 16.7337 68.2082C16.7337 68.0541 16.982 67.8077 17.0752 67.6228C17.0131 67.5612 17.2614 67.2223 17.4477 66.9451C17.4477 66.9759 17.8513 66.4213 18.0376 66.1749V66.2057C17.9755 66.1133 18.1928 65.836 18.2859 65.6203C18.348 65.6511 18.317 65.7128 18.2859 65.836L18.4101 65.6511C18.4101 65.5895 18.4412 65.5279 18.5033 65.4047L18.5343 65.4971C18.6895 65.2506 18.7827 64.9426 19.031 64.6345C18.969 64.5729 18.6895 64.7885 18.8448 64.4188C18.8758 64.4188 18.969 64.4496 18.9069 64.5421C18.9069 64.5113 18.9379 64.4188 19 64.3572L18.969 64.5421C19.0931 64.4188 18.969 64.4188 19.031 64.3264C19.0931 64.3572 19.1242 64.2648 19.1552 64.2956C19.1552 64.3264 19.0621 64.388 19.0621 64.4496C19.1552 64.3264 19.2794 64.1724 19.3726 64.1416C19.3415 64.1416 19.3105 64.1108 19.3415 63.9875C19.4657 63.7103 19.4657 63.9259 19.5588 63.8027C19.5588 63.7103 19.683 63.5562 19.5899 63.5254C19.6209 63.433 19.683 63.4638 19.7141 63.433C19.7451 63.2789 20.0556 62.786 19.8693 62.8785L19.8382 62.9093V62.8785C19.9935 62.3855 20.335 61.9542 20.5212 61.4613L20.5523 61.4921C20.6454 61.2148 20.8007 60.876 20.8007 60.6295C20.8317 60.5371 20.9559 60.4446 20.9559 60.5063C21.018 60.2906 20.9869 60.229 21.1422 59.9517C21.1422 60.1982 21.2353 59.8901 21.1111 60.1982C21.2353 59.9209 21.3284 59.8901 21.3284 59.5512C21.3905 59.6745 21.5458 59.3972 21.5458 59.2431L21.3905 59.428C21.4216 59.274 21.4837 59.1507 21.5458 59.0275L21.6389 59.1507C22.0114 58.627 21.6699 58.0108 22.1046 57.6412C22.0425 57.4563 21.9493 57.9492 21.8562 57.7644C21.9493 57.4871 22.2598 57.2715 22.2909 57.179C22.4771 56.8093 22.1667 56.7785 22.3219 56.378C22.2598 56.4088 22.1046 56.4397 22.1046 56.1316C22.1977 55.8543 22.415 55.8543 22.415 56.0392C22.415 56.1008 22.384 56.1316 22.3529 56.1316C22.3529 56.224 22.3529 56.3472 22.4461 56.2548L22.415 56.1932C22.5082 56.07 22.6013 55.7003 22.6634 55.7927C22.6634 55.577 22.6013 55.6695 22.5392 55.8235C22.6944 55.4846 22.6944 55.269 22.7876 54.8993C22.7565 54.9609 22.6634 54.9917 22.6944 54.9301C22.8497 54.4063 22.6324 54.6836 22.6634 54.3139C22.7876 54.1291 22.8497 54.4372 22.8497 54.0367C22.9428 53.821 23.0049 54.0058 23.0359 54.0983C22.9739 53.7286 23.2222 53.4821 23.2843 53.2973L23.3154 53.4821C23.3154 53.3589 23.3154 53.2973 23.3464 53.2048L23.2222 53.2973C23.2533 53.2048 23.2533 53.1124 23.3154 53.1124C23.2533 52.9892 23.098 53.174 23.0049 52.9276C23.098 52.8043 22.9739 52.4963 23.1601 52.4655C23.067 52.8968 23.3154 52.4347 23.3154 52.8043C23.3154 52.7427 23.3154 52.6503 23.3464 52.5271C23.3775 52.5271 23.3775 52.5579 23.3775 52.5887C23.5637 52.1882 23.2222 52.373 23.2533 51.9417C23.3464 52.0033 23.4395 51.8493 23.4395 51.7877C23.4085 51.9725 23.2843 51.8493 23.2222 51.6953C23.3154 51.418 23.1912 51.3872 23.2222 51.2332C23.2222 51.2948 23.1912 51.3564 23.1912 51.3872C23.098 51.3256 23.1291 51.1715 23.098 50.9867C23.1601 50.9867 23.1291 51.1715 23.1912 51.1099C23.0359 50.8943 23.3775 50.617 23.2843 50.3089C23.3464 50.1857 23.4706 50.3089 23.5327 50.1857C23.4085 49.8468 23.6879 49.816 23.5948 49.4463C23.4706 49.5387 23.5016 49.5695 23.3775 49.3231C23.4085 49.5079 23.4085 49.7236 23.4395 49.9084L23.2533 49.5387C23.2533 49.7236 23.3154 49.9084 23.2843 50.0317C23.1912 49.8468 23.2222 49.8776 23.098 49.9392C23.3154 49.6928 23.0049 49.4463 23.1291 49.169H23.4706C23.6258 48.7377 23.2843 48.4297 23.3775 47.8751L23.3154 48.06C23.1912 47.9984 23.2843 47.7211 23.2222 47.5362C23.3464 47.5362 23.3775 47.4438 23.4395 47.3514C23.3464 47.3514 23.4085 46.9509 23.1912 46.9201L23.3154 46.6736C23.3464 46.2115 22.9428 46.2115 22.9428 45.7802C23.067 45.9034 23.1291 45.6878 23.2533 45.965C23.2533 45.811 23.2533 45.6878 23.1601 45.6878C23.2222 45.5954 22.9739 45.3181 23.067 45.164C23.0049 45.1024 22.8807 45.1024 22.8807 44.9484C22.9118 44.9176 22.9428 44.9484 22.9428 44.9484C22.8807 44.9484 22.8186 44.7019 22.7255 44.856C22.8807 44.6095 22.8186 44.3014 22.7565 44.0242C22.7255 43.8701 22.6944 43.7469 22.6944 43.5929C22.6944 43.4696 22.6944 43.3464 22.7565 43.2232C22.6634 42.9151 22.5392 42.5762 22.4771 42.2989C22.5082 42.2989 22.5392 42.2989 22.5392 42.3297C22.5703 41.9292 22.1667 42.1757 22.1977 41.7136C22.3219 41.4363 22.3529 41.9292 22.384 41.7752C22.7565 41.6212 22.1977 41.2823 22.3529 40.9434L22.384 41.005C22.4461 40.7586 22.1046 40.5121 22.0114 40.1424C22.0114 40.1424 22.0425 40.1424 22.0735 40.1424C21.8252 39.9576 21.6078 39.5262 21.4216 39.2182C21.6078 39.2798 21.5458 39.3414 21.6699 39.2182C21.6078 39.0641 21.4526 39.3414 21.2974 39.0641C21.3595 38.9409 21.3284 38.6944 21.4837 38.602L21.5768 38.8793C21.732 38.6636 21.4526 38.5096 21.4216 38.3556H21.5147C21.3284 37.9242 21.1111 38.0167 20.9248 37.5546L20.8627 37.6162C20.5212 37.4621 20.8938 37.3697 20.6144 37.1849L20.8007 37C20.6765 36.846 20.335 36.5071 20.1797 36.2606C20.4281 36.3531 20.6454 36.6611 20.8317 36.8152C20.7696 36.6611 20.5833 36.2606 20.4281 36.2298C20.4902 36.2914 20.5523 36.3531 20.5523 36.4147C20.3039 36.2914 20.0866 36.0758 19.9314 35.7677C20.3971 35.6137 19.652 34.8743 19.8382 34.5046C19.3726 34.0425 19.3105 33.3647 18.9069 32.7486C18.7206 33.1491 18.7827 32.5637 18.4722 32.8102C18.3791 32.6869 18.348 32.6253 18.348 32.5945L18.2859 32.04C18.317 31.8859 18.4412 32.1324 18.5033 32.0708C18.348 31.7319 18.5654 31.8551 18.5343 31.6087C18.4412 31.7319 18.317 31.6087 18.2239 31.393V31.7319C17.7892 31.393 18.2549 31.1774 17.8203 30.8385L18.0065 30.9309C17.8203 30.7461 17.4788 30.0991 17.1062 30.0375C17.1062 29.9759 17.1683 29.8834 17.2614 29.9451C16.951 29.3905 16.2369 28.8976 16.1438 28.4047H16.2369C16.1438 28.3123 15.9886 28.3123 15.9886 28.1582C16.0196 28.1582 16.0817 28.1582 16.0817 28.0966C16.0196 28.0658 15.7712 27.9118 15.7402 27.7577L15.8954 27.8193C15.6781 27.234 15.2124 27.1416 14.902 26.7103C15.1193 26.587 14.9641 26.1249 14.8709 25.9093H14.902C14.5915 25.2623 14.1258 24.9542 13.7533 24.4305C13.7843 24.184 13.6601 23.876 13.5049 23.5371C13.3497 23.1982 13.1944 22.8285 13.1324 22.4896C13.1324 22.582 12.9461 22.5512 12.884 22.4588C12.8529 22.3048 12.5735 22.1199 12.7909 22.0583V22.1199C12.9461 21.9351 12.7909 21.6578 12.6977 21.4421L12.4183 21.5038C12.4493 21.3189 12.4183 21.1341 12.3873 20.9492C12.3562 20.7644 12.2631 20.5795 12.201 20.3947C12.0458 20.0558 11.8905 19.7169 12.0458 19.5013C11.9526 19.378 11.8905 19.1932 11.7974 19.0392L11.9526 19.0083C11.8905 18.577 11.8595 18.3922 11.7663 17.8685L11.8905 17.9609C11.8595 17.6836 11.4248 17.6528 11.3938 17.3755L11.5801 17.2831C11.518 17.0367 11.5801 16.7594 11.5801 16.5129C11.5801 16.2665 11.5801 15.9892 11.4559 15.7427C11.4869 15.7427 11.549 15.7735 11.549 15.8352C11.549 15.5887 11.7042 14.9109 11.4248 14.9725C11.5801 14.9725 11.4869 14.4488 11.4248 14.1715L11.549 14.2332C11.4248 13.9867 11.3627 13.9559 11.3938 13.617C11.4248 13.5554 11.4869 13.5554 11.4559 13.6478C11.549 13.4013 11.3627 13.4322 11.4869 13.1241L11.549 13.2473C11.6111 12.97 11.549 13.0008 11.518 12.8468C11.518 12.662 11.6422 12.3539 11.7663 12.3231C11.7042 12.2615 11.6732 12.1074 11.7353 11.9534C11.7663 11.9534 11.7974 12.015 11.7974 12.0458C11.9837 11.6145 11.8284 11.368 12.0458 11.0908C12.0768 11.0908 12.1078 11.0908 12.1389 11.06C12.0147 11.3988 11.9526 11.6761 11.9526 11.6453C12.0458 11.6761 12.1389 11.3988 12.232 11.6453C12.201 11.3988 12.1699 10.9675 12.2941 10.7211L12.3252 10.6903V10.7211C12.3562 10.6595 12.3562 10.5979 12.3562 10.5362C12.3873 10.4438 12.4183 10.413 12.4493 10.3206C12.5425 10.3206 12.6046 10.0125 12.6356 9.88927C12.5425 9.85847 12.6046 9.70443 12.4804 9.82766C12.4804 9.79685 12.4804 9.85847 12.4493 9.95089C12.4493 9.9817 12.4493 10.0125 12.4493 10.0125C12.4183 10.1049 12.3873 10.2282 12.3252 10.3514C12.3252 10.2282 12.3252 10.1049 12.4183 9.95089C12.3873 9.85847 12.3562 9.76604 12.3252 9.70443C12.5114 9.5812 12.7288 9.24231 12.8529 9.2115C12.9461 8.7802 13.2255 8.22566 13.1634 7.88678C13.1944 7.76355 13.2565 7.76355 13.3186 7.73274C13.2876 7.79435 13.2565 7.88678 13.2565 7.91758C13.3186 7.67112 13.567 7.23982 13.4739 7.11658C13.6601 6.83932 13.4739 7.33224 13.6601 6.93174V6.99335C14.1879 6.28478 14.0637 5.60701 14.7157 4.86763C14.6846 4.92924 14.6536 4.96005 14.6225 4.96005C15.2124 4.03582 15.6781 2.95755 16.3301 2.06413C16.5163 1.81767 16.5163 1.78686 16.6095 1.60201L16.6716 1.57121C16.7337 1.47878 16.7958 1.38636 16.8578 1.29394C17.0131 1.10909 17.1683 0.98586 17.3235 0.862629C17.5098 0.739398 17.665 0.616168 17.9134 0.431322L17.8513 0.462129C17.9444 0.400514 18.0686 0.338899 18.1928 0.277283C18.317 0.215668 18.4101 0.18486 18.4101 0.215668C18.4412 0.215668 18.4722 0.18486 18.5343 0.154053C18.8137 0.338899 18.9069 0.308091 19 0.308091C19.0931 0.308091 19.1552 0.277283 19.2484 0.277283C19.4346 0.308091 19.4036 0.308091 19.4346 0.338899C19.4346 0.338899 19.4657 0.338899 19.7451 0.431322C19.9314 0.523745 20.2108 0.801014 20.1487 0.739398C20.0866 0.677783 19.9935 0.58536 19.9935 0.58536L20.1177 0.739398C20.1487 0.770206 20.2418 0.862629 19.9003 0.523745C19.8072 0.462129 19.7141 0.369706 19.6209 0.338899L19.5278 0.277283C19.6209 0.308091 19.7141 0.338899 19.7761 0.400514C19.7141 0.338899 19.652 0.338899 19.5899 0.308091C19.5278 0.277283 19.4967 0.246476 19.4346 0.246476C19.4036 0.246476 19.3726 0.215668 19.2794 0.215668C19.1552 0.18486 19.0621 0.215668 18.9379 0.215668C18.9069 0.215668 19.0931 0.18486 18.8448 0.215668C18.6895 0.246476 19 0.215668 18.7516 0.277283C18.5964 0.308091 18.6275 0.277283 18.4412 0.338899C18.4101 0.338899 18.4412 0.308091 18.5343 0.308091C18.3791 0.369706 18.0997 0.492937 18.0376 0.523745C17.8824 0.58536 17.5409 0.831821 17.5409 0.801014C17.5098 0.831821 17.3235 1.01667 17.1993 1.10909C17.2925 0.98586 17.1683 1.07828 17.0441 1.20151C16.9199 1.32474 16.7647 1.47878 16.7647 1.41717C16.6405 1.60201 16.268 2.00251 16.0817 2.3722C16.0817 2.3414 16.1127 2.31059 16.1127 2.27978C15.9886 2.46463 15.9265 2.49543 15.8644 2.58786C15.8954 2.64947 15.7402 2.92674 15.7092 3.11159C15.5229 3.29643 15.7092 2.92674 15.616 2.95755C15.6781 2.98836 15.4297 3.35805 15.5229 3.32724C15.3676 3.48128 15.3987 3.45047 15.3056 3.51209C15.3676 3.60451 15.2124 3.66613 15.1814 3.85097C14.9951 4.06663 15.0572 3.85097 14.933 4.12824C14.8088 4.22066 14.933 3.9742 14.933 3.9742ZM11.7663 10.6903C11.7974 10.6287 11.7974 10.567 11.7974 10.5362C11.7974 10.567 11.7974 10.6287 11.7663 10.6903ZM11.549 11.2756C11.5801 11.214 11.6111 11.1216 11.6422 11.0292C11.6732 11.0292 11.7042 11.06 11.7042 11.1216C11.7042 11.0908 11.6111 11.214 11.549 11.2756ZM12.6977 10.2898C12.6667 10.3822 12.6356 10.413 12.6356 10.413C12.6356 10.3822 12.6667 10.3206 12.6667 10.259C12.6667 10.259 12.6977 10.259 12.6977 10.2898Z" fill="#202020"/>
<path d="M12.6356 10.074V10.0432C12.6356 10.074 12.6046 10.074 12.6046 10.1048C12.6046 10.1048 12.6046 10.1356 12.6356 10.1356C12.6046 10.1048 12.6046 10.1048 12.6356 10.074Z" fill="#202020"/>
<path d="M10.9591 19.9641H11.0212L10.9591 19.9016V19.9641Z" fill="#202020"/>
<path d="M18.0065 65.7437C18.0065 65.7437 17.9755 65.7437 17.9755 65.7745C17.9755 65.7745 17.9755 65.7745 18.0065 65.7437Z" fill="#202020"/>
<path d="M17.1993 67.0066L17.0752 67.1606C17.1373 67.099 17.1683 67.0374 17.1993 67.0066Z" fill="#202020"/>
<path d="M22.3219 51.3256V51.2948C22.2908 51.1716 22.3219 51.2332 22.3219 51.3256Z" fill="#202020"/>
<path d="M21.8872 56.5935C21.8872 56.5319 21.8562 56.4703 21.8562 56.4087C21.8252 56.5011 21.8252 56.5627 21.8872 56.5935Z" fill="#202020"/>
<path d="M21.9183 56.1624C21.8872 56.2548 21.8562 56.3164 21.8562 56.4088C21.8872 56.3472 21.9183 56.2548 21.9183 56.1624Z" fill="#202020"/>
<path d="M15.5539 72.9526L15.5229 72.8293C15.5229 72.8602 15.5229 72.9218 15.5539 72.9526Z" fill="#202020"/>
<path d="M15.4614 71.1971C15.4295 71.165 15.4295 71.1971 15.4614 71.1971V71.1971Z" fill="#202020"/>
<path d="M15.5229 70.7344C15.4918 70.8268 15.4297 71.0116 15.4297 71.1657V71.1965C15.4297 71.1041 15.5229 70.8268 15.5229 70.7344Z" fill="#202020"/>
<path d="M16.33 69.0093L16.1438 69.3482C16.1748 69.2865 16.2369 69.2249 16.1748 69.379C16.4542 68.9785 16.1127 69.4406 16.33 69.0093Z" fill="#202020"/>
<path d="M16.951 67.9925C16.8579 68.1774 16.982 67.9925 16.982 68.0233C17.0131 67.9001 17.0441 67.8693 16.951 67.9925Z" fill="#202020"/>
<path d="M21.1422 60.5063L21.2353 60.5679C21.2664 60.4139 21.1732 60.5371 21.1422 60.5063Z" fill="#202020"/>
<path d="M21.1732 58.781L21.049 58.9042L21.1421 59.0275L21.1732 58.781Z" fill="#202020"/>
<path d="M22.1977 58.1033V58.165L22.2598 57.8877L22.1977 58.1033Z" fill="#202020"/>
<path d="M23.1291 43.6235L22.9428 43.716C23.0049 43.8084 23.2222 43.8084 23.1291 43.6235Z" fill="#202020"/>
<path d="M21.2043 37.647C21.2663 37.5546 21.2663 37.3697 21.1111 37.3081C21.1732 37.4313 21.1422 37.5854 21.2043 37.647Z" fill="#202020"/>
<path d="M12.7287 21.1649L12.8219 21.2574L12.6977 21.0725L12.7287 21.1649Z" fill="#202020"/>
<path d="M12.3872 72.6137C12.3562 72.6445 12.3562 72.6137 12.4804 72.5521L12.5425 72.4905L12.3872 72.6137Z" fill="#202020"/>
<path d="M13.0702 72.1515C13.1944 72.0591 13.3186 71.9667 13.2255 71.9975C13.1013 72.0899 13.0703 72.1207 12.9461 72.2132C12.8529 72.2748 12.7598 72.3364 12.7908 72.3056C12.7598 72.3364 12.6667 72.398 12.5735 72.4596C12.7287 72.3672 12.915 72.2748 13.0702 72.1515C13.1013 72.1207 13.0702 72.1515 13.0702 72.1515Z" fill="#202020"/>
<path d="M22.2287 64.2031L22.1667 64.2656C22.1977 64.2656 22.1977 64.2344 22.2287 64.2031Z" fill="#202020"/>
<path d="M26.0784 56.2546C26.0784 56.2859 26.0474 56.3171 26.0474 56.3171C26.0784 56.2859 26.1095 56.2546 26.0784 56.2546Z" fill="#202020"/>
<path d="M22.2288 64.2031L22.384 64.0491C22.3529 64.0491 22.2909 64.1415 22.2288 64.2031Z" fill="#202020"/>
<path d="M14.4052 71.1348C14.3742 71.166 14.3431 71.1972 14.3121 71.1972L14.4052 71.1348Z" fill="#202020"/>
<path d="M20.0866 66.7603L20.0555 66.7911C20.0555 66.8219 20.0555 66.8219 20.0555 66.8527L20.0866 66.7603Z" fill="#202020"/>
<path d="M18.1928 68.4853C18.2239 68.4545 18.2239 68.3929 18.2239 68.3621C18.2239 68.3929 18.1928 68.4237 18.1618 68.4853C18.1618 68.4853 18.1618 68.4853 18.1928 68.4853Z" fill="#202020"/>
<path d="M14.933 70.8884L14.8709 70.9196C14.902 70.9196 14.902 70.8884 14.933 70.8884Z" fill="#202020"/>
<path d="M20.7075 33.0874C20.6765 33.3647 20.335 32.841 20.366 33.2415C20.3971 33.1799 20.7386 33.3955 20.7075 33.0874Z" fill="#202020"/>
<path d="M14.4673 71.1049L14.5605 71.0425C14.4984 71.0737 14.4673 71.0737 14.4673 71.1049Z" fill="#202020"/>
<path d="M26.2958 48.3679C26.2647 48.3679 26.2647 48.3991 26.2337 48.4304C26.2647 48.4304 26.2647 48.3991 26.2958 48.3679Z" fill="#202020"/>
<path d="M26.3578 52.4655L26.3889 52.373C26.3578 52.4039 26.3578 52.4347 26.3578 52.4655Z" fill="#202020"/>
<path d="M25.7059 46.3039C25.7059 46.2423 25.7369 46.2115 25.6748 46.1499V46.1807C25.6748 46.2115 25.7059 46.2423 25.7059 46.3039Z" fill="#202020"/>
<path d="M25.1471 44.178C25.1471 44.178 25.1471 44.2088 25.116 44.2396C25.116 44.2704 25.1471 44.2704 25.1471 44.3012V44.178Z" fill="#202020"/>
<path d="M14.6536 5.02171C14.6846 4.9909 14.7467 4.9909 14.7778 4.96009C14.6846 4.96009 14.8709 4.68282 14.6536 5.02171Z" fill="#202020"/>
<path d="M14.4052 71.1349C14.4052 71.1349 14.4363 71.104 14.4363 71.0732C14.4363 71.104 14.4052 71.1349 14.4052 71.1349C14.4052 71.1349 14.4052 71.1657 14.4052 71.1349Z" fill="#202020"/>
<path d="M24.402 46.4888L24.3399 46.1499C24.3709 46.2731 24.3709 46.3964 24.402 46.4888Z" fill="#202020"/>
<path d="M13.1634 20.4262L13.1324 20.3638C13.1324 20.395 13.1634 20.395 13.1634 20.4262Z" fill="#202020"/>
<path d="M24.0605 45.1947C24.0915 45.1331 24.1225 45.0407 24.1225 44.9791C24.0915 44.9791 24.0915 44.9482 24.0605 44.9482V45.1947Z" fill="#202020"/>
<path d="M16.1127 3.04907C15.8644 3.29554 16.0507 3.20311 16.0507 3.29554C15.8023 3.60361 15.8644 3.38796 15.7402 3.44957C15.585 3.63442 15.5229 3.85007 15.3987 4.00411C15.3676 4.00411 15.3366 4.03492 15.3676 3.9733C15.3056 4.09653 15.1814 4.25057 15.0572 4.40461C14.933 4.55865 14.8399 4.7435 14.7778 4.89753C14.7467 4.89753 14.7467 4.92834 14.7467 4.92834C14.8088 4.92834 14.8709 4.92834 14.902 4.95915C14.8088 5.08238 14.8088 5.23642 14.7157 5.23642C14.7778 5.1748 14.7467 5.144 14.7467 5.08238L14.6846 5.23642C14.5294 5.29803 14.7778 5.05157 14.7157 4.98996C14.6536 5.11319 14.5605 5.26723 14.4984 5.42126C14.4363 5.5753 14.3742 5.69853 14.3121 5.79096C14.1879 5.79096 14.5605 5.29803 14.3121 5.51369C14.3742 5.42126 14.4363 5.29803 14.5294 5.20561C14.25 5.35965 14.6536 5.02076 14.3742 5.144C14.0948 5.5445 14.1569 5.63692 13.8775 6.03742C13.8775 6.16065 13.9706 6.03742 13.9706 6.16065C13.7843 6.80761 13.5049 6.53034 13.4118 7.05407C13.4118 7.20811 13.5359 7.30053 13.3497 7.60861L13.2565 7.45457C13.0703 7.88588 13.3497 7.76265 13.1013 8.19395C13.0703 8.10153 13.1944 7.82426 13.1324 7.88588C12.915 8.16315 13.1324 8.13234 13.0703 8.34799H12.9461C12.884 8.59445 12.8219 8.84091 12.7908 9.11818C12.7598 9.39545 12.7288 9.64191 12.6667 9.91918C12.6356 9.88838 12.6046 9.79595 12.5425 9.88837C12.4493 10.5661 12.2631 11.3363 12.1078 12.0141C12.1389 12.1065 12.1699 12.1989 12.201 12.2914C12.201 12.353 12.1389 12.3838 12.1078 12.3222C12.0458 12.5686 12.201 12.353 12.232 12.4762C12.232 12.6303 12.1389 12.6611 12.1078 12.5686C12.1389 12.8151 12.1699 13.1232 12.201 13.4621C12.232 13.8009 12.232 14.109 12.1699 14.3555L12.1389 14.2631C12.1078 14.6328 12.4493 14.6636 12.3252 15.0333L12.3562 15.0949C12.3252 15.9267 12.5735 16.7893 12.4804 17.4363C12.6977 17.5287 12.5425 18.2373 12.8219 18.2373C12.7598 18.7302 12.6977 18.6069 12.7288 19.2847C12.7598 19.4696 12.9771 19.5004 13.0703 19.6852L12.9461 19.716L13.1944 19.9625L13.0392 20.1781L13.1324 20.363C13.1324 20.2706 13.1634 20.1781 13.1944 20.1781C13.3497 20.4554 13.2876 20.9483 13.2255 20.9791L13.598 21.6569C13.5359 21.6569 13.4739 21.5645 13.4118 21.4721C13.6912 21.8109 13.2565 21.5953 13.5359 21.9034C13.567 21.8417 13.6291 21.9034 13.6601 21.9034C13.6291 22.119 13.7533 22.4887 13.9085 22.766H13.7843C13.9706 23.2897 14.25 23.8442 14.4984 24.3988C14.4673 24.1831 14.6846 24.1215 14.7778 24.3064L14.6225 24.4604C14.7778 24.522 14.6225 24.2447 14.8399 24.4296C14.902 24.6452 14.7157 24.6452 14.5915 24.5528L14.7467 24.7993C14.7157 24.8301 14.6536 24.7993 14.5915 24.7993C14.7467 24.8609 14.6225 25.323 14.8709 25.3846L14.8399 25.4154C15.0882 26.0008 15.2745 26.2164 15.4918 26.6477C15.6471 26.5861 15.7091 26.771 15.8954 26.8634C16.0196 27.2023 16.0817 27.6336 16.299 28.0341C16.5163 28.2805 16.4542 28.0649 16.6095 28.1265C16.4853 28.2189 16.7026 28.6194 16.4853 28.4654C16.7647 28.9275 16.8268 29.0507 17.2614 29.6053C17.2925 29.5129 17.2614 29.4204 17.3235 29.4512C17.4167 29.5437 17.3856 29.7285 17.3235 29.7593L17.2925 29.7285C17.8513 30.283 17.7271 31.4845 18.2859 31.8542L18.2549 31.8234L18.6895 32.2855C18.8137 32.5628 18.5033 32.1931 18.5343 32.4088C19.0931 32.8709 19 33.3638 19.4346 33.7643C19.2173 34.3497 20.1797 35.089 20.1797 35.736L20.2729 35.6436C20.4281 35.736 20.3039 35.8284 20.335 35.9517C20.3971 35.89 20.366 35.7668 20.4591 35.8284C21.1422 36.8759 21.4526 38.2006 21.8562 39.4021C22.0114 39.8334 22.4771 39.4329 22.4771 40.0799L22.2288 39.9875C22.5082 40.388 22.6944 40.8193 22.8807 41.2814C23.0359 41.7435 23.1912 42.1748 23.4395 42.5753C23.3774 42.5445 23.3154 42.5445 23.2843 42.4829C23.2222 42.6985 23.5016 43.1606 23.6258 43.1298C23.6569 43.2839 23.5327 43.1915 23.5016 43.2839C23.4706 43.4995 23.8431 43.6844 23.719 43.8384C23.6879 43.8692 23.6569 43.8076 23.6258 43.7768C23.719 43.8692 23.781 44.3313 23.9052 44.1773C23.9363 44.5162 24.1536 44.7935 24.1536 45.0707C24.3709 45.194 24.2157 45.6561 24.4951 45.6561C24.3709 45.6869 24.3399 45.8409 24.402 46.0258C24.433 46.2106 24.5261 46.3955 24.6193 46.4879C24.5261 46.4263 24.5882 46.7035 24.4641 46.6419C24.5261 46.8884 24.6193 47.104 24.7435 47.0116C24.6503 47.2581 24.7435 47.4737 24.8366 47.6586C24.9297 47.8434 24.9918 48.0283 24.8056 48.1823C24.9297 48.5212 25.0539 48.8601 25.1471 49.1989C25.2402 49.5378 25.3023 49.8767 25.3644 50.1848C25.116 50.1848 25.2712 49.4454 24.9918 49.507C25.1471 50.1232 25.4265 50.4621 25.3954 51.0782C25.3644 51.2323 25.2712 50.9858 25.2402 50.955C25.3644 51.5711 25.2712 52.1565 25.4265 52.711C25.3954 52.711 25.3954 52.6494 25.3644 52.5878C25.3644 52.711 25.3333 52.8343 25.4265 52.8343L25.3954 52.7418C25.5507 52.557 25.7059 53.1731 25.799 53.2039C25.4886 53.0191 25.7059 53.7585 25.3333 53.4504C25.3644 53.512 25.3954 53.6044 25.4575 53.6044C25.4265 53.6969 25.3954 53.7277 25.3023 53.6353C25.3333 54.0358 25.4886 53.9125 25.4575 54.2514C25.3954 54.2514 25.3954 54.159 25.3333 54.1282C25.4265 54.313 25.4886 54.4979 25.4265 54.8059C25.3954 54.7751 25.3644 54.8059 25.3644 54.7135C25.3333 54.96 25.3954 55.2064 25.3954 55.4221C25.3954 55.5453 25.4265 55.6686 25.4265 55.7918C25.4265 55.915 25.3954 56.0382 25.3333 56.1923C25.1471 55.9766 25.2402 56.3771 25.0539 56.3771V56.6852L25.1781 56.5928C25.116 56.8701 25.2091 57.1165 25.116 57.3322L25.085 57.1165C25.0539 57.2706 25.0539 57.4554 24.9918 57.6094C25.0229 57.517 25.085 57.4246 25.116 57.363C25.1471 57.6402 25.3333 57.3938 25.2091 57.7327C25.2091 57.6711 25.116 57.9791 24.9918 58.1024C25.0229 58.2564 25.0229 58.4104 24.9297 58.5645C24.8676 58.5953 24.7745 58.4721 24.7124 58.5029C24.8056 58.6877 24.5882 59.119 24.6503 59.3347C24.6503 59.2731 24.5572 59.2422 24.5261 59.2422L24.5882 59.3963C24.4951 59.4887 24.4951 59.5195 24.433 59.4579C24.2778 59.7968 24.6814 59.4271 24.433 59.7968C24.433 59.766 24.402 59.766 24.433 59.7044C24.2157 60.1049 24.1846 60.5362 23.9673 60.9059C23.781 60.9367 24.0915 60.567 23.9052 60.6286C23.781 60.9059 23.6879 61.1831 23.5948 61.4912C23.4706 61.7685 23.3464 62.0457 23.1912 62.2922L23.2533 62.1998C23.3154 62.2922 23.2533 62.3538 23.1601 62.4771C23.067 62.5695 22.9118 62.6927 22.8807 62.8159C22.9118 62.7543 22.8497 62.6619 22.8497 62.6927C22.7255 62.8467 22.6323 63.0316 22.5392 63.2472C22.4461 63.4629 22.3219 63.6786 22.1667 63.925V63.8326C22.0114 63.9866 21.7941 64.3255 21.6078 64.5104C21.6078 64.6028 21.5147 64.6952 21.6078 64.6644C20.9248 65.1265 20.7696 65.8967 20.1487 66.2664C20.2108 66.2048 20.2418 66.1124 20.2108 66.1432C20.0866 66.2972 19.9624 66.4512 19.8382 66.6053C19.9314 66.6053 19.9314 66.5745 20.0556 66.5129C20.0245 66.6053 19.9314 66.7285 19.8382 66.8517C19.9935 66.6361 19.7761 66.7901 19.652 66.8517C19.683 66.8517 19.652 66.8825 19.683 66.9134C19.3725 67.0674 19.7451 67.0366 19.3725 67.283V67.2522C19.2794 67.3755 19.1863 67.4987 19.0621 67.6219C18.969 67.6219 19.1552 67.4987 19.1242 67.4371C18.969 67.5911 18.8758 67.8376 18.6585 67.9608C18.7206 67.8684 18.8137 67.776 18.8758 67.6835C18.6585 67.776 18.6585 67.8376 18.5033 67.93C18.4101 68.0224 18.2859 68.1149 18.1928 68.1765L18.2859 68.1149C18.1618 68.4229 17.8513 68.5462 17.6029 68.885C17.8513 68.5462 17.6029 68.7926 17.6029 68.731C17.5098 68.7926 17.3856 68.885 17.4167 68.8234C17.2925 68.9775 17.1373 69.0083 16.982 69.2239C16.951 69.2239 16.8268 69.3472 16.8268 69.2855C16.6405 69.4704 16.8889 69.2855 16.8889 69.3164C16.6405 69.5936 16.1438 69.8401 15.7712 70.2406C15.3987 70.5487 15.3676 70.6411 15.0261 70.9184C14.902 70.98 15.0882 70.8259 15.0882 70.8259C14.8709 70.9492 14.7467 71.0724 14.5605 71.1956C14.5915 71.1648 14.5605 71.1956 14.4984 71.2264C14.3431 71.3497 14.4052 71.3188 14.219 71.4421C14.25 71.4113 14.281 71.3805 14.3431 71.3189C14.1879 71.4421 14.0016 71.5961 13.8464 71.7194C13.7843 71.7502 13.9395 71.6269 14.0016 71.5653C13.8154 71.7194 13.4739 71.9658 13.4428 71.9966L13.567 71.9042C13.5049 71.9658 13.5359 71.935 13.567 71.8734C13.7222 71.7502 13.8154 71.6885 13.8464 71.6885L13.7222 71.781C13.8775 71.7194 14.25 71.4113 14.4984 71.2264L14.4052 71.3189L14.6536 71.1032C14.7157 71.0724 14.7778 71.0724 14.6536 71.1648C14.8399 71.0416 14.8088 71.0416 14.9951 70.9492C15.0261 70.9492 14.9951 70.9492 14.9951 70.9492L15.1814 70.7951C15.1503 70.8259 15.2435 70.7951 15.1193 70.8876C15.4608 70.6719 15.616 70.487 15.7712 70.4254L15.7402 70.4562C16.1748 70.1174 15.7712 70.3946 16.0507 70.0865L16.3301 69.9941V69.9325C16.3611 69.9017 16.4542 69.8401 16.4542 69.8709C16.6095 69.7169 16.4232 69.8709 16.4853 69.7785C16.7337 69.6552 17.0752 69.2855 17.1683 69.3164C17.2304 69.2239 16.951 69.4704 17.1373 69.2547C17.2614 69.2855 17.3856 69.0391 17.6029 68.9159C17.5719 69.0083 17.3856 69.1315 17.6029 69.0083C17.665 68.8542 18.0065 68.7002 18.1307 68.5462C18.0997 68.4846 18.4722 68.2381 18.7206 67.9608C18.7206 67.9916 19.2484 67.5603 19.5278 67.3447V67.3755C19.4967 67.2522 19.7761 67.0366 19.9314 66.8517C19.9624 66.9134 19.9624 66.9442 19.8693 67.0674L20.0245 66.9134C20.0556 66.8517 20.0866 66.7901 20.1797 66.6669V66.7593C20.3971 66.5437 20.5523 66.2356 20.8627 65.9891C20.8317 65.9275 20.4902 66.0816 20.7386 65.7427C20.7696 65.7735 20.8317 65.8043 20.8007 65.8967C20.8317 65.8659 20.8627 65.7735 20.9248 65.7427L20.8627 65.9275C21.018 65.8043 20.8938 65.8043 20.9869 65.7119C21.018 65.7427 21.0801 65.6502 21.1111 65.7119C21.0801 65.7427 21.018 65.8043 20.9869 65.8351C21.1111 65.7119 21.2663 65.5886 21.3595 65.5886C21.3284 65.5886 21.2974 65.527 21.3595 65.4346C21.5768 65.1881 21.4837 65.4038 21.6389 65.2805C21.6389 65.1881 21.8252 65.0649 21.732 65.0033C21.7941 64.9417 21.8252 64.9417 21.8873 64.9417C21.9493 64.7876 22.3529 64.3563 22.1667 64.4179L22.1356 64.4487C22.1356 64.4487 22.1356 64.4487 22.1356 64.4179C22.3529 63.925 22.8497 63.5553 23.098 63.0932L23.1291 63.124C23.1912 62.97 23.2843 62.8159 23.3774 62.6927C23.4395 62.5387 23.5016 62.4154 23.5327 62.2922C23.5637 62.1998 23.719 62.1382 23.719 62.1998C23.8121 61.9841 23.781 61.9225 24.0294 61.6452C23.9673 61.8917 24.1225 61.6144 23.9673 61.8917C24.1536 61.6452 24.2467 61.5836 24.2778 61.2447C24.3088 61.3988 24.4951 61.0907 24.5572 60.9367L24.402 61.0907C24.464 60.9367 24.5572 60.8134 24.6193 60.6594L24.7124 60.7826C25.1471 60.2589 24.8676 59.5811 25.3644 59.2422C25.3333 59.0574 25.1471 59.5503 25.116 59.3655C25.1781 59.2422 25.3023 59.119 25.3644 58.9958C25.4575 58.9034 25.5507 58.8109 25.5507 58.7801C25.768 58.4104 25.4575 58.3488 25.6438 57.9483C25.5817 57.9791 25.4265 58.0099 25.4575 57.6711C25.5817 57.3938 25.768 57.363 25.768 57.5786C25.7369 57.6402 25.7369 57.6711 25.7059 57.6711C25.7059 57.7635 25.6748 57.8867 25.768 57.7943L25.7369 57.7327C25.8611 57.6094 25.9232 57.2089 25.9853 57.3322C25.9853 57.0857 25.9232 57.2089 25.8611 57.363C26.0163 56.9933 25.9853 56.7776 26.1405 56.4079C26.1095 56.4696 26.0163 56.5004 26.0163 56.4388C26.2026 55.8842 25.9542 56.1615 26.0163 55.7918C26.1405 55.5761 26.2337 55.915 26.2026 55.5145C26.2957 55.2989 26.3578 55.4837 26.3889 55.5761C26.3268 55.2064 26.5441 54.9292 26.6062 54.7135L26.6373 54.8984C26.6373 54.7751 26.6373 54.6827 26.6373 54.5903L26.5131 54.6827C26.5441 54.5595 26.5752 54.4671 26.6062 54.4979C26.5441 54.3746 26.3889 54.5595 26.3268 54.3438C26.4199 54.1898 26.2957 53.8817 26.451 53.8509C26.3578 54.313 26.6062 53.8201 26.6373 54.2206C26.6373 54.1282 26.6373 54.0358 26.6683 53.9433C26.6993 53.9125 26.6993 53.9741 26.6993 54.0049C26.8856 53.5736 26.5131 53.7893 26.5441 53.3272C26.6373 53.3888 26.7304 53.2348 26.6993 53.1423C26.6993 53.3272 26.5441 53.2348 26.482 53.0499C26.5752 52.7418 26.451 52.7418 26.451 52.5878L26.4199 52.7726C26.3268 52.711 26.3578 52.557 26.2957 52.3721C26.3578 52.3413 26.3578 52.557 26.3889 52.4954C26.2026 52.2797 26.5441 51.9716 26.4199 51.6636C26.482 51.5095 26.6062 51.6328 26.6373 51.5095C26.5131 51.1706 26.7614 51.109 26.6373 50.7393C26.5131 50.8626 26.5441 50.8626 26.3889 50.6161L26.451 50.9242L26.5131 51.2323C26.451 51.109 26.3889 50.9858 26.2957 50.8626C26.2957 51.0474 26.3889 51.2631 26.3889 51.3555C26.2647 51.1706 26.2957 51.2015 26.2026 51.2939C26.3889 51.0166 26.0784 50.8009 26.1716 50.4929L26.5131 50.4621C26.6062 50 26.2957 49.6919 26.2957 49.1065C26.2957 49.1681 26.2647 49.2298 26.2647 49.2914C26.1405 49.2298 26.2026 48.9525 26.1095 48.7676C26.2337 48.7676 26.2337 48.6444 26.2957 48.552C26.2026 48.5828 26.2337 48.1207 26.0163 48.1207L26.1405 47.8434C26.1405 47.3813 25.7369 47.3813 25.6748 46.95C25.8301 47.0424 25.8611 46.8268 26.0163 47.104C25.9853 46.95 25.9853 46.8268 25.8922 46.8268C25.9542 46.7343 25.6438 46.4571 25.7369 46.303C25.6748 46.2414 25.5506 46.2722 25.5196 46.0874C25.5506 46.0566 25.5817 46.0874 25.5817 46.0874C25.5196 46.0874 25.4575 45.8409 25.3644 46.0258C25.6127 45.502 25.0229 44.8243 25.2402 44.3313C25.116 44.0233 24.9608 43.6844 24.8676 43.4071C24.8987 43.4071 24.9297 43.3763 24.9297 43.4379C24.9297 43.0066 24.5261 43.3147 24.4951 42.8218C24.6193 42.5445 24.6814 43.0066 24.6814 42.8526C25.0229 42.6677 24.464 42.3288 24.5882 41.99L24.6503 42.0516C24.7124 41.7743 24.3088 41.5587 24.2157 41.189C24.2157 41.189 24.2467 41.189 24.2778 41.1582C23.9984 40.9733 23.75 40.542 23.5637 40.2031C23.75 40.2647 23.6879 40.3263 23.8121 40.2031C23.719 40.0491 23.5948 40.3263 23.4395 40.0491C23.4706 39.9258 23.4706 39.6794 23.5948 39.587L23.719 39.8642C23.8742 39.6486 23.5637 39.4945 23.5327 39.3097L23.6258 39.2789C23.4085 38.8476 23.1912 38.94 23.0049 38.4471L22.9739 38.5395C22.6324 38.3855 23.0049 38.2622 22.7255 38.0774L22.9118 37.8925C22.7876 37.7385 22.4461 37.3996 22.2598 37.1223C22.5082 37.2148 22.7565 37.5228 22.9428 37.7077C22.8807 37.5228 22.6634 37.1532 22.5082 37.1223C22.5703 37.184 22.6634 37.2456 22.6634 37.3072C22.384 37.184 22.1667 36.9683 22.0114 36.6294C22.4771 36.4754 21.701 35.7052 21.9183 35.3355C21.4526 34.8426 21.3905 34.1648 21.018 33.487C20.8317 33.8875 20.8938 33.3022 20.5833 33.5179C20.4902 33.3638 20.4591 33.3022 20.4591 33.3022L20.3971 32.7169C20.4281 32.5628 20.5523 32.8093 20.6144 32.7785C20.4591 32.4396 20.6765 32.5628 20.6454 32.2855C20.5523 32.4088 20.3971 32.2547 20.335 32.0391V32.378C19.9003 32.0083 20.3971 31.8234 19.9624 31.4537L20.1487 31.5462C19.9624 31.3305 19.652 30.6527 19.2484 30.5603C19.2484 30.4987 19.3105 30.4063 19.4036 30.4987C19.1242 29.9134 18.4101 29.3588 18.317 28.8351H18.4101C18.317 28.7427 18.1618 28.7119 18.1618 28.5578C18.1928 28.5578 18.2549 28.5578 18.2549 28.4962C18.1928 28.4654 17.9755 28.2805 17.9444 28.1265L18.0997 28.1881C17.8824 27.572 17.4167 27.4487 17.1062 26.9866C17.3546 26.8634 17.1993 26.4013 17.1062 26.1548H17.1373C16.8268 25.4771 16.3922 25.1074 15.9886 24.5528C16.0507 24.0599 15.4918 23.1973 15.3676 22.5195C15.3676 22.6427 15.1814 22.5811 15.1193 22.4579C15.1193 22.3039 14.8088 22.0882 15.0261 22.0574L15.0572 22.119C15.2124 21.9342 15.0572 21.6569 14.9641 21.4104L14.5915 21.3488C14.6846 20.9483 14.4984 20.5786 14.3431 20.2089C14.1879 19.8392 14.0327 19.5004 14.1569 19.2847C14.0327 19.1615 14.0016 18.9458 13.8775 18.8226L14.0327 18.7918C13.9395 18.3605 13.9395 18.1448 13.7533 17.6211L13.8775 17.7135C13.8154 17.4054 13.3807 17.4054 13.3497 17.1282L13.5359 17.0049C13.4428 16.4812 13.5359 15.8959 13.2876 15.4029C13.3186 15.4029 13.3807 15.4338 13.3807 15.4954C13.3497 15.2489 13.4118 14.5095 13.1634 14.6019C13.3186 14.6019 13.1634 14.0474 13.0703 13.7393L13.1944 13.7701C13.0392 13.5237 12.9771 13.5237 12.9461 13.154C12.9771 13.0616 13.0392 13.0924 13.0082 13.1848C13.0703 12.9075 12.884 12.9691 12.9771 12.6303L13.0392 12.7535C13.0392 12.4762 13.0082 12.507 12.915 12.3222C12.884 12.1373 12.9771 11.7985 13.1013 11.7676C13.0392 11.7368 12.9771 11.552 13.0082 11.398C13.0392 11.3671 13.0703 11.4288 13.0703 11.4596C13.1944 10.9975 13.0392 10.751 13.1944 10.4429C13.2255 10.4429 13.2565 10.4121 13.2565 10.4121C13.1944 10.7818 13.1634 11.0899 13.1634 11.0591C13.2565 11.0591 13.3186 10.7818 13.4428 11.0283C13.4118 10.7818 13.2876 10.3505 13.3807 10.0732L13.4118 10.0424V10.0732C13.4428 10.0116 13.4428 9.94999 13.4428 9.88837C13.4739 9.79595 13.5049 9.73434 13.5049 9.64191C13.598 9.61111 13.598 9.30303 13.6601 9.1798C13.567 9.1798 13.6291 8.99495 13.5049 9.14899C13.5049 9.11818 13.5049 9.1798 13.4739 9.27222C13.4739 9.30303 13.4739 9.33384 13.4739 9.33384C13.4428 9.42626 13.4428 9.54949 13.4118 9.70353C13.3807 9.5803 13.3497 9.42626 13.4428 9.30303C13.4118 9.21061 13.3497 9.11818 13.3497 9.05657C13.5359 8.90253 13.7222 8.53284 13.8154 8.50203C13.8464 8.28638 13.9395 8.00911 14.0016 7.76265C14.0637 7.51619 14.0948 7.30053 14.0948 7.11569C14.1258 6.99246 14.1879 6.99246 14.25 6.96165C14.25 7.02326 14.1879 7.11569 14.219 7.1773C14.281 6.93084 14.4984 6.43792 14.4363 6.34549C14.6225 6.06822 14.4363 6.56115 14.6225 6.12984V6.19146C14.7778 6.00661 14.8709 5.82176 14.933 5.66773C15.0261 5.48288 15.0882 5.32884 15.1503 5.144C15.2124 4.95915 15.3056 4.7743 15.4297 4.62026C15.5539 4.43542 15.6781 4.28138 15.8644 4.09653C15.8023 4.15815 15.8023 4.15815 15.7712 4.15815C16.1438 3.72684 16.5163 3.26473 16.9199 2.86423C17.3235 2.46373 17.7892 2.06323 18.2549 1.78596C18.5343 1.60111 18.5343 1.57031 18.6895 1.44708H18.7827C18.8758 1.38546 18.969 1.29304 19.031 1.23142C19.2173 1.10819 19.4346 1.01577 19.6209 0.923345C19.8382 0.830922 20.0556 0.738499 20.3039 0.615269H20.2108C20.3971 0.522846 20.8627 0.368807 20.8317 0.399615C20.8627 0.399615 20.8938 0.368807 20.9869 0.338C21.1422 0.276384 21.3284 0.214769 21.4837 0.183961C21.8873 0.0915383 21.4216 0.214769 22.0114 0.0607307C22.2288 -0.000884674 22.6323 -0.0625 22.5703 -0.0625C22.4771 -0.0316923 22.3529 -0.0316923 22.3219 -0.0316923L22.5703 -0.000884674C22.6013 -0.000884674 22.7565 -0.0316923 22.2598 0.029923C22.1356 0.029923 22.0114 0.0607307 21.9183 0.0915383H21.7941L22.0735 0.029923C21.9183 0.0607307 21.7941 0.0607307 21.6699 0.0915383C21.6389 0.0915383 21.5768 0.0915383 21.5147 0.122346L21.1732 0.214769C21.1422 0.214769 21.3284 0.153154 21.0801 0.214769C20.9248 0.276384 21.2353 0.183961 20.9869 0.276384C20.8317 0.307192 20.8627 0.276384 20.6765 0.368807C20.6454 0.368807 20.6765 0.338 20.7696 0.338C20.6144 0.399615 20.335 0.492038 20.2418 0.522846C20.0556 0.553653 19.683 0.738499 19.683 0.707692C19.6209 0.738499 19.4036 0.86173 19.2794 0.954153C19.5278 0.769307 18.7206 1.23142 18.7516 1.139C18.6274 1.26223 18.0997 1.5395 17.8203 1.78596C17.8203 1.75515 17.8513 1.72434 17.8824 1.72434C17.6961 1.84757 17.634 1.84758 17.5098 1.94C17.5408 2.00161 17.2614 2.21727 17.1373 2.37131C16.8889 2.49454 17.1993 2.18646 17.1062 2.21727C17.1373 2.24807 16.7958 2.55615 16.8889 2.55615C16.7026 2.64857 16.7337 2.64857 16.6095 2.67938C16.6405 2.7718 16.4853 2.83342 16.3922 2.98746C16.1438 3.1723 16.268 2.98746 16.0507 3.23392C15.9265 3.29554 16.1127 3.04907 16.1127 3.04907ZM12.7288 10.0424C12.7288 9.9808 12.7598 9.91918 12.7598 9.88837C12.7598 9.91918 12.7598 9.9808 12.7288 10.0424ZM12.6356 10.6894C12.6667 10.597 12.6667 10.5045 12.6977 10.4121C12.7288 10.3813 12.7598 10.4121 12.7598 10.5045C12.7288 10.4429 12.6667 10.597 12.6356 10.6894ZM13.598 9.48787C13.598 9.5803 13.567 9.61111 13.5359 9.61111C13.5359 9.54949 13.5359 9.51868 13.567 9.42626C13.598 9.45707 13.598 9.48787 13.598 9.48787Z" fill="#202020"/>
<path d="M13.5049 9.30376V9.27295C13.5049 9.30376 13.4738 9.30376 13.4738 9.33456L13.5049 9.36537C13.5049 9.33456 13.5049 9.30376 13.5049 9.30376Z" fill="#202020"/>
<path d="M12.915 19.7485L12.9461 19.7173L12.884 19.686L12.915 19.7485Z" fill="#202020"/>
<path d="M19.5899 66.7603C19.5899 66.7603 19.5588 66.7603 19.5278 66.7915C19.5278 66.7915 19.5588 66.7603 19.5899 66.7603Z" fill="#202020"/>
<path d="M18.4722 67.8076L18.2859 67.9308C18.3791 67.9 18.4412 67.8384 18.4722 67.8076Z" fill="#202020"/>
<path d="M25.3644 52.5269C25.3644 52.4961 25.3644 52.4961 25.3644 52.4961C25.3333 52.4037 25.3333 52.4653 25.3644 52.5269Z" fill="#202020"/>
<path d="M24.9608 58.0108C24.9608 57.9492 24.9608 57.8875 24.9608 57.8259C24.8987 57.8875 24.8987 57.98 24.9608 58.0108Z" fill="#202020"/>
<path d="M25.0229 57.5793C24.9608 57.6718 24.9608 57.7334 24.9608 57.8258C24.9918 57.7334 25.0229 57.641 25.0229 57.5793Z" fill="#202020"/>
<path d="M13.567 71.751L13.5359 71.7818L13.567 71.751Z" fill="#202020"/>
<path d="M13.5049 71.8125L13.4428 71.8437C13.4739 71.8125 13.5049 71.8125 13.5049 71.8125Z" fill="#202020"/>
<path d="M13.3497 71.9359L13.4428 71.8435C13.4118 71.8743 13.3807 71.9051 13.3497 71.9359Z" fill="#202020"/>
<path d="M15.1814 70.5496C15.0882 70.6112 14.933 70.7036 14.8088 70.796V70.8268C14.8709 70.7652 15.1193 70.6112 15.1814 70.5496Z" fill="#202020"/>
<path d="M16.8889 69.4712L16.5474 69.7177C16.6095 69.6868 16.7026 69.656 16.5474 69.7793C17.0131 69.502 16.4542 69.7793 16.8889 69.4712Z" fill="#202020"/>
<path d="M17.8824 68.7011C17.7271 68.8552 17.9134 68.732 17.9134 68.732C17.9755 68.6395 18.0065 68.6395 17.8824 68.7011Z" fill="#202020"/>
<path d="M23.781 61.985L23.8742 62.0466C23.9363 61.8926 23.8431 62.0158 23.781 61.985Z" fill="#202020"/>
<path d="M24.0605 60.229L23.9363 60.3214L23.9984 60.4447L24.0605 60.229Z" fill="#202020"/>
<path d="M25.1781 59.5821V59.6437L25.2402 59.3665L25.1781 59.5821Z" fill="#202020"/>
<path d="M25.3954 44.5171L25.2402 44.6095C25.3023 44.7019 25.5196 44.6711 25.3954 44.5171Z" fill="#202020"/>
<path d="M23.0359 38.4171C23.098 38.3246 23.067 38.109 22.9428 38.0474C22.9739 38.2014 22.9739 38.3554 23.0359 38.4171Z" fill="#202020"/>
<path d="M14.6846 20.9799L14.8088 21.0723L14.6846 20.8567V20.9799Z" fill="#202020"/>
<path d="M0.0310504 50.6168C-0.0310411 50.5244 4.65882e-06 50.586 0.155233 50.8016L0.248371 50.9557L0.0310504 50.6168Z" fill="#202020"/>
<path d="M0.931392 52.1263C1.08662 52.3727 1.30394 52.6808 1.2108 52.496C1.05557 52.2495 1.02453 52.1879 0.838254 51.9106C0.714071 51.695 0.589888 51.5101 0.620934 51.5717C0.558843 51.4793 0.403614 51.2328 0.341522 51.1096C0.496751 51.3869 0.714071 51.7566 0.931392 52.1263C0.993483 52.2187 0.931392 52.1571 0.931392 52.1263Z" fill="#202020"/>
<path d="M14.9951 73.4762C14.933 73.4454 14.902 73.4146 14.8399 73.353C14.8709 73.3838 14.933 73.4146 14.9951 73.4762Z" fill="#202020"/>
<path d="M27.1961 63.5869C27.103 63.6793 27.103 63.7101 27.103 63.7409C27.1651 63.6485 27.2271 63.556 27.1961 63.5869Z" fill="#202020"/>
<path d="M29.214 61.7693C29.183 61.8001 29.1209 61.8309 29.0898 61.8617C29.1519 61.8309 29.214 61.8001 29.214 61.7693Z" fill="#202020"/>
<path d="M14.9951 73.4761C15.1193 73.5685 15.2745 73.6301 15.4608 73.6609C15.4918 73.6301 15.1814 73.5993 14.9951 73.4761Z" fill="#202020"/>
<path d="M2.82517 55.084C2.76308 55.0224 2.73203 54.9608 2.70099 54.8992C2.73203 54.9608 2.76308 55.0224 2.82517 55.084Z" fill="#202020"/>
<path d="M10.7729 67.8384L10.7108 67.7459C10.6797 67.7151 10.6487 67.6843 10.6176 67.6843L10.7729 67.8384Z" fill="#202020"/>
<path d="M7.82355 63.3712C7.88564 63.4636 7.94773 63.4636 8.00982 63.4944C7.94773 63.4636 7.88564 63.3712 7.82355 63.3096C7.82355 63.3096 7.82355 63.3404 7.82355 63.3712Z" fill="#202020"/>
<path d="M3.384 56.1623L3.29086 56.0391C3.32191 56.0699 3.35295 56.1315 3.384 56.1623Z" fill="#202020"/>
<path d="M12.915 71.0115C12.915 71.0115 12.915 71.0427 12.915 71.0739C12.9461 71.0739 12.9461 71.0427 12.915 71.0115Z" fill="#202020"/>
<path d="M11.0212 61.4005C11.0531 61.4005 11.0212 61.4005 11.0212 61.4005C11.0212 61.3685 11.0212 61.3685 11.0212 61.4005Z" fill="#202020"/>
<path d="M8.04086 55.9775L8.07191 56.0392L8.10295 56.07L8.04086 55.9775Z" fill="#202020"/>
<path d="M32.7533 58.2571C32.7533 58.2571 32.7222 58.2571 32.7533 58.2571C32.6601 58.382 32.6912 58.3195 32.7533 58.2571Z" fill="#202020"/>
<path d="M11.1765 59.5819C11.3006 60.1056 10.5866 58.9658 10.835 59.7051C10.866 59.6127 11.4248 60.1673 11.1765 59.5819Z" fill="#202020"/>
<path d="M2.88727 55.2073C2.91831 55.2689 2.98041 55.3305 3.01145 55.3921C2.94936 55.2997 2.91831 55.2689 2.88727 55.2073Z" fill="#202020"/>
<path d="M10.835 59.7051L10.866 59.7975C10.835 59.7667 10.835 59.7359 10.835 59.7051Z" fill="#202020"/>
<path d="M34.7712 53.2976C34.8023 53.2976 34.8644 53.2976 34.8954 53.2664C34.8954 53.2664 34.8644 53.2664 34.7712 53.2976Z" fill="#202020"/>
<path d="M34.4608 55.885L34.616 55.731C34.5539 55.7926 34.4918 55.8234 34.4608 55.885Z" fill="#202020"/>
<path d="M31.8219 56.5935C31.7288 56.6551 31.6977 56.6859 31.6046 56.8092C31.6356 56.8092 31.6356 56.8092 31.6667 56.7784C31.6667 56.7167 31.7288 56.6551 31.8219 56.5935Z" fill="#202020"/>
<path d="M28.5931 59.8283C28.6242 59.8283 28.6552 59.7975 28.6863 59.7975C28.7173 59.7667 28.7484 59.7359 28.7794 59.6743L28.5931 59.8283Z" fill="#202020"/>
<path d="M19.3415 71.4429C19.3726 71.5353 19.3726 71.5969 19.3726 71.6585C19.4036 71.5969 19.7451 72.1823 19.3415 71.4429Z" fill="#202020"/>
<path d="M2.82516 55.1149C2.85621 55.1457 2.85621 55.1765 2.9183 55.2381C2.85621 55.1765 2.85621 55.1149 2.82516 55.1149C2.79412 55.0841 2.79412 55.0841 2.82516 55.1149Z" fill="#202020"/>
<path d="M32.6291 57.6104L32.1013 58.1033C32.2565 57.98 32.4428 57.7952 32.6291 57.6104Z" fill="#202020"/>
<path d="M8.35132 59.9824L8.25818 59.8284C8.28922 59.89 8.32027 59.9516 8.35132 59.9824Z" fill="#202020"/>
<path d="M30.6111 59.6743C30.4869 59.7359 30.3627 59.7975 30.2386 59.89C30.2386 59.9208 30.2075 59.9516 30.2075 59.9824L30.6111 59.6743Z" fill="#202020"/>
<path d="M16.0507 68.7934C16.4853 69.3479 16.3301 69.009 16.4543 69.1015C16.982 69.7484 16.6405 69.4403 16.7958 69.6868C17.1373 70.0873 17.4477 70.3338 17.6961 70.6418C17.6961 70.6727 17.7582 70.7343 17.665 70.6727C18.0376 71.0115 18.6275 71.7817 19.0931 72.213L20.7696 73.7534L19.4967 71.9358C19.4657 71.8742 19.4346 71.8433 19.4036 71.8125C19.4036 71.7817 19.3726 71.7509 19.3726 71.7201C19.3726 71.8433 19.3415 71.8742 19.3105 71.8742C19.1552 71.5969 18.969 71.412 18.969 71.258C19.0621 71.412 19.0931 71.412 19.1552 71.5045L18.969 71.2272C18.9069 70.9191 19.2173 71.5969 19.2794 71.5661C18.9379 71.0115 18.5033 70.4262 18.286 69.9949C18.317 69.8408 18.8758 70.9807 18.6275 70.3646L18.969 71.0423C18.8137 70.457 19.1863 71.4428 19.0621 70.9191C18.5964 70.0257 18.4722 69.9641 18.0065 69.1015C17.8513 68.9474 17.9755 69.1939 17.8203 69.0399C17.0131 67.8692 17.5098 67.9308 16.8578 67.1298C16.6716 66.9449 16.4853 66.9141 16.1748 66.2364L16.4232 66.3904C15.9575 65.5586 15.9886 66.0207 15.5539 65.0965C15.6781 65.2197 15.9886 65.7126 15.9265 65.5894C15.6781 64.9732 15.616 65.2197 15.3677 64.8192L15.4297 64.6652C14.902 63.8025 14.219 62.8783 13.598 61.9233C13.6601 61.9541 13.8154 62.1081 13.6912 61.8617C12.884 60.691 12.0768 59.2738 11.3938 58.0723L10.9902 57.7026C10.9281 57.6102 10.9281 57.487 11.0212 57.5794C10.7729 57.1173 10.9281 57.6102 10.7418 57.4254C10.5556 57.1789 10.5866 57.0557 10.7108 57.1789C10.4003 56.8092 9.99674 56.2855 9.56209 55.7309C9.12745 55.1456 8.84804 54.7451 8.35131 53.8517L8.56863 54.0673C8.19608 53.482 7.97876 53.2663 7.79249 53.1123C7.60621 52.9583 7.48203 52.8658 7.10948 52.2497L7.20262 52.3729C6.92321 51.9416 6.6438 51.5411 6.33334 51.1098C6.02288 50.6785 5.74347 50.2472 5.43301 49.8467L5.40196 50.0315C5.40196 50.0315 5.40196 50.0931 5.40196 50.1239L5.43301 50.2472L5.4951 50.4936C5.55719 50.8325 5.61928 51.1714 5.68138 51.4795C5.74347 51.7876 5.77451 52.0648 5.80556 52.3113C5.83661 52.5886 5.86765 52.835 5.8987 53.0815C6.08497 53.4204 6.17811 53.9441 6.30229 54.4986C6.45752 55.0532 6.61275 55.6385 6.79902 55.6693C6.83007 55.8234 6.83007 55.9158 6.86112 56.039C6.86112 56.1314 6.89216 56.1931 6.89216 56.2547C6.92321 56.3779 6.92321 56.5011 6.92321 56.5936C6.95425 56.8092 7.01634 57.0865 7.23366 57.7642C7.35785 58.1031 7.63726 58.1956 7.82353 58.5961L7.6683 58.6577C7.79249 58.8117 7.94772 58.9966 8.0719 59.1506L8.04085 59.5203L8.25817 59.89C8.19608 59.7359 8.16504 59.5203 8.22713 59.5203C8.4134 59.7976 8.56863 60.1672 8.69281 60.4753C8.817 60.7834 8.84804 61.0299 8.817 61.0607C9.12746 61.492 9.43791 61.9233 9.74837 62.3546C9.68628 62.3546 9.5 62.1389 9.34478 61.9849C9.93464 62.601 9.28268 62.2006 9.84151 62.7859C9.81046 62.6627 9.96569 62.7859 9.99674 62.7859C10.1209 63.1556 10.6177 63.895 11.0523 64.3879L10.8971 64.3571C11.5801 65.3121 12.5114 66.2672 13.4428 67.2222C13.1634 66.8525 13.3807 66.7909 13.6601 67.0374L13.6291 67.253L13.5049 68.5777L14.6846 66.606V66.5752C14.5915 66.4828 14.5915 66.5444 14.6226 66.606L14.8088 69.2863L13.6912 67.1914C13.6601 67.1298 13.6291 67.0682 13.7533 67.1298L16.1748 68.3313L14.5294 66.6369C14.4984 66.606 14.4673 66.5752 14.4363 66.5444C14.2811 66.0823 14.5294 66.1747 14.6846 66.4212L14.4363 65.8975C14.4673 65.8359 14.5605 65.9591 14.6226 65.9899C14.4363 65.805 14.4363 64.9732 14.1258 64.696L14.1569 64.6344C13.6912 63.402 13.3807 62.9091 12.9461 61.9233C12.7909 61.9849 12.6356 61.5844 12.3873 61.3379C12.1078 60.5986 11.8284 59.7667 11.3938 58.9349C11.0212 58.3804 11.1765 58.8425 10.9592 58.6269C11.0833 58.5036 10.6177 57.7026 10.9281 58.0723C10.3693 57.0865 10.2141 56.8092 9.37582 55.6693C9.40687 55.8234 9.46896 56.0082 9.37582 55.9466C9.22059 55.7309 9.12746 55.4229 9.22059 55.3921L9.28268 55.4537C8.75491 54.8375 8.35131 54.0057 7.94772 53.2047L6.73693 53.8517C7.01634 54.6835 7.26471 55.4845 7.69935 56.0082L7.6683 55.9466C7.91667 56.3163 8.13399 56.686 8.38236 57.0557C8.63072 57.6102 8.10294 56.7784 8.22713 57.2405C9.09641 58.4112 9.22059 59.2738 9.96569 60.2289C9.96569 60.4753 10.0899 60.7834 10.2761 61.1223C10.4624 61.4612 10.6797 61.8 10.9281 62.1389C11.4248 62.8475 12.0147 63.5253 12.2941 64.1106L12.3252 63.9874C12.6046 64.1722 12.5114 64.3263 12.6667 64.5419C12.6977 64.4495 12.5114 64.203 12.6977 64.3263C13.6291 65.3429 14.6226 66.3596 15.7712 67.2838L16.6405 67.9616C16.951 68.1772 17.2614 68.3929 17.6029 68.5777C17.9445 68.7626 18.348 68.9166 18.7516 69.0399C19.1863 69.1323 19.652 69.1939 20.1177 69.1631C20.4592 69.1323 20.6454 69.0399 20.8007 68.9474C20.9248 68.855 20.9869 68.7626 21.0801 68.6702C21.2353 68.4853 21.4216 68.3313 22.0735 68.0232C22.0114 68.1464 21.9183 68.3005 21.8562 68.4237C22.7876 67.6843 23.4706 66.8833 24.2157 66.1747C24.9297 65.4354 25.6748 64.7268 26.2958 63.9566C26.2337 64.0798 26.2958 64.1106 26.1405 64.2647C26.5441 64.0798 27.2271 63.1864 27.165 63.094C27.3824 62.8783 27.2892 63.1248 27.4755 63.0324C27.817 62.7859 28.0654 62.1697 28.3448 62.1081C28.3758 62.1081 28.2827 62.2314 28.2516 62.293C28.4069 62.0465 29.152 61.3995 28.8415 61.4612C29.4314 60.9991 29.7729 60.4137 30.2696 60.044C30.3938 59.6435 31.232 59.2122 31.1389 58.9349C31.2941 59.1506 32.1945 58.1647 32.4428 57.7334C32.3807 57.8875 32.7843 57.487 32.7533 57.7026C33.1258 57.3329 33.4363 56.9324 33.2811 56.9016C34.1814 56.4087 34.4918 55.2996 35.1748 55.2072C36.1373 54.0365 37.0376 52.9891 37.9379 52.0032L37.2239 51.3871C37.1618 51.4487 37.1307 51.5411 37.0686 51.6027C37.0376 51.5411 37.0686 51.4487 37.1307 51.3254L38 52.0956C37.7206 52.4653 37.0686 53.0199 37.2549 53.1123C37.5654 52.7426 37.8137 52.4345 38.0311 52.1264L37.0997 51.2946C36.7271 51.9108 36.3856 52.4345 35.7958 53.0815C35.5474 53.3279 35.8268 52.8658 35.8889 52.7426C35.1128 53.8517 34.2124 54.7451 33.5294 55.7309C33.5294 55.7001 33.5915 55.6077 33.6536 55.4845C33.4984 55.6693 33.2811 55.885 33.3742 55.9158L33.4984 55.7309C33.8709 55.5461 33.1258 56.6552 33.1569 56.7476C33.1879 56.2547 32.3186 57.5794 32.4428 56.8708C32.3497 56.9941 32.2565 57.1789 32.3497 57.2097C32.1945 57.3637 32.1013 57.3946 32.1945 57.1789C31.6667 57.8567 31.9461 57.7026 31.4494 58.288C31.4183 58.2572 31.5114 58.1339 31.5114 58.0107C31.3252 58.3804 31.1389 58.7193 30.6732 59.1814C30.6732 59.1198 30.6111 59.1506 30.7353 59.0274C29.9902 59.8592 29.6487 60.5985 28.7484 61.4304C28.8415 61.0299 28.4069 61.6768 28.2206 61.6152L27.817 62.1389L28.0654 62.0157C27.6618 62.447 27.4134 62.8783 27.0098 63.2172L27.2582 62.8475L26.5131 63.6485L26.9788 63.248C26.6373 63.7409 27.1961 63.3712 26.6062 63.8642C26.6994 63.7409 26.2026 64.2647 25.9232 64.4187C25.768 64.6652 25.5817 64.9116 25.2712 65.1889C25.1471 65.2197 25.2092 65.004 25.116 65.004C25.0229 65.3121 24.1846 65.9899 24.0294 66.3288C24.0915 66.2055 24.0294 66.1439 23.9984 66.1747L23.9052 66.4212C23.6879 66.5752 23.6569 66.606 23.6258 66.5136C23.036 67.0682 23.9673 66.4828 23.1912 67.0682C23.2533 67.0065 23.1912 67.0373 23.3154 66.9141C22.6013 67.5303 22.0114 68.2388 21.3284 68.7934C21.018 68.855 21.8562 68.2388 21.5458 68.3313C20.6454 69.2247 19.7451 70.2413 18.7827 71.0423L18.969 70.8883C18.969 71.1656 18.2239 71.412 17.8203 71.905C17.9134 71.7817 17.8824 71.6893 17.8824 71.7201C17.5409 71.9974 17.2304 72.2747 16.8889 72.6135C16.7026 72.7676 16.5474 72.9524 16.3301 73.1373C16.1438 73.2913 15.8954 73.4453 15.616 73.4453C15.6471 73.4145 15.7092 73.4145 15.7402 73.3837C15.5229 73.3837 15.3056 73.3221 15.0572 73.1373C14.8399 72.9524 14.6536 72.6752 14.4984 72.4595C14.3742 72.3671 14.1879 72.0898 14.25 72.3055C13.5049 70.8267 12.3252 69.81 11.6422 68.4853C11.7353 68.6393 11.9216 68.7934 11.8284 68.701L11.0833 67.6843C11.0833 67.8075 11.1454 67.8384 11.2386 68.0848C11.1144 67.9616 10.8971 67.7151 10.7108 67.4378C11.0523 67.8692 10.8039 67.3762 10.6797 67.1606C10.6797 67.1914 10.6177 67.1606 10.6177 67.1914C10.3382 66.606 10.4624 67.1606 10.0278 66.3904L10.0899 66.4212C9.9036 66.1439 9.68628 65.9283 9.5 65.6202C9.46896 65.4662 9.71732 65.8975 9.77942 65.8975C9.5 65.497 9.12746 65.1273 8.91013 64.7268C9.03432 64.8808 9.22059 65.1581 9.34478 65.3121C9.12746 64.85 9.06536 64.8192 8.87909 64.5111L8.91013 64.5419L8.44445 63.8025L8.53759 63.9874C8.04085 63.5561 7.79249 62.9399 7.23366 62.2622C7.76144 62.9091 7.35785 62.3546 7.45098 62.3546C7.35785 62.1697 7.17157 61.8925 7.23366 61.9541C6.95425 61.646 6.89216 61.3687 6.51961 60.9374C6.51961 60.9066 6.27125 60.5677 6.36438 60.6294C6.05393 60.1981 6.39543 60.7526 6.36438 60.7218C5.86765 60.0748 5.37092 59.1198 4.68791 58.1647C4.12909 57.3329 4.00491 57.2097 3.47713 56.4395C3.3219 56.1622 3.63236 56.6244 3.63236 56.6244C3.38399 56.1931 3.16667 55.8542 2.9183 55.4845C2.9804 55.5769 2.9183 55.4845 2.85621 55.3612C2.63889 55.0532 2.70098 55.1764 2.42157 54.7143C2.48366 54.7759 2.54575 54.8683 2.63889 55.0224C2.39053 54.6527 2.14216 54.283 1.89379 53.8825C1.8317 53.7592 2.04902 54.0981 2.14216 54.2522C1.86275 53.8209 1.39706 53.1123 1.30392 52.9891L1.4902 53.2663C1.39706 53.1123 1.45915 53.1739 1.52124 53.2971C1.76961 53.6668 1.86275 53.8517 1.86275 53.8825L1.67647 53.6052C1.8317 53.9133 2.39053 54.7451 2.73203 55.2996L2.54575 55.084L2.94935 55.6385C3.01144 55.7618 3.04249 55.8542 2.88726 55.5769C3.13562 56.0082 3.13562 55.9158 3.3219 56.2855C3.35294 56.3163 3.3219 56.3163 3.29085 56.2855L3.53922 56.686C3.47713 56.6244 3.53922 56.7784 3.41504 56.5319C3.81863 57.2713 4.16013 57.6718 4.28432 57.9491L4.25327 57.8875C4.90523 58.8733 4.34641 57.9491 4.87419 58.6577L5.09151 59.2122L5.18464 59.2738C5.24674 59.3662 5.37092 59.5819 5.33987 59.5511C5.61929 59.9208 5.30883 59.4895 5.4951 59.6743C5.77451 60.1981 6.36438 60.9991 6.36438 61.1531C6.51961 61.3071 6.08497 60.6602 6.45752 61.1839C6.45752 61.3996 6.86111 61.7692 7.10948 62.2314C6.9853 62.1389 6.73693 61.6768 6.9853 62.1697C7.23366 62.3854 7.51308 63.0324 7.79249 63.402C7.88563 63.3712 8.35131 64.203 8.78595 64.8192C8.72386 64.7884 9.53105 66.0207 9.87255 66.606H9.84151C9.99674 66.6677 10.3693 67.2838 10.6797 67.6843C10.6177 67.7151 10.5556 67.6227 10.3693 67.407L10.6487 67.8075C10.7418 67.9 10.835 67.9924 11.0212 68.2697L10.8971 68.208C11.2696 68.7626 11.7043 69.2555 12.1389 69.9641C12.232 69.9641 11.9526 69.2863 12.4804 69.9949C12.4494 70.0565 12.4183 70.1181 12.2631 69.9333C12.3252 69.9949 12.4494 70.1489 12.5114 70.2722L12.2631 70.0257C12.4494 70.3646 12.4183 70.1489 12.6046 70.4262C12.5425 70.457 12.6977 70.6418 12.6356 70.6418C12.5735 70.5802 12.5114 70.3954 12.4183 70.3338C12.6046 70.611 12.8219 70.9807 12.8529 71.1348C12.8529 71.104 12.915 71.0732 13.0703 71.2888C13.4428 71.8125 13.1324 71.5045 13.3186 71.8433C13.4428 71.9358 13.6601 72.3055 13.7222 72.2747C13.8464 72.4287 13.8154 72.4903 13.8464 72.5519C13.9706 72.6752 14.1879 73.014 14.4052 73.2605C14.6536 73.507 14.8709 73.5994 14.7157 73.4453C14.6846 73.4145 14.6536 73.4145 14.6536 73.3837C14.6536 73.3837 14.6846 73.4145 14.7157 73.4145C14.9641 73.5686 15.2745 73.6918 15.585 73.661C15.8954 73.6302 16.1748 73.4762 16.4232 73.3221C16.9199 72.9832 17.3546 72.6135 17.7582 72.2438L17.7892 72.2747C18.2549 71.8125 18.8758 71.2888 19.1863 70.9191C19.3415 70.7959 19.5899 70.6727 19.5588 70.7651C19.9314 70.3954 19.9314 70.3338 20.5212 69.9025C20.1797 70.303 20.7075 69.8408 20.1797 70.2722C20.6765 69.8717 20.8628 69.81 21.2974 69.2555C21.2043 69.502 21.7631 69.009 21.9494 68.7934L21.5458 69.0399C21.7941 68.7934 22.0114 68.5777 22.2598 68.3929L22.2288 68.6085C23.3464 67.8383 23.7811 66.7293 24.7435 66.2364C24.9297 65.9283 24.1536 66.6985 24.3088 66.3904C24.7745 65.9899 25.3954 65.6818 25.5196 65.5586C26.1716 65.0349 25.9232 64.85 26.6062 64.2647C26.482 64.2955 26.2958 64.2647 26.7304 63.7717C27.165 63.3404 27.4445 63.402 27.1961 63.7101C27.1029 63.8334 27.0409 63.8642 27.0098 63.8334C26.8856 63.9874 26.7304 64.203 26.9477 64.049L26.9788 63.9566C27.2271 63.7717 27.817 63.1864 27.7549 63.3712C28.0343 63.0015 27.817 63.1556 27.5686 63.402C28.1896 62.9091 28.4379 62.5086 29.0588 61.9849C28.9346 62.0465 28.8105 62.1081 28.9036 62.0157C29.7729 61.2147 29.183 61.5536 29.7108 60.9682C30.0833 60.691 29.7418 61.2455 30.2696 60.5985C30.6422 60.2905 30.4559 60.6294 30.3628 60.8142C30.7974 60.198 31.3562 59.8592 31.6667 59.5511L31.4494 59.8592C31.5735 59.6743 31.7288 59.5203 31.8529 59.3971L31.6046 59.4895C31.7909 59.3354 31.915 59.1814 31.9461 59.243C32.0392 59.0274 31.6667 59.243 31.915 58.8117C32.1634 58.6269 32.4739 58.0723 32.6912 58.1031C32.0082 58.7809 32.8775 58.1339 32.3497 58.7501C32.4428 58.6269 32.567 58.4728 32.7533 58.3188C32.7843 58.3188 32.7533 58.3804 32.7222 58.4112C33.4673 57.8259 32.8775 57.9799 33.4984 57.2713C33.4984 57.4254 33.7778 57.2097 33.8709 57.0865C33.6226 57.3637 33.6226 57.1173 33.8088 56.8092C34.2745 56.4087 34.2124 56.2855 34.4297 56.039L34.1503 56.2855C34.1503 56.1314 34.3677 55.9158 34.616 55.5769C34.7092 55.6077 34.3987 55.9158 34.5229 55.8234C34.7092 55.3612 35.3611 55.1148 35.7026 54.5294C35.951 54.3446 35.8578 54.6219 36.0752 54.437C36.4477 53.7901 36.6961 53.9133 37.0997 53.2355C36.8513 53.3279 36.8513 53.3896 37.0997 52.8658C36.8513 53.2047 36.603 53.5744 36.3546 53.9133L36.7271 53.1739C36.4788 53.482 36.2614 53.8517 36.1062 54.0057C36.2614 53.636 36.2614 53.6976 36.0752 53.7593C36.5719 53.482 36.665 52.8658 37.1307 52.4961L37.3791 52.7118C37.5964 52.4961 37.7827 52.2805 37.9379 52.0648L37.0065 51.233C36.634 51.6643 36.2925 52.1573 35.7026 52.7118L36.0131 52.4961C35.982 52.7118 35.5163 53.0199 35.268 53.3279C35.2059 53.2355 35.0196 53.3587 34.8333 53.4204C34.8954 53.4512 34.2124 54.0365 34.3056 54.2522L33.8088 54.5294C33.0948 55.1764 33.2811 55.5461 32.598 56.1622C32.6912 55.885 32.3497 56.1314 32.7222 55.6077C32.5049 55.8234 32.2876 56.0082 32.3497 56.0698C32.1634 56.1622 31.8529 56.7784 31.5735 56.9016C31.5114 57.0249 31.5735 57.1481 31.3252 57.3946C31.2941 57.3946 31.2941 57.3637 31.2941 57.3637C31.3252 57.3946 30.9526 57.7951 31.2631 57.6718C30.3317 58.1031 29.4003 59.5819 28.5931 59.9516C28.1585 60.4445 27.5997 61.0607 27.165 61.492C27.165 61.4304 27.134 61.4612 27.2271 61.3687C26.5441 61.8925 27.1029 61.9849 26.3268 62.5702C25.8301 62.7859 26.6062 62.1389 26.3579 62.293C25.9853 62.1081 25.5817 63.1556 24.9608 63.4637L25.0539 63.3404C24.6193 63.5869 24.3088 64.2955 23.719 64.85C23.719 64.85 23.719 64.7884 23.6879 64.8192C23.4396 65.3429 22.7565 66.1439 22.2598 66.7293C22.3219 66.452 22.4461 66.4212 22.2288 66.4212C22.0114 66.6677 22.4771 66.5444 22.0114 67.0374C21.7941 67.1298 21.3595 67.3454 21.2043 67.253C21.3595 67.1298 21.5147 67.0065 21.6699 66.8833C21.2974 66.9141 21.049 67.3762 20.7696 67.4687V67.3762C20.3971 67.5919 20.2108 67.7151 20.0245 67.8075C19.8072 67.9 19.5899 67.9924 19.0931 67.9C19.1242 67.9308 19.1552 67.9616 19.1863 67.9924C18.9069 68.054 18.7827 67.9924 18.6895 67.9308C18.5964 67.8692 18.5033 67.7767 18.1928 67.7459C18.1618 67.6535 18.1618 67.5611 18.1307 67.4687C17.9445 67.407 17.634 67.3146 17.2925 67.1914C16.951 67.0374 16.5784 66.8525 16.268 66.6677C16.7026 66.7293 17.4167 67.1298 17.8824 67.253C17.5719 67.099 16.8268 66.606 16.5784 66.606C16.7026 66.6677 16.9199 66.7293 17.0131 66.8525C16.7647 66.7909 16.5163 66.7293 16.2369 66.5752C15.9575 66.4212 15.6781 66.2364 15.3987 65.9899C15.616 65.8667 15.2435 65.497 14.8399 65.1273C14.6536 64.9116 14.4363 64.696 14.25 64.4803C14.0948 64.2647 13.9706 64.049 13.9395 63.895C12.9461 63.0324 12.3562 61.8 11.518 60.5369C11.4869 61.1839 11.2696 60.1672 10.9902 60.4445C10.7729 60.1364 10.7108 60.0132 10.7108 59.9824C10.5866 59.6127 10.4624 59.2738 10.3693 58.9041C10.3382 58.6269 10.6177 59.1814 10.6797 59.089C10.3382 58.3804 10.6487 58.7193 10.4935 58.2264C10.4314 58.3804 10.183 58.0723 10.0278 57.641L10.152 58.288C9.46896 57.3946 9.99674 57.3021 9.31373 56.3779L9.56209 56.6552C9.25164 56.1622 8.66177 54.7451 8.13399 54.3446C8.13399 54.2214 8.16504 54.0673 8.28922 54.283C8.16504 54.0057 8.04085 53.7593 7.91667 53.482L6.5817 54.2214C7.29576 55.1456 8.10295 56.1006 8.4134 56.9016L8.28922 56.8708C8.44445 57.0865 8.66177 57.1789 8.75491 57.487C8.72386 57.487 8.63072 57.4562 8.69281 57.5486C8.78595 57.641 9.18955 58.0723 9.28268 58.3804L9.06536 58.1647C9.62419 59.3971 10.2761 59.8592 10.835 60.845C10.6177 60.9682 10.9902 61.9541 11.1765 62.447H11.1454C11.7663 63.8642 12.4183 64.7884 13.0392 66.0823C13.0703 66.3904 13.1634 66.7909 13.3186 67.253L14.4052 66.5752C13.7222 65.8359 12.8529 64.9116 12.3252 64.1106C12.4183 64.2955 12.1389 64.203 11.9837 64.0182C11.8284 63.7101 11.2696 63.3712 11.4869 63.2788L11.549 63.3712C11.5801 63.0324 11.1144 62.5086 10.835 62.0773L10.5556 62.1697C10.4935 61.9849 10.4314 61.8001 10.3382 61.646C10.2451 61.4612 10.152 61.2763 10.0588 61.0915C9.84151 60.7218 9.62419 60.3521 9.40687 59.9824C8.97223 59.2738 8.59968 58.5961 8.59968 58.1647C8.38236 57.8875 8.22713 57.487 8.04085 57.2097L8.19608 57.1789C8.04085 56.7476 7.91667 56.4087 7.79249 56.039C7.76144 55.9158 7.69935 55.7926 7.6683 55.6693C7.63726 55.6077 7.60621 55.5153 7.57517 55.4229C7.63726 55.4845 7.6683 55.5153 7.7304 55.5461C7.7304 55.5153 7.69935 55.5153 7.69935 55.4845C7.6683 55.4537 7.6683 55.4537 7.63726 55.4229C7.57517 55.3612 7.51308 55.2996 7.41994 55.1764C7.26471 54.9916 7.04739 54.6835 6.9853 54.4986C7.10948 54.6219 7.20262 54.7451 7.3268 54.8991C7.29576 54.7759 7.29576 54.7143 7.3268 54.6835L7.35785 54.6527L7.38889 54.7143L7.45098 54.8067C7.48203 54.8683 7.48203 54.8375 7.48203 54.7143C7.51308 54.8067 7.57517 54.9916 7.57517 54.9916C7.60621 55.0532 7.69935 55.238 7.7304 55.2688C7.76144 55.2996 7.76144 55.2996 7.79249 55.2688C7.79249 55.238 7.82353 55.2072 7.82353 55.084C7.82353 55.238 7.85458 55.2688 7.94772 55.3612C7.94772 55.3612 8.13399 55.5769 8.25817 55.7001C8.38236 55.8542 8.50654 56.0082 8.63072 56.1314H8.47549C8.91013 56.4703 8.97223 56.4703 9.40687 57.0557C9.5 57.2097 9.40687 57.2405 9.31373 57.0249C9.59314 57.5486 9.65523 57.3329 10.0278 57.9491L9.81046 57.7642C10.152 58.2572 10.152 58.1956 10.4003 58.442C10.6487 58.7193 11.0212 59.3971 10.9902 59.5511C11.0833 59.5819 11.3317 59.8284 11.518 60.1364C11.518 60.1981 11.4248 60.1056 11.3627 60.044C11.8595 60.9374 12.2941 61.2455 12.5735 61.8617C12.5425 61.8925 12.5735 61.9541 12.5735 61.9849C12.1389 61.3071 11.7974 60.7526 11.8284 60.8142C11.7353 60.8758 12.0768 61.4304 11.6732 61.0607C12.0147 61.4612 12.6667 62.1081 12.9461 62.6627C12.9461 62.6935 12.9771 62.7243 12.9771 62.7551L12.9461 62.6935C13.0082 62.8167 13.1013 62.9399 13.1634 63.0324C13.2565 63.2172 13.3186 63.3096 13.4118 63.4945C13.3807 63.5869 13.7843 64.1414 13.9395 64.4187C14.0016 64.3571 14.219 64.696 14.0948 64.3263C14.1258 64.3879 14.0637 64.2955 13.9395 64.1106C13.9085 64.0798 13.8775 64.0182 13.8464 63.9874C13.8464 63.9874 13.8464 63.9874 13.8775 63.9874C13.7533 63.8025 13.598 63.5869 13.4428 63.3096C13.6291 63.4945 13.8154 63.7101 13.9395 64.0182C14.0948 64.1106 14.25 64.2339 14.3121 64.3263C14.4363 64.7884 14.8088 65.5278 14.8088 65.6818C15.3677 66.4828 16.0817 67.6535 16.5474 68.0848C16.7026 68.3005 16.6716 68.3929 16.7026 68.4853C16.6095 68.3621 16.5163 68.1772 16.4543 68.1156C16.7958 68.5777 17.3235 69.5328 17.4788 69.5944C17.7892 70.2413 17.1994 69.3171 17.6961 70.1181L17.6029 70.0257C18.0376 70.9499 18.5343 71.6277 19.031 72.3671L19.3105 72.1822C18.7827 71.6585 18.2239 71.104 17.665 70.303C17.7582 70.4262 17.7892 70.4878 17.8203 70.5186C17.0752 69.5636 16.2369 68.6394 15.4608 67.6535C14.6846 66.6677 13.9395 65.6818 13.2876 64.696C12.915 64.1414 12.8219 64.0798 12.5735 63.7717L12.5114 63.6177L12.0768 63.0632C11.7663 62.6627 11.549 62.293 11.3317 61.8925C11.0833 61.492 10.835 61.0607 10.4624 60.5369L10.5245 60.691C10.2761 60.2905 9.74837 59.4587 9.81046 59.5203C9.77942 59.4895 9.71732 59.3971 9.62419 59.243V59.2122C9.43791 58.9041 9.22059 58.5652 9.03432 58.2572C8.59968 57.487 9.12745 58.3496 8.47549 57.2713C8.25817 56.8708 7.97876 56.4087 7.91667 56.2547C8.00981 56.4087 8.13399 56.6552 8.16504 56.686L7.94772 56.3163C7.91667 56.2547 7.76144 55.9466 8.22713 56.9016C8.35131 57.1173 8.44445 57.3329 8.56863 57.5486L8.66177 57.7642L8.38236 57.2097C8.53759 57.5178 8.66177 57.7334 8.78595 57.9491C8.817 58.0107 8.84804 58.1031 8.91013 58.2264C9.03432 58.442 9.1585 58.6577 9.28268 58.8425C9.31373 58.9349 9.09641 58.5652 9.34478 58.9966C9.53105 59.2738 9.18955 58.6885 9.5 59.1814C9.65523 59.4895 9.59314 59.4279 9.81046 59.7667C9.84151 59.8284 9.77942 59.7359 9.68628 59.6127C9.87255 59.9208 10.183 60.4445 10.3072 60.5985C10.4624 60.9374 10.9592 61.6768 10.8971 61.646C10.9592 61.7384 11.2696 62.1697 11.4559 62.4778C11.0833 61.9849 12.1389 63.5561 11.9837 63.4637C12.2941 63.8025 12.915 64.85 13.4118 65.4662C13.3807 65.4354 13.3186 65.3737 13.2876 65.3121C13.536 65.6818 13.598 65.805 13.7533 66.0515C13.8464 66.0515 14.281 66.6369 14.5294 66.9141C14.8088 67.407 14.25 66.6985 14.3121 66.8833C14.3431 66.8217 14.933 67.6227 14.8709 67.4378C15.0882 67.8075 15.0882 67.7459 15.1503 67.9616C15.2745 67.9616 15.3987 68.2697 15.6781 68.5161C16.0196 69.0398 15.7092 68.701 16.1438 69.2247C16.4853 69.2247 16.0507 68.7934 16.0507 68.7934ZM13.536 61.8617C13.6291 61.9849 13.6912 62.0773 13.7222 62.1389C13.6912 62.1081 13.6291 62.0157 13.536 61.8617ZM12.8219 60.7218C12.915 60.8758 13.0082 61.0299 13.1324 61.2147C13.1324 61.2763 13.0703 61.2455 13.0082 61.1223C13.0392 61.1839 12.884 60.9066 12.8219 60.7218ZM13.7222 63.5561C13.598 63.3712 13.567 63.3096 13.567 63.2788C13.6291 63.3712 13.6912 63.4637 13.7843 63.5869H13.8154C13.7843 63.5869 13.7533 63.5869 13.7222 63.5561Z" fill="#202020"/>
<path d="M14.0637 63.8027C14.0948 63.8335 14.0948 63.8335 14.1258 63.8643C14.0948 63.8335 14.0948 63.7719 14.0637 63.7411C14.0327 63.7102 14.0016 63.7103 14.0016 63.6794C14.0016 63.7411 14.0327 63.7719 14.0637 63.8027Z" fill="#202020"/>
<path d="M7.63729 58.6269L7.66833 58.5961L7.5752 58.5037L7.63729 58.6269Z" fill="#202020"/>
<path d="M10.6797 67.0375C10.6797 67.0067 10.6797 67.0067 10.6487 66.9451C10.6487 66.9451 10.6487 67.0067 10.6797 67.0375Z" fill="#202020"/>
<path d="M8.84804 64.357L8.59967 63.9565C8.72385 64.1414 8.81699 64.2646 8.84804 64.357Z" fill="#202020"/>
<path d="M7.51308 62.2934C7.48203 62.2622 7.48203 62.2622 7.45099 62.2622L7.51308 62.2934Z" fill="#202020"/>
<path d="M33.5605 55.3612C33.5915 55.3304 33.5915 55.2996 33.6225 55.2688C33.7467 55.084 33.6536 55.2072 33.5605 55.3612Z" fill="#202020"/>
<path d="M25.8301 64.2339C25.8922 64.1414 25.9853 64.0182 26.0474 63.9258C25.9232 64.049 25.799 64.1722 25.8301 64.2339Z" fill="#202020"/>
<path d="M32.6912 57.5793C32.6601 57.6106 32.6601 57.6106 32.6291 57.6418L32.6912 57.5793Z" fill="#202020"/>
<path d="M26.451 63.5254C26.2957 63.6486 26.1716 63.8027 26.0784 63.9259C26.2026 63.8027 26.3578 63.6794 26.451 63.5254Z" fill="#202020"/>
<path d="M1.64543 53.2047L1.58334 53.1123L1.64543 53.2047Z" fill="#202020"/>
<path d="M1.5523 53.1122L1.4902 52.989C1.52125 53.0506 1.5523 53.0814 1.5523 53.1122Z" fill="#202020"/>
<path d="M1.33496 52.7734L1.49019 53.0199C1.45914 52.9275 1.36601 52.8042 1.33496 52.7734Z" fill="#202020"/>
<path d="M3.94282 56.8401C3.81863 56.6244 3.63236 56.3164 3.44608 56.0391L3.41504 56.0083C3.53922 56.1623 3.78759 56.6553 3.94282 56.8401Z" fill="#202020"/>
<path d="M6.02289 60.4754L5.58825 59.7668C5.65034 59.8901 5.74347 60.0749 5.52615 59.7668C6.05393 60.6603 5.46406 59.5512 6.02289 60.4754Z" fill="#202020"/>
<path d="M7.41992 62.6626C7.17156 62.2929 7.38888 62.6934 7.35783 62.6626C7.5441 62.909 7.57515 62.9706 7.41992 62.6626Z" fill="#202020"/>
<path d="M19.8072 70.5494L19.8382 70.6419C20.0866 70.3954 19.8072 70.6111 19.8072 70.5494Z" fill="#202020"/>
<path d="M22.1046 67.7151L21.7941 67.8999L21.7631 68.0848L22.1046 67.7151Z" fill="#202020"/>
<path d="M24.1847 66.8218L24.0915 66.945L24.4951 66.5137L24.1847 66.8218Z" fill="#202020"/>
<path d="M29.0588 59.1506L29.2762 59.2122C29.4003 59.0274 29.3072 58.8425 29.0588 59.1506Z" fill="#202020"/>
<path d="M19.2794 67.6228C19.1552 67.4996 18.8758 67.3763 18.6274 67.4071C18.9069 67.5304 19.1552 67.6536 19.2794 67.6228Z" fill="#202020"/>
<path d="M10.5245 61.1839C10.5866 61.2455 10.6487 61.3071 10.7108 61.3688C10.6176 61.2455 10.4935 61.0915 10.4003 60.9683L10.5245 61.1839Z" fill="#202020"/>
</g>
<defs>
<clipPath id="clip0">
<rect width="38" height="74" fill="white"/>
</clipPath>
</defs>
</svg>
