<svg xmlns="http://www.w3.org/2000/svg" xmlns:xlink="http://www.w3.org/1999/xlink" viewBox="0 0 242.65 290.76" xmlns:v="https://vecta.io/nano"><style><![CDATA[.H{fill:#f09394}.I{fill:#fff}.J{fill:#232323}.K{stroke:#f09394}.L{stroke-width:.5}.M{stroke-miterlimit:10}]]></style><g stroke-width="2" class="I K M"><path d="M13.37 1h215.95v288.76H13.37z"/><path d="M17.25 4.95h208.2v280.86H17.25z"/><rect x="178.29" y="52.75" width="45.97" height="23.29" rx="2.36"/><path d="M224.26 59.4h3.98v11.1h-3.98z"/><path d="M228.23 62.48h13.41v4.94h-13.41z"/><rect x="178.29" y="216.92" width="45.97" height="23.29" rx="2.36"/><path d="M224.26 223.57h3.98v11.1h-3.98z"/><path d="M228.23 226.66h13.41v4.94h-13.41z"/><rect x="18.39" y="217.82" width="45.97" height="23.29" rx="2.36"/><path d="M14.41 223.35h3.98v11.1h-3.98z"/><path d="M1 226.44h13.41v4.94H1z"/><rect x="18.39" y="53.65" width="45.97" height="23.29" rx="2.36"/><path d="M14.41 59.18h3.98v11.1h-3.98z"/><path d="M1 62.26h13.41v4.94H1z"/></g><path d="M170.43 196.13H72.26V97.96h98.17z" class="H"/><path d="M102.65 107.09v-8.12l38.06.34v7.78h-38.06z" class="I"/><path d="M103.65,100l36.06.32v5.79H103.65V100m-2-2v10.13h40.06V98.32L101.65,98Z" class="H"/><path d="M87.12 181.98v-15.46l68.45.6v14.86H87.12z" class="I"/><path d="M88.12,167.53l66.45.58V181H88.12V167.53m-2-2V183h70.45V166.12l-70.45-.61Z" class="H"/><g class="I K"><g stroke-width="2" class="M"><path d="M143.85 182.36v-15.77m-11.32 15.77v-15.77m-11.32 15.77v-15.77m-11.32 15.77v-15.77m-11.32 15.77v-15.77m-41.53 28.58H72.8m-15.97-10.88H72.6m-15.77-11.32H72.6"/><path d="M56.83 161.65H72.6m-15.77-11.32H72.6m-15.77-6.55H72.6m-15.77-11.32H72.6m-15.77-11.32H72.6m-15.77-11.32H72.6M56.49 98.95h15.77m98.17 96.12h15.76"/><path d="M170.09 184.28h15.76m-15.76-11.32h15.76m-15.76-11.32h15.76m-15.76-11.32h15.76m-15.76-6.55h15.76m-15.76-11.32h15.76m-15.76-11.32h15.76m-15.76-11.32h15.76m-15.6-10.79h15.77"/></g><circle cx="149.76" cy="174.47" r="3.05"/></g><path d="M151.01 174.47h-2.42" class="H"/><path d="M151,174.47a1.71,1.71,0,0,1-2.42,0,1.71,1.71,0,0,1,2.42,0Z" class="J"/><path d="M149.8 175.68v-2.42" class="H"/><path d="M149.8,175.68a1.71,1.71,0,0,1,0-2.42,1.71,1.71,0,0,1,0,2.42Z" class="J"/><circle cx="136.44" cy="103.02" r="2.39" class="I K L"/><path d="M136.44 104.23v-2.42" class="H"/><path d="M136.44 104.23a1.71 1.71 0 0 1 0-2.42 1.74 1.74 0 0 1 .5 1.21 1.71 1.71 0 0 1-.5 1.21z" class="J"/><circle cx="138.19" cy="174.47" r="3.05" class="I K"/><path d="M139.44 174.47h-2.41" class="H"/><path d="M139.44,174.47a1.7,1.7,0,0,1-2.41,0,1.7,1.7,0,0,1,2.41,0Z" class="J"/><path d="M138.24 175.68v-2.42" class="H"/><use xlink:href="#B" class="J"/><circle cx="126.87" cy="174.47" r="3.05" class="I K"/><path d="M128.12 174.47h-2.41" class="H"/><path d="M128.12,174.47a1.7,1.7,0,0,1-2.41,0,1.7,1.7,0,0,1,2.41,0Z" class="J"/><path d="M126.92 175.68v-2.42" class="H"/><use xlink:href="#B" x="-11.32" class="J"/><circle cx="115.55" cy="174.47" r="3.05" class="I K"/><path d="M116.8 174.47h-2.41" class="H"/><path d="M116.8,174.47a1.7,1.7,0,0,1-2.41,0,1.7,1.7,0,0,1,2.41,0Z" class="J"/><path d="M115.6 175.68v-2.42" class="H"/><use xlink:href="#B" x="-22.64" class="J"/><circle cx="104.23" cy="174.47" r="3.05" class="I K"/><path d="M105.49 174.47h-2.42" class="H"/><path d="M105.49 174.47a1.66 1.66 0 0 1-1.21.5 1.63 1.63 0 0 1-1.21-.5 1.71 1.71 0 0 1 1.21-.5 1.74 1.74 0 0 1 1.21.5z" class="J"/><path d="M104.28 175.68v-2.42" class="H"/><use xlink:href="#B" x="-33.96" class="J"/><circle cx="92.52" cy="174.48" r="3.05" class="I K"/><path d="M93.77 174.48h-2.41" class="H"/><path d="M93.77,174.48a1.7,1.7,0,0,1-2.41,0,1.7,1.7,0,0,1,2.41,0Z" class="J"/><path d="M92.57 175.69v-2.42" class="H"/><use xlink:href="#B" x="-45.67" y="0.01" class="J"/><circle cx="128.9" cy="103.02" r="2.39" class="I K L"/><path d="M128.9 104.23v-2.42" class="H"/><path d="M128.9 104.23a1.71 1.71 0 0 1-.5-1.21 1.74 1.74 0 0 1 .5-1.21 1.66 1.66 0 0 1 .5 1.21 1.63 1.63 0 0 1-.5 1.21z" class="J"/><circle cx="114.83" cy="103.14" r="2.39" class="I K L"/><path d="M114.83 104.35v-2.42" class="H"/><path d="M114.83,104.35a1.68,1.68,0,0,1-.5-1.21,1.64,1.64,0,0,1,.5-1.21,1.71,1.71,0,0,1,0,2.42Z" class="J"/><circle cx="107.29" cy="103.14" r="2.39" class="I K L"/><path d="M107.29 104.35v-2.42" class="H"/><path d="M107.29,104.35a1.71,1.71,0,0,1,0-2.42,1.71,1.71,0,0,1,0,2.42Z" class="J"/><use xlink:href="#C" class="I"/><path d="M98.42,124.25a6.76,6.76,0,0,1,6.76,6.76v26.31a6.76,6.76,0,0,1-13.52,0V131a6.76,6.76,0,0,1,6.76-6.76m0-2h0A8.78,8.78,0,0,0,89.66,131v26.31a8.78,8.78,0,0,0,8.76,8.76h0a8.78,8.78,0,0,0,8.76-8.76V131a8.78,8.78,0,0,0-8.76-8.76Z" class="H"/><use xlink:href="#C" x="18.46" class="I"/><path d="M116.88,124.25a6.76,6.76,0,0,1,6.76,6.76v26.31a6.76,6.76,0,0,1-13.52,0V131a6.76,6.76,0,0,1,6.76-6.76m0-2h0a8.78,8.78,0,0,0-8.76,8.76v26.31a8.78,8.78,0,0,0,8.76,8.76h0a8.78,8.78,0,0,0,8.76-8.76V131a8.78,8.78,0,0,0-8.76-8.76Z" class="H"/><rect x="151.31" y="109.67" width="10.52" height="29.92" rx="2.79" class="I"/><path d="M159.05,110.67a1.78,1.78,0,0,1,1.78,1.78V136.8a1.78,1.78,0,0,1-1.78,1.78h-5a1.78,1.78,0,0,1-1.78-1.78V112.45a1.78,1.78,0,0,1,1.78-1.78h5m0-2h-5a3.79,3.79,0,0,0-3.78,3.78V136.8a3.79,3.79,0,0,0,3.78,3.78h5a3.79,3.79,0,0,0,3.78-3.78V112.45a3.79,3.79,0,0,0-3.78-3.78Z" class="H"/><path d="M94.89 107.09a2.53 2.53 0 1 1 2.53-2.53 2.53 2.53 0 0 1-2.53 2.53z" class="I"/><path d="M94.89,103a1.53,1.53,0,1,1-1.53,1.53A1.53,1.53,0,0,1,94.89,103m0-2a3.53,3.53,0,1,0,3.53,3.53A3.53,3.53,0,0,0,94.89,101Z" class="H"/><path d="M83,114.25a4.43,4.43,0,1,1,4.43-4.43A4.43,4.43,0,0,1,83,114.25Z" class="I"/><path d="M83,106.38a3.44,3.44,0,1,1-3.43,3.44A3.44,3.44,0,0,1,83,106.38m0-2a5.44,5.44,0,1,0,5.43,5.44A5.44,5.44,0,0,0,83,104.38Z" class="H"/><path d="M83,126.61a4.36,4.36,0,1,1,4.36-4.36A4.36,4.36,0,0,1,83,126.61Z" class="I"/><path d="M83,118.89a3.36,3.36,0,1,1-3.37,3.36A3.37,3.37,0,0,1,83,118.89m0-2a5.36,5.36,0,1,0,5.36,5.36A5.37,5.37,0,0,0,83,116.89Z" class="H"/><path d="M64.84,61c23.93,2.26,47.59,6.6,71.09,11.57q17.31,3.66,34.57,7.63c5.25,1.21,10.54,2.58,15.36,5a35.21,35.21,0,0,1,11.29,9.22c6.52,8,9.61,18.18,11.16,28.23.89,5.8,1.29,11.67,1.65,17.52.35,5.43.62,10.88.52,16.32-.2,10.43-1.89,21.1-7.43,30.12a46.83,46.83,0,0,1-19.72,17.55c-8.21,3.93-17.86,5.55-26.82,3.63a25.43,25.43,0,0,1-12.66-6.41,18.23,18.23,0,0,1-5.42-12,13.71,13.71,0,0,1,1.14-6.23c.79-1.75-1.8-3.28-2.59-1.52-4.11,9.16.52,19.61,8.53,24.89,8.37,5.5,19.42,6,29,3.86a49.22,49.22,0,0,0,37.81-40.48c2-11.51,1.2-23.34.35-34.93s-2.35-23.11-7.49-33.53a45.69,45.69,0,0,0-8.58-12.17,38.55,38.55,0,0,0-13.09-8.44c-5.34-2.14-11-3.33-16.58-4.59q-9.21-2.06-18.42-4.09c-24.6-5.39-49.33-10.34-74.37-13.24q-4.62-.53-9.25-1c-1.92-.18-1.91,2.82,0,3Z" fill="red"/><path d="M65.43,71.6q30,3.2,59.79,8.37,15,2.59,29.85,5.7,7.32,1.53,14.61,3.18c4.26,1,8.66,1.83,12.6,3.8,7.51,3.74,10.58,11.37,12.17,19.17a146.92,146.92,0,0,1,2.64,27.76,166.38,166.38,0,0,1-2.22,28.63q-1.19,7.14-3,14.15c-.59,2.26-1.22,4.5-1.89,6.74a22.76,22.76,0,0,1-2.29,5.7c-2.39,3.75-7.56,4-11.51,4.71l-7.36,1.4a45.74,45.74,0,0,1-6.69,1c-3.82.15-7.22-1.2-9.13-4.61-1.64-2.9-2-6.39-2.14-9.65-.05-1.67,0-3.34.1-5,.12-1.93-2.89-1.92-3,0-.38,6.57-.27,15.17,5.38,19.68,3.66,2.92,8.28,2.86,12.69,2.15,5-.8,9.94-1.85,14.89-2.81a17.62,17.62,0,0,0,6.16-2.08,11.14,11.14,0,0,0,4-4.77c2-4.27,3-9.12,4.16-13.68a169.53,169.53,0,0,0,4.5-29.88,166.4,166.4,0,0,0-.9-30.27c-1-8.31-2.18-17.56-7.36-24.46-5.71-7.61-15.17-9.26-23.91-11.2q-15.68-3.48-31.46-6.41-31.29-5.82-62.92-9.44l-7.8-.86c-1.91-.2-1.9,2.8,0,3Z"/><defs ><path id="B" d="M138.24 175.68a1.63 1.63 0 0 1-.5-1.21 1.66 1.66 0 0 1 .5-1.21 1.74 1.74 0 0 1 .5 1.21 1.71 1.71 0 0 1-.5 1.21z"/><path id="C" d="M98.42 165.08a7.77 7.77 0 0 1-7.76-7.76V131a7.76 7.76 0 0 1 15.52 0v26.31a7.77 7.77 0 0 1-7.76 7.77z"/></defs></svg>