<svg xmlns="http://www.w3.org/2000/svg" viewBox="0 0 242.65 290.76"><defs><style>.cls-1,.cls-11,.cls-3,.cls-4,.cls-6{fill:#fff;}.cls-1,.cls-4,.cls-6{stroke:#f09394;}.cls-1,.cls-11,.cls-4,.cls-6,.cls-8{stroke-miterlimit:10;}.cls-1{stroke-width:2px;}.cls-2{fill:#f09394;}.cls-5{fill:#232323;}.cls-6{stroke-width:0.5px;}.cls-7{opacity:0.39;}.cls-8{fill:none;stroke-width:3px;}.cls-11,.cls-8{stroke:#000;}.cls-8,.cls-9{opacity:0.2;}.cls-10{fill:red;}.cls-12{fill:#967761;}.cls-13{fill:#ff792b;}</style></defs><g id="Laag_2" data-name="Laag 2"><g id="Step_5" data-name="Step 5"><rect class="cls-1" x="13.37" y="1" width="215.95" height="288.76"/><rect class="cls-1" x="17.25" y="4.95" width="208.2" height="280.86"/><g id="motor_above" data-name="motor above"><rect class="cls-1" x="178.29" y="52.75" width="45.97" height="23.29" rx="2.36"/><rect class="cls-1" x="224.26" y="59.4" width="3.98" height="11.1"/><rect class="cls-1" x="228.23" y="62.48" width="13.41" height="4.94"/></g><g id="motor_above-2" data-name="motor above"><rect class="cls-1" x="178.29" y="216.92" width="45.97" height="23.29" rx="2.36"/><rect class="cls-1" x="224.26" y="223.57" width="3.98" height="11.1"/><rect class="cls-1" x="228.23" y="226.66" width="13.41" height="4.94"/></g><g id="motor_above-3" data-name="motor above"><rect class="cls-1" x="18.39" y="217.82" width="45.97" height="23.29" rx="2.36"/><rect class="cls-1" x="14.41" y="223.35" width="3.98" height="11.1"/><rect class="cls-1" x="1" y="226.44" width="13.41" height="4.94"/></g><g id="motor_above-4" data-name="motor above"><rect class="cls-1" x="18.39" y="53.65" width="45.97" height="23.29" rx="2.36"/><rect class="cls-1" x="14.41" y="59.18" width="3.98" height="11.1"/><rect class="cls-1" x="1" y="62.26" width="13.41" height="4.94"/></g><g id="motor_controller" data-name="motor controller"><rect class="cls-2" x="72.26" y="97.96" width="98.17" height="98.17" transform="translate(242.69 294.09) rotate(180)"/><polygon class="cls-3" points="102.65 107.09 102.65 98.97 140.71 99.31 140.71 107.09 102.65 107.09"/><path class="cls-2" d="M103.65,100l36.06.32v5.79H103.65V100m-2-2v10.13h40.06V98.32L101.65,98Z"/><polygon class="cls-3" points="87.12 181.98 87.12 166.52 155.57 167.12 155.57 181.98 87.12 181.98"/><path class="cls-2" d="M88.12,167.53l66.45.58V181H88.12V167.53m-2-2V183h70.45V166.12l-70.45-.61Z"/><line class="cls-1" x1="143.85" y1="182.36" x2="143.85" y2="166.59"/><line class="cls-1" x1="132.53" y1="182.36" x2="132.53" y2="166.59"/><line class="cls-1" x1="121.21" y1="182.36" x2="121.21" y2="166.59"/><line class="cls-1" x1="109.89" y1="182.36" x2="109.89" y2="166.59"/><line class="cls-1" x1="98.57" y1="182.36" x2="98.57" y2="166.59"/><line class="cls-1" x1="57.04" y1="195.17" x2="72.8" y2="195.17"/><line class="cls-1" x1="56.83" y1="184.29" x2="72.6" y2="184.29"/><line class="cls-1" x1="56.83" y1="172.97" x2="72.6" y2="172.97"/><line class="cls-1" x1="56.83" y1="161.65" x2="72.6" y2="161.65"/><line class="cls-1" x1="56.83" y1="150.33" x2="72.6" y2="150.33"/><line class="cls-1" x1="56.83" y1="143.78" x2="72.6" y2="143.78"/><line class="cls-1" x1="56.83" y1="132.46" x2="72.6" y2="132.46"/><line class="cls-1" x1="56.83" y1="121.14" x2="72.6" y2="121.14"/><line class="cls-1" x1="56.83" y1="109.82" x2="72.6" y2="109.82"/><line class="cls-1" x1="56.49" y1="98.95" x2="72.26" y2="98.95"/><line class="cls-1" x1="170.43" y1="195.07" x2="186.19" y2="195.07"/><line class="cls-1" x1="170.09" y1="184.28" x2="185.85" y2="184.28"/><line class="cls-1" x1="170.09" y1="172.96" x2="185.85" y2="172.96"/><line class="cls-1" x1="170.09" y1="161.64" x2="185.85" y2="161.64"/><line class="cls-1" x1="170.09" y1="150.32" x2="185.85" y2="150.32"/><line class="cls-1" x1="170.09" y1="143.77" x2="185.85" y2="143.77"/><line class="cls-1" x1="170.09" y1="132.45" x2="185.85" y2="132.45"/><line class="cls-1" x1="170.09" y1="121.13" x2="185.85" y2="121.13"/><line class="cls-1" x1="170.09" y1="109.81" x2="185.85" y2="109.81"/><line class="cls-1" x1="170.25" y1="99.02" x2="186.02" y2="99.02"/><circle class="cls-4" cx="149.76" cy="174.47" r="3.05"/><line class="cls-2" x1="151.01" y1="174.47" x2="148.59" y2="174.47"/><path class="cls-5" d="M151,174.47a1.71,1.71,0,0,1-2.42,0,1.71,1.71,0,0,1,2.42,0Z"/><line class="cls-2" x1="149.8" y1="175.68" x2="149.8" y2="173.26"/><path class="cls-5" d="M149.8,175.68a1.71,1.71,0,0,1,0-2.42,1.71,1.71,0,0,1,0,2.42Z"/><circle class="cls-6" cx="136.44" cy="103.02" r="2.39"/><line class="cls-2" x1="136.44" y1="104.23" x2="136.44" y2="101.81"/><path class="cls-5" d="M136.44,104.23a1.71,1.71,0,0,1,0-2.42,1.74,1.74,0,0,1,.5,1.21A1.71,1.71,0,0,1,136.44,104.23Z"/><circle class="cls-4" cx="138.19" cy="174.47" r="3.05"/><line class="cls-2" x1="139.44" y1="174.47" x2="137.03" y2="174.47"/><path class="cls-5" d="M139.44,174.47a1.7,1.7,0,0,1-2.41,0,1.7,1.7,0,0,1,2.41,0Z"/><line class="cls-2" x1="138.24" y1="175.68" x2="138.24" y2="173.26"/><path class="cls-5" d="M138.24,175.68a1.63,1.63,0,0,1-.5-1.21,1.66,1.66,0,0,1,.5-1.21,1.74,1.74,0,0,1,.5,1.21A1.71,1.71,0,0,1,138.24,175.68Z"/><circle class="cls-4" cx="126.87" cy="174.47" r="3.05"/><line class="cls-2" x1="128.12" y1="174.47" x2="125.71" y2="174.47"/><path class="cls-5" d="M128.12,174.47a1.7,1.7,0,0,1-2.41,0,1.7,1.7,0,0,1,2.41,0Z"/><line class="cls-2" x1="126.92" y1="175.68" x2="126.92" y2="173.26"/><path class="cls-5" d="M126.92,175.68a1.63,1.63,0,0,1-.5-1.21,1.66,1.66,0,0,1,.5-1.21,1.74,1.74,0,0,1,.5,1.21A1.71,1.71,0,0,1,126.92,175.68Z"/><circle class="cls-4" cx="115.55" cy="174.47" r="3.05"/><line class="cls-2" x1="116.8" y1="174.47" x2="114.39" y2="174.47"/><path class="cls-5" d="M116.8,174.47a1.7,1.7,0,0,1-2.41,0,1.7,1.7,0,0,1,2.41,0Z"/><line class="cls-2" x1="115.6" y1="175.68" x2="115.6" y2="173.26"/><path class="cls-5" d="M115.6,175.68a1.63,1.63,0,0,1-.5-1.21,1.66,1.66,0,0,1,.5-1.21,1.74,1.74,0,0,1,.5,1.21A1.71,1.71,0,0,1,115.6,175.68Z"/><circle class="cls-4" cx="104.23" cy="174.47" r="3.05"/><line class="cls-2" x1="105.49" y1="174.47" x2="103.07" y2="174.47"/><path class="cls-5" d="M105.49,174.47a1.66,1.66,0,0,1-1.21.5,1.63,1.63,0,0,1-1.21-.5,1.71,1.71,0,0,1,1.21-.5A1.74,1.74,0,0,1,105.49,174.47Z"/><line class="cls-2" x1="104.28" y1="175.68" x2="104.28" y2="173.26"/><path class="cls-5" d="M104.28,175.68a1.63,1.63,0,0,1-.5-1.21,1.66,1.66,0,0,1,.5-1.21,1.74,1.74,0,0,1,.5,1.21A1.71,1.71,0,0,1,104.28,175.68Z"/><circle class="cls-4" cx="92.52" cy="174.48" r="3.05"/><line class="cls-2" x1="93.77" y1="174.48" x2="91.36" y2="174.48"/><path class="cls-5" d="M93.77,174.48a1.7,1.7,0,0,1-2.41,0,1.7,1.7,0,0,1,2.41,0Z"/><line class="cls-2" x1="92.57" y1="175.69" x2="92.57" y2="173.27"/><path class="cls-5" d="M92.57,175.69a1.63,1.63,0,0,1-.5-1.21,1.66,1.66,0,0,1,.5-1.21,1.74,1.74,0,0,1,.5,1.21A1.71,1.71,0,0,1,92.57,175.69Z"/><circle class="cls-6" cx="128.9" cy="103.02" r="2.39"/><line class="cls-2" x1="128.9" y1="104.23" x2="128.9" y2="101.81"/><path class="cls-5" d="M128.9,104.23a1.71,1.71,0,0,1-.5-1.21,1.74,1.74,0,0,1,.5-1.21,1.66,1.66,0,0,1,.5,1.21A1.63,1.63,0,0,1,128.9,104.23Z"/><circle class="cls-6" cx="114.83" cy="103.14" r="2.39"/><line class="cls-2" x1="114.83" y1="104.35" x2="114.83" y2="101.93"/><path class="cls-5" d="M114.83,104.35a1.68,1.68,0,0,1-.5-1.21,1.64,1.64,0,0,1,.5-1.21,1.71,1.71,0,0,1,0,2.42Z"/><circle class="cls-6" cx="107.29" cy="103.14" r="2.39"/><line class="cls-2" x1="107.29" y1="104.35" x2="107.29" y2="101.93"/><path class="cls-5" d="M107.29,104.35a1.71,1.71,0,0,1,0-2.42,1.71,1.71,0,0,1,0,2.42Z"/><path class="cls-3" d="M98.42,165.08a7.77,7.77,0,0,1-7.76-7.76V131a7.76,7.76,0,0,1,15.52,0v26.31A7.77,7.77,0,0,1,98.42,165.08Z"/><path class="cls-2" d="M98.42,124.25a6.77,6.77,0,0,1,6.76,6.76v26.31a6.76,6.76,0,0,1-13.52,0V131a6.76,6.76,0,0,1,6.76-6.76m0-2A8.78,8.78,0,0,0,89.66,131v26.31a8.76,8.76,0,0,0,17.52,0V131a8.78,8.78,0,0,0-8.76-8.76Z"/><path class="cls-3" d="M116.88,165.08a7.77,7.77,0,0,1-7.76-7.76V131a7.76,7.76,0,0,1,15.52,0v26.31A7.77,7.77,0,0,1,116.88,165.08Z"/><path class="cls-2" d="M116.88,124.25a6.76,6.76,0,0,1,6.76,6.76v26.31a6.76,6.76,0,0,1-13.52,0V131a6.76,6.76,0,0,1,6.76-6.76m0-2a8.78,8.78,0,0,0-8.76,8.76v26.31a8.76,8.76,0,0,0,17.52,0V131a8.78,8.78,0,0,0-8.76-8.76Z"/><path class="cls-3" d="M154.09,109.67h5a2.78,2.78,0,0,1,2.78,2.78V136.8a2.79,2.79,0,0,1-2.79,2.79h-5a2.79,2.79,0,0,1-2.79-2.79V112.45A2.79,2.79,0,0,1,154.09,109.67Z"/><path class="cls-2" d="M159.05,110.67a1.78,1.78,0,0,1,1.78,1.78V136.8a1.78,1.78,0,0,1-1.78,1.78h-5a1.78,1.78,0,0,1-1.78-1.78V112.45a1.78,1.78,0,0,1,1.78-1.78h5m0-2h-5a3.79,3.79,0,0,0-3.78,3.78V136.8a3.79,3.79,0,0,0,3.78,3.78h5a3.79,3.79,0,0,0,3.78-3.78V112.45a3.79,3.79,0,0,0-3.78-3.78Z"/><path class="cls-3" d="M94.89,107.09a2.53,2.53,0,1,1,2.53-2.53A2.53,2.53,0,0,1,94.89,107.09Z"/><path class="cls-2" d="M94.89,103a1.53,1.53,0,1,1-1.53,1.53A1.53,1.53,0,0,1,94.89,103m0-2a3.53,3.53,0,1,0,3.53,3.53A3.53,3.53,0,0,0,94.89,101Z"/><circle class="cls-3" cx="82.98" cy="109.82" r="4.43"/><path class="cls-2" d="M83,106.38a3.44,3.44,0,1,1-3.43,3.44A3.44,3.44,0,0,1,83,106.38m0-2a5.44,5.44,0,1,0,5.43,5.44A5.44,5.44,0,0,0,83,104.38Z"/><circle class="cls-3" cx="82.98" cy="122.25" r="4.36"/><path class="cls-2" d="M83,118.89a3.36,3.36,0,1,1-3.37,3.36A3.37,3.37,0,0,1,83,118.89m0-2a5.36,5.36,0,1,0,5.36,5.36A5.37,5.37,0,0,0,83,116.89Z"/></g><g id="kabels" class="cls-7"><path class="cls-8" d="M177.09,58.15C141.51,59.61,106.79,69,72.41,78.26c-7.68,2.08-15.63,4.29-21.73,9.41C43,94.12,39.42,104.21,37.35,114a194,194,0,0,0-3.28,25.09c-1,13.11-1.36,26.36.64,39.36,1.28,8.28,3.69,16.76,9.43,22.86s14.13,9,22.3,11.06c6.4,1.58,13,2.75,19.58,1.81s13-4.25,16.36-9.91c3.65-6.11,3.2-13.73,2.64-20.82"/><g class="cls-9"><path class="cls-10" d="M177.6,66.74a420.91,420.91,0,0,0-62.69,7.63Q99.46,77.46,84.27,81.7,76.56,83.86,69,86.31c-4.32,1.39-8.76,2.86-12.42,5.62-7.18,5.39-9,14.45-10.29,22.83A303.22,303.22,0,0,0,43,147c-.39,9.92-.39,20.09,1.22,29.91,1.23,7.54,3.82,15.54,9.64,20.82a24,24,0,0,0,11.5,5.57c4.62,1,9.8,1.69,14.48.9,7.88-1.33,12.44-8.68,14.46-15.81a40.78,40.78,0,0,0,1.15-5.57,1.57,1.57,0,0,0-1-1.85,1.51,1.51,0,0,0-1.84,1c-.92,6.62-3.33,14.53-9.6,18-3.93,2.15-8.65,1.55-12.92,1S61.35,199.54,57.7,197c-6-4.2-8.74-11.63-10.13-18.54-1.83-9-1.87-18.55-1.66-27.74a273.41,273.41,0,0,1,2.6-30.77c1.09-8,1.81-17.67,7.72-23.78,3.05-3.16,7.2-4.85,11.28-6.23,4.67-1.57,9.38-3,14.11-4.36q14.44-4.17,29.18-7.29a412.83,412.83,0,0,1,59.4-8.14c2.47-.15,4.93-.29,7.4-.4,1.92-.09,1.93-3.09,0-3Z"/></g><g class="cls-9"><path class="cls-10" d="M65.86,61c23.93,2.26,47.6,6.6,71.09,11.57q17.33,3.66,34.58,7.63c5.24,1.21,10.53,2.58,15.35,5a35.1,35.1,0,0,1,11.29,9.22c6.52,8,9.61,18.18,11.16,28.23.9,5.8,1.29,11.67,1.66,17.52.34,5.43.62,10.88.51,16.32-.19,10.43-1.88,21.1-7.42,30.12a46.91,46.91,0,0,1-19.73,17.55c-8.21,3.93-17.85,5.55-26.82,3.63a25.36,25.36,0,0,1-12.65-6.41,18.28,18.28,0,0,1-5.43-12,13.86,13.86,0,0,1,1.15-6.23c.78-1.75-1.8-3.28-2.59-1.52-4.12,9.16.51,19.61,8.53,24.89,8.37,5.5,19.41,6,28.94,3.86a49.22,49.22,0,0,0,37.81-40.48c2-11.51,1.2-23.34.35-34.93s-2.35-23.11-7.48-33.53a45.91,45.91,0,0,0-8.58-12.17,38.6,38.6,0,0,0-13.1-8.44c-5.33-2.14-11-3.33-16.58-4.59q-9.19-2.06-18.41-4.09c-24.6-5.39-49.34-10.34-74.38-13.24q-4.62-.53-9.25-1c-1.92-.18-1.91,2.82,0,3Z"/></g><g class="cls-9"><path d="M66.46,71.6q30,3.2,59.78,8.37,15,2.59,29.85,5.7,7.32,1.53,14.61,3.18c4.26,1,8.67,1.83,12.6,3.8,7.51,3.74,10.59,11.37,12.17,19.17a146.1,146.1,0,0,1,2.64,27.76,164.41,164.41,0,0,1-2.22,28.63q-1.19,7.14-3,14.15c-.58,2.26-1.21,4.5-1.89,6.74a22.39,22.39,0,0,1-2.29,5.7c-2.38,3.75-7.55,4-11.51,4.71l-7.36,1.4a45.81,45.81,0,0,1-6.68,1c-3.82.15-7.22-1.2-9.14-4.61-1.63-2.9-2-6.39-2.13-9.65-.05-1.67,0-3.34.1-5,.11-1.93-2.89-1.92-3,0-.39,6.57-.28,15.17,5.38,19.68,3.66,2.92,8.28,2.86,12.69,2.15,5-.8,9.94-1.85,14.89-2.81a17.57,17.57,0,0,0,6.15-2.08,11.07,11.07,0,0,0,4-4.77c2-4.27,3.05-9.12,4.16-13.68a169.55,169.55,0,0,0,4.51-29.88A167.3,167.3,0,0,0,199.9,121c-1-8.31-2.17-17.56-7.35-24.46-5.72-7.61-15.17-9.26-23.92-11.2Q153,81.83,137.17,78.9q-31.27-5.82-62.92-9.44l-7.79-.86c-1.92-.2-1.9,2.8,0,3Z"/></g><g class="cls-9"><path d="M65.87,238.31a185.19,185.19,0,0,0,48.63-9.13c13.44-4.46,28.09-10.62,35.35-23.6,3.71-6.63,5.23-14.62,2.84-22-.59-1.82-3.49-1-2.89.8,2,6.21,1,12.89-2,18.62-3.11,6.06-8.12,10.76-13.85,14.34a90.17,90.17,0,0,1-18.92,8.46,180.76,180.76,0,0,1-49.18,9.48c-1.92.1-1.93,3.1,0,3Z"/></g><g class="cls-9"><path class="cls-10" d="M66.82,227.28a339.46,339.46,0,0,0,38.72-10c10.46-3.49,19.72-9.39,26.59-18.11a53.76,53.76,0,0,0,8.53-15.46c.65-1.82-2.25-2.61-2.89-.8a50.45,50.45,0,0,1-17.71,23.8c-9.55,7-21.39,9.72-32.64,12.67q-10.64,2.79-21.39,5c-1.89.39-1.09,3.29.79,2.89Z"/></g><g class="cls-9"><path class="cls-10" d="M179.08,234c-15.2-1.35-30.63-2.75-45.11-7.88-12.18-4.32-23.58-11.7-31.09-22.39a42,42,0,0,1-7.58-19.08c-.22-1.89-3.23-1.91-3,0,1.54,13.08,9.17,24.44,19.29,32.58,11.67,9.37,26,14.07,40.63,16.61,8.89,1.54,17.88,2.36,26.86,3.16,1.92.18,1.91-2.83,0-3Z"/></g><g class="cls-9"><path d="M178.79,225.37c-11.94-.05-23.36-4.1-34.26-8.63-10.3-4.29-20.71-9.28-28.51-17.47a37.62,37.62,0,0,1-9-15c-.55-1.85-3.45-1.06-2.89.8,3.2,10.68,11.21,19,20.41,24.95a108.31,108.31,0,0,0,16.33,8.36,169.79,169.79,0,0,0,17.16,6.49,71.68,71.68,0,0,0,20.73,3.45,1.5,1.5,0,0,0,0-3Z"/></g></g><g id="receiver"><path class="cls-3" d="M76.61,29.2c-3.13-.21-6.33-.41-9.35.41-2.82.76-5.59,2.41-8.46,1.88-2.42-.44-4.3-2.34-6.61-3.16s-4.75-.55-7.14-.27"/><path d="M76.61,27.7a34,34,0,0,0-8.61.2c-2.72.51-5.33,2.24-8.13,2.19-2.45,0-4.41-2-6.57-2.92-2.64-1.13-5.46-.93-8.25-.61-1.9.22-1.92,3.22,0,3,2.74-.31,5.45-.58,8,.8,2.21,1.21,4.23,2.7,6.86,2.73s5.19-1.34,7.79-2c2.91-.78,6-.55,9-.35,1.93.12,1.92-2.88,0-3Z"/><rect class="cls-2" x="75.37" y="17.5" width="45.97" height="23.29" rx="2.36"/><rect class="cls-3" x="100.1" y="19.63" width="14.99" height="19.04" rx="1.2"/><circle class="cls-11" cx="102.75" cy="21.65" r="0.41"/><circle class="cls-11" cx="107.75" cy="21.65" r="0.41"/><circle class="cls-11" cx="112.75" cy="21.65" r="0.41"/><circle class="cls-11" cx="102.75" cy="24.65" r="0.41"/><circle class="cls-11" cx="107.75" cy="24.65" r="0.41"/><circle class="cls-11" cx="112.75" cy="24.65" r="0.41"/><circle class="cls-11" cx="102.75" cy="27.65" r="0.41"/><circle class="cls-11" cx="107.75" cy="27.65" r="0.41"/><circle class="cls-11" cx="112.75" cy="27.65" r="0.41"/><circle class="cls-11" cx="102.75" cy="30.65" r="0.41"/><circle class="cls-11" cx="107.75" cy="30.65" r="0.41"/><circle class="cls-11" cx="112.75" cy="30.65" r="0.41"/><circle class="cls-11" cx="102.75" cy="33.65" r="0.41"/><circle class="cls-11" cx="107.75" cy="33.65" r="0.41"/><circle class="cls-11" cx="112.75" cy="33.65" r="0.41"/><circle class="cls-11" cx="102.75" cy="36.65" r="0.41"/><circle class="cls-11" cx="107.75" cy="36.65" r="0.41"/><circle class="cls-11" cx="112.75" cy="36.65" r="0.41"/></g><path class="cls-12" d="M108.49,98.8c-3.57-9.17-7.2-18.32-10.72-27.51-3.27-8.53-6.55-18-4.61-27.19,1-4.62,3.79-10.45,9.43-9.77,1,.11,1-1.39,0-1.5-4.3-.52-7.78,2.66-9.44,6.36a27.51,27.51,0,0,0-1.9,13.73c.93,10.13,5.43,19.7,9.09,29.08l6.71,17.2c.34.89,1.8.51,1.44-.4Z"/><path class="cls-12" d="M107.73,99.91a.75.75,0,0,0,0-1.5.75.75,0,0,0,0,1.5Z"/><path class="cls-13" d="M115.77,99.18c0-8.6-4.76-16-8.63-23.34a70.47,70.47,0,0,1-8-26.53c-.32-3.59-1.11-9.54,2.85-11.5.87-.42.11-1.72-.75-1.29-3.11,1.53-3.82,5.24-3.84,8.4a62.44,62.44,0,0,0,1.71,13.81,71.19,71.19,0,0,0,4.56,13.54c1.89,4.19,4.28,8.13,6.35,12.23,2.33,4.6,4.22,9.46,4.2,14.68a.75.75,0,0,0,1.5,0Z"/><path d="M137.38,99.43a375.8,375.8,0,0,1,3.2-43.19c.74-5.53,1.71-11.35.25-16.85a14.81,14.81,0,0,0-3.77-6.71c-2-2-4.6-3.38-7-4.89-4.78-3-10.35-10.17-16.7-6.59a.75.75,0,0,0,.76,1.29c5.5-3.1,10.88,3.86,15,6.48,2.35,1.5,4.9,2.78,6.88,4.77a13.71,13.71,0,0,1,3.63,7.12c1.06,5.22.07,10.67-.61,15.87q-1.32,10-2.09,20.08-.87,11.28-1.05,22.62a.75.75,0,0,0,1.5,0Z"/><path class="cls-10" d="M129,99.53l-1.92-33.74-1-16.87c-.29-5.08-.19-10.48-2.25-15.23a19.89,19.89,0,0,0-9.58-10c-.86-.42-1.63.88-.76,1.3a18.58,18.58,0,0,1,8.78,8.83c2.17,4.64,2,10.06,2.31,15.08l1.83,32.25,1,18.36c0,1,1.55,1,1.5,0Z"/></g></g></svg>