<svg xmlns="http://www.w3.org/2000/svg" viewBox="0 0 394.54 155.61"  xmlns:v="https://vecta.io/nano"><style><![CDATA[.F{stroke-linejoin:round}.G{stroke:#232323}.H{stroke-miterlimit:10}]]></style><g fill="none"><path d="M130.94 51.84l10.8 3.43 10.57-3.67v19.37l-10.46 3.9-10.91-3.75V51.84z" class="F G"/><path d="M5 68.08L249.93 1.05 391.3 51.81l-247.68 75.47L5 68.08zm388.54-16.1v7.44l-249.65 76.69L2.99 74.6v-6.73" stroke="#f09394" stroke-width="2" class="H"/></g><g fill="#fff"><path d="M1 52.69l138.89 59.57V85.78L1 26.21v26.48zm381.79-10l-238.9 69.57V85.78l238.9-69.57v26.48z" stroke="#f09394" stroke-width="2" class="H"/><path d="M127.08 155.05a1.69 1.69 0 0 1-.83-.19c-.81-.47.74-.83 2.48-1.57 2-.84 1.58-7.35 1.58-7.35s-.17 6.64 1.31 7.26 4.57 1.7 1.7 1.85c-2.32.13-5.27.01-6.24 0zM6.05 97.15a1.72 1.72 0 0 1-.83-.2c-.81-.47.74-.83 2.48-1.57 2-.84 1.58-7.35 1.58-7.35s-.17 6.65 1.32 7.26 4.56 1.7 1.7 1.86c-2.3.13-5.3 0-6.25 0zm146.89 57.9a1.69 1.69 0 0 1-.83-.19c-.81-.47.74-.83 2.48-1.57 2-.84 1.58-7.35 1.58-7.35s-.17 6.64 1.32 7.26 4.56 1.7 1.7 1.85c-2.33.13-5.28.01-6.25 0zM376.67 88a1.69 1.69 0 0 1-.83-.19c-.81-.47.74-.83 2.48-1.57 2-.84 1.58-7.35 1.58-7.35s-.17 6.64 1.31 7.26 4.57 1.7 1.7 1.85h-6.24zm-89.22 28.79a1.7 1.7 0 0 1-.83-.2c-.82-.46.74-.83 2.48-1.56 2-.84 1.58-7.35 1.58-7.35s-.17 6.64 1.31 7.26 4.57 1.69 1.7 1.85c-2.32.13-5.27 0-6.24 0z" class="F G"/></g><path d="M141.74 55.27l.11 19.6" fill="none" stroke-linecap="round" class="F G"/><g fill="#232323" stroke="#fff" class="F"><ellipse cx="147.79" cy="63.96" rx="1.98" ry="2.71"/><ellipse cx="136.2" cy="63.96" rx="2.11" ry="2.71"/></g></svg>