<svg xmlns="http://www.w3.org/2000/svg" xmlns:xlink="http://www.w3.org/1999/xlink" viewBox="0 0 242.65 290.76" xmlns:v="https://vecta.io/nano"><style><![CDATA[.H{fill:#f09394}.I{fill:#fff}.J{fill:#232323}.K{stroke:#f09394}.L{stroke-width:.5}.M{stroke-miterlimit:10}]]></style><g stroke-width="2" class="I K M"><path d="M13.37 1h215.95v288.76H13.37z"/><path d="M17.25 4.95h208.2v280.86H17.25z"/><rect x="178.29" y="52.75" width="45.97" height="23.29" rx="2.36"/><path d="M224.26 59.4h3.98v11.1h-3.98z"/><path d="M228.23 62.48h13.41v4.94h-13.41z"/><rect x="178.29" y="216.92" width="45.97" height="23.29" rx="2.36"/><path d="M224.26 223.57h3.98v11.1h-3.98z"/><path d="M228.23 226.66h13.41v4.94h-13.41z"/><rect x="18.39" y="217.82" width="45.97" height="23.29" rx="2.36"/><path d="M14.41 223.35h3.98v11.1h-3.98z"/><path d="M1 226.44h13.41v4.94H1z"/><rect x="18.39" y="53.65" width="45.97" height="23.29" rx="2.36"/><path d="M14.41 59.18h3.98v11.1h-3.98z"/><path d="M1 62.26h13.41v4.94H1z"/></g><path d="M170.43 196.13H72.26V97.96h98.17z" class="H"/><path d="M102.65 107.09v-8.12l38.06.34v7.78h-38.06z" class="I"/><path d="M103.65,100l36.06.32v5.79H103.65V100m-2-2v10.13h40.06V98.32L101.65,98Z" class="H"/><path d="M87.12 181.98v-15.46l68.45.6v14.86H87.12z" class="I"/><path d="M88.12,167.53l66.45.58V181H88.12V167.53m-2-2V183h70.45V166.12l-70.45-.61Z" class="H"/><g class="I K"><g stroke-width="2" class="M"><path d="M143.85 182.36v-15.77m-11.32 15.77v-15.77m-11.32 15.77v-15.77m-11.32 15.77v-15.77m-11.32 15.77v-15.77m-41.53 28.58H72.8m-15.97-10.88H72.6m-15.77-11.32H72.6"/><path d="M56.83 161.65H72.6m-15.77-11.32H72.6m-15.77-6.55H72.6m-15.77-11.32H72.6m-15.77-11.32H72.6m-15.77-11.32H72.6M56.49 98.95h15.77m98.17 96.12h15.76"/><path d="M170.09 184.28h15.76m-15.76-11.32h15.76m-15.76-11.32h15.76m-15.76-11.32h15.76m-15.76-6.55h15.76m-15.76-11.32h15.76m-15.76-11.32h15.76m-15.76-11.32h15.76m-15.6-10.79h15.77"/></g><circle cx="149.76" cy="174.47" r="3.05"/></g><path d="M151.01 174.47h-2.42" class="H"/><path d="M151,174.47a1.71,1.71,0,0,1-2.42,0,1.71,1.71,0,0,1,2.42,0Z" class="J"/><path d="M149.8 175.68v-2.42" class="H"/><path d="M149.8,175.68a1.71,1.71,0,0,1,0-2.42,1.71,1.71,0,0,1,0,2.42Z" class="J"/><circle cx="136.44" cy="103.02" r="2.39" class="I K L"/><path d="M136.44 104.23v-2.42" class="H"/><path d="M136.44 104.23a1.71 1.71 0 0 1 0-2.42 1.74 1.74 0 0 1 .5 1.21 1.71 1.71 0 0 1-.5 1.21z" class="J"/><circle cx="138.19" cy="174.47" r="3.05" class="I K"/><path d="M139.44 174.47h-2.41" class="H"/><path d="M139.44,174.47a1.7,1.7,0,0,1-2.41,0,1.7,1.7,0,0,1,2.41,0Z" class="J"/><path d="M138.24 175.68v-2.42" class="H"/><use xlink:href="#B" class="J"/><circle cx="126.87" cy="174.47" r="3.05" class="I K"/><path d="M128.12 174.47h-2.41" class="H"/><path d="M128.12,174.47a1.7,1.7,0,0,1-2.41,0,1.7,1.7,0,0,1,2.41,0Z" class="J"/><path d="M126.92 175.68v-2.42" class="H"/><use xlink:href="#B" x="-11.32" class="J"/><circle cx="115.55" cy="174.47" r="3.05" class="I K"/><path d="M116.8 174.47h-2.41" class="H"/><path d="M116.8,174.47a1.7,1.7,0,0,1-2.41,0,1.7,1.7,0,0,1,2.41,0Z" class="J"/><path d="M115.6 175.68v-2.42" class="H"/><use xlink:href="#B" x="-22.64" class="J"/><circle cx="104.23" cy="174.47" r="3.05" class="I K"/><path d="M105.49 174.47h-2.42" class="H"/><path d="M105.49 174.47a1.66 1.66 0 0 1-1.21.5 1.63 1.63 0 0 1-1.21-.5 1.71 1.71 0 0 1 1.21-.5 1.74 1.74 0 0 1 1.21.5z" class="J"/><path d="M104.28 175.68v-2.42" class="H"/><use xlink:href="#B" x="-33.96" class="J"/><circle cx="92.52" cy="174.48" r="3.05" class="I K"/><path d="M93.77 174.48h-2.41" class="H"/><path d="M93.77,174.48a1.7,1.7,0,0,1-2.41,0,1.7,1.7,0,0,1,2.41,0Z" class="J"/><path d="M92.57 175.69v-2.42" class="H"/><use xlink:href="#B" x="-45.67" y="0.01" class="J"/><circle cx="128.9" cy="103.02" r="2.39" class="I K L"/><path d="M128.9 104.23v-2.42" class="H"/><path d="M128.9 104.23a1.71 1.71 0 0 1-.5-1.21 1.74 1.74 0 0 1 .5-1.21 1.66 1.66 0 0 1 .5 1.21 1.63 1.63 0 0 1-.5 1.21z" class="J"/><circle cx="114.83" cy="103.14" r="2.39" class="I K L"/><path d="M114.83 104.35v-2.42" class="H"/><path d="M114.83,104.35a1.68,1.68,0,0,1-.5-1.21,1.64,1.64,0,0,1,.5-1.21,1.71,1.71,0,0,1,0,2.42Z" class="J"/><circle cx="107.29" cy="103.14" r="2.39" class="I K L"/><path d="M107.29 104.35v-2.42" class="H"/><path d="M107.29,104.35a1.71,1.71,0,0,1,0-2.42,1.71,1.71,0,0,1,0,2.42Z" class="J"/><use xlink:href="#C" class="I"/><path d="M98.42,124.25a6.76,6.76,0,0,1,6.76,6.76v26.31a6.76,6.76,0,0,1-13.52,0V131a6.76,6.76,0,0,1,6.76-6.76m0-2h0A8.78,8.78,0,0,0,89.66,131v26.31a8.78,8.78,0,0,0,8.76,8.76h0a8.78,8.78,0,0,0,8.76-8.76V131a8.78,8.78,0,0,0-8.76-8.76Z" class="H"/><use xlink:href="#C" x="18.46" class="I"/><path d="M116.88,124.25a6.76,6.76,0,0,1,6.76,6.76v26.31a6.76,6.76,0,0,1-13.52,0V131a6.76,6.76,0,0,1,6.76-6.76m0-2h0a8.78,8.78,0,0,0-8.76,8.76v26.31a8.78,8.78,0,0,0,8.76,8.76h0a8.78,8.78,0,0,0,8.76-8.76V131a8.78,8.78,0,0,0-8.76-8.76Z" class="H"/><rect x="151.31" y="109.67" width="10.52" height="29.92" rx="2.79" class="I"/><path d="M159.05,110.67a1.78,1.78,0,0,1,1.78,1.78V136.8a1.78,1.78,0,0,1-1.78,1.78h-5a1.78,1.78,0,0,1-1.78-1.78V112.45a1.78,1.78,0,0,1,1.78-1.78h5m0-2h-5a3.79,3.79,0,0,0-3.78,3.78V136.8a3.79,3.79,0,0,0,3.78,3.78h5a3.79,3.79,0,0,0,3.78-3.78V112.45a3.79,3.79,0,0,0-3.78-3.78Z" class="H"/><path d="M94.89 107.09a2.53 2.53 0 1 1 2.53-2.53 2.53 2.53 0 0 1-2.53 2.53z" class="I"/><path d="M94.89,103a1.53,1.53,0,1,1-1.53,1.53A1.53,1.53,0,0,1,94.89,103m0-2a3.53,3.53,0,1,0,3.53,3.53A3.53,3.53,0,0,0,94.89,101Z" class="H"/><circle cx="82.98" cy="109.82" r="4.43" class="I"/><path d="M83,106.38a3.44,3.44,0,1,1-3.43,3.44A3.44,3.44,0,0,1,83,106.38m0-2a5.44,5.44,0,1,0,5.43,5.44A5.44,5.44,0,0,0,83,104.38Z" class="H"/><path d="M83,126.61a4.36,4.36,0,1,1,4.36-4.36A4.37,4.37,0,0,1,83,126.61Z" class="I"/><path d="M83,118.89a3.36,3.36,0,1,1-3.37,3.36A3.37,3.37,0,0,1,83,118.89m0-2a5.36,5.36,0,1,0,5.36,5.36A5.37,5.37,0,0,0,83,116.89Z" class="H"/><path d="M177.09,56.65c-24.38,1-48.42,5.69-72.06,11.51-11.72,2.88-23.4,6-35,9.2a69.22,69.22,0,0,0-14.91,5.53A32.25,32.25,0,0,0,44,92.92c-5.91,8.54-8.1,19.25-9.58,29.34a241.49,241.49,0,0,0-2.61,36.83,139,139,0,0,0,1.28,18.35,61.15,61.15,0,0,0,3.78,15,31.22,31.22,0,0,0,8.57,12.14,41.3,41.3,0,0,0,13.27,7.14A84.72,84.72,0,0,0,75,215.6c5.54.74,11.31.67,16.63-1.21A23.12,23.12,0,0,0,103,206.17c3-4.25,3.89-9.55,4-14.65,0-2.69-.17-5.37-.38-8-.15-1.91-3.15-1.93-3,0,.39,5,.81,10.18-.42,15.09a17.63,17.63,0,0,1-8.15,11c-9.41,5.66-21.07,3.42-31,.66a49.83,49.83,0,0,1-13.34-5.53,27.2,27.2,0,0,1-9.64-10.47,47.83,47.83,0,0,1-4.41-13.91,116.25,116.25,0,0,1-1.68-17.06A236.08,236.08,0,0,1,36.62,128c1.19-10.1,2.85-20.82,7.71-29.9a30.36,30.36,0,0,1,9.09-10.63A47.13,47.13,0,0,1,67.13,81.3C78,78,89,75.3,100,72.52c22.48-5.71,45.28-10.6,68.45-12.36q4.34-.33,8.68-.51c1.92-.08,1.93-3.08,0-3Z"/><path d="M177.6 66.74a420.91 420.91 0 0 0-62.69 7.63q-15.45 3.09-30.64 7.33-7.71 2.16-15.27 4.61c-4.32 1.39-8.76 2.86-12.42 5.62-7.18 5.39-9 14.45-10.29 22.83A303.22 303.22 0 0 0 43 147c-.39 9.92-.39 20.09 1.22 29.91 1.23 7.54 3.82 15.54 9.64 20.82a24 24 0 0 0 11.5 5.57c4.62 1 9.8 1.69 14.48.9 7.88-1.33 12.44-8.68 14.46-15.81a40.78 40.78 0 0 0 1.15-5.57 1.57 1.57 0 0 0-1-1.85 1.51 1.51 0 0 0-1.84 1c-.92 6.62-3.33 14.53-9.6 18-3.93 2.15-8.65 1.55-12.92 1s-8.74-1.43-12.39-3.97c-6-4.2-8.74-11.63-10.13-18.54-1.83-9-1.87-18.55-1.66-27.74a273.41 273.41 0 0 1 2.6-30.77c1.09-8 1.81-17.67 7.72-23.78 3.05-3.16 7.2-4.85 11.28-6.23 4.67-1.57 9.38-3 14.11-4.36q14.44-4.17 29.18-7.29a412.83 412.83 0 0 1 59.4-8.14l7.4-.4c1.92-.09 1.93-3.09 0-3z" fill="red"/><defs ><path id="B" d="M138.24 175.68a1.63 1.63 0 0 1-.5-1.21 1.66 1.66 0 0 1 .5-1.21 1.74 1.74 0 0 1 .5 1.21 1.71 1.71 0 0 1-.5 1.21z"/><path id="C" d="M98.42 165.08a7.77 7.77 0 0 1-7.76-7.76V131a7.76 7.76 0 0 1 15.52 0v26.31a7.77 7.77 0 0 1-7.76 7.77z"/></defs></svg>