<svg xmlns="http://www.w3.org/2000/svg" viewBox="0 0 242.65 290.76"><defs><style>.cls-1,.cls-3,.cls-4,.cls-6{fill:#fff;}.cls-1,.cls-4,.cls-6{stroke:#f09394;stroke-miterlimit:10;}.cls-1{stroke-width:2px;}.cls-2{fill:#f09394;}.cls-5{fill:#232323;}.cls-6{stroke-width:0.5px;}.cls-7{fill:red;}</style></defs><g id="Laag_2" data-name="Laag 2"><g id="Step_4_-_3" data-name="Step 4 - 3"><rect class="cls-1" x="13.37" y="1" width="215.95" height="288.76"/><rect class="cls-1" x="17.25" y="4.95" width="208.2" height="280.86"/><g id="motor_above" data-name="motor above"><rect class="cls-1" x="178.29" y="52.75" width="45.97" height="23.29" rx="2.36"/><rect class="cls-1" x="224.26" y="59.4" width="3.98" height="11.1"/><rect class="cls-1" x="228.23" y="62.48" width="13.41" height="4.94"/></g><g id="motor_above-2" data-name="motor above"><rect class="cls-1" x="178.29" y="216.92" width="45.97" height="23.29" rx="2.36"/><rect class="cls-1" x="224.26" y="223.57" width="3.98" height="11.1"/><rect class="cls-1" x="228.23" y="226.66" width="13.41" height="4.94"/></g><g id="motor_above-3" data-name="motor above"><rect class="cls-1" x="18.39" y="217.82" width="45.97" height="23.29" rx="2.36"/><rect class="cls-1" x="14.41" y="223.35" width="3.98" height="11.1"/><rect class="cls-1" x="1" y="226.44" width="13.41" height="4.94"/></g><g id="motor_above-4" data-name="motor above"><rect class="cls-1" x="18.39" y="53.65" width="45.97" height="23.29" rx="2.36"/><rect class="cls-1" x="14.41" y="59.18" width="3.98" height="11.1"/><rect class="cls-1" x="1" y="62.26" width="13.41" height="4.94"/></g><g id="motor_controller" data-name="motor controller"><rect class="cls-2" x="72.26" y="97.96" width="98.17" height="98.17" transform="translate(242.69 294.09) rotate(180)"/><polygon class="cls-3" points="102.65 107.09 102.65 98.97 140.71 99.31 140.71 107.09 102.65 107.09"/><path class="cls-2" d="M103.65,100l36.06.32v5.79H103.65V100m-2-2v10.13h40.06V98.32L101.65,98Z"/><polygon class="cls-3" points="87.12 181.98 87.12 166.52 155.57 167.12 155.57 181.98 87.12 181.98"/><path class="cls-2" d="M88.12,167.53l66.45.58V181H88.12V167.53m-2-2V183h70.45V166.12l-70.45-.61Z"/><line class="cls-1" x1="143.85" y1="182.36" x2="143.85" y2="166.59"/><line class="cls-1" x1="132.53" y1="182.36" x2="132.53" y2="166.59"/><line class="cls-1" x1="121.21" y1="182.36" x2="121.21" y2="166.59"/><line class="cls-1" x1="109.89" y1="182.36" x2="109.89" y2="166.59"/><line class="cls-1" x1="98.57" y1="182.36" x2="98.57" y2="166.59"/><line class="cls-1" x1="57.04" y1="195.17" x2="72.8" y2="195.17"/><line class="cls-1" x1="56.83" y1="184.29" x2="72.6" y2="184.29"/><line class="cls-1" x1="56.83" y1="172.97" x2="72.6" y2="172.97"/><line class="cls-1" x1="56.83" y1="161.65" x2="72.6" y2="161.65"/><line class="cls-1" x1="56.83" y1="150.33" x2="72.6" y2="150.33"/><line class="cls-1" x1="56.83" y1="143.78" x2="72.6" y2="143.78"/><line class="cls-1" x1="56.83" y1="132.46" x2="72.6" y2="132.46"/><line class="cls-1" x1="56.83" y1="121.14" x2="72.6" y2="121.14"/><line class="cls-1" x1="56.83" y1="109.82" x2="72.6" y2="109.82"/><line class="cls-1" x1="56.49" y1="98.95" x2="72.26" y2="98.95"/><line class="cls-1" x1="170.43" y1="195.07" x2="186.19" y2="195.07"/><line class="cls-1" x1="170.09" y1="184.28" x2="185.85" y2="184.28"/><line class="cls-1" x1="170.09" y1="172.96" x2="185.85" y2="172.96"/><line class="cls-1" x1="170.09" y1="161.64" x2="185.85" y2="161.64"/><line class="cls-1" x1="170.09" y1="150.32" x2="185.85" y2="150.32"/><line class="cls-1" x1="170.09" y1="143.77" x2="185.85" y2="143.77"/><line class="cls-1" x1="170.09" y1="132.45" x2="185.85" y2="132.45"/><line class="cls-1" x1="170.09" y1="121.13" x2="185.85" y2="121.13"/><line class="cls-1" x1="170.09" y1="109.81" x2="185.85" y2="109.81"/><line class="cls-1" x1="170.25" y1="99.02" x2="186.02" y2="99.02"/><circle class="cls-4" cx="149.76" cy="174.47" r="3.05"/><line class="cls-2" x1="151.01" y1="174.47" x2="148.59" y2="174.47"/><path class="cls-5" d="M151,174.47a1.71,1.71,0,0,1-2.42,0,1.71,1.71,0,0,1,2.42,0Z"/><line class="cls-2" x1="149.8" y1="175.68" x2="149.8" y2="173.26"/><path class="cls-5" d="M149.8,175.68a1.71,1.71,0,0,1,0-2.42,1.71,1.71,0,0,1,0,2.42Z"/><circle class="cls-6" cx="136.44" cy="103.02" r="2.39"/><line class="cls-2" x1="136.44" y1="104.23" x2="136.44" y2="101.81"/><path class="cls-5" d="M136.44,104.23a1.71,1.71,0,0,1,0-2.42,1.74,1.74,0,0,1,.5,1.21A1.71,1.71,0,0,1,136.44,104.23Z"/><circle class="cls-4" cx="138.19" cy="174.47" r="3.05"/><line class="cls-2" x1="139.44" y1="174.47" x2="137.03" y2="174.47"/><path class="cls-5" d="M139.44,174.47a1.7,1.7,0,0,1-2.41,0,1.7,1.7,0,0,1,2.41,0Z"/><line class="cls-2" x1="138.24" y1="175.68" x2="138.24" y2="173.26"/><path class="cls-5" d="M138.24,175.68a1.63,1.63,0,0,1-.5-1.21,1.66,1.66,0,0,1,.5-1.21,1.74,1.74,0,0,1,.5,1.21A1.71,1.71,0,0,1,138.24,175.68Z"/><circle class="cls-4" cx="126.87" cy="174.47" r="3.05"/><line class="cls-2" x1="128.12" y1="174.47" x2="125.71" y2="174.47"/><path class="cls-5" d="M128.12,174.47a1.7,1.7,0,0,1-2.41,0,1.7,1.7,0,0,1,2.41,0Z"/><line class="cls-2" x1="126.92" y1="175.68" x2="126.92" y2="173.26"/><path class="cls-5" d="M126.92,175.68a1.63,1.63,0,0,1-.5-1.21,1.66,1.66,0,0,1,.5-1.21,1.74,1.74,0,0,1,.5,1.21A1.71,1.71,0,0,1,126.92,175.68Z"/><circle class="cls-4" cx="115.55" cy="174.47" r="3.05"/><line class="cls-2" x1="116.8" y1="174.47" x2="114.39" y2="174.47"/><path class="cls-5" d="M116.8,174.47a1.7,1.7,0,0,1-2.41,0,1.7,1.7,0,0,1,2.41,0Z"/><line class="cls-2" x1="115.6" y1="175.68" x2="115.6" y2="173.26"/><path class="cls-5" d="M115.6,175.68a1.63,1.63,0,0,1-.5-1.21,1.66,1.66,0,0,1,.5-1.21,1.74,1.74,0,0,1,.5,1.21A1.71,1.71,0,0,1,115.6,175.68Z"/><circle class="cls-4" cx="104.23" cy="174.47" r="3.05"/><line class="cls-2" x1="105.49" y1="174.47" x2="103.07" y2="174.47"/><path class="cls-5" d="M105.49,174.47a1.66,1.66,0,0,1-1.21.5,1.63,1.63,0,0,1-1.21-.5,1.71,1.71,0,0,1,1.21-.5A1.74,1.74,0,0,1,105.49,174.47Z"/><line class="cls-2" x1="104.28" y1="175.68" x2="104.28" y2="173.26"/><path class="cls-5" d="M104.28,175.68a1.63,1.63,0,0,1-.5-1.21,1.66,1.66,0,0,1,.5-1.21,1.74,1.74,0,0,1,.5,1.21A1.71,1.71,0,0,1,104.28,175.68Z"/><circle class="cls-4" cx="92.52" cy="174.48" r="3.05"/><line class="cls-2" x1="93.77" y1="174.48" x2="91.36" y2="174.48"/><path class="cls-5" d="M93.77,174.48a1.7,1.7,0,0,1-2.41,0,1.7,1.7,0,0,1,2.41,0Z"/><line class="cls-2" x1="92.57" y1="175.69" x2="92.57" y2="173.27"/><path class="cls-5" d="M92.57,175.69a1.63,1.63,0,0,1-.5-1.21,1.66,1.66,0,0,1,.5-1.21,1.74,1.74,0,0,1,.5,1.21A1.71,1.71,0,0,1,92.57,175.69Z"/><circle class="cls-6" cx="128.9" cy="103.02" r="2.39"/><line class="cls-2" x1="128.9" y1="104.23" x2="128.9" y2="101.81"/><path class="cls-5" d="M128.9,104.23a1.71,1.71,0,0,1-.5-1.21,1.74,1.74,0,0,1,.5-1.21,1.66,1.66,0,0,1,.5,1.21A1.63,1.63,0,0,1,128.9,104.23Z"/><circle class="cls-6" cx="114.83" cy="103.14" r="2.39"/><line class="cls-2" x1="114.83" y1="104.35" x2="114.83" y2="101.93"/><path class="cls-5" d="M114.83,104.35a1.68,1.68,0,0,1-.5-1.21,1.64,1.64,0,0,1,.5-1.21,1.71,1.71,0,0,1,0,2.42Z"/><circle class="cls-6" cx="107.29" cy="103.14" r="2.39"/><line class="cls-2" x1="107.29" y1="104.35" x2="107.29" y2="101.93"/><path class="cls-5" d="M107.29,104.35a1.71,1.71,0,0,1,0-2.42,1.71,1.71,0,0,1,0,2.42Z"/><path class="cls-3" d="M98.42,165.08a7.77,7.77,0,0,1-7.76-7.76V131a7.76,7.76,0,0,1,15.52,0v26.31A7.77,7.77,0,0,1,98.42,165.08Z"/><path class="cls-2" d="M98.42,124.25a6.76,6.76,0,0,1,6.76,6.76v26.31a6.76,6.76,0,0,1-13.52,0V131a6.76,6.76,0,0,1,6.76-6.76m0-2h0A8.78,8.78,0,0,0,89.66,131v26.31a8.78,8.78,0,0,0,8.76,8.76h0a8.78,8.78,0,0,0,8.76-8.76V131a8.78,8.78,0,0,0-8.76-8.76Z"/><path class="cls-3" d="M116.88,165.08a7.77,7.77,0,0,1-7.76-7.76V131a7.76,7.76,0,0,1,15.52,0v26.31A7.77,7.77,0,0,1,116.88,165.08Z"/><path class="cls-2" d="M116.88,124.25a6.76,6.76,0,0,1,6.76,6.76v26.31a6.76,6.76,0,0,1-13.52,0V131a6.76,6.76,0,0,1,6.76-6.76m0-2h0a8.78,8.78,0,0,0-8.76,8.76v26.31a8.78,8.78,0,0,0,8.76,8.76h0a8.78,8.78,0,0,0,8.76-8.76V131a8.78,8.78,0,0,0-8.76-8.76Z"/><rect class="cls-3" x="151.31" y="109.67" width="10.52" height="29.92" rx="2.79"/><path class="cls-2" d="M159.05,110.67a1.78,1.78,0,0,1,1.78,1.78V136.8a1.78,1.78,0,0,1-1.78,1.78h-5a1.78,1.78,0,0,1-1.78-1.78V112.45a1.78,1.78,0,0,1,1.78-1.78h5m0-2h-5a3.79,3.79,0,0,0-3.78,3.78V136.8a3.79,3.79,0,0,0,3.78,3.78h5a3.79,3.79,0,0,0,3.78-3.78V112.45a3.79,3.79,0,0,0-3.78-3.78Z"/><path class="cls-3" d="M94.89,107.09a2.53,2.53,0,1,1,2.53-2.53A2.53,2.53,0,0,1,94.89,107.09Z"/><path class="cls-2" d="M94.89,103a1.53,1.53,0,1,1-1.53,1.53A1.53,1.53,0,0,1,94.89,103m0-2a3.53,3.53,0,1,0,3.53,3.53A3.53,3.53,0,0,0,94.89,101Z"/><path class="cls-3" d="M83,114.25a4.43,4.43,0,1,1,4.43-4.43A4.43,4.43,0,0,1,83,114.25Z"/><path class="cls-2" d="M83,106.38a3.44,3.44,0,1,1-3.43,3.44A3.44,3.44,0,0,1,83,106.38m0-2a5.44,5.44,0,1,0,5.43,5.44A5.44,5.44,0,0,0,83,104.38Z"/><path class="cls-3" d="M83,126.61a4.36,4.36,0,1,1,4.36-4.36A4.36,4.36,0,0,1,83,126.61Z"/><path class="cls-2" d="M83,118.89a3.36,3.36,0,1,1-3.37,3.36A3.37,3.37,0,0,1,83,118.89m0-2a5.36,5.36,0,1,0,5.36,5.36A5.37,5.37,0,0,0,83,116.89Z"/></g><path class="cls-7" d="M64.84,61c23.93,2.26,47.59,6.6,71.09,11.57q17.31,3.66,34.57,7.63c5.25,1.21,10.54,2.58,15.36,5a35.21,35.21,0,0,1,11.29,9.22c6.52,8,9.61,18.18,11.16,28.23.89,5.8,1.29,11.67,1.65,17.52.35,5.43.62,10.88.52,16.32-.2,10.43-1.89,21.1-7.43,30.12a46.83,46.83,0,0,1-19.72,17.55c-8.21,3.93-17.86,5.55-26.82,3.63a25.43,25.43,0,0,1-12.66-6.41,18.23,18.23,0,0,1-5.42-12,13.71,13.71,0,0,1,1.14-6.23c.79-1.75-1.8-3.28-2.59-1.52-4.11,9.16.52,19.61,8.53,24.89,8.37,5.5,19.42,6,29,3.86a49.22,49.22,0,0,0,37.81-40.48c2-11.51,1.2-23.34.35-34.93s-2.35-23.11-7.49-33.53a45.69,45.69,0,0,0-8.58-12.17,38.55,38.55,0,0,0-13.09-8.44c-5.34-2.14-11-3.33-16.58-4.59q-9.21-2.06-18.42-4.09c-24.6-5.39-49.33-10.34-74.37-13.24q-4.62-.53-9.25-1c-1.92-.18-1.91,2.82,0,3Z"/><path d="M65.43,71.6q30,3.2,59.79,8.37,15,2.59,29.85,5.7,7.32,1.53,14.61,3.18c4.26,1,8.66,1.83,12.6,3.8,7.51,3.74,10.58,11.37,12.17,19.17a146.92,146.92,0,0,1,2.64,27.76,166.38,166.38,0,0,1-2.22,28.63q-1.19,7.14-3,14.15c-.59,2.26-1.22,4.5-1.89,6.74a22.76,22.76,0,0,1-2.29,5.7c-2.39,3.75-7.56,4-11.51,4.71l-7.36,1.4a45.74,45.74,0,0,1-6.69,1c-3.82.15-7.22-1.2-9.13-4.61-1.64-2.9-2-6.39-2.14-9.65-.05-1.67,0-3.34.1-5,.12-1.93-2.89-1.92-3,0-.38,6.57-.27,15.17,5.38,19.68,3.66,2.92,8.28,2.86,12.69,2.15,5-.8,9.94-1.85,14.89-2.81a17.62,17.62,0,0,0,6.16-2.08,11.14,11.14,0,0,0,4-4.77c2-4.27,3-9.12,4.16-13.68a169.53,169.53,0,0,0,4.5-29.88,166.4,166.4,0,0,0-.9-30.27c-1-8.31-2.18-17.56-7.36-24.46-5.71-7.61-15.17-9.26-23.91-11.2q-15.68-3.48-31.46-6.41-31.29-5.82-62.92-9.44l-7.8-.86c-1.91-.2-1.9,2.8,0,3Z"/></g></g></svg>