<svg xmlns="http://www.w3.org/2000/svg" viewBox="0 0 405.87 165.78"  xmlns:v="https://vecta.io/nano"><style><![CDATA[.E{stroke:#f09394}.F{stroke-miterlimit:10}.G{stroke-width:2}.H{stroke-linejoin:round}]]></style><g fill="none" class="E F G"><path d="M3.03 96.69l244.93-67.03 141.37 50.76-247.68 75.47L3.03 96.69zm388.54-16.11v7.45l-249.64 76.69L1.02 103.2v-6.72"/><path d="M141.93 164.72l-.28-8.83"/></g><g fill="#fff" class="E F G"><path d="M1.02 95.29l140.77 59.98v-26.48L1.02 68.81v26.48z"/><path d="M391.57 80.58l-249.64 74.29-1.18-26.14 250.82-73.05v24.9z"/></g><path d="M391.57 55.68L247.82 1.45l.14 28.21M1.02 68.81l246.8-67.36" fill="none" class="E F G"/><g fill="#232323" stroke="#fff" class="H"><circle cx="196.3" cy="125.89" r="3.17"/><circle cx="353.47" cy="80.42" r="3.17"/><circle cx="63.34" cy="66.53" r="3.17"/><circle cx="220.51" cy="23.05" r="3.17"/></g><path d="M200.82 127.89l47.72 20.34M67.58 68.24l47.73 20.35m109.71-63.63l47.72 20.34m84.9 36.3l47.73 20.34" fill="#fff" stroke-linecap="round" stroke="#232323" class="H"/></svg>