<svg xmlns="http://www.w3.org/2000/svg" xmlns:xlink="http://www.w3.org/1999/xlink" viewBox="0 0 242.65 290.76" xmlns:v="https://vecta.io/nano"><style><![CDATA[.H{fill:#f09394}.I{fill:#fff}.J{fill:#232323}.K{stroke:#f09394}.L{stroke-width:.5}.M{stroke-miterlimit:10}]]></style><g stroke-width="2" class="I K M"><path d="M13.37 1h215.95v288.76H13.37z"/><path d="M17.25 4.95h208.2v280.86H17.25z"/><rect x="178.29" y="52.75" width="45.97" height="23.29" rx="2.36"/><path d="M224.26 59.4h3.98v11.1h-3.98z"/><path d="M228.23 62.48h13.41v4.94h-13.41z"/><rect x="178.29" y="216.92" width="45.97" height="23.29" rx="2.36"/><path d="M224.26 223.57h3.98v11.1h-3.98z"/><path d="M228.23 226.66h13.41v4.94h-13.41z"/><rect x="18.39" y="217.82" width="45.97" height="23.29" rx="2.36"/><path d="M14.41 223.35h3.98v11.1h-3.98z"/><path d="M1 226.44h13.41v4.94H1z"/><rect x="18.39" y="53.65" width="45.97" height="23.29" rx="2.36"/><path d="M14.41 59.18h3.98v11.1h-3.98z"/><path d="M1 62.26h13.41v4.94H1z"/></g><path d="M170.43 196.13H72.26V97.96h98.17z" class="H"/><path d="M102.65 107.09v-8.12l38.06.34v7.78h-38.06z" class="I"/><path d="M103.65,100l36.06.32v5.79H103.65V100m-2-2v10.13h40.06V98.32L101.65,98Z" class="H"/><path d="M87.12 181.98v-15.46l68.45.6v14.86H87.12z" class="I"/><path d="M88.12,167.53l66.45.58V181H88.12V167.53m-2-2V183h70.45V166.12l-70.45-.61Z" class="H"/><g class="I K"><g stroke-width="2" class="M"><path d="M143.85 182.36v-15.77m-11.32 15.77v-15.77m-11.32 15.77v-15.77m-11.32 15.77v-15.77m-11.32 15.77v-15.77m-41.53 28.58H72.8m-15.97-10.88H72.6m-15.77-11.32H72.6"/><path d="M56.83 161.65H72.6m-15.77-11.32H72.6m-15.77-6.55H72.6m-15.77-11.32H72.6m-15.77-11.32H72.6m-15.77-11.32H72.6M56.49 98.95h15.77m98.17 96.12h15.76"/><path d="M170.09 184.28h15.76m-15.76-11.32h15.76m-15.76-11.32h15.76m-15.76-11.32h15.76m-15.76-6.55h15.76m-15.76-11.32h15.76m-15.76-11.32h15.76m-15.76-11.32h15.76m-15.6-10.79h15.77"/></g><circle cx="149.76" cy="174.47" r="3.05"/></g><path d="M151.01 174.47h-2.42" class="H"/><path d="M151,174.47a1.71,1.71,0,0,1-2.42,0,1.71,1.71,0,0,1,2.42,0Z" class="J"/><path d="M149.8 175.68v-2.42" class="H"/><path d="M149.8,175.68a1.71,1.71,0,0,1,0-2.42,1.71,1.71,0,0,1,0,2.42Z" class="J"/><circle cx="136.44" cy="103.02" r="2.39" class="I K L"/><path d="M136.44 104.23v-2.42" class="H"/><path d="M136.44 104.23a1.71 1.71 0 0 1 0-2.42 1.74 1.74 0 0 1 .5 1.21 1.71 1.71 0 0 1-.5 1.21z" class="J"/><circle cx="138.19" cy="174.47" r="3.05" class="I K"/><path d="M139.44 174.47h-2.41" class="H"/><path d="M139.44,174.47a1.7,1.7,0,0,1-2.41,0,1.7,1.7,0,0,1,2.41,0Z" class="J"/><path d="M138.24 175.68v-2.42" class="H"/><use xlink:href="#B" class="J"/><circle cx="126.87" cy="174.47" r="3.05" class="I K"/><path d="M128.12 174.47h-2.41" class="H"/><path d="M128.12,174.47a1.7,1.7,0,0,1-2.41,0,1.7,1.7,0,0,1,2.41,0Z" class="J"/><path d="M126.92 175.68v-2.42" class="H"/><use xlink:href="#B" x="-11.32" class="J"/><circle cx="115.55" cy="174.47" r="3.05" class="I K"/><path d="M116.8 174.47h-2.41" class="H"/><path d="M116.8,174.47a1.7,1.7,0,0,1-2.41,0,1.7,1.7,0,0,1,2.41,0Z" class="J"/><path d="M115.6 175.68v-2.42" class="H"/><use xlink:href="#B" x="-22.64" class="J"/><circle cx="104.23" cy="174.47" r="3.05" class="I K"/><path d="M105.49 174.47h-2.42" class="H"/><path d="M105.49 174.47a1.66 1.66 0 0 1-1.21.5 1.63 1.63 0 0 1-1.21-.5 1.71 1.71 0 0 1 1.21-.5 1.74 1.74 0 0 1 1.21.5z" class="J"/><path d="M104.28 175.68v-2.42" class="H"/><use xlink:href="#B" x="-33.96" class="J"/><circle cx="92.52" cy="174.48" r="3.05" class="I K"/><path d="M93.77 174.48h-2.41" class="H"/><path d="M93.77,174.48a1.7,1.7,0,0,1-2.41,0,1.7,1.7,0,0,1,2.41,0Z" class="J"/><path d="M92.57 175.69v-2.42" class="H"/><use xlink:href="#B" x="-45.67" y="0.01" class="J"/><circle cx="128.9" cy="103.02" r="2.39" class="I K L"/><path d="M128.9 104.23v-2.42" class="H"/><path d="M128.9 104.23a1.71 1.71 0 0 1-.5-1.21 1.74 1.74 0 0 1 .5-1.21 1.66 1.66 0 0 1 .5 1.21 1.63 1.63 0 0 1-.5 1.21z" class="J"/><circle cx="114.83" cy="103.14" r="2.39" class="I K L"/><path d="M114.83 104.35v-2.42" class="H"/><path d="M114.83,104.35a1.68,1.68,0,0,1-.5-1.21,1.64,1.64,0,0,1,.5-1.21,1.71,1.71,0,0,1,0,2.42Z" class="J"/><circle cx="107.29" cy="103.14" r="2.39" class="I K L"/><path d="M107.29 104.35v-2.42" class="H"/><path d="M107.29,104.35a1.71,1.71,0,0,1,0-2.42,1.71,1.71,0,0,1,0,2.42Z" class="J"/><use xlink:href="#C" class="I"/><path d="M98.42,124.25a6.76,6.76,0,0,1,6.76,6.76v26.31a6.76,6.76,0,0,1-13.52,0V131a6.76,6.76,0,0,1,6.76-6.76m0-2h0A8.78,8.78,0,0,0,89.66,131v26.31a8.78,8.78,0,0,0,8.76,8.76h0a8.78,8.78,0,0,0,8.76-8.76V131a8.78,8.78,0,0,0-8.76-8.76Z" class="H"/><use xlink:href="#C" x="18.46" class="I"/><path d="M116.88,124.25a6.76,6.76,0,0,1,6.76,6.76v26.31a6.76,6.76,0,0,1-13.52,0V131a6.76,6.76,0,0,1,6.76-6.76m0-2h0a8.78,8.78,0,0,0-8.76,8.76v26.31a8.78,8.78,0,0,0,8.76,8.76h0a8.78,8.78,0,0,0,8.76-8.76V131a8.78,8.78,0,0,0-8.76-8.76Z" class="H"/><path d="M154.09 109.67h5a2.79 2.79 0 0 1 2.79 2.79v24.34a2.78 2.78 0 0 1-2.78 2.78h-5a2.79 2.79 0 0 1-2.79-2.79v-24.34a2.78 2.78 0 0 1 2.78-2.78z" class="I"/><path d="M159.05,110.67a1.78,1.78,0,0,1,1.78,1.78V136.8a1.78,1.78,0,0,1-1.78,1.78h-5a1.78,1.78,0,0,1-1.78-1.78V112.45a1.78,1.78,0,0,1,1.78-1.78h5m0-2h-5a3.79,3.79,0,0,0-3.78,3.78V136.8a3.79,3.79,0,0,0,3.78,3.78h5a3.79,3.79,0,0,0,3.78-3.78V112.45a3.79,3.79,0,0,0-3.78-3.78Z" class="H"/><path d="M94.89 107.09a2.53 2.53 0 1 1 2.53-2.53 2.53 2.53 0 0 1-2.53 2.53z" class="I"/><path d="M94.89,103a1.53,1.53,0,1,1-1.53,1.53A1.53,1.53,0,0,1,94.89,103m0-2a3.53,3.53,0,1,0,3.53,3.53A3.53,3.53,0,0,0,94.89,101Z" class="H"/><path d="M83,114.25a4.44,4.44,0,1,1,4.43-4.43A4.43,4.43,0,0,1,83,114.25Z" class="I"/><path d="M83,106.38a3.44,3.44,0,1,1-3.43,3.44A3.44,3.44,0,0,1,83,106.38m0-2a5.44,5.44,0,1,0,5.43,5.44A5.44,5.44,0,0,0,83,104.38Z" class="H"/><path d="M83,126.61a4.36,4.36,0,1,1,4.36-4.36A4.37,4.37,0,0,1,83,126.61Z" class="I"/><path d="M83,118.89a3.36,3.36,0,1,1-3.37,3.36A3.37,3.37,0,0,1,83,118.89m0-2a5.36,5.36,0,1,0,5.36,5.36A5.37,5.37,0,0,0,83,116.89Z" class="H"/><path d="M177.68 231.62c-15.2-1.35-30.62-2.75-45.11-7.89-12.18-4.31-23.57-11.73-31.09-22.39a42.1 42.1 0 0 1-7.58-19.07c-.22-1.89-3.23-1.91-3 0 1.55 13.08 9.17 24.44 19.3 32.57 11.67 9.37 26 14.08 40.62 16.62 8.89 1.54 17.88 2.36 26.86 3.16 1.92.17 1.91-2.83 0-3z" fill="red"/><path d="M177.4,223c-12,0-23.36-4.09-34.27-8.63-10.3-4.28-20.71-9.27-28.51-17.46a37.62,37.62,0,0,1-9-14.95c-.55-1.85-3.45-1.06-2.89.79,3.2,10.69,11.21,19,20.41,25a108.79,108.79,0,0,0,16.33,8.36,169.79,169.79,0,0,0,17.16,6.49A71.68,71.68,0,0,0,177.4,226a1.5,1.5,0,0,0,0-3Z"/><defs ><path id="B" d="M138.24 175.68a1.63 1.63 0 0 1-.5-1.21 1.66 1.66 0 0 1 .5-1.21 1.74 1.74 0 0 1 .5 1.21 1.71 1.71 0 0 1-.5 1.21z"/><path id="C" d="M98.42 165.08a7.77 7.77 0 0 1-7.76-7.76V131a7.76 7.76 0 0 1 15.52 0v26.31a7.77 7.77 0 0 1-7.76 7.77z"/></defs></svg>