<svg xmlns="http://www.w3.org/2000/svg" viewBox="0 0 435.84 187.72"  xmlns:v="https://vecta.io/nano"><style><![CDATA[.H{stroke:#f09394}.I{stroke-width:2}.J{stroke-miterlimit:10}.K{fill:#fff}.L{fill:#f09394}.M{fill:none}]]></style><path d="M226,128.69,193.72,114.9a.7.7,0,0,0-.92.39l-9.88,25,30.4,16.59Z" class="H I J K"/><ellipse cx="219.68" cy="142.76" rx="15.44" ry="9.88" transform="matrix(.410719 -.911762 .911762 .410719 -.72 284.41)" class="L"/><g class="H I K"><ellipse cx="188.83" cy="127.75" rx="13.81" ry="8.86" transform="matrix(.410719 -.911762 .911762 .410719 -5.22 247.44)"/><path d="M226.11 140.75l-3.06-1.54a4.59 4.59 0 0 0-3.73 1.54 6.68 6.68 0 0 0-1.59 5.6c.27 2.7 4 3.4 4 3.4s-2.44-2.27-.57-5.93 4.95-3.07 4.95-3.07z" class="J"/></g><path d="M226.11,140.75s.7.22.89.55a4.56,4.56,0,0,1,.33,2.07,10.18,10.18,0,0,1-2,5.07,3.79,3.79,0,0,1-3.26,1.39l-.33-.08" class="H I J M"/><g class="K H I J"><path d="M225.3 142.76l8.95 4.44s-3.32 1-1.69 4.73l-10-4.83s-.56-4.05 2.74-4.34z"/><path d="M232.56,151.93s2.6.64,3.21-1.62c.49-1.83-.27-2.24-1.52-3.11"/></g><g fill="#232323"><ellipse cx="221.89" cy="132.73" rx="1.28" ry="1.04" transform="matrix(.256121 -.966645 .966645 .256121 36.75 313.22)"/><ellipse cx="228.39" cy="137.23" rx="1.28" ry="1.04" transform="matrix(.256121 -.966645 .966645 .256121 37.24 322.85)"/><ellipse cx="214.31" cy="140.39" rx="1.28" ry="1.04" transform="matrix(.256121 -.966645 .966645 .256121 23.72 311.59)"/><ellipse cx="213.98" cy="150.74" rx="1.28" ry="1.04" transform="matrix(.256121 -.966645 .966645 .256121 13.46 318.97)"/><ellipse cx="221.86" cy="152.94" rx="1.28" ry="1.04" transform="matrix(.26 -.97 .97 .26 17.2 328.23)"/></g><path d="M381.43,78.57,349.12,64.78a.71.71,0,0,0-.93.39l-9.87,25,30.4,16.59Z" class="H I J K"/><ellipse cx="375.08" cy="92.64" rx="15.44" ry="9.88" transform="matrix(.410719 -.911762 .911762 .410719 136.53 396.55)" class="L"/><g class="H I K"><ellipse cx="344.23" cy="77.63" rx="13.81" ry="8.86" transform="matrix(.410719 -.911762 .911762 .410719 132.04 359.58)"/><path d="M381.51 90.63l-3.06-1.54a4.59 4.59 0 0 0-3.73 1.54 6.65 6.65 0 0 0-1.59 5.6c.26 2.7 4 3.4 4 3.4s-2.44-2.27-.58-5.94 4.96-3.06 4.96-3.06z" class="J"/></g><path d="M381.51,90.63s.69.22.89.55a4.51,4.51,0,0,1,.32,2.06,10.08,10.08,0,0,1-2,5.08,3.76,3.76,0,0,1-3.26,1.38l-.32-.07" class="H I J M"/><g class="K H I J"><path d="M380.69 92.64l9 4.44s-3.32 1-1.7 4.72L378 97s-.61-4.08 2.69-4.36z"/><path d="M388,101.8s2.61.64,3.22-1.61c.49-1.83-.28-2.24-1.52-3.11"/></g><g fill="#232323"><ellipse cx="377.29" cy="82.61" rx="1.28" ry="1.04" transform="matrix(.256121 -.966645 .966645 .256121 200.79 426.15)"/><ellipse cx="383.79" cy="87.11" rx="1.28" ry="1.04" transform="matrix(.256121 -.966645 .966645 .256121 201.28 435.78)"/><ellipse cx="369.71" cy="90.26" rx="1.28" ry="1.04" transform="matrix(.256121 -.966645 .966645 .256121 187.76 424.52)"/><ellipse cx="369.38" cy="100.61" rx="1.28" ry="1.04" transform="matrix(.26 -.97 .97 .26 177.51 431.9)"/><ellipse cx="377.26" cy="102.81" rx="1.28" ry="1.04" transform="matrix(.256121 -.966645 .966645 .256121 181.25 441.16)"/></g><path d="M433.7 94.99l-273.88 81.66-1.29-28.73 275.17-80.3v27.37z" class="H I J M"/><path d="M433.7 94.99l-273.88 81.66-1.29-28.73 275.17-80.3v27.37z" opacity=".5" class="K"/><g class="H"><g class="I J"><path d="M278.69 28.89L4.81 110.55 3.52 81.82 278.69 1.51v27.38z" class="M"/><path d="M3.12 110.82l155.7 66.47v-29.35L3.12 81.47v29.35z" class="K"/><path d="M2.94 110.78l275.62-81.79 154.37 65.74-272.61 83.4L2.94 110.78zm430.37-43.27l-154.62-66v27.38" class="M"/><path d="M90,108.57,60,90.62c-.34-.2-.9-.33-.7-.67L73.12,67.44l31.71,14Z" class="K"/></g><ellipse cx="97.4" cy="95.03" rx="15.44" ry="9.88" transform="matrix(.479917 -.877314 .877314 .479917 -32.71 134.89)" class="I K"/><ellipse cx="66.92" cy="79.3" rx="13.81" ry="8.86" transform="matrix(.479917 -.877314 .877314 .479917 -34.76 99.95)" class="L"/></g><path d="M54,76.71l8.92,4.52S61.7,78,65.63,77l-9.84-5.12S52.21,73.9,54,76.71Z" class="L"/><path d="M65.63,77s2.08,1.71.64,3.54c-1.17,1.49-2,1.13-3.39.65" class="L"/><g class="H I K"><path d="M253.05,62.34,223.11,44.4c-.34-.2-.91-.34-.7-.67l13.78-22.52,31.7,14.06Z" class="J"/><ellipse cx="260.47" cy="48.8" rx="15.44" ry="9.88" transform="matrix(.479917 -.877314 .877314 .479917 92.66 253.91)"/></g><g class="L"><ellipse cx="229.98" cy="33.07" rx="13.81" ry="8.86" transform="matrix(.479917 -.877314 .877314 .479917 90.61 218.97)" class="H"/><path d="M217 30.49l8.94 4.51s-1.17-3.28 2.76-4.2l-9.85-5.12s-3.58 1.99-1.85 4.81z"/><path d="M228.7,30.81s2.07,1.71.64,3.55c-1.17,1.49-2,1.12-3.4.65"/></g><g class="H I J M"><path d="M2.94 110.78h0v7.06l156.59 68.35v-7.72"/><path d="M433.83 94.73l.16 6.58-274.46 84.88"/></g><path d="M249.34 171a2 2 0 0 1-.33.51c-.42.45 0-.62.3-1.87.37-1.43-1.88-2.23-1.88-2.23s2.11 1.2 2.79.33 2-2.69 1.16-.8l-2.04 4.06zm-8.34-5.26a2.36 2.36 0 0 1-.33.51c-.42.46 0-.61.29-1.87.38-1.42-1.88-2.22-1.88-2.22s2.11 1.19 2.8.33 2-2.7 1.16-.81l-2.04 4.06zm3.11-10.49a2.06 2.06 0 0 1-.34.51c-.41.45 0-.62.3-1.87.38-1.43-1.88-2.23-1.88-2.23s2.11 1.2 2.8.33 2-2.69 1.15-.8l-2.03 4.06zm10.14-.89a2.38 2.38 0 0 1-.34.51c-.42.46 0-.62.3-1.87.37-1.43-1.88-2.22-1.88-2.22s2.11 1.19 2.79.32 2-2.69 1.16-.8l-2.03 4.06zm3.55 8.64a2 2 0 0 1-.33.51c-.42.46 0-.61.3-1.87.37-1.42-1.88-2.22-1.88-2.22s2.1 1.19 2.79.33 2-2.7 1.16-.81L257.8 163z" stroke="#232323" stroke-linejoin="round" class="K"/></svg>