<svg xmlns="http://www.w3.org/2000/svg" viewBox="0 0 106.16 104.78"  xmlns:v="https://vecta.io/nano"><path d="M50.26 96.85C56.71 92 63.39 86.7 65 78.33c1.55-7.85-2.14-13.33-7.56-18.53-5.58-5.33-11.29-12.8-18.33-16.19-7.7-3.69-15.85 1.91-23.38-2-4-2-9.06.44-9 5.18l.15 22.7c0 6-1.41 14.4 3.3 19.08S24 93.17 30 94.34l11.42 2.24c3.06.6 6.64 1.77 9.79 1.48 14.08-1.29 8.93-24.66 2-31.3-8.47-8.17-25.46-5.33-26.36 8-.37 5.64 3.43 11.58 9.57 11.56 5.59 0 9.3-5.17 10.21-10.21 1-5.51-.92-11.9-5.31-15.47-4.57-3.71-11.57-4-15.82.44-6.52 6.73-3.67 28 9 23.34 12-4.38 7.31-26.42-3-30.06-13.77-4.8-22.36 17.87-10.62 24.57 5.57 3.17 12-.21 14.58-5.58 3.39-7.14-1.49-13.81-6.59-18.51-3-2.78-7.15-2-9.43 1.22a19.6 19.6 0 0 0-1.83 19.38A13.22 13.22 0 0 0 24 82.19c2.66 1.2 4.57 1.22 6.71 3.4 4 4.08 8.16 8.26 14.44 7 2.08-.43 3.68-1.56 5.8-1.42s4.36 1.22 6.34 1.77c4.29 1.19 8.65 2.19 13 3 6.14 1.1 16.68 4.35 22-.13s3.22-12.12 1.34-17.85c-2-5.94-4.54-12-9-16.5C79.3 56 72.86 55.63 66 53.51a47.71 47.71 0 0 1-11.28-5.72 14.52 14.52 0 0 0-2.12-1.38l-1.4-.92q-3.75 4.41-.76 4.43c1.49 1 3 1.29 4.34 2.83 3.22 3.61 5.53 8.48 8.08 12.59l3.6 5.76c1 1.57 3.29 4.19 3.53 6l.61-4.62-.7 1 3.58-2.76C70.7 71.88 69 70.53 67.79 68l-8.21 8.2a14.23 14.23 0 0 1 5.26 6.29 5.86 5.86 0 0 0 5.18 3 19.81 19.81 0 0 1 7.82 1.12A18.64 18.64 0 0 1 80.75 88c1.39.83 2.51 2.78 2.66.69l1.76-4.24c1.15-1.34-.93-.45-2.26-.51l-5-.2-9-.38-37-1.52c-5.19-.21-12.1-1.67-16.92.8a9 9 0 0 0-4.86 10.57c1.85 6 9 5.38 14.07 6.12l36.8 5.38c7.55 1.1 10.81-10.46 3.19-11.57l-46.4-6.79L22 90.54l-1.6 2.86H22c1.05.38 2.87.12 4 .16l57 2.35c3.74.16 7.68.22 10.47-2.69s2.55-7.06.1-10.12C88 76.34 78.45 73.21 70 73.46l5.18 3a25.78 25.78 0 0 0-9.56-10.59c-5.5-3.58-10.48 3.21-8.21 8.21 2.89 6.35 10.43 10.49 17.37 8.87 3.59-.84 6.77-3.47 7-7.39.18-4.08-3.46-8.07-5.48-11.31-4.55-7.31-8.72-16.73-15.48-22.28-5.34-4.38-15.39-6.44-20 .17-5.55 7.9 4.32 13.94 10 17.38A56.73 56.73 0 0 0 62 64.82c3.8 1.26 8.27 1.24 11.79 3.21 5.75 3.23 8.47 11.71 9.79 17.77 0 .13.26 1.65.3 1.67v.47q2.84-2.39.39-2.17c-1.38-1-5.26-.56-6.94-.82a139 139 0 0 1-15-3.09c-4.79-1.27-9.81-3.58-14.86-2.59-1.41.28-3.62 1.72-4.87 1.31-1-.34-2.2-2.23-3-3-2.92-3-5.61-4.38-9.38-6s-2.51-6.54-.46-9.43l-9.43 1.21a27.7 27.7 0 0 1 2.84 2.79c.48.59.91 1.93 1.34 2.29 6.16 5.07 1.22-2.8 3.83-3.19-.23 0 .66 5.94.9 6.63l.08 1.71q5.89 3.34 5 .17a15.1 15.1 0 0 0-.26-2.79c-.11-2.84.45-.29.72 1.28.09.48-.22 2.12-.1 2.35-.5 1 .18 1.14 2 .59 1.37.7 2.35.47 3-.7 4.89-1.57 7.61 3.05 8.09 7.58.12 1.09-.21 2.39 0 3.44-.66 1.83-.27 2.23 1.19 1.18q2.93-.75-.58-.9c-2.91-1.08-6.47-1.27-9.52-1.87l-18.08-3.55c-1-.2-2.63-1.3-1.86.1-.45-.82-.06-3.32-.06-4.3l-.07-9.46-.09-19.89L9.67 52a26.25 26.25 0 0 0 15.86 2.94c2.53-.32 5.68-1.43 8.15-.55 2.71 1 5.08 4.19 7.13 6.13L47.6 67c1.65 1.56 4.4 3.41 5.4 5.54 2.6 5.69-5 11.15-8.78 13.95-6.11 4.57-.14 15 6.06 10.36z" fill="#ef9293"/><g fill="#202020"><path d="M8.22 40.57c0-.15 0-.07-.05.37v.31zm-.43 2.91c-.06.51-.09 1.11 0 .78 0-.51 0-.63.08-1.18A4 4 0 0 1 8 42.4l.11-.91-.28 2c-.05.19-.04.03-.04-.01zM5.44 86.15v-.28a1.09 1.09 0 0 0 0 .28zm18.63 13.39c-.2 0-.29 0-.3.09.23-.02.34-.04.3-.09z"/><path d="M28.55 100.4l-.27-.06a.32.32 0 0 0 .27.06zM5.44 86.15l-.08.71c.13.04.07-.37.08-.71zm1.83-36.8v-.02zM5 74.45v-.22a.94.94 0 0 0-.12-.18zm.22-8.98c0 .2.18.28.27.36a.88.88 0 0 1-.12-.45s-.08.02-.15.09zm1.49-14.16v-.25zm-1.8 29.58a.2.2 0 0 0-.1.08.14.14 0 0 0 .1-.08zm5.49-37.57s-.07.01 0 0zm-10.36.92l.14-.02.03-.01-.17.03zm36.73 57.3h0c-.25.03-.13.02 0 0zm68.64-11.28c-.22 1-1-1.23-1.18.23.17-.2 1.18.97 1.18-.23zM7.23 49.58v.37z"/><path d="M104.23 90.49h0v.15zm-48.41 11.98a.66.66 0 0 0-.18-.23c0 .05.04.12.18.23zm-14.14-1.59l.32.12a1.5 1.5 0 0 0-.32-.12zm21.54 1.3c.19 0 .25.13.52.07l-.08-.07a.4.4 0 0 1-.44 0zm7.67.44l-.14-.12h-.24zm-37.28-61.7a1.22 1.22 0 0 1-.38-.18c.14.16-.97.34.38.18zM7.22 49.35a.53.53 0 0 1 0 .23v-.25s.01-.03 0 .02zM63.76 98l1.21.13a8.31 8.31 0 0 0-1.21-.13z"/><path d="M81.75 44l-.17-.23a.38.38 0 0 0 .17.23zM68.59 98.23a1.9 1.9 0 0 0 .67.41.66.66 0 0 0 .15-.14zM33.23 40.74z"/><path d="M25.3 42.08c1.16-.1.51-.31.74-.49 1.37-.22.66.14 1.15.23.85-.15 1.48-.49 2.12-.55.06 0 .18 0 .05.13.88-.34 2.7-.29 3.72-.73a.3.3 0 0 1 .15.07.45.45 0 0 1-.22-.43c.51-.07.93-.33 1.15-.14a.79.79 0 0 0-.47.21l.53-.16c.53.26-.73.2-.7.43a20.35 20.35 0 0 1 3.07-.65c.21.3-1.89.33-.77.49h-1.27c1 .38-.76 0 .19.47 1.66-.07 1.82-.35 3.48-.43.35-.22-.15-.26.19-.49 2.3-.61 2 .67 3.62 0a1.84 1.84 0 0 1 1.78-.66l-.36.46c1.6-.13.83-.71 2.54-.61-.27.2-1.23.28-1 .31 1.12.22.73-.33 1.56-.43l.23.37c1.69-.24 3.53-.75 5.4-1.05-.09.14-.39.31.07.39a36.18 36.18 0 0 1 7.4-.5l.83-.5c.2 0 .4.14.19.24.91 0 0-.26.42-.47s.7.16.4.32c1.53-.52 4.39-1.28 6.11-1l-.31.16c1.32 0 1.34-1.06 2.59-.79l-.22.1c1.42-.07 2.89-.3 4.28-.46s2.54-.08 3.05.49c.23-.29.63 0 .94.27s.61.69 1 .45a5 5 0 0 1 .23 1.36 9.62 9.62 0 0 0 .44 1.83c.22.57.94.54 1.36 1.17l-.46.24.93.68-.33.76.42.57c-.09-.26 0-.64.12-.66a3.41 3.41 0 0 1 .57 2.71L83.76 48c-.22 0-.47-.33-.74-.58 1.08 1-.41.47.58 1.41 0-.21.33-.06.44-.08a6.69 6.69 0 0 0 1.12 2.93h-.43c.69 1.79 1.81 3.61 2.66 5.59-.14-.78.54-.89.85-.34l-.44.48c.5.22-.06-.7.69-.12.26.77-.41.78-.77.43l.58.81c-.14.13-.32 0-.55 0 .5.22.1 1.8.93 2.07l-.15.12 2.1 4.41c.5-.17.65.51 1.25.83A27.06 27.06 0 0 0 93 70.07c.66.92.54.13 1 .46-.43.26.18 1.69-.44 1.07a28.67 28.67 0 0 0 2.18 4.23c.1-.31.08-.61.29-.53.23.37.15 1-.09 1l-.09-.08c1.66 2.2.77 6.23 2.47 7.84l-.09-.06 1.26 1.87c.25 1-.56-.44-.61.36a6.55 6.55 0 0 1 1.3 2.71 7.37 7.37 0 0 0 .93 2.42c-.52.89-.18 2 0 3.14s.3 2.27-.34 2.69h.36c.26.43-.33.28-.45.44.25.09.4-.18.51.08a2.35 2.35 0 0 1-1.16 1.54 4.65 4.65 0 0 1-2.33.5 19.19 19.19 0 0 1-3-.32l-3.41-.5c-1.66-.18-1 1.78-3.1.83l.63-.63c-3.42.62-6.89-.37-10.23.13.2-.14.22-.34.54-.32-.67-.5-2.58-.15-2.61.23-.51-.07-.1-.35-.4-.56-.69-.31-1.79.51-2.14 0-.06-.08.21-.14.34-.17-.47.2-2.12-.16-1.72.4-1.22-.32-2.38.12-3.35-.24-.68.56-2.11-.39-2.36.44.14-.86-2.13-.8-2.94-.44.28-.24-.66-.3-.34-.64-.89 0-1.72.09-1.59.54-1.59-1.09-3.35.65-4.21-.68a84.31 84.31 0 0 1-7.55.59c.13-.8 2.64 0 2.58-.82-2.28.24-3.63.87-5.86.57-.58-.13.35-.33.55-.46-2.28.23-4.37-.26-6.41.08 0-.08.23-.14.44-.2-.4 0-.92-.15-.89.2l.39-.07c.6.54-1.64 1-1.72 1.25.73-1-2-.35-.84-1.56-.26.06-.6.21-.55.44-.39-.08-.5-.22-.1-.47-1.43.13-.94.51-2.23.45 0-.17.28-.22.42-.41a3.73 3.73 0 0 1-2.43.4c.08-.1 0-.23.28-.21-1.87 0-3.23.68-5.27.29.64-.66-.68-.26-.76-.86l-1.11.13.42.31c-1-.05-1.84.33-2.66.1l.73-.21h-1.82l1 .27c-1 .24.06.73-1.21.5.26 0-1-.06-1.46-.41h0a2.92 2.92 0 0 1-1.7.14c-.18-.19.18-.6.07-.73-.5.44-2.27 0-2.9.48.21-.1.24-.38.17-.44l-.41.34c-.44-.14-.51-.19-.42-.41-1.34-.13.39.69-1.19.32.13 0 .07-.07.33-.12-1.56-.22-3.07 0-4.36-.55-.24-.58 1.18.19.84-.35a8.11 8.11 0 0 1-2.71-.81 3.93 3.93 0 0 1-1.77-2.05 2.56 2.56 0 0 0 .1.34c-.37 0-.46-.35-.48-.82a3.48 3.48 0 0 0-.25-1.48c.1.23.42.23.34.19-.19-1.3-.56-2.71-.9-4.84l.18.25c.07-.83-.08-2.18-.06-3.08-.16-.25-.17-.77-.37-.45a10.24 10.24 0 0 0 0-4 10.69 10.69 0 0 1 0-3.74c0 .29.13.7.13.46l-.16-2.08c-.21.16-.12.27-.28.71a3.92 3.92 0 0 1-.24-1.37c.15.94.33 0 .45-.41-.06.06-.13-.07-.2 0 .36-1.09-.4-.19-.15-1.68l.1.08a10 10 0 0 1-.14-1.67c.22-.25.09.59.27.63 0-.84-.38-1.67-.15-2.43 0 .36 0 .87.1 1.23a4.28 4.28 0 0 0 .23-1.54v.06l.13-1.42-.07.36c-.48-1.08 0-2.16-.29-3.59.23 1.39.16.23.35.35.07-.36.15-.91.2-.75-.13-.68.14-1.12 0-2.08.06 0 0-.72.18-.56 0-.87-.11.2-.18.13-.12-1.36.37-3.15.27-5.11 0-1.68-.08-2 0-3.55.11-.52.08.44.08.44a20.24 20.24 0 0 0 .22-2.27c0 .16.05 0 .11-.24a7.73 7.73 0 0 1 .07-1.27v.65c0-.75.08-1.5.15-2.28.06-.2 0 .48 0 .75l.21-2.54-.09.56c0-.32.06-.16 0 .08a3.76 3.76 0 0 1-.17 1.11l.06-.55a26.1 26.1 0 0 0-.37 3.33L7.05 49v1.15c0 .39-.15.4-.11-.16-.15.79 0 .72-.18 1.39 0 .08 0 0 0 0v.79c0-.16-.12.11 0-.36-.26 1.39-.11 2.27-.3 2.78v-.11c-.13 2 .1.2.15 1.67L6 57l.14.21c0 .2-.07.59-.13.52 0 .75.08-.13.15.32-.16.95-.08 2.7-.39 2.95.11.36.17-.92.2.12-.35.28 0 1.2-.22 2.08-.16-.29 0-1.12-.22-.24.27.55-.18 1.72-.16 2.47.26.05 0 1.63.08 2.89-.09-.08-.24 2.36-.37 3.53h0c.31.23.22 1.44.29 2.32-.2 0-.28-.2-.36-.67v.82a2.43 2.43 0 0 1 .2 1L4.9 75a27.31 27.31 0 0 1 .1 3.64c.26.08.68-1.13.89.35-.14.06-.38.12-.44-.27a2.1 2.1 0 0 1 .07.72l-.24-.59c-.1.64.19.33.18.84-.2 0-.13.39-.29.32s.07-.45 0-.65a4.43 4.43 0 0 1-.28 1.53c.12-.06.28 0 .31.41 0 1.1-.24.39-.33 1 .15.26 0 1 .34 1 0 .32-.14.38-.22.51.16.57.14 2.66.47 2v-.06c.47 1.84 0 3.87.4 5.76h-.07a7.14 7.14 0 0 0 1.36 3.11c.15.3.24.82 0 .78a6.16 6.16 0 0 0 .75.73l1 .95c-.89-.39.13.4-.86-.48a6.34 6.34 0 0 0 1 1 2.76 2.76 0 0 0 1.39.46c-.55.17.74.75 1.32.76l-.75-.47 1.7.42-.38.39c2.39 1 4.25-.57 5.89.55.61-.3-1.2-.32-.65-.68A12.65 12.65 0 0 1 20 100c1.4.37 1.36-.64 2.82-.36-.18-.19-.33-.68.78-.79 1 .13 1.22.84.57 1-.25 0-.37-.07-.35-.13-.34.05-.78.09-.38.32l.14-.17c.5.21 1.92.29 1.57.57.78-.13.35-.28-.22-.42 1.3.36 2.06.14 3.4.41-.21-.11-.39-.35-.18-.33 2 .36.9-.3 2.25-.31.76.34-.31.68 1.06.52.82.25.15.53-.19.66 1.26-.29 2.3.4 3 .52l-.66.11a4.58 4.58 0 0 1 1 0l-.36-.41c.38.09.71.11.69.28.41-.24-.27-.68.54-1 .5.23 1.56-.12 1.71.42-1.6-.29.15.54-1.21.53a2.39 2.39 0 0 1 1 .08c.06.06-.06.11-.17.13 1.52.58.74-.55 2.33-.44-.21.29.34.6.61.55-.65-.05-.28-.52.32-.72 1 .3 1.12-.11 1.65-.05l-.6-.15c.22-.29.73-.22 1.44-.27 0 .24-.65.12-.4.24.82-.49 1.75.67 2.87.37.5.25 0 .59.46.76 1.26-.32 1.32.52 2.63.27-.35-.45-.42-.35.52-.71l-2.15.17 1.4-.53c-.64 0-1.37.18-1.76.09.68-.31.6-.21.31-.58.85.69 1.77-.27 2.77.22l-.09 1.06c1.5.57 2.75-.38 4.72 0l-.63-.23c.29-.41 1.24 0 1.89-.12-.08.36.31.51.58.76 0-.28 1.45.11 1.67-.61l.86.54c1.6.29 1.89-.94 3.43-.73-.49.37.2.68-.85.9.52 0 1 .13 1-.12.29.25 1.45-.42 1.91 0 .23-.15.32-.54.89-.47a.17.17 0 0 1 0 .18c0-.18.92-.2.44-.64 1.52 1.26 4.44.16 5.77 1.25 1.13-.06 2.49-.11 3.52-.08-.08.11 0 .19-.21.14 1.39.44.93-1 2.51-.56.78.66-.87.29-.37.55.15 1.28 1.94-.06 3 .74l-.26.06c.8.48 2-.37 3.38-.2a.17.17 0 0 0 0 .19 10.24 10.24 0 0 1 4-.83c-.43.48-.61.23-.39.75.59 0-.12-.83 1-.91.37.3 1.19.59 1.27 1.14h-1.09c.52.74 1.41.05 2 .21L89 104c1.68 0 1.75-.78 3.55-.63l-.17-.24c1-.73.8.48 1.81 0l.27.8c.67-.15 2.39-.66 3.58-1-.62.68-2.11 1-3 1.32.66 0 2.38 0 2.71-.5-.27.1-.62.31-.91.21a9.55 9.55 0 0 1 3.21-1.44c.1.76 1.11.61 2.19 0s2-1.79 2.79-2.07a19.66 19.66 0 0 0 1-4.32 11.67 11.67 0 0 0-.24-4.28c-.93 1.26-.22-.82-1.37-.34-.24-.6-.3-.84-.24-.92 0-.68.07-1.39.09-2.06.19-.54.45.47.69.34-.37-1.34.3-.72.3-1.68-.35.32-.75-.24-.85-1l-.16 1.21c-1.25-1.57.41-1.89-.85-3.47l.57.44c-.55-.85-1.25-3.41-2.49-4 .07-.21.29-.54.53-.17-.69-2.25-2.82-4.52-2.94-6.42l.34.06c-.24-.38-.79-.51-.72-1.13.12 0 .33.06.28-.14A3.16 3.16 0 0 1 98 71l.49.34c-.51-2.26-2.06-3-3-4.65.78-.32.33-2.08.1-3h.12c-1-2.49-2.43-3.89-3.72-6 .19-1.75-1.8-4.87-2.41-7.3 0 .4-.58.2-.84-.16-.11-.59-1.18-1.22-.49-1.44l.08.2c.45-.69-.23-1.69-.62-2.53l-.91.26c.2-2.72-3.15-5.49-2.7-7.18-.47-.42-.79-1.06-1.25-1.49l.43-.18a13.39 13.39 0 0 0-1.06-2.07A7.52 7.52 0 0 0 80 33.58a5.58 5.58 0 0 1 .68.1 2.16 2.16 0 0 0-1.92-.43 4.86 4.86 0 0 1-1.69.22 7.22 7.22 0 0 0-.29-.72 20.43 20.43 0 0 0-3.39 0 8.26 8.26 0 0 0-2.88.65.42.42 0 0 1 .39-.4c-.92.12-3.59.1-3.15.91-.09-.56-2 .24-3 .62l.11-.42a3.76 3.76 0 0 1-2 1.09c-.3 0-.3-.28.1-.23-1-.07-.71.47-1.92.43l.41-.31a2 2 0 0 0-1.43.6c-.61.24-1.92.17-2.11-.15a1.45 1.45 0 0 1-1.23.56c-.1-.11.11-.22.21-.27-1.71 0-2.44.77-3.64.58a.27.27 0 0 0-.23-.18l2.32-.28c0-.33-1.13-.23-.33-.81a9.4 9.4 0 0 1-3.31 1.13.29.29 0 0 1-.15-.09h.1a1.94 1.94 0 0 0-.66.15 5.09 5.09 0 0 0-.88 0c-.16-.24-1.25 0-1.79.12.09.32-.62.37.07.55-.09 0 .1-.06.45-.12a2.19 2.19 0 0 0 .16-.08h0l1.33-.21a2.05 2.05 0 0 1-1.45.34 8.25 8.25 0 0 1-.68.63c-.8-.36-2.24-.39-2.48-.63-1.61.42-3.84.7-4.8 1.4-.46.14-.56-.08-.74-.14a3.7 3.7 0 0 0 .71-.23c-.91.27-2.75.46-2.93.85-1.19 0 .62-.43-1-.13l.21-.14a12.72 12.72 0 0 0-4.2.76 13.71 13.71 0 0 1-4.47.67 1 1 0 0 1 .43 0c-2 .16-4.09.53-6.15.86s-4.11.63-6.11.79a7.82 7.82 0 0 0-1.91.43l-.27-.1-1.15.32c-1.66.32-2.92.16-5 .64h.28c-.76.1-2.4.37-2.28.3a2.18 2.18 0 0 1-.54.1h0l-1.85.32a17.61 17.61 0 0 0-1.95.28l-1.93.32.83-.11-.72.1c-.12 0-.68.06 1.09-.09L2.5 44h.4l-1 .1c.59 0 1-.08 1.38-.14a3.52 3.52 0 0 0 .52 0l1.2-.23c.15 0-.53.11.28.05.57-.09-.55 0 .39-.13a5.67 5.67 0 0 0 1.11-.08c.1 0 0 0-.32.09.61-.09 1.63-.17 1.94-.27a12.9 12.9 0 0 1 2-.09c.19 0 1.07-.22 1.64-.29-1 .31 2.12-.2 1.87.06.74-.27 2.76-.35 4.09-.62a1.21 1.21 0 0 1-.34.08 12.28 12.28 0 0 1 1.5 0c.07-.23 1.25-.4 1.87-.62 1 .13-.53.34-.21.52-.07-.18 1.6-.35 1.26-.49.73.08.62 0 1 .18.08-.33.66-.12 1.22-.38 1.06 0 .31.29 1.43.07.57.05-.43.27-.43.27zm26.89-3.71h0l-.55.09zm2.26-.28l-1 .1c-.1-.11 0-.24.2-.26-.09.07.45.07.8.16zm-5.09-1.76c.35-.1.48 0 .54 0a6.23 6.23 0 0 0-.62.14h0a.44.44 0 0 1 .08-.14z"/><path d="M48.77 36.87h-.14l.22.05.12-.13zM5.48 85.82v.05a.36.36 0 0 1 0-.11.16.16 0 0 1 0 .06zm74.98-44l.1-.06-.18-.13.08.19zM6.1 73.24a.44.44 0 0 0 .06-.17.57.57 0 0 0-.06.17zm.06-5.42l.09-.76-.09.76zm.2-4.16a.19.19 0 0 0-.08-.08h0zm35.21 33.96h.16c.38-.09.12-.06-.16 0zm-19.78.17a4.64 4.64 0 0 1 .64-.17c-.35-.05-.62-.07-.64.17zm41.84.21h.13zm-40.28-.33a2 2 0 0 0-.92 0 3.17 3.17 0 0 0 .92 0zM7.64 45.65v-.2zm.02-.22v-.22a.91.91 0 0 0 0 .22zm.06-.69v.47c-.03-.16 0-.36 0-.47zm-.64 6.41v.06s.02-.06 0-.06zM7 52.82c0-.4.16-1 .18-1.55v-.06c-.03.27-.26 1.22-.18 1.61zm-1.19 6.93l.19-1.4c-.08.24-.19.56-.14-.08-.37 1.73.14-.36-.05 1.48zM5.4 64.1c0-.75-.1 0-.14 0 .03.45.04.57.14 0zm1.88 31.69l-.28.13c.43.52.07-.08.28-.13zm6.05 1.15l-.49-.29-.3.27zm3.33 2.86l-.26.03.98-.07-.72.04zM69.5 103l-.15-.62c-.35.11-.51.78.15.62zm22.85.68a1 1 0 0 0 1.27.28c-.51-.07-1.01-.34-1.27-.28zM87 45.39l.37.33-.52-.71.15.38zM23.28 55.9c0 .13 0 .06 0-.28v.28zm0-2.24c0-.4-.06-.85-.09-.6s0 .49.07.91 0 .58 0 .52v.7-1.56c0-.12.01 0 .02.03zm2.92-32.48l-.07.2a.77.77 0 0 0 .07-.2zm6.46-17.53c-.12.05-.14.13-.12.17s.16-.13.12-.17zm2.58.45l-.13-.1c.04.09.09.13.13.1z"/><path d="M26.2 21.18l.2-.52c-.11-.05-.13.26-.2.52zm-3.09 27.97a2.33 2.33 0 0 0 0 .29v-.29zM25.24 30v.16l.1.15zm-.72 6.82c0-.15-.18-.22-.26-.29a.52.52 0 0 1 .11.35.24.24 0 0 0 .15-.06zm-1.03 10.8h0zM26 25.19a.16.16 0 0 0 .11-.05.16.16 0 0 0-.11.05zm-2.94 21.15h0s.01.06 0 0zm1.97 7.65l-.04-.1-.01-.02.05.12zM39.4 7.66h0c-.16-.09-.09-.04 0 0zm20.02 33.49c-.49.64-.66-1-1.2-.07.22-.08.9.86 1.2.07z"/><path d="M23.12 49h0zm35.1-7.92h0l-.05.1zm-9.8-22.87a.6.6 0 0 0 .12-.24.42.42 0 0 0-.12.24zm-5.8-8.74l.13.24a.76.76 0 0 0-.13-.24zm9.03 13.17a.4.4 0 0 0 .14.36v-.08c-.07-.03-.14-.1-.14-.28zm2.18 5.26a.91.91 0 0 0 .07-.14l-.09-.16zm-30.58 1a.84.84 0 0 1-.27.22c.19-.05.11.79.27-.22zm-.1 20.25a.39.39 0 0 1 0-.18v.2s-.01.02 0-.02zM55.54 21l.35.92a3.65 3.65 0 0 0-.35-.92zM47.22 6.26h-.19a.2.2 0 0 0 .19 0zm9.92 18.3a1.46 1.46 0 0 0-.15.65.42.42 0 0 0 .17.05zM23 29.13h0z"/><path d="M22.72 35.14c.06-.87-.23-.42-.38-.61 0-1.05.25-.47.43-.82 0-.64-.2-1.16-.14-1.64.05 0 .08-.12.13 0-.17-.71.32-2 .12-2.84a.19.19 0 0 1 .1-.09.58.58 0 0 1-.47.05c0-.4-.07-.76.17-.87-.06.24 0 .27.07.39v-.42c.39-.3 0 .57.22.61a11.62 11.62 0 0 1 .23-2.35c.34-.06-.21 1.42.25.68l-.32.91c.64-.62-.17.55.5 0 .4-1.18.12-1.39.57-2.55-.1-.31-.29 0-.4-.29.2-1.8 1.2-1.12 1.2-2.45-.12-.39-.52-.66 0-1.45l.3.43c.44-1.1-.37-.86.4-1.91.07.26-.24.91-.12.76.64-.62 0-.61.24-1.19h.42l1.38-3.86c.07.13.08.4.35.17a14 14 0 0 1 1.39-2.38 24.14 24.14 0 0 1 1.82-2l.06-.75c.1-.12.32-.11.28.06.53-.42-.18-.18-.12-.52.21-.31.49-.24.44 0 .42-1.1 1.59-3 2.82-3.38l-.09.25c.8-.43.23-1.36 1.18-1.52l-.09.16a17.51 17.51 0 0 1 2.64-1.31 5.61 5.61 0 0 1 .7-.18l.66-.06a2.25 2.25 0 0 1 1.19.16c.1-.33.57-.27 1-.24s.83.15 1-.33a3 3 0 0 1 .86.7 4.36 4.36 0 0 0 1 .79c.33.2.75-.33 1.26-.21l-.21.47a5 5 0 0 1 .84-.16v.74l.46.12a.45.45 0 0 1-.1-.52 1.46 1.46 0 0 1 .9.79c.2.35.27.69.19.8a14.39 14.39 0 0 1 1.58.86c-.18.13-.44 0-.7-.09 1.05.27-.27.51.67.78 0-.18.27-.18.37-.23 0 .56.68 1.27 1.2 1.82l-.39.11a8.75 8.75 0 0 0 .57.83q.3.42.6.87a13.12 13.12 0 0 1 1.13 1.89.47.47 0 0 1 .84-.37l-.46.41c.46.11 0-.52.67-.16.15.57-.48.63-.78.41l.45.56c-.16.1-.3 0-.53 0 .45.13-.11 1.29.59 1.45l-.16.09.58 1.67a7.37 7.37 0 0 1 .44 1.5c.53-.07.47.41 1 .72a22.43 22.43 0 0 0-.33 3.14c.3.79.47.22.8.57-.48.08-.44 1.22-.79.63a21.21 21.21 0 0 0 .44 3.54c.21-.19.31-.4.48-.28.06.32-.25.73-.48.67l-.05-.09c.67 2-1.73 4.55-.78 6.25v-.1l.46 1.73c-.13.77-.36-.49-.7.07.75 1.87-.23 2.93.33 4.48-.73.61-.72 1.7-.53 2.83a6.92 6.92 0 0 1 .1 3.21l.33-.14c.42.38-.11.55-.14.88.26-.09.24-.52.47-.28l.72 3.08 2.6 14.22 1.94-14.58a68.09 68.09 0 0 0 1.07-8c0-1.36-1.84-.64-1.16-2.38l.71.42c-1.08-2.6-.68-5.53-2-8 .18.11.37.07.43.33.33-.66-.47-2-.85-1.93-.07-.4.31-.18.42-.47.1-.62-1-1.18-.63-1.6 0-.07.19.11.25.2-.32-.29-.45-1.65-.86-1.15-.09-1-.88-1.68-.86-2.53-.71-.27-.39-1.67-1.23-1.5.82-.27-.06-1.87-.7-2.25.33.08 0-.6.43-.54-.35-.63-.79-1.14-1.12-.83.31-1.66-2-1.9-1.24-3.17l-2.14-2.28-1-1.09-1-1c.34-.22.68.18 1 .57s.61.78 1 .49a15.09 15.09 0 0 0-1.89-1.49 7.3 7.3 0 0 1-1.61-1.66c-.22-.41.44 0 .65 0a14 14 0 0 1-1.83-1.87A7.76 7.76 0 0 0 44.4 7c.06 0 .24 0 .39.09-.24-.2-.43-.6-.66-.32l.29.15c0 .71-1.62-.13-1.85 0 1.09-.37-1-1.22.5-1.58-.2-.09-.5-.14-.63.06-.18-.25-.16-.41.25-.4-1-.61-.91-.07-1.67-.75.11-.12.31 0 .51-.11a2.83 2.83 0 0 1-1.82-.82c.1 0 .09-.21.3 0a6 6 0 0 0-2-.82 14.7 14.7 0 0 1-2.17-.74c.7-.54-.54-.37-.57-.95a6.72 6.72 0 0 0-1.1.11 3.93 3.93 0 0 1 .42.29c-.94-.07-1.65.51-2.39.58a3.22 3.22 0 0 1 .57-.42 5.85 5.85 0 0 0-1.53.63 5.26 5.26 0 0 1 .94-.2c-.69.59.34.61-.67.94.15-.16-.67.38-1.17.45h0a2.68 2.68 0 0 1-.77 1.17c-.23 0-.41-.47-.57-.46.09.58-.93 1.69-.68 2.35C28.29 6.1 28 6 28 6l.2.44c-.25.28-.32.31-.51.17-.45 1 .75-.06 0 1 0-.11-.07-.08 0-.29-.59 1.16-.51 2.4-.9 3.49-.57.24.08-1-.42-.73a18.37 18.37 0 0 0-.13 2.56 12.22 12.22 0 0 1-.24 2.47l.1-.28c.63.33-.51 1.1-.32 2 0-.21-.32-.32-.26-.25a19.88 19.88 0 0 0-.18 3.86l-.13-.22a22.9 22.9 0 0 0-.45 2.33c.12.22.05.61.3.4-1.06 2-.07 4.07-.88 5.86 0-.22-.07-.54-.08-.37L24 30c.22-.1.14-.19.34-.51a2.19 2.19 0 0 1 .11 1.07c-.06-.73-.33 0-.47.27.07 0 .13.07.19.05-.42.8.39.18 0 1.29l-.1-.07a5.54 5.54 0 0 1 0 1.29c-.23.17-.06-.46-.23-.51 0 .65.29 1.31 0 1.88v-.95a2.69 2.69 0 0 0-.3 1.16h0L23.47 36l.08-.27c.45.85 0 1.65.24 2.76-.22-1.07-.16-.18-.35-.28-.07.28-.15.7-.2.57.13.53-.15.86 0 1.6-.06 0 0 .55-.16.43 0 .67.1-.16.17-.1.13 1.05-.28 2.42-.08 3.92.06 1.29.19 1.53.2 2.72-.07.4-.12-.33-.12-.33a11.3 11.3 0 0 0 0 1.74c0-.12 0 0-.08.19a5.26 5.26 0 0 1 .06 1 2.85 2.85 0 0 1-.11-.49c0 .57.07 1.16.1 1.75 0 .16-.06-.36-.09-.57 0 .67.06 1.74.1 1.94v-.43c0 .25 0 .13-.05-.05a2.17 2.17 0 0 1 0-.86v.42a19.58 19.58 0 0 0 0-2.56l.11.36-.08-.88c0-.19.12-.32.12.11.09-.61 0-.55.06-1.07 0-.06 0 0 0 0v-.6c0 .12.11-.09.07.27.15-1.07 0-1.73.11-2.13v.09c0-1.5-.12-.15-.24-1.28l.41-.73-.14-.16c0-.15 0-.46.1-.4-.08-.57-.08.1-.16-.24.19-.73 0-2 .34-2.19-.12-.28-.15.7-.2-.1.34-.2 0-.92.21-1.58.16.22 0 .85.22.19-.26-.43.18-1.31.18-1.88-.26-.05 0-1.25 0-2.21.09.07.33-1.78.55-2.65h0c-.29-.2-.14-1.11-.13-1.78.2.05.26.18.3.54l.08-.62a1.45 1.45 0 0 1-.11-.77l.23.19a12.57 12.57 0 0 1 .23-2.75c-.25-.09-.8.77-.84-.39.15 0 .39 0 .41.27a1 1 0 0 1 0-.55l.17.48c.17-.48-.16-.28-.09-.67.2 0 .18-.27.33-.19s-.13.33-.07.49a2.51 2.51 0 0 1 .65-1.08c-.12 0-.28 0-.26-.36.11-.82.29-.25.47-.71-.11-.22.12-.73-.2-.79 0-.24.19-.26.3-.34-.09-.45.27-2-.16-1.57v.03c-.13-1.45.65-2.88.74-4.29h.12a12.66 12.66 0 0 0-.01-2.47c0-.25.33-.54.46-.41a2.92 2.92 0 0 1 .28-1.61c.1.67.24-.19 0 .67.27-.79.51-.94.33-1.88.28.35.55-.51.54-.9l-.37.5a4.59 4.59 0 0 1 .3-1.16l.39.31a3.93 3.93 0 0 0 .53-2.12c.06-.68.2-1.34.92-1.59-.1-.52-.61.61-.78.11.39-.65 1.4-.82 1.52-1a.79.79 0 0 0 .38-.77.74.74 0 0 1 .5-.71c-.18-.07-.62-.43 0-.95.72-.28 1 .42.74.66-.13.05-.21 0-.23 0-.16.15-.34.33 0 .4V4c.33 0 1.07-.17 1 .16.35-.24.13-.32-.22-.36a6.13 6.13 0 0 0 .94 0 1.82 1.82 0 0 1 .94.19c-.1-.14-.17-.37 0-.35.56.27.71.26.84.16s.23-.24.67-.08c.35.51-.47.53.45.76.37.46-.17.49-.42.53.88.08 1.12 1.06 1.43 1.42l-.44-.16a1.72 1.72 0 0 1 .6.38l.05-.47c.16.22.33.37.22.49.38 0 .26-.65.92-.54.14.41 1 .62.74 1.11-.75-1-.26.49-1-.13a1.23 1.23 0 0 1 .51.49c0 .07-.1.05-.18 0 .5 1.12.78-.09 1.64.72-.32.12-.2.59 0 .69-.32-.34.2-.53.66-.38.35.72.69.48.95.78l-.23-.4c.32-.11.56.2 1 .52-.15.19-.46-.24-.4 0 .81 0 .51 1.35 1.29 1.74.09.43-.42.41-.31.76.88.44.31 1 1.15 1.55.17-.48.05-.46.78-.17a15.17 15.17 0 0 0-1.21-1l1.12.39c-.29-.38-.85-.61-1-.88.58.15.47.19.58-.22 0 .9 1.14.78 1.25 1.67l-.85.63c.29 1.19 1.66 1.27 2.23 2.68l-.11-.5c.47-.07.56.73 1 1-.33.16-.28.48-.36.77.23-.17.51.94 1.21.68l-.09.82c.42 1.12 1.61.66 2 1.77-.51-.13-.51.46-1.11-.09.17.34.26.68.49.57-.11.3.93.72.77 1.2.22.07.61-.05.75.36a.22.22 0 0 1-.17.08c.17-.08.5.52.72 0a2.87 2.87 0 0 0 .42 2.28 2.63 2.63 0 0 1 .36 2.13 13.67 13.67 0 0 1 .91 2.41c-.12 0-.18.05-.19-.1 0 1.11 1.25.31 1.21 1.58-.45.76-.49-.53-.62-.09-1.17.48.51 1.36 0 2.32l-.12-.17c-.14.34.06.67.32 1a2.93 2.93 0 0 1 .56 1.3.3.3 0 0 0-.19 0 5.37 5.37 0 0 1 1.48 2.78c-.53-.24-.31-.41-.8-.16.12.42.8-.24 1 .62-.24.32-.41 1-.95 1.1l-.12-.8c-.67.48.17 1 0 1.48h-.31c.17 1.22 1 1.19 1 2.55l.23-.15c.81.72-.43.63.15 1.36l-.79.22a10.31 10.31 0 0 1 .84 2.6 10.07 10.07 0 0 1-1.16-2.17c0 .47 0 1.61.4 1.88-.07-.2-.23-.45-.11-.63a2.89 2.89 0 0 1 .75 2.37c-.61-.11-.82.26-.93.78l3-.23c-.06-.78-.45-1.82.21-2.34-.87-1.51-.19-3.24-.37-5.13-1.16.73 0-.57-1.26-.42-.09-.46-.07-.63 0-.68l.73-1.39c.36-.33.27.44.54.4.1-1 .52-.42.85-1.06-.44.12-.61-.37-.43-.93l-.58.79c-.61-1.44 1-1.18.46-2.63l.36.47c-.19-.74.14-2.71-.79-3.5.15-.12.49-.28.55.05.25-1.77-.82-4-.19-5.43l.27.2c-.07-.34-.53-.6-.23-1 .12 0 .28.15.3 0s-.49-.91-.33-1.37l.33.39c.35-1.82-.85-2.77-1.16-4.24.83-.06 1-1.51 1-2.31H60c-.26-2.3-1.52-3.6-2.52-5.34.39-1.51-1.45-4-2.27-5.92.08.34-.53.31-.81.07-.16-.48-1.2-.71-.61-1.09l.1.14c.32-.71-.51-1.36-1-1.95l-.77.56a3.12 3.12 0 0 0-.89-1.52 8.67 8.67 0 0 0-1.55-1.06c-1.13-.56-2.13-1-2.45-1.7-.57 0-1.13-.28-1.7-.18l.15-.48a8.32 8.32 0 0 0-4-.65l.44-.35C41 0 40.84 1.36 40 1.49l-.36-.61a23.23 23.23 0 0 0-2.59.51 4.28 4.28 0 0 0-2.17 1.38.36.36 0 0 1 .12-.45 12.38 12.38 0 0 0-1.57.94c-.49.39-.79.8-.41 1-.38-.42-1.3 1.1-1.68 1.9l-.2-.38a3.12 3.12 0 0 1-.55 1.85c-.19.14-.37 0-.1-.22-.65.48-.09.7-.82 1.32v-.39c-.5.63-.36.66-.38 1.18-.17.49-.89 1.2-1.24 1.11a1 1 0 0 1-.22 1.06c-.14 0-.11-.2-.1-.29-.94 1-.62 1.92-1.37 2.53a.26.26 0 0 0-.26 0 17.3 17.3 0 0 1 .9-1.54c-.28-.18-.74.56-.81-.28a6.5 6.5 0 0 1-.71 2.71h-.14v-.1a1.07 1.07 0 0 0-.17.51 3.06 3.06 0 0 0-.37.59c-.27 0-.53.84-.71 1.22.31.11.05.6.5.23 0 .05 0-.09.11-.35v-.18l.42-1a1.27 1.27 0 0 1-.36 1.1l.25.75c-.64.35-1.26 1.31-1.57 1.36-.33 1.26-.81 3-.54 3.88 0 .38-.26.37-.37.48a3.21 3.21 0 0 0 0-.6c-.05.75-.46 2.13-.15 2.38-.38.86-.21-.58-.44.67l-.07-.2c-1 2.38.09 4.12-.75 6.77 0-.19.07-.28.12-.32a23.18 23.18 0 0 0-.21 2.37l.05 2.41.29 4.73a4.75 4.75 0 0 0 .34 1.48l-.09.2.32.87a12.94 12.94 0 0 1 .38 1.93 10.21 10.21 0 0 0 .51 2v-.22c.12.58.55 1.77.47 1.69a1.28 1.28 0 0 1 .16.4h0l.5 1.36a8.17 8.17 0 0 0 .49 1.36L25 54l-.24-.6.21.51c0 .09.16.5-.25-.79l-.32-.89-.07-.3.24.76a7.63 7.63 0 0 0-.34-1 3.11 3.11 0 0 0-.09-.39l-.3-.88c0-.11.16.39 0-.22-.14-.41 0 .42-.17-.26a3.11 3.11 0 0 0-.18-.83c0-.08 0 0 .11.22-.16-.44-.31-1.2-.41-1.43 0-.47-.33-1.55-.18-1.53a6 6 0 0 1-.34-1.22c.3.75-.2-1.6.06-1.43a21.17 21.17 0 0 1-.48-3.08.5.5 0 0 1 .07.26 4.31 4.31 0 0 1 .1-1.13c-.22-.06-.29-1-.45-1.44.22-.71.29.42.5.19-.18 0-.2-1.22-.36-1 .14-.54.08-.46.3-.74-.32-.1 0-.5-.21-1 .2-.78.33-.2.27-1 .17-.41.25.36.25.36zm4.81-19.53h0l-.17.38a5.57 5.57 0 0 1 .17-.38zm.85-1.48a6.52 6.52 0 0 0-.38.63c-.14 0-.22-.12-.13-.27.03.12.29-.19.51-.36zm-3.84 2.19c.08-.28.18-.34.25-.35s-.1.28-.16.47h0a.39.39 0 0 1-.09-.12z"/><path d="M24.74 17a.61.61 0 0 1 0 .11l.14-.12-.06-.13zm1.37 4.42h0a.22.22 0 0 1-.06.07zm19.58-15.8l.05-.11-.16.04.11.07zM24 30.83a.25.25 0 0 0-.07.12s.07-.06.07-.12zM23.64 35l-.11.58a5.52 5.52 0 0 0 .11-.58zm-.28 3.15a.16.16 0 0 0 .08.07h0zm21.43-31.1l.11.08c.28.14.1.02-.11-.08zM30.34 3.23a1.73 1.73 0 0 1 .29-.51c-.28.15-.44.33-.29.51z"/><path d="M55.5 20.92h0v.1zM31.3 2.28a1.17 1.17 0 0 0-.67.44 4.83 4.83 0 0 0 .67-.44zM23.15 52v.16zm.01.17v.17c.01-.08 0-.15 0-.17zm.03.53v-.36a2 2 0 0 0 0 .36zm-.06-4.93v-.05a.05.05 0 0 0 0 .05zm0-1.29a10.43 10.43 0 0 0-.06 1.2h0c-.07-.16.12-.9.06-1.2zm.87-5.32l-.12 1.07c.06-.19.16-.43.14.06.23-1.29-.2.27-.02-1.13zm.32-3.31c0 .58.11 0 .15 0-.04-.33-.05-.42-.15 0zm3.32-23.78l.32.11c.04-.44-.13-.03-.32-.11zm-.82-4.91l-.32.39.26.29.06-.68zm3.3-1.66l-.03.18.17-.64-.14.46zM53 27.11l.52-.33c-.16-.24-.81-.05-.52.33zm3.94 16.37c-.3.19-.5.67-.2 1 .05-.43.26-.81.2-1zM51.89 4.75l.41.13-.65-.39.24.26z"/></g></svg>