<svg xmlns="http://www.w3.org/2000/svg" viewBox="0 0 101.67 121.76"  xmlns:v="https://vecta.io/nano"><path d="M55.43 9.79C35 22.61 16.53 40.24 6.75 62.67 1.92 73.73-2.86 87.86 2.64 99.53a20.51 20.51 0 0 0 11.48 10.81c3.3 1.15 6.62.87 10 1.1 4 .27 7.53 1.71 11.21 3.24 11.18 4.67 22.08 5.35 33.26.2A52 52 0 0 0 93.4 89.66c5.66-12.26 7.38-25.75 7.83-39.13.39-11.25 2.77-26.28-9.61-31.92-4.18-1.9-10.49-2-13.71-5.44C74 9 71.29 3.59 64.4 6c-6 2.14-10.87 9.38-14.62 14.29a95.53 95.53 0 0 0-11.89 20.42C35.61 46 40.41 52 46.1 48.92a34.65 34.65 0 0 0 16.3-19.21c1.75-4.8-3.33-8-7.38-7.38-14 2-26.16 13.69-28.71 27.61-1.33 7.29-.23 16.15 8.31 18 7.59 1.65 13.59-4.13 16.83-10.33 3.43-6.54 4.2-16.15-4.44-18.94-6.84-2.2-15.34 2.13-20.21 6.8-5.47 5.25-7.69 14.11-3.09 20.62 4.05 5.73 12.95 7.35 18.28 2.41s4-13.51-1-18c-5.71-5.2-14.6-3.37-19.66 1.77-5.53 5.61-6.7 15.58-4 22.8A10.83 10.83 0 0 0 33.2 80.5a11.22 11.22 0 0 0 2.79-17.15 13.25 13.25 0 0 0-18.61-1.59c-6.27 5.19-7.16 13.86-3.82 20.95 1.37 2.9 3.78 6.92 7 7.89 3.8 1.12 8.1-.89 10.45-3.81 5.59-6.85.29-17.17-8.51-16.79-9.34.4-13.39 12.13-10.84 19.83s12.26 12.44 19.73 8.28 8.42-13.79 3-19.9c-1.91-2.15-4.92-2-7.27-.94-5.32 2.36-11 6.55-12.43 12.53a11.83 11.83 0 0 0 6.87 13.63A15.14 15.14 0 0 0 36.87 101c5.08-4.29 6.64-10.87 7.58-17.15.59-4-1.55-7.36-5.79-7.59-14.18-.8-19 19.48-5.15 24.24 12.93 4.44 20.77-11.17 12.85-20.7-2.17-2.6-6.23-2-8.48 0-8.39 7.34-2.79 20.95 7.63 22.21 12.33 1.49 18.95-10.1 19.63-20.79.33-5.21-6.78-7.89-10.25-4.24a21.52 21.52 0 0 0-5 22.23 6.23 6.23 0 0 0 5.79 4.41c5.78-.08 12.07-2.37 13.67-8.55 1.35-5.19-1.68-11.13-7.12-12.17a6.2 6.2 0 0 0-6.77 2.76c-3 5.31-5.06 11.53-1.06 16.93 3.73 5 10.17 5.43 14.86 1.48 8.45-7.13 8.11-20.18 1-28-2.21-2.41-6.25-2.19-8.49 0a12.32 12.32 0 0 0-3.13 13.48c1.25 3.07 3.91 5 7.38 4.19 10.47-2.58 16-16 9.53-25-2.53-3.5-8-4.24-10.37 0S60.76 78 62.87 82.85c1.85 4.25 6.44 7.26 11.14 6.33 10.54-2.09 9-17.59 6.4-24.94s-12.69-4.36-11.57 3.19a15.78 15.78 0 0 0 4.06 8.21c2.13 2.52 6.28 2.08 8.48 0 6.94-6.58 12.54-18.6 1.69-24.86A9.9 9.9 0 0 0 70.44 53c-3.22 3.84-2.82 9-1.9 13.55.7 3.55 5.8 5.79 8.81 3.58 8.77-6.4 11.74-17.72 6.4-27.39a6.07 6.07 0 0 0-8.21-2.16C64 47.88 68.55 64 81.81 65.15a5.88 5.88 0 0 0 5.19-3c4.39-8.12 7.36-24.89-2.84-30.38-9.23-5-19.88 5.45-15.61 14.78 4.4 9.6 17.93 9.21 22.82.36 5.41-9.8-1.79-20.25-11.66-22.91a6.14 6.14 0 0 0-6.78 2.76c-2.24 3.9-3.93 8.65-1.49 12.91A9.23 9.23 0 0 0 82.17 44c2.3-.69 4.7-3.18 4.41-5.79-.58-5.47-1.58-10.9-6.23-14.48-4.35-3.34-10.35-3.5-14.46.43-8.81 8.52 4.74 21.94 12.66 12.91 2-2.33 2.55-6.22 0-8.49-11.79-10.49-29 2.65-21.19 16.69a6 6 0 0 0 5.19 3 14.82 14.82 0 0 0 9.66-4 6 6 0 0 0 1.54-5.83A15.08 15.08 0 0 0 58.14 27c-9.28.75-9.44 11.76-3.65 17 6 5.42 14.9 2.77 18.67-3.87 4.34-7.64.72-16.07-5-21.82-2.16-2.2-6.35-2.43-8.48 0-4.47 5.1-7.9 11.65-5.45 18.51A12.79 12.79 0 0 0 69.4 45.1c2.73-.65 4.18-3.2 4.4-5.79C74.88 27.42 59 22.9 51.66 30.8c-6.52 7-5.12 24.26 6.24 25.43 5.6.57 10.37-4.14 10.75-9.63s-3.91-10-9.16-11.16c-11.86-2.65-21.73 12-21 22.63.39 5.32 3.79 10.53 8.88 12.42 6.55 2.44 13.39-1.15 17.15-6.64C71 54.5 65.93 39 53 40.48c-11.89 1.39-16 17.77-9.09 26.31 6 7.43 23.21 6.28 23.11-5.65 0-6-6.91-10.54-12.18-11.31A14.14 14.14 0 0 0 40 57.54a14.54 14.54 0 0 0 2.27 16.63C47.08 79.14 54 79.54 60 77a5.76 5.76 0 0 0 3-5.18c-.92-7.79-8-14-16.19-11.87-8.52 2.21-9.34 12.53-4.81 18.77a13.07 13.07 0 0 0 20.16 1.4 14.84 14.84 0 0 0-.38-21.26c-5.22-4.79-17.91-7.24-21.27.91-3.14 7.59 2.23 16.75 10 18.67 9.2 2.27 14.42-7.88 13.48-15.77C63.4 58 61.43 55 57 53.34s-9.59-1.67-13.21 1.73c-7 6.6-2.4 18.34 6.3 20.4C61 78.05 68.16 68.33 72 59.7c2-4.39-1.33-10.56-6.78-8.81a60.12 60.12 0 0 0-25.08 15.55c-4.82 5 1.25 12.51 7.27 9.42l19-9.75c7-3.58.86-13.41-6-10.36l-27.28 12L41.31 76l3.09-4.82c3.19-5-3.21-11.51-8.21-8.21A123.2 123.2 0 0 0 9.25 87c-2.68 3.23-2.06 7 1.22 9.43 7.38 5.56 16.49 6.67 25.41 7.66 4.57.51 9.22 1 13.6 2.47s8.23 5 13.19 5 8.21-3.38 11.42-6.64a95.68 95.68 0 0 0 10.38-12.16C90.55 84 93.59 73 90.09 62.61 87.62 55.34 76 58.46 78.51 65.8 81.27 73.93 78 81.69 73 88.19A92.54 92.54 0 0 1 65 97c-1.89 1.91-1.84 2.58-4.26 1.65-1.58-.61-3.07-1.68-4.65-2.35C43.5 90.9 27.77 94.52 16.52 86l1.22 9.42a112.16 112.16 0 0 1 24.51-22.08L34 65.13l-3 4.81c-3.56 5.56 3.21 10.42 8.21 8.21l27.28-12-6-10.36-19 9.75 7.27 9.42a47.27 47.27 0 0 1 19.68-12.5l-6.77-8.81C59.59 58.29 58 62.28 53 63.82c-.21.07-.51-.18-.53-.18 0-.8-.09-.78-.18.07s-.12.86-.14.36c-.22 1.09-.21 2.83-1.86 4.4l4.24-1.76c-2.53.17-3.33-1.66-2.48-3.71l-4.19 4.19c1.82-.68 4.4-1.13 5.88.6 1 1.12 1.24 3.35-.45 4.18-2.08 1-1-1.23-2.21-1.6-2.9-.9.05 2.83-.11 1.45l3-5.18a2.57 2.57 0 0 1-3.16-3.69c1.52-2.67 4.08-.78 5 1.26l-.6-4.62c-.17.48-1.76.18-2.4-.8-.88-1.32-.46-4.62.77-5.65 4.42-3.7-.4 11.38-3 4.74-1-2.44 1.28-6 2.66-7.83A10.73 10.73 0 0 1 56 47.32c1.06-.71 3.92-1.08 4.42-2.48s-2.06-4.22-.07-5.8c1.15-.91 1.51-.18 1.47.25l4.41-5.79c-2.65.63 1.87-6.63 1.95-6.72h-8.45c3.05 3.09 3.81 6.19 2.41 9.51l-3.59 2.76c1.92-.45 3.2.82 3.63 2.57l1.54-5.84-1.17.47 5.18 3c-1-1.8.54-3.75 2.33-2.15v-8.52c-.23.27 3.53 5.23 3.88 6.25a15.7 15.7 0 0 1 .64 3.4L79 32.44q3.26 3.78 4.32.39l-6.78 2.76c1.94.52 4.81 1.75 4.72 4.22-.09 2.11-1.23 1.26-1.79 1.8-1.19 1.15-.63 3-.51 4.9a17.48 17.48 0 0 1-2.31 9.61l5.18-3c-1.6-.14-1.28-1.56-.21-2.23l-8.21-2.16c2 3.54 1.32 8.49-2.1 11l8.82 3.59c-.48-2.4-.18-4.44-2.8-1.66-1.55 1.65-2.66 3.81-4.41 5.48h8.48a4.49 4.49 0 0 1-1-2.91l-11.56 3.2a20.67 20.67 0 0 1 1.47 8.14c0 .54-.61 2.49-.41 2.93 2 4.42 5.32-3.13 5.65-3.72H65.18c2 2.72 1.13 6.49-2.35 7.35l7.38 4.19c-.53-1.29-.7-1.07.05-1.81h-8.49a7.61 7.61 0 0 1 1.77 6.85s-1.21 2.94-1.24 2.83c1.26 3.8 3.11-1.73 3.56-2.51l-6.78 2.75q.64-3.81-1.43-3a4.33 4.33 0 0 1-1.93.16L61.51 96c-1.4-3.84-1-7.53 1.87-10.56l-10.24-4.26c-.19 2.9-.88 6.86-3.76 8.39-1.2.64-5.15.55-3-1.32h-8.5c1.42 1.71-3.71-.29.78 0l-5.78-7.6c-.45 3-1 11.68-5.36 11.85-1.54 0-1 .38-.56-.75.74-1.88 4.62-3.38 6.22-4.09l-7.27-.94c.81.91-1.25 1-2 .51-2.11-1.33.73-8.4-1.63-8.41l4.24 1.76c-2.38-2.74-4.83-8.19-.37-10a.83.83 0 0 1 .51.21c.36.33.55.13.55-.61h.18l1.12.34a9.64 9.64 0 0 1-.33-2.26 14.62 14.62 0 0 1 0-3.24c.23-1.83 1.28-5.5 3.78-5.53.74 0 2.38 1.16 2.43.07 0 .14-1.1-.45-1.15-1a4.59 4.59 0 0 1 .33-2.25c.93-2.41 3.59-3.9 5.79-4.95.82-.39 1.88-.6 2.64-1a4.84 4.84 0 0 1 1.26-.36l-1.14-1a16.27 16.27 0 0 0-1 2.62 15.93 15.93 0 0 1-1.85 3c-.42.52-1.06 1.63-1.81 1.66.6 0 .21-.45.29-1.29a22.38 22.38 0 0 1 1.41-6.4A23.82 23.82 0 0 1 58.21 33.9l-7.38-7.38A22.16 22.16 0 0 1 40 38.56l8.21 8.21A87.5 87.5 0 0 1 65.86 20l2.4-2.37-2.05-.32.67 1c.49 1.47 2.39 3.33 3.51 4.36 3 2.77 6.92 4.07 10.78 5.16 2.85.81 6.91 1.2 8 4.41.66 2 .26 4.72.26 6.78l-.1 9.8C89 59.37 88.06 70.1 84.41 80.16c-6.36 17.53-24 31.69-42.9 24.19-4.62-1.84-9-3.95-14-4.61s-10.42.77-13.52-4.32c-4.95-8.11.41-21 4-28.78 9.15-19.64 25.32-35.1 43.5-46.49C68 16.06 62 5.67 55.43 9.79z" fill="#ef9293"/><g fill="#202020"><path d="M97.25 113.48c.09-.11 0 0-.24.22l-.2.2zm-1.94 1.79c-.33.32-.76.64-.49.5a5.82 5.82 0 0 0 .77-.73 3.23 3.23 0 0 1 .46-.42l.59-.57-1.33 1.26c-.12.09-.02-.01 0-.04zm-36.82 3.49l.23.09zm-23.36-4.6c.18 0 .26 0 .28-.07-.17.01-.31.02-.28.07z"/><path d="M31.17 113l.23.07c-.08-.07-.17-.07-.23-.07zm27.32 5.76l-.6-.24c-.07.11.3.15.6.24zm32.51-.41l.29-.19-.28.17zm-22.18 1.82h.19l.17-.11zm7.95.49c-.18 0-.24.19-.31.28a.68.68 0 0 1 .39-.14.23.23 0 0 0-.08-.14zm12.42-1.89l.21-.09a2.2 2.2 0 0 1-.21.09zm-26.02.5a.18.18 0 0 0-.05-.12s.02.08.05.12zM5.26 76.4s.01-.07 0 0zm3.42-8.7l-.06.11-.02.02.08-.13zm15.14 43.78h0c.24-.02.12-.03 0 0zM7.88 78c-.54.74-.57-1.3-1.19-.17.22-.12.81 1.08 1.19.17zm82.92 40.45c-.1 0-.19.12-.29.16a1.43 1.43 0 0 0 .29-.16zM6.69 77.8h0l-.06.12zm-.25 32.58a.82.82 0 0 0 .2.22s-.05-.12-.2-.22zM19.36 112l-.31-.1a1.08 1.08 0 0 0 .31.1zM.1 115.88a1 1 0 0 0-.06.66l.06-.1a.54.54 0 0 1 0-.56z"/><path d="M5 115.43a1.36 1.36 0 0 0-.12.12v.22zm2.67-52.97a1 1 0 0 1-.25.31c.18-.1.17.91.25-.31zM91 118.32a.64.64 0 0 1-.16.13l.2-.12s-.04-.03-.04-.01zm-86.73-2v.19c0 .03 0-.09 0-.19z"/><path d="M6.26 31.42v-.25a.31.31 0 0 0 0 .25zM.59 117.41a1.48 1.48 0 0 0 .4-.59.4.4 0 0 0-.13-.13zm6.83-54.64z"/><path d="M7.34 70c.11-1-.21-.51-.35-.74 0-1.24.25-.56.43-1 0-.78-.22-1.39-.17-2 .06 0 .08-.15.13 0-.17-.83.19-2.43-.06-3.4a.32.32 0 0 1 .1-.12.47.47 0 0 1-.46.12c0-.46-.16-.87.07-1a.56.56 0 0 0 .12.45l-.06-.49c.34-.42.06.67.29.68a16.07 16.07 0 0 1-.08-2.81c.33-.13 0 1.72.34.76l-.21 1.12c.56-.83-.08.69.51-.08.22-1.48 0-1.67.19-3.15-.16-.34-.29.1-.45-.24-.2-2.13 1-1.62.66-3.19-.21-.42-.66-.6-.34-1.69l.39.4c.16-1.43-.55-.85-.15-2.34.15.27.06 1.13.13.92.41-1-.2-.7-.15-1.46l.41-.13c.06-1.54-.12-3.24-.08-4.94.12.1.23.4.39 0a29.77 29.77 0 0 1 .82-6.62l-.34-.81c0-.18.21-.33.27-.13.21-.8-.25 0-.39-.45s.28-.59.38-.3c-.23-1.43-.48-4.08.08-5.56l.11.3c.26-1.15-.81-1.36-.33-2.42l.06.21c.37-2.52.12-5.34 1-7.23a.43.43 0 0 1-.19-.29l-3.25-.16c.18.69-.52 2.23.28 2.4-.57 1.42-.72 1-1.19 3-.09.54.56.84.62 1.52h-.56l.48.94-.66.45.09.64c0-.25.28-.53.42-.48a2.85 2.85 0 0 1-.8 2.39l.29 2.35c-.22-.06-.26-.46-.38-.77.46 1.27-.58.2-.16 1.36.13-.15.32.1.43.13A5.48 5.48 0 0 0 5.63 39l-.36-.21c-.22 1.72-.08 3.65-.21 5.59.23-.69.89-.49.92.08l-.62.19c.35.39.27-.58.67.2-.11.72-.71.45-.88 0l.15.89c-.18 0-.26-.17-.49-.24.35.38-.7 1.49-.09 2h-.18c-.14 1.94 0 2.83-.06 4.41.53.06.37.67.77 1.16A20.59 20.59 0 0 0 4.46 57c.2 1 .44.31.73.77-.5 0-.54 1.44-.85.7a22.41 22.41 0 0 0 .24 4.29c.22-.22.32-.48.48-.33.06.39-.26.86-.5.79v-.1c.61 2.42-1.8 5.41-.87 7.37v-.11l.43 2c-.14.9-.34-.56-.7.09.72 2.17-.32 3.35.14 5.12-1.59 1.27-.18 4.81-1.24 6.58l.27-.17c.32.49-.24.56-.34.9.28 0 .35-.49.52-.18.2 4-1 8.21-1.53 12.29-.18 1.49 1.78 1 .83 2.8l-.62-.58c.62 3.07-.36 6.18.15 9.19-.14-.19-.34-.21-.32-.5-.5.6-.14 2.31.24 2.35-.07.46-.35.08-.56.36-.31.61.51 1.61 0 1.91-.08.05-.14-.18-.17-.3.2.42-.15 1.9.4 1.54-.31 1.1.13 2.15-.23 3 .42.46 0 1.29.1 1.78l2.56-1.87v.1l-.06.16c.06-.15 0-.07 0-.07h0a.6.6 0 0 1 .18-.18s.1-.08.15-.1.12 0 .09 0H3.9a2.55 2.55 0 0 1-.28-.18c.26.06.26-.23.62-.11a.63.63 0 0 0-.48-.61c.29 0 .37 0 .43-.07a1.91 1.91 0 0 1 .23-.38c.21-.33.62-.59 1 0 1.5-.78 4.05-.78 6.13-.91-.13.8-2.36 0-2.32.83 2-.26 3.25-.88 5.24-.56.51.14-.32.32-.5.45 2-.2 3.89.32 5.72 0 0 .08-.21.14-.4.18.36 0 .81.18.8-.17l-.35.07c-.52-.56 1.5-.95 1.59-1.21-.69 1 1.75.41.68 1.58.24 0 .54-.18.51-.42.34.1.44.25.06.48 1.29-.08.87-.48 2-.37 0 .17-.26.21-.4.39a3 3 0 0 1 2.19-.29c-.07.09 0 .23-.26.2 1.67.11 2.93-.53 4.73 0-.63.62.59.3.61.9l1-.06-.36-.33c.86.11 1.68-.22 2.39.07l-.67.15 1.62.11-.88-.34c.91-.18 0-.73 1.13-.42-.24 0 .86.13 1.26.52h0a2.35 2.35 0 0 1 1.53 0c.14.2-.22.58-.13.72.49-.41 2 .16 2.63-.24a.38.38 0 0 0-.2.43l.41-.3c.38.17.43.24.33.45 1.18.25-.27-.73 1.09-.22-.11 0-.07.07-.31.09 1.4.37 2.78.22 4.06.62.29.56-1.16-.07-.8.43a41.94 41.94 0 0 1 5.79.53l-.33-.12c.39-.61 1.29.58 2.27.44-.24 0-.37.3-.29.24a25.68 25.68 0 0 0 4.51.48l-.27.11a27.1 27.1 0 0 0 2.72.62c.26-.11.71 0 .47-.27 2.33 1.21 4.76.31 6.87 1.19-.26 0-.64 0-.43.06.63 0 1.27.06 1.9.07-.13-.22-.24-.15-.61-.35a3.14 3.14 0 0 1 1.25-.1c-.86 0 0 .33.33.47-.05-.07.08-.13 0-.19 1 .43.2-.37 1.52 0l-.08.1a8.4 8.4 0 0 1 1.51-.08c.22.23-.53.08-.58.26a8.78 8.78 0 0 1 2.2-.12c-.32.07-.79 0-1.12.09a3.13 3.13 0 0 0 1.4.24h-.06l1.3.09-.33-.06a3.19 3.19 0 0 1 1.49-.3 7.49 7.49 0 0 0 1.72-.23c-1.22.35-.19.17-.27.38.33 0 .83.06.69.12a11.24 11.24 0 0 0 1.87-.33s.65-.09.53.07c.78-.16-.2-.07-.14-.15.59-.17 1.31-.21 2.08-.36a9 9 0 0 0 2.44-.63 31 31 0 0 0 2.93-1.3c.46-.13-.31.27-.31.27a16.42 16.42 0 0 0 1.9-.8c-.13.08 0 0 .23 0a6.91 6.91 0 0 1 1-.62c-.1.09-.23.21-.45.38l1.8-1.23c.18-.07-.32.27-.53.41a7.66 7.66 0 0 0 1.1-.78c.35-.28.65-.51.73-.6l-.41.29c.23-.18.14-.06 0 .07a3.17 3.17 0 0 1-.89.56l.4-.31-2.58 1.56.31-.31a9.9 9.9 0 0 1-.87.56c-.22.06-.39 0 .06-.16-.69.21-.57.29-1.17.45-.07 0 0 0 0 0l-.63.31c.12-.08-.15-.06.26-.2a14.81 14.81 0 0 1-2.37.78h.1c-1.67.53-.13.18-1.35.69-.32 0-.64-.12-1-.19l-.14.19c-.18 0-.53.08-.47 0-.64.23.12 0-.24.22-.87.06-2.37.41-2.59.16-.3.18.83 0-.08.22-.29-.29-1 .19-1.86.06.23-.19 1-.12.18-.25-.46.32-1.54 0-2.2.07 0 .26-1.45.09-2.57.16.07 0-2.1-.27-3.13-.45v-.05c-.23.31-1.29.12-2.08.11 0-.19.2-.25.63-.29l-.61-.13a2.13 2.13 0 0 1-.9.1l.22-.23a16.35 16.35 0 0 1-3.22-.32c-.1.25.91.83-.45.83 0-.15 0-.39.31-.39a1.5 1.5 0 0 1-.64 0l.56-.14c-.55-.2-.32.14-.77 0 0-.2-.32-.2-.23-.35s.38.15.57.1a3.37 3.37 0 0 1-1.29-.53c0 .12 0 .27-.42.24-1-.15-.29-.3-.83-.51-.26.1-.85-.17-.92.14-.28 0-.31-.21-.4-.32-.52.05-2.33-.41-1.83.05h.04c-1.69 0-3.35-.86-5-1.06v-.12a16 16 0 0 0-2.92-.24c-.29-.06-.64-.37-.48-.49a4.09 4.09 0 0 1-1.91-.35c.79-.08-.22-.25.8 0-1-.3-1.13-.57-2.23-.41.41-.26-.66-.56-1.13-.55l.63.38a8.61 8.61 0 0 1-1.43-.29l.33-.4c-1.89-1-3.74.3-5.1-.92-.58.25 1 .43.51.74-.9-.22-1.75-1.08-2-1.13-1.22-.48-1.28.52-2.57.13.14.21.23.7-.77.73-.91-.19-1-.92-.43-1 .23 0 .33.09.31.15.3 0 .7 0 .37-.29l-.15.17c-.43-.26-1.69-.43-1.36-.69-.71.07-.33.26.17.43-1.15-.44-1.84-.27-3-.63.18.13.33.38.14.35-1.75-.48-.83.25-2 .17-.66-.38.32-.66-.92-.57-.72-.3-.1-.53.21-.65-1.15.22-2-.51-2.67-.66l.6-.08a3.21 3.21 0 0 1-.94 0l.29.43c-.33-.11-.62-.15-.6-.31-.38.22.2.68-.54 1-.44-.25-1.42.07-1.52-.48 1.42.34-.11-.55 1.12-.49a2 2 0 0 1-.86-.11c-.05-.07 0-.1.15-.12-1.33-.64-.69.52-2.12.35.21-.28-.28-.6-.52-.56.58.06.23.53-.32.71-.9-.33-1 .07-1.5 0l.54.16c-.21.29-.66.21-1.31.25 0-.25.59-.12.37-.24-.75.48-1.56-.71-2.58-.43-.44-.25 0-.59-.39-.76-1.14.31-1.18-.54-2.37-.3.31.46.37.35-.48.71l1.94-.15-1.27.52c.58 0 1.24-.17 1.58-.07-.61.29-.54.19-.29.56-.75-.7-1.6.26-2.48-.24l.09-1c-1.35-.58-2.48.37-4.27 0l.57.22c-.25.41-1.12 0-1.75.16.06-.36-.33-.5-.62-.72.07.24-1.54.05-1.62.84a6.57 6.57 0 0 0-1.1-.34 2.21 2.21 0 0 0-1.65 1.22l-.44.82-.59 1c0-.33-.21-.37-.33-.46s-.21-.27.18-.92c-.52.53-.87 1.12-.64 1.23-.2.13-.28.64-.28 1.13a3.18 3.18 0 0 1-.11 1.29c.18.27.54.32.66 1-.05.09-.18 0-.18 0 .15 0 .63.94.78.23a1.55 1.55 0 0 0 .31 1.23 2.39 2.39 0 0 0 1.34.83l1.17.28.09-1.23c.08-1.21-.11-2.52.58-3.26-.07-1-.12-2.24-.09-3.16.11.07.19 0 .14.19.43-1.24-1.05-.85-.57-2.27.66-.69.29.79.55.35 1.28-.12-.07-1.75.73-2.67l.06.24c.48-.71-.37-1.84-.21-3a.26.26 0 0 0 .2 0 8.55 8.55 0 0 1-.85-3.63c.49.4.24.55.76.36 0-.52-.83.1-.91-1 .3-.32.58-1 1.13-1.12v1c.74-.45.06-1.27.21-1.78l.3.09c0-1.51-.79-1.58-.64-3.2l-.24.15c-.72-.93.48-.71 0-1.63l.8-.21a21.29 21.29 0 0 1-.73-3.15 9.53 9.53 0 0 1 1.08 2.65c0-.58.06-2-.31-2.29.06.23.24.54.1.76a4.07 4.07 0 0 1-.75-2.85c1.52.3.56-3 1.8-3.74-.45-2.07.46-4 .51-6.41-1.24.77 0-.7-1.22-.62 0-.56 0-.77.06-.81l.82-1.64c.38-.38.24.54.52.51.16-1.21.54-.48.91-1.26-.45.14-.6-.46-.4-1.14l-.61.94c-.55-1.73 1.09-1.41.55-3.15l.35.56c-.18-.89.18-3.23-.74-4.14.14-.15.48-.33.55.06.25-2.09-.77-4.72-.1-6.31l.28.17c-.06-.39-.51-.71-.19-1.18.12 0 .28.17.31 0a2.62 2.62 0 0 1-.26-1.57l.3.46c.48-2-.63-3.18-.73-4.9.84 0 1.19-1.54 1.37-2.33h.11c.22-2.37-.49-4.08-.7-6.29 1-1.32.6-4.61 1.18-6.78-.16.32-.61-.09-.67-.49.18-.5-.47-1.45.24-1.33v.18c.72-.35.58-1.42.63-2.24l-.92-.19c1.44-2.09-.21-5.69 1-6.81-.2-.53-.17-1.18-.37-1.71l.47.05a22.56 22.56 0 0 0 .24-3.95l.31.38c0-.61-.43-1-.81-1.37l-3.27-.15a1.31 1.31 0 0 1 .45.9l-.69.25c-.06 1.76-.7 3.51-.17 5.28a.4.4 0 0 1-.3-.38c0 .82-.53 3.18.34 2.92-.56 0-.12 1.82.08 2.78l-.4-.17a3.2 3.2 0 0 1 .71 2c-.06.26-.32.22-.21-.13-.24.87.34.71.09 1.77L6.84 37a1.6 1.6 0 0 0 .33 1.35c.13.58-.17 1.73-.51 1.84A1.26 1.26 0 0 1 7 41.37c-.13.07-.2-.13-.23-.23-.31 1.5.32 2.28-.07 3.31a.26.26 0 0 0-.22.16 17.15 17.15 0 0 1 .14-2.09c-.34 0-.43 1-.86.16a7.84 7.84 0 0 1 .53 3.11.68.68 0 0 1-.12.12v-.1a1.32 1.32 0 0 0 0 .6 4.45 4.45 0 0 0-.17.79c-.26.1-.17 1.11-.2 1.6.34 0 .26.61.55 0 0 .07 0-.1 0-.42a1.05 1.05 0 0 0 0-.21h0v-1.21a1.63 1.63 0 0 1 .08 1.33 10.98 10.98 0 0 1 .51.71c-.5.64-.79 1.91-1.07 2.08.13 1.5 0 3.51.53 4.47.06.43-.18.48-.27.63a2.8 2.8 0 0 0-.1-.67c.11.85 0 2.51.32 2.73-.2 1.06-.31-.62-.3.85L6 59a10.41 10.41 0 0 0 0 3.82 10.87 10.87 0 0 1-.13 4.06c.05-.22.07-.33.12-.37-.2 1.81-.2 3.69-.24 5.56s-.11 3.74-.3 5.52a6.12 6.12 0 0 0 .08 1.77l-.14.21v.34h.54l-.15-.71a8 8 0 0 1 .07-2.09l.26-2.38-.11.17a12 12 0 0 1 .45-2 1.71 1.71 0 0 1 .12-.48h0a14.88 14.88 0 0 1 .51-1.6c.51-1.2 0 .21.73-1.54.28-.65.94-1.78.81-1.55s-.37.63-.39.65l.34-.56c.05-.1.33-.52-.55.81a13.52 13.52 0 0 0-.54 1l-.18.31c.14-.28.3-.55.45-.83a8.07 8.07 0 0 0-.58 1.11 3 3 0 0 0-.17.38 9.74 9.74 0 0 0-.37 1c-.08.12.13-.47-.17.21-.15.49.24-.44 0 .36a3.3 3.3 0 0 0-.35 1c-.05.08 0-.05 0-.29a11.08 11.08 0 0 0-.39 1.73c-.22.53-.3 1.87-.43 1.81v1.51c-.07-.47-.11 0-.13.59s0 1.24-.12 1.13a.56.56 0 0 0 .06.29h1.17c0-.83.16-2.34.14-3.42a1 1 0 0 1 0 .31 10 10 0 0 1 .26-1.31c-.21-.1-.17-1.17-.28-1.76.3-.82.24.53.48.28-.19 0-.07-1.47-.26-1.2.2-.63.12-.55.36-.87-.32-.13 0-.6-.17-1.14.25-.92.35-.22.33-1.25.17-.51.21.42.21.42zm1.1-24.34h0v.5zm.13-2c0 .24-.06.55-.08.88-.12.07-.24 0-.23-.22.08.06.18-.42.31-.71zM5.94 47.8c0-.32 0-.43.1-.47v.57a.43.43 0 0 1-.1-.1z"/><path d="M6.36 48.41v.13a1.08 1.08 0 0 0 .08-.19l-.1-.12zm52.41 70.46h-.05a.18.18 0 0 1 .08.06zM6.19 29.13l.12.01-.1-.19-.02.18zm63.6 92.29a.39.39 0 0 0 .14.08s-.06-.05-.14-.08zm4.9.25l.69.07zm3.78-.04a.44.44 0 0 0 .07-.08h0zm-59.13-6.4h-.15c-.34.09-.11.07.15 0zm17.66.84a3.86 3.86 0 0 1-.59.12c.31.08.59.12.59-.12z"/><path d="M4.28 116.29h0a0 0 0 0 1 0 0zm31.32-.21a1.59 1.59 0 0 0 .81.11 2.44 2.44 0 0 0-.81-.11zm58.23.47l.14-.11zm.17-.13l.16-.13z"/><path d="M94.47 116l-.33.26a2.54 2.54 0 0 0 .33-.26zm-4.97 3h0s0 .05 0 0zm-1.39.65l1.32-.52c-.17.1-1.03.32-1.32.52zm-6.25.88a10.38 10.38 0 0 0 1.25-.13c-.23 0-.52-.05 0-.16-1.55.08.38.12-1.25.29zm-3.86.19c.67 0 0-.1 0-.15-.42.08-.52.11 0 .15zm-27.83-3.91l.13-.31c-.52-.06-.03.13-.13.31zm-5.64.78l.46.3.3-.28-.76-.02zm-2.72-3.08l.23-.01-.88-.02.65.03zm-36.44 2.18l-.62.11c.09.36.76.48.62-.11zM6 96.17A.84.84 0 0 0 6.25 95c-.07.48-.34.93-.25 1.17zm4.21-61.39l.16.42-.12-.78-.04.36zm.35 21.44c0 .22 0 .09-.1-.52l-.09-.43zm-.71-4.12c-.13-.71-.31-1.54-.27-1.07l.34 1.65.15 1c0 .23.17.9.25 1.28l-.5-2.86c-.03-.27.01-.05.03 0zM22.38 1.93h-.39zm37.51.69c-.29 0-.41 0-.43.09.27-.02.54-.04.43-.09zm6.36.91l-.37-.06a.59.59 0 0 0 .37.06z"/><path d="M22.38 1.93l1 .1c.07-.13-.51-.09-1-.1zM8.54 43.83q0 .31.09.54c0-.17-.05-.33-.07-.5zM10.4 8.3l-.05.3a1.43 1.43 0 0 0 .09.27zM8.94 20.87c0-.29-.17-.4-.25-.51a1.63 1.63 0 0 1 .1.63s.08.01.15-.12zM8.63 41v.36zM15 2.54a.22.22 0 0 0 .12.09s-.03-.06-.12-.09zm85.59 95.62h0c-.01.07 0 .1 0 0zm-.5 14.73v-.24.24zM77.89 5h-.06c-.31 0-.13 0 .06 0zm11.54 89.39c.61-1.17.47 2 1.18.25-.23.15-.72-1.74-1.18-.25z"/><path d="M8.52 43.51L8.46 43l.06.51zm82.09 51.13h0l.07-.18zM94.45 14a.8.8 0 0 0 .24-.27c-.06-.04-.12.02-.24.27zm-9.64-9.43l.49.11a3 3 0 0 0-.49-.11z"/><path d="M94.75 24.42a1.52 1.52 0 0 0-.07.73.41.41 0 0 0 .07-.11.76.76 0 0 1 0-.62zm-.51 10.87l.12-.2v-.35zM100.69 65a1.56 1.56 0 0 1-.22.51c.18-.14.26 1.49.22-.51zM8.59 43.82a1 1 0 0 1-.07-.31v.36s.07.03.07-.05zM98.92 25l-.14 1.73a16.38 16.38 0 0 0 .14-1.73zm-7.41 10.61v-.4a.76.76 0 0 0 0 .4zm7.15-3.7a3.18 3.18 0 0 0-.41.95.62.62 0 0 0 .13.21zm1.81 33.64h0z"/><path d="M101.07 76.94c0-1.65-.26-.77-.41-1.11-.09-2 .19-.92.34-1.59l-.35-3.08c0-.07.07-.25.13 0-.25-1.29 0-3.86-.39-5.36a.71.71 0 0 1 .08-.2c-.16.25-.32.29-.44.24 0-.73-.25-1.36 0-1.65a1.42 1.42 0 0 0 .17.7l-.11-.77c.3-.71.13 1.06.36 1.05l-.38-4.42c.33-.26.18 2.7.43 1.15l-.09 1.79c.47-1.38 0 1.09.49-.18.07-2.36-.2-2.64-.15-5-.19-.52-.27.18-.47-.34-.43-3.33.82-2.66.29-5.11a3.39 3.39 0 0 1-.53-2.61l.43.58c0-2.29-.65-1.28-.44-3.68.19.42.21 1.79.25 1.44.29-1.56-.29-1.08-.33-2.27l.38-.27-.72-7.78c.13.15.28.6.38 0a79.07 79.07 0 0 1-.14-10.54l-.47-1.22c0-.29.16-.55.25-.24.09-1.29-.26-.05-.45-.65s.19-1 .33-.53c-.46-2.23-1.13-6.35-.82-8.76l.16.46c.06-1.86-1-2-.74-3.76l.1.32-.08-2L97.45.12l-2 11.2c-.6 3.37-1 6.85-1.92 9.3.57.67-.89 3.9 0 4.28-.79 2.21-.89 1.54-1.63 4.71-.16.85.44 1.35.41 2.42h-.52l.37 1.5-.72.69v1c.08-.4.33-.82.48-.74.06 1.58-.8 3.75-1.08 3.76l.06 3.73c-.2-.11-.22-.73-.3-1.23.34 2-.61.3-.29 2.15.15-.23.31.17.42.22a12.65 12.65 0 0 0-.62 4.44l-.35-.32c-.36 2.73-.31 5.79-.54 8.87.26-1.09.91-.8.91.11l-.62.32c.33.61.29-.93.66.3-.13 1.14-.72.73-.88.06l.12 1.41c-.18.07-.25-.26-.48-.36.34.59-.75 2.38-.16 3.24l-.18.07-.12 7c.53.07.37 1 .78 1.81a43.91 43.91 0 0 0-.74 6.1c.24 1.56.45.46.76 1.17-.5.11-.5 2.33-.83 1.17a52.12 52.12 0 0 0 .43 6.79c.2-.37.29-.78.46-.57.08.62-.2 1.4-.44 1.31l-.06-.16c.76 3.77-1.4 8.77-.27 11.77l-.06-.17.64 3.11c0 1.44-.4-.85-.69.23a13.92 13.92 0 0 1 .26 1.08l4.62.13c-.17-2.75.71-4.49.43-7 1.7-2 .56-7.6 1.75-10.4l-.37.13c-.28-.77.28-.88.41-1.43-.29.06-.39.79-.54.31.09-6.35 1.52-13 2.27-19.48.25-2.36-1.73-1.46-.7-4.4l.6.89c-.48-4.84.62-9.79.2-14.52.14.29.33.31.3.76.53-1 .22-3.66-.16-3.7.08-.72.35-.15.57-.59.32-1-.48-2.52 0-3 .08-.08.14.29.17.47-.2-.65.19-3-.37-2.42.33-1.75-.09-3.38.29-4.77-.56-.94.41-3-.42-3.33.86.17.82-3.05.46-4.18.24.38.3-1 .64-.51 0-1.27-.08-2.44-.53-2.24 1.1-2.3-.66-4.74.68-6q-.26-2.84-.42-5.49c-.06-.89-.07-1.74-.18-2.75a7.19 7.19 0 0 0-1-3.15c.19-.07.49.2.73.67a5.75 5.75 0 0 1 .48 1.65c.16 1.15.12 2.06.56 2a11.68 11.68 0 0 0-.49-2.67 6.15 6.15 0 0 0-1.39-2.51 6.17 6.17 0 0 0-2.36-1.43 18 18 0 0 0-2.51-.62c-.88-.22.54-.29.92-.34-1-.1-1.81-.12-2.57-.17l-2.3-.19a27.56 27.56 0 0 0-4.43-.14c0-.07.33-.13.63-.17-.57 0-1.3-.21-1.27.15l.59-.06c.86.59-2.32.89-2.45 1.15 1-.93-2.8-.46-1.18-1.6-.38 0-.86.17-.79.41-.55-.11-.71-.26-.13-.48-2 .05-1.35.46-3.18.34 0-.17.39-.21.6-.39a7.13 7.13 0 0 1-3.44.29c.1-.09-.07-.23.39-.2-2.67-.09-4.58.58-7.48.14.89-.64-1-.27-1.11-.86L63.62.3l.62.31c-1.37-.07-2.61.31-3.78.08l1-.2h-2.55l1.45.27c-1.4.25.12.73-1.7.5a12.57 12.57 0 0 1-2.08-.4h0a5.54 5.54 0 0 1-2.4.15c-.26-.18.23-.6.06-.73-.69.45-3.22.07-4.09.53.29-.1.31-.39.22-.45l-.57.36c-.64-.13-.73-.18-.62-.41-1.91-.09.6.69-1.67.37.18 0 .09-.08.47-.13-2.29-.19-4.42.17-6.51 0-.61-.5 1.84-.12 1.14-.55-3 .1-6.27.62-9.2.54h.55c-.4.68-2.18-.31-3.66 0 .36-.06.47-.37.37-.3a62.32 62.32 0 0 0-7.12.55l.37-.17c-1.18-.11-3.11 0-4.39 0-.37.17-1.1.17-.65.37A12.43 12.43 0 0 0 16 .93a8 8 0 0 0-2.87.67 5.38 5.38 0 0 0-2.24 1.89A14.31 14.31 0 0 0 9.58 6c.1-.42.2-1.05.08-.71a18.47 18.47 0 0 0-.49 3c.24-.2.17-.37.44-1a8.55 8.55 0 0 1-.07 2c.05-1.34-.33 0-.52.52.08-.08.12.12.19.08-.57 1.5.34.31-.15 2.39L9 12.17c0 .8 0 1.54-.11 2.38-.25.33 0-.85-.19-.92a19.47 19.47 0 0 1-.14 3.46c0-.51.06-1.24.05-1.76a8.06 8.06 0 0 0-.42 2.18v-.09l-.24 2 .1-.51c.39 1.53-.09 3.07.14 5.11-.22-2-.16-.34-.35-.5-.07.52-.15 1.31-.2 1.08.13 1-.16 1.6.07 3-.06.06 0 1-.15.81 0 1.25.09-.3.17-.19.16 1.92-.15 4.52.21 7.28.23 2.37.38 2.8.59 5 0 .75-.17-.6-.17-.6a27.89 27.89 0 0 0 .29 3.23c-.05-.23-.05 0-.05.36.1.9.16.59.26 1.79-.05-.21-.13-.46-.21-.9l.49 3.21c0 .29-.14-.66-.21-1 .17 1.23.5 3.19.58 3.57l-.09-.8c.06.45 0 .24-.07-.09a8.22 8.22 0 0 1-.19-1.59l.12.78c0-.82-.41-3.14-.58-4.73l.18.65-.28-1.66c0-.35.06-.59.14.19 0-1.14-.14-1-.14-2 0-.11 0-.06 0 0l-.11-1.1c0 .21.09-.19.11.49 0-2-.3-3.21-.2-4v.16c-.18-2.76-.16-.26-.39-2.33l.33-1.41-.16-.27c0-.28 0-.85.07-.75-.11-1.06-.07.19-.17-.43.13-1.38-.07-3.79.23-4.1-.13-.5-.13 1.31-.2-.16.32-.41 0-1.69.19-3 .16.4 0 1.58.22.33-.28-.77.2-2.44.22-3.49-.27-.07.06-2.3.13-4.08.08.12.5-3.31.85-4.93l.05.06c-.28-.36 0-2 .14-3.27.19.07.23.31.22 1l.17-1.15a3.9 3.9 0 0 1 0-1.39l.19.33A19.18 19.18 0 0 1 11 5.31a3.44 3.44 0 0 1 1.4-1.95c0-.13-.43 0-.64 0s-.34-.24.53-1c.15.08.32.23-.08.58a2.06 2.06 0 0 1 .79-.55 4.6 4.6 0 0 0-.58.59c.76-.34.27-.41.92-.67.06.19.54 0 .49.16s-.59.1-.78.29A3.31 3.31 0 0 1 15 2.54c-.08-.1 0-.28.53-.36 1.51-.11.53.22 1.43.29.37-.16 1.36 0 1.38-.35a1.12 1.12 0 0 1 .72.22c.8-.16 3.75-.12 2.84-.46h-.08c2.63-.4 5.48.08 8.09-.09v.12a45.17 45.17 0 0 0 4.59-.37c.46 0 1.09.23.89.38a9.6 9.6 0 0 1 3.06 0c-1.2.22.41.2-1.23.16A9.27 9.27 0 0 0 40.8 2c-.57.33 1.17.45 1.9.36l-1.08-.26a21.44 21.44 0 0 1 2.29 0l-.4.45c3.15.65 5.73-.84 8.12.22.85-.32-1.72-.3-1-.67a24.55 24.55 0 0 1 3.42.88c2 .37 1.88-.64 4-.37-.26-.19-.49-.68 1.08-.79 1.46.13 1.76.84.83 1-.35 0-.51-.07-.5-.13-.47 0-1.09.09-.52.31l.2-.17c.71.22 2.72.3 2.23.58 1.11-.12.49-.28-.32-.41 1.85.35 2.91.15 4.83.45-.3-.12-.57-.36-.27-.34 2.81.4 1.26-.29 3.18-.26 1.07.36-.43.67 1.51.55 1.16.28.22.53-.26.65 1.77-.25 3.26.47 4.25.63l-.93.08a7.74 7.74 0 0 1 1.46 0l-.5-.44c.54.11 1 .15 1 .31.57-.21-.39-.68.75-1 .7.26 2.21-.05 2.42.51-2.25-.37.21.54-1.71.47a4.65 4.65 0 0 1 1.36.13c.08.06-.08.1-.23.12 2.13.66 1-.52 3.28-.32-.31.28.48.61.85.58-.9-.08-.39-.54.46-.7 1.42.37 1.58 0 2.33.06L84 4.39c.32-.28 1-.18 2.05-.19.06.25-.93.09-.58.22 1.17-.45 2.47.8 4.06.59.7.28 0 .59.63.79a3 3 0 0 1 1.71.2 3.51 3.51 0 0 0 1.4.4c-.21-.5-.31-.49.69-.51a8.37 8.37 0 0 0-2.45-.3 15.11 15.11 0 0 1 1.79-.29c-.75-.22-1.73 0-2.26-.18.93-.25.82-.15.44-.54a3.11 3.11 0 0 0 1.73.42 1.83 1.83 0 0 1 1.56.64l-.65.84a4.51 4.51 0 0 0 .34.57 4 4 0 0 1 .41.79 6.78 6.78 0 0 1 .21 3.25l.22-.9c.42.39 0 1.74.14 2.66-.36-.1-.51.47-.75.85.27 0-.1 2.07.61 2.35l-.53 1.24c-.3 2.27.94 2.64.73 4.82-.38-.67-.68.31-.91-1.16 0 .73-.13 1.38.13 1.4-.25.42.41 2.05 0 2.71.15.31.53.43.47 1.25-.08.09-.19 0-.19 0 .19 0 .2 1.3.65.6-1.28 2.2-.2 6.3-1.32 8.21 0 1.6.07 3.53 0 5-.11-.1-.19 0-.14-.29-.46 2 1 1.29.52 3.54-.69 1.13-.27-1.22-.55-.51-1.28.24 0 2.75-.81 4.24l-.05-.38c-.5 1.15.32 2.88.11 4.79 0 0-.11-.1-.19 0a19.63 19.63 0 0 1 .7 5.68c-.47-.6-.21-.85-.75-.53 0 .83.84-.19.88 1.46-.31.52-.63 1.69-1.19 1.81L93 58.3c-.75.75-.1 2-.28 2.81L92.4 61c-.06 2.38.71 2.47.48 5l.26-.24c.67 1.45-.52 1.14 0 2.57l-.82.36a47.8 47.8 0 0 1 .56 4.94 19.72 19.72 0 0 1-.94-4.15c-.07.91-.16 3.11.19 3.61a2.49 2.49 0 0 1-.13-1.21 8.93 8.93 0 0 1 .58 4.48c-1.5-.44-.75 4.71-2 5.93.31 3.26-.76 6.35-1 10.1 1.29-1.23-.06 1.09 1.17 1 0 .88 0 1.21-.13 1.28l-1 2.57c-.41.6-.19-.85-.47-.79-.26 1.89-.59.75-1 2 .46-.22.56.72.3 1.79l.69-1.48a3.65 3.65 0 0 1-.61 2.86l5.08.14a3.34 3.34 0 0 0 0-2.09l.4.83c-.26-1.37-.17-5.07-1.14-6.4.13-.25.45-.58.55 0 .06-3.29-1.13-7.33-.55-9.89l.29.25c-.08-.62-.54-1.07-.25-1.84.12 0 .29.25.31 0a6 6 0 0 1-.33-2.45l.32.7c.39-3.2-.72-4.94-.87-7.65.84 0 1.17-2.49 1.34-3.75h.12c.22-3.73-.48-6.37-.61-9.86 1-2.1.78-7.26 1.52-10.67-.18.52-.61-.13-.64-.75.22-.8-.37-2.29.34-2.1v.29c.74-.55.7-2.23.83-3.52l-.91-.3c1.61-3.27.38-8.95 1.76-10.67-.13-.84 0-1.86-.14-2.69l.46.1a55.77 55.77 0 0 0 .81-6.18l.26.62c.22-1.57-1-2.17-.87-3.63l.73-.34c.33-2.66 1.28-5.25 1.17-8l-3.39-.15.08.28a.43.43 0 0 1-.28-.26l3.78.16a.92.92 0 0 1 0 .3v-.29l-3.9-.17c.07 1.46 0 4.75.81 4.25-.55.07.19 2.86.54 4.34l-.42-.21a6.92 6.92 0 0 1 1 3c0 .42-.28.39-.22-.17-.1 1.4.45 1.06.36 2.76l-.29-.61a3.64 3.64 0 0 0 .53 2.08c.22.9.1 2.73-.22 3a2.66 2.66 0 0 1 .5 1.81c-.12.12-.22-.19-.27-.34-.08 2.42.65 3.55.41 5.22-.11 0-.16.15-.19.29l-.17-3.3c-.33 0-.28 1.56-.83.36a17.55 17.55 0 0 1 1 4.81 1 1 0 0 1-.1.21v-.16a3.54 3.54 0 0 0 .11 1v1.25c-.25.19 0 1.77 0 2.54.33-.08.33.93.55 0 0 .13 0-.14-.09-.65a2.19 2.19 0 0 0-.06-.33v.05c0-.5-.09-1.16-.14-1.9a3.9 3.9 0 0 1 .24 2.06c.24.38.48.81.6 1-.41 1.07-.54 3.11-.79 3.4.32 2.34.43 5.52 1.06 7a1.43 1.43 0 0 1-.19 1 9 9 0 0 0-.18-1c.21 1.33.25 4 .63 4.25-.1 1.69-.38-.93-.22 1.38l-.12-.31c-.31 4.56 1.16 7.37.67 12.44a1.59 1.59 0 0 1 .08-.6c0 2.88.12 5.84.24 8.79s.18 5.9.1 8.74a17.39 17.39 0 0 0 .2 2.78l-.12.35.18 1.68c.1 2.39-.21 4.14 0 7.16l.06-.39v3.26a4.43 4.43 0 0 1 0 .78h0l.06 2.66c0 2.07-.09-.32 0 2.7v2.61c0 .19 0 1 .06-1.54v-.85c0-.83.06-1.37.06-2 0-.14 0-.39.05-.74v-1.72c0-.21 0 .77.09-.38 0-.81-.09.77-.08-.57a10.85 10.85 0 0 0 .07-1.58c0-.14 0 .07 0 .46v-2.77a26.8 26.8 0 0 1 .17-2.88c0-.28-.08-1.55-.08-2.35.17 1.47.06-3 .29-2.63-.19-1.09 0-3.94-.14-5.87a1.8 1.8 0 0 1 0 .49c0-1.09.11-1.41.17-2.11a14.05 14.05 0 0 1-.41-2.74c.24-1.33.28.81.5.39-.19.07-.18-2.31-.35-1.86a3.92 3.92 0 0 1 .29-1.41c-.33-.17 0-.95-.26-1.79.16-1.48.32-.38.22-2 .24-.72.31.71.31.71zm-1.62-38.5h0c0 .33 0 .61.05.79 0-.17-.02-.39-.05-.79zm-.16-3.24c0 .4 0 .89.06 1.4-.12.12-.25 0-.26-.32.09.18.12-.59.2-1.08zm-2 7c-.08-.51 0-.68 0-.75 0 .24.06.52.1.89v.06a.51.51 0 0 1-.13-.24z"/><path d="M97.76 43.06v.21-.31l-.11-.18zM21.92 1.88H22h-.15zm69.79 30.11l.12.01-.06-.3-.06.29zM9 9.83a.52.52 0 0 0-.09.23A1.48 1.48 0 0 0 9 9.83zm-.84 7.68L8 18.59l.16-1.08zm-.42 5.92c0 .08 0 .1.08.12h0zM84.68 1.3a.88.88 0 0 0 .23 0c.54-.05.18-.04-.23 0zM56.59.87a8.62 8.62 0 0 1 .91-.18c-.5-.04-.89-.06-.91.18z"/><path d="M98.94 24.84h0V25zM58.8.74a4.17 4.17 0 0 0-1.3-.05 6.24 6.24 0 0 0 1.3.05zM9.25 49.07l.05.28a.1.1 0 0 0 0 0z"/><path d="M9.31 49.39v.31c.03-.14.01-.27 0-.31z"/><path d="M9.47 50.36l-.11-.66.11.66zM8.3 41.28v-.08s-.02.07 0 .08zm-.21-2.37c0 .56 0 1.42.14 2.21v.08c-.06-.37-.03-1.76-.14-2.29zM8.38 29l-.06 2c.06-.35.14-.81.15.1.2-2.56-.14.46-.09-2.1zm.33-6.21c0 1.07.1 0 .14.05-.02-.68-.03-.84-.14-.05zM35.86 2l-.1.33c.82-.02.01-.11.1-.33zM44.42.28l-.8-.22-.39.32 1.19-.1zm5 2.67l-.36.04 1.38-.09-1.02.05zm44.44 30.38l.62-.22c-.08-.56-.76-.71-.62.22zm-1.31 32.36a1.87 1.87 0 0 0-.33 1.81 13 13 0 0 0 .33-1.81zM95.11 41l.13.66-.05-1.23-.08.57zm-68.34 3.89h0zm-.13-.37c0-.06-.1-.13-.12-.07s.06.07.13.12 0 .1 0 .09 0 .09.06.11a.81.81 0 0 0-.1-.25s.03-.01.03 0zm1.95-4.76h0zm2.55-1.01a.28.28 0 0 0 0 .12.42.42 0 0 0 0-.12zm.15.54h0s-.02.03 0 0z"/><path d="M28.59 39.76h.15c-.08-.06-.1-.01-.15 0zm-2.34 4.02a.1.1 0 0 0 0 0h0zm1.57-2.85h0l.09.08zm-.55.91l-.24-.13c-.08-.04.1.07.1.09zm-.72 1.65h0zm1.83-3.07l.09.06zm-2.25 1.15h0zm.85-1.19v.02-.02zm4.26-.52h0c-.04.04-.03.03 0 0zm-.82 6.2c.49.15.5.45 1.06.57a4.54 4.54 0 0 0-1.06-.57z"/><path d="M26.25 43.75h0zm5.23 2.88zm.22-6.47h.23zm.56-1.05l-.06.08zm.19 1.77s-.12 0 0 .06h.06c-.11-.02-.15-.03-.06-.06zm-.04.89h.11zm-7.36 2.93h.23c-.18-.03-.21-.19-.23 0zm1.24-.92h0zm10.35-2.96l-.06.2a.25.25 0 0 0 .06-.2zm-9.09 13.54l-.05.09s.03-.01.05-.09zm9.12-12.76a1.15 1.15 0 0 0-.37.1h.14zm-11.38 3.06h0z"/><path d="M25.06 43.5c-.07.16.23.1.37.15 0 .2-.22.07-.39.12 0 .13.27.24.24.33s-.07 0-.13 0c.22.14-.07.38.22.54h-.08a2.33 2.33 0 0 1 .45 0c0 .07.2.13 0 .15 0 0-.08 0-.15-.07l.09.08c-.32.06-.1-.1-.33-.11.08.15.34.32.24.44-.33 0-.08-.27-.39-.12l.15-.17c-.51.13.05-.11-.5 0-.14.24.12.27 0 .51.18.05.28 0 .46 0 .32.32-.9.31-.46.54.24 0 .7 0 .45.23h-.42c-.06.24.6.08.31.35-.17 0-.14-.17-.19-.13-.35.2.24.09.24.21l-.39.07c.06.25.34.48.45.74a.67.67 0 0 0-.39.06.59.59 0 0 1 .06.55 1.66 1.66 0 0 1-.12.31c0 .11-.08.32-.13.48a3.2 3.2 0 0 0 .41.07s-.15.17-.23.14c-.12.29.24-.09.4 0s-.2.25-.32.23c.38.28.89.53.58 1.26h-.12c-.07.47.83-.46.58.13h-.07a2.74 2.74 0 0 0 .29.89 2.17 2.17 0 0 1 .1 1.27c.21-.39.23-.17.27 0s.11.35.34-.31a8.26 8.26 0 0 0-.05 2.17c0 .21.27-.58.4-.8a.29.29 0 0 1 0-.08l-.15.82.29-.85-.08.91.14-.21a1.11 1.11 0 0 1 0-.55c.18-.31.28.49.27.8l.48-.79a2 2 0 0 1-.17.59c.28-.79 0 .64.27-.08a4.53 4.53 0 0 1 0-.52c.1.32.37.17.55-.09v.44c.37-.1.75-.61 1.13-.81a1.25 1.25 0 0 1-.23-.95l.2.59c0-.42-.17-.17-.16-.71.14 0 .29.64.26.88l.11-.31a3.19 3.19 0 0 1 .11.54c-.05-.42.54.44.41-.32l.08.17c.41-.33.49-.67.78-1-.27-.45-.09-.45-.26-.88.29 0 .81.12 1-.22 0-.37-.29-.37-.45-.67.39.3.54.07.72.4.14-.26.18-.34.08-.87a1.28 1.28 0 0 1-.4-.23c0-.1.26 0 .44.16h0c-.17-.39.26-.35.67-.34s.78 0 .42-.45h0l-.28-.57c.16-.09.27.27.6.34-.52-.74.41-.45.06-1 .72.25.81 0 .83-.19s0-.52.46-.48l-.34-.13c-.28-.21.23 0 .33 0-.26-.1-.33-.05-.49-.17a1.06 1.06 0 0 1 .52-1 5.94 5.94 0 0 0 1-.86c.16-.25-1.74-.61-.84-.72l.61.24c-.64-.69.24-1.09-.35-1.71.15 0 .34.08.33.13.48-.05.06-.41-.32-.45 0-.08.34 0 .54 0s-.57-.34-.11-.35a.27.27 0 0 1 .19.07c-.22-.1.08-.34-.46-.31.27-.18-.24-.38.08-.52-.6-.12.28-.33-.56-.38.87 0 .69-.34.28-.45.26 0 .26-.11.62-.07 0-.15-.2-.27-.63-.23 1-.32-.86-.45.41-.7a2.7 2.7 0 0 1-.38-.33l-.34-.35a5.34 5.34 0 0 1-.52-.62c.76-.26.19.49 1 .24-.46-.44-1.13-.4-1.09-.89.07-.17.33-.11.47-.13-.44-.27-.21-1-.71-1a.34.34 0 0 1 .21-.08c-.06 0 0-.26-.28 0h.12a2.89 2.89 0 0 1-.93.63 5 5 0 0 0-.42.28c1-.81-.13-.29 1.08-1.31a1.19 1.19 0 0 0-.48.37c0-.08 0-.2.33-.41-.46.1-.61.43-.85.38a4.06 4.06 0 0 1 .36-.36c-.36.26-.67.53-.79.38.07-.09.12-.21.18-.2-.43 0-1 .68-1.23.42.36-.67 0-.22.12-.8l-.29.17v.29c-.19 0-.43.4-.54.24a2 2 0 0 1 .18-.26l-.37.17c.06.06.11.13.16.19-.2.33-.08.74-.25.62 0-.07-.14 0-.22-.31h0c-.08.2-.14.41-.25.29s0-.64-.06-.75c0 .46-.4.3-.39.8a2.41 2.41 0 0 0-.08-.46v.39a.48.48 0 0 1-.19-.35c-.26 0 .29.61-.07.45v-.16c-.31 0-.33.41-.59.37-.3-.41.11-.21-.16-.56-.25.28-.27.89-.56 1h.08c.35.57-.37-.13-.3.22a1 1 0 0 0-.15-.25c-.24 0-.21.43-.3.78l-.08-.14c-.18 0-.28.17-.4.24.08.13 0 .17.21.28-.87-.21-.13.85-.81.78 0 0 0-.16-.06-.13l-.05.33c.19.09.13 0 .3.07a.28.28 0 0 1 .09.27c-.05-.18-.28-.17-.4-.17a1.19 1.19 0 0 0 .16.1c-.37 0 .34.23 0 .29l-.09-.06c0 .1.1.22 0 .28-.21-.07-.06-.12-.22-.21 0 .12.27.38 0 .39v-.2c-.27 0-.22 0-.28.11h0l-.15.16h.07c.44.33 0 .33.25.61-.22-.26-.15-.08-.34-.15s-.14.1-.19.06c.14.14-.12.14.08.33-.06 0 0 .11-.15.05 0 .14.1 0 .17 0 .16.22-.25.43 0 .73.1.24.23.28.28.49s-.12-.05-.12-.05a.32.32 0 0 0 0 .3h-.07c-.07 0 .12 0 .1.16a.31.31 0 0 1-.12-.07c.05.1.12.19.16.29s-.06 0-.1-.08a.79.79 0 0 0 .19.31v-.08h-.05c-.05 0 0-.15 0-.16a.36.36 0 0 1 0 .07c.1-.09-.06-.28-.1-.43h.12l-.12-.14s.1-.06.13 0c.05-.11-.06-.09 0-.18s0 0 0 0a.42.42 0 0 1 0-.1h.08c.12-.18-.09-.29 0-.36h0c0-.25-.12 0-.28-.24l.37-.09h-.15s0-.07.1 0-.07 0-.16-.07c.18-.09 0-.36.29-.32-.13-.08-.13.09-.2-.06.32 0 0-.17.16-.24.16.08 0 .15.22.09-.26-.14.16-.17.14-.27-.24-.09 0-.22 0-.4.08.05.3-.19.48-.25h0c-.26-.17-.13-.28-.13-.4a.66.66 0 0 1 .27.25.35.35 0 0 1 .41.24c-.07-.07-.1-.12-.09-.19l.2.15c.07-.1-.08-.37.17-.4-.2-.16-.65-.29-.68-.56.12.07.31.21.33.29s-.06-.12 0-.11l.14.2c.13 0-.13-.15-.07-.19.15.12.14 0 .26.16s-.11 0-.06.05a.49.49 0 0 1 .37.07c-.09-.07-.21-.17-.19-.23s.22.13.36.15c-.09-.11.09-.07-.15-.28a1.89 1.89 0 0 0 .22.12c-.06-.15.2-.23-.1-.43h0c0-.4.5-.16.58-.4l.07.09c0-.17.2-.21.13-.49 0 0 .21.14.28.28 0-.13 0-.28.2-.15 0 .24.14.16 0 .19.17 0 .3.22.25-.15.12.32.28.35.29.24l-.2-.19c0-.07.11-.06.17-.06l.18.42c.21.21.23 0 .21-.22s0-.39.13.07c0-.33-.11-.2-.16-.58.1 0 .26.7.26.7.06.25 0-.73.15-.57a1.78 1.78 0 0 1 .13-.83c.12 0 0 .73-.05.88s0 0 0-.09a.75.75 0 0 0-.06.34v-.18c0 .17.09.14 0 .44a.68.68 0 0 0 .06-.39c0 .26.12 0 .14.17a2.87 2.87 0 0 1 .1-.31c.05.22.19-.35.35-.44-.07.29-.33.67-.12.44a3.51 3.51 0 0 1-.34.64c.24-.35-.05.24-.1.3l-.1.15c.06-.09.07-.09.07-.09l.24-.36a.7.7 0 0 1-.13.22c.19-.23.41-.6.7-.91-.11.17.26-.16-.12.3.05-.19-.4.48-.5.53h0l-.11.12c-.35.44.47-.51.53-.47a5.18 5.18 0 0 0-.42.44l.21-.21a6.15 6.15 0 0 1 .39-.35l.06-.06c-.15.21.24-.14.25-.1l.06-.1a2.39 2.39 0 0 1 .28-.2h.12c-.23.18-.17.07-.26.17.52-.32-.5.53-.14.34-.2.16-.56.37-.69.47.4-.18-.41.28-.07.13a3.05 3.05 0 0 1 .72-.32h-.32a6.62 6.62 0 0 1 .62-.24h-.22a2.13 2.13 0 0 0 .57-.31c-.59.41.4 0 0 .28l-1 .45c-.46.24.55 0 .31.17l.18-.09c.42-.08.07.08.25.09l-.71.15c.27 0 0 .08.71.06l-.48.14c-.2.19 1 .14.93.34a4 4 0 0 1-1 0c0 .06-.07.12.19.11-.23 0 .5.14.15.21.16 0 .56 0 .53.09h-.19a2.15 2.15 0 0 0 .66 0c-1.18.19.07.56-.95.69a.91.91 0 0 1 .23.43h-.15c-.38.13 1.09.21.67.37-.64 0-.33-.14-.57-.1-1.26-.13.15.25-.61.27h-.07c-.44 0 .43.3.31.45h-.19a1.64 1.64 0 0 1 .94.68 2.39 2.39 0 0 0-.75-.21c.06.08.81.15.92.33a4.86 4.86 0 0 1-1.08-.09v-.13c-.71-.1 0 .16-.16.2l-.3-.08c0 .2.8.41.69.61h.23c.71.34-.45 0 .08.26l-.77-.2a3.64 3.64 0 0 1 .73.68 8.66 8.66 0 0 1-1.06-.71c0 .06 0 .25.33.41-.06-.05-.23-.15-.11-.14.56.29.8.51.74.66-1.42-.56-.5.25-1.65-.11.41.46-.41.37-.46.66 1.11.44 0 .09 1.08.63 0 .1 0 .11-.07.08l-.74-.15c-.33-.12-.2-.18-.45-.31-.14.09-.48-.19-.8-.27.39.2.52.35.34.34l.54.18c.47.51-1-.36-.51.14l-.3-.25c.14.2-.18.3.57.93a1.48 1.48 0 0 1-.46-.31c-.23.13.51 1.06-.08.88l-.21-.19c0 .09.38.41.12.27-.1-.07-.22-.19-.24-.19s.32.43.14.37l-.21-.25c-.11 0-.14 0-.13.11s.11.13.19.24a1.77 1.77 0 0 1 .4.62l-.85-.94-.06-.1a5.59 5.59 0 0 1 .31 1.06c-.2-.46-.25-.55-.3-.57s-.09 0-.14-.29c0 .18.07.83.06.95 0-.21 0 .82-.07-.2h0c0-1 0-.71-.06-.73l-.06 1.4c0-1 0-.77-.1-.62s-.15.35-.05-.29v-.2l-.16.49.16-.64v-.19l.15-.39a13.14 13.14 0 0 1-.67 1.48l.33-.77c-.06-.1.28-.67-.12-.2a3.13 3.13 0 0 1 .21-.26c0-.06.27-.4-.35.24.4-.42 0-.1-.19 0l.32-.24c-.42.27-.54.33-.69.31 0 0 .26-.17.19-.1.15-.16-.34.12-.19-.06l.23-.08c0-.07-.12 0-.38.05s.05-.2.39-.28c-.21 0-.5 0-.42-.07a.77.77 0 0 1 .24 0c.18-.24-.49-.22-.19-.42a1 1 0 0 0 .2-.06c0 .16.06.29 0 .28.33-.07.34-.2.82-.19-.28 0-.86-.12-.75-.27h.1l-.07-.07c-.07-.07.07-.07.06-.11.25 0 .09-.16.09-.23-.33 0-.3 0-.55.08h.11a1.07 1.07 0 0 1 .07.15c-.19 0-.34-.06-.17-.15h-.56c.45-.15.65-.35.91-.4-.23-.18-.23-.45-.81-.55-.08 0 .15-.07.23-.1s.06.07.14.09c-.16-.11-.11-.34-.48-.36.15-.16.35.07.26-.13h.12c.25-.2 0-.36-.21-.54s-.35-.36-.07-.57a.12.12 0 0 1-.1 0 1.33 1.33 0 0 0 0-.79 1.3 1.3 0 0 1 .13-.78c.06-.14-.05-.18-.11-.28h.13l-.12-.18c-.05-.25.3-.32.18-.64h-.06c0-.09 0-.32.08-.29a.06.06 0 0 1 0-.07h0a2 2 0 0 1 0-.25c.06-.19.07 0 .11-.23v-.25s.06-.08-.1.11a1.09 1.09 0 0 0-.08.15h-.05l.08-.12a.41.41 0 0 0-.1.16h-.07v.16s0-.08-.09 0 .1 0 .06.07-.1 0-.11.13 0 0 0-.06-.11.2-.06.26c-.12 0-.12.26-.25.21a.45.45 0 0 1 0 .24c-.13-.18-.13.27-.35.18.15.14-.1.37 0 .58 0 0-.05 0 0-.06s-.15.11-.23.17c.21 0 .2.22.33.32-.28.09-.26-.11-.48-.11.18 0 .1.25.28.23a.63.63 0 0 1-.32.09c.31.06 0 .1.2.21-.21.12-.33 0-.27.17a.16.16 0 0 1-.15.06zm.31 3.85h0v-.08zm0 .32a.33.33 0 0 0 0-.14c.12 0 .24-.05.24 0s-.1.07-.2.14zm2.26-1c.06 0 0 .06-.07.07a.17.17 0 0 0-.06-.06h.13z"/><path d="M27.21 46.64h0-.07.1zm1.31-6.89h0zm-1.41 15.04l.04-.19-.07.17.03.02zm-.35-14.31h0zm-.34.7l-.09.08c.05-.03.08-.05.09-.08zm-.23.56h.07zm8.88-5.06h0c.13.02.09-.01 0 0zm-4.07.51a2.42 2.42 0 0 1 .12-.23c-.12-.02-.12-.02-.12.23z"/><path d="M36.65 40.8h0zm-5.41-3.86c-.06-.08-.11 0-.16 0s.1.06.16 0zm-4.82 7.34l.01.02h.01l-.02-.02z"/><path d="M26.44 44.3h0zm.06.08v-.05a.1.1 0 0 0 0 .05zm-.29-.84h0zm-.05-.24c0 .06-.07.15 0 .22h0c-.06-.03.06-.17 0-.22zm.66-.87l-.1.17c.07 0 .16-.05.14 0 .25-.15-.14.05-.04-.17zm.28-.43c0 .09.1 0 .14 0s-.05-.09-.14 0zm2.55-2.7l.17.28c.03-.07-.07-.11-.17-.28zm-.16-1.94l-.17-.16.1.32.07-.16zm1.29 2.21h0v-.14zm1.16 2.02h.6c-.1-.05-.78-.08-.6 0zm.13 2.66c-.31-.06-.52 0-.23.08.05-.04.3-.03.23-.08zm-3.6 4.21l.03-.29-.03.25v.04zM23.21 69h0zm.28-.11s.08-.11 0-.12 0 .06-.08.12-.07 0-.07 0-.06 0-.07.06a1.12 1.12 0 0 0 .18-.1s.04.03.04.04zm3.96.69h0a0 0 0 0 0 0 0zm1.48 1.99h-.1a.14.14 0 0 0 .1 0z"/><path d="M28.65 72.24h0s-.03.02 0 0zm-1.2-2.66v.14c.05-.1.01-.1 0-.14zM24 68.41h0zm2.41.86h0l-.05.1zm-.76-.27a2.46 2.46 0 0 0 .06-.27.26.26 0 0 1-.06.13zm-1.38-.33h0zm2.61.96v.1a1 1 0 0 0 0-.1zM25.08 65h0s.01-.06 0 0z"/><path d="M25.9 64.1v.02-.02zm2.48 9.04h0c-.04 0-.03.01 0 0zm1.85 2.54c-.27.43-.51.4-.79.9a5.17 5.17 0 0 0 .79-.9zM24 68.4h0z"/><path d="M29.44 76.58h0zm-.54-2.23h.23zm.46-1.25l-.05.05s.05-.04.05-.05zm.28 1.68s-.11 0 0 0h.07c-.12.02-.15.02-.07 0zm-.05.53h.11zm-5.68-7.98h.24c-.15-.02-.15-.15-.24 0zm.09 1.12a.07.07 0 0 1 0 0h0a0 0 0 0 0 0 0zm9.84 6.2c0 .06 0 .12-.06.19a.27.27 0 0 0 .06-.19z"/><path d="M23.87 73.76h-.06s.01.01.06 0zm9.98 1.67a1.39 1.39 0 0 0-.38.08h.14zm-9.7-8.11z"/><path d="M24 66.37c-.07.12.23.11.36.16s-.22 0-.39.06c0 .1.26.22.23.28a.29.29 0 0 1-.13 0c.2.13-.1.29.18.45h-.08a2.9 2.9 0 0 1 .45 0c0 .06.18.13 0 .12 0 0-.07 0-.13-.07l.08.07c-.33 0-.09-.09-.32-.12.06.13.3.29.19.37-.33 0-.05-.22-.37-.13l.16-.12c-.52 0 .07-.08-.49 0-.16.18.08.22-.07.4.17.06.27 0 .45.06.31.28-.92.16-.49.38.22.06.69.1.42.23l-.41-.06c-.09.19.59.11.27.3-.17 0-.12-.14-.18-.12-.37.13.23.09.22.19h-.4c0 .2.3.41.37.62a.74.74 0 0 0-.39 0c.18.27-.11.6-.39.91l.4.06a.44.44 0 0 1-.26 0c-.16.13.25 0 .41 0s-.23.12-.35.09c.34.15.75.41.33.69h-.13c-.16.19.89 0 .51.22h-.08c-.15.37.3.61-.32 1.05.66-.14-.23.42.69.16-.41.32-.59.32-.84.7 0 .09.6-.09.72-.05l-.49.18.55-.07-.56.28h.15a.73.73 0 0 1 .34-.2c.26 0-.25.43-.5.54l.51.13a1.06 1.06 0 0 1-.43.07c.56-.05-.51.26 0 .21a2.56 2.56 0 0 1 .4-.16c-.28.21-.22.38 0 .44l-.35.14c0 .27.35.4.45.65a1.68 1.68 0 0 1 .81-.44l-.51.31c.34-.13.17-.18.6-.3 0 .12-.57.39-.76.43h.23c-.15.09-.25.11-.45.22.35-.14-.43.49.17.23l-.15.1c.12.25.36.25.49.43.45-.28.39-.14.78-.32-.07.23-.31.61-.17.75.3 0 .39-.23.69-.37-.39.29-.25.43-.59.55.2.15.25.2.73.18a1.47 1.47 0 0 1 .33-.33c.09 0-.09.22-.28.37h-.05c.77-.26-.6 1.56.36 1.06h-.05l.58-.19c0 .15-.32.22-.48.5.81-.39.26.43.83.18-.85 1.29.58.36.19 1.28l.21-.3c.26-.23-.06.22-.07.32.16-.23.13-.31.28-.44a.5.5 0 0 1 .44.24l.72 1 2-1.1c.46-.25 1.27-.27 1.84-.61.25-.22-1.41-1.2-.53-1l.5.44a.93.93 0 0 1 .12-1 .71.71 0 0 0 0-.88c.13.07.32.14.3.19.48 0 .14-.43-.23-.52.06-.07.34.07.54.07s-.51-.42-.05-.39a.34.34 0 0 1 .18.09c-.19-.12.1-.34-.44-.35.27-.16-.21-.4.11-.52-.59-.14.3-.31-.54-.38.86.05.71-.34.29-.43.26 0 .25-.1.61-.07 0-.14-.2-.25-.64-.2 1-.34-.87-.37.38-.67a12.82 12.82 0 0 1-1.23-.61c.78-.21.18.3 1 .09-.44-.24-1.16-.19-1.07-.52.08-.11.34-.08.48-.09-.4-.19-.19-.56-.7-.63a.6.6 0 0 1 .22 0s.05-.15-.27 0h.11a5.9 5.9 0 0 1-1.3.37c.94-.35.12-.31 1.32-.75a1.08 1.08 0 0 0-.45.15c0-.07.15-.15.41-.22-.26-.08-.54.14-.63 0 .15-.08.22-.08.41-.16-.34.08-.66.17-.62 0s.2-.12.22-.09c-.19-.16-.94.12-.82-.23.62-.32.14-.19.62-.53h-.21l-.2.2c-.06-.1-.48.08-.38-.1l.24-.08-.23-.1-.09.22c-.31.1-.57.45-.54.25.06 0-.06-.09.16-.34h0c-.17.08-.35.15-.29 0s.47-.38.56-.47c-.39.26-.29-.11-.69.16a3 3 0 0 0 .35-.29l-.3.21a.74.74 0 0 1 .25-.3c-.07-.15-.45.49-.38.18a.36.36 0 0 1 .13-.08c0-.22-.43-.06-.44-.3.31-.4.21 0 .46-.35-.29-.08-.8.12-.93-.08v.07c-.43.51.06-.36-.24-.17a1 1 0 0 0 .2-.22c-.09-.17-.39 0-.7 0l.11-.12c0-.18-.19-.18-.26-.27-.1.12-.14.07-.21.28.05-.43-.16-.38-.34-.32s-.35.11-.39-.19c0 0 .12-.09.09-.09l-.28.07c-.05.2 0 .12 0 .29s-.16.19-.21.17c.13-.1.09-.31.08-.43 0 .06-.05.13-.06.19 0-.37-.13.38-.22.11v-.09c-.07 0-.15.15-.2.11 0-.22.08-.09.12-.26-.1 0-.25.35-.29.13 0 0 .1 0 .15-.09 0-.25-.07-.2-.14-.24h0l-.16-.09c-.18.51-.26.11-.43.42.16-.29 0-.17.05-.37 0 0-.1-.11-.08-.16-.08.16-.14-.1-.24.13 0-.06-.09 0-.07-.14-.1.06 0 .1 0 .17s-.38-.09-.56.19-.16.28-.31.36 0-.13 0-.13a.22.22 0 0 0-.23.07v-.06c0-.06 0 .12-.09.13a.34.34 0 0 1 0-.13 1.92 1.92 0 0 1-.18.22v-.12a1.19 1.19 0 0 0-.2.22h.17c.09.07.2-.12.3-.19v.13l.07-.15s.08.09 0 .13.06-.06.15 0 0 0 0 0h.07v.08c.17.09.21-.14.29 0h0c.18-.08 0-.12.11-.32l.15.35v-.15s.06 0 .06.07c.07-.12 0-.07 0-.17.1.12.27-.09.3.2 0-.14-.1-.12 0-.2 0 .32.13 0 .21.11s-.11.06 0 .23c.07-.29.16.1.23.06 0-.26.17-.09.3-.16 0 .09.19.24.26.39v.05c.1-.29.2-.2.29-.23a.72.72 0 0 1-.16.32h.07c.05-.1.09-.14.15-.16l-.1.23c.09 0 .29-.21.33 0 .11-.23.16-.7.37-.8A1.41 1.41 0 0 1 27 69s.08-.09.08 0l-.14.19c0 .12.11-.17.14-.12s0 .15-.09.29 0-.1-.05 0a.56.56 0 0 1 0 .36c0-.11.11-.25.16-.25s-.08.24-.08.37c.08-.11.06.06.21-.22 0 0 0 .15-.07.23.11-.1.22.1.35-.24h0c.33-.18.19.4.4.39l-.07.1c.16 0 .23.08.45-.09 0 0-.08.23-.19.34.12 0 .22-.12.16.13s-.12.17-.16.06c0 .16-.14.34.17.15-.25.23-.25.38-.15.34l.13-.24c.06 0 .07.07.08.12l-.33.31c-.31.56.94-.41.29.39.28-.18.12-.25.44-.47 0 .12-.47.66-.47.68-.16.28.62-.36.54-.13.14-.12.5-.44.7-.45 0 .12-.54.55-.69.59s0 0 .07-.09a.5.5 0 0 0-.29.18l.15-.1c-.12.15 0 .24-.3.4a.51.51 0 0 0 .31-.25c-.16.24.08.15 0 .36.08-.07.25-.21.26-.19-.13.28.33-.13.46-.06-.22.21-.6.34-.34.32a1.6 1.6 0 0 1-.58.34c.36-.1-.14.29-.19.37h-.05l.34-.22a.36.36 0 0 1-.19.17 9.67 9.67 0 0 1 .91-.45c-.16.13.24 0-.23.28.13-.21-.46.26-.57.2.07 0 .07 0 0 .07a.31.31 0 0 1-.13 0c-.4.33.55-.22.58-.09-.28.12-.52.27-.45.26a2.12 2.12 0 0 1 .67-.28c-.19.17.19 0 .18.07l.09-.1c.29-.1.27 0 .38 0-.22.1-.17 0-.26.07.52-.14-.48.36-.1.31-.19.11-.55.2-.68.29.41-.05-.39.23-.06.21a2 2 0 0 1 .71-.19l-.31-.07.6-.08c0-.06-.28 0-.21-.09a1.34 1.34 0 0 0 .56-.17c-.59.28.39 0 0 .27l-1 .3c-.44.23.56 0 .33.28l.18-.09c.42-.08.08.08.26.09a6.36 6.36 0 0 0-.7.19c.26 0 0 .1.69 0l-.48.14c-.2.13 1.05 0 .94.17a7.87 7.87 0 0 1-1 0s-.07.07.19.06c-.23 0 .51.07.16.13H30a2.9 2.9 0 0 0 .66 0c-1.19.12 0 .41-1 .42.11.1.24.23.23.3s-.19 0-.14 0c-.39 0 1.05.3.62.35-.62-.11-.31-.16-.55-.18-1.23-.32.12.18-.61 0h-.06c-.43-.11.42.27.3.34l-.13-.07a1.58 1.58 0 0 1 .78.71 3.71 3.71 0 0 0-.67-.4c0 .07.73.39.8.55a5 5 0 0 1-1-.47v-.09c-.62-.34 0 .09-.14.06l-.26-.18c0 .13.69.61.53.67l.2.14c.54.55-.38-.23 0 .2l-.56-.51a3.22 3.22 0 0 1 .47.82l-.73-1s0 .13.2.43c0-.07-.16-.22-.06-.15.4.47.54.77.45.84-.39-.47-.53-.58-.61-.6l1.79-.08c0-.15-.19-.13.19-.73-.49.34-.15-.41-.36-.46-.72 1-.07 0-.86.91-.09 0-.1 0-.05-.07l.37-.65c.21-.29.21-.17.39-.37 0-.14.32-.42.49-.69-.29.32-.46.43-.39.27l-.29.45c-.56.36.61-.82.05-.45l.31-.24c-.23.11-.19-.19-1 .41a2.2 2.2 0 0 1 .41-.37c0-.22-1.07.36-.72-.13l.23-.17c-.08 0-.46.29-.26.07a2.83 2.83 0 0 0 .24-.19c-.09 0-.46.24-.36.1l.28-.17c.19-.36-.82.25-1.09.22a2.38 2.38 0 0 0 .89-.87l.1-.07c0-.21-.8.08-1.21.06.69-.54.09-.56.4-1a2.15 2.15 0 0 1-.64.27c.11-.11-.57.11.08-.19h0c.62-.32.4-.32.38-.4l-.86.36c1.13-.7-.71-.34.33-.86h-.49l.45-.15c0-.16.08-.24-.11-.36l.33-.07c0-.08-1.32.27-1.38.18l.64-.21c-.09-.16.42-.45-.23-.48a1 1 0 0 1 .32 0c0-.09.28-.38-.55-.18.55-.11 0-.18-.28-.24l.4-.05c-.53 0-.66 0-.83-.07.05 0 .31-.07.22 0 .18-.12-.39 0-.21-.16h.26c0-.1-.13-.08-.42-.09s.06-.2.38-.25c-.2 0-.49 0-.41-.08a.65.65 0 0 1 .25 0c.21-.18-.46-.2-.13-.34a.52.52 0 0 0 .21 0v.23a3.05 3.05 0 0 1 .84-.1c-.28 0-.84-.15-.71-.26h.11l-.07-.06c-.07-.06.08 0 .08-.08.25 0 .1-.12.1-.17h-.49a.05.05 0 0 0 0 0h0a.73.73 0 0 1 .05.12c-.18 0-.33-.07-.16-.13l-.5.02c.45-.09.68-.22.95-.24-.21-.15-.19-.36-.75-.49-.07 0 .15 0 .24-.06s0 .06.13.08c-.15-.1-.09-.27-.46-.32.16-.11.34.09.27-.08h.11c.27-.13 0-.27-.16-.43s-.33-.32 0-.45a.11.11 0 0 1-.1 0c.25-.35-.12-.88.23-1.21.06-.1 0-.14-.11-.24h.13l-.12-.17c0-.19.28-.21.18-.48h-.06c0-.08 0-.25.08-.22a0 0 0 0 1 0-.07h0v-.2c0-.06.07.05.1-.17s0-.25 0-.22v.01s.05 0-.09.09a.41.41 0 0 0-.07.11h0l.08-.08a.18.18 0 0 0-.09.11h-.07v.12s0-.07-.09 0 .1 0 .06.06-.1 0-.11.09 0 0 0 0-.12.14-.08.19c-.12 0-.11.2-.24.15a.28.28 0 0 1 0 .19c-.12-.16-.13.2-.34.1.14.13-.1.29-.05.46l-.23.11c.2.06.2.2.31.3-.26 0-.24-.13-.47-.15.19 0 .1.21.28.22a.73.73 0 0 1-.32 0c.31.08 0 .08.19.18-.21.08-.32 0-.28.11a.19.19 0 0 1-.28-.03zm0 3.07h0v-.06zm0 .26a.24.24 0 0 0 0-.12h.25a.69.69 0 0 0-.25.12zm2.37-.62c.05 0 0 0-.08 0l-.05-.06h.13z"/><path d="M25.88 69h0-.07.11zm1.57.52h0a.09.09 0 0 1 0 0zm-3.89 4.03l.12-.05-.11.02-.01.03zm3.06-5.4v-.06a.06.06 0 0 0 0 .06zM26 68h-.07zm-.47 0h0zm6.8 3.78h0c.14.02.09.01 0 0zm-2.27-1.4a1.28 1.28 0 0 1 .21-.07s-.02-.08-.21.07z"/><path d="M33.84 74.63h0zm-3.51-4.24c0-.08 0-.09-.06-.08s-.01.1.06.08zm-6.69-1.72l-.02.01v.01l.02-.02z"/><path d="M23.62 68.69h0zm-.05.06h0zm.58-.41h0zm.17-.08h-.17c.01-.02.15.08.17 0zm.8.44a.34.34 0 0 0-.14 0c0 .06.07.14 0 .15.19.15-.04-.19.14-.15zm.41.18c-.07 0 0 .11 0 .15s.05-.03 0-.15zM28 70.34l-.21.25c.05 0 .07-.1.21-.25zm1.63-.89l.1-.2-.25.21.15-.01zm-1.59 2.04l-.06.02.14-.02h-.08zm1.08 3.68h.61c-.11.01-.79-.05-.61 0zm.03 1.45c-.26-.18-.44-.29-.22-.08.07.01.27.14.22.08zm-1.32-4.08l.19-.04h-.18l-.01.04zm1.66 22.92h0zm.09-.01a.12.12 0 0 0 0-.09v.08c0 .08 0 0 0 0a.06.06 0 0 0 .06 0zm1.52-.18h0zm.9-.74h.1z"/><path d="M32.57 94.48h0zm-1.47.79l.12.06c-.1-.08-.09-.05-.12-.06zm-1.36-.05h0zm1.11.49h0l.07.1z"/><path d="M30.46 95.81l-.11-.24a.34.34 0 0 1 0 .12zm-.64-.26h0zm1.36.09l.07.07zm-4.46-4.53h0a0 0 0 0 0 0 0zm-.29-.45h0zm6.9 3.53h0s.03.01 0 0zM32 90.07c-.3.4-.48.44-.8.89a10.86 10.86 0 0 0 .8-.89zm-2.26 5.16h0zM31.17 91h0v.05zm2.21 2.13h-.23zm-.83.72h0zm.1-1.03h0-.06c.11-.02.14-.02.06 0zm-.05-.38h-.1zm-5.26-.67v-.23c0 .18-.04.21 0 .23zm2.4 3.5h0zm-.93-1.82h0zm-.34-.54h0s-.02.09 0 0zm.43.52h0zm-1.55-1.89z"/><path d="M27.1 91.79c0 .06 0-.23 0-.36s0 .21 0 .36c0 0 .07-.27.09-.25a.62.62 0 0 1 0 .13c0-.21.07.07.13-.21v.08-.44c0-.11.05-.2 0 0v.05c0 .32 0 .1-.06.32 0-.07.1-.31.12-.21 0 .33-.06.07-.07.37v-.15.49c0 .15.06-.1.09.05v-.45c.11-.31 0 .91.05.48 0-.22.1-.68.1-.41l-.06.4c0 .08.1-.58.1-.27s-.05.12-.05.18c0 .36.05-.23.07-.22l-.05.39c.05 0 .14-.26.2-.31a2.44 2.44 0 0 0-.06.39c.08-.16.11.16.1.5l.09-.38s0 .19-.05.26.05-.25.09-.4a1.54 1.54 0 0 1-.06.36c.09-.31.25-.68.19-.2v.12c0 .19.22-.84.16-.43v.07c0 .24.19-.12.05.59.19-.64 0 .35.23-.57l-.22 1c0 .06.19-.57.24-.65l-.16.49.18-.51-.18.61.05-.12.11-.38c.04-.15-.07.39-.16.65l.19-.38-.16.39c.2-.5-.19.54 0 .08l.15-.4c-.11.32-.09.34 0 .23l-.14.35c0 .12.1-.1.12-.07a11.65 11.65 0 0 1 .36-.84l-.23.55c.15-.34.08-.22.27-.62a7.57 7.57 0 0 1-.35.8l.1-.18-.21.46c.16-.34-.24.57 0 0l-.08.16s.1-.14.13-.15l.4-.73a4.37 4.37 0 0 0-.22.53l.39-.67-.39.7a3.18 3.18 0 0 0 .3-.38l.24-.39a2.73 2.73 0 0 1-.23.39h0c.47-.59-.8 1.26-.18.41h0l.36-.42c0 .07-.24.29-.43.54.54-.64-.07.12.3-.3-1 1.13.1 0-.57.66l.26-.25-.21.2.37-.36c.08-.07.11-.07.09-.05l-.06.07.53-.45-.07.05a1 1 0 0 1-.18.08h0-.12.14l.36-.08-.54.12h.28H29h.33c-1 .12.8-.08-.43.06a4.45 4.45 0 0 1 1 0h-.6c.35 0 0 0 .41.08h-.21s-.1 0 .25 0h-.1c.51 0 1.06.14 1.33.18-1-.14-.25 0-1.49-.18l.46.07-.46-.06a5 5 0 0 1 .55.11l-.42-.07c.33 0 .64.12.51.12h-.22c.07 0 .83.23.54.21-.66-.18-.22 0-.78-.19l.18.06.27.07s.4.15.22.11l-.23-.08.11.07h.2l.54.19a1 1 0 0 1-.33-.07h0c.17.07.33.15.2.12L30 94c.43.17.12.08.57.28l-.42-.18.34.15c-.11 0-.16-.06-.37-.14-.06 0 .62.25.35.17l-.12-.06c-.14 0 .19.16 0 .12-.46-.22-.11-.08-.5-.26.1.07.54.37.43.36h0c.57.35-.28-.14 0 0l-.24-.17c-.08 0 .14.14.27.31l-.12-.1c-.11-.07-.07 0-.12 0a3 3 0 0 0 .25.24c-.32-.26-.23-.16-.16 0s.14.24-.06 0a.43.43 0 0 0-.07-.1l.06.14a2.2 2.2 0 0 0 .19.21c.08.1.12.18.11.19a1.92 1.92 0 0 0-.27-.34l.11.16c-.22-.26.23.32.06.16v-.09c0 .06.08.17 0 .16-.12-.17 0-.09-.14-.24 0 0 .18.36.06.2a.84.84 0 0 0 0-.12c-.14-.18-.1-.13-.13-.15h0l-.08-.04c.21.45 0 .12.1.41A1.71 1.71 0 0 0 30 95a.33.33 0 0 1-.07-.13c0 .15-.05-.07 0 .14l-.05-.11c0 .06 0 .08.05.14s-.1-.11-.08.14a1.82 1.82 0 0 1 0 .3.2.2 0 0 1 0-.13h-.06a.22.22 0 0 0 0-.08v.08-.11s0 .1-.06.12 0-.06 0-.09a.75.75 0 0 0-.07.12h0c0 .11.06 0 .09 0v.01a.26.26 0 0 1 0 .12c0 .07 0 0 0 0h0v.08c0-.02.06-.11.1 0h0v-.28l.12.33v-.14a.24.24 0 0 1 0 .08v-.16c.07.13.05-.1.15.16 0-.13-.06-.09-.06-.19.12.29 0-.06.1.07s0 .08.08.21c-.1-.26.09 0 .11 0-.11-.22 0-.1 0-.19 0 .07.16.1.28.17h0c-.17-.26-.09-.23-.1-.29a1.2 1.2 0 0 1 .19.29h0a.74.74 0 0 1-.08-.17l.15.2c.05 0-.11-.27.07-.16a6.43 6.43 0 0 1-.59-.65l.29.32c.03.05-.07-.1 0-.06l.14.18c.09.06-.12-.15-.09-.14l.22.21s-.08 0 0 0a.83.83 0 0 1 .28.19 1.05 1.05 0 0 1-.2-.22 3.3 3.3 0 0 0 .29.22c-.09-.11.05 0-.18-.23l.19.14c-.08-.11.07-.1-.23-.3h0c-.21-.26.26 0 .2-.13l.1.07c-.07-.11 0-.12-.21-.28a1.9 1.9 0 0 1 .35.18c-.06-.07-.19-.15 0-.08s.18.09.12.11c.13 0 .33.11 0-.1.29.17.42.17.34.1l-.13-.06h.05l.41.21c.6.14-.78-.54.16-.24-.3-.14-.25 0-.6-.21.07 0 .76.2.77.18.3 0-.63-.29-.43-.29a4.55 4.55 0 0 1-.78-.28 4.25 4.25 0 0 1 .86.25h-.1a.91.91 0 0 0 .31.12l-.16-.06c.17 0 .17 0 .45.06a.68.68 0 0 0-.37-.1c.26 0 0-.09.22-.11a1.35 1.35 0 0 1-.3-.06c.23 0-.32-.12-.38-.19.27 0 .63.15.42 0a2.53 2.53 0 0 1 .6.13c-.33-.13.29-.06.39-.09l.11.06c-.07 0-.05 0 0-.07h-.37a.46.46 0 0 1 .24 0c-.23-.06-.62-.09-.93-.18.2 0-.17-.09.34 0-.22 0 .51.07.54.15s0 0 .05 0a.25.25 0 0 1 .12 0c.52 0-.54-.12-.48-.19a1.38 1.38 0 0 0 .52 0 2.69 2.69 0 0 1-.72-.1c.27 0-.14-.06-.1-.08h-.13a.62.62 0 0 1-.34-.09h.27c-.54-.07.57 0 .22-.11h.73c-.39-.08.45-.06.13-.14a2.93 2.93 0 0 1-.73 0l.28.11-.61-.08s.26.07.18.09a2.21 2.21 0 0 0-.58 0c.64 0-.36-.08.07-.11h1.02c.49-.08-.52-.13-.25-.24h-.19c-.42 0 0 0-.23-.07a6.45 6.45 0 0 0 .72-.08c-.26 0 0-.08-.69 0l.48-.09c.2-.11-1 0-.92 0a7.9 7.9 0 0 1 .95-.1s.06-.06-.19 0c.23 0-.5 0-.15-.07a4 4 0 0 1-.53 0h.19a4.07 4.07 0 0 0-.66.11c1.14-.3-.11-.15.87-.45a.82.82 0 0 1-.31-.09h.14c.32-.18-1.06.31-.7.12.58-.24.33-.07.55-.17 1.19-.44-.19 0 .49-.35h.07c.39-.21-.48.08-.43 0l.18-.08a5.77 5.77 0 0 1-1 .3 7.46 7.46 0 0 0 .69-.35c-.08 0-.72.39-.87.41l.9-.57h.05c.61-.38-.05-.06 0-.15l.27-.15c-.14 0-.8.37-.8.27l-.19.14c-.67.4.33-.28-.16 0l.63-.48-.82.42a6.1 6.1 0 0 1 1.06-.63s-.13-.08-.44.15c.06 0 .23-.14.14 0-.52.35-.77.51-.79.46 1.16-1 .2-.35 1-1.2-.48.32 0-.33-.17-.36-.76.9-.05 0-.86.9-.07 0-.07 0 0 0l.41-.6c.21-.28.2-.18.37-.39 0-.12.31-.41.48-.69-.27.34-.42.46-.35.31l-.31.46c-.48.45.57-.84.09-.4l.26-.28c-.18.14-.18-.12-.78.63a3.5 3.5 0 0 1 .32-.45c0-.19-.8.71-.55.18l.16-.24c-.06.06-.32.45-.19.19a1.64 1.64 0 0 0 .16-.26c-.06.08-.31.41-.25.25l.19-.27c.08-.37-.56.61-.72.75a3.11 3.11 0 0 0 .51-1.37l.05-.1c-.09-.14-.52.54-.75.8.29-.82-.07-.39 0-.85a3.85 3.85 0 0 1-.27.64c0-.15-.26.5 0-.17h0c.23-.66.11-.49.07-.51l-.32.87c.34-1.27-.4.42-.09-.69-.09.21-.12.21-.21.42l.14-.45c0-.11-.06-.16-.18 0l.1-.32-.44 1.29.15-.64c-.07 0 0-.53-.24 0A1.86 1.86 0 0 1 29 89s-.06-.39-.23.45c.12-.55-.07 0-.15.19l.08-.39a4.14 4.14 0 0 1-.23.78s.05-.31.05-.21c0-.2-.1.36-.1.16l.06-.24s-.05.1-.13.38 0-.09 0-.42c0 .21-.11.48-.11.38s0-.2.05-.24c0-.22-.16.43-.14.09v-.2h.07a7.92 7.92 0 0 1 .13-.83c-.08.26-.21.8-.23.66v-.08c0 .06 0-.08 0-.08v-.12a3.36 3.36 0 0 0-.08.54.08.08 0 0 1 0-.05.06.06 0 0 0 0 0h.05c0 .18-.08.32-.07.14l-.1.53v-.94a1.9 1.9 0 0 0-.25.73c0 .07 0-.15 0-.24a.33.33 0 0 0 0-.13 1 1 0 0 0-.15.45c0-.15.06-.34 0-.26v-.11c0-.25-.1 0-.16.2s-.12.35-.15.08a.31.31 0 0 1 0 .1c-.12-.17-.28.25-.39 0 0 0 0 .08-.07.16v-.13l-.05.16c-.05.1-.07-.23-.15 0h0s-.08.06-.07 0 0 0 0 0h0a.17.17 0 0 1-.06.06s0-.08-.06 0a.28.28 0 0 1-.06.06h0v.08c0 .08 0-.08 0-.08v.08h.06c0 .1.06 0 0 .18 0 0 0-.08.05-.08 0 .17.06.07 0 .29 0-.17.08 0 .12-.09s0 .05 0 0a.84.84 0 0 1 0 .19 1.32 1.32 0 0 1 .09-.35c0 .24 0 .25-.05.46 0-.18.06-.13.06-.3a2.45 2.45 0 0 1 0 .3c0-.31 0 0 .05-.21v.25a.41.41 0 0 1 .42.44zm.76-.07h0zm.06 0v-.23a1.12 1.12 0 0 1 0 .26zm.22-2.38c0-.05 0 0 0 .08h0z"/><path d="M28.05 89.82v.09-.1zm3 5.43h0zm-2.69-2.15l.03-.12-.03.1v.02zm1.78 1.73h0zm-.08.08h0a.12.12 0 0 0 0 0zm-.06.01V95zm-.68-1.38h0c-.12-.01-.08-.01 0 0zm1.13.56l-.19-.1s-.04 0 .19.1z"/><path d="M28.8 93.45h0zm1.47.55c-.08 0-.06 0 0 0h0zm-.63 1.32h0v.01-.01z"/><path d="M29.64 95.33h0zm-.02.03h0a0 0 0 0 0 0 0zm.16-.15h0zm.03-.05h0c-.03-.05 0 .07 0 0zm.34.49h-.07c0 .06.06.13 0 .14s-.01-.16.07-.14zm.21.08s0 .09.05.13a.14.14 0 0 0-.05-.13zm1.21-.61l.29.17-.29-.17zm-1.47-.98l-.2-.08.29.15-.09-.07zm2.39.94l.04.03-.09-.09.05.06zm.58-2.69l-.58.16c.11-.01.77-.16.58-.16zm-1.02-.94c.25-.19.39-.34.13-.18-.02.05-.18.21-.13.18zm-2.16-2.41l.08-.17-.09.14.01.03zm40.92-37.55h0zm-.22.08s-.07.09 0 .11 0 0 .06-.1.06 0 .06 0h.06a.29.29 0 0 0-.15.07l-.03-.08zm-3.39.5h0zm-2.12-.01a.19.19 0 0 0 0-.11.21.21 0 0 0 0 .11z"/><path d="M64.63 51.52h0c.01-.01 0-.04 0 0zm2.57.55l-.09-.07c.03.08.05.05.09.07zm3.02-.07a.05.05 0 0 0 0 0h0zm-2.17-.29h0v-.11zm.7-.1a1.1 1.1 0 0 0 0 .27.3.3 0 0 1 0-.14zm1.25.08h0zm-2.48-.01v-.1zm-19.64.41h0zm-.63-.69h0zm16.65-.47h0s0-.04 0 0zm-5.63.34c0 .5-.13.64 0 1.19a7.45 7.45 0 0 0 0-1.19zM70.2 52h0z"/><path d="M58.23 52.46h0zm4.27-1.26v.23a.84.84 0 0 0 0-.23zm1.17.69v-.06s-.01.06 0 .06zM62 52s0-.11 0 0h0c0-.1 0-.13 0 0zm-.57 0v.1zM49.5 53.27a2.23 2.23 0 0 1 0-.23c0 .18-.1.18 0 .23zm20.71-1.36a.07.07 0 0 1 0 .05h0v-.05zm-7.84 4.22l-.11-.06a.1.1 0 0 0 .11.06z"/><path d="M53.8 55.15v.05s-.02 0 0-.05zM62 56.2a2.63 2.63 0 0 0-.08-.36V56zM49.54 53z"/><path d="M48.82 53.14c.08.07.11-.22.18-.35s0 .22 0 .38c.08 0 .21-.24.25-.2s0 .07 0 .12c.13-.18.19.13.36-.14a.25.25 0 0 1 0 .09c0-.17.08-.32.11-.44s.14-.17.09 0l-.08.12.07-.07c0 .32-.09.08-.15.3.1 0 .27-.26.3-.15-.07.32-.17 0-.16.35l-.13-.15c-.07.51 0-.07-.13.48.09.17.18-.06.27.11.08-.16.07-.27.14-.44.27-.25-.09.92.16.54.1-.21.23-.65.26-.37l-.14.39c.11.11.23-.56.28-.22-.07.16-.13.1-.13.15 0 .38.12-.2.19-.17l-.09.38c.15 0 .36-.2.53-.21a.92.92 0 0 0-.09.38c.23-.12.37.24.49.59l.16-.36a.56.56 0 0 1 0 .26c0 .18.06-.25.12-.39s0 .25 0 .36c.2-.28.52-.61.56-.11v.12c.07.21.29-.83.31-.4v.07c.19.28.51-.06.56.68.15-.66.18.37.35-.57a4.07 4.07 0 0 0 .12 1.06c0 .06.17-.59.25-.67l-.08.51.17-.52-.06.64.08-.12a1.49 1.49 0 0 1 0-.4c.12-.21.16.43.12.7l.28-.38a1.34 1.34 0 0 1-.13.4c.19-.51-.06.57.12.1a2.63 2.63 0 0 1 .07-.42c0 .33.13.37.23.25l-.06.37c.15.14.36-.09.54 0a2.41 2.41 0 0 1 .11-.91l-.05.6a5.2 5.2 0 0 1 .1-.67 2.39 2.39 0 0 1-.1.87l.11-.19c0 .18 0 .27-.08.49.08-.36.08.64.2 0v.18c.18 0 .28-.14.44-.14a4.42 4.42 0 0 1 .18-.82c.09.18.18.62.31.59a2.87 2.87 0 0 0 .13-.76c0 .49.11.46 0 .8.16-.05.21-.07.44-.45a1.77 1.77 0 0 1 0-.46c0-.08.06.22 0 .46h0c.26-.73.44 1.52.67.49V56l.21-.54c.08.09-.07.38 0 .7.23-.84.31.14.5-.42.09 1.51.46-.09.61.88v-.35c0-.35 0 .2.08.29a3.14 3.14 0 0 1 0-.52c.38-.42.78.51 1.2.82.15.08 0-1.84.23-1v.66c.27-.8.6 0 .85-.71v.35c.09.46.23 0 .21-.39a3.4 3.4 0 0 1 .06.54c.08.26.12-.62.18-.16a.5.5 0 0 1 0 .19c0-.23.19 0 .12-.5.12.25.18-.26.29.05 0-.6.2.26.15-.58.06.86.24.67.27.25 0 .26.08.26.09.62.07 0 .13-.2.07-.63.24 1 .2-.86.41.41a4.24 4.24 0 0 1 .52-1.07c.09.81-.21.13-.1 1 .15-.38.17-1.09.38-.93a1.31 1.31 0 0 1 0 .49c.15-.37.37 0 .48-.49a.72.72 0 0 1 0 .21s.09.09 0-.25v.1a8.64 8.64 0 0 1-.06-1.35c.1 1 .2.22.3 1.48a1.75 1.75 0 0 0 0-.47.79.79 0 0 1 .08.46c.09-.22 0-.57.1-.59v.43c0-.34 0-.67.12-.55s0 .22 0 .23c.15-.1.12-.89.34-.64.07.69.09.21.2.79l.06-.2-.08-.27c.07 0 .07-.45.17-.28v.25l.13-.15-.12-.19c0-.31-.15-.71 0-.58 0 .06.07 0 .17.3h0c0-.18 0-.37.09-.25s.11.6.14.71c-.05-.46.16-.18.11-.66a2.18 2.18 0 0 0 .08.44v-.36a1.09 1.09 0 0 1 .11.37c.12 0-.17-.65 0-.4a.53.53 0 0 1 0 .14c.15.11.19-.29.35-.15.14.49-.08.15 0 .56.15-.15.22-.7.4-.65h0c-.13-.66.19.28.2 0a1.29 1.29 0 0 0 0 .29c.13 0 .18-.25.3-.5v.16c.09.11.18 0 .27.05v-.34c.42.7.3-.54.65 0v.12l.13-.19c-.07-.19-.06-.11-.14-.25s0-.24 0-.25c0 .16.09.32.15.41s0-.13 0-.18c.18.3-.1-.4.08-.21v.1c0-.06 0-.2.09-.19.08.2 0 .11 0 .29.06 0 0-.43.13-.26s0 .08-.06.15.12.14.18.16h.14c-.07-.52.13-.17.15-.5 0 .31 0 .17.08.36 0 0 .11.07.11.13 0-.17.12.06.12-.18 0 .05 0 0 .08.11.05-.08 0-.08-.06-.15s.29.05.36-.25c.09-.15.07-.28.17-.38s0 .14 0 .14.12 0 .17-.08 0 0 0 .06 0-.11.07-.1a.53.53 0 0 1 0 .12 1.18 1.18 0 0 1 .13-.18v.11c0 .04.15-.14.15-.19h0v.05c0 .05-.08 0-.09 0h0c-.08-.09-.16.08-.23.13v-.17c0 .05-.07-.09 0-.13s0 .07-.12 0 0 0 0 0v.05-.08c-.14-.07-.14.16-.22 0h0c-.14.1 0 .13 0 .32l-.19-.32v.15s-.05 0-.07-.07v.17c-.12-.12-.18.14-.28-.13 0 .14.1.08 0 .19-.12-.3-.08.08-.19 0s.06-.09 0-.23c0 .3-.16 0-.2 0 .07.25-.1.13-.17.23 0-.09-.23-.11-.35-.21h0c.07.3 0 .26-.09.34a.69.69 0 0 1 0-.35h-.07a.27.27 0 0 1 0 .21l-.45-.31c-.09 0-.09.32-.25.16.06.25.27.65.2.85a1.38 1.38 0 0 1-.09-.42v.07-.24c-.08-.09 0 .2 0 .18 0-.19-.07-.13-.1-.29s0 .08 0 0a.67.67 0 0 1-.2-.29c0 .12.07.27 0 .3s-.09-.24-.17-.34c0 .15-.07 0 0 .31l-.1-.23c0 .14-.19.06-.06.4h0c-.07.36-.35-.14-.46 0V52c-.05.15-.17.11-.17.38 0 0-.11-.21-.14-.36 0 .1 0 .25-.16.05 0-.23-.06-.2 0-.17-.11-.1-.17-.31-.19 0 0-.34-.15-.42-.17-.32l.11.24h-.13l-.07-.45c-.29-.57-.12 1-.44 0 0 .34.14.23.17.62a5 5 0 0 1-.33-.74c-.17-.27 0 .71-.12.53a2.36 2.36 0 0 1 .1.83 2.16 2.16 0 0 1-.22-.89v.1a.59.59 0 0 0 0-.33v.18c-.07-.19-.18-.16-.21-.46a.51.51 0 0 0 .09.39c-.15-.26-.16 0-.3-.17a1.41 1.41 0 0 1 .08.32c-.2-.23 0 .35-.1.44-.11-.28-.1-.68-.16-.44a1.59 1.59 0 0 1-.1-.66c0 .37-.22-.24-.28-.32v-.15c0 .09 0 .09-.06.09l.09.38a.36.36 0 0 1-.09-.23c0 .26.12.65.12 1-.07-.2-.09.22-.18-.3.15.17-.1-.53 0-.61s0 .06-.07 0a.82.82 0 0 1 0-.14c-.19-.48 0 .59-.09.58 0-.3-.11-.57-.12-.5a2 2 0 0 1 .09.73c-.12-.23-.06.18-.11.15l.06.11c0 .31 0 .27-.06.37v-.27c0 .54-.22-.55-.25-.18-.07-.21-.08-.58-.14-.72 0 .4-.15-.43-.21-.1a1.83 1.83 0 0 1 .06.73l.12-.3v.62c.05 0 .07-.27.11-.2a1.5 1.5 0 0 0 0 .59c-.15-.63-.09.37-.22 0l-.08-.98c-.17-.47-.14.54-.32.28l.07.18c0 .43-.09.07-.12.24a4.86 4.86 0 0 0-.13-.71c0 .27-.11 0 0 .7l-.12-.48c-.14-.19 0 1.05-.16.94a5.43 5.43 0 0 1 0-1s-.08-.06-.06.19c0-.23-.06.51-.13.16v.52a.82.82 0 0 1 0-.18A2.75 2.75 0 0 0 62 53c-.22-1.16-.35.1-.53-.91a.74.74 0 0 1-.25.29v-.15c-.13-.36 0 1.1-.15.71-.1-.62 0-.34 0-.57-.09-1.27-.14.17-.26-.57v-.07c-.08-.43-.12.49-.23.4v-.19a2.07 2.07 0 0 1-.27 1 3.39 3.39 0 0 0 0-.78c0 .08.05.83 0 1a8.4 8.4 0 0 1-.14-1.06h.09c-.07-.71-.11 0-.16-.1v-.31c-.13.1-.11.88-.25.83v.23c-.06.78-.07-.44-.14.14v-.78a6 6 0 0 1-.26.91 9.79 9.79 0 0 1 .21-1.23c-.05 0-.17.05-.19.44 0-.07 0-.27.06-.14-.05.62-.13.92-.23.91 0-1.53-.26-.38-.33-1.57-.17.56-.33-.25-.53-.16 0 1.19-.06 0-.08 1.25 0 .08-.06.06-.06 0l-.13-.73c0-.35.06-.27.06-.54-.1-.09 0-.52-.08-.84 0 .44 0 .63-.1.46l.06.56c-.17.64-.09-1-.25-.38l.06-.38c-.08.23-.26 0-.39 1a2.33 2.33 0 0 1 0-.55c-.16-.15-.45 1-.55.42v-.29c0 .08-.09.54-.11.25a2.2 2.2 0 0 0 0-.3c0 .1-.13.5-.16.33l.06-.32c-.14-.37-.32.79-.49 1a2.27 2.27 0 0 0-.09-1.24v-.12c-.19-.1-.4.68-.63 1 0-.88-.34-.37-.47-.85a2.35 2.35 0 0 1-.13.69c0-.16-.19.54-.09-.17h0c.06-.7-.06-.51-.12-.53l-.14.92c0-1.33-.56.45-.48-.71-.08.22-.13.22-.21.44l.08-.47c-.11-.11-.16-.17-.33-.05l.09-.33c-.08 0-.34 1.3-.43 1.32l.1-.66c-.15 0-.2-.56-.46 0a1.2 1.2 0 0 1 .09-.3c-.06 0-.19-.4-.33.44.11-.55-.15-.06-.28.17l.1-.39c-.18.5-.21.63-.34.76 0-.05 0-.31.06-.21 0-.2-.14.36-.19.15l.09-.24c-.07 0-.1.09-.2.37s-.07-.2.03-.54c-.06.2-.16.46-.19.36a1.11 1.11 0 0 1 .08-.23c-.08-.25-.29.39-.3 0a1.57 1.57 0 0 0 0-.2c.1 0 .18 0 .17.07a3.29 3.29 0 0 1 .18-.83c-.13.25-.37.76-.42.61v-.11h-.06c-.06 0 0-.09 0-.09.06-.25-.06-.14-.1-.15-.08.33-.12.27-.14.54l.05-.05h.11c-.08.17-.15.3-.15.12l-.19.51c.06-.46 0-.7.06-1-.18.17-.34.12-.57.64-.06.06 0-.16 0-.24s.06 0 .09-.12c-.11.13-.24 0-.35.39-.05-.17.14-.32 0-.27l.05-.1c-.05-.28-.22-.06-.38.1s-.31.29-.36 0a.17.17 0 0 1 0 .1c-.25-.26-.72.07-.94-.25-.08-.06-.12.05-.2.11v-.13l-.14.12c-.16 0-.15-.28-.38-.15v.06c-.06 0-.2 0-.18-.05s0 0 0 0h0-.17c-.11 0 .05-.08-.13-.08a.55.55 0 0 1-.17 0h.01l.06.08.09.05-.07-.06a.14.14 0 0 0 .09.07.14.14 0 0 0 0 .06h.1v.08c0 .08 0-.09.06-.06s0 .09.06.09h0s.11.09.15.05.15.09.1.22A.19.19 0 0 1 48 52c-.13.13.14.13 0 .33.12-.14.21.09.35 0s0 .05 0 0 0 .15 0 .23c.08-.21.18-.2.27-.31 0 .26-.13.24-.18.46.06-.18.17-.09.21-.27a.93.93 0 0 1 0 .32c.11-.31.06 0 .17-.19 0 .21-.08.32 0 .27a.24.24 0 0 1 0 .3zm2.2.41h0zm.18.07h-.07a.58.58 0 0 1 .07-.23.81.81 0 0 0 0 .23zm.2-2.43v.09h-.06z"/><path d="M51.24 51.62a0 0 0 0 1 0 0v.08-.1zm15.99.5h0zm-13.68 3.2l.02-.12-.03.1.01.02zm14.9-2.55v.06s.01-.04 0-.06zm.42-.14h.08zm.33-.06v-.08zm-5.05 2.53s-.01.09 0 0zm1.41-1.48a1.48 1.48 0 0 1 0 .22s.05.02 0-.22zm-3.18 2.52v-.01h-.01l.01.01zm3.1-2.29c0 .08.06 0 .07 0s-.06-.07-.07 0zm4.99-2.09l.01-.01-.01.01z"/><path d="M70.48 51.75h0zm.04-.05h0zm-.43.3h0zm-.09.1h.13c-.04.01-.13-.1-.13 0zm-.73-.36h.12c0-.05-.09-.13 0-.15-.24-.12.03.15-.12.15zm-.38-.05v-.14c0-.04-.07.08 0 .14zM66.4 52l-.07-.32s.03.08.07.32zm-.09 1.79l.09.2-.04-.33-.05.13zm-.8-2.48l.01-.05-.05.13.04-.08zm-4.01.18l.06.6c.02-.09-.02-.79-.06-.6zm-1.7.64c0-.31-.08-.51-.1-.2.04.07.08.28.1.2zm-5.12-1.02l.06-.18-.09.15.03.03zM72.05 74h0zm-.22-.11s-.11 0-.09.06.06 0 .11 0H72a.33.33 0 0 0-.15 0s-.03-.05-.02-.06zm-3-1.71h0zm-1.93-1.06v-.09a.19.19 0 0 0 0 .09z"/><path d="M66.69 70.43h0s.02-.03 0 0zm2.14 1.75v-.14c-.06.12-.02.1 0 .14zm2.48 1.75h0zm-1.54-1.58h0v-.11zm.64.36l-.13.24c0-.07.06-.1.08-.11zm.88.84h0zM69.33 72v-.11zm-19.74.49h0a0 0 0 0 0 0 0zm-.9-.21h0zm17.49-2.68h0s.02-.03 0 0zm-6.36-.89c0 .51-.15.64-.07 1.2a6.3 6.3 0 0 0 .07-1.2zm11.47 5.2h0a0 0 0 0 0 0 0z"/><path d="M59.75 69.91h0zm4.83-.55v.23s-.01-.12 0-.23zm1 1.05v-.08a.38.38 0 0 0 0 .08zm-1.72-.47v-.06.12c-.02-.12-.01-.15 0-.06zm-.63-.13v.11zm-11.74 2.87a1.42 1.42 0 0 1-.07-.22c.04.18-.03.23.07.22zm19.83 1.2h0zm-8.17.19l-.07-.07c.01 0 .04.07.07.07z"/><path d="M55.75 73v.06s-.01.02 0-.06zm7.05 1.05a2.19 2.19 0 0 0 0-.37v.14zm-11.38-1.59z"/><path d="M50.88 72.89c.1 0 0-.24 0-.39s.1.2.17.34c0 0 0-.3.11-.29a.5.5 0 0 1 0 .12c0-.22.22 0 .24-.29v.08a3.31 3.31 0 0 1-.1-.44s0-.21.09 0v.05c.11.31 0 .11 0 .34.07-.1.11-.37.19-.28.08.32-.13.11 0 .39l-.13-.12c.17.48-.07 0 .11.48.15.11.11-.14.27 0 0-.18-.07-.28-.07-.46.12-.34.31.87.36.43 0-.23-.08-.69.06-.44v.41c.14 0 0-.6.15-.31 0 .17-.07.14 0 .19.14.34 0-.24.08-.24l.08.39c.12 0 .22-.33.36-.4a1.31 1.31 0 0 0 .06.38c.15-.2.4.07.62.38v-.41a.51.51 0 0 1 0 .26c.09.16 0-.26 0-.41s.09.24.08.35c.07-.32.25-.74.43-.27v.12c.12.19 0-.88.15-.47v.08c.24.2.44-.23.67.49 0-.68.24.32.17-.63a5.64 5.64 0 0 0 .34 1s0-.6.07-.71v.52-.54l.09.63v-.13a1.61 1.61 0 0 1-.07-.39c.07-.24.23.38.25.65l.16-.44a2.39 2.39 0 0 1 0 .43c.07-.55.05.57.11.07a3.16 3.16 0 0 1 0-.43c.06.33.17.34.24.21v.38c.15.11.29-.15.45-.13a2.66 2.66 0 0 1 0-.92v.6a4.91 4.91 0 0 1 0-.68 2.69 2.69 0 0 1 0 .88l.06-.21v.5c0-.37.15.62.17 0v.18c.16 0 .22-.18.35-.2a6 6 0 0 1 .08-.84c.1.18.21.61.33.57a4.46 4.46 0 0 0 .06-.77c0 .49.12.46.06.81.14-.07.18-.09.36-.48a2.69 2.69 0 0 1 0-.47c0-.08.07.22.07.46h0c.21-.74.42 1.49.6.45h0l.18-.53c.08.09 0 .37 0 .69.21-.83.27.15.44-.41 0 1.52.4-.07.49.9v-.36c.06-.35 0 .21 0 .29a3.63 3.63 0 0 1 0-.51c.36-.41.64.58.93.91.11.1.25-1.82.32-1l-.11.65c.33-.77.5.06.82-.58 0 .15-.05.34-.08.34 0 .47.19 0 .24-.34a4.83 4.83 0 0 1 0 .53c0 .28.21-.58.17-.12a.43.43 0 0 1-.05.19c.07-.23.15.06.2-.47 0 .26.21-.22.23.09.14-.58.12.29.26-.53-.14.85 0 .69.18.3-.06.25 0 .27-.08.62.07 0 .16-.16.22-.59-.05 1 .38-.78.23.5a3.57 3.57 0 0 1 .74-.88c-.17.8-.22.06-.37.91.23-.33.46-1 .6-.79s-.1.33-.14.47c.24-.31.31.09.55-.31a.59.59 0 0 1-.07.2s0 .12.11-.22v.09a7.06 7.06 0 0 1 .41-1.29c-.27 1 .1.27-.26 1.49a2.2 2.2 0 0 0 .14-.45 1.24 1.24 0 0 1-.09.46c.14-.18.19-.53.28-.52s-.07.23-.12.41c.12-.31.24-.61.3-.47s-.05.22-.08.22c.16 0 .44-.79.53-.47-.21.66 0 .23-.13.8l.12-.16v-.28c.07 0 .24-.38.26-.18l-.12.22.17-.09v-.22c.15-.27.18-.71.24-.53s.07 0 0 .35h0c.08-.17.17-.34.19-.2s-.17.59-.19.71c.15-.44.2-.1.38-.55a2.51 2.51 0 0 0-.13.43l.12-.35a.81.81 0 0 1-.07.39c.09.08.15-.66.19-.35a.45.45 0 0 1-.06.13c.08.16.3-.17.37 0-.11.5-.14.11-.22.53.19-.08.51-.53.64-.39h0c.22-.64 0 .34.19 0a1.62 1.62 0 0 0-.1.28c.07.11.27-.12.49-.27l-.07.15c0 .14.15.1.2.18.06-.14.1-.11.14-.32 0 .81.54-.31.52.34 0 0-.09.1-.07.1l.2-.08c.06-.2 0-.12 0-.28s.14-.19.18-.18c-.12.11-.11.32-.12.43l.07-.19c0 .36.15-.37.18-.11v.1c.06 0 .14-.15.18-.11-.06.21-.08.08-.14.25.07 0 .26-.34.25-.13 0 0-.09 0-.14.08v.24l.08.12v-.06c.26-.45.2-.06.42-.31-.21.23-.08.15-.16.33a.25.25 0 0 1 0 .17c.11-.13 0 .12.21-.08v.15c.09 0 0-.1 0-.16s.17.23.41 0 .24-.16.38-.16-.09.1-.09.1.1.07.18.06a.06.06 0 0 0 0 .07c.05 0 .07-.08.12 0l-.09.09a.91.91 0 0 1 .21 0l-.09.06c-.09.06.2 0 .24 0h0s-.08 0-.08-.05h.05c0-.12-.18 0-.26-.06l.08-.09a.38.38 0 0 0-.13.06s0-.12.06-.11-.07 0-.09-.08h0-.07s0-.1.06-.06c-.06-.15-.21 0-.2-.12h0c-.16 0-.07.11-.24.22l.07-.37-.07.13a.07.07 0 0 1 0-.09c-.09.07 0 .06-.08.14 0-.17-.23 0-.14-.28-.07.12 0 .13-.08.18.1-.3-.11 0-.12-.15s.11 0 .1-.21c-.14.26-.09-.13-.17-.11-.09.24-.15 0-.27.08s-.12-.23-.16-.38v-.05c-.13.28-.19.18-.28.22a.88.88 0 0 1 .17-.32h-.06c0 .09-.08.13-.14.15l.1-.23c-.08 0-.25.19-.3 0-.09.25-.14.7-.31.82a1.57 1.57 0 0 1 .16-.4s-.07.1-.07 0l.12-.21c0-.11-.09.18-.12.14s0-.14.07-.29 0 .09 0 0a.6.6 0 0 1 0-.34c0 .11-.09.26-.13.27s0-.25 0-.38c-.07.13-.07 0-.17.26v-.24c-.09.11-.21-.06-.27.3h0c-.24.27-.23-.3-.41-.22v-.12c-.13.1-.21 0-.35.24a.88.88 0 0 1 .07-.39c-.1.06-.14.2-.17 0 .13-.19 0-.2.11-.13-.05-.14 0-.36-.2 0 .13-.31.06-.44 0-.36v.26c-.06 0-.09 0-.12-.06l.15-.43c0-.63-.57.81-.44-.19-.14.31 0 .27-.12.64a5.33 5.33 0 0 1 0-.82c0-.32-.29.65-.35.42a2.18 2.18 0 0 1-.27.79 2 2 0 0 1 .18-.9L67 71a.55.55 0 0 0 .12-.32l-.06.17c0-.2-.11-.22 0-.51a.52.52 0 0 0-.08.4c0-.3-.15-.08-.22-.29a.89.89 0 0 1-.06.32c-.1-.29-.15.32-.28.37 0-.3.19-.67 0-.47a1.72 1.72 0 0 1 .17-.64c-.18.32-.12-.31-.16-.41l.08-.13c0 .08-.07.06-.1 0l-.06.4a.4.4 0 0 1 0-.25 10 10 0 0 1-.27 1c0-.21-.17.17-.06-.35.08.22.1-.53.23-.57h-.08a.32.32 0 0 1 .05-.13c0-.52-.19.56-.31.51.08-.29.09-.58.06-.52a1.76 1.76 0 0 1-.19.71c0-.26-.12.15-.16.11v.12c-.08.29-.12.24-.19.32 0-.23.08-.14.09-.25-.18.51 0-.6-.19-.27 0-.22.11-.57.11-.73-.18.37 0-.45-.2-.16a1.66 1.66 0 0 1-.18.71l.23-.24-.23.57s.16-.23.18-.15a1.23 1.23 0 0 0-.14.57c0-.64-.22.33-.21-.11l.21-1c0-.5-.33.48-.44.17v.2c-.1.42-.11 0-.19.19a4.73 4.73 0 0 0 .08-.72c0 .27-.12-.06-.26.66v-.49c-.1-.24-.33 1-.43.84a4.91 4.91 0 0 1 .23-.92s-.07-.09-.11.16c0-.24-.2.47-.18.11 0 .16-.12.54-.16.5v-.18a2.41 2.41 0 0 0-.13.65c0-1.18-.37 0-.33-1a.76.76 0 0 1-.33.23v-.15c-.07-.37-.22 1.08-.29.67 0-.63.11-.32.1-.56.15-1.27-.18.14-.17-.61v-.07c0-.44-.23.45-.33.34s0-.11 0-.19a2.37 2.37 0 0 1-.45 1 4 4 0 0 0 .12-.77c-.06.06-.08.81-.19 1a7.77 7.77 0 0 1 0-1.07h.09c0-.71-.12 0-.15-.12v-.31c-.16.09-.23.86-.38.79v.24c-.16.76 0-.44-.16.12v-.78a9 9 0 0 1-.36.88 8 8 0 0 1 .34-1.21c-.06 0-.19 0-.25.43 0-.08.07-.27.08-.14-.12.61-.23.91-.33.88.14-1.52-.24-.41-.23-1.6-.23.56-.37-.25-.6-.17 0 1.19-.07 0-.12 1.25 0 .07-.07 0-.07 0l-.12-.73c0-.35.06-.26.07-.54-.11-.09 0-.51-.09-.84 0 .44-.06.62-.12.46l.07.56c-.19.64-.1-1-.29-.38l.06-.38c-.09.22-.31 0-.41 1a2.55 2.55 0 0 1 0-.56c-.19-.13-.45 1-.6.46v-.29c0 .08-.07.55-.11.26a1.51 1.51 0 0 0 0-.31c0 .1-.1.51-.15.35v-.33c-.19-.37-.29.8-.45 1a2.18 2.18 0 0 0-.23-1.22v-.12c-.23-.07-.37.74-.57 1.08-.15-.87-.44-.32-.67-.77a2.34 2.34 0 0 1 0 .7c-.06-.15-.11.56-.14-.16h0c-.07-.69-.16-.49-.24-.49v.92c-.28-1.29-.49.58-.68-.57 0 .24-.09.25-.12.48v-.47c-.15-.09-.22-.13-.37 0v-.34c-.1 0 0 1.34-.08 1.38l-.09-.67c-.16 0-.38-.47-.47.16v-.31c0-.03-.34-.32-.22.52-.06-.56-.17 0-.22.26v-.41c0 .53 0 .67-.07.83 0 0-.06-.3 0-.21-.1-.19 0 .38-.13.2v-.26c-.09 0-.06.12-.07.42s-.16-.07-.22-.39c0 .2 0 .48-.05.4a.78.78 0 0 1 0-.24c-.17-.21-.13.47-.28.15a.59.59 0 0 0-.05-.2h.2a3.1 3.1 0 0 1-.15-.84c0 .29-.07.85-.17.73v-.03c0 .07-.06-.07-.09-.06-.05-.25-.12-.1-.16-.09.06.33 0 .29.09.54q0 0 0-.06h0l.1-.06c0 .18 0 .33-.09.17v.54c-.14-.44-.29-.64-.35-.9-.1.23-.28.25-.27.82 0 .08-.07-.14-.1-.22s0-.06 0-.14c-.05.16-.21.13-.16.49-.12-.13 0-.34-.12-.24v-.11c-.18-.22-.24.06-.3.28s-.14.41-.34.17a.11.11 0 0 1 .05.08c-.35-.09-.59.41-1 .26-.1 0-.08.12-.11.21l-.05-.12v.19c-.11.13-.29-.16-.4.09h0c-.06 0-.17.1-.18.05s0 0 0 0h0l-.13.1c-.11 0 0-.08-.15 0a1.51 1.51 0 0 1-.13.1h.06s-.06 0 .09 0h.01a.17.17 0 0 0 .12 0h.09v.07c0 .07-.06-.07 0-.08s.06.07.1 0 0 0 0 0H49c.01 0 .17 0 .2.13a.21.21 0 0 1 .1-.11c0 .19.18 0 .22.25 0-.18.21 0 .29-.16s0 0 0 0l.16.16c-.05-.21 0-.25.06-.39.13.23 0 .27.09.48-.05-.18.09-.16 0-.33a.91.91 0 0 1 .14.28c-.06-.31 0 0 .05-.24.12.17.09.32.16.22a.22.22 0 0 1 .41.23zm2-.58h0zm.18 0H53v-.24a.43.43 0 0 0 .07.23zM52.32 70c0-.06 0 0 0 .07v.06V70z"/><path d="M52.34 70.45a0 0 0 0 0 0 0v.07-.11zm16.5 1.79h0zm-13.27 1l-.01-.12v.11l.01.01zm13.9.22v.06a.13.13 0 0 0 0-.06zm.4.13v.08s.02-.07 0-.08zm.3.15v-.08zm-5.25-.16h0c-.07.11-.04.08 0 0zm1.75-.83a1 1 0 0 1-.1.18s.04.07.1-.18z"/><path d="M63.16 74.08v-.01h-.01l.01.01zm3.34-1.17c0 .09 0 .07.07 0s-.03-.06-.07 0zm5.11 1.04h0zm.03.05h0s0-.06 0 0zm.06-.06h0a0 0 0 0 0 0 0zm-.53-.06h0zm-.17-.01s0 .08.11.07h0s-.02-.12-.11-.07zm-.26-.75l.08.1c0-.06 0-.15.06-.13-.06-.25-.02.14-.14.03z"/><path d="M70.47 72.86c.06 0 0-.1 0-.14s-.02.05 0 .14zm-2.28-1.21l.1-.32c-.06.03-.04.13-.1.32zm-.96 1.57l-.02.22.11-.31-.09.09zm.43-2.56l.03-.04-.11.09.08-.05zm-4.25-1.3l-.07.6c.05-.1.15-.77.07-.6zm-1.95.33c0-.31 0-.52-.09-.21.04.04.06.29.09.21zm-5.71-.81l.03-.19-.06.17.03.02zm24.79 26.47h0zm-.26-.04s-.1 0-.08.08.06 0 .11-.06.07 0 .06 0h.08a.44.44 0 0 0-.17 0zm-3.62-1.08h0zm-2.28-.7v-.11a.18.18 0 0 0 0 .11zm-.38-.65h0s0-.04 0 0z"/><path d="M76.66 94.23v-.13c-.07.12-.03.1 0 .13zm3.07 1.23h0zm-2.04-1.23h0v-.11zm.77.22s0 .18-.07.26c0-.08 0-.11.06-.12s.01-.08.01-.14zm1.16.64h0zM77.15 94v-.1.1zM55.4 96.22h0zm-.97-.22l.01-.01-.01.01zm18.9-3.87h0s.02-.03 0 0zM66.47 92c.09.5-.11.65 0 1.2a6.19 6.19 0 0 0 0-1.2zm13.25 3.45h0zM66.5 93.23h0zm5.11-1.1v.23a2.3 2.3 0 0 0 0-.23zm1.23.87v-.07s-.01.07 0 .07zm-1.92-.2s0-.12 0 0v.07c-.03-.12-.02-.16 0-.07zm-.68-.04v.11zM57.5 96.42a1.42 1.42 0 0 1-.07-.22c.04.18-.05.23.07.22zm22.24-1.01h0zM70.77 97l-.1-.07a.13.13 0 0 0 .1.07zm-8.5-.37v.05-.05z"/><path d="M70.37 97a2.73 2.73 0 0 0-.05-.37v.14zm-12.94-.8z"/><path d="M56.81 96.63c.1 0 0-.24 0-.39s.09.2.16.34c.07 0 .08-.31.14-.29a.43.43 0 0 1 0 .12c0-.22.24 0 .28-.29v.08a3.31 3.31 0 0 1-.1-.44s0-.22.1 0v.05c.1.31-.05.11 0 .34.08-.1.14-.37.22-.28.08.32-.14.1 0 .39l-.13-.13c.18.49-.07 0 .1.48.17.12.14-.13.3 0 0-.18-.06-.27-.06-.45.15-.35.32.87.39.42 0-.23-.07-.69.08-.45v.41c.15.06 0-.59.17-.31 0 .17-.09.14-.06.19.16.35 0-.23.1-.24l.08.39c.15 0 .26-.33.41-.41a1.06 1.06 0 0 0 .07.38c.17-.2.45.07.69.37v-.4a.57.57 0 0 1 0 .26c.1.16 0-.25 0-.41s.09.24.08.36c.09-.33.28-.75.49-.3v.13c.14.18 0-.88.17-.48v.08c.27.19.48-.24.75.47 0-.68.28.31.18-.65a4.38 4.38 0 0 0 .41 1c.06 0 0-.61.06-.71l.06.52v-.55l.12.63v-.14a1.75 1.75 0 0 1-.09-.38c.07-.24.27.36.3.64l.18-.45a1.28 1.28 0 0 1 0 .42c.06-.54.08.57.14.07a3.28 3.28 0 0 1 0-.43c.09.33.21.34.29.2v.37c.17.11.33-.16.51-.15a2.38 2.38 0 0 1-.08-.92l.08.59c0-.36-.08-.22-.05-.67a2.12 2.12 0 0 1 .08.87l.07-.21v.5c0-.37.2.61.19 0v.18c.18 0 .25-.2.39-.22a4.31 4.31 0 0 1 0-.85c.12.17.27.59.4.55a4 4 0 0 0 0-.78c0 .49.17.45.13.8.15-.08.19-.1.37-.5a1.68 1.68 0 0 1-.06-.47c0-.08.09.21.1.45h0c.18-.76.59 1.45.72.4v.06l.16-.55c.09.08 0 .38 0 .69.16-.85.32.12.46-.45.18 1.51.45-.11.65.85v-.36c0-.35.06.2.09.28a3.4 3.4 0 0 1 0-.51c.36-.44.78.51 1.16.81.14.09.07-1.83.25-1v.66c.28-.8.57 0 .85-.67v.34c.06.47.22 0 .23-.36a4.87 4.87 0 0 1 0 .53c.05.28.15-.6.18-.14a.68.68 0 0 1 0 .19c0-.23.17.05.15-.48.1.25.2-.25.28.06.06-.6.17.27.21-.56 0 .86.16.68.24.28v.62c.08 0 .15-.18.15-.61.11 1 .31-.83.34.46a3.53 3.53 0 0 1 .68-1c0 .81-.23.09-.26.95.21-.36.35-1 .54-.87 0 .11 0 .35-.07.49.21-.34.36 0 .56-.39a.71.71 0 0 1 0 .22s.07.1.09-.25v.1a6.51 6.51 0 0 1 .32-1.33c-.12 1 .15.25 0 1.51a1.55 1.55 0 0 0 .07-.46.79.79 0 0 1 0 .46c.14-.19.12-.56.23-.55s0 .23-.06.42c.07-.32.15-.64.24-.51s0 .23 0 .23c.16-.06.33-.84.49-.55-.11.69 0 .23 0 .82L74 96v-.29c.08 0 .19-.41.24-.22l-.08.24.17-.11-.07-.22c.11-.29 0-.72.15-.56s.08 0 .1.35h0c0-.18.11-.36.16-.22s-.07.61-.07.72c.09-.46.21-.13.31-.61a3.23 3.23 0 0 0-.06.46l.07-.37a.87.87 0 0 1 0 .4c.11.06 0-.68.14-.38a.46.46 0 0 1 0 .13c.12.15.29-.22.4 0 0 .5-.12.12-.12.55.19-.11.44-.61.61-.48v-.06c.1-.66.1.34.22 0a.9.9 0 0 0-.05.29c.11.1.26-.16.47-.35v.16c.06.14.18.07.25.14 0-.15.09-.12.08-.34.14.81.52-.4.65.24 0 0-.08.11-.06.11l.2-.12v-.28c0-.16.1-.21.15-.21a.57.57 0 0 0 0 .44 1.25 1.25 0 0 0 0-.19c0 .35.08-.4.17-.15v.1c.06 0 .12-.17.17-.14 0 .22-.07.1-.1.28.08 0 .2-.39.24-.18 0 .06-.08 0-.12.11 0 .25 0 .18.1.22h0l.11.11v-.06c.17-.5.21-.1.38-.39-.17.27 0 .16-.09.36 0 0 .07.11 0 .17.09-.16.09.1.2-.12 0 .06.07 0 0 .14.09-.05 0-.09 0-.17s.24.19.45 0c.16-.08.21-.21.36-.24s-.06.12-.06.12h.2c.08 0 0 0 0 .07s0-.09.12 0a.58.58 0 0 1-.08.1 1.28 1.28 0 0 1 .22-.09l-.08.08c-.08.08.21 0 .24-.09h-.28c0-.12-.2 0-.3 0l.06-.11-.12.09v-.12c0-.01-.07 0-.12 0s0 0 0 0h-.07v-.08c-.1-.12-.21.07-.24-.07h0c-.17 0 0 .13-.19.27v-.32c-.08.09 0 .07-.06.16-.06-.17-.24 0-.21-.25 0 .13.06.12 0 .2 0-.32-.12 0-.17-.13s.11-.06.06-.23c-.09.28-.14-.11-.21-.07 0 .25-.16.07-.28.13 0-.09-.18-.2-.26-.34h0c-.06.3-.16.22-.24.26a.81.81 0 0 1 .1-.34h-.07a.28.28 0 0 1-.11.18l.05-.25c-.09 0-.23.24-.32 0 0 .26 0 .71-.15.87a1.3 1.3 0 0 1 .08-.42s-.05.11-.07 0l.08-.22c0-.11 0 .19-.09.16v-.31c0-.16 0 .09.06 0a.53.53 0 0 1-.1-.34c0 .12 0 .27-.07.29s0-.25 0-.37c0 .13-.09 0-.13.28a.85.85 0 0 1 0-.25c-.07.13-.23 0-.22.35h0c-.2.3-.31-.26-.49-.15v-.12c-.11.12-.22 0-.31.29a.71.71 0 0 1 0-.39c-.08.08-.1.22-.19 0 .1-.21 0-.21.09-.15-.08-.13-.08-.35-.22 0 .07-.33 0-.45-.08-.36v.27h-.14l.07-.45c-.14-.63-.45.89-.5-.12-.09.33.08.27 0 .65-.09-.08-.12-.8-.14-.81-.1-.31-.18.69-.3.48a2.08 2.08 0 0 1-.13.82 1.8 1.8 0 0 1 0-.92v.11a.43.43 0 0 0 .06-.33v.18c0-.2-.16-.2-.11-.5a.47.47 0 0 0 0 .4c-.09-.29-.18 0-.28-.25a.94.94 0 0 1 0 .32c-.16-.26-.11.35-.23.42 0-.3.08-.7-.06-.47a1.41 1.41 0 0 1 .06-.66c-.14.35-.19-.29-.25-.38l.07-.14c0 .08-.07.07-.1.07v.4a.39.39 0 0 1-.05-.25 8.43 8.43 0 0 1-.11 1c0-.21-.15.2-.13-.34.13.21 0-.53.15-.59q0 .09-.09 0a.46.46 0 0 1 0-.14c-.1-.5-.1.59-.24.55v-.52a1.83 1.83 0 0 1-.08.74c-.07-.25-.1.16-.15.12v.12c0 .31-.08.26-.15.35 0-.24.07-.16.05-.27-.1.54-.13-.58-.25-.23v-.74c-.13.39-.1-.45-.23-.13a1.62 1.62 0 0 1-.08.73l.2-.27-.15.6c.06 0 .14-.25.17-.18a1.31 1.31 0 0 0-.06.59c0-.64-.17.36-.24-.08v-1.06c-.11-.49-.27.51-.43.23v.19c0 .43-.11 0-.18.22a5.21 5.21 0 0 0 0-.73c0 .27-.13 0-.18.69l-.06-.49c-.14-.22-.2 1-.33.9a4.86 4.86 0 0 1 .1-.95c-.05 0-.09-.08-.09.18 0-.24-.15.49-.18.13 0 .16 0 .55-.09.52v-.19a3 3 0 0 0-.05.67c-.11-1.18-.39.07-.49-.95a.87.87 0 0 1-.32.26v-.15c-.12-.36-.09 1.1-.23.7-.06-.63.08-.34 0-.57 0-1.27-.18.16-.27-.58v-.08c-.07-.44-.19.48-.31.38s0-.11 0-.19a2.16 2.16 0 0 1-.36 1 3.4 3.4 0 0 0 0-.78c0 .07 0 .82-.08 1a6.8 6.8 0 0 1-.13-1.06h.1c0-.71-.13 0-.18-.1v-.31c-.15.1-.15.88-.31.83v.23c-.08.78-.08-.43-.16.14v-.78a6.07 6.07 0 0 1-.3.91 7.61 7.61 0 0 1 .24-1.23c-.06 0-.2 0-.22.44 0-.07.05-.27.07-.14-.06.62-.14.92-.26.91 0-1.53-.3-.38-.42-1.57-.18.58-.41-.22-.65-.12.13 1.19-.07 0 0 1.26 0 .08-.07.06-.08 0l-.19-.72c-.06-.35 0-.27 0-.54-.12-.08-.07-.51-.17-.83 0 .43 0 .63-.09.47l.12.55c-.14.65-.19-1-.33-.36v-.38c-.07.23-.33 0-.36 1a2.12 2.12 0 0 1 0-.55c-.22-.12-.41 1.07-.6.5v-.29c0 .09 0 .55-.1.26a1 1 0 0 0 0-.3c0 .1-.07.52-.13.35v-.33c-.23-.34-.26.83-.41 1a2 2 0 0 0-.34-1.21v-.11c-.25-.06-.35.75-.54 1.11-.21-.86-.49-.29-.76-.73a2.12 2.12 0 0 1 0 .7c-.07-.15-.09.57-.15-.15h0c-.11-.69-.2-.48-.28-.48l.08.92c-.36-1.28-.5.6-.75-.54 0 .24-.09.25-.12.48v-.47c-.15-.08-.23-.11-.39 0v-.33c-.1 0 0 1.34-.05 1.38l-.11-.66c-.17 0-.42-.46-.51.18a.84.84 0 0 1 0-.32c-.09 0-.37-.31-.22.53-.08-.55-.19 0-.24.27v-.41c0 .54 0 .67-.07.84 0 0-.07-.31 0-.22-.12-.18 0 .38-.15.2v-.25c-.09 0-.06.12-.07.42s-.18-.06-.24-.39v.41a.84.84 0 0 1 0-.25c-.18-.2-.15.48-.31.16a.68.68 0 0 0-.05-.2h.21a3.09 3.09 0 0 1-.15-.83c0 .28-.08.85-.19.73v-.1l-.05.07c-.05.07-.06-.07-.09-.07-.05-.25-.13-.09-.17-.08.06.33 0 .29.09.54q0 0 0-.06h0l.12-.06c0 .18 0 .33-.11.17v.54c-.14-.44-.3-.63-.36-.9-.11.24-.31.26-.3.83 0 .08-.08-.14-.11-.22s0-.06 0-.15c-.06.17-.23.14-.18.51-.13-.13 0-.35-.13-.24v-.12c-.18-.22-.25.06-.33.28s-.16.41-.37.17a.2.2 0 0 1 .06.09c-.39-.1-.67.4-1.06.26-.1 0-.09.11-.13.21v-.13l-.07.19c-.12.13-.29-.16-.43.08h0c-.06 0-.19.11-.19.06a0 0 0 0 1 0 0h0l-.14.1c-.13 0 0-.08-.17 0a.57.57 0 0 1-.15.09h.01s-.07 0 .1 0h.19a.17.17 0 0 0 .12 0h.16v.08c0 .08-.07-.07 0-.09s.06.08.11 0 0 0 0 0h.16c.01 0 .19 0 .21.13a.22.22 0 0 1 .12-.11c-.05.19.2 0 .22.26 0-.19.24 0 .33-.17s0 .06 0 0 .11.1.17.16c0-.21.06-.25.09-.39.13.23 0 .27.07.48 0-.18.11-.16 0-.33a.73.73 0 0 1 .14.28c0-.31 0 0 .07-.24.12.17.08.32.17.22a.21.21 0 0 1 .07.18zm2.25-.63h0zm.2 0h-.09v-.24l.09.24zm-.8-2.3c0-.06 0 0 .06.07l-.05.06z"/><path d="M58.48 94.17v.07-.11zm18.2.12h0zm-14.6 2.57l-.01-.12-.01.1.02.02zm15.56-1.49a.13.13 0 0 0 0 .06.15.15 0 0 0 0-.06zm.47.05l.06.07s-.04-.06-.06-.07zm.35.09v-.08zm-5.79.76a0 0 0 0 0 0 0c-.05.11-.03.08 0 0zm1.78-1.1a2.07 2.07 0 0 1-.08.2s.05.04.08-.2z"/><path d="M70.78 97v-.01h-.01l.01.01zm3.52-1.64c0 .08 0 .06.07 0s-.04-.07-.07 0zm5.77.06h.02v-.01l-.02.01z"/><path d="M80.09 95.41h0zm.07-.02h0zm-.58.05h0a.08.08 0 0 1 0 0zm-.15.02s.07.07.13 0h0c-.03.07-.09-.06-.13 0zm-.51-.67l.11.08v-.14c-.09-.23.04.14-.11.06z"/><path d="M78.56 94.58c.07 0 0-.1 0-.14s-.04.06 0 .14zm-2.7-.75v-.33c-.02.03.03.13 0 .33zm-.71 1.71l.03.22.06-.32-.09.1zm-.06-2.6l.03-.05-.1.11.07-.06zm-4.72-.65v.6c.04-.1.06-.78 0-.6zm-2.05.55c0-.31-.09-.51-.12-.2.04.04.09.28.12.2zm-6.19-.36l.03-.19-.07.17.04.02z"/></g></svg>