<svg xmlns="http://www.w3.org/2000/svg" viewBox="0 0 101.67 121.76"><defs><style>.cls-1{fill:#ef9293;}.cls-2{fill:#202020;}</style></defs><g id="Laag_2" data-name="Laag 2"><g id="Laag_8" data-name="Laag 8"><path class="cls-1" d="M55.43,9.79C35,22.61,16.53,40.24,6.75,62.67,1.92,73.73-2.86,87.86,2.64,99.53a20.51,20.51,0,0,0,11.48,10.81c3.3,1.15,6.62.87,10,1.1,4,.27,7.53,1.71,11.21,3.24,11.18,4.67,22.08,5.35,33.26.2A52,52,0,0,0,93.4,89.66c5.66-12.26,7.38-25.75,7.83-39.13.39-11.25,2.77-26.28-9.61-31.92-4.18-1.9-10.49-2-13.71-5.44C74,9,71.29,3.59,64.4,6c-6,2.14-10.87,9.38-14.62,14.29A95.53,95.53,0,0,0,37.89,40.71C35.61,46,40.41,52,46.1,48.92A34.65,34.65,0,0,0,62.4,29.71c1.75-4.8-3.33-8-7.38-7.38-14,2-26.16,13.69-28.71,27.61-1.33,7.29-.23,16.15,8.31,18,7.59,1.65,13.59-4.13,16.83-10.33,3.43-6.54,4.2-16.15-4.44-18.94-6.84-2.2-15.34,2.13-20.21,6.8-5.47,5.25-7.69,14.11-3.09,20.62,4.05,5.73,12.95,7.35,18.28,2.41s4-13.51-1-18c-5.71-5.2-14.6-3.37-19.66,1.77-5.53,5.61-6.7,15.58-4,22.8a10.83,10.83,0,0,0,15.87,5.43,11.22,11.22,0,0,0,2.79-17.15,13.25,13.25,0,0,0-18.61-1.59c-6.27,5.19-7.16,13.86-3.82,20.95,1.37,2.9,3.78,6.92,7,7.89,3.8,1.12,8.1-.89,10.45-3.81C36.6,79.94,31.3,69.62,22.5,70c-9.34.4-13.39,12.13-10.84,19.83s12.26,12.44,19.73,8.28,8.42-13.79,3-19.9c-1.91-2.15-4.92-2-7.27-.94-5.32,2.36-11,6.55-12.43,12.53a11.83,11.83,0,0,0,6.87,13.63A15.14,15.14,0,0,0,36.87,101c5.08-4.29,6.64-10.87,7.58-17.15.59-4-1.55-7.36-5.79-7.59-14.18-.8-19,19.48-5.15,24.24,12.93,4.44,20.77-11.17,12.85-20.7-2.17-2.6-6.23-2-8.48,0-8.39,7.34-2.79,20.95,7.63,22.21,12.33,1.49,18.95-10.1,19.63-20.79.33-5.21-6.78-7.89-10.25-4.24a21.52,21.52,0,0,0-5,22.23,6.23,6.23,0,0,0,5.79,4.41c5.78-.08,12.07-2.37,13.67-8.55,1.35-5.19-1.68-11.13-7.12-12.17a6.2,6.2,0,0,0-6.77,2.76c-3,5.31-5.06,11.53-1.06,16.93,3.73,5,10.17,5.43,14.86,1.48,8.45-7.13,8.11-20.18,1-28-2.21-2.41-6.25-2.19-8.49,0a12.32,12.32,0,0,0-3.13,13.48c1.25,3.07,3.91,5,7.38,4.19,10.47-2.58,16-16,9.53-25-2.53-3.5-8-4.24-10.37,0S60.76,78,62.87,82.85c1.85,4.25,6.44,7.26,11.14,6.33,10.54-2.09,9-17.59,6.4-24.94s-12.69-4.36-11.57,3.19a15.78,15.78,0,0,0,4.06,8.21c2.13,2.52,6.28,2.08,8.48,0,6.94-6.58,12.54-18.6,1.69-24.86A9.9,9.9,0,0,0,70.44,53c-3.22,3.84-2.82,9-1.9,13.55.7,3.55,5.8,5.79,8.81,3.58,8.77-6.4,11.74-17.72,6.4-27.39a6.07,6.07,0,0,0-8.21-2.16C64,47.88,68.55,64,81.81,65.15a5.88,5.88,0,0,0,5.19-3c4.39-8.12,7.36-24.89-2.84-30.38-9.23-5-19.88,5.45-15.61,14.78,4.4,9.6,17.93,9.21,22.82.36C96.78,37.11,89.58,26.66,79.71,24a6.14,6.14,0,0,0-6.78,2.76c-2.24,3.9-3.93,8.65-1.49,12.91A9.23,9.23,0,0,0,82.17,44c2.3-.69,4.7-3.18,4.41-5.79C86,32.74,85,27.31,80.35,23.73,76,20.39,70,20.23,65.89,24.16c-8.81,8.52,4.74,21.94,12.66,12.91,2-2.33,2.55-6.22,0-8.49-11.79-10.49-29,2.65-21.19,16.69a6,6,0,0,0,5.19,3,14.82,14.82,0,0,0,9.66-4,6,6,0,0,0,1.54-5.83A15.08,15.08,0,0,0,58.14,27c-9.28.75-9.44,11.76-3.65,17,6,5.42,14.9,2.77,18.67-3.87,4.34-7.64.72-16.07-5-21.82-2.16-2.2-6.35-2.43-8.48,0-4.47,5.1-7.9,11.65-5.45,18.51a12.79,12.79,0,0,0,15.17,8.28c2.73-.65,4.18-3.2,4.4-5.79C74.88,27.42,59,22.9,51.66,30.8c-6.52,7-5.12,24.26,6.24,25.43,5.6.57,10.37-4.14,10.75-9.63s-3.91-10-9.16-11.16c-11.86-2.65-21.73,12-21,22.63.39,5.32,3.79,10.53,8.88,12.42,6.55,2.44,13.39-1.15,17.15-6.64C71,54.5,65.93,39,53,40.48c-11.89,1.39-16,17.77-9.09,26.31,6,7.43,23.21,6.28,23.11-5.65,0-6-6.91-10.54-12.18-11.31A14.14,14.14,0,0,0,40,57.54a14.54,14.54,0,0,0,2.27,16.63C47.08,79.14,54,79.54,60,77a5.76,5.76,0,0,0,3-5.18c-.92-7.79-8-14-16.19-11.87C38.29,62.16,37.47,72.48,42,78.72a13.07,13.07,0,0,0,20.16,1.4,14.84,14.84,0,0,0-.38-21.26c-5.22-4.79-17.91-7.24-21.27.91-3.14,7.59,2.23,16.75,10,18.67,9.2,2.27,14.42-7.88,13.48-15.77C63.4,58,61.43,55,57,53.34s-9.59-1.67-13.21,1.73c-7,6.6-2.4,18.34,6.3,20.4C61,78.05,68.16,68.33,72,59.7c2-4.39-1.33-10.56-6.78-8.81A60.12,60.12,0,0,0,40.14,66.44c-4.82,5,1.25,12.51,7.27,9.42l19-9.75c7-3.58.86-13.41-6-10.36l-27.28,12L41.31,76l3.09-4.82c3.19-5-3.21-11.51-8.21-8.21A123.2,123.2,0,0,0,9.25,87c-2.68,3.23-2.06,7,1.22,9.43,7.38,5.56,16.49,6.67,25.41,7.66,4.57.51,9.22,1,13.6,2.47s8.23,5,13.19,5,8.21-3.38,11.42-6.64A95.68,95.68,0,0,0,84.47,92.76C90.55,84,93.59,73,90.09,62.61,87.62,55.34,76,58.46,78.51,65.8,81.27,73.93,78,81.69,73,88.19A92.54,92.54,0,0,1,65,97c-1.89,1.91-1.84,2.58-4.26,1.65-1.58-.61-3.07-1.68-4.65-2.35C43.5,90.9,27.77,94.52,16.52,86l1.22,9.42A112.16,112.16,0,0,1,42.25,73.34L34,65.13,31,69.94c-3.56,5.56,3.21,10.42,8.21,8.21l27.28-12-6-10.36-19,9.75,7.27,9.42A47.27,47.27,0,0,1,68.44,62.46l-6.77-8.81C59.59,58.29,58,62.28,53,63.82c-.21.07-.51-.18-.53-.18,0-.8-.09-.78-.18.07s-.12.86-.14.36c-.22,1.09-.21,2.83-1.86,4.4l4.24-1.76C52,66.88,51.2,65.05,52.05,63l-4.19,4.19c1.82-.68,4.4-1.13,5.88.6,1,1.12,1.24,3.35-.45,4.18-2.08,1-1-1.23-2.21-1.6-2.9-.9.05,2.83-.11,1.45l3-5.18a2.57,2.57,0,0,1-3.16-3.69c1.52-2.67,4.08-.78,5,1.26l-.6-4.62c-.17.48-1.76.18-2.4-.8-.88-1.32-.46-4.62.77-5.65,4.42-3.7-.4,11.38-3,4.74-1-2.44,1.28-6,2.66-7.83A10.73,10.73,0,0,1,56,47.32c1.06-.71,3.92-1.08,4.42-2.48s-2.06-4.22-.07-5.8c1.15-.91,1.51-.18,1.47.25l4.41-5.79c-2.65.63,1.87-6.63,1.95-6.72H59.73c3.05,3.09,3.81,6.19,2.41,9.51l-3.59,2.76c1.92-.45,3.2.82,3.63,2.57l1.54-5.84-1.17.47,5.18,3c-1-1.8.54-3.75,2.33-2.15V28.58c-.23.27,3.53,5.23,3.88,6.25a15.7,15.7,0,0,1,.64,3.4L79,32.44q3.26,3.78,4.32.39l-6.78,2.76c1.94.52,4.81,1.75,4.72,4.22-.09,2.11-1.23,1.26-1.79,1.8-1.19,1.15-.63,3-.51,4.9a17.48,17.48,0,0,1-2.31,9.61l5.18-3c-1.6-.14-1.28-1.56-.21-2.23l-8.21-2.16c2,3.54,1.32,8.49-2.1,11l8.82,3.59c-.48-2.4-.18-4.44-2.8-1.66-1.55,1.65-2.66,3.81-4.41,5.48h8.48a4.49,4.49,0,0,1-1-2.91L68.84,67.43a20.67,20.67,0,0,1,1.47,8.14c0,.54-.61,2.49-.41,2.93,2,4.42,5.32-3.13,5.65-3.72H65.18c2,2.72,1.13,6.49-2.35,7.35l7.38,4.19c-.53-1.29-.7-1.07.05-1.81H61.77a7.61,7.61,0,0,1,1.77,6.85s-1.21,2.94-1.24,2.83c1.26,3.8,3.11-1.73,3.56-2.51l-6.78,2.75q.64-3.81-1.43-3a4.33,4.33,0,0,1-1.93.16L61.51,96c-1.4-3.84-1-7.53,1.87-10.56L53.14,81.18c-.19,2.9-.88,6.86-3.76,8.39-1.2.64-5.15.55-3-1.32H37.88c1.42,1.71-3.71-.29.78,0l-5.78-7.6c-.45,3-1,11.68-5.36,11.85-1.54,0-1,.38-.56-.75.74-1.88,4.62-3.38,6.22-4.09l-7.27-.94c.81.91-1.25,1-2,.51-2.11-1.33.73-8.4-1.63-8.41l4.24,1.76c-2.38-2.74-4.83-8.19-.37-10a.83.83,0,0,1,.51.21c.36.33.55.13.55-.61,0,0,.11,0,.18,0l1.12.34a9.64,9.64,0,0,1-.33-2.26,14.62,14.62,0,0,1,0-3.24c.23-1.83,1.28-5.5,3.78-5.53.74,0,2.38,1.16,2.43.07,0,.14-1.1-.45-1.15-1a4.59,4.59,0,0,1,.33-2.25c.93-2.41,3.59-3.9,5.79-4.95.82-.39,1.88-.6,2.64-1A4.84,4.84,0,0,1,43.26,50L42.12,49a16.27,16.27,0,0,0-1,2.62,15.93,15.93,0,0,1-1.85,3c-.42.52-1.06,1.63-1.81,1.66.6,0,.21-.45.29-1.29a22.38,22.38,0,0,1,1.41-6.4A23.82,23.82,0,0,1,58.21,33.9l-7.38-7.38A22.16,22.16,0,0,1,40,38.56l8.21,8.21A87.5,87.5,0,0,1,65.86,20c.3-.3,2.42-2.33,2.4-2.37l-2.05-.32.67,1c.49,1.47,2.39,3.33,3.51,4.36,3,2.77,6.92,4.07,10.78,5.16,2.85.81,6.91,1.2,8,4.41.66,2,.26,4.72.26,6.78,0,3.27,0,6.53-.1,9.8C89,59.37,88.06,70.1,84.41,80.16c-6.36,17.53-24,31.69-42.9,24.19-4.62-1.84-9-3.95-14-4.61s-10.42.77-13.52-4.32c-4.95-8.11.41-21,4-28.78C27.14,47,43.31,31.54,61.49,20.15,68,16.06,62,5.67,55.43,9.79Z"/><g id="tutorial"><path class="cls-2" d="M97.25,113.48c.09-.11,0,0-.24.22l-.2.2Z"/><path class="cls-2" d="M95.31,115.27c-.33.32-.76.64-.49.5a5.82,5.82,0,0,0,.77-.73,3.23,3.23,0,0,1,.46-.42l.59-.57c-.38.35-.86.78-1.33,1.26C95.19,115.4,95.29,115.3,95.31,115.27Z"/><path class="cls-2" d="M58.49,118.76l.23.09Z"/><path class="cls-2" d="M35.13,114.16c.18,0,.26,0,.28-.07C35.24,114.1,35.1,114.11,35.13,114.16Z"/><path class="cls-2" d="M31.17,113l.23.07C31.32,113,31.23,113,31.17,113Z"/><path class="cls-2" d="M58.49,118.76l-.6-.24C57.82,118.63,58.19,118.67,58.49,118.76Z"/><path class="cls-2" d="M91,118.35l.29-.19-.28.17Z"/><path class="cls-2" d="M68.82,120.17l.19,0,.17-.11Z"/><path class="cls-2" d="M76.77,120.66c-.18,0-.24.19-.31.28a.68.68,0,0,1,.39-.14A.23.23,0,0,0,76.77,120.66Z"/><path class="cls-2" d="M89.19,118.77l.21-.09A2.2,2.2,0,0,1,89.19,118.77Z"/><path class="cls-2" d="M63.17,119.27a.18.18,0,0,0-.05-.12S63.14,119.23,63.17,119.27Z"/><path class="cls-2" d="M5.26,76.4s0,0,0,0S5.27,76.33,5.26,76.4Z"/><polygon class="cls-2" points="8.68 67.7 8.62 67.81 8.6 67.83 8.68 67.7"/><path class="cls-2" d="M23.82,111.48h0C24.06,111.46,23.94,111.45,23.82,111.48Z"/><path class="cls-2" d="M7.88,78c-.54.74-.57-1.3-1.19-.17C6.91,77.71,7.5,78.91,7.88,78Z"/><path class="cls-2" d="M90.8,118.45c-.1,0-.19.12-.29.16A1.43,1.43,0,0,0,90.8,118.45Z"/><path class="cls-2" d="M6.69,77.8h0l-.06.12Z"/><path class="cls-2" d="M6.44,110.38a.82.82,0,0,0,.2.22S6.59,110.48,6.44,110.38Z"/><path class="cls-2" d="M19.36,112l-.31-.1A1.08,1.08,0,0,0,19.36,112Z"/><path class="cls-2" d="M.1,115.88a1,1,0,0,0-.06.66l.06-.1A.54.54,0,0,1,.1,115.88Z"/><path class="cls-2" d="M5,115.43a1.36,1.36,0,0,0-.12.12v.22Z"/><path class="cls-2" d="M7.67,62.46a1,1,0,0,1-.25.31C7.6,62.67,7.59,63.68,7.67,62.46Z"/><path class="cls-2" d="M91,118.32a.64.64,0,0,1-.16.13l.2-.12S91,118.3,91,118.32Z"/><path class="cls-2" d="M4.27,116.32c0,.09,0,.16,0,.19S4.27,116.42,4.27,116.32Z"/><path class="cls-2" d="M6.26,31.42l0-.25A.31.31,0,0,0,6.26,31.42Z"/><path class="cls-2" d="M.59,117.41a1.48,1.48,0,0,0,.4-.59.4.4,0,0,0-.13-.13Z"/><path class="cls-2" d="M7.42,62.77Z"/><path class="cls-2" d="M7.34,70c.11-1-.21-.51-.35-.74,0-1.24.25-.56.43-1,0-.78-.22-1.39-.17-2,.06,0,.08-.15.13,0-.17-.83.19-2.43-.06-3.4a.32.32,0,0,1,.1-.12.47.47,0,0,1-.46.12c0-.46-.16-.87.07-1a.56.56,0,0,0,.12.45l-.06-.49c.34-.42.06.67.29.68a16.07,16.07,0,0,1-.08-2.81c.33-.13,0,1.72.34.76l-.21,1.12c.56-.83-.08.69.51-.08.22-1.48,0-1.67.19-3.15-.16-.34-.29.1-.45-.24-.2-2.13,1-1.62.66-3.19-.21-.42-.66-.6-.34-1.69l.39.4c.16-1.43-.55-.85-.15-2.34.15.27.06,1.13.13.92.41-1-.2-.7-.15-1.46l.41-.13c.06-1.54-.12-3.24-.08-4.94.12.1.23.4.39,0a29.77,29.77,0,0,1,.82-6.62l-.34-.81c0-.18.21-.33.27-.13.21-.8-.25,0-.39-.45s.28-.59.38-.3c-.23-1.43-.48-4.08.08-5.56l.11.3c.26-1.15-.81-1.36-.33-2.42l.06.21c.37-2.52.12-5.34,1-7.23a.43.43,0,0,1-.19-.29l-3.25-.16c.18.69-.52,2.23.28,2.4-.57,1.42-.72,1-1.19,3-.09.54.56.84.62,1.52H6.31l.48.94-.66.45.09.64c0-.25.28-.53.42-.48a2.85,2.85,0,0,1-.8,2.39l.29,2.35c-.22-.06-.26-.46-.38-.77.46,1.27-.58.2-.16,1.36.13-.15.32.1.43.13A5.48,5.48,0,0,0,5.63,39l-.36-.21c-.22,1.72-.08,3.65-.21,5.59.23-.69.89-.49.92.08l-.62.19c.35.39.27-.58.67.2-.11.72-.71.45-.88,0l.15.89c-.18,0-.26-.17-.49-.24.35.38-.7,1.49-.09,2l-.18,0c-.14,1.94,0,2.83-.06,4.41.53.06.37.67.77,1.16A20.59,20.59,0,0,0,4.46,57c.2,1,.44.31.73.77-.5,0-.54,1.44-.85.7a22.41,22.41,0,0,0,.24,4.29c.22-.22.32-.48.48-.33.06.39-.26.86-.5.79l0-.1c.61,2.42-1.8,5.41-.87,7.37l0-.11.43,2c-.14.9-.34-.56-.7.09.72,2.17-.32,3.35.14,5.12-1.59,1.27-.18,4.81-1.24,6.58L2.59,84c.32.49-.24.56-.34.9.28,0,.35-.49.52-.18.2,4-1,8.21-1.53,12.29-.18,1.49,1.78,1,.83,2.8l-.62-.58c.62,3.07-.36,6.18.15,9.19-.14-.19-.34-.21-.32-.5-.5.6-.14,2.31.24,2.35-.07.46-.35.08-.56.36-.31.61.51,1.61,0,1.91-.08.05-.14-.18-.17-.3.2.42-.15,1.9.4,1.54-.31,1.1.13,2.15-.23,3,.42.46,0,1.29.1,1.78l2.56-1.87s0,.07,0,.1l-.06.16c.06-.15,0-.07,0-.07v0a.6.6,0,0,1,.18-.18s.1-.08.15-.1.12,0,.09,0,0,0-.08,0a2.55,2.55,0,0,1-.28-.18c.26.06.26-.23.62-.11a.63.63,0,0,0-.48-.61c.29,0,.37,0,.43-.07a1.91,1.91,0,0,1,.23-.38c.21-.33.62-.59,1,0,1.5-.78,4.05-.78,6.13-.91-.13.8-2.36,0-2.32.83,2-.26,3.25-.88,5.24-.56.51.14-.32.32-.5.45,2-.2,3.89.32,5.72,0,0,.08-.21.14-.4.18.36,0,.81.18.8-.17l-.35.07c-.52-.56,1.5-.95,1.59-1.21-.69,1,1.75.41.68,1.58.24,0,.54-.18.51-.42.34.1.44.25.06.48,1.29-.08.87-.48,2-.37,0,.17-.26.21-.4.39a3,3,0,0,1,2.19-.29c-.07.09,0,.23-.26.2,1.67.11,2.93-.53,4.73,0-.63.62.59.3.61.9l1-.06-.36-.33c.86.11,1.68-.22,2.39.07l-.67.15,1.62.11-.88-.34c.91-.18,0-.73,1.13-.42-.24,0,.86.13,1.26.52h0a2.35,2.35,0,0,1,1.53,0c.14.2-.22.58-.13.72.49-.41,2,.16,2.63-.24a.38.38,0,0,0-.2.43l.41-.3c.38.17.43.24.33.45,1.18.25-.27-.73,1.09-.22-.11,0-.07.07-.31.09,1.4.37,2.78.22,4.06.62.29.56-1.16-.07-.8.43a41.94,41.94,0,0,1,5.79.53l-.33-.12c.39-.61,1.29.58,2.27.44-.24,0-.37.3-.29.24a25.68,25.68,0,0,0,4.51.48l-.27.11a27.1,27.1,0,0,0,2.72.62c.26-.11.71,0,.47-.27,2.33,1.21,4.76.31,6.87,1.19-.26,0-.64,0-.43.06.63,0,1.27.06,1.9.07-.13-.22-.24-.15-.61-.35a3.14,3.14,0,0,1,1.25-.1c-.86,0,0,.33.33.47-.05-.07.08-.13,0-.19,1,.43.2-.37,1.52,0l-.08.1a8.4,8.4,0,0,1,1.51-.08c.22.23-.53.08-.58.26a8.78,8.78,0,0,1,2.2-.12c-.32.07-.79,0-1.12.09a3.13,3.13,0,0,0,1.4.24h-.06l1.3.09-.33-.06a3.19,3.19,0,0,1,1.49-.3,7.49,7.49,0,0,0,1.72-.23c-1.22.35-.19.17-.27.38.33,0,.83.06.69.12a11.24,11.24,0,0,0,1.87-.33s.65-.09.53.07c.78-.16-.2-.07-.14-.15.59-.17,1.31-.21,2.08-.36a9,9,0,0,0,2.44-.63,31,31,0,0,0,2.93-1.3c.46-.13-.31.27-.31.27a16.42,16.42,0,0,0,1.9-.8c-.13.08,0,0,.23,0a6.91,6.91,0,0,1,1-.62c-.1.09-.23.21-.45.38L93,117.05c.18-.07-.32.27-.53.41a7.66,7.66,0,0,0,1.1-.78c.35-.28.65-.51.73-.6l-.41.29c.23-.18.14-.06,0,.07A3.17,3.17,0,0,1,93,117l.4-.31-2.58,1.56.31-.31a9.9,9.9,0,0,1-.87.56c-.22.06-.39,0,.06-.16-.69.21-.57.29-1.17.45-.07,0,0,0,0,0l-.63.31c.12-.08-.15-.06.26-.2a14.81,14.81,0,0,1-2.37.78l.1,0c-1.67.53-.13.18-1.35.69-.32,0-.64-.12-1-.19l-.14.19c-.18,0-.53.08-.47,0-.64.23.12,0-.24.22-.87.06-2.37.41-2.59.16-.3.18.83,0-.08.22-.29-.29-1,.19-1.86.06.23-.19,1-.12.18-.25-.46.32-1.54,0-2.2.07,0,.26-1.45.09-2.57.16.07,0-2.1-.27-3.13-.45l0-.05c-.23.31-1.29.12-2.08.11,0-.19.2-.25.63-.29L69,120.2a2.13,2.13,0,0,1-.9.1l.22-.23a16.35,16.35,0,0,1-3.22-.32c-.1.25.91.83-.45.83,0-.15,0-.39.31-.39a1.5,1.5,0,0,1-.64,0l.56-.14c-.55-.2-.32.14-.77,0,0-.2-.32-.2-.23-.35s.38.15.57.1a3.37,3.37,0,0,1-1.29-.53c0,.12,0,.27-.42.24-1-.15-.29-.3-.83-.51-.26.1-.85-.17-.92.14-.28,0-.31-.21-.4-.32-.52.05-2.33-.41-1.83.05l.12,0H58.8c-1.69,0-3.35-.86-5-1.06l0-.12a16,16,0,0,0-2.92-.24c-.29-.06-.64-.37-.48-.49a4.09,4.09,0,0,1-1.91-.35c.79-.08-.22-.25.8,0-1-.3-1.13-.57-2.23-.41.41-.26-.66-.56-1.13-.55l.63.38a8.61,8.61,0,0,1-1.43-.29l.33-.4c-1.89-1-3.74.3-5.1-.92-.58.25,1,.43.51.74-.9-.22-1.75-1.08-2-1.13-1.22-.48-1.28.52-2.57.13.14.21.23.7-.77.73-.91-.19-1-.92-.43-1,.23,0,.33.09.31.15.3,0,.7,0,.37-.29l-.15.17c-.43-.26-1.69-.43-1.36-.69-.71.07-.33.26.17.43-1.15-.44-1.84-.27-3-.63.18.13.33.38.14.35-1.75-.48-.83.25-2,.17-.66-.38.32-.66-.92-.57-.72-.3-.1-.53.21-.65-1.15.22-2-.51-2.67-.66l.6-.08a3.21,3.21,0,0,1-.94,0l.29.43c-.33-.11-.62-.15-.6-.31-.38.22.2.68-.54,1-.44-.25-1.42.07-1.52-.48,1.42.34-.11-.55,1.12-.49a2,2,0,0,1-.86-.11c-.05-.07,0-.1.15-.12-1.33-.64-.69.52-2.12.35.21-.28-.28-.6-.52-.56.58.06.23.53-.32.71-.9-.33-1,.07-1.5,0l.54.16c-.21.29-.66.21-1.31.25,0-.25.59-.12.37-.24-.75.48-1.56-.71-2.58-.43-.44-.25,0-.59-.39-.76-1.14.31-1.18-.54-2.37-.3.31.46.37.35-.48.71l1.94-.15-1.27.52c.58,0,1.24-.17,1.58-.07-.61.29-.54.19-.29.56-.75-.7-1.6.26-2.48-.24l.09-1c-1.35-.58-2.48.37-4.27,0l.57.22c-.25.41-1.12,0-1.75.16.06-.36-.33-.5-.62-.72.07.24-1.54.05-1.62.84A6.57,6.57,0,0,0,4,111.18a2.21,2.21,0,0,0-1.65,1.22l-.44.82c-.16.28-.34.58-.59,1,0-.33-.21-.37-.33-.46s-.21-.27.18-.92c-.52.53-.87,1.12-.64,1.23-.2.13-.28.64-.28,1.13a3.18,3.18,0,0,1-.11,1.29c.18.27.54.32.66,1-.05.09-.18,0-.18,0,.15,0,.63.94.78.23a1.55,1.55,0,0,0,.31,1.23,2.39,2.39,0,0,0,1.34.83l1.17.28.09-1.23c.08-1.21-.11-2.52.58-3.26-.07-1-.12-2.24-.09-3.16.11.07.19,0,.14.19.43-1.24-1.05-.85-.57-2.27.66-.69.29.79.55.35,1.28-.12-.07-1.75.73-2.67l.06.24c.48-.71-.37-1.84-.21-3a.26.26,0,0,0,.2,0,8.55,8.55,0,0,1-.85-3.63c.49.4.24.55.76.36,0-.52-.83.1-.91-1,.3-.32.58-1,1.13-1.12l0,1c.74-.45.06-1.27.21-1.78l.3.09c0-1.51-.79-1.58-.64-3.2l-.24.15c-.72-.93.48-.71,0-1.63l.8-.21a21.29,21.29,0,0,1-.73-3.15,9.53,9.53,0,0,1,1.08,2.65c0-.58.06-2-.31-2.29.06.23.24.54.1.76a4.07,4.07,0,0,1-.75-2.85c1.52.3.56-3,1.8-3.74-.45-2.07.46-4,.51-6.41-1.24.77,0-.7-1.22-.62,0-.56,0-.77.06-.81l.82-1.64c.38-.38.24.54.52.51.16-1.21.54-.48.91-1.26-.45.14-.6-.46-.4-1.14l-.61.94c-.55-1.73,1.09-1.41.55-3.15l.35.56c-.18-.89.18-3.23-.74-4.14.14-.15.48-.33.55.06.25-2.09-.77-4.72-.1-6.31l.28.17c-.06-.39-.51-.71-.19-1.18.12,0,.28.17.31,0a2.62,2.62,0,0,1-.26-1.57l.3.46c.48-2-.63-3.18-.73-4.9.84,0,1.19-1.54,1.37-2.33l.11,0c.22-2.37-.49-4.08-.7-6.29,1-1.32.6-4.61,1.18-6.78-.16.32-.61-.09-.67-.49.18-.5-.47-1.45.24-1.33l0,.18c.72-.35.58-1.42.63-2.24l-.92-.19c1.44-2.09-.21-5.69,1-6.81-.2-.53-.17-1.18-.37-1.71l.47.05a22.56,22.56,0,0,0,.24-3.95l.31.38c0-.61-.43-1-.81-1.37L7.17,22.2a1.31,1.31,0,0,1,.45.9l-.69.25c-.06,1.76-.7,3.51-.17,5.28a.4.4,0,0,1-.3-.38c0,.82-.53,3.18.34,2.92-.56,0-.12,1.82.08,2.78l-.4-.17a3.2,3.2,0,0,1,.71,2c-.06.26-.32.22-.21-.13-.24.87.34.71.09,1.77L6.84,37a1.6,1.6,0,0,0,.33,1.35c.13.58-.17,1.73-.51,1.84A1.26,1.26,0,0,1,7,41.37c-.13.07-.2-.13-.23-.23-.31,1.5.32,2.28-.07,3.31a.26.26,0,0,0-.22.16,17.15,17.15,0,0,1,.14-2.09c-.34,0-.43,1-.86.16a7.84,7.84,0,0,1,.53,3.11.68.68,0,0,1-.12.12l0-.1a1.32,1.32,0,0,0,0,.6A4.45,4.45,0,0,0,6,47.2c-.26.1-.17,1.11-.2,1.6.34,0,.26.61.55,0,0,.07,0-.1,0-.42a1.05,1.05,0,0,0,0-.21l0,0c0-.32,0-.73,0-1.21a1.63,1.63,0,0,1,.08,1.33c.2.26.41.55.51.71-.5.64-.79,1.91-1.07,2.08.13,1.5,0,3.51.53,4.47.06.43-.18.48-.27.63a2.8,2.8,0,0,0-.1-.67c.11.85,0,2.51.32,2.73-.2,1.06-.31-.62-.3.85L6,59a10.41,10.41,0,0,0,0,3.82,10.87,10.87,0,0,1-.13,4.06c.05-.22.07-.33.12-.37-.2,1.81-.2,3.69-.24,5.56s-.11,3.74-.3,5.52a6.12,6.12,0,0,0,.08,1.77l-.14.21,0,.34h.54l-.15-.71a8,8,0,0,1,.07-2.09c.08-.7.17-1.43.26-2.38L6,74.9a12,12,0,0,1,.45-2,1.71,1.71,0,0,1,.12-.48h0a14.88,14.88,0,0,1,.51-1.6c.51-1.2,0,.21.73-1.54.28-.65.94-1.78.81-1.55s-.37.63-.39.65l.34-.56c.05-.1.33-.52-.55.81-.19.32-.37.65-.54,1l-.18.31c.14-.28.3-.55.45-.83a8.07,8.07,0,0,0-.58,1.11A3,3,0,0,0,7,70.6a9.74,9.74,0,0,0-.37,1c-.08.12.13-.47-.17.21-.15.49.24-.44,0,.36a3.3,3.3,0,0,0-.35,1c-.05.08,0-.05,0-.29a11.08,11.08,0,0,0-.39,1.73c-.22.53-.3,1.87-.43,1.81,0,.2,0,1,0,1.51-.07-.47-.11,0-.13.59s0,1.24-.12,1.13c0,.08,0,.18.06.29H6.27c0-.83.16-2.34.14-3.42a1,1,0,0,1,0,.31,10,10,0,0,1,.26-1.31c-.21-.1-.17-1.17-.28-1.76.3-.82.24.53.48.28-.19,0-.07-1.47-.26-1.2.2-.63.12-.55.36-.87-.32-.13,0-.6-.17-1.14.25-.92.35-.22.33-1.25C7.3,69.07,7.34,70,7.34,70Zm1.1-24.34h0c0,.21,0,.39,0,.5Zm.13-2c0,.24-.06.55-.08.88-.12.07-.24,0-.23-.22C8.34,44.38,8.44,43.9,8.57,43.61ZM5.94,47.8c0-.32,0-.43.1-.47,0,.15,0,.33,0,.57l0,0A.43.43,0,0,1,5.94,47.8Z"/><path class="cls-2" d="M6.36,48.41s0,.07,0,.13a1.08,1.08,0,0,0,.08-.19l-.1-.12Z"/><path class="cls-2" d="M58.77,118.87l-.05,0a.18.18,0,0,1,.08.06Z"/><polygon class="cls-2" points="6.19 29.13 6.31 29.14 6.21 28.95 6.19 29.13"/><path class="cls-2" d="M69.79,121.42a.39.39,0,0,0,.14.08S69.87,121.45,69.79,121.42Z"/><path class="cls-2" d="M74.69,121.67l.69.07Z"/><path class="cls-2" d="M78.47,121.63a.44.44,0,0,0,.07-.08h0Z"/><path class="cls-2" d="M19.34,115.23l-.15,0C18.85,115.32,19.08,115.3,19.34,115.23Z"/><path class="cls-2" d="M37,116.07a3.86,3.86,0,0,1-.59.12C36.72,116.27,37,116.31,37,116.07Z"/><path class="cls-2" d="M4.28,116.29h0v0A0,0,0,0,1,4.28,116.29Z"/><path class="cls-2" d="M35.6,116.08a1.59,1.59,0,0,0,.81.11A2.44,2.44,0,0,0,35.6,116.08Z"/><path class="cls-2" d="M93.83,116.55l.14-.11v0Z"/><path class="cls-2" d="M94,116.42l.16-.13Z"/><path class="cls-2" d="M94.47,116l-.33.26A2.54,2.54,0,0,0,94.47,116Z"/><path class="cls-2" d="M89.5,119l0,0S89.5,119.05,89.5,119Z"/><path class="cls-2" d="M88.11,119.65c.34-.14.86-.29,1.32-.52l0,0C89.26,119.23,88.4,119.45,88.11,119.65Z"/><path class="cls-2" d="M81.86,120.53a10.38,10.38,0,0,0,1.25-.13c-.23,0-.52-.05,0-.16C81.56,120.32,83.49,120.36,81.86,120.53Z"/><path class="cls-2" d="M78,120.72c.67,0,0-.1,0-.15C77.58,120.65,77.48,120.68,78,120.72Z"/><path class="cls-2" d="M50.17,116.81l.13-.31C49.78,116.44,50.27,116.63,50.17,116.81Z"/><polygon class="cls-2" points="44.53 117.59 44.99 117.89 45.29 117.61 44.53 117.59"/><polygon class="cls-2" points="41.81 114.51 42.04 114.5 41.16 114.48 41.81 114.51"/><path class="cls-2" d="M5.37,116.69l-.62.11C4.84,117.16,5.51,117.28,5.37,116.69Z"/><path class="cls-2" d="M6,96.17A.84.84,0,0,0,6.25,95C6.18,95.48,5.91,95.93,6,96.17Z"/><polygon class="cls-2" points="10.21 34.78 10.37 35.2 10.25 34.42 10.21 34.78"/><path class="cls-2" d="M10.56,56.22c0,.22,0,.09-.1-.52l-.09-.43Z"/><path class="cls-2" d="M9.85,52.1c-.13-.71-.31-1.54-.27-1.07.16.71.18.88.34,1.65.1.61.18,1.06.15,1,0,.23.17.9.25,1.28-.15-.83-.32-1.79-.5-2.86C9.79,51.83,9.83,52.05,9.85,52.1Z"/><path class="cls-2" d="M22.38,1.93l-.39,0Z"/><path class="cls-2" d="M59.89,2.62c-.29,0-.41,0-.43.09C59.73,2.69,60,2.67,59.89,2.62Z"/><path class="cls-2" d="M66.25,3.53l-.37-.06A.59.59,0,0,0,66.25,3.53Z"/><path class="cls-2" d="M22.38,1.93l1,.1C23.45,1.9,22.87,1.94,22.38,1.93Z"/><path class="cls-2" d="M8.54,43.83q0,.31.09.54c0-.17-.05-.33-.07-.5Z"/><path class="cls-2" d="M10.4,8.3l-.05.3a1.43,1.43,0,0,0,.09.27Z"/><path class="cls-2" d="M8.94,20.87c0-.29-.17-.4-.25-.51a1.63,1.63,0,0,1,.1.63S8.87,21,8.94,20.87Z"/><path class="cls-2" d="M8.63,41l0,.36Z"/><path class="cls-2" d="M15,2.54a.22.22,0,0,0,.12.09S15.09,2.57,15,2.54Z"/><path class="cls-2" d="M100.59,98.16h0C100.58,98.23,100.59,98.26,100.59,98.16Z"/><polygon class="cls-2" points="100.09 112.89 100.09 112.69 100.09 112.65 100.09 112.89"/><path class="cls-2" d="M77.89,5l-.06,0C77.52,5,77.7,5,77.89,5Z"/><path class="cls-2" d="M89.43,94.39c.61-1.17.47,2,1.18.25C90.38,94.79,89.89,92.9,89.43,94.39Z"/><path class="cls-2" d="M8.52,43.51,8.46,43C8.49,43.22,8.51,43.38,8.52,43.51Z"/><path class="cls-2" d="M90.61,94.64h0l.07-.18Z"/><path class="cls-2" d="M94.45,14a.8.8,0,0,0,.24-.27C94.63,13.69,94.57,13.75,94.45,14Z"/><path class="cls-2" d="M84.81,4.57l.49.11A3,3,0,0,0,84.81,4.57Z"/><path class="cls-2" d="M94.75,24.42a1.52,1.52,0,0,0-.07.73.41.41,0,0,0,.07-.11A.76.76,0,0,1,94.75,24.42Z"/><path class="cls-2" d="M94.24,35.29l.12-.2v-.35Z"/><path class="cls-2" d="M100.69,65a1.56,1.56,0,0,1-.22.51C100.65,65.37,100.73,67,100.69,65Z"/><path class="cls-2" d="M8.59,43.82a1,1,0,0,1-.07-.31l0,.36S8.59,43.9,8.59,43.82Z"/><path class="cls-2" d="M98.92,25l-.14,1.73A16.38,16.38,0,0,0,98.92,25Z"/><path class="cls-2" d="M91.51,35.61v-.4A.76.76,0,0,0,91.51,35.61Z"/><path class="cls-2" d="M98.66,31.91a3.18,3.18,0,0,0-.41.95.62.62,0,0,0,.13.21Z"/><path class="cls-2" d="M100.47,65.55h0Z"/><path class="cls-2" d="M101.07,76.94c0-1.65-.26-.77-.41-1.11-.09-2,.19-.92.34-1.59-.08-1.23-.35-2.17-.35-3.08,0-.07.07-.25.13,0-.25-1.29,0-3.86-.39-5.36a.71.71,0,0,1,.08-.2c-.16.25-.32.29-.44.24,0-.73-.25-1.36,0-1.65a1.42,1.42,0,0,0,.17.7l-.11-.77c.3-.71.13,1.06.36,1.05-.12-1.51-.43-3.26-.38-4.42.33-.26.18,2.7.43,1.15l-.09,1.79c.47-1.38,0,1.09.49-.18.07-2.36-.2-2.64-.15-5-.19-.52-.27.18-.47-.34-.43-3.33.82-2.66.29-5.11a3.39,3.39,0,0,1-.53-2.61l.43.58c0-2.29-.65-1.28-.44-3.68.19.42.21,1.79.25,1.44.29-1.56-.29-1.08-.33-2.27l.38-.27c-.13-2.43-.53-5.09-.72-7.78.13.15.28.6.38,0a79.07,79.07,0,0,1-.14-10.54l-.47-1.22c0-.29.16-.55.25-.24.09-1.29-.26-.05-.45-.65s.19-1,.33-.53c-.46-2.23-1.13-6.35-.82-8.76l.16.46c.06-1.86-1-2-.74-3.76l.1.32c0-.67,0-1.35-.08-2L97.45.12l-2,11.2c-.6,3.37-1,6.85-1.92,9.3.57.67-.89,3.9,0,4.28-.79,2.21-.89,1.54-1.63,4.71-.16.85.44,1.35.41,2.42l-.52,0,.37,1.5-.72.69,0,1c.08-.4.33-.82.48-.74.06,1.58-.8,3.75-1.08,3.76,0,1.24,0,2.48.06,3.73-.2-.11-.22-.73-.3-1.23.34,2-.61.3-.29,2.15.15-.23.31.17.42.22a12.65,12.65,0,0,0-.62,4.44l-.35-.32c-.36,2.73-.31,5.79-.54,8.87.26-1.09.91-.8.91.11l-.62.32c.33.61.29-.93.66.3-.13,1.14-.72.73-.88.06l.12,1.41c-.18.07-.25-.26-.48-.36.34.59-.75,2.38-.16,3.24l-.18.07c-.18,3.09,0,4.49-.12,7,.53.07.37,1,.78,1.81a43.91,43.91,0,0,0-.74,6.1c.24,1.56.45.46.76,1.17-.5.11-.5,2.33-.83,1.17a52.12,52.12,0,0,0,.43,6.79c.2-.37.29-.78.46-.57.08.62-.2,1.4-.44,1.31l-.06-.16c.76,3.77-1.4,8.77-.27,11.77l-.06-.17.64,3.11c0,1.44-.4-.85-.69.23.11.38.19.74.26,1.08l4.62.13c-.17-2.75.71-4.49.43-7,1.7-2,.56-7.6,1.75-10.4l-.37.13c-.28-.77.28-.88.41-1.43-.29.06-.39.79-.54.31.09-6.35,1.52-13,2.27-19.48.25-2.36-1.73-1.46-.7-4.4l.6.89c-.48-4.84.62-9.79.2-14.52.14.29.33.31.3.76.53-1,.22-3.66-.16-3.7.08-.72.35-.15.57-.59.32-1-.48-2.52,0-3,.08-.08.14.29.17.47-.2-.65.19-3-.37-2.42.33-1.75-.09-3.38.29-4.77-.56-.94.41-3-.42-3.33.86.17.82-3.05.46-4.18.24.38.3-1,.64-.51,0-1.27-.08-2.44-.53-2.24,1.1-2.3-.66-4.74.68-6q-.26-2.84-.42-5.49c-.06-.89-.07-1.74-.18-2.75a7.19,7.19,0,0,0-1-3.15c.19-.07.49.2.73.67a5.75,5.75,0,0,1,.48,1.65c.16,1.15.12,2.06.56,2a11.68,11.68,0,0,0-.49-2.67A6.15,6.15,0,0,0,97.3,4.36a6.17,6.17,0,0,0-2.36-1.43,18,18,0,0,0-2.51-.62c-.88-.22.54-.29.92-.34-1-.1-1.81-.12-2.57-.17l-2.3-.19a27.56,27.56,0,0,0-4.43-.14c0-.07.33-.13.63-.17-.57,0-1.3-.21-1.27.15L84,1.39c.86.59-2.32.89-2.45,1.15,1-.93-2.8-.46-1.18-1.6-.38,0-.86.17-.79.41-.55-.11-.71-.26-.13-.48-2,.05-1.35.46-3.18.34,0-.17.39-.21.6-.39a7.13,7.13,0,0,1-3.44.29c.1-.09-.07-.23.39-.2-2.67-.09-4.58.58-7.48.14.89-.64-1-.27-1.11-.86L63.62.3l.62.31c-1.37-.07-2.61.31-3.78.08l1-.2H58.91l1.45.27c-1.4.25.12.73-1.7.5a12.57,12.57,0,0,1-2.08-.4h0a5.54,5.54,0,0,1-2.4.15c-.26-.18.23-.6.06-.73-.69.45-3.22.07-4.09.53.29-.1.31-.39.22-.45l-.57.36c-.64-.13-.73-.18-.62-.41-1.91-.09.6.69-1.67.37.18,0,.09-.08.47-.13-2.29-.19-4.42.17-6.51,0C40.86.05,43.31.43,42.61,0c-3,.1-6.27.62-9.2.54l.55,0c-.4.68-2.18-.31-3.66,0,.36-.06.47-.37.37-.3a62.32,62.32,0,0,0-7.12.55l.37-.17c-1.18-.11-3.11,0-4.39,0-.37.17-1.1.17-.65.37A12.43,12.43,0,0,0,16,.93a8,8,0,0,0-2.87.67,5.38,5.38,0,0,0-2.24,1.89A14.31,14.31,0,0,0,9.58,6c.1-.42.2-1.05.08-.71a18.47,18.47,0,0,0-.49,3c.24-.2.17-.37.44-1a8.55,8.55,0,0,1-.07,2c.05-1.34-.33,0-.52.52.08-.08.12.12.19.08-.57,1.5.34.31-.15,2.39L9,12.17c0,.8,0,1.54-.11,2.38-.25.33,0-.85-.19-.92a19.47,19.47,0,0,1-.14,3.46c0-.51.06-1.24.05-1.76a8.06,8.06,0,0,0-.42,2.18v-.09l-.24,2,.1-.51c.39,1.53-.09,3.07.14,5.11-.22-2-.16-.34-.35-.5-.07.52-.15,1.31-.2,1.08.13,1-.16,1.6.07,3-.06.06,0,1-.15.81,0,1.25.09-.3.17-.19.16,1.92-.15,4.52.21,7.28.23,2.37.38,2.8.59,5,0,.75-.17-.6-.17-.6a27.89,27.89,0,0,0,.29,3.23c-.05-.23-.05,0-.05.36.1.9.16.59.26,1.79-.05-.21-.13-.46-.21-.9.16,1.06.32,2.11.49,3.21,0,.29-.14-.66-.21-1,.17,1.23.5,3.19.58,3.57l-.09-.8c.06.45,0,.24-.07-.09a8.22,8.22,0,0,1-.19-1.59l.12.78c0-.82-.41-3.14-.58-4.73l.18.65L8.6,42.72c0-.35.06-.59.14.19,0-1.14-.14-1-.14-2,0-.11,0-.06,0,0l-.11-1.1c0,.21.09-.19.11.49,0-2-.3-3.21-.2-4l0,.16c-.18-2.76-.16-.26-.39-2.33l.33-1.41-.16-.27c0-.28,0-.85.07-.75-.11-1.06-.07.19-.17-.43.13-1.38-.07-3.79.23-4.1-.13-.5-.13,1.31-.2-.16.32-.41,0-1.69.19-3,.16.4,0,1.58.22.33-.28-.77.2-2.44.22-3.49-.27-.07.06-2.3.13-4.08.08.12.5-3.31.85-4.93l.05.06c-.28-.36,0-2,.14-3.27.19.07.23.31.22,1l.17-1.15a3.9,3.9,0,0,1,0-1.39l.19.33A19.18,19.18,0,0,1,11,5.31,3.44,3.44,0,0,1,12.4,3.36c0-.13-.43,0-.64,0s-.34-.24.53-1c.15.08.32.23-.08.58A2.06,2.06,0,0,1,13,2.39a4.6,4.6,0,0,0-.58.59c.76-.34.27-.41.92-.67.06.19.54,0,.49.16s-.59.1-.78.29A3.31,3.31,0,0,1,15,2.54c-.08-.1,0-.28.53-.36,1.51-.11.53.22,1.43.29.37-.16,1.36,0,1.38-.35a1.12,1.12,0,0,1,.72.22c.8-.16,3.75-.12,2.84-.46l-.21,0h.13c2.63-.4,5.48.08,8.09-.09v.12a45.17,45.17,0,0,0,4.59-.37c.46,0,1.09.23.89.38a9.6,9.6,0,0,1,3.06,0c-1.2.22.41.2-1.23.16A9.27,9.27,0,0,0,40.8,2c-.57.33,1.17.45,1.9.36l-1.08-.26a21.44,21.44,0,0,1,2.29,0l-.4.45c3.15.65,5.73-.84,8.12.22.85-.32-1.72-.3-1-.67a24.55,24.55,0,0,1,3.42.88c2,.37,1.88-.64,4-.37-.26-.19-.49-.68,1.08-.79,1.46.13,1.76.84.83,1-.35,0-.51-.07-.5-.13-.47,0-1.09.09-.52.31l.2-.17c.71.22,2.72.3,2.23.58,1.11-.12.49-.28-.32-.41,1.85.35,2.91.15,4.83.45-.3-.12-.57-.36-.27-.34,2.81.4,1.26-.29,3.18-.26,1.07.36-.43.67,1.51.55,1.16.28.22.53-.26.65,1.77-.25,3.26.47,4.25.63l-.93.08a7.74,7.74,0,0,1,1.46,0l-.5-.44c.54.11,1,.15,1,.31.57-.21-.39-.68.75-1,.7.26,2.21-.05,2.42.51-2.25-.37.21.54-1.71.47a4.65,4.65,0,0,1,1.36.13c.08.06-.08.1-.23.12,2.13.66,1-.52,3.28-.32-.31.28.48.61.85.58-.9-.08-.39-.54.46-.7,1.42.37,1.58,0,2.33.06L84,4.39c.32-.28,1-.18,2.05-.19.06.25-.93.09-.58.22,1.17-.45,2.47.8,4.06.59.7.28,0,.59.63.79A3,3,0,0,1,91.87,6a3.51,3.51,0,0,0,1.4.4c-.21-.5-.31-.49.69-.51a8.37,8.37,0,0,0-2.45-.3,15.11,15.11,0,0,1,1.79-.29c-.75-.22-1.73,0-2.26-.18.93-.25.82-.15.44-.54A3.11,3.11,0,0,0,93.21,5a1.83,1.83,0,0,1,1.56.64l-.65.84a4.51,4.51,0,0,0,.34.57,4,4,0,0,1,.41.79,6.78,6.78,0,0,1,.21,3.25l.22-.9c.42.39,0,1.74.14,2.66-.36-.1-.51.47-.75.85.27,0-.1,2.07.61,2.35l-.53,1.24c-.3,2.27.94,2.64.73,4.82-.38-.67-.68.31-.91-1.16,0,.73-.13,1.38.13,1.4-.25.42.41,2.05,0,2.71.15.31.53.43.47,1.25-.08.09-.19,0-.19,0,.19,0,.2,1.3.65.6-1.28,2.2-.2,6.3-1.32,8.21,0,1.6.07,3.53,0,5-.11-.1-.19,0-.14-.29-.46,2,1,1.29.52,3.54-.69,1.13-.27-1.22-.55-.51-1.28.24,0,2.75-.81,4.24l-.05-.38c-.5,1.15.32,2.88.11,4.79,0,0-.11-.1-.19,0a19.63,19.63,0,0,1,.7,5.68c-.47-.6-.21-.85-.75-.53,0,.83.84-.19.88,1.46-.31.52-.63,1.69-1.19,1.81L93,58.3c-.75.75-.1,2-.28,2.81L92.4,61c-.06,2.38.71,2.47.48,5l.26-.24c.67,1.45-.52,1.14,0,2.57l-.82.36a47.8,47.8,0,0,1,.56,4.94,19.72,19.72,0,0,1-.94-4.15c-.07.91-.16,3.11.19,3.61A2.49,2.49,0,0,1,92,71.88a8.93,8.93,0,0,1,.58,4.48c-1.5-.44-.75,4.71-2,5.93.31,3.26-.76,6.35-1,10.1,1.29-1.23-.06,1.09,1.17,1,0,.88,0,1.21-.13,1.28l-1,2.57c-.41.6-.19-.85-.47-.79-.26,1.89-.59.75-1,2,.46-.22.56.72.3,1.79l.69-1.48a3.65,3.65,0,0,1-.61,2.86l5.08.14a3.34,3.34,0,0,0,0-2.09l.4.83c-.26-1.37-.17-5.07-1.14-6.4.13-.25.45-.58.55,0,.06-3.29-1.13-7.33-.55-9.89l.29.25c-.08-.62-.54-1.07-.25-1.84.12,0,.29.25.31,0a6,6,0,0,1-.33-2.45l.32.7c.39-3.2-.72-4.94-.87-7.65.84,0,1.17-2.49,1.34-3.75l.12,0c.22-3.73-.48-6.37-.61-9.86,1-2.1.78-7.26,1.52-10.67-.18.52-.61-.13-.64-.75.22-.8-.37-2.29.34-2.1l0,.29c.74-.55.7-2.23.83-3.52l-.91-.3c1.61-3.27.38-8.95,1.76-10.67-.13-.84,0-1.86-.14-2.69l.46.1a55.77,55.77,0,0,0,.81-6.18l.26.62c.22-1.57-1-2.17-.87-3.63l.73-.34c.33-2.66,1.28-5.25,1.17-8l-3.39-.15.08.28a.43.43,0,0,1-.28-.26l3.78.16a.92.92,0,0,1,0,.3l0-.29-3.9-.17c.07,1.46,0,4.75.81,4.25-.55.07.19,2.86.54,4.34l-.42-.21a6.92,6.92,0,0,1,1,3c0,.42-.28.39-.22-.17-.1,1.4.45,1.06.36,2.76l-.29-.61a3.64,3.64,0,0,0,.53,2.08c.22.9.1,2.73-.22,3a2.66,2.66,0,0,1,.5,1.81c-.12.12-.22-.19-.27-.34-.08,2.42.65,3.55.41,5.22-.11,0-.16.15-.19.29-.12-1.91-.2-3.45-.17-3.3-.33,0-.28,1.56-.83.36a17.55,17.55,0,0,1,1,4.81,1,1,0,0,1-.1.21l0-.16a3.54,3.54,0,0,0,.11,1c0,.48,0,.79,0,1.25-.25.19,0,1.77,0,2.54.33-.08.33.93.55,0,0,.13,0-.14-.09-.65a2.19,2.19,0,0,0-.06-.33l0,.05c0-.5-.09-1.16-.14-1.9A3.9,3.9,0,0,1,97.85,43c.24.38.48.81.6,1-.41,1.07-.54,3.11-.79,3.4.32,2.34.43,5.52,1.06,7a1.43,1.43,0,0,1-.19,1,9,9,0,0,0-.18-1c.21,1.33.25,4,.63,4.25-.1,1.69-.38-.93-.22,1.38l-.12-.31c-.31,4.56,1.16,7.37.67,12.44a1.59,1.59,0,0,1,.08-.6c0,2.88.12,5.84.24,8.79s.18,5.9.1,8.74a17.39,17.39,0,0,0,.2,2.78l-.12.35.18,1.68c.1,2.39-.21,4.14,0,7.16l.06-.39c0,1.09,0,3.44,0,3.26a4.43,4.43,0,0,1,0,.78l0,0,.06,2.66c0,2.07-.09-.32,0,2.7,0,1.06,0,2.37,0,2.77v-.16c0,.19,0,1,.06-1.54l0-1.76,0-.56,0,1.47c0-.83.06-1.37.06-2,0-.14,0-.39.05-.74v-1.72c0-.21,0,.77.09-.38,0-.81-.09.77-.08-.57a10.85,10.85,0,0,0,.07-1.58c0-.14,0,.07,0,.46,0-.87,0-2.32,0-2.77a26.8,26.8,0,0,1,.17-2.88c0-.28-.08-1.55-.08-2.35.17,1.47.06-3,.29-2.63-.19-1.09,0-3.94-.14-5.87a1.8,1.8,0,0,1,0,.49c0-1.09.11-1.41.17-2.11a14.05,14.05,0,0,1-.41-2.74c.24-1.33.28.81.5.39-.19.07-.18-2.31-.35-1.86a3.92,3.92,0,0,1,.29-1.41c-.33-.17,0-.95-.26-1.79.16-1.48.32-.38.22-2C101,75.51,101.07,76.94,101.07,76.94Zm-1.62-38.5h0c0,.33,0,.61.05.79C99.5,39.06,99.48,38.84,99.45,38.44Zm-.16-3.24c0,.4,0,.89.06,1.4-.12.12-.25,0-.26-.32C99.18,36.46,99.21,35.69,99.29,35.2Zm-2,7c-.08-.51,0-.68,0-.75,0,.24.06.52.1.89l0,.06A.51.51,0,0,1,97.26,42.16Z"/><path class="cls-2" d="M97.76,43.06c0,.07,0,.11,0,.21,0-.11,0-.21,0-.31l-.11-.18Z"/><path class="cls-2" d="M21.92,1.88H22l-.15,0Z"/><polygon class="cls-2" points="91.71 31.99 91.83 32 91.77 31.7 91.71 31.99"/><path class="cls-2" d="M9,9.83a.52.52,0,0,0-.09.23A1.48,1.48,0,0,0,9,9.83Z"/><path class="cls-2" d="M8.16,17.51,8,18.59C8.09,18.13,8.13,17.78,8.16,17.51Z"/><path class="cls-2" d="M7.74,23.43c0,.08,0,.1.08.12h0Z"/><path class="cls-2" d="M84.68,1.3a.88.88,0,0,0,.23,0C85.45,1.25,85.09,1.26,84.68,1.3Z"/><path class="cls-2" d="M56.59.87A8.62,8.62,0,0,1,57.5.69C57,.65,56.61.63,56.59.87Z"/><path class="cls-2" d="M98.94,24.84h0V25Z"/><path class="cls-2" d="M58.8.74A4.17,4.17,0,0,0,57.5.69,6.24,6.24,0,0,0,58.8.74Z"/><path class="cls-2" d="M9.25,49.07l.05.28a.1.1,0,0,0,0,0Z"/><path class="cls-2" d="M9.31,49.39l0,.31C9.34,49.56,9.32,49.43,9.31,49.39Z"/><path class="cls-2" d="M9.47,50.36l-.11-.66C9.4,49.93,9.44,50.21,9.47,50.36Z"/><path class="cls-2" d="M8.3,41.28l0-.08S8.28,41.27,8.3,41.28Z"/><path class="cls-2" d="M8.09,38.91c0,.56,0,1.42.14,2.21l0,.08C8.17,40.83,8.2,39.44,8.09,38.91Z"/><path class="cls-2" d="M8.38,29l-.06,2c.06-.35.14-.81.15.1C8.67,28.54,8.33,31.56,8.38,29Z"/><path class="cls-2" d="M8.71,22.79c0,1.07.1,0,.14.05C8.83,22.16,8.82,22,8.71,22.79Z"/><path class="cls-2" d="M35.86,2l-.1.33C36.58,2.31,35.77,2.22,35.86,2Z"/><polygon class="cls-2" points="44.42 0.28 43.62 0.06 43.23 0.38 44.42 0.28"/><polygon class="cls-2" points="49.42 2.95 49.06 2.99 50.44 2.9 49.42 2.95"/><path class="cls-2" d="M93.86,33.33l.62-.22C94.4,32.55,93.72,32.4,93.86,33.33Z"/><path class="cls-2" d="M92.55,65.69a1.87,1.87,0,0,0-.33,1.81A13,13,0,0,0,92.55,65.69Z"/><polygon class="cls-2" points="95.11 41 95.24 41.66 95.19 40.43 95.11 41"/><path class="cls-2" d="M26.77,44.89s0,0,0,0l0,0Z"/><path class="cls-2" d="M26.64,44.52c0-.06-.1-.13-.12-.07s.06.07.13.12,0,.1,0,.09,0,.09.06.11a.81.81,0,0,0-.1-.25S26.64,44.51,26.64,44.52Z"/><path class="cls-2" d="M28.59,39.76h0Z"/><path class="cls-2" d="M31.14,38.75a.28.28,0,0,0,0,.12A.42.42,0,0,0,31.14,38.75Z"/><path class="cls-2" d="M31.29,39.29v0S31.27,39.32,31.29,39.29Z"/><path class="cls-2" d="M28.59,39.76l.15,0C28.66,39.7,28.64,39.75,28.59,39.76Z"/><path class="cls-2" d="M26.25,43.78a.1.1,0,0,0,0,0l0,0Z"/><path class="cls-2" d="M27.82,40.93l0,0,.09.08Z"/><path class="cls-2" d="M27.27,41.84s-.16-.09-.24-.13.1.07.1.09Z"/><path class="cls-2" d="M26.55,43.49l0,0Z"/><path class="cls-2" d="M28.38,40.42l.09.06Z"/><path class="cls-2" d="M26.13,41.57h0Z"/><polygon class="cls-2" points="26.98 40.38 26.98 40.4 26.98 40.4 26.98 40.38"/><path class="cls-2" d="M31.24,39.86h0C31.2,39.9,31.21,39.89,31.24,39.86Z"/><path class="cls-2" d="M30.42,46.06c.49.15.5.45,1.06.57A4.54,4.54,0,0,0,30.42,46.06Z"/><path class="cls-2" d="M26.25,43.75l0,0S26.24,43.74,26.25,43.75Z"/><path class="cls-2" d="M31.48,46.63Z"/><path class="cls-2" d="M31.7,40.16l.23,0Z"/><path class="cls-2" d="M32.26,39.11l-.06.08Z"/><path class="cls-2" d="M32.45,40.88s-.12,0,0,.06h.06C32.4,40.92,32.36,40.91,32.45,40.88Z"/><path class="cls-2" d="M32.41,41.77h.11l0,0Z"/><path class="cls-2" d="M25.05,44.7l.23,0C25.1,44.67,25.07,44.51,25.05,44.7Z"/><path class="cls-2" d="M26.29,43.78s0,0,0,0v0Z"/><path class="cls-2" d="M36.64,40.82l-.06.2A.25.25,0,0,0,36.64,40.82Z"/><path class="cls-2" d="M27.55,54.36l-.05.09S27.53,54.44,27.55,54.36Z"/><path class="cls-2" d="M36.67,41.6a1.15,1.15,0,0,0-.37.1l.14,0Z"/><path class="cls-2" d="M25.29,44.66h0Z"/><path class="cls-2" d="M25.06,43.5c-.07.16.23.1.37.15,0,.2-.22.07-.39.12,0,.13.27.24.24.33s-.07,0-.13,0c.22.14-.07.38.22.54l-.08,0a2.33,2.33,0,0,1,.45,0c0,.07.2.13,0,.15,0,0-.08,0-.15-.07l.09.08c-.32.06-.1-.1-.33-.11.08.15.34.32.24.44-.33,0-.08-.27-.39-.12l.15-.17c-.51.13.05-.11-.5,0-.14.24.12.27,0,.51.18.05.28,0,.46,0,.32.32-.9.31-.46.54.24,0,.7,0,.45.23l-.42,0c-.06.24.6.08.31.35-.17,0-.14-.17-.19-.13-.35.2.24.09.24.21l-.39.07c.06.25.34.48.45.74a.67.67,0,0,0-.39.06.59.59,0,0,1,.06.55,1.66,1.66,0,0,1-.12.31c0,.11-.08.32-.13.48a3.2,3.2,0,0,0,.41.07s-.15.17-.23.14c-.12.29.24-.09.4,0s-.2.25-.32.23c.38.28.89.53.58,1.26l-.12,0c-.07.47.83-.46.58.13l-.07,0a2.74,2.74,0,0,0,.29.89,2.17,2.17,0,0,1,.1,1.27c.21-.39.23-.17.27,0s.11.35.34-.31a8.26,8.26,0,0,0-.05,2.17c0,.21.27-.58.4-.8a.29.29,0,0,1,0-.08l-.15.82.29-.85-.08.91.14-.21a1.11,1.11,0,0,1,0-.55c.18-.31.28.49.27.8.16-.25.33-.54.48-.79a2,2,0,0,1-.17.59c.28-.79,0,.64.27-.08a4.53,4.53,0,0,1,0-.52c.1.32.37.17.55-.09l0,.44c.37-.1.75-.61,1.13-.81a1.25,1.25,0,0,1-.23-.95l.2.59c0-.42-.17-.17-.16-.71.14,0,.29.64.26.88l.11-.31a3.19,3.19,0,0,1,.11.54c-.05-.42.54.44.41-.32l.08.17c.41-.33.49-.67.78-1-.27-.45-.09-.45-.26-.88.29,0,.81.12,1-.22,0-.37-.29-.37-.45-.67.39.3.54.07.72.4.14-.26.18-.34.08-.87a1.28,1.28,0,0,1-.4-.23c0-.1.26,0,.44.16l0,0c-.17-.39.26-.35.67-.34s.78,0,.42-.45l0,0-.28-.57c.16-.09.27.27.6.34-.52-.74.41-.45.06-1,.72.25.81,0,.83-.19s0-.52.46-.48l-.34-.13c-.28-.21.23,0,.33,0-.26-.1-.33-.05-.49-.17a1.06,1.06,0,0,1,.52-1,5.94,5.94,0,0,0,1-.86c.16-.25-1.74-.61-.84-.72l.61.24c-.64-.69.24-1.09-.35-1.71.15,0,.34.08.33.13.48-.05.06-.41-.32-.45,0-.08.34,0,.54,0s-.57-.34-.11-.35a.27.27,0,0,1,.19.07c-.22-.1.08-.34-.46-.31.27-.18-.24-.38.08-.52-.6-.12.28-.33-.56-.38.87,0,.69-.34.28-.45.26,0,.26-.11.62-.07,0-.15-.2-.27-.63-.23,1-.32-.86-.45.41-.7a2.7,2.7,0,0,1-.38-.33l-.34-.35a5.34,5.34,0,0,1-.52-.62c.76-.26.19.49,1,.24-.46-.44-1.13-.4-1.09-.89.07-.17.33-.11.47-.13-.44-.27-.21-1-.71-1a.34.34,0,0,1,.21-.08c-.06,0,0-.26-.28,0h.12a2.89,2.89,0,0,1-.93.63,5,5,0,0,0-.42.28c1-.81-.13-.29,1.08-1.31a1.19,1.19,0,0,0-.48.37c0-.08,0-.2.33-.41-.46.1-.61.43-.85.38a4.06,4.06,0,0,1,.36-.36c-.36.26-.67.53-.79.38.07-.09.12-.21.18-.2-.43,0-1,.68-1.23.42.36-.67,0-.22.12-.8l-.29.17v.29c-.19,0-.43.4-.54.24a2,2,0,0,1,.18-.26l-.37.17c.06.06.11.13.16.19-.2.33-.08.74-.25.62,0-.07-.14,0-.22-.31h0c-.08.2-.14.41-.25.29s0-.64-.06-.75c0,.46-.4.3-.39.8a2.41,2.41,0,0,0-.08-.46l0,.39a.48.48,0,0,1-.19-.35c-.26,0,.29.61-.07.45,0,0,0-.09,0-.16-.31,0-.33.41-.59.37-.3-.41.11-.21-.16-.56-.25.28-.27.89-.56,1h.08c.35.57-.37-.13-.3.22a1,1,0,0,0-.15-.25c-.24,0-.21.43-.3.78l-.08-.14c-.18,0-.28.17-.4.24.08.13,0,.17.21.28-.87-.21-.13.85-.81.78,0,0,0-.16-.06-.13l-.05.33c.19.09.13,0,.3.07a.28.28,0,0,1,.09.27c-.05-.18-.28-.17-.4-.17,0,0,.11.08.16.1-.37,0,.34.23,0,.29l-.09-.06c0,.1.1.22,0,.28-.21-.07-.06-.12-.22-.21,0,.12.27.38,0,.39,0-.07,0-.13,0-.2-.27,0-.22,0-.28.11h0l-.15.16.07,0c.44.33,0,.33.25.61-.22-.26-.15-.08-.34-.15s-.14.1-.19.06c.14.14-.12.14.08.33-.06,0,0,.11-.15.05,0,.14.1,0,.17,0,.16.22-.25.43,0,.73.1.24.23.28.28.49s-.12-.05-.12-.05a.32.32,0,0,0,0,.3s0,0-.07,0,.12,0,.1.16a.31.31,0,0,1-.12-.07c.05.1.12.19.16.29s-.06,0-.1-.08a.79.79,0,0,0,.19.31v-.08s0,0-.05,0,0-.15,0-.16a.36.36,0,0,1,0,.07c.1-.09-.06-.28-.1-.43l.12,0-.12-.14s.1-.06.13,0c.05-.11-.06-.09,0-.18s0,0,0,0a.42.42,0,0,1,0-.1s.11,0,.08,0c.12-.18-.09-.29,0-.36v0c0-.25-.12,0-.28-.24l.37-.09-.15,0s0-.07.1,0-.07,0-.16-.07c.18-.09,0-.36.29-.32-.13-.08-.13.09-.2-.06.32,0,0-.17.16-.24.16.08,0,.15.22.09-.26-.14.16-.17.14-.27-.24-.09,0-.22,0-.4.08.05.3-.19.48-.25l0,0c-.26-.17-.13-.28-.13-.4a.66.66,0,0,1,.27.25A.35.35,0,0,1,27.8,41c-.07-.07-.1-.12-.09-.19l.2.15c.07-.1-.08-.37.17-.4-.2-.16-.65-.29-.68-.56.12.07.31.21.33.29s-.06-.12,0-.11l.14.2c.13,0-.13-.15-.07-.19.15.12.14,0,.26.16s-.11,0-.06.05a.49.49,0,0,1,.37.07c-.09-.07-.21-.17-.19-.23s.22.13.36.15c-.09-.11.09-.07-.15-.28,0,0,.15.07.22.12-.06-.15.2-.23-.1-.43h0c0-.4.5-.16.58-.4l.07.09c0-.17.2-.21.13-.49,0,0,.21.14.28.28,0-.13,0-.28.2-.15,0,.24.14.16,0,.19.17,0,.3.22.25-.15.12.32.28.35.29.24l-.2-.19c0-.07.11-.06.17-.06l.18.42c.21.21.23,0,.21-.22s0-.39.13.07c0-.33-.11-.2-.16-.58.1,0,.26.7.26.7.06.25,0-.73.15-.57a1.78,1.78,0,0,1,.13-.83c.12,0,0,.73-.05.88s0,0,0-.09a.75.75,0,0,0-.06.34l0-.18c0,.17.09.14,0,.44a.68.68,0,0,0,.06-.39c0,.26.12,0,.14.17a2.87,2.87,0,0,1,.1-.31c.05.22.19-.35.35-.44-.07.29-.33.67-.12.44a3.51,3.51,0,0,1-.34.64c.24-.35-.05.24-.1.3l-.1.15c.06-.09.07-.09.07-.09l.24-.36a.7.7,0,0,1-.13.22c.19-.23.41-.6.7-.91-.11.17.26-.16-.12.3.05-.19-.4.48-.5.53.05,0,.06,0,0,0l-.11.12c-.35.44.47-.51.53-.47a5.18,5.18,0,0,0-.42.44l.21-.21c.12-.12.27-.25.39-.35l.06-.06c-.15.21.24-.14.25-.1l.06-.1a2.39,2.39,0,0,1,.28-.2s.07,0,.12,0c-.23.18-.17.07-.26.17.52-.32-.5.53-.14.34-.2.16-.56.37-.69.47.4-.18-.41.28-.07.13a3.05,3.05,0,0,1,.72-.32l-.32,0a6.62,6.62,0,0,1,.62-.24s-.28,0-.22,0a2.13,2.13,0,0,0,.57-.31c-.59.41.4,0,0,.28l-1,.45c-.46.24.55,0,.31.17l.18-.09c.42-.08.07.08.25.09-.36.06-.49.11-.71.15.27,0,0,.08.71.06l-.48.14c-.2.19,1,.14.93.34a4,4,0,0,1-1,0c0,.06-.07.12.19.11-.23,0,.5.14.15.21.16,0,.56,0,.53.09h-.19a2.15,2.15,0,0,0,.66,0c-1.18.19.07.56-.95.69a.91.91,0,0,1,.23.43c-.11,0-.19,0-.15,0-.38.13,1.09.21.67.37-.64,0-.33-.14-.57-.1-1.26-.13.15.25-.61.27l-.07,0c-.44,0,.43.3.31.45l-.19,0a1.64,1.64,0,0,1,.94.68,2.39,2.39,0,0,0-.75-.21c.06.08.81.15.92.33a4.86,4.86,0,0,1-1.08-.09v-.13c-.71-.1,0,.16-.16.2l-.3-.08c0,.2.8.41.69.61l.23,0c.71.34-.45,0,.08.26l-.77-.2a3.64,3.64,0,0,1,.73.68,8.66,8.66,0,0,1-1.06-.71c0,.06,0,.25.33.41-.06-.05-.23-.15-.11-.14.56.29.8.51.74.66-1.42-.56-.5.25-1.65-.11.41.46-.41.37-.46.66,1.11.44,0,.09,1.08.63,0,.1,0,.11-.07.08l-.74-.15c-.33-.12-.2-.18-.45-.31-.14.09-.48-.19-.8-.27.39.2.52.35.34.34l.54.18c.47.51-1-.36-.51.14l-.3-.25c.14.2-.18.3.57.93a1.48,1.48,0,0,1-.46-.31c-.23.13.51,1.06-.08.88l-.21-.19c0,.09.38.41.12.27-.1-.07-.22-.19-.24-.19s.32.43.14.37l-.21-.25c-.11,0-.14,0-.13.11s.11.13.19.24a1.77,1.77,0,0,1,.4.62c-.56-.66-.76-.83-.85-.94l-.06-.1A5.59,5.59,0,0,1,29,48.92c-.2-.46-.25-.55-.3-.57s-.09,0-.14-.29c0,.18.07.83.06.95,0-.21,0,.82-.07-.2h0c0-1,0-.71-.06-.73l-.06,1.4c0-1,0-.77-.1-.62s-.15.35-.05-.29l0-.2c-.06.22-.08.23-.16.49l.16-.64c0-.2,0-.28,0-.19l.15-.39a13.14,13.14,0,0,1-.67,1.48l.33-.77c-.06-.1.28-.67-.12-.2a3.13,3.13,0,0,1,.21-.26c0-.06.27-.4-.35.24.4-.42,0-.1-.19,0l.32-.24c-.42.27-.54.33-.69.31,0,0,.26-.17.19-.1.15-.16-.34.12-.19-.06l.23-.08c0-.07-.12,0-.38.05s.05-.2.39-.28c-.21,0-.5,0-.42-.07a.77.77,0,0,1,.24,0c.18-.24-.49-.22-.19-.42a1,1,0,0,0,.2-.06c0,.16.06.29,0,.28.33-.07.34-.2.82-.19-.28,0-.86-.12-.75-.27l.1,0h0s0,0-.07-.07.07-.07.06-.11c.25,0,.09-.16.09-.23-.33,0-.3,0-.55.08,0,0,0,0,.06,0l.05,0h0a1.07,1.07,0,0,1,.07.15c-.19,0-.34-.06-.17-.15l-.56,0c.45-.15.65-.35.91-.4-.23-.18-.23-.45-.81-.55-.08,0,.15-.07.23-.1s.06.07.14.09c-.16-.11-.11-.34-.48-.36.15-.16.35.07.26-.13l.12,0c.25-.2,0-.36-.21-.54s-.35-.36-.07-.57a.12.12,0,0,1-.1,0,1.33,1.33,0,0,0,0-.79,1.3,1.3,0,0,1,.13-.78c.06-.14-.05-.18-.11-.28h.13l-.12-.18c-.05-.25.3-.32.18-.64l-.06,0c0-.09,0-.32.08-.29a.06.06,0,0,1,0-.07h0a2,2,0,0,1,0-.25c.06-.19.07,0,.11-.23,0-.11,0-.31,0-.27l0,.11,0-.09s.06-.08-.1.11a1.09,1.09,0,0,0-.08.15l-.05,0,.08-.12a.41.41,0,0,0-.1.16l-.07,0,0,.16s0-.08-.09,0,.1,0,.06.07-.1,0-.11.13,0,0,0-.06-.11.2-.06.26c-.12,0-.12.26-.25.21a.45.45,0,0,1,0,.24c-.13-.18-.13.27-.35.18.15.14-.1.37,0,.58,0,0-.05,0,0-.06s-.15.11-.23.17c.21,0,.2.22.33.32-.28.09-.26-.11-.48-.11.18,0,.1.25.28.23a.63.63,0,0,1-.32.09c.31.06,0,.1.2.21-.21.12-.33,0-.27.17A.16.16,0,0,1,25.06,43.5Zm.31,3.85h0l0-.08Zm0,.32a.33.33,0,0,0,0-.14c.12,0,.24-.05.24,0S25.51,47.6,25.41,47.67Zm2.26-1c.06,0,0,.06-.07.07a.17.17,0,0,0-.06-.06h.13Z"/><path class="cls-2" d="M27.21,46.64h0l-.07,0h.1Z"/><path class="cls-2" d="M28.52,39.75h0l0,0Z"/><polygon class="cls-2" points="27.11 54.79 27.15 54.6 27.08 54.77 27.11 54.79"/><path class="cls-2" d="M26.76,40.48h0Z"/><path class="cls-2" d="M26.42,41.18l-.09.08C26.38,41.23,26.41,41.21,26.42,41.18Z"/><path class="cls-2" d="M26.19,41.74l.07,0h0Z"/><path class="cls-2" d="M35.07,36.68h0C35.2,36.7,35.16,36.67,35.07,36.68Z"/><path class="cls-2" d="M31,37.19a2.42,2.42,0,0,1,.12-.23C31,36.94,31,36.94,31,37.19Z"/><path class="cls-2" d="M36.65,40.8h0v0Z"/><path class="cls-2" d="M31.24,36.94c-.06-.08-.11,0-.16,0S31.18,37,31.24,36.94Z"/><polygon class="cls-2" points="26.42 44.28 26.43 44.3 26.44 44.3 26.42 44.28"/><path class="cls-2" d="M26.44,44.3l0,0Z"/><path class="cls-2" d="M26.5,44.38l0-.05A.1.1,0,0,0,26.5,44.38Z"/><path class="cls-2" d="M26.21,43.54h0Z"/><path class="cls-2" d="M26.16,43.3c0,.06-.07.15,0,.22h0C26.1,43.49,26.22,43.35,26.16,43.3Z"/><path class="cls-2" d="M26.82,42.43l-.1.17c.07,0,.16-.05.14,0C27.11,42.45,26.72,42.65,26.82,42.43Z"/><path class="cls-2" d="M27.1,42c0,.09.1,0,.14,0S27.19,41.91,27.1,42Z"/><path class="cls-2" d="M29.65,39.3l.17.28C29.85,39.51,29.75,39.47,29.65,39.3Z"/><polygon class="cls-2" points="29.49 37.36 29.32 37.2 29.42 37.52 29.49 37.36"/><path class="cls-2" d="M30.78,39.57l0,0,0-.14Z"/><path class="cls-2" d="M31.94,41.59h.6C32.44,41.54,31.76,41.51,31.94,41.59Z"/><path class="cls-2" d="M32.07,44.25c-.31-.06-.52,0-.23.08C31.89,44.29,32.14,44.3,32.07,44.25Z"/><polygon class="cls-2" points="28.47 48.46 28.5 48.17 28.47 48.42 28.47 48.46"/><path class="cls-2" d="M23.21,69l0,0,0,0Z"/><path class="cls-2" d="M23.49,68.89s.08-.11,0-.12,0,.06-.08.12-.07,0-.07,0-.06,0-.07.06a1.12,1.12,0,0,0,.18-.1S23.49,68.88,23.49,68.89Z"/><path class="cls-2" d="M27.45,69.58v0A0,0,0,0,0,27.45,69.58Z"/><path class="cls-2" d="M28.93,71.57s-.06,0-.1,0A.14.14,0,0,0,28.93,71.57Z"/><path class="cls-2" d="M28.65,72.24l0,0S28.62,72.26,28.65,72.24Z"/><path class="cls-2" d="M27.45,69.58v.14C27.5,69.62,27.46,69.62,27.45,69.58Z"/><path class="cls-2" d="M24,68.41l0,0,0,0Z"/><path class="cls-2" d="M26.41,69.27h0l-.05.1Z"/><path class="cls-2" d="M25.65,69a2.46,2.46,0,0,0,.06-.27.26.26,0,0,1-.06.13Z"/><path class="cls-2" d="M24.27,68.67l0,0Z"/><path class="cls-2" d="M26.88,69.63l0,.1A1,1,0,0,0,26.88,69.63Z"/><path class="cls-2" d="M25.08,65h0S25.09,64.94,25.08,65Z"/><polygon class="cls-2" points="25.9 64.1 25.9 64.11 25.9 64.12 25.9 64.1"/><path class="cls-2" d="M28.38,73.14h0C28.34,73.14,28.35,73.15,28.38,73.14Z"/><path class="cls-2" d="M30.23,75.68c-.27.43-.51.4-.79.9A5.17,5.17,0,0,0,30.23,75.68Z"/><path class="cls-2" d="M24,68.4l0,0Z"/><path class="cls-2" d="M29.44,76.58h0l0,0Z"/><path class="cls-2" d="M28.9,74.35l.23,0Z"/><path class="cls-2" d="M29.36,73.1l-.05.05S29.36,73.11,29.36,73.1Z"/><path class="cls-2" d="M29.64,74.78s-.11,0,0,0h.07C29.59,74.8,29.56,74.8,29.64,74.78Z"/><path class="cls-2" d="M29.59,75.31h.11l0,0Z"/><path class="cls-2" d="M23.91,67.33h.24C24,67.31,24,67.18,23.91,67.33Z"/><path class="cls-2" d="M24,68.45a.07.07,0,0,1,0,0l0,0A0,0,0,0,0,24,68.45Z"/><path class="cls-2" d="M33.84,74.65c0,.06,0,.12-.06.19A.27.27,0,0,0,33.84,74.65Z"/><path class="cls-2" d="M23.87,73.76h-.06S23.82,73.77,23.87,73.76Z"/><path class="cls-2" d="M33.85,75.43a1.39,1.39,0,0,0-.38.08l.14,0Z"/><path class="cls-2" d="M24.15,67.32Z"/><path class="cls-2" d="M24,66.37c-.07.12.23.11.36.16s-.22,0-.39.06c0,.1.26.22.23.28a.29.29,0,0,1-.13,0c.2.13-.1.29.18.45h-.08a2.9,2.9,0,0,1,.45,0c0,.06.18.13,0,.12,0,0-.07,0-.13-.07l.08.07c-.33,0-.09-.09-.32-.12.06.13.3.29.19.37-.33,0-.05-.22-.37-.13l.16-.12c-.52,0,.07-.08-.49,0-.16.18.08.22-.07.4.17.06.27,0,.45.06.31.28-.92.16-.49.38.22.06.69.1.42.23l-.41-.06c-.09.19.59.11.27.3-.17,0-.12-.14-.18-.12-.37.13.23.09.22.19l-.4,0c0,.2.3.41.37.62a.74.74,0,0,0-.39,0c.18.27-.11.6-.39.91l.4.06a.44.44,0,0,1-.26,0c-.16.13.25,0,.41,0s-.23.12-.35.09c.34.15.75.41.33.69l-.13,0c-.16.19.89,0,.51.22h-.08c-.15.37.3.61-.32,1.05.66-.14-.23.42.69.16-.41.32-.59.32-.84.7,0,.09.6-.09.72-.05l-.49.18.55-.07-.56.28.15,0a.73.73,0,0,1,.34-.2c.26,0-.25.43-.5.54l.51.13a1.06,1.06,0,0,1-.43.07c.56-.05-.51.26,0,.21a2.56,2.56,0,0,1,.4-.16c-.28.21-.22.38,0,.44l-.35.14c0,.27.35.4.45.65a1.68,1.68,0,0,1,.81-.44l-.51.31c.34-.13.17-.18.6-.3,0,.12-.57.39-.76.43h.23c-.15.09-.25.11-.45.22.35-.14-.43.49.17.23l-.15.1c.12.25.36.25.49.43.45-.28.39-.14.78-.32-.07.23-.31.61-.17.75.3,0,.39-.23.69-.37-.39.29-.25.43-.59.55.2.15.25.2.73.18a1.47,1.47,0,0,1,.33-.33c.09,0-.09.22-.28.37l-.05,0c.77-.26-.6,1.56.36,1.06l-.05,0,.58-.19c0,.15-.32.22-.48.5.81-.39.26.43.83.18-.85,1.29.58.36.19,1.28l.21-.3c.26-.23-.06.22-.07.32.16-.23.13-.31.28-.44a.5.5,0,0,1,.44.24l.72,1,2-1.1c.46-.25,1.27-.27,1.84-.61.25-.22-1.41-1.2-.53-1l.5.44a.93.93,0,0,1,.12-1,.71.71,0,0,0,0-.88c.13.07.32.14.3.19.48,0,.14-.43-.23-.52.06-.07.34.07.54.07s-.51-.42-.05-.39a.34.34,0,0,1,.18.09c-.19-.12.1-.34-.44-.35.27-.16-.21-.4.11-.52-.59-.14.3-.31-.54-.38.86.05.71-.34.29-.43.26,0,.25-.1.61-.07,0-.14-.2-.25-.64-.2,1-.34-.87-.37.38-.67A12.82,12.82,0,0,1,32.38,73c.78-.21.18.3,1,.09-.44-.24-1.16-.19-1.07-.52.08-.11.34-.08.48-.09-.4-.19-.19-.56-.7-.63a.6.6,0,0,1,.22,0s.05-.15-.27,0h.11a5.9,5.9,0,0,1-1.3.37c.94-.35.12-.31,1.32-.75a1.08,1.08,0,0,0-.45.15c0-.07.15-.15.41-.22-.26-.08-.54.14-.63,0,.15-.08.22-.08.41-.16-.34.08-.66.17-.62,0s.2-.12.22-.09c-.19-.16-.94.12-.82-.23.62-.32.14-.19.62-.53H31.1l-.2.2c-.06-.1-.48.08-.38-.1l.24-.08-.23-.1-.09.22c-.31.1-.57.45-.54.25.06,0-.06-.09.16-.34h0c-.17.08-.35.15-.29,0s.47-.38.56-.47c-.39.26-.29-.11-.69.16a3,3,0,0,0,.35-.29l-.3.21a.74.74,0,0,1,.25-.3c-.07-.15-.45.49-.38.18a.36.36,0,0,1,.13-.08c0-.22-.43-.06-.44-.3.31-.4.21,0,.46-.35-.29-.08-.8.12-.93-.08v.07c-.43.51.06-.36-.24-.17a1,1,0,0,0,.2-.22c-.09-.17-.39,0-.7,0l.11-.12c0-.18-.19-.18-.26-.27-.1.12-.14.07-.21.28.05-.43-.16-.38-.34-.32s-.35.11-.39-.19c0,0,.12-.09.09-.09l-.28.07c-.05.2,0,.12,0,.29s-.16.19-.21.17c.13-.1.09-.31.08-.43,0,.06-.05.13-.06.19,0-.37-.13.38-.22.11l0-.09c-.07,0-.15.15-.2.11,0-.22.08-.09.12-.26-.1,0-.25.35-.29.13,0,0,.1,0,.15-.09,0-.25-.07-.2-.14-.24h0l-.16-.09,0,0c-.18.51-.26.11-.43.42.16-.29,0-.17.05-.37,0,0-.1-.11-.08-.16-.08.16-.14-.1-.24.13,0-.06-.09,0-.07-.14-.1.06,0,.1,0,.17s-.38-.09-.56.19-.16.28-.31.36,0-.13,0-.13a.22.22,0,0,0-.23.07s0,0,0-.06,0,.12-.09.13a.34.34,0,0,1,0-.13,1.92,1.92,0,0,1-.18.22s0-.08,0-.12a1.19,1.19,0,0,0-.2.22h.06s0,0,0,0,.1,0,.11,0l0,0c.09.07.2-.12.3-.19v.13l.07-.15s.08.09,0,.13.06-.06.15,0,0,0,0,0l.07,0s0,.1,0,.08c.17.09.21-.14.29,0h0c.18-.08,0-.12.11-.32l.15.35v-.15s.06,0,.06.07c.07-.12,0-.07,0-.17.1.12.27-.09.3.2,0-.14-.1-.12,0-.2,0,.32.13,0,.21.11s-.11.06,0,.23c.07-.29.16.1.23.06,0-.26.17-.09.3-.16,0,.09.19.24.26.39l0,.05c.1-.29.2-.2.29-.23a.72.72,0,0,1-.16.32l.07,0c.05-.1.09-.14.15-.16l-.1.23c.09,0,.29-.21.33,0,.11-.23.16-.7.37-.8A1.41,1.41,0,0,1,27,69s.08-.09.08,0l-.14.19c0,.12.11-.17.14-.12s0,.15-.09.29,0-.1-.05,0a.56.56,0,0,1,0,.36c0-.11.11-.25.16-.25s-.08.24-.08.37c.08-.11.06.06.21-.22,0,0,0,.15-.07.23.11-.1.22.1.35-.24v0h0c.33-.18.19.4.4.39l-.07.1c.16,0,.23.08.45-.09,0,0-.08.23-.19.34.12,0,.22-.12.16.13s-.12.17-.16.06c0,.16-.14.34.17.15-.25.23-.25.38-.15.34l.13-.24c.06,0,.07.07.08.12l-.33.31c-.31.56.94-.41.29.39.28-.18.12-.25.44-.47,0,.12-.47.66-.47.68-.16.28.62-.36.54-.13.14-.12.5-.44.7-.45,0,.12-.54.55-.69.59s0,0,.07-.09a.5.5,0,0,0-.29.18l.15-.1c-.12.15,0,.24-.3.4a.51.51,0,0,0,.31-.25c-.16.24.08.15,0,.36.08-.07.25-.21.26-.19-.13.28.33-.13.46-.06-.22.21-.6.34-.34.32a1.6,1.6,0,0,1-.58.34c.36-.1-.14.29-.19.37l-.15,0c.09,0,.1,0,.1,0l.34-.22a.36.36,0,0,1-.19.17,9.67,9.67,0,0,1,.91-.45c-.16.13.24,0-.23.28.13-.21-.46.26-.57.2.07,0,.07,0,0,.07a.31.31,0,0,1-.13,0c-.4.33.55-.22.58-.09-.28.12-.52.27-.45.26a2.12,2.12,0,0,1,.67-.28c-.19.17.19,0,.18.07l.09-.1c.29-.1.27,0,.38,0-.22.1-.17,0-.26.07.52-.14-.48.36-.1.31-.19.11-.55.2-.68.29.41-.05-.39.23-.06.21a2,2,0,0,1,.71-.19l-.31-.07.6-.08c0-.06-.28,0-.21-.09a1.34,1.34,0,0,0,.56-.17c-.59.28.39,0,0,.27l-1,.3c-.44.23.56,0,.33.28l.18-.09c.42-.08.08.08.26.09a6.36,6.36,0,0,0-.7.19c.26,0,0,.1.69,0l-.48.14c-.2.13,1.05,0,.94.17a7.87,7.87,0,0,1-1,0s-.07.07.19.06c-.23,0,.51.07.16.13.16,0,.56,0,.53,0H30a2.9,2.9,0,0,0,.66,0c-1.19.12,0,.41-1,.42.11.1.24.23.23.3s-.19,0-.14,0c-.39,0,1.05.3.62.35-.62-.11-.31-.16-.55-.18-1.23-.32.12.18-.61,0l-.06,0c-.43-.11.42.27.3.34L29.32,76a1.58,1.58,0,0,1,.78.71,3.71,3.71,0,0,0-.67-.4c0,.07.73.39.8.55a5,5,0,0,1-1-.47V76.3c-.62-.34,0,.09-.14.06l-.26-.18c0,.13.69.61.53.67l.2.14c.54.55-.38-.23,0,.2L29,76.68a3.22,3.22,0,0,1,.47.82c-.36-.47-.51-.74-.73-1,0,0,0,.13.2.43,0-.07-.16-.22-.06-.15.4.47.54.77.45.84-.39-.47-.53-.58-.61-.6l1.79-.08c0-.15-.19-.13.19-.73-.49.34-.15-.41-.36-.46-.72,1-.07,0-.86.91-.09,0-.1,0-.05-.07l.37-.65c.21-.29.21-.17.39-.37,0-.14.32-.42.49-.69-.29.32-.46.43-.39.27L30,75.6c-.56.36.61-.82.05-.45l.31-.24c-.23.11-.19-.19-1,.41a2.2,2.2,0,0,1,.41-.37c0-.22-1.07.36-.72-.13l.23-.17c-.08,0-.46.29-.26.07a2.83,2.83,0,0,0,.24-.19c-.09,0-.46.24-.36.1l.28-.17c.19-.36-.82.25-1.09.22a2.38,2.38,0,0,0,.89-.87l.1-.07c0-.21-.8.08-1.21.06.69-.54.09-.56.4-1a2.15,2.15,0,0,1-.64.27c.11-.11-.57.11.08-.19v0c.62-.32.4-.32.38-.4l-.86.36c1.13-.7-.71-.34.33-.86-.24,0-.26,0-.49,0l.45-.15c0-.16.08-.24-.11-.36l.33-.07c0-.08-1.32.27-1.38.18l.64-.21c-.09-.16.42-.45-.23-.48a1,1,0,0,1,.32,0c0-.09.28-.38-.55-.18.55-.11,0-.18-.28-.24l.4-.05c-.53,0-.66,0-.83-.07.05,0,.31-.07.22,0,.18-.12-.39,0-.21-.16h.26c0-.1-.13-.08-.42-.09s.06-.2.38-.25c-.2,0-.49,0-.41-.08a.65.65,0,0,1,.25,0c.21-.18-.46-.2-.13-.34a.52.52,0,0,0,.21,0c0,.13,0,.23,0,.23a3.05,3.05,0,0,1,.84-.1c-.28,0-.84-.15-.71-.26l.11,0h0s0,0-.07-.06.08,0,.08-.08c.25,0,.1-.12.1-.17-.33,0-.29,0-.55,0,0,0,0,0,.06,0a.05.05,0,0,0,0,0h0a.73.73,0,0,1,.05.12c-.18,0-.33-.07-.16-.13L25.23,69c.45-.09.68-.22.95-.24-.21-.15-.19-.36-.75-.49-.07,0,.15,0,.24-.06s0,.06.13.08c-.15-.1-.09-.27-.46-.32.16-.11.34.09.27-.08l.11,0c.27-.13,0-.27-.16-.43s-.33-.32,0-.45a.11.11,0,0,1-.1,0c.25-.35-.12-.88.23-1.21.06-.1,0-.14-.11-.24l.13,0-.12-.17c0-.19.28-.21.18-.48h-.06c0-.08,0-.25.08-.22a0,0,0,0,1,0-.07h0c0-.07,0-.14,0-.2s.07.05.1-.17,0-.25,0-.22,0,.08,0,.08l0-.07s.05,0-.09.09a.41.41,0,0,0-.07.11l0,0,.08-.08a.18.18,0,0,0-.09.11l-.07,0,0,.12s0-.07-.09,0,.1,0,.06.06-.1,0-.11.09,0,0,0,0-.12.14-.08.19c-.12,0-.11.2-.24.15a.28.28,0,0,1,0,.19c-.12-.16-.13.2-.34.1.14.13-.1.29-.05.46,0,0,0,0,0,0s-.15.07-.23.11c.2.06.2.2.31.3-.26,0-.24-.13-.47-.15.19,0,.1.21.28.22a.73.73,0,0,1-.32,0c.31.08,0,.08.19.18-.21.08-.32,0-.28.11A.19.19,0,0,1,24,66.37Zm0,3.07h0l0-.06Zm0,.26a.24.24,0,0,0,0-.12c.13,0,.25,0,.25,0A.69.69,0,0,0,24,69.7Zm2.37-.62c.05,0,0,0-.08,0l-.05-.06h.13Z"/><path class="cls-2" d="M25.88,69h0l-.07,0h.11Z"/><path class="cls-2" d="M27.45,69.52h0a.09.09,0,0,1,0,0Z"/><polygon class="cls-2" points="23.56 73.55 23.68 73.5 23.57 73.52 23.56 73.55"/><path class="cls-2" d="M26.62,68.15v-.06A.06.06,0,0,0,26.62,68.15Z"/><path class="cls-2" d="M26,68,25.93,68Z"/><path class="cls-2" d="M25.53,68V68h0Z"/><path class="cls-2" d="M32.33,71.78h0C32.47,71.8,32.42,71.79,32.33,71.78Z"/><path class="cls-2" d="M30.06,70.38a1.28,1.28,0,0,1,.21-.07S30.25,70.23,30.06,70.38Z"/><path class="cls-2" d="M33.84,74.63h0s0,0,0,0Z"/><path class="cls-2" d="M30.33,70.39c0-.08,0-.09-.06-.08S30.26,70.41,30.33,70.39Z"/><polygon class="cls-2" points="23.64 68.67 23.62 68.68 23.62 68.69 23.64 68.67"/><path class="cls-2" d="M23.62,68.69l0,0Z"/><path class="cls-2" d="M23.57,68.75l0,0S23.57,68.73,23.57,68.75Z"/><path class="cls-2" d="M24.15,68.34v0Z"/><path class="cls-2" d="M24.32,68.26s-.12,0-.17,0v0C24.16,68.24,24.3,68.34,24.32,68.26Z"/><path class="cls-2" d="M25.12,68.7a.34.34,0,0,0-.14,0c0,.06.07.14,0,.15C25.17,69,24.94,68.66,25.12,68.7Z"/><path class="cls-2" d="M25.53,68.88c-.07,0,0,.11,0,.15S25.58,69,25.53,68.88Z"/><path class="cls-2" d="M28,70.34l-.21.25C27.84,70.59,27.86,70.49,28,70.34Z"/><polygon class="cls-2" points="29.63 69.45 29.73 69.25 29.48 69.46 29.63 69.45"/><polygon class="cls-2" points="28.04 71.49 27.98 71.51 28.12 71.49 28.04 71.49"/><path class="cls-2" d="M29.12,75.17l.61,0C29.62,75.18,28.94,75.12,29.12,75.17Z"/><path class="cls-2" d="M29.15,76.62c-.26-.18-.44-.29-.22-.08C29,76.55,29.2,76.68,29.15,76.62Z"/><polygon class="cls-2" points="27.83 72.54 28.02 72.5 27.84 72.5 27.83 72.54"/><path class="cls-2" d="M29.49,95.46h0Z"/><path class="cls-2" d="M29.58,95.45a.12.12,0,0,0,0-.09s0,0,0,.08,0,0,0,0,0,0,0,0a.06.06,0,0,0,.06,0Z"/><path class="cls-2" d="M31.1,95.27l0,0Z"/><path class="cls-2" d="M32,94.53l.1,0Z"/><path class="cls-2" d="M32.57,94.48h0Z"/><path class="cls-2" d="M31.1,95.27l.12.06C31.12,95.25,31.13,95.28,31.1,95.27Z"/><path class="cls-2" d="M29.74,95.22v0Z"/><path class="cls-2" d="M30.85,95.71h0l.07.1Z"/><path class="cls-2" d="M30.46,95.81s-.07-.16-.11-.24a.34.34,0,0,1,0,.12Z"/><path class="cls-2" d="M29.82,95.55v0Z"/><path class="cls-2" d="M31.18,95.64l.07.07Z"/><path class="cls-2" d="M26.72,91.11v0A0,0,0,0,0,26.72,91.11Z"/><polygon class="cls-2" points="26.43 90.66 26.43 90.66 26.43 90.66 26.43 90.66"/><path class="cls-2" d="M33.33,94.19h0S33.36,94.2,33.33,94.19Z"/><path class="cls-2" d="M32,90.07c-.3.4-.48.44-.8.89A10.86,10.86,0,0,0,32,90.07Z"/><path class="cls-2" d="M29.74,95.23h0Z"/><path class="cls-2" d="M31.17,91h0l0,.05Z"/><path class="cls-2" d="M33.38,93.13l-.23,0Z"/><path class="cls-2" d="M32.55,93.85h0Z"/><path class="cls-2" d="M32.65,92.82s.11,0,0,0l-.06,0C32.7,92.8,32.73,92.8,32.65,92.82Z"/><path class="cls-2" d="M32.6,92.44l-.1,0h0Z"/><path class="cls-2" d="M27.34,91.77c0-.07,0-.15,0-.23C27.34,91.72,27.3,91.75,27.34,91.77Z"/><path class="cls-2" d="M29.74,95.27v0h0Z"/><path class="cls-2" d="M28.81,93.45h0Z"/><path class="cls-2" d="M28.47,92.91l0,0S28.45,93,28.47,92.91Z"/><path class="cls-2" d="M28.9,93.43h0Z"/><path class="cls-2" d="M27.35,91.54Z"/><path class="cls-2" d="M27.1,91.79c0,.06,0-.23,0-.36s0,.21,0,.36c0,0,.07-.27.09-.25a.62.62,0,0,1,0,.13c0-.21.07.07.13-.21v.08c0-.16,0-.33,0-.44s.05-.2,0,0c0,0,0,.07,0,.14l0-.09c0,.32,0,.1-.06.32,0-.07.1-.31.12-.21,0,.33-.06.07-.07.37l0-.15c0,.51,0,0,0,.49,0,.15.06-.1.09.05l0-.45c.11-.31,0,.91.05.48,0-.22.1-.68.1-.41l-.06.4c0,.08.1-.58.1-.27s-.05.12-.05.18c0,.36.05-.23.07-.22l-.05.39c.05,0,.14-.26.2-.31a2.44,2.44,0,0,0-.06.39c.08-.16.11.16.1.5l.09-.38s0,.19-.05.26.05-.25.09-.4a1.54,1.54,0,0,1-.06.36c.09-.31.25-.68.19-.2l0,.12c0,.19.22-.84.16-.43l0,.07c0,.24.19-.12.05.59.19-.64,0,.35.23-.57-.1.49-.16.65-.22,1,0,.06.19-.57.24-.65l-.16.49.18-.51-.18.61.05-.12s.07-.23.11-.38-.07.39-.16.65l.19-.38-.16.39c.2-.5-.19.54,0,.08l.15-.4c-.11.32-.09.34,0,.23l-.14.35c0,.12.1-.1.12-.07.06-.18.33-.79.36-.84l-.23.55c.15-.34.08-.22.27-.62a7.57,7.57,0,0,1-.35.8l.1-.18-.21.46c.16-.34-.24.57,0,0l-.08.16s.1-.14.13-.15c.24-.47.19-.36.4-.73a4.37,4.37,0,0,0-.22.53l.39-.67c-.24.43-.21.4-.39.7a3.18,3.18,0,0,0,.3-.38l.24-.39a2.73,2.73,0,0,1-.23.39l0,0c.47-.59-.8,1.26-.18.41l0,0,.36-.42c0,.07-.24.29-.43.54.54-.64-.07.12.3-.3-1,1.13.1,0-.57.66l.26-.25-.21.2.37-.36c.08-.07.11-.07.09-.05l-.06.07h0l.53-.45h0l-.07.05,0,0h0a1,1,0,0,1-.18.08h0l-.05,0h0l0,0h0l-.07,0,.14,0h0l.36-.08-.54.12.28,0-.33,0,.33,0c-1,.12.8-.08-.43.06a4.45,4.45,0,0,1,1,0c-.81,0-.1,0-1,0,.37,0,1.06,0,.89,0l-.49,0c.35,0,0,0,.41.08l-.21,0s-.1,0,.25,0h-.1c.51,0,1.06.14,1.33.18-1-.14-.25,0-1.49-.18l.46.07-.46-.06a5,5,0,0,1,.55.11l-.42-.07c.33,0,.64.12.51.12l-.22,0c.07,0,.83.23.54.21-.66-.18-.22,0-.78-.19l.18.06.27.07s.4.15.22.11l-.23-.08.11.07.2,0c.28.11.69.21.54.19a1,1,0,0,1-.33-.07h0c.17.07.33.15.2.12L30,94c.43.17.12.08.57.28l-.42-.18.34.15c-.11,0-.16-.06-.37-.14-.06,0,.62.25.35.17l-.12-.06c-.14,0,.19.16,0,.12-.46-.22-.11-.08-.5-.26.1.07.54.37.43.36l0,0c.57.35-.28-.14,0,0l-.24-.17c-.08,0,.14.14.27.31l-.12-.1c-.11-.07-.07,0-.12,0a3,3,0,0,0,.25.24c-.32-.26-.23-.16-.16,0s.14.24-.06,0a.43.43,0,0,0-.07-.1l.06.14a2.2,2.2,0,0,0,.19.21c.08.1.12.18.11.19a1.92,1.92,0,0,0-.27-.34l.11.16c-.22-.26.23.32.06.16l0-.09c0,.06.08.17,0,.16-.12-.17,0-.09-.14-.24,0,0,.18.36.06.2a.84.84,0,0,0,0-.12c-.14-.18-.1-.13-.13-.15h0L30,94.86l0,0c.21.45,0,.12.1.41A1.71,1.71,0,0,0,30,95a.33.33,0,0,1-.07-.13c0,.15-.05-.07,0,.14,0,0,0,0-.05-.11,0,.06,0,.08.05.14s-.1-.11-.08.14a1.82,1.82,0,0,1,0,.3.2.2,0,0,1,0-.13s0,0-.06,0a.22.22,0,0,0,0-.08s0,.11,0,.08v-.11s0,.1-.06.12,0-.06,0-.09a.75.75,0,0,0-.07.12h0s0,0,0,0,0,0,0,0v0c0,.11.06,0,.09,0v.11l0-.1a.26.26,0,0,1,0,.12c0,.07,0,0,0,0s0,0,0,0l0,0s0,.1,0,.08.06-.11.1,0h0s0-.12,0-.28l.12.33,0-.14a.24.24,0,0,1,0,.08c0-.1,0-.07,0-.16.07.13.05-.1.15.16,0-.13-.06-.09-.06-.19.12.29,0-.06.1.07s0,.08.08.21c-.1-.26.09,0,.11,0-.11-.22,0-.1,0-.19,0,.07.16.1.28.17l0,0c-.17-.26-.09-.23-.1-.29a1.2,1.2,0,0,1,.19.29h0a.74.74,0,0,1-.08-.17l.15.2c.05,0-.11-.27.07-.16a6.43,6.43,0,0,1-.59-.65c.09.1.26.27.29.32s-.07-.1,0-.06l.14.18c.09.06-.12-.15-.09-.14l.22.21s-.08,0,0,0a.83.83,0,0,1,.28.19,1.05,1.05,0,0,1-.2-.22s.19.16.29.22c-.09-.11.05,0-.18-.23,0,0,.12.09.19.14-.08-.11.07-.1-.23-.3h0c-.21-.26.26,0,.2-.13l.1.07c-.07-.11,0-.12-.21-.28a1.9,1.9,0,0,1,.35.18c-.06-.07-.19-.15,0-.08s.18.09.12.11c.13,0,.33.11,0-.1.29.17.42.17.34.1L31.75,95s0,0,.05,0l.41.21c.6.14-.78-.54.16-.24-.3-.14-.25,0-.6-.21.07,0,.76.2.77.18.3,0-.63-.29-.43-.29a4.55,4.55,0,0,1-.78-.28,4.25,4.25,0,0,1,.86.25l-.1,0a.91.91,0,0,0,.31.12l-.16-.06c.17,0,.17,0,.45.06a.68.68,0,0,0-.37-.1c.26,0,0-.09.22-.11a1.35,1.35,0,0,1-.3-.06c.23,0-.32-.12-.38-.19.27,0,.63.15.42,0a2.53,2.53,0,0,1,.6.13c-.33-.13.29-.06.39-.09l.11.06c-.07,0-.05,0,0-.07l-.37,0a.46.46,0,0,1,.24,0c-.23-.06-.62-.09-.93-.18.2,0-.17-.09.34,0-.22,0,.51.07.54.15s0,0,.05,0a.25.25,0,0,1,.12,0c.52,0-.54-.12-.48-.19a1.38,1.38,0,0,0,.52,0,2.69,2.69,0,0,1-.72-.1c.27,0-.14-.06-.1-.08h-.13a.62.62,0,0,1-.34-.09c.24,0,.16,0,.27,0-.54-.07.57,0,.22-.11.21,0,.58,0,.73,0-.39-.08.45-.06.13-.14a2.93,2.93,0,0,1-.73,0l.28.11-.61-.08s.26.07.18.09a2.21,2.21,0,0,0-.58,0c.64,0-.36-.08.07-.11H33.1c.49-.08-.52-.13-.25-.24l-.19,0c-.42,0,0,0-.23-.07a6.45,6.45,0,0,0,.72-.08c-.26,0,0-.08-.69,0l.48-.09c.2-.11-1,0-.92,0a7.9,7.9,0,0,1,.95-.1s.06-.06-.19,0c.23,0-.5,0-.15-.07a4,4,0,0,1-.53,0l.19,0a4.07,4.07,0,0,0-.66.11c1.14-.3-.11-.15.87-.45a.82.82,0,0,1-.31-.09l.14,0c.32-.18-1.06.31-.7.12.58-.24.33-.07.55-.17,1.19-.44-.19,0,.49-.35l.07,0c.39-.21-.48.08-.43,0l.18-.08a5.77,5.77,0,0,1-1,.3,7.46,7.46,0,0,0,.69-.35c-.08,0-.72.39-.87.41.24-.14.43-.29.9-.57l.05,0c.61-.38-.05-.06,0-.15l.27-.15c-.14,0-.8.37-.8.27l-.19.14c-.67.4.33-.28-.16,0l.63-.48-.82.42a6.1,6.1,0,0,1,1.06-.63s-.13-.08-.44.15c.06,0,.23-.14.14,0-.52.35-.77.51-.79.46,1.16-1,.2-.35,1-1.2-.48.32,0-.33-.17-.36-.76.9-.05,0-.86.9-.07,0-.07,0,0,0l.41-.6c.21-.28.2-.18.37-.39,0-.12.31-.41.48-.69-.27.34-.42.46-.35.31l-.31.46c-.48.45.57-.84.09-.4l.26-.28c-.18.14-.18-.12-.78.63a3.5,3.5,0,0,1,.32-.45c0-.19-.8.71-.55.18l.16-.24c-.06.06-.32.45-.19.19a1.64,1.64,0,0,0,.16-.26c-.06.08-.31.41-.25.25l.19-.27c.08-.37-.56.61-.72.75A3.11,3.11,0,0,0,30.93,89l.05-.1c-.09-.14-.52.54-.75.8.29-.82-.07-.39,0-.85a3.85,3.85,0,0,1-.27.64c0-.15-.26.5,0-.17h0c.23-.66.11-.49.07-.51l-.32.87c.34-1.27-.4.42-.09-.69-.09.21-.12.21-.21.42l.14-.45c0-.11-.06-.16-.18,0l.1-.32s-.4,1.27-.44,1.29l.15-.64c-.07,0,0-.53-.24,0A1.86,1.86,0,0,1,29,89s-.06-.39-.23.45c.12-.55-.07,0-.15.19l.08-.39a4.14,4.14,0,0,1-.23.78s.05-.31.05-.21c0-.2-.1.36-.1.16l.06-.24s-.05.1-.13.38,0-.09,0-.42c0,.21-.11.48-.11.38s0-.2.05-.24c0-.22-.16.43-.14.09l0-.2s.08,0,.07,0a7.92,7.92,0,0,1,.13-.83c-.08.26-.21.8-.23.66v-.14s0,0,0,.06,0-.08,0-.08c0-.25,0-.12,0-.12a3.36,3.36,0,0,0-.08.54.08.08,0,0,1,0-.05.06.06,0,0,0,0,0v0l.05,0c0,.18-.08.32-.07.14l-.1.53c0-.45,0-.67,0-.94a1.9,1.9,0,0,0-.25.73c0,.07,0-.15,0-.24a.33.33,0,0,0,0-.13,1,1,0,0,0-.15.45c0-.15.06-.34,0-.26l0-.11c0-.25-.1,0-.16.2s-.12.35-.15.08a.31.31,0,0,1,0,.1c-.12-.17-.28.25-.39,0,0,0,0,.08-.07.16v-.13l-.05.16c-.05.1-.07-.23-.15,0v0s-.08.06-.07,0,0,0,0,0v0a.17.17,0,0,1-.06.06s0-.08-.06,0a.28.28,0,0,1-.06.06h0s0,0,0,0l0,0v0l0,0s0,0,0,0,0,0,0,0l0,0s0,0,0,.08,0-.08,0-.08,0,.09,0,.08,0,0,0,0,0,0,.06,0c0,.1.06,0,0,.18,0,0,0-.08.05-.08,0,.17.06.07,0,.29,0-.17.08,0,.12-.09s0,.05,0,0a.84.84,0,0,1,0,.19,1.32,1.32,0,0,1,.09-.35c0,.24,0,.25-.05.46,0-.18.06-.13.06-.3a2.45,2.45,0,0,1,0,.3c0-.31,0,0,.05-.21,0,.19,0,.31,0,.25A.41.41,0,0,1,27.1,91.79Zm.76-.07h0Zm.06,0s0,0,0,0l0-.23C27.93,91.57,27.93,91.64,27.92,91.75Zm.22-2.38c0-.05,0,0,0,.08l0,0v0Z"/><path class="cls-2" d="M28.05,89.82v.09l0-.1Z"/><path class="cls-2" d="M31.05,95.25h0l0,0Z"/><polygon class="cls-2" points="28.36 93.1 28.39 92.98 28.36 93.08 28.36 93.1"/><path class="cls-2" d="M30.14,94.83l0,0Z"/><path class="cls-2" d="M30.06,94.91l0,0A.12.12,0,0,0,30.06,94.91Z"/><path class="cls-2" d="M30,94.92,30,95h0Z"/><path class="cls-2" d="M29.32,93.54h0C29.2,93.53,29.24,93.53,29.32,93.54Z"/><path class="cls-2" d="M30.45,94.1,30.26,94S30.22,94,30.45,94.1Z"/><path class="cls-2" d="M28.8,93.45h0Z"/><path class="cls-2" d="M30.27,94c-.08,0-.06,0,0,0S30.33,94,30.27,94Z"/><polygon class="cls-2" points="29.64 95.32 29.64 95.32 29.64 95.33 29.64 95.32"/><path class="cls-2" d="M29.64,95.33h0Z"/><path class="cls-2" d="M29.62,95.36v0A0,0,0,0,0,29.62,95.36Z"/><path class="cls-2" d="M29.78,95.21v0Z"/><path class="cls-2" d="M29.81,95.16s0,0,0,0v0C29.78,95.11,29.81,95.23,29.81,95.16Z"/><path class="cls-2" d="M30.15,95.65l-.07,0c0,.06.06.13,0,.14S30.07,95.63,30.15,95.65Z"/><path class="cls-2" d="M30.36,95.73s0,.09.05.13A.14.14,0,0,0,30.36,95.73Z"/><path class="cls-2" d="M31.57,95.12l.29.17S31.75,95.23,31.57,95.12Z"/><polygon class="cls-2" points="30.1 94.14 29.9 94.06 30.19 94.21 30.1 94.14"/><polygon class="cls-2" points="32.49 95.08 32.53 95.11 32.44 95.02 32.49 95.08"/><path class="cls-2" d="M33.07,92.39l-.58.16C32.6,92.54,33.26,92.39,33.07,92.39Z"/><path class="cls-2" d="M32.05,91.45c.25-.19.39-.34.13-.18C32.16,91.32,32,91.48,32.05,91.45Z"/><polygon class="cls-2" points="29.89 89.04 29.97 88.87 29.88 89.01 29.89 89.04"/><path class="cls-2" d="M70.81,51.49l0,0,0,0Z"/><path class="cls-2" d="M70.59,51.57s-.07.09,0,.11,0,0,.06-.1.06,0,.06,0l.06,0a.29.29,0,0,0-.15.07S70.59,51.58,70.59,51.57Z"/><path class="cls-2" d="M67.2,52.07l0,0Z"/><path class="cls-2" d="M65.08,52.06a.19.19,0,0,0,0-.11A.21.21,0,0,0,65.08,52.06Z"/><path class="cls-2" d="M64.63,51.52l0,0C64.64,51.51,64.63,51.48,64.63,51.52Z"/><path class="cls-2" d="M67.2,52.07,67.11,52C67.14,52.08,67.16,52.05,67.2,52.07Z"/><path class="cls-2" d="M70.22,52a.05.05,0,0,0,0,0l0,0Z"/><path class="cls-2" d="M68.05,51.71h0l0-.11Z"/><path class="cls-2" d="M68.75,51.61a1.1,1.1,0,0,0,0,.27.3.3,0,0,1,0-.14Z"/><path class="cls-2" d="M70,51.69v0Z"/><path class="cls-2" d="M67.52,51.68l0-.1Z"/><path class="cls-2" d="M47.88,52.09v0S47.88,52.08,47.88,52.09Z"/><polygon class="cls-2" points="47.25 51.4 47.26 51.4 47.26 51.4 47.25 51.4"/><path class="cls-2" d="M63.9,50.93h0S63.9,50.89,63.9,50.93Z"/><path class="cls-2" d="M58.27,51.27c0,.5-.13.64,0,1.19A7.45,7.45,0,0,0,58.27,51.27Z"/><path class="cls-2" d="M70.2,52l0,0Z"/><path class="cls-2" d="M58.23,52.46h0v0Z"/><path class="cls-2" d="M62.5,51.2l0,.23A.84.84,0,0,0,62.5,51.2Z"/><path class="cls-2" d="M63.67,51.89l0-.06S63.66,51.89,63.67,51.89Z"/><path class="cls-2" d="M62,52s0-.11,0,0V52C62,51.9,62,51.87,62,52Z"/><path class="cls-2" d="M61.43,52l0,.1,0,0Z"/><path class="cls-2" d="M49.5,53.27a2.23,2.23,0,0,1,0-.23C49.5,53.22,49.4,53.22,49.5,53.27Z"/><path class="cls-2" d="M70.21,51.91a.07.07,0,0,1,0,.05l0,0S70.21,51.92,70.21,51.91Z"/><path class="cls-2" d="M62.37,56.13l-.11-.06A.1.1,0,0,0,62.37,56.13Z"/><path class="cls-2" d="M53.8,55.15l0,.05S53.78,55.2,53.8,55.15Z"/><path class="cls-2" d="M62,56.2a2.63,2.63,0,0,0-.08-.36V56Z"/><path class="cls-2" d="M49.54,53Z"/><path class="cls-2" d="M48.82,53.14c.08.07.11-.22.18-.35s0,.22,0,.38c.08,0,.21-.24.25-.2s0,.07,0,.12c.13-.18.19.13.36-.14a.25.25,0,0,1,0,.09c0-.17.08-.32.11-.44s.14-.17.09,0c0,0-.05.07-.08.12l.07-.07c0,.32-.09.08-.15.3.1,0,.27-.26.3-.15-.07.32-.17,0-.16.35L49.66,53c-.07.51,0-.07-.13.48.09.17.18-.06.27.11.08-.16.07-.27.14-.44.27-.25-.09.92.16.54.1-.21.23-.65.26-.37l-.14.39c.11.11.23-.56.28-.22-.07.16-.13.1-.13.15,0,.38.12-.2.19-.17l-.09.38c.15,0,.36-.2.53-.21a.92.92,0,0,0-.09.38c.23-.12.37.24.49.59l.16-.36a.56.56,0,0,1,0,.26c0,.18.06-.25.12-.39s0,.25,0,.36c.2-.28.52-.61.56-.11l0,.12c.07.21.29-.83.31-.4l0,.07c.19.28.51-.06.56.68.15-.66.18.37.35-.57a4.07,4.07,0,0,0,.12,1.06c0,.06.17-.59.25-.67l-.08.51.17-.52-.06.64.08-.12a1.49,1.49,0,0,1,0-.4c.12-.21.16.43.12.7l.28-.38a1.34,1.34,0,0,1-.13.4c.19-.51-.06.57.12.1a2.63,2.63,0,0,1,.07-.42c0,.33.13.37.23.25l-.06.37c.15.14.36-.09.54,0a2.41,2.41,0,0,1,.11-.91l-.05.6a5.2,5.2,0,0,1,.1-.67,2.39,2.39,0,0,1-.1.87l.11-.19c0,.18,0,.27-.08.49.08-.36.08.64.2,0v.18c.18,0,.28-.14.44-.14a4.42,4.42,0,0,1,.18-.82c.09.18.18.62.31.59a2.87,2.87,0,0,0,.13-.76c0,.49.11.46,0,.8.16-.05.21-.07.44-.45a1.77,1.77,0,0,1,0-.46c0-.08.06.22,0,.46v0c.26-.73.44,1.52.67.49V56l.21-.54c.08.09-.07.38,0,.7.23-.84.31.14.5-.42.09,1.51.46-.09.61.88v-.35c0-.35,0,.2.08.29a3.14,3.14,0,0,1,0-.52c.38-.42.78.51,1.2.82.15.08,0-1.84.23-1l0,.66c.27-.8.6,0,.85-.71,0,.15,0,.34,0,.35.09.46.23,0,.21-.39a3.4,3.4,0,0,1,.06.54c.08.26.12-.62.18-.16a.5.5,0,0,1,0,.19c0-.23.19,0,.12-.5.12.25.18-.26.29.05,0-.6.2.26.15-.58.06.86.24.67.27.25,0,.26.08.26.09.62.07,0,.13-.2.07-.63.24,1,.2-.86.41.41a4.24,4.24,0,0,1,.52-1.07c.09.81-.21.13-.1,1,.15-.38.17-1.09.38-.93a1.31,1.31,0,0,1,0,.49c.15-.37.37,0,.48-.49a.72.72,0,0,1,0,.21s.09.09,0-.25l0,.1a8.64,8.64,0,0,1-.06-1.35c.1,1,.2.22.3,1.48a1.75,1.75,0,0,0,0-.47.79.79,0,0,1,.08.46c.09-.22,0-.57.1-.59,0,.17,0,.23,0,.43,0-.34,0-.67.12-.55s0,.22,0,.23c.15-.1.12-.89.34-.64.07.69.09.21.2.79l.06-.2-.08-.27c.07,0,.07-.45.17-.28l0,.25.13-.15-.12-.19c0-.31-.15-.71,0-.58,0,.06.07,0,.17.3h0c0-.18,0-.37.09-.25s.11.6.14.71c-.05-.46.16-.18.11-.66a2.18,2.18,0,0,0,.08.44l0-.36a1.09,1.09,0,0,1,.11.37c.12,0-.17-.65,0-.4a.53.53,0,0,1,0,.14c.15.11.19-.29.35-.15.14.49-.08.15,0,.56.15-.15.22-.7.4-.65l0,0c-.13-.66.19.28.2,0a1.29,1.29,0,0,0,0,.29c.13,0,.18-.25.3-.5l0,.16c.09.11.18,0,.27.05,0-.15,0-.14,0-.34.42.7.3-.54.65,0,0,0,0,.13,0,.12l.13-.19c-.07-.19-.06-.11-.14-.25s0-.24,0-.25c0,.16.09.32.15.41s0-.13,0-.18c.18.3-.1-.4.08-.21l0,.1c0-.06,0-.2.09-.19.08.2,0,.11,0,.29.06,0,0-.43.13-.26s0,.08-.06.15.12.14.18.16h0l.14,0,0,0c-.07-.52.13-.17.15-.5,0,.31,0,.17.08.36,0,0,.11.07.11.13,0-.17.12.06.12-.18,0,.05,0,0,.08.11.05-.08,0-.08-.06-.15s.29.05.36-.25c.09-.15.07-.28.17-.38s0,.14,0,.14.12,0,.17-.08,0,0,0,.06,0-.11.07-.1a.53.53,0,0,1,0,.12,1.18,1.18,0,0,1,.13-.18s0,.07,0,.11.15-.14.15-.19h0s0,0,0,.05-.08,0-.09,0l0,0c-.08-.09-.16.08-.23.13V51.7s0,.08,0,.13-.07-.09,0-.13,0,.07-.12,0,0,0,0,0l0,.05s0-.09,0-.08c-.14-.07-.14.16-.22,0h0c-.14.1,0,.13,0,.32l-.19-.32,0,.15s-.05,0-.07-.07c0,.12,0,.06,0,.17-.12-.12-.18.14-.28-.13,0,.14.1.08,0,.19-.12-.3-.08.08-.19,0s.06-.09,0-.23c0,.3-.16,0-.2,0,.07.25-.1.13-.17.23,0-.09-.23-.11-.35-.21l0,0c.07.3,0,.26-.09.34a.69.69,0,0,1,0-.35h-.07a.27.27,0,0,1,0,.21L68,51.66c-.09,0-.09.32-.25.16.06.25.27.65.2.85a1.38,1.38,0,0,1-.09-.42s0,.12,0,.07l0-.24c-.08-.09,0,.2,0,.18,0-.19-.07-.13-.1-.29s0,.08,0,0a.67.67,0,0,1-.2-.29c0,.12.07.27,0,.3s-.09-.24-.17-.34c0,.15-.07,0,0,.31,0,0-.06-.14-.1-.23,0,.14-.19.06-.06.4l0,0h0c-.07.36-.35-.14-.46,0l0-.12c-.05.15-.17.11-.17.38,0,0-.11-.21-.14-.36,0,.1,0,.25-.16.05,0-.23-.06-.2,0-.17-.11-.1-.17-.31-.19,0,0-.34-.15-.42-.17-.32l.11.24s-.08,0-.13,0l-.07-.45c-.29-.57-.12,1-.44,0,0,.34.14.23.17.62a5,5,0,0,1-.33-.74c-.17-.27,0,.71-.12.53a2.36,2.36,0,0,1,.1.83,2.16,2.16,0,0,1-.22-.89s0,0,0,.1a.59.59,0,0,0,0-.33l0,.18c-.07-.19-.18-.16-.21-.46a.51.51,0,0,0,.09.39c-.15-.26-.16,0-.3-.17a1.41,1.41,0,0,1,.08.32c-.2-.23,0,.35-.1.44-.11-.28-.1-.68-.16-.44a1.59,1.59,0,0,1-.1-.66c0,.37-.22-.24-.28-.32l0-.15c0,.09,0,.09-.06.09l.09.38a.36.36,0,0,1-.09-.23c0,.26.12.65.12,1-.07-.2-.09.22-.18-.3.15.17-.1-.53,0-.61s0,.06-.07,0a.82.82,0,0,1,0-.14c-.19-.48,0,.59-.09.58,0-.3-.11-.57-.12-.5a2,2,0,0,1,.09.73c-.12-.23-.06.18-.11.15l.06.11c0,.31,0,.27-.06.37,0-.24,0-.17,0-.27,0,.54-.22-.55-.25-.18-.07-.21-.08-.58-.14-.72,0,.4-.15-.43-.21-.1a1.83,1.83,0,0,1,.06.73l.12-.3,0,.62c.05,0,.07-.27.11-.2a1.5,1.5,0,0,0,0,.59c-.15-.63-.09.37-.22,0L63,51.44c-.17-.47-.14.54-.32.28l.07.18c0,.43-.09.07-.12.24a4.86,4.86,0,0,0-.13-.71c0,.27-.11,0,0,.7l-.12-.48c-.14-.19,0,1.05-.16.94a5.43,5.43,0,0,1,0-1s-.08-.06-.06.19c0-.23-.06.51-.13.16,0,.16,0,.55,0,.52a.82.82,0,0,1,0-.18A2.75,2.75,0,0,0,62,53c-.22-1.16-.35.1-.53-.91a.74.74,0,0,1-.25.29c0-.12,0-.19,0-.15-.13-.36,0,1.1-.15.71-.1-.62,0-.34,0-.57-.09-1.27-.14.17-.26-.57v-.07c-.08-.43-.12.49-.23.4v-.19a2.07,2.07,0,0,1-.27,1,3.39,3.39,0,0,0,0-.78c0,.08.05.83,0,1a8.4,8.4,0,0,1-.14-1.06l.09,0c-.07-.71-.11,0-.16-.1v-.31c-.13.1-.11.88-.25.83l0,.23c-.06.78-.07-.44-.14.14l0-.78a6,6,0,0,1-.26.91,9.79,9.79,0,0,1,.21-1.23c-.05,0-.17.05-.19.44,0-.07,0-.27.06-.14-.05.62-.13.92-.23.91,0-1.53-.26-.38-.33-1.57-.17.56-.33-.25-.53-.16,0,1.19-.06,0-.08,1.25,0,.08-.06.06-.06,0l-.13-.73c0-.35.06-.27.06-.54-.1-.09,0-.52-.08-.84,0,.44,0,.63-.1.46l.06.56c-.17.64-.09-1-.25-.38l.06-.38c-.08.23-.26,0-.39,1a2.33,2.33,0,0,1,0-.55c-.16-.15-.45,1-.55.42l0-.29c0,.08-.09.54-.11.25a2.2,2.2,0,0,0,0-.3c0,.1-.13.5-.16.33l.06-.32c-.14-.37-.32.79-.49,1a2.27,2.27,0,0,0-.09-1.24l0-.12c-.19-.1-.4.68-.63,1,0-.88-.34-.37-.47-.85a2.35,2.35,0,0,1-.13.69c0-.16-.19.54-.09-.17h0c.06-.7-.06-.51-.12-.53l-.14.92c0-1.33-.56.45-.48-.71-.08.22-.13.22-.21.44l.08-.47c-.11-.11-.16-.17-.33-.05l.09-.33c-.08,0-.34,1.3-.43,1.32l.1-.66c-.15,0-.2-.56-.46,0a1.2,1.2,0,0,1,.09-.3c-.06,0-.19-.4-.33.44.11-.55-.15-.06-.28.17l.1-.39c-.18.5-.21.63-.34.76,0-.05,0-.31.06-.21,0-.2-.14.36-.19.15l.09-.24c-.07,0-.1.09-.2.37S51.9,52,52,51.66c-.06.2-.16.46-.19.36a1.11,1.11,0,0,1,.08-.23c-.08-.25-.29.39-.3,0a1.57,1.57,0,0,0,0-.2c.1,0,.18,0,.17.07a3.29,3.29,0,0,1,.18-.83c-.13.25-.37.76-.42.61l0-.11v0s0,0-.06,0,0-.09,0-.09c.06-.25-.06-.14-.1-.15-.08.33-.12.27-.14.54,0,0,0,0,.05-.05l0,0v0l.11,0c-.08.17-.15.3-.15.12-.07.2-.15.41-.19.51.06-.46,0-.7.06-1-.18.17-.34.12-.57.64-.06.06,0-.16,0-.24s.06,0,.09-.12c-.11.13-.24,0-.35.39-.05-.17.14-.32,0-.27l.05-.1c-.05-.28-.22-.06-.38.1s-.31.29-.36,0a.17.17,0,0,1,0,.1c-.25-.26-.72.07-.94-.25-.08-.06-.12.05-.2.11l0-.13-.14.12c-.16,0-.15-.28-.38-.15v.06c-.06,0-.2,0-.18-.05s0,0,0,0v0l-.17,0c-.11,0,.05-.08-.13-.08a.55.55,0,0,1-.17,0s.06,0,.06,0l-.05,0s0,0,.06.08l.09.05,0,0-.07-.06a.14.14,0,0,0,.09.07.14.14,0,0,0,0,.06l.1,0s0,0,0,.08,0-.09.06-.06,0,.09.06.09,0,0,0,0,.11.09.15.05.15.09.1.22A.19.19,0,0,1,48,52c-.13.13.14.13,0,.33.12-.14.21.09.35,0s0,.05,0,0,0,.15,0,.23c.08-.21.18-.2.27-.31,0,.26-.13.24-.18.46.06-.18.17-.09.21-.27a.93.93,0,0,1,0,.32c.11-.31.06,0,.17-.19,0,.21-.08.32,0,.27A.24.24,0,0,1,48.82,53.14Zm2.2.41h0Zm.18.07-.07,0a.58.58,0,0,1,.07-.23A.81.81,0,0,0,51.2,53.62Zm.2-2.43s0,0,0,.09l-.06,0v0Z"/><path class="cls-2" d="M51.24,51.62a0,0,0,0,1,0,0v.08l0-.1Z"/><path class="cls-2" d="M67.23,52.12h0l0,0Z"/><polygon class="cls-2" points="53.55 55.32 53.57 55.2 53.54 55.3 53.55 55.32"/><path class="cls-2" d="M68.45,52.77l0,.06S68.46,52.79,68.45,52.77Z"/><path class="cls-2" d="M68.87,52.63l.08,0Z"/><path class="cls-2" d="M69.2,52.57l0-.08h0Z"/><path class="cls-2" d="M64.15,55.1s0,0,0,0S64.14,55.19,64.15,55.1Z"/><path class="cls-2" d="M65.56,53.62a1.48,1.48,0,0,1,0,.22S65.61,53.86,65.56,53.62Z"/><polygon class="cls-2" points="62.38 56.14 62.38 56.13 62.37 56.13 62.38 56.14"/><path class="cls-2" d="M65.48,53.85c0,.08.06,0,.07,0S65.49,53.78,65.48,53.85Z"/><polygon class="cls-2" points="70.47 51.76 70.48 51.75 70.48 51.75 70.47 51.76"/><path class="cls-2" d="M70.48,51.75l0,0Z"/><path class="cls-2" d="M70.52,51.7l0,0Z"/><path class="cls-2" d="M70.09,52v0Z"/><path class="cls-2" d="M70,52.1s.1,0,.13,0v0C70.09,52.11,70,52,70,52.1Z"/><path class="cls-2" d="M69.27,51.74l.12,0c0-.05-.09-.13,0-.15C69.15,51.47,69.42,51.74,69.27,51.74Z"/><path class="cls-2" d="M68.89,51.69s0-.1,0-.14S68.82,51.63,68.89,51.69Z"/><path class="cls-2" d="M66.4,52l-.07-.32S66.36,51.76,66.4,52Z"/><polygon class="cls-2" points="66.31 53.79 66.4 53.99 66.36 53.66 66.31 53.79"/><polygon class="cls-2" points="65.51 51.31 65.52 51.26 65.47 51.39 65.51 51.31"/><path class="cls-2" d="M61.5,51.49l.06.6C61.58,52,61.54,51.3,61.5,51.49Z"/><path class="cls-2" d="M59.8,52.13c0-.31-.08-.51-.1-.2C59.74,52,59.78,52.21,59.8,52.13Z"/><polygon class="cls-2" points="54.68 51.11 54.74 50.93 54.65 51.08 54.68 51.11"/><path class="cls-2" d="M72.05,74h0Z"/><path class="cls-2" d="M71.83,73.89s-.11,0-.09.06.06,0,.11,0,.06,0,.05,0H72a.33.33,0,0,0-.15,0S71.82,73.9,71.83,73.89Z"/><path class="cls-2" d="M68.83,72.18v0S68.84,72.19,68.83,72.18Z"/><path class="cls-2" d="M66.9,71.12s0-.05,0-.09A.19.19,0,0,0,66.9,71.12Z"/><path class="cls-2" d="M66.69,70.43v0S66.71,70.4,66.69,70.43Z"/><path class="cls-2" d="M68.83,72.18l0-.14C68.77,72.16,68.81,72.14,68.83,72.18Z"/><path class="cls-2" d="M71.31,73.93l0,0h0Z"/><path class="cls-2" d="M69.77,72.35h0l0-.11Z"/><path class="cls-2" d="M70.41,72.71s-.09.16-.13.24c0-.07.06-.1.08-.11Z"/><path class="cls-2" d="M71.29,73.55h0Z"/><path class="cls-2" d="M69.33,72l0-.11Z"/><path class="cls-2" d="M49.59,72.49v0A0,0,0,0,0,49.59,72.49Z"/><polygon class="cls-2" points="48.69 72.28 48.7 72.28 48.7 72.28 48.69 72.28"/><path class="cls-2" d="M66.18,69.6h0S66.2,69.57,66.18,69.6Z"/><path class="cls-2" d="M59.82,68.71c0,.51-.15.64-.07,1.2A6.3,6.3,0,0,0,59.82,68.71Z"/><path class="cls-2" d="M71.29,73.91h0A0,0,0,0,0,71.29,73.91Z"/><path class="cls-2" d="M59.75,69.91h0v0Z"/><path class="cls-2" d="M64.58,69.36l0,.23S64.57,69.47,64.58,69.36Z"/><path class="cls-2" d="M65.58,70.41v-.08A.38.38,0,0,0,65.58,70.41Z"/><path class="cls-2" d="M63.86,69.94s0-.12,0-.06V70C63.84,69.88,63.85,69.85,63.86,69.94Z"/><path class="cls-2" d="M63.23,69.81v.11l0,0Z"/><path class="cls-2" d="M51.49,72.68a1.42,1.42,0,0,1-.07-.22C51.46,72.64,51.39,72.69,51.49,72.68Z"/><path class="cls-2" d="M71.32,73.88s0,0,0,0h0S71.33,73.89,71.32,73.88Z"/><path class="cls-2" d="M63.15,74.07,63.08,74C63.09,74,63.12,74.07,63.15,74.07Z"/><path class="cls-2" d="M55.75,73l0,.06S55.74,73.08,55.75,73Z"/><path class="cls-2" d="M62.8,74.05a2.19,2.19,0,0,0,0-.37l0,.14Z"/><path class="cls-2" d="M51.42,72.46Z"/><path class="cls-2" d="M50.88,72.89c.1,0,0-.24,0-.39s.1.2.17.34c0,0,0-.3.11-.29a.5.5,0,0,1,0,.12c0-.22.22,0,.24-.29l0,.08a3.31,3.31,0,0,1-.1-.44s0-.21.09,0c0,0,0,.08,0,.15l0-.1c.11.31,0,.11,0,.34.07-.1.11-.37.19-.28.08.32-.13.11,0,.39l-.13-.12c.17.48-.07,0,.11.48.15.11.11-.14.27,0,0-.18-.07-.28-.07-.46.12-.34.31.87.36.43,0-.23-.08-.69.06-.44l0,.41c.14,0,0-.6.15-.31,0,.17-.07.14,0,.19.14.34,0-.24.08-.24l.08.39c.12,0,.22-.33.36-.4a1.31,1.31,0,0,0,.06.38c.15-.2.4.07.62.38V72.8a.51.51,0,0,1,0,.26c.09.16,0-.26,0-.41s.09.24.08.35c.07-.32.25-.74.43-.27v.12c.12.19,0-.88.15-.47v.08c.24.2.44-.23.67.49,0-.68.24.32.17-.63a5.64,5.64,0,0,0,.34,1s0-.6.07-.71l0,.52,0-.54.09.63,0-.13a1.61,1.61,0,0,1-.07-.39c.07-.24.23.38.25.65l.16-.44a2.39,2.39,0,0,1,0,.43c.07-.55.05.57.11.07a3.16,3.16,0,0,1,0-.43c.06.33.17.34.24.21v.38c.15.11.29-.15.45-.13a2.66,2.66,0,0,1,0-.92l0,.6a4.91,4.91,0,0,1,0-.68,2.69,2.69,0,0,1,0,.88l.06-.21c0,.18,0,.28,0,.5,0-.37.15.62.17,0v.18c.16,0,.22-.18.35-.2a6,6,0,0,1,.08-.84c.1.18.21.61.33.57a4.46,4.46,0,0,0,.06-.77c0,.49.12.46.06.81.14-.07.18-.09.36-.48a2.69,2.69,0,0,1,0-.47c0-.08.07.22.07.46v0c.21-.74.42,1.49.6.45v0l.18-.53c.08.09,0,.37,0,.69.21-.83.27.15.44-.41,0,1.52.4-.07.49.9l0-.36c.06-.35,0,.21,0,.29a3.63,3.63,0,0,1,0-.51c.36-.41.64.58.93.91.11.1.25-1.82.32-1l-.11.65c.33-.77.5.06.82-.58,0,.15-.05.34-.08.34,0,.47.19,0,.24-.34a4.83,4.83,0,0,1,0,.53c0,.28.21-.58.17-.12a.43.43,0,0,1-.05.19c.07-.23.15.06.2-.47,0,.26.21-.22.23.09.14-.58.12.29.26-.53-.14.85,0,.69.18.3-.06.25,0,.27-.08.62.07,0,.16-.16.22-.59-.05,1,.38-.78.23.5a3.57,3.57,0,0,1,.74-.88c-.17.8-.22.06-.37.91.23-.33.46-1,.6-.79s-.1.33-.14.47c.24-.31.31.09.55-.31a.59.59,0,0,1-.07.2s0,.12.11-.22l0,.09a7.06,7.06,0,0,1,.41-1.29c-.27,1,.1.27-.26,1.49a2.2,2.2,0,0,0,.14-.45,1.24,1.24,0,0,1-.09.46c.14-.18.19-.53.28-.52s-.07.23-.12.41c.12-.31.24-.61.3-.47s-.05.22-.08.22c.16,0,.44-.79.53-.47-.21.66,0,.23-.13.8l.12-.16,0-.28c.07,0,.24-.38.26-.18l-.12.22.17-.09,0-.22c.15-.27.18-.71.24-.53s.07,0,0,.35h0c.08-.17.17-.34.19-.2s-.17.59-.19.71c.15-.44.2-.1.38-.55a2.51,2.51,0,0,0-.13.43l.12-.35a.81.81,0,0,1-.07.39c.09.08.15-.66.19-.35a.45.45,0,0,1-.06.13c.08.16.3-.17.37,0-.11.5-.14.11-.22.53.19-.08.51-.53.64-.39l0,0c.22-.64,0,.34.19,0a1.62,1.62,0,0,0-.1.28c.07.11.27-.12.49-.27l-.07.15c0,.14.15.1.2.18.06-.14.1-.11.14-.32,0,.81.54-.31.52.34,0,0-.09.1-.07.1l.2-.08c.06-.2,0-.12,0-.28s.14-.19.18-.18c-.12.11-.11.32-.12.43l.07-.19c0,.36.15-.37.18-.11l0,.1c.06,0,.14-.15.18-.11-.06.21-.08.08-.14.25.07,0,.26-.34.25-.13,0,0-.09,0-.14.08,0,.25,0,.19,0,.24h0l.08.12v-.06c.26-.45.2-.06.42-.31-.21.23-.08.15-.16.33a.25.25,0,0,1,0,.17c.11-.13,0,.12.21-.08,0,.06,0,0,0,.15.09,0,0-.1,0-.16s.17.23.41,0,.24-.16.38-.16-.09.1-.09.1.1.07.18.06a.06.06,0,0,0,0,.07c.05,0,.07-.08.12,0l-.09.09a.91.91,0,0,1,.21,0s0,0-.09.06.2,0,.24,0l0,0s0,0,0,0-.08,0-.08-.05h.05c0-.12-.18,0-.26-.06l.08-.09a.38.38,0,0,0-.13.06s0-.12.06-.11-.07,0-.09-.08v0h-.07s0-.1.06-.06c-.06-.15-.21,0-.2-.12h0c-.16,0-.07.11-.24.22l.07-.37-.07.13a.07.07,0,0,1,0-.09c-.09.07,0,.06-.08.14,0-.17-.23,0-.14-.28-.07.12,0,.13-.08.18.1-.3-.11,0-.12-.15s.11,0,.1-.21c-.14.26-.09-.13-.17-.11-.09.24-.15,0-.27.08s-.12-.23-.16-.38l0-.05c-.13.28-.19.18-.28.22a.88.88,0,0,1,.17-.32l-.06,0c0,.09-.08.13-.14.15l.1-.23c-.08,0-.25.19-.3,0-.09.25-.14.7-.31.82a1.57,1.57,0,0,1,.16-.4s-.07.1-.07,0l.12-.21c0-.11-.09.18-.12.14s0-.14.07-.29,0,.09,0,0a.6.6,0,0,1,0-.34c0,.11-.09.26-.13.27s0-.25,0-.38c-.07.13-.07,0-.17.26,0,0,0-.16,0-.24-.09.11-.21-.06-.27.3v0h0c-.24.27-.23-.3-.41-.22l0-.12c-.13.1-.21,0-.35.24a.88.88,0,0,1,.07-.39c-.1.06-.14.2-.17,0,.13-.19,0-.2.11-.13-.05-.14,0-.36-.2,0,.13-.31.06-.44,0-.36v.26c-.06,0-.09,0-.12-.06l.15-.43c0-.63-.57.81-.44-.19-.14.31,0,.27-.12.64a5.33,5.33,0,0,1,0-.82c0-.32-.29.65-.35.42a2.18,2.18,0,0,1-.27.79,2,2,0,0,1,.18-.9S67,71,67,71a.55.55,0,0,0,.12-.32l-.06.17c0-.2-.11-.22,0-.51a.52.52,0,0,0-.08.4c0-.3-.15-.08-.22-.29a.89.89,0,0,1-.06.32c-.1-.29-.15.32-.28.37,0-.3.19-.67,0-.47a1.72,1.72,0,0,1,.17-.64c-.18.32-.12-.31-.16-.41l.08-.13c0,.08-.07.06-.1,0l-.06.4a.4.4,0,0,1,0-.25,10,10,0,0,1-.27,1c0-.21-.17.17-.06-.35.08.22.1-.53.23-.57,0,0-.06,0-.08,0a.32.32,0,0,1,.05-.13c0-.52-.19.56-.31.51.08-.29.09-.58.06-.52a1.76,1.76,0,0,1-.19.71c0-.26-.12.15-.16.11l0,.12c-.08.29-.12.24-.19.32,0-.23.08-.14.09-.25-.18.51,0-.6-.19-.27,0-.22.11-.57.11-.73-.18.37,0-.45-.2-.16a1.66,1.66,0,0,1-.18.71l.23-.24-.23.57s.16-.23.18-.15a1.23,1.23,0,0,0-.14.57c0-.64-.22.33-.21-.11l.21-1c0-.5-.33.48-.44.17l0,.2c-.1.42-.11,0-.19.19a4.73,4.73,0,0,0,.08-.72c0,.27-.12-.06-.26.66v-.49c-.1-.24-.33,1-.43.84a4.91,4.91,0,0,1,.23-.92s-.07-.09-.11.16c0-.24-.2.47-.18.11,0,.16-.12.54-.16.5l0-.18a2.41,2.41,0,0,0-.13.65c0-1.18-.37,0-.33-1a.76.76,0,0,1-.33.23c0-.11,0-.19,0-.15-.07-.37-.22,1.08-.29.67,0-.63.11-.32.1-.56.15-1.27-.18.14-.17-.61l0-.07c0-.44-.23.45-.33.34s0-.11,0-.19a2.37,2.37,0,0,1-.45,1,4,4,0,0,0,.12-.77c-.06.06-.08.81-.19,1a7.77,7.77,0,0,1,0-1.07l.09,0c0-.71-.12,0-.15-.12l0-.31c-.16.09-.23.86-.38.79v.24c-.16.76,0-.44-.16.12l0-.78a9,9,0,0,1-.36.88,8,8,0,0,1,.34-1.21c-.06,0-.19,0-.25.43,0-.08.07-.27.08-.14-.12.61-.23.91-.33.88.14-1.52-.24-.41-.23-1.6-.23.56-.37-.25-.6-.17,0,1.19-.07,0-.12,1.25,0,.07-.07,0-.07,0l-.12-.73c0-.35.06-.26.07-.54-.11-.09,0-.51-.09-.84,0,.44-.06.62-.12.46l.07.56c-.19.64-.1-1-.29-.38l.06-.38c-.09.22-.31,0-.41,1a2.55,2.55,0,0,1,0-.56c-.19-.13-.45,1-.6.46l0-.29c0,.08-.07.55-.11.26a1.51,1.51,0,0,0,0-.31c0,.1-.1.51-.15.35l0-.33c-.19-.37-.29.8-.45,1a2.18,2.18,0,0,0-.23-1.22v-.12c-.23-.07-.37.74-.57,1.08-.15-.87-.44-.32-.67-.77a2.34,2.34,0,0,1,0,.7c-.06-.15-.11.56-.14-.16h0c-.07-.69-.16-.49-.24-.49l0,.92c-.28-1.29-.49.58-.68-.57,0,.24-.09.25-.12.48l0-.47c-.15-.09-.22-.13-.37,0v-.34c-.1,0,0,1.34-.08,1.38l-.09-.67c-.16,0-.38-.47-.47.16,0-.09,0-.28,0-.31s-.34-.32-.22.52c-.06-.56-.17,0-.22.26l0-.41c0,.53,0,.67-.07.83,0,0-.06-.3,0-.21-.1-.19,0,.38-.13.2v-.26c-.09,0-.06.12-.07.42s-.16-.07-.22-.39c0,.2,0,.48-.05.4a.78.78,0,0,1,0-.24c-.17-.21-.13.47-.28.15a.59.59,0,0,0-.05-.2c.11,0,.2,0,.2,0a3.1,3.1,0,0,1-.15-.84c0,.29-.07.85-.17.73l0-.1v0s0,0,0,.07-.06-.07-.09-.06c-.05-.25-.12-.1-.16-.09.06.33,0,.29.09.54t0-.06s0,0,0,0v0l.1-.06c0,.18,0,.33-.09.17,0,.21,0,.44,0,.54-.14-.44-.29-.64-.35-.9-.1.23-.28.25-.27.82,0,.08-.07-.14-.1-.22s0-.06,0-.14c-.05.16-.21.13-.16.49-.12-.13,0-.34-.12-.24v-.11c-.18-.22-.24.06-.3.28s-.14.41-.34.17a.11.11,0,0,1,.05.08c-.35-.09-.59.41-1,.26-.1,0-.08.12-.11.21l-.05-.12,0,.19c-.11.13-.29-.16-.4.09l0,0c-.06,0-.17.1-.18.05s0,0,0,0v0l-.13.1c-.11,0,0-.08-.15,0a1.51,1.51,0,0,1-.13.1s.06,0,.06,0l0,0s-.06,0,.09,0h.1l0,0h-.09a.17.17,0,0,0,.12,0l0,0,.09,0s0,0,0,.07-.06-.07,0-.08.06.07.1,0,0,0,0,0,.14,0,.15,0,.17,0,.2.13a.21.21,0,0,1,.1-.11c0,.19.18,0,.22.25,0-.18.21,0,.29-.16s0,0,0,0,.1.1.16.16c-.05-.21,0-.25.06-.39.13.23,0,.27.09.48-.05-.18.09-.16,0-.33a.91.91,0,0,1,.14.28c-.06-.31,0,0,.05-.24.12.17.09.32.16.22A.22.22,0,0,1,50.88,72.89Zm2-.58h0l0,0Zm.18,0H53c0-.12,0-.25,0-.24S53,72.2,53.07,72.3ZM52.32,70c0-.06,0,0,0,.07l0,.06V70Z"/><path class="cls-2" d="M52.34,70.45a0,0,0,0,0,0,0l0,.07v-.11Z"/><path class="cls-2" d="M68.84,72.24h0v0Z"/><polygon class="cls-2" points="55.57 73.24 55.56 73.12 55.56 73.23 55.57 73.24"/><path class="cls-2" d="M69.47,73.46s0,0,0,.06A.13.13,0,0,0,69.47,73.46Z"/><path class="cls-2" d="M69.87,73.59l0,.08S69.89,73.6,69.87,73.59Z"/><path class="cls-2" d="M70.17,73.74l0-.08h0Z"/><path class="cls-2" d="M64.92,73.58l0,0C64.85,73.69,64.88,73.66,64.92,73.58Z"/><path class="cls-2" d="M66.67,72.75a1,1,0,0,1-.1.18S66.61,73,66.67,72.75Z"/><polygon class="cls-2" points="63.16 74.08 63.16 74.07 63.15 74.07 63.16 74.08"/><path class="cls-2" d="M66.5,72.91c0,.09,0,.07.07,0S66.54,72.85,66.5,72.91Z"/><polygon class="cls-2" points="71.61 73.95 71.63 73.95 71.64 73.95 71.61 73.95"/><path class="cls-2" d="M71.64,74h0S71.64,73.94,71.64,74Z"/><path class="cls-2" d="M71.7,73.94h0A0,0,0,0,0,71.7,73.94Z"/><path class="cls-2" d="M71.17,73.88l0,0Z"/><path class="cls-2" d="M71,73.87s0,.08.11.07v0S71.09,73.82,71,73.87Z"/><path class="cls-2" d="M70.74,73.12l.08.1c0-.06,0-.15.06-.13C70.82,72.84,70.86,73.23,70.74,73.12Z"/><path class="cls-2" d="M70.47,72.86c.06,0,0-.1,0-.14S70.45,72.77,70.47,72.86Z"/><path class="cls-2" d="M68.19,71.65l.1-.32C68.23,71.36,68.25,71.46,68.19,71.65Z"/><polygon class="cls-2" points="67.23 73.22 67.21 73.44 67.32 73.13 67.23 73.22"/><polygon class="cls-2" points="67.66 70.66 67.69 70.62 67.58 70.71 67.66 70.66"/><path class="cls-2" d="M63.41,69.36l-.07.6C63.39,69.86,63.49,69.19,63.41,69.36Z"/><path class="cls-2" d="M61.46,69.69c0-.31,0-.52-.09-.21C61.41,69.52,61.43,69.77,61.46,69.69Z"/><polygon class="cls-2" points="55.75 68.88 55.78 68.69 55.72 68.86 55.75 68.88"/><path class="cls-2" d="M80.54,95.35h0Z"/><path class="cls-2" d="M80.28,95.31s-.1,0-.08.08.06,0,.11-.06.07,0,.06,0h.08a.44.44,0,0,0-.17,0S80.28,95.32,80.28,95.31Z"/><path class="cls-2" d="M76.66,94.23l0,0S76.67,94.24,76.66,94.23Z"/><path class="cls-2" d="M74.38,93.53s0-.06,0-.11A.18.18,0,0,0,74.38,93.53Z"/><path class="cls-2" d="M74,92.88l0,0S74,92.84,74,92.88Z"/><path class="cls-2" d="M76.66,94.23l0-.13C76.59,94.22,76.63,94.2,76.66,94.23Z"/><path class="cls-2" d="M79.73,95.46l0,0h0Z"/><path class="cls-2" d="M77.69,94.23h0l0-.11Z"/><path class="cls-2" d="M78.46,94.45s0,.18-.07.26c0-.08,0-.11.06-.12S78.46,94.51,78.46,94.45Z"/><path class="cls-2" d="M79.62,95.09h0Z"/><path class="cls-2" d="M77.15,94v-.1S77.15,94,77.15,94Z"/><path class="cls-2" d="M55.4,96.22v0Z"/><polygon class="cls-2" points="54.43 96 54.44 95.99 54.44 95.99 54.43 96"/><path class="cls-2" d="M73.33,92.13h0S73.35,92.1,73.33,92.13Z"/><path class="cls-2" d="M66.47,92c.09.5-.11.65,0,1.2A6.19,6.19,0,0,0,66.47,92Z"/><path class="cls-2" d="M79.72,95.45h0Z"/><path class="cls-2" d="M66.5,93.23h0l0,0Z"/><path class="cls-2" d="M71.61,92.13v.23A2.3,2.3,0,0,0,71.61,92.13Z"/><path class="cls-2" d="M72.84,93l0-.07S72.83,93,72.84,93Z"/><path class="cls-2" d="M70.92,92.8s0-.12,0,0v.07C70.89,92.75,70.9,92.71,70.92,92.8Z"/><path class="cls-2" d="M70.24,92.76v.11l0,0Z"/><path class="cls-2" d="M57.5,96.42a1.42,1.42,0,0,1-.07-.22C57.47,96.38,57.38,96.43,57.5,96.42Z"/><path class="cls-2" d="M79.74,95.41s0,0,0,0h0S79.75,95.42,79.74,95.41Z"/><path class="cls-2" d="M70.77,97l-.1-.07A.13.13,0,0,0,70.77,97Z"/><path class="cls-2" d="M62.27,96.63l0,.05S62.27,96.68,62.27,96.63Z"/><path class="cls-2" d="M70.37,97a2.73,2.73,0,0,0-.05-.37l0,.14Z"/><path class="cls-2" d="M57.43,96.2Z"/><path class="cls-2" d="M56.81,96.63c.1,0,0-.24,0-.39s.09.2.16.34c.07,0,.08-.31.14-.29a.43.43,0,0,1,0,.12c0-.22.24,0,.28-.29l0,.08a3.31,3.31,0,0,1-.1-.44s0-.22.1,0c0,0,0,.08,0,.15l0-.1c.1.31-.05.11,0,.34.08-.1.14-.37.22-.28.08.32-.14.1,0,.39l-.13-.13c.18.49-.07,0,.1.48.17.12.14-.13.3,0,0-.18-.06-.27-.06-.45.15-.35.32.87.39.42,0-.23-.07-.69.08-.45l0,.41c.15.06,0-.59.17-.31,0,.17-.09.14-.06.19.16.35,0-.23.1-.24l.08.39c.15,0,.26-.33.41-.41a1.06,1.06,0,0,0,.07.38c.17-.2.45.07.69.37l0-.4a.57.57,0,0,1,0,.26c.1.16,0-.25,0-.41s.09.24.08.36c.09-.33.28-.75.49-.3v.13c.14.18,0-.88.17-.48v.08c.27.19.48-.24.75.47,0-.68.28.31.18-.65a4.38,4.38,0,0,0,.41,1c.06,0,0-.61.06-.71l.06.52,0-.55.12.63,0-.14a1.75,1.75,0,0,1-.09-.38c.07-.24.27.36.3.64l.18-.45a1.28,1.28,0,0,1,0,.42c.06-.54.08.57.14.07a3.28,3.28,0,0,1,0-.43c.09.33.21.34.29.2l0,.37c.17.11.33-.16.51-.15a2.38,2.38,0,0,1-.08-.92l.08.59c0-.36-.08-.22-.05-.67a2.12,2.12,0,0,1,.08.87l.07-.21c0,.18,0,.28,0,.5,0-.37.2.61.19,0l0,.18c.18,0,.25-.2.39-.22a4.31,4.31,0,0,1,0-.85c.12.17.27.59.4.55a4,4,0,0,0,0-.78c0,.49.17.45.13.8.15-.08.19-.1.37-.5a1.68,1.68,0,0,1-.06-.47c0-.08.09.21.1.45v0c.18-.76.59,1.45.72.4v.06l.16-.55c.09.08,0,.38,0,.69.16-.85.32.12.46-.45.18,1.51.45-.11.65.85l0-.36c0-.35.06.2.09.28a3.4,3.4,0,0,1,0-.51c.36-.44.78.51,1.16.81.14.09.07-1.83.25-1l0,.66c.28-.8.57,0,.85-.67,0,.15,0,.35,0,.34.06.47.22,0,.23-.36a4.87,4.87,0,0,1,0,.53c.05.28.15-.6.18-.14a.68.68,0,0,1,0,.19c0-.23.17.05.15-.48.1.25.2-.25.28.06.06-.6.17.27.21-.56,0,.86.16.68.24.28,0,.26,0,.26,0,.62.08,0,.15-.18.15-.61.11,1,.31-.83.34.46a3.53,3.53,0,0,1,.68-1c0,.81-.23.09-.26.95.21-.36.35-1,.54-.87,0,.11,0,.35-.07.49.21-.34.36,0,.56-.39a.71.71,0,0,1,0,.22s.07.1.09-.25l0,.1A6.51,6.51,0,0,1,73,94.79c-.12,1,.15.25,0,1.51a1.55,1.55,0,0,0,.07-.46.79.79,0,0,1,0,.46c.14-.19.12-.56.23-.55s0,.23-.06.42c.07-.32.15-.64.24-.51s0,.23,0,.23c.16-.06.33-.84.49-.55-.11.69,0,.23,0,.82L74,96v-.29c.08,0,.19-.41.24-.22l-.08.24.17-.11-.07-.22c.11-.29,0-.72.15-.56s.08,0,.1.35h0c0-.18.11-.36.16-.22s-.07.61-.07.72c.09-.46.21-.13.31-.61a3.23,3.23,0,0,0-.06.46l.07-.37a.87.87,0,0,1,0,.4c.11.06,0-.68.14-.38a.46.46,0,0,1,0,.13c.12.15.29-.22.4,0,0,.5-.12.12-.12.55.19-.11.44-.61.61-.48l0-.06c.1-.66.1.34.22,0a.9.9,0,0,0-.05.29c.11.1.26-.16.47-.35l0,.16c.06.14.18.07.25.14,0-.15.09-.12.08-.34.14.81.52-.4.65.24,0,0-.08.11-.06.11l.2-.12c0-.2,0-.12,0-.28s.1-.21.15-.21a.57.57,0,0,0,0,.44,1.25,1.25,0,0,0,0-.19c0,.35.08-.4.17-.15l0,.1c.06,0,.12-.17.17-.14,0,.22-.07.1-.1.28.08,0,.2-.39.24-.18,0,.06-.08,0-.12.11,0,.25,0,.18.1.22h0l.11.11,0-.06c.17-.5.21-.1.38-.39-.17.27,0,.16-.09.36,0,0,.07.11,0,.17.09-.16.09.1.2-.12,0,.06.07,0,0,.14.09-.05,0-.09,0-.17s.24.19.45,0c.16-.08.21-.21.36-.24s-.06.12-.06.12.12,0,.2,0,0,0,0,.07,0-.09.12,0a.58.58,0,0,1-.08.1,1.28,1.28,0,0,1,.22-.09s0,0-.08.08.21,0,.24-.09H80.1s0,0,0,0-.09,0-.09,0h0c0-.12-.2,0-.3,0l.06-.11-.12.09s0-.11,0-.12-.07,0-.12,0,0,0,0,0l-.07,0s0-.11,0-.08c-.1-.12-.21.07-.24-.07h0c-.17,0,0,.13-.19.27l0-.38,0,.15s0,0,0-.09c-.08.09,0,.07-.06.16-.06-.17-.24,0-.21-.25,0,.13.06.12,0,.2,0-.32-.12,0-.17-.13s.11-.06.06-.23c-.09.28-.14-.11-.21-.07,0,.25-.16.07-.28.13,0-.09-.18-.2-.26-.34v0c-.06.3-.16.22-.24.26a.81.81,0,0,1,.1-.34l-.07,0a.28.28,0,0,1-.11.18l.05-.25c-.09,0-.23.24-.32,0,0,.26,0,.71-.15.87a1.3,1.3,0,0,1,.08-.42s-.05.11-.07,0l.08-.22c0-.11,0,.19-.09.16,0-.2,0-.15,0-.31s0,.09.06,0a.53.53,0,0,1-.1-.34c0,.12,0,.27-.07.29s0-.25,0-.37c0,.13-.09,0-.13.28a.85.85,0,0,1,0-.25c-.07.13-.23,0-.22.35v0h0c-.2.3-.31-.26-.49-.15v-.12c-.11.12-.22,0-.31.29a.71.71,0,0,1,0-.39c-.08.08-.1.22-.19,0,.1-.21,0-.21.09-.15-.08-.13-.08-.35-.22,0,.07-.33,0-.45-.08-.36l0,.27c-.06,0-.1,0-.14,0l.07-.45c-.14-.63-.45.89-.5-.12-.09.33.08.27,0,.65-.09-.08-.12-.8-.14-.81-.1-.31-.18.69-.3.48a2.08,2.08,0,0,1-.13.82,1.8,1.8,0,0,1,0-.92s0,0,0,.11a.43.43,0,0,0,.06-.33l0,.18c0-.2-.16-.2-.11-.5a.47.47,0,0,0,0,.4c-.09-.29-.18,0-.28-.25a.94.94,0,0,1,0,.32c-.16-.26-.11.35-.23.42,0-.3.08-.7-.06-.47a1.41,1.41,0,0,1,.06-.66c-.14.35-.19-.29-.25-.38l.07-.14c0,.08-.07.07-.1.07v.4a.39.39,0,0,1-.05-.25,8.43,8.43,0,0,1-.11,1c0-.21-.15.2-.13-.34.13.21,0-.53.15-.59q0,.09-.09,0a.46.46,0,0,1,0-.14c-.1-.5-.1.59-.24.55,0-.29,0-.58,0-.52a1.83,1.83,0,0,1-.08.74c-.07-.25-.1.16-.15.12l0,.12c0,.31-.08.26-.15.35,0-.24.07-.16.05-.27-.1.54-.13-.58-.25-.23,0-.22,0-.59,0-.74-.13.39-.1-.45-.23-.13a1.62,1.62,0,0,1-.08.73l.2-.27-.15.6c.06,0,.14-.25.17-.18a1.31,1.31,0,0,0-.06.59c0-.64-.17.36-.24-.08l0-1.06c-.11-.49-.27.51-.43.23l0,.19c0,.43-.11,0-.18.22a5.21,5.21,0,0,0,0-.73c0,.27-.13,0-.18.69l-.06-.49c-.14-.22-.2,1-.33.9a4.86,4.86,0,0,1,.1-.95c-.05,0-.09-.08-.09.18,0-.24-.15.49-.18.13,0,.16,0,.55-.09.52v-.19a3,3,0,0,0-.05.67c-.11-1.18-.39.07-.49-.95a.87.87,0,0,1-.32.26c0-.11,0-.19,0-.15-.12-.36-.09,1.1-.23.7-.06-.63.08-.34,0-.57,0-1.27-.18.16-.27-.58l0-.08c-.07-.44-.19.48-.31.38s0-.11,0-.19a2.16,2.16,0,0,1-.36,1,3.4,3.4,0,0,0,0-.78c0,.07,0,.82-.08,1a6.8,6.8,0,0,1-.13-1.06l.1,0c0-.71-.13,0-.18-.1v-.31c-.15.1-.15.88-.31.83l0,.23c-.08.78-.08-.43-.16.14l0-.78a6.07,6.07,0,0,1-.3.91,7.61,7.61,0,0,1,.24-1.23c-.06,0-.2,0-.22.44,0-.07.05-.27.07-.14-.06.62-.14.92-.26.91,0-1.53-.3-.38-.42-1.57-.18.58-.41-.22-.65-.12.13,1.19-.07,0,0,1.26,0,.08-.07.06-.08,0l-.19-.72c-.06-.35,0-.27,0-.54-.12-.08-.07-.51-.17-.83,0,.43,0,.63-.09.47l.12.55c-.14.65-.19-1-.33-.36l0-.38c-.07.23-.33,0-.36,1a2.12,2.12,0,0,1,0-.55c-.22-.12-.41,1.07-.6.5v-.29c0,.09,0,.55-.1.26a1,1,0,0,0,0-.3c0,.1-.07.52-.13.35l0-.33c-.23-.34-.26.83-.41,1a2,2,0,0,0-.34-1.21v-.11c-.25-.06-.35.75-.54,1.11-.21-.86-.49-.29-.76-.73a2.12,2.12,0,0,1,0,.7c-.07-.15-.09.57-.15-.15h0c-.11-.69-.2-.48-.28-.48l.08.92c-.36-1.28-.5.6-.75-.54,0,.24-.09.25-.12.48l0-.47c-.15-.08-.23-.11-.39,0v-.33c-.1,0,0,1.34-.05,1.38l-.11-.66c-.17,0-.42-.46-.51.18a.84.84,0,0,1,0-.32c-.09,0-.37-.31-.22.53-.08-.55-.19,0-.24.27l0-.41c0,.54,0,.67-.07.84,0,0-.07-.31,0-.22-.12-.18,0,.38-.15.2v-.25c-.09,0-.06.12-.07.42s-.18-.06-.24-.39c0,.21,0,.49,0,.41a.84.84,0,0,1,0-.25c-.18-.2-.15.48-.31.16a.68.68,0,0,0-.05-.2c.12,0,.22,0,.21,0a3.09,3.09,0,0,1-.15-.83c0,.28-.08.85-.19.73l0-.1v0s0,0-.05.07-.06-.07-.09-.07c-.05-.25-.13-.09-.17-.08.06.33,0,.29.09.54t0-.06s0,0,0,0v0l.12-.06c0,.18,0,.33-.11.17,0,.21,0,.44,0,.54-.14-.44-.3-.63-.36-.9-.11.24-.31.26-.3.83,0,.08-.08-.14-.11-.22s0-.06,0-.15c-.06.17-.23.14-.18.51-.13-.13,0-.35-.13-.24v-.12c-.18-.22-.25.06-.33.28s-.16.41-.37.17a.2.2,0,0,1,.06.09c-.39-.1-.67.4-1.06.26-.1,0-.09.11-.13.21l0-.13-.07.19c-.12.13-.29-.16-.43.08l0,0c-.06,0-.19.11-.19.06a0,0,0,0,1,0,0v0l-.14.1c-.13,0,0-.08-.17,0a.57.57,0,0,1-.15.09l.07,0-.06,0s-.07,0,.1,0h.11l0,0H54.6a.17.17,0,0,0,.12,0l.06,0,.1,0s0,0,0,.08-.07-.07,0-.09.06.08.11,0,0,0,0,0,.15,0,.16,0,.19,0,.21.13a.22.22,0,0,1,.12-.11c-.05.19.2,0,.22.26,0-.19.24,0,.33-.17s0,.06,0,0,.11.1.17.16c0-.21.06-.25.09-.39.13.23,0,.27.07.48,0-.18.11-.16,0-.33a.73.73,0,0,1,.14.28c0-.31,0,0,.07-.24.12.17.08.32.17.22A.21.21,0,0,1,56.81,96.63ZM59.06,96h0l0,0Zm.2,0h-.09c0-.12,0-.24,0-.24S59.22,95.91,59.26,96Zm-.8-2.3c0-.06,0,0,.06.07l-.05.06v0Z"/><path class="cls-2" d="M58.48,94.17s0,0,0,0l0,.07v-.11Z"/><path class="cls-2" d="M76.68,94.29h0v0Z"/><polygon class="cls-2" points="62.08 96.86 62.07 96.74 62.06 96.84 62.08 96.86"/><path class="cls-2" d="M77.64,95.37a.13.13,0,0,0,0,.06A.15.15,0,0,0,77.64,95.37Z"/><path class="cls-2" d="M78.11,95.42l.06.07S78.13,95.43,78.11,95.42Z"/><path class="cls-2" d="M78.46,95.51l0-.08h0Z"/><path class="cls-2" d="M72.67,96.27a0,0,0,0,0,0,0C72.62,96.38,72.64,96.35,72.67,96.27Z"/><path class="cls-2" d="M74.45,95.17a2.07,2.07,0,0,1-.08.2S74.42,95.41,74.45,95.17Z"/><polygon class="cls-2" points="70.78 97 70.78 96.99 70.77 96.99 70.78 97"/><path class="cls-2" d="M74.3,95.36c0,.08,0,.06.07,0S74.33,95.29,74.3,95.36Z"/><polygon class="cls-2" points="80.07 95.42 80.09 95.42 80.09 95.41 80.07 95.42"/><path class="cls-2" d="M80.09,95.41h0Z"/><path class="cls-2" d="M80.16,95.39h0Z"/><path class="cls-2" d="M79.58,95.44v0A.08.08,0,0,1,79.58,95.44Z"/><path class="cls-2" d="M79.43,95.46s.07.07.13,0v0C79.53,95.53,79.47,95.4,79.43,95.46Z"/><path class="cls-2" d="M78.92,94.79l.11.08c0-.06,0-.15,0-.14C78.94,94.5,79.07,94.87,78.92,94.79Z"/><path class="cls-2" d="M78.56,94.58c.07,0,0-.1,0-.14S78.52,94.5,78.56,94.58Z"/><path class="cls-2" d="M75.86,93.83l0-.33C75.84,93.53,75.89,93.63,75.86,93.83Z"/><polygon class="cls-2" points="75.15 95.54 75.18 95.76 75.24 95.44 75.15 95.54"/><polygon class="cls-2" points="75.09 92.94 75.12 92.89 75.02 93 75.09 92.94"/><path class="cls-2" d="M70.37,92.29v.6C70.41,92.79,70.43,92.11,70.37,92.29Z"/><path class="cls-2" d="M68.32,92.84c0-.31-.09-.51-.12-.2C68.24,92.68,68.29,92.92,68.32,92.84Z"/><polygon class="cls-2" points="62.13 92.48 62.16 92.29 62.09 92.46 62.13 92.48"/></g></g></g></svg>