<svg xmlns="http://www.w3.org/2000/svg" viewBox="0 0 101.57 107.75"><defs><style>.cls-1{fill:#ef9293;}.cls-2{fill:#202020;}</style></defs><g id="Laag_2" data-name="Laag 2"><g id="Laag_8" data-name="Laag 8"><path class="cls-1" d="M34.47,12.44A48.13,48.13,0,0,0,31.34,55.8,47.44,47.44,0,0,0,43.27,72.45C49.15,77.66,55.64,80,62.58,83.34c1.91.92,6.31,3.06,5.81,5.86-.45,2.55-6.11,2.89-8.09,3.08a42.54,42.54,0,0,1-18.79-2.6c-12.3-4.52-23-14.92-26.22-27.8-1-4.12-1.31-8.65.23-12.7s4.81-6.83,7.75-9.82a60.42,60.42,0,0,0,14.15-23c2.21-6.45-7.74-10.57-11-4.63a97.51,97.51,0,0,0-10.24,28,99.19,99.19,0,0,0-1.75,14.78c-.19,4.54-.65,10,2.18,13.86,5.8,7.91,15.85,1.94,17.82-5.72,2-7.88,1.31-19-8.47-20.92-9.14-1.78-13.39,8.27-12.72,15.81s5.65,15.24,13,17.77c10.35,3.55,14-9.25,12.79-17-.61-3.83-2.16-7.88-6.18-9.2-4.25-1.38-8.1,1.39-9.89,5.07-3.85,7.92-2.3,20.65,7.38,23.26,4.26,1.15,9.07-.15,11.6-3.89,2.93-4.34,1.31-9.45-1.13-13.56-1.57-2.64-5.52-4-8.21-2.15-8.65,5.93-10,19.18-1.55,26.08,4.17,3.42,10.66,4.42,15.1.89s5-10.69.42-14.23c-3.81-3-8.18-1.78-10,2.65-2.36,5.67,1.44,11.76,6.6,14.22C46.77,89,50.39,88.51,54.15,89a28.66,28.66,0,0,1,2.8.9c.37-1.61.06-2-.94-1.13a3.15,3.15,0,0,1-1.63.22c-6.72.32-12.46-7.25-16.42-11.65-4.9-5.44-9.9-10-16.75-12.75l4.41,5.78a171.41,171.41,0,0,1,4.86-29.68q1.8-7,4.17-13.89,1.18-3.42,2.5-6.8c.78-2,1.52-5.47,3.23-6.82L36.14,15,37,15l-4.25-1.76.63.55L31.61,9.58v.74c0,7.72,12,7.74,12,0A7.26,7.26,0,0,0,30.91,5.5c-2.17,2.36-3.12,5.9-4.32,8.81q-2.23,5.46-4.1,11a186.48,186.48,0,0,0-8.87,45c-.22,2.85,2.06,4.84,4.4,5.79C25.91,79.4,30.49,88,36.76,93.34s14.71,9.59,23,6.8C67,97.73,71.3,89.64,66.62,83a14.22,14.22,0,0,0-8.68-5.44,36.76,36.76,0,0,0-6.2-.58,26.86,26.86,0,0,1-3-.31c-1.45-.23-.44-.62-.58-.31L38.16,79q3.21-3.33.87-4.22a1.46,1.46,0,0,1-.81-.64,8.86,8.86,0,0,1-.82-2.2,4.06,4.06,0,0,1,1.32-3.81l-8.21-2.15q.82,2.81,3.09-.18c-.47-.12-.61-.51-.4-1.16s.12-4.73.17-4.76l-4.62.6c-2.23-.31-1.19-.73-1.4,1.88-.09,1-.18,2.44-1.06,3.17l4.25-1.76c-1.88.2-3.59-2.37-4.31-3.79-1.08-2.15-.46-3.85-.88-5.95.66-1.14.41-1.41-.76-.83-.91-.17-1.27.11-1.07.82-.48.72-.19,3.13-.34,4a19,19,0,0,1-.45,2.09l3.69.56c.31-.34,0-4.78,0-5.32A84.36,84.36,0,0,1,36.82,17.75l-11-4.62c-3.18,9.28-9.1,15.13-15.45,22.25A30,30,0,0,0,2.72,59.47C4.51,75.24,15.21,89,28.73,96.83c12,7,31.11,11.55,44.11,4.37,7.41-4.1,9.52-12.75,5.27-20-4.64-7.91-13.73-9.15-21.06-13.44C39.81,57.67,34.82,35.46,44.83,18.5c3.93-6.67-6.44-12.71-10.36-6.06Z"/><g id="info"><path class="cls-2" d="M6.55,33.24c0,.19,0,.08,0-.45v.45Z"/><path class="cls-2" d="M6.72,29.7c0-.62.14-1.33,0-.94-.07.61,0,.76-.09,1.42a5.92,5.92,0,0,1-.09.83c0,.19,0,.82,0,1.11,0-.69.08-1.56.15-2.46C6.73,29.46,6.72,29.65,6.72,29.7Z"/><path class="cls-2" d="M44.15,1.34l-.33,0A1.55,1.55,0,0,0,44.15,1.34Z"/><path class="cls-2" d="M74.22,9c-.21-.12-.32-.12-.35-.09C74.07,9,74.24,9.07,74.22,9Z"/><path class="cls-2" d="M78.1,12.62l-.22-.23A.41.41,0,0,0,78.1,12.62Z"/><path class="cls-2" d="M44.15,1.34c.28,0,.56.06.84.1C45.05,1.33,44.56,1.34,44.15,1.34Z"/><path class="cls-2" d="M8.25,22.75l-.15.44.15-.41Z"/><path class="cls-2" d="M30.51,3.79l-.24.09a1,1,0,0,0-.17.18Z"/><path class="cls-2" d="M20.94,8.34c.2-.13.16-.34.19-.47a1.37,1.37,0,0,1-.36.42S20.84,8.34,20.94,8.34Z"/><path class="cls-2" d="M9.55,20.67l-.12.27Z"/><path class="cls-2" d="M37.94,2.2a.19.19,0,0,0,.11.09S38,2.23,37.94,2.2Z"/><path class="cls-2" d="M25.27,13.33s0,0,0,0S25.34,13.29,25.27,13.33Z"/><polygon class="cls-2" points="36.92 8.7 36.76 8.76 36.73 8.77 36.92 8.7"/><path class="cls-2" d="M84.09,20.06l0,0C83.88,19.85,84,20,84.09,20.06Z"/><path class="cls-2" d="M78.15,99.07c1.1,0-1.08,1.33.48,1.1C78.41,100,79.36,98.77,78.15,99.07Z"/><path class="cls-2" d="M8.36,22.49l.17-.42Z"/><path class="cls-2" d="M78.63,100.17h0l.16,0Z"/><path class="cls-2" d="M93.91,39.81a.75.75,0,0,0,.15-.28S94,39.62,93.91,39.81Z"/><path class="cls-2" d="M88,24.25l.16.39A2.09,2.09,0,0,0,88,24.25Z"/><path class="cls-2" d="M96.48,48.09a1,1,0,0,0,0,.61.31.31,0,0,0,0-.1A.57.57,0,0,1,96.48,48.09Z"/><path class="cls-2" d="M97.28,57.1a1,1,0,0,0,.1-.17l0-.28Z"/><path class="cls-2" d="M5.65,33.56a1.47,1.47,0,0,1,.4-.28C5.82,33.32,6.41,32.06,5.65,33.56Z"/><path class="cls-2" d="M8.29,22.76a2.17,2.17,0,0,1,.07-.27l-.11.29S8.26,22.82,8.29,22.76Z"/><path class="cls-2" d="M100.68,47.82l.16,1.52A11.42,11.42,0,0,0,100.68,47.82Z"/><path class="cls-2" d="M19,95.39l-.31-.18A.53.53,0,0,0,19,95.39Z"/><path class="cls-2" d="M101.39,53.84a2.29,2.29,0,0,0-.32.88.49.49,0,0,0,.15.17Z"/><path class="cls-2" d="M6.05,33.27h0Z"/><path class="cls-2" d="M11.17,24.85c-.93,1.09-.23.67-.3,1-1,1.36-.64.5-1.12.87-.57.9-.82,1.72-1.29,2.35-.08,0-.18.14-.13,0a18.46,18.46,0,0,1-1.09,2,7.76,7.76,0,0,0-1,2.15.37.37,0,0,1-.16.11c.25-.11.41-.06.5,0-.29.56-.35,1.14-.65,1.25A1,1,0,0,0,6,34l-.22.63c-.56.4.32-.86.11-1-.25.6-.49,1.27-.73,1.89a16.18,16.18,0,0,1-.66,1.67c-.38.06.81-2.19,0-1.08.22-.47.53-.9.79-1.34-1,.84.47-.82-.51-.08a8.65,8.65,0,0,0-.9,2,15.91,15.91,0,0,1-.84,2c0,.49.32,0,.32.45a4.2,4.2,0,0,1-1,2.28,2.21,2.21,0,0,0-.73,1.79,2.7,2.7,0,0,1-.12,2.33l-.29-.59a2.47,2.47,0,0,0-.11,1.58,2.75,2.75,0,0,1-.21,1.63c-.1-.39.13-1.56,0-1.28-.58,1.28.07,1-.1,2L.44,49a44,44,0,0,0,0,6.81c-.13-.13-.25-.54-.39,0,0,.37,0,.75,0,1.13l.09,1.15c0,.78.08,1.57.1,2.36s.1,1.57.15,2.34.06,1.53.16,2.25l.62,1c.05.24-.07.5-.21.25.09,1.13.26,0,.53.48s-.05.88-.25.52c.35.93,1,2.2,1.46,3.53a18.79,18.79,0,0,1,1.18,3.7l-.26-.33c.41,1.59,1.54,1.31,1.77,2.84l-.19-.23c.16.41.33.82.5,1.23s.42.79.63,1.18c.43.78.85,1.57,1.29,2.32a31.35,31.35,0,0,1,2.26,4.17c.42,0,.88.75,1.34,1.44s1,1.29,1.44,1.07c1,1.81.38,1.57,2.17,3.82.51.57,1.22.37,2,.93l-.33.4,1.32.42.11.92.75.48c-.24-.26-.41-.67-.27-.75,1.14.75,2.41,2.33,2.28,2.6l1.45.79,1.51.68c-.18.15-.69-.08-1.13-.2,1.78.47,0,.66,1.61,1.08-.13-.22.26-.22.35-.29a8.35,8.35,0,0,0,3.36,2.08l-.4.22a45.23,45.23,0,0,0,7.31,2.87c-.87-.49-.43-1.05.33-.86l.12.66c.59-.19-.71-.47.41-.57.93.38.44.86-.17.86.41.07.82.12,1.23.17,0,.2-.28.2-.42.4.58-.2,1.88,1.2,2.76.75l0,.19A53.77,53.77,0,0,0,45,107c.13-.51,1-.26,1.66-.59a26.57,26.57,0,0,0,5.2,1.17c1.37-.14.43-.41,1.06-.69.06.5,2,.59,1,.87a27.13,27.13,0,0,0,5.9-.31c-.32-.2-.67-.29-.49-.46.53-.08,1.21.19,1.14.44l-.14,0a18.91,18.91,0,0,1,5.42,0c1.86.13,3.71.13,4.92-.69l-.14.08c.88-.36,1.74-.78,2.58-1.2,1.25-.29-.64.6.37.62a15.81,15.81,0,0,1,3.54-1.6A8.42,8.42,0,0,0,80.11,103a3.25,3.25,0,0,0,2-.46,10.66,10.66,0,0,0,2.16-1.5c.73-.58,1.37-1.27,2.06-1.83a8.4,8.4,0,0,1,1.92-1.41l-.36-.13c.22-.74.71-.47,1.12-.79-.25-.13-.74.33-.59-.11,1.79-2.26,3.61-4.56,5.29-7a45.71,45.71,0,0,0,4.36-7.73c.78-2-1.31-1.71.27-4l.41.91c.13-1.08.31-2.14.54-3.19s.44-2.11.68-3.16.4-2.11.55-3.16a23.63,23.63,0,0,0,.13-3.14c.11.26.31.29.25.69.62-.82.31-3.23-.06-3.26.09-.64.36-.12.58-.51.35-.86-.52-2.22,0-2.67.08-.07.14.25.17.41a7,7,0,0,1-.08-1.48c0-.52-.1-.91-.36-.63.23-1.55-.27-2.95-.06-4.19-.63-.76.1-2.66-.78-2.84.86,0,.41-2.78-.18-3.67.31.29.13-.88.54-.55-.17-1.11-.52-2.09-.92-1.82a4.5,4.5,0,0,0-.47-2.93c-.4-.86-.72-1.6-.24-2.32-1.31-3.09-2.56-5.88-3.89-8.52.4-.11.73.64,1.06,1.37s.58,1.43,1,1.23a29.51,29.51,0,0,0-1.91-3.16,18.39,18.39,0,0,1-1.68-3.18c-.21-.7.49.22.72.39-1.5-2.4-2.43-4.89-4.13-6.79.06,0,.28.15.46.34-.28-.41-.52-1-.79-.79l.34.35c0,.92-2-1.06-2.23-1,1.31.12-1.18-2.14.61-1.78-.25-.23-.62-.47-.76-.27-.23-.43-.22-.63.29-.39-1.22-1.31-1.13-.58-2.11-1.84.13-.1.38.11.64.12a6.14,6.14,0,0,1-2.32-1.95c.13,0,.12-.21.39.1-1.62-1.7-3.3-2.3-5-4.15,1,0-.52-.72-.25-1.27l-1.21-.7.26.56c-1-.75-2.07-1-2.82-1.7l.87.29c-.64-.39-1.3-.76-2-1.11l1,.85c-1.18-.38-.28.67-1.53-.28.3.11-1-.59-1.41-1.16h0a4.71,4.71,0,0,1-2-.71c-.13-.26.43-.48.34-.65-.71.15-2.62-1-3.48-.79.27,0,.38-.28.33-.36l-.59.17c-.47-.29-.53-.37-.37-.55-1.54-.61.28.79-1.48-.1.15,0,.1,0,.42,0-1.83-.75-3.69-.87-5.41-1.43C60,1.14,62,2,61.47,1.43,58.88.92,56.06,1,53.59.58l.45.1c-.21.32-.66.18-1.22,0a4.3,4.3,0,0,0-1.89-.3c.31,0,.43-.33.34-.27a28.17,28.17,0,0,0-6.13.2l.32-.16a28.05,28.05,0,0,0-3.77,0c-.31.18-.94.21-.54.39a11.73,11.73,0,0,0-4.83.5c-.75.21-1.49.44-2.23.61a12,12,0,0,1-2.23.4c.34-.11.8-.33.52-.26-.81.27-1.61.57-2.41.87.25.13.36,0,.92,0a7.3,7.3,0,0,1-1.51.74c1-.51-.12-.31-.62-.24.1,0,0,.15,0,.19-1.37.14-.06.46-1.82.91L27,4.17c-.62.3-1.11.71-1.78,1-.37-.07.6-.4.57-.59a21,21,0,0,1-2.54,1.52c.35-.26.9-.56,1.26-.82A6.31,6.31,0,0,0,22.76,6l.07,0c-.53.26-1,.56-1.54.84l.41-.19A7.08,7.08,0,0,1,20.18,8c-.29.2-.59.41-.9.65a10.25,10.25,0,0,0-.88.87c1.13-1.28.12-.31.09-.54-.38.23-.94.62-.83.45-.52.66-1.1.85-1.79,1.8-.08,0-.62.64-.59.4-.71.81.25-.12.23,0a29.89,29.89,0,0,0-3.91,4.84,17,17,0,0,0-1,1.95c-.23.53-.51,1-.89,1.88-.33.55.12-.52.12-.52a14.37,14.37,0,0,0-1.16,2.5c.05-.19,0,0-.19.25C8.16,23.22,8.31,23,8,24c0-.17.06-.4.14-.77-.23.89-.53,1.74-.71,2.67-.09.24.07-.57.15-.9a20.75,20.75,0,0,0-.6,3l.13-.67c-.07.38-.07.19,0-.1a5.1,5.1,0,0,1,.35-1.31l-.15.65c.25-.64.67-2.61,1.19-3.87l-.11.56.44-1.31c.14-.26.29-.42.05.2a11.21,11.21,0,0,1,.74-1.51c0-.08,0,0,0,0l.39-.86c-.06.18.17-.09-.12.41.41-.74.78-1.31,1-1.8a3.78,3.78,0,0,1,.71-1.08l-.08.12c1.29-2,0-.27.9-1.8.34-.25.68-.48,1-.71l0-.28c.15-.19.48-.54.47-.43.51-.75-.15.07.11-.39.85-.8,2.16-2.4,2.55-2.37.21-.39-.89.68-.05-.24.5,0,1-1,2-1.57-.14.34-1,.89-.06.36a3.06,3.06,0,0,1,1-.92c.47-.3,1-.54,1.35-.82-.12-.25,1.55-1.18,2.83-2A8.37,8.37,0,0,0,25,5.73a23.51,23.51,0,0,1,2.49-.94l0,.06c.06-.19.43-.41.91-.64S29.49,3.8,30,3.59c0,.2-.13.34-.63.6l.93-.31a2.74,2.74,0,0,1,1.06-.54l-.17.31A18.5,18.5,0,0,1,35.3,2.5c.05-.28-1.47-.42.26-.95.09.12.2.34-.24.49a2.54,2.54,0,0,1,.83-.23l-.66.37c.77-.05.36-.28,1-.36,0,.19.47.07.41.24s-.54,0-.76.12a5.63,5.63,0,0,1,1.83,0c-.08-.1,0-.27.45-.37,1.3-.16.48.19,1.25.22.3-.19,1.14-.11,1.13-.43a.85.85,0,0,1,.62.2c.66-.22,3.14-.19,2.37-.52h-.18l.11,0h0c2.23-.42,4.63.17,6.83.19l0,.12c1.33,0,2.92.21,3.89.08.39,0,.88.36.7.48a6.31,6.31,0,0,1,2.53.4c-1,0,.31.26-1,0a7.24,7.24,0,0,0,2.94.56c-.53.23.86.63,1.47.69l-.82-.46A13.09,13.09,0,0,1,62,3.8l-.43.36a10.78,10.78,0,0,0,3.49.92A4.45,4.45,0,0,1,68,6.33c.77,0-1.23-.76-.51-.89a11.27,11.27,0,0,1,2.29,1.85,2.35,2.35,0,0,0,1.53.51,2.39,2.39,0,0,1,1.6.54c-.11-.26,0-.81,1.17-.27,1,.7.85,1.46.14,1.16-.25-.14-.34-.27-.3-.31-.37-.15-.84-.35-.53.07l.22-.08c.42.46,1.78,1.38,1.29,1.41.84.37.5,0,0-.49,1.11,1.09,2,1.4,3,2.56-.12-.24-.16-.56,0-.4,1.61,1.71,1,.4,2.25,1.42.44.85-.71.27.59,1.22.54.84-.22.51-.6.35,1.28.75,1.64,2.13,2.1,2.79l-.6-.46a4.41,4.41,0,0,1,.83.85l0-.59c.23.38.46.68.33.78.49.19.28-.69,1.14-.2.21.59,1.29,1.32,1,1.81-1-1.62-.3.47-1.31-.73a2.8,2.8,0,0,1,.66.9c0,.09-.13,0-.22-.07.65,1.73,1,.3,2,1.85-.38,0-.24.68,0,.9-.4-.63.23-.58.8-.13.44,1.15.85,1,1.14,1.57l-.27-.67c.39,0,.66.59,1.18,1.27-.17.18-.53-.58-.47-.27,1,.54.55,2.12,1.45,3.1.09.64-.49.33-.38.86,1,1.1.28,1.6,1.22,2.82.21-.57.08-.6.91.21l-1.32-2.16,1.23,1.21c-.31-.7-.91-1.35-1-1.8.64.55.51.53.67,0-.14,1.23,1.23,1.73,1.31,3l-1,.38a5.53,5.53,0,0,0,1,2.36,8.63,8.63,0,0,1,1.19,2.73l-.07-.77c.52.16.54,1.35.91,2-.37,0-.36.54-.49.91.25-.11.47,1.64,1.2,1.67L95,42.34c.27,1.87,1.5,1.87,1.75,3.71-.5-.47-.6.39-1.12-.75.12.6.15,1.15.41,1.11-.14.38.76,1.58.5,2.19.2.23.6.26.67.94-.06.09-.18,0-.18,0,.19,0,.38,1,.73.38a6.88,6.88,0,0,0-.18,3.61c.11,1.28.29,2.54-.24,3.37a31.6,31.6,0,0,1,.25,4.15c-.11-.08-.19,0-.14-.24-.43,1.65,1.1,1.08.54,3-.7.93-.25-1-.54-.44-1.3.16,0,2.3-.91,3.49l0-.32c-.55.9.2,2.41-.2,4,0,0-.1-.1-.19,0,.48,1.19.21,3.26,0,4.82-.38-.6-.1-.75-.66-.59-.09.69.86,0,.64,1.38-.39.37-.89,1.26-1.46,1.22.13-.41.22-.83.33-1.24-.84.44-.45,1.6-.76,2.21L94,78.1c-.53,1.88.21,2.17-.63,4.14l.3-.12c.28,1.39-.78.73-.71,2h-.86c-.08.38-.21,1.06-.36,1.82a15.74,15.74,0,0,1-.71,2.2,22.64,22.64,0,0,1,.48-3.56c-.3.68-1.1,2.28-1,2.82.08-.31.09-.74.34-.94a5.54,5.54,0,0,1-1.09,3.61c-.58-.53-1.15.26-1.89,1.12s-1.57,1.88-2.35,1.9c-1.29,2.32-3.73,3.47-6.11,5.11,1.53.43-.7.49.08,1.44-.56.44-.83.54-.92.5-.74.16-1.5.24-2.23.33-.6-.1.48-.53.3-.75-1.38.57-.79-.2-1.8-.1.35.31-.23.79-1.1.92.44,0,.89.08,1.33.08-1.77,1.38-2-.29-3.87.91.18-.18.37-.35.54-.54-1,.55-3.88,1-4.83,2-.22-.11-.53-.39,0-.55-1.32.14-2.78.53-4.19.83a8.72,8.72,0,0,1-3.86.16l.21-.29c-.51.08-.89.56-1.53.25,0-.12.21-.29,0-.31a3.93,3.93,0,0,1-2,.27l.59-.3c-2.64-.49-4.15.57-6.43.52.09-.83-2-1.34-3-1.64l.05-.11c-3-.57-5.28-.23-8.16-.68-1.48-1.28-5.65-2.14-8-3.79.34.31-.32.54-.81.38-.54-.41-1.91-.33-1.48-.92l.2.12a1.6,1.6,0,0,0-.86-1c-.44-.3-1-.58-1.42-.86l-.63.71a12.48,12.48,0,0,0-3.84-3.08c-1.38-.93-2.66-1.81-2.83-2.74-.64-.3-1.24-.89-1.88-1.2l.37-.31c-.65-.67-1.07-1.23-1.56-1.8s-1.07-1.13-1.81-2l.54.17c-.76-1-2-.49-2.81-1.46l.33-.67c-.65-1-1.16-2-1.74-3a10.91,10.91,0,0,0-1.9-2.85.48.48,0,0,1,.51.27C8.41,76.21,7.5,73.27,6.86,74c.47-.23-.83-2.2-1.53-3.28l.46,0a4.52,4.52,0,0,1-1.55-2.18c-.06-.35.21-.38.25.09-.13-1.17-.68-.75-.79-2.19l.36.45a2.63,2.63,0,0,0-.78-1.63A4.14,4.14,0,0,1,3,63.85a1.67,1.67,0,0,1,.23-1.07,1.92,1.92,0,0,1-.62-1.45c.11-.11.23.13.29.25a9.26,9.26,0,0,0-.17-1.32A9.47,9.47,0,0,0,2.5,59.2a5.07,5.07,0,0,1-.16-1.94A.28.28,0,0,0,2.53,57c.14,1.58.23,2.85.19,2.74.34,0,.27-1.31.83-.35-.35-1-1.09-2.69-.9-3.95a.46.46,0,0,1,.11-.16l0,.12a2.48,2.48,0,0,0-.06-.78,9.22,9.22,0,0,0,.07-1c.24-.14.22-1.44.27-2.08-.34,0-.23-.8-.56,0,0-.1,0,.12,0,.55a1.1,1.1,0,0,0,0,.27l0,0c0,.42-.08,1,0,1.58a2.44,2.44,0,0,1,0-1.74c-.19-.34-.38-.73-.47-.94a11.84,11.84,0,0,0,.7-1.59,3.3,3.3,0,0,1,.58-1.08c0-2,.72-4.52.5-5.87.1-.56.34-.57.49-.75a4.58,4.58,0,0,0-.14.88c.2-1.1.9-3.18.69-3.55.67-1.26,0,.86.68-1v.29a16.75,16.75,0,0,0,1.09-2.41c.31-.76.56-1.51.82-2.28a13.24,13.24,0,0,1,1-2.3,10.84,10.84,0,0,1,1.65-2.37c-.19.22-.29.34-.36.36,1.43-2,2.85-4,4.47-5.91a34.2,34.2,0,0,1,5.29-5.14,11.4,11.4,0,0,0,1.7-1.62l.32-.07,1.06-1a14.08,14.08,0,0,1,2.38-1.53c.84-.43,1.67-1,2.78-1.66l-.32.1c.82-.41,2.57-1.36,2.46-1.25a2.53,2.53,0,0,1,.58-.31l0,0,2.07-.93c.81-.34.75-.3.79-.3s.15-.05,1.36-.47l2.22-.78-1,.31.83-.27c.15-.06.8-.23-1.26.35l-1.43.44-.47.11,1.21-.35a11.89,11.89,0,0,0-1.6.5l-.6.19-1.35.59c-.18,0,.6-.29-.34,0-.63.28.65-.17-.4.26a4.57,4.57,0,0,0-1.25.52c-.12,0,0-.07.33-.22-.66.35-1.79.86-2.11,1.08-.73.22-2.2,1.26-2.22,1.08-.18.15-1.09.74-1.67,1.12.94-.87-2.15,1.43-2,1-.69.64-2.68,2.08-3.88,3.22a1.35,1.35,0,0,1,.29-.31c-.72.6-1,.73-1.46,1.09.07.25-1,1.24-1.43,1.91-.95.67.28-.7-.12-.59.17.09-1.25,1.57-.85,1.4-.72.54-.58.5-1.05.69.14.32-.54.61-.84,1.32-.94.87-.46,0-1.27,1.18C10.46,25.88,11.17,24.85,11.17,24.85ZM.51,55.83h0c0-.29,0-.54,0-.69C.49,55.28.5,55.48.51,55.83Zm.1,2.8c0-.34,0-.77-.07-1.22.12-.1.25,0,.27.28C.71,57.54.69,58.2.61,58.63Zm2.32-5.81c0,.43-.05.56-.12.62V52.7l0-.05A.44.44,0,0,1,2.93,52.82Z"/><path class="cls-2" d="M2.54,52a1,1,0,0,1,0-.18l-.1.25.1.16Z"/><path class="cls-2" d="M43.76,1.3h.06a.4.4,0,0,1-.13,0Z"/><polygon class="cls-2" points="16.38 93.48 16.46 93.39 16.2 93.3 16.38 93.48"/><path class="cls-2" d="M28.76,3.2a.42.42,0,0,0-.22,0A.92.92,0,0,0,28.76,3.2Z"/><path class="cls-2" d="M22.76,6c-.29.12-.56.28-.84.43Z"/><path class="cls-2" d="M18.52,8.81a.28.28,0,0,0,0,.13h0Z"/><path class="cls-2" d="M90.61,22.27l.12.16C91.06,22.78,90.86,22.53,90.61,22.27Z"/><path class="cls-2" d="M72.58,6.18a4.43,4.43,0,0,1,.78.19C73,6.13,72.7,6,72.58,6.18Z"/><path class="cls-2" d="M100.66,47.66h0l0,.16Z"/><path class="cls-2" d="M74.34,6.93a2.82,2.82,0,0,0-1-.56A5,5,0,0,0,74.34,6.93Z"/><path class="cls-2" d="M7,27.08a2,2,0,0,0,0,.24v0C7,27.26,7,27.17,7,27.08Z"/><path class="cls-2" d="M7,27.35l0,.27A2.12,2.12,0,0,0,7,27.35Z"/><path class="cls-2" d="M6.85,28.18l.08-.56C6.9,27.81,6.86,28.05,6.85,28.18Z"/><path class="cls-2" d="M9.13,20.74v-.09S9.11,20.72,9.13,20.74Z"/><path class="cls-2" d="M10,18.91a13.15,13.15,0,0,0-.9,1.67v.07C9.22,20.34,9.84,19.33,10,18.91Z"/><path class="cls-2" d="M15.56,12.52c-.42.38-.81.78-1.19,1.19.24-.18.56-.41.06.17C16,12.44,14,14.08,15.56,12.52Z"/><path class="cls-2" d="M19.55,9.18c-.69.58.07.08.06.15C20,8.94,20.13,8.85,19.55,9.18Z"/><path class="cls-2" d="M55.44,2.33l-.14.31C56,2.7,55.33,2.52,55.44,2.33Z"/><polygon class="cls-2" points="62.92 2.08 62.3 1.69 61.9 1.92 62.92 2.08"/><path class="cls-2" d="M66.19,5.83l-.29,0c.36.09.74.17,1.1.28Z"/><path class="cls-2" d="M96.75,55.52l.59-.24C97.2,54.82,96.52,54.77,96.75,55.52Z"/><path class="cls-2" d="M93.14,81.88a1.36,1.36,0,0,0-.77,1.31C92.64,82.66,93.11,82.2,93.14,81.88Z"/><path class="cls-2" d="M24.8,94.53l.55.11c-.31-.13-.63-.24-.93-.38C24.54,94.36,24.67,94.44,24.8,94.53Z"/><path class="cls-2" d="M51.4,83.26s0,0,0-.1l0-.09Z"/><path class="cls-2" d="M51.28,82.42c0-.14-.11-.3-.13-.21s.06.18.13.33,0,.22,0,.2l.06.26a5.74,5.74,0,0,0-.11-.58S51.27,82.41,51.28,82.42Z"/><path class="cls-2" d="M50.78,70.1l-.05.08A.14.14,0,0,0,50.78,70.1Z"/><path class="cls-2" d="M51.37,62.51a.12.12,0,0,0,.1.09C51.44,62.54,51.42,62.5,51.37,62.51Z"/><path class="cls-2" d="M52.06,61.26a.25.25,0,0,0,0,.07S52.1,61.28,52.06,61.26Z"/><path class="cls-2" d="M50.78,70.1l.12-.21C50.78,69.88,50.81,70,50.78,70.1Z"/><path class="cls-2" d="M50.81,80.76a.28.28,0,0,0,0,.11l0-.1Z"/><path class="cls-2" d="M51.05,73.45v.06l.12,0Z"/><path class="cls-2" d="M51.11,76s-.19-.06-.28-.07a.18.18,0,0,1,.14.11A.3.3,0,0,0,51.11,76Z"/><path class="cls-2" d="M51.07,80.14l0,.08Z"/><path class="cls-2" d="M51.12,71.6l.1,0Z"/><path class="cls-2" d="M51.36,62.21h0S51.36,62.19,51.36,62.21Z"/><polygon class="cls-2" points="52.51 59.39 52.5 59.43 52.49 59.44 52.51 59.39"/><path class="cls-2" d="M53,59h0C53,59.05,53,59,53,59Z"/><path class="cls-2" d="M47.9,71.62c.51-.22.62.44,1.2.1C48.88,71.74,48.24,71.33,47.9,71.62Z"/><path class="cls-2" d="M50.81,80.7l0-.11A.81.81,0,0,0,50.81,80.7Z"/><path class="cls-2" d="M49.1,71.72h0l.06,0Z"/><path class="cls-2" d="M48.89,55.2a1,1,0,0,0,.23-.05A.72.72,0,0,0,48.89,55.2Z"/><path class="cls-2" d="M52.17,57.51l.08-.09A.16.16,0,0,0,52.17,57.51Z"/><path class="cls-2" d="M49.47,57.36c0,.06-.12.07,0,.15l.06,0C49.41,57.46,49.38,57.42,49.47,57.36Z"/><path class="cls-2" d="M49.32,59.58l.11,0,0-.07Z"/><path class="cls-2" d="M49.45,68.77a.73.73,0,0,1,.24-.07C49.51,68.71,49.53,68.37,49.45,68.77Z"/><path class="cls-2" d="M50.85,80.76a.09.09,0,0,1,0-.06l0,.07Z"/><path class="cls-2" d="M53.65,57.68l-.08.35A.78.78,0,0,0,53.65,57.68Z"/><path class="cls-2" d="M47.48,84.84l-.06-.08S47.42,84.82,47.48,84.84Z"/><path class="cls-2" d="M53.61,59.08a.79.79,0,0,0-.37.18l.13.05Z"/><path class="cls-2" d="M49.7,68.7h0Z"/><path class="cls-2" d="M49.79,66.33c-.11.33.21.2.34.3,0,.41-.25.15-.43.25,0,.26.21.49.15.68-.05,0-.08,0-.13,0,.18.3-.18.78.07,1.13l-.09,0a1.28,1.28,0,0,1,.45,0c0,.15.16.31-.07.33,0-.09-.06-.11-.12-.16l.06.17c-.34.09-.06-.23-.29-.27,0,.32.23.72.1.94-.33,0,0-.56-.35-.29l.2-.35c-.55.2.08-.21-.49,0-.21.46,0,.56-.18,1,.16.13.28,0,.45.14.21.72-1,.41-.62,1,.21.16.66.27.35.59l-.39-.17c-.14.46.56.34.18.79-.15-.11-.07-.38-.14-.32-.4.28.2.25.17.5h-.4c0,.51.17,1.08.17,1.64-.12,0-.24-.15-.39,0a3.54,3.54,0,0,1-.64,2.13l.36.29c0,.06-.19.1-.26,0-.19.25.25,0,.39.17s-.25.18-.36.08c.27.48.62,1.36.11,1.83l-.11-.1c-.22.37.85.46.42.8l-.08-.07c-.26.82.11,1.74-.62,2.37.67.13-.36.82.61.88-.5.47-.66.33-1,1,0,.18.61.26.7.48h-.52l.55.29-.63.18.13.2a.48.48,0,0,1,.39-.17c.24.32-.38.8-.65.81l.23.41,4.13,0-.18-.36c.21,0,.28.16.41.26-.52-.43.57,0,.1-.43-.13,0-.32,0-.43-.06a.7.7,0,0,0,.27-.9l.38.08a12.11,12.11,0,0,0,0-1.8c-.2.21-.86.12-.92-.06l.61,0c-.36-.14-.24.17-.68-.09.09-.23.7-.12.88,0l-.18-.29a2.72,2.72,0,0,1,.49.09c-.36-.13.65-.45,0-.66h.18a9.91,9.91,0,0,0-.11-1.43c-.53,0-.4-.23-.82-.41.2-.36.65-.75.64-1.21-.24-.33-.45-.11-.76-.27.49,0,.48-.45.82-.2a2.71,2.71,0,0,0-.41-1.4c-.21.06-.3.14-.47.09s.23-.27.47-.24l.05,0c-.71-.8,1.58-1.69.57-2.36l0,0L52,73.59c.11-.29.37.19.7,0-.8-.73.19-1.07-.34-1.66,1.53-.36,0-1.56,1-2.09h-.36c-.34-.17.22-.17.3-.28-.27,0-.32.15-.51,0-.36-1.31.66-2.63,1-3.93.12-.48-1.82-.37-.94-.94l.64.21c-.74-1,.12-2-.51-3,.15.06.34.07.34.17.47-.18.05-.75-.33-.77.05-.15.34,0,.54-.1s-.58-.54-.11-.62c.08,0,.15.06.19.1-.23-.14.07-.61-.47-.51.27-.35-.21-.7.12-1-.59-.22.3-.6-.53-.7.86.07.71-.6.32-.84.25.09.27-.19.63-.08,0-.26-.16-.5-.6-.48,1-.42-.78-1,.52-1.2a9.42,9.42,0,0,1-.7-1.57l-3.42-.33c0,.25.09.47.13.68-.62-.1-.29-.51-.49-.73l4.13.4a.56.56,0,0,0,.39.11l-.06-.09L41.18,36.67,48.78,54c.29.67.86,1.12.61,1.72-.12.16-.33-.14-.46-.21.25.7-.18,1.28.2,1.92a.36.36,0,0,1-.2-.15c0,.12-.14.26.22.28l-.09-.12c.53-.13,1,.57,1.29.61-1-.29-.3.56-1.53.13a.61.61,0,0,0,.45.2c-.07.1-.21.13-.46,0,.16.43.53.32.5.69-.16,0-.22-.09-.41-.15.31.22.61.44.46.75-.1,0-.23,0-.22-.1,0,.55.79,1,.45,1.57-.67-.22-.23.19-.82.18l.17.34.28-.11c0,.28.4.56.21.79l-.24-.23.1.54.23-.29c.28.3.72,0,.55.38-.06-.08,0,.28-.36.41h0c.17.14.35.3.21.5-.18,0-.61-.07-.73,0,.46.15.12.67.6.86a.84.84,0,0,0-.45-.06l.36.13c-.11.12-.17.14-.39.11-.07.39.67-.1.38.36,0,0-.09,0-.14-.1-.15.46.23.91.05,1.33-.5.12-.13-.38-.56-.24.12.63.63,1.3.53,1.89l0-.11c.67.09-.32.45,0,.75-.05-.07-.37-.09-.3-.07-.09.41.21.84.43,1.45l-.16-.07c-.13.24-.05.64-.1.9.15.08.14.23.35.13-.75.83.51,1.51-.07,2.25,0-.08-.13-.19-.12-.13l.18.6c.2-.06.11-.08.27-.22a.49.49,0,0,1,.24.39c-.15-.27-.33,0-.43.14.06,0,.13,0,.2,0-.33.34.4,0,.19.48l-.1,0c.07.16.21.3.2.47-.21.09-.12-.16-.3-.16,0,.24.45.45.26.69-.07-.1-.09-.25-.15-.35-.23.26-.16.28-.18.46h0l-.06.42,0-.11c.54.26.17.61.53,1-.33-.38-.18,0-.38-.07,0,.11-.08.28-.14.24.19.18-.06.33.2.58-.06,0,0,.21-.12.18.09.25.09-.07.16,0,.23.37,0,.93.27,1.46.17.47.3.55.42,1,0,.15-.14-.11-.14-.11a1.56,1.56,0,0,0,.1.65s0,0-.07.08.12.11.12.36a.92.92,0,0,1-.13-.17c.07.21.15.42.21.64,0,.06-.08-.13-.12-.2a4.4,4.4,0,0,0,.22.71v-.16c0,.09,0,0,0,0s0-.31,0-.32l0,.15c.08-.17-.11-.63-.17-1l.13.12-.14-.32c0-.07.09-.13.13,0,0-.24-.07-.2,0-.41,0,0,0,0,0,0L51,79.92s.1,0,.09.1c.06-.42-.18-.64-.06-.81v0c-.1-.55-.13,0-.34-.44l.33-.32-.15,0c0-.06,0-.18.06-.16-.12-.21-.06,0-.17-.07.12-.3-.15-.77.13-.86-.15-.08-.09.28-.21,0,.32-.11-.08-.34,0-.61.18.06.1.31.24,0-.31-.13,0-.51,0-.72-.26,0-.13-.46-.23-.81.09,0,.13-.69.23-1H51c-.31,0-.26-.4-.34-.65a.36.36,0,0,1,.37.18v-.24a.35.35,0,0,1-.21-.27l.25,0c0-.31-.31-.62-.13-1-.26,0-.69.35-.88-.07.14,0,.37-.05.43.06s-.12-.13-.06-.2l.24.16c.1-.19-.2-.09-.18-.24.2,0,.14-.11.3-.1s-.08.13,0,.19a.64.64,0,0,1,.31-.45c-.12,0-.28,0-.3-.11,0-.32.25-.12.36-.3-.15-.08,0-.28-.31-.28,0-.09.15-.11.24-.15-.15-.16,0-.76-.38-.57l0,0v0h0c-.34-.53.2-1.12.06-1.65h.12c-.13-.31-.06-.7-.33-.93,0-.09.24-.22.39-.18-.09-.24-.24-.27,0-.62.22.25.21-.08.16.25.12-.31.35-.38,0-.72a.27.27,0,0,0,.35-.38l-.26.22a.88.88,0,0,1,0-.46l.45.09c.62-.62-.89-1.19.12-1.64-.33-.18-.27.34-.65.17.08-.29.81-.57.82-.66.31-.38-.69-.4-.47-.82-.18,0-.67.08-.82-.25.09-.29.8-.32.93-.13s-.06.1-.12.1.13.22.33.12l-.17,0c.19-.14.21-.54.51-.43-.16-.23-.3-.11-.41,0,.31-.36.06-.59.29-1-.11.05-.34.1-.33,0,.29-.55-.33-.27-.38-.66.31-.2.69.13.48-.28.23-.22.52,0,.67.1-.34-.38.31-.64.42-.83l.13.2a.38.38,0,0,1,0-.3l-.41.07c.09-.1.1-.19.26-.18-.24-.13-.66,0-1-.22.21-.13-.17-.46.37-.46-.24.43.53,0,.57.39-.06-.08,0-.17,0-.28A.17.17,0,0,1,53,59c.53-.38-.57-.25-.51-.7.3.09.59-.05.54-.13,0,.18-.52,0-.73-.15.28-.27-.13-.33-.08-.48l-.14.16c-.29-.09-.24-.23-.31-.45.24,0,.14.21.26.15-.51-.29.63-.45.3-.8.23-.12.59,0,.75-.06-.35-.39.49-.32.21-.72-.44.05-.34.08-.71-.23l.2.64-.55-.46c0,.18.21.41.12.51-.31-.22-.21-.19-.57-.14.66-.18-.3-.55.17-.78l1.05.14c.39-.27,0-.59-.13-.94l-3.34-.32a.42.42,0,0,1,0,.42l.2-.17c.43.1,0,.36.2.55a1.71,1.71,0,0,0-.74.14c.27,0,0,.42.67.51l-.5.23c-.23.46,1,.59.86,1-.4-.16-.67,0-.94-.28,0,.15-.09.28.17.29-.24.08.47.44.1.56.16.07.55.11.51.28a.67.67,0,0,1-.18,0c.18,0,.23.28.66.15-1.21.4,0,1.29-1,1.63a4.24,4.24,0,0,1,.22,1c-.12,0-.19,0-.15-.06-.38.39,1.09.31.66.75-.64.2-.32-.27-.57-.13-1.27,0,.14.57-.62.84l-.07-.08c-.45.22.45.61.33,1a.77.77,0,0,0-.19,0,2,2,0,0,1,1,1.2c-.49-.14-.25-.18-.77-.14.06.17.82,0,1,.34a2.76,2.76,0,0,1-1.09.33v-.32c-.71.12,0,.41-.13.57l-.31,0c.07.49.85.54.77,1.06l.24,0c.76.32-.45.21.11.53l-.79,0a4.58,4.58,0,0,1,.85,1,4.33,4.33,0,0,1-1.18-.9c0,.19,0,.64.4.75-.07-.08-.26-.18-.13-.25.6.26.89.58.86,1-1.53-.15-.44,1-1.64,1.15.53.69-.31,1.29-.26,2.06,1.2-.2,0,.23,1.25.25.06.18,0,.25,0,.26l-.75.5c-.36.11-.26-.18-.53-.18-.12.38-.53.13-.86.37.44,0,.62.17.44.39l.57-.29c.62.59-1,.42-.42,1l-.37-.2c.21.3,0,1,.9,1.37-.14,0-.47.09-.55,0-.17.67,1,1.56.35,2l-.29-.06c.08.13.53.24.24.39-.12,0-.29-.07-.31,0s.49.36.32.52l-.32-.16c-.4.63.75,1.05.92,1.61a1.21,1.21,0,0,0-1.26.71l-.12,0c-.12.76.65,1.34.94,2.07-.89.39-.41,1.47-.9,2.16a.76.76,0,0,1,.69.18c-.17.15.53.49-.19.42l0-.06c-.71.09-.53.44-.55.71l.93.09a.84.84,0,0,0-.46.39l3.84,0c.29-.66-.79-1.44.15-1.76-.23-.16-.24-.37-.47-.53h.48a2.3,2.3,0,0,0,0-1.25l.34.12c0-.32-1.34-.42-1.37-.71l.68-.08c0-.56.53-1.11-.07-1.68.1,0,.28,0,.31.13,0-.26.4-1-.46-.94.56,0,.06-.57-.18-.89l.4.07c-.51-.28-.65-.3-.78-.66.05-.08.31-.06.21,0,.21-.27-.36-.24-.14-.57l.24.14c0-.29-.09-.27-.37-.45s.12-.55.46-.56c-.21-.06-.48-.24-.37-.4a.26.26,0,0,1,.24.09c.26-.47-.38-.76,0-1.07a.39.39,0,0,0,.22,0,2.13,2.13,0,0,1-.09.66c.34,0,.4-.28.86,0-.26-.27-.77-.75-.61-1l.11,0,0,0c0-.07,0-.13,0-.2a.52.52,0,0,0,.11-.24c.25,0,.14-.34.16-.49-.33,0-.27-.22-.55-.06,0,0,0,0,0,.14s0,0,0,.07l0,0v.39c-.17-.14-.3-.28-.1-.44a5.64,5.64,0,0,1-.52-.27c.48-.16.74-.55,1-.57-.15-.5-.06-1.13-.58-1.5-.06-.15.17-.14.26-.17s0,.17.11.22c-.13-.28,0-.8-.35-.92.2-.31.31.24.3-.23l.1.07c.32-.41.11-.82,0-1.24a1.22,1.22,0,0,1,.12-1.29c0,.06-.06.09-.11.1a6.53,6.53,0,0,0,.26-1.77,6.34,6.34,0,0,1,.36-1.74c.1-.31,0-.37-.05-.58l.14,0-.09-.37c0-.5.4-.77.34-1.41l-.06.06c0-.21.1-.69.14-.65a.22.22,0,0,1,0-.16h0c0-.18,0-.36.07-.54.09-.41.07.09.16-.53,0-.23.09-.65.07-.56a.89.89,0,0,1,0,.23l0-.2s.07-.18-.13.29l-.12.34-.06.11.11-.29a1.64,1.64,0,0,0-.14.38.75.75,0,0,0-.08.14c0,.11,0,.23-.07.34s0-.16-.1.06.12-.14.05.13-.11.1-.14.3c0,0,0,0,0-.11a2.58,2.58,0,0,0-.12.56c-.13.15-.17.58-.31.53a1.47,1.47,0,0,1,0,.49c-.1-.33-.2.58-.41.46.13.25-.18.79-.16,1.19a.09.09,0,0,1,0-.1,1.34,1.34,0,0,1-.28.38c.21.07.16.42.26.63-.3.22-.23-.22-.47-.18.19,0,.05.5.24.44-.2.17-.12.16-.36.22.31.1,0,.2.16.41-.24.26-.34,0-.33.36C49.82,66.64,49.79,66.33,49.79,66.33Zm-.9,7.89h0v0Zm-.08.66a1.16,1.16,0,0,0,0-.28c.13,0,.25,0,.24.09S48.93,74.79,48.81,74.88Zm2.53-1.15c0,.1,0,.13-.1.14a.81.81,0,0,0,0-.19h0A.49.49,0,0,1,51.34,73.73Z"/><path class="cls-2" d="M50.91,73.5s0,0,0,0l-.08,0,.1,0Z"/><path class="cls-2" d="M50.73,70.19h0l0,0Z"/><polygon class="cls-2" points="47.26 84.09 47.38 84.09 47.27 84.03 47.26 84.09"/><path class="cls-2" d="M49.92,73.86l-.06,0S49.9,73.89,49.92,73.86Z"/><path class="cls-2" d="M50,75.43l0,.23A.79.79,0,0,0,50,75.43Z"/><path class="cls-2" d="M50.11,76.65h0Z"/><path class="cls-2" d="M48.93,57.25s0,0,0,0S48.86,57.16,48.93,57.25Z"/><path class="cls-2" d="M49.71,63.11a1.26,1.26,0,0,1-.2-.2C49.48,63,49.47,63.09,49.71,63.11Z"/><polygon class="cls-2" points="53.66 57.64 53.66 57.64 53.66 57.68 53.66 57.64"/><path class="cls-2" d="M49.53,62.64a.2.2,0,0,0,0,.27C49.54,62.83,49.59,62.73,49.53,62.64Z"/><path class="cls-2" d="M51,81.82v.06h0Z"/><path class="cls-2" d="M51.06,81.88l0,.07A.12.12,0,0,0,51.06,81.88Z"/><path class="cls-2" d="M51.13,82.08,51.08,82A.5.5,0,0,0,51.13,82.08Z"/><path class="cls-2" d="M50.73,80.25l0,0Z"/><path class="cls-2" d="M50.63,79.77a1.47,1.47,0,0,0,0,.45h0C50.63,80.16,50.71,79.87,50.63,79.77Z"/><path class="cls-2" d="M51,77.69l0,.41c0-.07.13-.18.15,0C51.26,77.58,51,78.23,51,77.69Z"/><path class="cls-2" d="M51,76.43c0,.21.11,0,.15,0S51.08,76.26,51,76.43Z"/><path class="cls-2" d="M51.06,67.36l.33,0C51.35,67.22,51.27,67.38,51.06,67.36Z"/><polygon class="cls-2" points="49.31 65.59 49.1 65.75 49.42 65.84 49.31 65.59"/><polygon class="cls-2" points="51.93 64.64 51.97 64.72 51.87 64.43 51.93 64.64"/><path class="cls-2" d="M48.87,59.16l.61,0C49.38,59,48.7,59,48.87,59.16Z"/><path class="cls-2" d="M49.08,65.79c-.32.06-.53.23-.23.36C48.9,66,49.16,65.87,49.08,65.79Z"/><polygon class="cls-2" points="47.29 85.55 47.11 85.4 47.24 85.62 51.68 85.67 51.65 85.63 51.65 85.67 47.27 85.62 47.29 85.55"/><path class="cls-2" d="M54.91,28.8l0,0h0Z"/><path class="cls-2" d="M54.53,28.63c-.07,0-.17,0-.14,0s.1,0,.19,0l.08.05.12,0a1.27,1.27,0,0,0-.26-.11S54.52,28.63,54.53,28.63Z"/><path class="cls-2" d="M49.44,25.71v0S49.44,25.72,49.44,25.71Z"/><path class="cls-2" d="M49,22.82s.06,0,.1,0A.18.18,0,0,0,49,22.82Z"/><path class="cls-2" d="M49.64,22.29l0,0S49.68,22.3,49.64,22.29Z"/><path class="cls-2" d="M49.44,25.71a.38.38,0,0,1,0-.1C49.36,25.68,49.42,25.68,49.44,25.71Z"/><path class="cls-2" d="M53.68,28.48h0Z"/><path class="cls-2" d="M50.88,26.15h0l.07-.09Z"/><path class="cls-2" d="M52,26.79s-.11.15-.16.22.08-.09.11-.09A.89.89,0,0,0,52,26.79Z"/><path class="cls-2" d="M53.57,28.06h0Z"/><path class="cls-2" d="M50.14,25.62a.26.26,0,0,0,0-.1Z"/><path class="cls-2" d="M52,27.93h0Z"/><polygon class="cls-2" points="52.42 26.41 52.42 26.43 52.42 26.44 52.42 26.41"/><path class="cls-2" d="M50.25,22.1h0S50.28,22.12,50.25,22.1Z"/><path class="cls-2" d="M55.15,23.74c.29-.42.59-.33.87-.82C55.87,23.08,55.3,23.43,55.15,23.74Z"/><path class="cls-2" d="M53.66,28.47l-.06,0Z"/><path class="cls-2" d="M56,22.92h0l0,0Z"/><path class="cls-2" d="M50.37,21.52l-.08-.22Z"/><path class="cls-2" d="M49.46,21.32l.06,0Z"/><path class="cls-2" d="M50.65,20.77s0,.11.06,0v-.06C50.69,20.82,50.67,20.85,50.65,20.77Z"/><path class="cls-2" d="M51.5,20.88v-.11l0,0Z"/><path class="cls-2" d="M53.46,31.38a2.14,2.14,0,0,1,.1-.22C53.47,31.32,53.29,31.23,53.46,31.38Z"/><path class="cls-2" d="M53.7,28.44a.05.05,0,0,1,0,0h0S53.71,28.45,53.7,28.44Z"/><path class="cls-2" d="M50.81,16.57l.24.07A.4.4,0,0,0,50.81,16.57Z"/><path class="cls-2" d="M61.52,28.7l0,.05S61.57,28.71,61.52,28.7Z"/><path class="cls-2" d="M51.73,16.62a1.1,1.1,0,0,0,.09.38.84.84,0,0,0,0-.14Z"/><path class="cls-2" d="M53.56,31.16Z"/><path class="cls-2" d="M52.39,30.45c.09.19.24-.09.38-.15.17.15-.1.23-.16.39.14.08.39,0,.45.07s0,.07-.09.1c.25-.05.29.36.63.22a.2.2,0,0,1,0,.08,2,2,0,0,1,.26-.37c.06.05.24-.08.13.12,0,0-.09,0-.15.07l.12,0c-.13.3-.15,0-.29.19.19,0,.48,0,.53.1-.16.3-.29-.1-.32.25l-.08-.24c-.17.51-.07-.12-.27.41.15.29.32.09.49.35.15-.12.13-.25.27-.37.47-.09-.16,1,.32.71.17-.18.37-.59.46-.27l-.22.35c.23.18.34-.47.51-.1-.1.15-.25,0-.22.12.06.4.2-.18.33-.13l-.09.39c.31.08.69-.1,1-.12a.49.49,0,0,0,0,.38l.19,0c.07,0,.12-.05.2.09a2.53,2.53,0,0,1,.46.06,9.92,9.92,0,0,0,1,.29c0-.14.06-.29.08-.43a.29.29,0,0,1,.14.24c.29.1-.1-.24-.06-.41s.26.18.24.31a2,2,0,0,1,.21-.3A1.28,1.28,0,0,1,59,32.5a.73.73,0,0,1,.74-.17l0,.14c.39-.07-.45-.81.07-.69l0,.08a1.25,1.25,0,0,0,.38-.25l.16-.42a.87.87,0,0,1,.67-.65c-.64-.22.48-.41-.48-.62.52-.18.67-.08,1.07-.44.07-.11-.58-.23-.66-.36l.51,0-.51-.21.64-.06-.12-.13a.68.68,0,0,1-.4.08c-.2-.19.39-.45.67-.47l-.45-.45a.81.81,0,0,1,.43.13c-.54-.22.57-.07.07-.28a2.08,2.08,0,0,1-.43,0c.32-.14.33-.41.18-.58H62c.06-.37-.27-.72-.32-1.1a1.18,1.18,0,0,1-.9.2l.57-.18c-.37,0-.2.16-.66.13,0-.15.65-.26.85-.22l-.23-.12a4.37,4.37,0,0,1,.49-.09c-.36,0,.52-.46-.14-.39l.17-.06c-.1-.39-.35-.49-.47-.78-.5.18-.42,0-.85.1.09-.26.36-.66.21-.89-.32-.06-.43.15-.75.22.43-.23.28-.46.65-.49-.2-.26-.25-.35-.8-.48-.16.14-.21.23-.37.29s.1-.24.31-.35h0c-.43,0-.25-.4-.12-.8s.23-.79-.3-.61h.05l-.66.05c0-.19.36-.16.52-.46-.9.24-.3-.6-1-.45.88-1.24-.72-.57-.35-1.52l-.21.29c-.3.21,0-.23,0-.33-.17.22-.13.31-.3.42-.44-.07-.66-.41-.86-.84A7.29,7.29,0,0,0,56,17.46c-.24-.23-1,1.53-1,.63l.39-.55c-.9.49-1.15-.55-2-.05.08-.14.14-.32.2-.31,0-.48-.46-.14-.56.23-.07-.06.07-.34.06-.54s-.45.5-.41,0a.26.26,0,0,1,.1-.17c-.13.19-.38-.14-.4.4-.19-.27-.47.19-.6-.14-.19.58-.36-.32-.48.51.1-.86-.35-.74-.5-.31.06-.26-.12-.26-.05-.63-.16,0-.36.19-.32.63-.22-.51-.46-.29-.62-.11s-.27.33-.53-.26a9.53,9.53,0,0,1-1.27,1.28c-.42-.73.5-.21.09-1a2,2,0,0,0-.35.72c-.09.21-.18.35-.4.4s-.2-.35-.25-.49A.58.58,0,0,1,47,18c-.07.43-.3.73-.11,1.31a.77.77,0,0,1-.16-.25c0,.11-.15.14.16.37l-.06-.16c.48.25.86,1,1.11,1.19-.88-.74-.29.22-1.41-.71a1,1,0,0,0,.41.37c-.08.05-.21,0-.44-.22.11.44.48.49.42.75a2.52,2.52,0,0,1-.39-.27c.29.3.56.54.41.72-.1-.05-.23-.06-.22-.13,0,.45.8.87.48,1.15-.68-.14-.22.09-.81.07l.18.19.28-.06c0,.16.42.3.23.42l-.24-.11.12.28.21-.16c.3.15.73,0,.57.18-.06,0,0,.14-.33.22h0c.18.07.37.13.24.24s-.61,0-.73,0c.47.05.17.34.66.39a1.58,1.58,0,0,0-.45,0l.37,0a.6.6,0,0,1-.38.1c0,.21.66-.13.41.14,0,0-.09,0-.15,0-.11.26.3.43.18.67-.49.15-.17-.17-.58,0,.19.33.75.52.75.89l0-.08c.65-.15-.23.36.14.44a.8.8,0,0,0-.29.08c.1.23.6.25,1.05.3l-.16.09c0,.19.33.23.45.36.14-.1.22,0,.28-.25,0,.48.28.44.49.39s.44-.09.47.25c0,0-.14.06-.11.08h.33c.07-.2,0-.13,0-.3s.21-.15.27-.12c-.18.07-.14.3-.14.42,0-.06.07-.11.09-.17,0,.38.2-.36.29,0l-.06.09c.1,0,.22-.11.29-.05-.07.21-.12.06-.21.22.12,0,.39-.27.4,0-.07,0-.14,0-.21,0,0,.27,0,.21.11.28h0l.15.16,0-.07c.35-.41.32,0,.64-.18-.3.18-.1.14-.2.31s.07.15,0,.19c.15-.11.1.15.32,0,0,.06.1,0,0,.16.13,0,0-.09,0-.16.26-.09.34.32.7.21s.35-.1.58-.06c0,.08-.11.09-.11.09a.38.38,0,0,0,.29.12s0,0,0,.08.1-.07.2,0l-.13.07a1.94,1.94,0,0,1,.34,0s-.09,0-.13,0a1.41,1.41,0,0,0,.37,0l-.07,0c.05,0,0,0,0,0s-.13-.07-.13-.09l.08,0c0-.14-.3-.11-.45-.16l.11-.08-.19,0s0-.12.07-.1-.11,0-.16-.11,0,0,0,0l-.11,0s0-.1.08-.05c-.13-.18-.33,0-.34-.2h0c-.27-.08-.08.1-.34.17l0-.39-.09.12a.09.09,0,0,1,0-.11c-.14.05,0,.07-.11.14,0-.2-.37-.1-.27-.37-.11.1.07.15-.1.17.1-.3-.18,0-.22-.21s.17,0,.13-.2c-.2.23-.18-.19-.3-.19-.11.23-.24,0-.44,0,.05-.08-.22-.3-.31-.49l0,0c-.16.26-.28.13-.42.13.09-.18.14-.23.24-.28l-.1-.06c-.07.08-.12.12-.21.11l.14-.21c-.14-.07-.4.12-.5-.15-.12.23-.16.71-.42.78,0-.13.15-.35.22-.38s-.11.08-.11,0l.17-.17c0-.14-.12.15-.18.1s0-.16.09-.29,0,.1.08,0a.46.46,0,0,1,0-.38c0,.11-.12.25-.18.24s.06-.25,0-.39c-.09.13-.07,0-.23.25,0,0,0-.13.08-.2-.12.1-.25,0-.4.23v0h0c-.2.08-.27,0-.31-.11s0-.18-.18-.19l.12-.05c-.2,0-.15-.19-.45-.2,0,0,.21-.15.36-.17-.11-.09-.26-.07-.07-.27.24.06.19-.08.18.08.08-.17.3-.24-.07-.32.34,0,.41-.18.31-.22l-.24.13c-.06-.06,0-.14,0-.21l.45,0c.57-.33-1-.39,0-.69-.33-.05-.24.16-.63.13.06-.14.77-.31.77-.35.29-.17-.71-.13-.52-.33-.18,0-.66.06-.82-.09.07-.14.77-.16.91-.07s0,0-.11,0a.36.36,0,0,0,.34.05l-.18,0c.19-.06.19-.23.49-.19a.35.35,0,0,0-.4,0c.28-.15,0-.25.24-.4-.11,0-.33,0-.33,0,.27-.22-.34-.13-.41-.27.29,0,.67.12.45,0a2.49,2.49,0,0,1,.65.14c-.35-.14.25,0,.31,0l.15.06c-.09,0-.08,0-.08,0L50,22.06a.64.64,0,0,1,.22.06,8.64,8.64,0,0,1-.93-.42c.19.06-.17-.22.3,0-.17,0,.48.25.55.34s0,0,0,0l.13.07c.42.21-.53-.31-.51-.39a2.9,2.9,0,0,0,.45.28,1.28,1.28,0,0,1-.25-.16,4.2,4.2,0,0,1-.38-.3c.22.09-.13-.19-.1-.21l-.1,0a.71.71,0,0,1-.27-.37c.2.17.12.17.21.23-.41-.48.49.29.22-.06.17.14.45.49.56.59L50,21.57c-.08-.15.37.42.17.11a3.76,3.76,0,0,1-.48-.72,1.54,1.54,0,0,0,.14.37c-.14-.2-.27-.42-.41-.65,0,.05.16.34.1.3a2.38,2.38,0,0,0-.43-.54c.49.51-.23-.55.2-.13l.69,1c.34.46-.18-.56.1-.32L50,20.84c-.17-.43.06-.08,0-.26.13.36.2.49.29.72-.09-.28.07,0-.1-.72.06.16.12.33.17.49s-.06-1.07.12-.95c0,.41,0,.67,0,1,0,0,0,.07,0-.19,0,.23.15-.5.19-.14,0-.17,0-.56.12-.53a.67.67,0,0,1,0,.18c0-.19.13-.23.09-.66.1,1.2.58,0,.6,1a.75.75,0,0,1,.46-.19c0,.11-.05.19-.06.14.07.4.36-1,.46-.59-.06.63-.18.29-.19.54-.31,1.23.27-.1.18.65l-.05.06c-.06.44.36-.41.48-.24a1.08,1.08,0,0,0-.07.18,1.48,1.48,0,0,1,.85-.77,2.16,2.16,0,0,0-.36.69c.1,0,.32-.76.52-.83a4.3,4.3,0,0,1-.31,1l-.13,0c-.25.67.16.05.17.18l-.15.28c.21,0,.58-.68.75-.52l.09-.21c.5-.61-.13.43.27,0l-.37.69a3.2,3.2,0,0,1,.86-.54,10.38,10.38,0,0,1-1,.84c0,.05.24.08.49-.22-.07.05-.21.19-.17.07.43-.47.71-.64.84-.52-.93,1.22.11.57-.55,1.56.58-.29.21.52.48.64.76-.92.09,0,.94-.84.11,0,.12,0,.07.09-.12.23-.24.44-.37.66s-.24.13-.44.32c0,.17-.34.4-.52.68.31-.31.5-.38.43-.21l.34-.46c.63-.25-.66.8,0,.54l-.33.19c.24-.06.23.27,1.08-.22a1.77,1.77,0,0,1-.45.33c0,.27,1.17-.1.8.39l-.27.13c.1,0,.53-.21.31,0a1,1,0,0,0-.27.15c.1,0,.5-.14.39,0l-.32.11c-.22.38.89,0,1.18.1a2.17,2.17,0,0,0-1,.75l-.11,0c0,.26.82.18,1.24.36-.8.38-.22.62-.61.94a1.88,1.88,0,0,1,.7,0c-.13.08.57.11-.14.18v0c-.7.12-.5.2-.5.29l.93,0c-.66.18-.5.31-.34.47s.28.32-.29.33c.22.08.22.16.44.25l-.47-.07a.34.34,0,0,0-.07.43l-.31-.1c0,.09,1.26.42,1.26.55l-.66-.13s-.16,0-.24,0,0,0,.18.22l-.26-.18s-.41-.24.26.34c-.43-.38-.1,0,0,.22l-.24-.32c.27.42.34.53.32.69-.05,0-.18-.26-.1-.19-.17-.15.12.33-.08.17l-.08-.22c-.08,0,0,.1,0,.37s-.22,0-.3-.38c0,.2,0,.45,0,.36a1,1,0,0,1,0-.23c-.14-.24-.18.42-.29.06a1,1,0,0,0,0-.21c.11,0,.17,0,.17.06a5.8,5.8,0,0,1-.06-.83c0,.25-.1.77-.21.62V30.2s0,0-.07.06,0-.09-.07-.09c0-.25-.09-.13-.14-.15-.08.32-.14.26-.14.54,0,0,0,0,.07,0s0,0,0,0v0h.15c-.08.17-.16.31-.19.11-.08.21-.17.41-.22.51a6.09,6.09,0,0,1,0-1c-.24.15-.45,0-.82.49-.09.05,0-.16,0-.24s.09,0,.14-.09c-.17.1-.33-.08-.55.23,0-.2.25-.25,0-.29l.08-.08c0-.3-.28-.18-.55-.12s-.51,0-.48-.31a.15.15,0,0,1,0,.11,1.69,1.69,0,0,0-.56-.57,1.06,1.06,0,0,1-.39-.69c0-.15-.14-.12-.25-.17l.11-.08-.22-.09c-.13-.21.12-.42-.11-.67l0,0c0-.1-.06-.32,0-.31s0,0,0-.07h0a.88.88,0,0,1-.06-.26c0-.2.08,0,.07-.26a1.16,1.16,0,0,1,0-.28,1,1,0,0,1,0,.12v-.11s0-.09-.07.14a1.77,1.77,0,0,0-.06.17l0,.06.06-.15a.45.45,0,0,0-.07.19l-.06.07a.54.54,0,0,0,0,.18s0-.08-.08,0,.08-.08.08.06-.08.06-.06.16,0,0,0,0,0,.25,0,.29c-.1.1,0,.31-.13.33a.54.54,0,0,1,.14.24c-.2-.12,0,.34-.22.36.22.06.16.42.33.59,0,0-.06,0-.05,0a.89.89,0,0,1-.06.3c.19-.08.31.07.47.08-.14.27-.27.07-.44.22.16-.1.26.16.38,0-.07.19,0,.12-.16.3.27-.17.1.07.31,0,0,.25-.23.24-.06.34C52.56,30.53,52.39,30.45,52.39,30.45Zm4,2h0Zm.43.11s-.06,0-.09,0-.07,0-.1-.05,0-.25.06-.24S56.74,32.5,56.81,32.59Zm-.36-2.5c0-.05,0,0,0,.08l-.07,0v0Z"/><path class="cls-2" d="M56.29,30.51l0,0v.08l0-.1Z"/><path class="cls-2" d="M49.44,25.75h0s0,0,0,0Z"/><polygon class="cls-2" points="61.68 29.16 61.56 29.16 61.66 29.2 61.68 29.16"/><path class="cls-2" d="M50.54,27.25s0,.05,0,.07A.16.16,0,0,0,50.54,27.25Z"/><path class="cls-2" d="M51.24,27.57l.07.1Z"/><path class="cls-2" d="M51.75,27.85l0-.07h0Z"/><path class="cls-2" d="M46.7,19.07a.11.11,0,0,0,0-.05C46.64,18.86,46.65,19,46.7,19.07Z"/><path class="cls-2" d="M47.38,23.16l-.21-.09C47.14,23.12,47.14,23.17,47.38,23.16Z"/><path class="cls-2" d="M50.79,16.57Z"/><path class="cls-2" d="M47.17,22.93c-.08.06-.06.1,0,.14S47.24,23,47.17,22.93Z"/><polygon class="cls-2" points="54.19 28.62 54.22 28.63 54.23 28.63 54.19 28.62"/><path class="cls-2" d="M54.23,28.63h0Z"/><path class="cls-2" d="M54.33,28.64h0Z"/><path class="cls-2" d="M53.45,28.38l0,0Z"/><path class="cls-2" d="M53.22,28.32c.05,0,.1.11.19.11l0,0C53.37,28.45,53.3,28.28,53.22,28.32Z"/><path class="cls-2" d="M52.58,27.38l.15.14c0-.06,0-.16.07-.12C52.67,27.1,52.79,27.54,52.58,27.38Z"/><path class="cls-2" d="M52.09,27c.11,0,0-.1.07-.13S52.05,26.88,52.09,27Z"/><path class="cls-2" d="M49.08,25l.32-.06C49.35,24.86,49.28,25,49.08,25Z"/><polygon class="cls-2" points="47.18 24.48 46.98 24.59 47.31 24.59 47.18 24.48"/><polygon class="cls-2" points="49.69 23.7 49.74 23.72 49.62 23.62 49.69 23.7"/><path class="cls-2" d="M51.28,21.33l.07-.6C51.29,20.83,51.19,21.5,51.28,21.33Z"/><path class="cls-2" d="M53.85,21.65c-.13.29-.17.5,0,.26C53.85,21.84,53.92,21.59,53.85,21.65Z"/><polygon class="cls-2" points="57.37 28.23 57.18 28.19 57.35 28.27 57.37 28.23"/><path class="cls-2" d="M47.32,18.73h.06Z"/><path class="cls-2" d="M47.54,18.88s.12,0,.11,0h-.13s-.06,0-.05-.05,0,0-.08,0a.62.62,0,0,0,.16.1S47.55,18.88,47.54,18.88Z"/><path class="cls-2" d="M49.44,22.09l0,0A.05.05,0,0,0,49.44,22.09Z"/><path class="cls-2" d="M49.53,24.3a.13.13,0,0,0-.11,0A.19.19,0,0,0,49.53,24.3Z"/><path class="cls-2" d="M48.94,24.68l0,0S48.9,24.68,48.94,24.68Z"/><path class="cls-2" d="M49.44,22.09l-.09.1C49.46,22.15,49.42,22.13,49.44,22.09Z"/><path class="cls-2" d="M48.12,19h0Z"/><path class="cls-2" d="M48.87,21.28h0l-.1,0Z"/><path class="cls-2" d="M48.54,20.61s.16-.1.23-.15-.1.06-.12.05Z"/><path class="cls-2" d="M48,19.4h0Z"/><path class="cls-2" d="M49,21.82l-.09.05Z"/><path class="cls-2" d="M52.13,23v0S52.14,23,52.13,23Z"/><polygon class="cls-2" points="52.86 23.77 52.85 23.77 52.85 23.77 52.86 23.77"/><path class="cls-2" d="M48.24,25.24h0S48.21,25.23,48.24,25.24Z"/><path class="cls-2" d="M48.82,25c-.38.33-.59.28-1,.67A7.58,7.58,0,0,0,48.82,25Z"/><path class="cls-2" d="M48.13,19l0,0Z"/><path class="cls-2" d="M47.82,25.64h0l0,0Z"/><path class="cls-2" d="M48.13,26.42l.22,0Z"/><path class="cls-2" d="M49.13,25.65h0Z"/><path class="cls-2" d="M48.62,27.1s-.12,0-.06,0l.06,0C48.56,27.11,48.53,27.09,48.62,27.1Z"/><path class="cls-2" d="M48.36,27.57l.1,0v0Z"/><path class="cls-2" d="M50.37,21.7a1.55,1.55,0,0,1,0,.23C50.38,21.76,50.48,21.77,50.37,21.7Z"/><path class="cls-2" d="M48.09,19.06s0,0,0,0h0Z"/><path class="cls-2" d="M52.47,28.76l-.12.11A.17.17,0,0,0,52.47,28.76Z"/><path class="cls-2" d="M44.11,20.83l0-.07S44.07,20.79,44.11,20.83Z"/><path class="cls-2" d="M52.24,29.34a1.33,1.33,0,0,0-.37-.09l.12.08Z"/><path class="cls-2" d="M50.32,21.93Z"/><path class="cls-2" d="M51.11,21.9c-.08-.08-.13.21-.2.34s0-.22,0-.38c-.08,0-.23.22-.27.18a.28.28,0,0,1,0-.12c-.16.17-.21-.15-.41.1,0,0,0-.06,0-.09a3.64,3.64,0,0,1-.14.43s-.16.16-.1-.05c0,0,.06-.07.1-.12l-.08.06c.07-.31.1-.07.18-.28-.12,0-.32.24-.35.12.1-.32.19,0,.21-.34l0,.18c.1-.51.05.08.17-.46-.09-.19-.2,0-.29-.15-.1.16-.09.27-.18.42-.35.21,0-1-.45-.68-.11.2-.16.68-.33.34,0-.14,0-.28.07-.42-.3-.19-.12.59-.41.14,0-.17.19-.05.14-.13-.23-.47-.1.21-.22.15l-.11-.46c-.3-.09-.5.11-.73.07a1.75,1.75,0,0,0-.21-.49c-.2.18-.6-.15-1.06-.48l.15.43a1,1,0,0,1-.18-.28c-.2-.17.16.27.21.43s-.22-.25-.27-.38c0,.36,0,.69-.47.24L46,20.11c-.28-.17.48.77.06.39l0-.07c-.45-.2-.44.06-1.23-.48.5.47-.56-.25.21.4-.49-.2-.59-.32-1-.24-.06.05.49.48.55.62l-.44-.29.42.43L44,20.6l.09.16a.74.74,0,0,1,.36.13c.17.25-.41.15-.66,0,.09.19.2.36.3.53a1.16,1.16,0,0,1-.35-.28c.44.41-.54-.21-.12.18a2.76,2.76,0,0,1,.39.18c-.31,0-.34.17-.23.37l-.35-.15c-.12.26.08.65,0,1a1.48,1.48,0,0,1,.9.16l-.59-.06c.35.11.23,0,.66.13-.08.09-.68,0-.86-.13l.18.17a3.88,3.88,0,0,1-.49-.1c.36.1-.67.19,0,.36H43c0,.36.24.53.3.8.52,0,.42.09.86.13-.13.18-.5.47-.41.7.29.11.45-.05.77-.06-.46.12-.41.36-.76.32.15.27.21.37.67.47a1.54,1.54,0,0,1,.41-.2c.1,0-.16.17-.38.26h0c.4,0,.13.3-.11.6s-.41.61.11.48H44.4c.2,0,.41,0,.61,0,0,.15-.37.13-.6.36.86-.17.13.47.73.37-1.14,1,.46.47-.13,1.26l.26-.24c.31-.17-.11.19-.14.29.21-.19.2-.27.38-.36.66.13.4,1.19.73,1.85.14.22,1.21-1.38.92-.55l-.45.49c.8-.39.79.51,1.49.12-.09.13-.18.3-.21.28-.13.46.31.16.46-.19,0,.06-.13.32-.17.51s.46-.46.32,0a.41.41,0,0,1-.11.16.13.13,0,0,1,.13-.07l3,.31.26-1.41c0-.08.05-.15-.27-.29.29,0-.09-.38.24-.34-.49-.34.37-.12-.37-.5.78.38.73,0,.39-.21.22.13.27,0,.59.2,0-.11-.09-.27-.5-.41,1,.16-.64-.64.6-.33a6.61,6.61,0,0,1-.73-1.12c.8.19,0,.31.86.51-.27-.36-.94-.64-.72-.85.11-.05.34.1.47.15-.3-.32.12-.51-.31-.78a.52.52,0,0,1,.21.07c0-.05.11-.1-.24-.13l.1.06a7.11,7.11,0,0,1-1.32-.3c1,.15.25-.18,1.51,0a1.38,1.38,0,0,0-.46-.09c.06,0,.2,0,.46,0-.19-.18-.55-.14-.55-.27a2.45,2.45,0,0,1,.43.06c-.33-.09-.66-.17-.52-.28s.22,0,.22,0c-.07-.21-.86-.32-.58-.54.69,0,.22-.08.81-.12l-.2-.11-.28.06c0-.1-.44-.15-.27-.25l.25.05L51.58,24l-.2.12c-.31-.06-.72.08-.58-.05s0-.09.32-.18h0c-.18,0-.37-.05-.25-.13s.61-.08.72-.11c-.46,0-.19-.2-.67-.18a4.14,4.14,0,0,0,.45-.06l-.37,0a.78.78,0,0,1,.38-.11c0-.15-.66.17-.41,0,0,0,.08,0,.14,0,.1-.18-.29-.24-.18-.42.48-.17.17.09.57-.06-.18-.19-.74-.26-.7-.48l0,.05c-.64.18.26-.24-.09-.23a1.09,1.09,0,0,0,.29-.08c0-.16-.29-.21-.55-.32l.15,0c.1-.13,0-.23,0-.33-.15,0-.15,0-.33.1.31-.29.13-.35-.05-.4s-.35-.08-.16-.33c0,0,.14,0,.13,0l-.23-.1c-.17.12-.09.08-.21.2s-.23,0-.26,0c.16,0,.28-.18.35-.27l-.16.1c.24-.27-.35.2-.23,0l.09,0c-.07,0-.2,0-.22,0,.17-.14.12,0,.27-.11-.07-.05-.43.11-.3-.07.07,0,.1,0,.17,0,.15-.2.09-.18.08-.24h0l0-.17,0,.07c-.47.23-.22-.1-.55,0,.31-.08.15-.09.31-.2s0-.14.07-.16c-.17.06,0-.14-.24-.06,0,0-.06,0,.06-.13-.11,0-.05.08-.11.12-.24,0-.1-.33-.42-.28s-.31.05-.45,0,.12-.07.12-.07a.18.18,0,0,0-.17-.12s0,0,0-.08-.1.06-.14,0a.73.73,0,0,1,.12-.05,2.13,2.13,0,0,1-.25,0s.07,0,.12,0a.79.79,0,0,0-.27,0l0,0s0,0,0,0,.08.05.07.07h-.05c0,.11.19.09.27.15l-.11.06h.15s0,.11-.09.09.08,0,.07.11h0l.08,0s-.06.09-.08,0c0,.16.22.06.17.19h0c.16.08.11-.08.32-.11l-.21.33.12-.1a.08.08,0,0,1,0,.1c.12,0,0-.06.15-.1-.06.17.21.13,0,.34.12-.07,0-.14.16-.13-.23.23.11.05,0,.2s-.12,0-.2.14c.26-.15,0,.17.1.19.2-.15.15.06.28.1-.08.05,0,.26-.07.42l0,0c.27-.15.27,0,.36,0a.74.74,0,0,1-.33.13l0,.07a.29.29,0,0,1,.21,0l-.23.11c0,.08.34,0,.22.22.24-.11.58-.43.79-.38a1.43,1.43,0,0,1-.39.18s.12,0,.08,0l-.23.06c-.07.1.18-.07.18,0-.17.09-.11.09-.26.16s.06-.07,0-.05a.54.54,0,0,1-.24.26c.11-.06.25-.12.29-.1s-.22.14-.3.24c.14-.05,0,.07.3-.06,0,0-.12.09-.2.14.14,0,.1.19.41,0l0,0h0c.37,0-.08.39.09.49l-.11,0c.16,0,.13.17.4.15,0,0-.2.14-.35.17.1,0,.24,0,.06.17-.23,0-.19.08-.17,0-.1.12-.31.2.06.2-.33.05-.41.17-.31.19l.24-.12s0,.08,0,.13l-.44.08c-.57.28,1,.12,0,.43.34,0,.23-.13.62-.16,0,.1-.74.29-.74.31-.29.14.71,0,.52.14a2.11,2.11,0,0,1,.83,0,2,2,0,0,1-.91.15s0,0,.11,0a.52.52,0,0,0-.34,0h.18c-.19.05-.17.16-.47.16a.57.57,0,0,0,.4-.05c-.28.12,0,.15-.21.26l.33,0c-.26.16.35.05.42.16-.29.07-.69,0-.46.1a1.81,1.81,0,0,1-.66,0c.36.09-.28.16-.36.2l-.15,0c.09,0,.09,0,.08.06h.4a.6.6,0,0,1-.25,0,9.82,9.82,0,0,1,1,.06c-.21,0,.2.13-.34.12.21-.11-.53,0-.59-.11s.05,0,0,.06l-.14,0c-.5.07.59.08.55.19-.3,0-.58,0-.52,0a2.3,2.3,0,0,1,.74.08c-.25,0,.16.1.12.14l.12,0c.3.05.26.09.35.15-.24,0-.16-.07-.27-.06.53.13-.59.06-.24.19-.22,0-.59-.09-.74-.09.38.15-.45,0-.14.15a2.11,2.11,0,0,1,.71.17l-.25-.2.58.21c0-.05-.24-.15-.16-.16a1.81,1.81,0,0,0,.57.12c-.64-.05.34.2-.1.2l-1-.22c-.49,0,.47.3.16.37h.2c.41.12,0,.1.18.19a6.2,6.2,0,0,0-.71-.17c.26.08-.06.08.63.32l-.48-.09c-.23,0,.94.46.77.53a7.53,7.53,0,0,1-.87-.39s-.09,0,.14.13c-.22-.08.43.27.08.17.15.08.51.24.46.27l-.17-.08a2.42,2.42,0,0,0,.6.3c-1.11-.38-.1.36-1,0a1.12,1.12,0,0,1,.12.29l1.48-.5H50c0-.1.08-.17.07-.13.06-.37-.49,1-.45.56.21-.59.2-.28.27-.51.52-1.15-.2.1.07-.6l0-.06c.16-.4-.33.36-.38.23l.1-.17a1.84,1.84,0,0,1-.8.74,3.59,3.59,0,0,0,.45-.63c-.07,0-.44.69-.6.75a7,7,0,0,1,.53-.93l.08,0c.37-.6-.09,0-.05-.16l.19-.25c-.14,0-.63.65-.7.51l-.14.19c-.55.55.24-.38-.19,0l.5-.61a3.86,3.86,0,0,1-.81.5c.45-.38.72-.54,1-.76,0,0-.14-.05-.43.22.07-.05.22-.17.15-.07-.47.42-.74.57-.81.48,1.11-1.05.1-.45,1-1.28-.52.25,0-.37-.14-.43-.94.74-.06,0-1,.69-.09,0-.09,0,0-.07s.35-.34.53-.51.25-.11.47-.26c0-.12.42-.31.66-.52-.36.24-.54.31-.42.19l-.45.34c-.62.24.83-.6.22-.36l.35-.16c-.22.06-.1-.15-1,.22a3.19,3.19,0,0,1,.5-.24c.08-.16-1.09.13-.58-.2l.27-.1c-.09,0-.53.15-.27,0A1.47,1.47,0,0,0,48.4,24c-.1,0-.49.14-.34.06l.32-.08c.36-.13-.8.13-1,0l1.26-.23h.12a6.57,6.57,0,0,1-1.1-.19c1,.08.39-.1.94,0a7.22,7.22,0,0,1-.79-.27c.18.05-.63-.29.2,0h0c.81.29.59.21.62.2L47.5,23c.8.31.65.23.5.09s-.33-.32.36.13c-.26-.19-.26-.21-.51-.42l.56.41c.15.08.21.12.1,0l.38.31-.72-.62-.5-.43-.22-.2.74.62c.06,0,.61.49.11,0l.27.27s.38.32-.32-.37c.46.45.08,0,0-.14l.28.32a2.82,2.82,0,0,1-.46-.59s.21.24.13.16c.17.16-.2-.27,0-.1l.13.18c.06,0,0-.07-.16-.26s.17.1.33.33c-.1-.14-.19-.32-.12-.24a1.5,1.5,0,0,1,.1.16c.16.17,0-.24.14,0l.07.13-.11-.05a5.67,5.67,0,0,1,.33.55c-.1-.16-.22-.53-.13-.37l0,.08h0s0,0,0,0l0,.1a1.24,1.24,0,0,0,.06.19,2.44,2.44,0,0,0-.06-.39s0,0,0,0,0,0,0,0v0l0-.05c0-.09,0-.17,0,0,0-.13,0-.28,0-.34a2.78,2.78,0,0,1,.17.81c.05-.06.1.09.29-.35.05-.05,0,.16,0,.24s0,0-.07.08.15.06.32-.28c0,.17-.18.3,0,.27l-.06.1c0,.29.25.08.44-.06s.36-.26.41.06a.2.2,0,0,1,0-.11c.28.3.81,0,1.07.36.08.06.14,0,.23-.1l0,.12.16-.11c.18,0,.17.3.42.17v-.05c.06,0,.22,0,.2.06s0,0,.05,0v0a.6.6,0,0,1,.19,0c.13,0-.05.07.15.08h.19l-.07,0,.06,0s0,.05-.07-.08l-.1-.06,0-.05.07.07a.22.22,0,0,0-.1-.08.09.09,0,0,0,0-.06l-.11,0s.06,0,0-.09,0,.1-.07.07,0-.1-.07-.11,0,0,0,0-.12-.1-.17-.06c0-.11-.17-.1-.11-.23a.24.24,0,0,1-.17,0c.15-.12-.16-.13-.05-.33-.13.13-.24-.1-.38-.06s0,0,0,0,0-.15-.06-.23c-.08.2-.19.18-.29.28,0-.26.14-.23.19-.45-.06.18-.19.08-.22.26a.91.91,0,0,1,0-.32c-.12.3-.07,0-.18.17,0-.21.09-.31,0-.28A.21.21,0,0,1,51.11,21.9Zm-3.2-1h0l.07,0Zm-.25,0a.23.23,0,0,0,.11,0,.94.94,0,0,1,.12.3A1.67,1.67,0,0,0,47.66,20.85Zm1.19,2.29s0,0,0-.08h0v0Z"/><path class="cls-2" d="M48.81,22.87h0l0-.06v.07Z"/><path class="cls-2" d="M49.48,22h0l0,0Z"/><polygon class="cls-2" points="44.01 20.38 44.12 20.44 44.03 20.36 44.01 20.38"/><path class="cls-2" d="M49.78,20.59l0,0Z"/><path class="cls-2" d="M49.48,20.17v-.1A.16.16,0,0,0,49.48,20.17Z"/><path class="cls-2" d="M49.26,19.82l-.06.05h0Z"/><path class="cls-2" d="M52.36,26l0,0C52.48,26.05,52.44,26,52.36,26Z"/><path class="cls-2" d="M51.12,23.91l.21,0S51.36,23.88,51.12,23.91Z"/><path class="cls-2" d="M52.49,28.75h0s0,0,0,0Z"/><path class="cls-2" d="M51.34,24c.08-.05.06-.08,0-.1S51.27,24,51.34,24Z"/><polygon class="cls-2" points="47.78 18.89 47.77 18.88 47.76 18.88 47.78 18.89"/><path class="cls-2" d="M47.76,18.88h0A0,0,0,0,0,47.76,18.88Z"/><path class="cls-2" d="M47.69,18.87h0Z"/><path class="cls-2" d="M48.25,19.13l0,0Z"/><path class="cls-2" d="M48.4,19.2s0-.1-.1-.11l0,0C48.34,19.08,48.32,19.23,48.4,19.2Z"/><path class="cls-2" d="M48.44,20.05l0-.13c0,.06-.07.14-.11.1C48.24,20.27,48.37,19.9,48.44,20.05Z"/><path class="cls-2" d="M48.57,20.44c-.06,0-.09.07-.12.09S48.54,20.52,48.57,20.44Z"/><path class="cls-2" d="M49.42,22.93,49.1,23S49.23,23,49.42,22.93Z"/><polygon class="cls-2" points="51.28 23.01 51.47 22.91 51.15 22.95 51.28 23.01"/><polygon class="cls-2" points="48.81 23.84 48.76 23.83 48.88 23.88 48.81 23.84"/><path class="cls-2" d="M48,27.26l.54.28C48.45,27.46,47.85,27.15,48,27.26Z"/><path class="cls-2" d="M49.06,26.51c.18-.26.29-.44.07-.22C49.12,26.34,49,26.56,49.06,26.51Z"/><polygon class="cls-2" points="48.32 23.34 48.54 23.45 48.36 23.35 48.32 23.34"/></g></g></g></svg>