<svg width="168" height="74" viewBox="0 0 168 74" fill="none" xmlns="http://www.w3.org/2000/svg">
<g clip-path="url(#clip0)">
<path d="M7.33675 62.655C7.50871 62.5975 7.39407 62.5975 6.93552 62.8278L6.59161 63.0006L7.33675 62.655Z" fill="#202020"/>
<path d="M4.24159 64.2099C3.72573 64.4979 3.09523 64.7858 3.43914 64.6706C3.955 64.3827 4.06964 64.3251 4.64282 64.0372C5.10137 63.8068 5.44528 63.6341 5.38796 63.6917C5.55992 63.6341 6.07578 63.3461 6.36237 63.231C5.78919 63.4613 4.98673 63.8068 4.24159 64.2099C4.18428 64.2099 4.06964 64.2675 4.24159 64.2099Z" fill="#202020"/>
<path d="M44.4217 73.8271L44.0778 73.7695C44.1925 73.8271 44.3071 73.8271 44.4217 73.8271Z" fill="#202020"/>
<path d="M75.1443 70.2563C74.9151 70.3139 74.8577 70.3715 74.8004 70.4291C75.0297 70.3139 75.2017 70.2563 75.1443 70.2563Z" fill="#202020"/>
<path d="M80.303 69.105C80.1884 69.105 80.0737 69.1626 80.0164 69.1626C80.1311 69.1626 80.2457 69.1626 80.303 69.105Z" fill="#202020"/>
<path d="M44.4218 73.8271C44.7083 73.8847 44.9949 73.8847 45.2242 73.9423C45.2815 73.8847 44.823 73.8847 44.4218 73.8271Z" fill="#202020"/>
<path d="M2.06347 66.6284C1.89151 66.5708 1.77687 66.5708 1.60492 66.5708C1.71956 66.5708 1.89151 66.5708 2.06347 66.6284C2.00615 66.6284 2.00615 66.6284 2.06347 66.6284Z" fill="#202020"/>
<path d="M30.78 72.7905L30.5507 72.7329C30.4934 72.7329 30.3787 72.7329 30.3214 72.7905H30.78Z" fill="#202020"/>
<path d="M20.4627 71.0629C20.6919 71.1205 20.8066 71.0053 20.9212 71.0053C20.8066 71.0053 20.5773 71.0053 20.4053 71.0053C20.348 70.9477 20.4053 71.0053 20.4627 71.0629Z" fill="#202020"/>
<path d="M4.29892 67.3193L4.01233 67.2617C4.06965 67.2617 4.18428 67.3193 4.29892 67.3193Z" fill="#202020"/>
<path d="M38.2313 73.6543C38.2313 73.6543 38.2886 73.7119 38.346 73.7119C38.346 73.7119 38.2886 73.7119 38.2313 73.6543Z" fill="#202020"/>
<path d="M89.6458 66.5132C89.3593 66.6284 89.5312 66.5708 89.6458 66.5132V66.5132Z" fill="#202020"/>
<path d="M157.396 25.9143C158.313 25.396 156.536 27.354 157.797 26.4902C157.568 26.4902 158.371 25.1657 157.396 25.9143Z" fill="#202020"/>
<path d="M2.29279 66.686C2.40742 66.7436 2.57938 66.7436 2.69401 66.8012C2.52206 66.7436 2.40742 66.686 2.29279 66.686Z" fill="#202020"/>
<path d="M157.74 26.4897L157.855 26.3745C157.855 26.4321 157.797 26.4321 157.74 26.4897Z" fill="#202020"/>
<path d="M110.682 58.9692C110.624 58.9116 110.51 58.9116 110.395 58.9116C110.452 58.9692 110.51 58.9692 110.682 58.9692Z" fill="#202020"/>
<path d="M94.8619 64.2099L95.2631 64.0947C95.0911 64.0947 94.9765 64.1523 94.8619 64.2099Z" fill="#202020"/>
<path d="M118.477 55.1688C118.706 55.1112 118.764 55.1112 119.05 54.9385C118.993 54.9385 118.993 54.9385 118.936 54.9385C118.878 54.9961 118.764 55.1112 118.477 55.1688Z" fill="#202020"/>
<path d="M126.502 50.9648C126.444 50.9648 126.387 50.9648 126.33 50.9648C126.272 51.0224 126.158 51.08 126.1 51.1376L126.502 50.9648Z" fill="#202020"/>
<path d="M42.4729 64.2675C42.301 64.2099 42.129 64.1523 42.0717 64.1523C42.1863 64.2675 40.868 64.2675 42.4729 64.2675Z" fill="#202020"/>
<path d="M2.0635 66.6284C2.12081 66.6284 2.17813 66.6284 2.35009 66.686C2.17813 66.6284 2.12081 66.6284 2.0635 66.6284C2.00618 66.6284 2.00618 66.6284 2.0635 66.6284Z" fill="#202020"/>
<path d="M117.789 52.8073L119.05 52.2314C118.706 52.4042 118.248 52.577 117.789 52.8073Z" fill="#202020"/>
<path d="M106.383 57.1265L106.096 57.2416C106.211 57.1841 106.326 57.1841 106.383 57.1265Z" fill="#202020"/>
<path d="M122.776 50.2738C123.062 50.2738 123.292 50.1586 123.578 50.101C123.636 50.0434 123.693 49.9858 123.693 49.9282C123.349 50.0434 123.062 50.1586 122.776 50.2738Z" fill="#202020"/>
<path d="M32.6715 64.2098C34.0471 64.2674 33.302 64.0947 33.5886 63.9795C35.1935 63.9795 34.3337 64.0947 34.9069 64.2098C35.9386 64.2098 36.6837 64.0371 37.4289 64.0947C37.4862 64.1523 37.6582 64.1523 37.4862 64.1523C38.5753 64.0371 40.6387 64.2098 41.8997 64.0371C42.0143 64.0371 42.0143 64.0947 42.0717 64.0947C41.8424 63.9795 41.8424 63.9219 41.8997 63.8067C42.5302 63.8067 43.0461 63.6916 43.2754 63.8067C42.8741 63.8067 42.8741 63.8643 42.7022 63.8643L43.3327 63.8067C43.9059 63.9795 42.4729 63.8643 42.4729 63.9795C43.7339 63.9219 45.1669 63.8067 46.1413 63.8643C46.3705 64.0371 43.9059 63.9219 45.1669 64.0947L43.6766 64.0371C44.8229 64.325 42.7595 63.9795 43.7912 64.325C45.74 64.4402 45.9693 64.2674 47.9181 64.325C48.3767 64.2098 47.7462 64.1522 48.2047 64.0371C50.956 63.8067 50.3828 64.5554 52.389 64.2098C52.9048 64.0371 53.0768 63.8067 54.5671 63.9219L54.1085 64.1523C56 64.1523 55.1976 63.8067 57.1464 63.8643C56.8025 63.9795 55.6561 63.9795 55.9427 64.0371C57.2037 64.2098 56.8598 63.8643 57.8342 63.8067L58.0635 64.0371C59.0379 63.9795 60.1269 63.9219 61.216 63.8067C62.305 63.6916 63.3941 63.5764 64.4831 63.5188C64.3685 63.5764 63.9673 63.6915 64.5404 63.7491C65.2283 63.6915 65.9734 63.634 66.7185 63.5764C67.4637 63.5188 68.2088 63.4612 68.954 63.4612C70.4442 63.4036 71.9345 63.346 73.2528 63.2884L74.2846 62.9429C74.5138 62.9429 74.7431 63.0005 74.4565 63.0581C75.4882 63.0581 74.5138 62.8853 74.9724 62.7701C75.5456 62.7126 75.7748 62.8277 75.4309 62.9429C75.8895 62.8277 76.4627 62.7126 77.0358 62.655C77.6663 62.5398 78.2968 62.4246 78.9273 62.3094C80.2457 62.0791 81.564 61.9639 82.5957 61.9063L82.2518 62.0215C83.7994 61.9063 83.8567 61.2729 85.2897 61.2729L85.0031 61.3305C85.8055 61.2153 86.6653 61.1001 87.5251 60.9849C88.3849 60.8122 89.1873 60.697 89.9898 60.5242C91.5947 60.2363 93.1423 60.0059 94.4033 59.9484C94.8045 59.4877 97.6704 59.4301 97.7278 58.8542C99.6193 58.6814 99.1034 58.9118 101.74 58.4511C102.428 58.2783 102.714 57.8752 103.517 57.5873L103.632 57.8752L104.721 57.2417L105.408 57.4145L106.211 57.1266C105.867 57.1842 105.523 57.1842 105.523 57.069C106.727 56.6083 108.618 56.4355 108.676 56.5507L111.541 55.3989C111.541 55.5141 111.026 55.7445 110.682 55.9172C112.115 55.111 111.083 56.1476 112.401 55.3989C112.172 55.3989 112.459 55.1686 112.459 55.111C113.261 55.111 114.809 54.4775 116.012 54.0168L115.84 54.3048C116.929 53.9593 118.076 53.5561 119.165 53.0379C120.311 52.5772 121.458 52.0589 122.661 51.5982C121.744 51.8285 121.801 51.4254 122.489 51.0799L122.89 51.3102C123.234 50.9071 122.145 51.483 122.948 50.8495C123.865 50.504 123.693 50.9647 123.234 51.2526C123.578 51.0799 123.922 50.8495 124.266 50.6768C124.381 50.7344 124.152 50.9071 124.152 51.0799C124.495 50.6768 126.1 50.5616 126.616 49.9857L126.731 50.0433C127.304 49.813 127.82 49.5826 128.278 49.3522C128.737 49.1219 129.138 48.8915 129.482 48.7188C130.227 48.3157 130.972 47.9126 131.889 47.4519C131.775 47.1639 132.577 46.876 132.979 46.3577C134.354 45.7242 135.959 45.0908 137.564 44.1694C138.596 43.3631 137.736 43.7663 138.137 43.3056C138.366 43.4783 139.914 42.4993 139.226 43.1904C141.06 41.981 141.634 41.7507 143.812 39.9655C143.468 40.0231 143.181 40.1958 143.296 40.0231C143.697 39.6775 144.328 39.5048 144.328 39.62L144.213 39.7351C144.786 39.2168 145.474 38.7561 146.276 38.2954C147.022 37.8347 147.767 37.374 148.512 36.9133C149.257 36.4526 150.002 36.0495 150.633 35.5888C151.263 35.1281 151.836 34.6098 152.18 34.0916L152.066 34.2067L153.842 32.3063C154.817 31.5577 153.441 32.9398 154.244 32.4791C154.473 32.1912 154.702 31.9608 154.931 31.7305C155.161 31.5001 155.333 31.2698 155.562 31.0394C155.963 30.6363 156.364 30.2908 156.766 29.9452C157.568 29.2542 158.371 28.6783 159.058 27.6993C160.09 27.3538 161.408 25.9141 162.669 24.4744L160.549 22.2285C159.517 23.2075 158.428 24.1289 157.511 24.6472L157.74 24.7048C157.396 25.2807 157.11 25.1079 156.708 25.3382C156.88 25.3958 157.339 25.0503 157.11 25.3958C153.269 28.9663 148.684 32.076 144.385 35.2433C142.837 36.3951 144.156 36.7406 141.92 37.8923L142.264 37.1437C139.398 39.9079 135.844 41.9235 132.864 44.3421C132.979 44.1694 132.979 44.0542 133.265 43.8238C132.463 44.0542 130.8 45.4939 130.858 45.6666C130.342 45.9546 130.628 45.5515 130.285 45.6666C129.539 45.9546 128.737 47.0487 128.221 47.0487C128.164 47.0487 128.393 46.876 128.508 46.7608C128.106 47.1639 126.387 48.0277 126.96 48.0277C125.642 48.6612 124.667 49.525 123.578 49.9281C123.062 50.6192 121.343 50.9647 121.343 51.483C121.228 51.0223 118.936 52.2892 118.19 52.8651C118.42 52.5772 117.388 53.0954 117.675 52.7499C116.757 53.2106 115.898 53.6713 116.184 53.8441C114.235 54.132 112.86 55.8596 111.599 55.5717C108.848 57.0114 106.268 58.1631 103.689 59.2573C103.632 58.7966 106.555 58.1631 106.268 57.7024C103.861 58.7966 102.6 59.718 100.078 60.4666C99.39 60.6394 100.364 60.1211 100.536 60.0059C98.129 61.1001 95.7216 61.676 93.5435 62.655C93.5435 62.5974 93.7728 62.4822 94.0021 62.367C93.5435 62.5398 92.9703 62.655 93.085 62.8277L93.4862 62.655C94.2887 62.7126 91.9386 63.8643 91.8813 63.9795C92.4545 63.1733 89.6459 64.613 90.563 63.5188C90.2764 63.634 89.9325 63.8643 90.0471 63.9795C89.5886 64.0947 89.4739 64.0371 89.8178 63.7491C88.2702 64.3826 88.9007 64.3826 87.4678 64.9009C87.4678 64.7857 87.6971 64.6705 87.8117 64.4978C87.1239 64.9009 86.4934 65.3616 85.2324 65.6495C85.2897 65.5919 85.1177 65.5344 85.4616 65.4192C83.3982 66.1678 82.0799 67.0316 79.7298 67.6075C80.303 67.0316 78.9274 67.7227 78.6981 67.4347L77.4944 67.8954H78.0103C76.9212 68.1834 76.0614 68.7017 75.087 68.8744L75.8322 68.5289L73.826 69.1624L75.0297 68.9896C73.998 69.4503 75.259 69.3927 73.7687 69.6807C74.0553 69.5655 72.6796 69.9686 72.0491 69.911C71.5333 70.1414 71.0174 70.3717 70.1576 70.4869C69.9284 70.4293 70.2723 70.0838 70.1003 70.0838C69.6418 70.4869 67.5783 70.7748 66.9478 71.1779C67.1771 71.0628 67.1198 70.89 67.0625 70.89L66.6612 71.1779C66.1454 71.2355 66.0307 71.1779 66.088 71.0628C64.5404 71.3507 66.6612 71.3507 64.7697 71.5235C64.8844 71.4659 64.827 71.4659 65.1136 71.3507C63.2794 71.6386 61.5599 72.0993 59.8403 72.2721C59.3245 72.0417 61.3306 71.9842 60.7001 71.8114C59.4964 72.0417 58.2354 72.2721 56.9744 72.4449C55.7134 72.6752 54.4524 72.7904 53.2487 72.848H53.7073C53.4207 73.2511 51.9304 72.7904 50.7267 73.0207C51.0133 72.9631 51.128 72.7904 51.0133 72.848C50.2109 72.848 49.3511 72.9056 48.434 72.9631C47.5169 73.0207 46.4279 73.0783 45.1669 73.1359L45.4534 73.0207C44.479 72.9631 42.9314 72.9056 41.8424 72.848C41.5558 72.9056 40.9253 72.9056 41.2692 73.0207C39.6643 72.6752 38.1167 72.6176 36.6264 72.6176C35.1362 72.56 33.7032 72.5024 32.2702 72.1569C32.6141 72.2145 33.0727 72.2145 32.8434 72.1569L30.436 71.9266C30.608 72.0417 30.7226 72.0417 31.2385 72.2145C30.8946 72.2721 30.2068 72.2145 29.6336 72.1569C30.7226 72.2145 29.6336 71.9842 29.175 71.8114C29.2324 71.869 29.0604 71.869 29.1177 71.9266C27.8567 71.5235 28.8885 72.0993 27.1689 71.7538L27.2835 71.6962C26.653 71.6386 26.0225 71.6386 25.3347 71.4659C25.0481 71.2931 26.0225 71.5235 26.0799 71.4083C25.1054 71.2931 24.131 71.2931 23.2713 71.0628C23.6725 71.1203 24.303 71.1779 24.7042 71.2355C23.7871 70.9476 23.6725 70.9476 22.9274 70.8324H22.9847L21.3224 70.4869L21.7237 70.6021C20.4627 70.6596 19.259 70.1989 17.5967 70.0838C19.2017 70.2565 17.8833 70.0262 17.998 69.9686C17.5967 69.8534 16.9662 69.6807 17.1382 69.6807C16.3357 69.6231 15.8772 69.3927 14.7308 69.2775C14.6735 69.22 13.9284 69.1048 14.1003 69.0472C13.0686 68.8744 14.3296 69.1624 14.215 69.1624C12.6674 68.932 10.6039 68.2986 8.3685 67.953C6.41967 67.6075 6.07576 67.6075 4.2989 67.2044C3.72571 67.0316 4.81476 67.262 4.81476 67.262C3.84035 67.0316 3.15253 66.8589 2.23544 66.6861C2.40739 66.6861 2.23544 66.6861 1.94885 66.5709C1.20371 66.3982 1.43298 66.5133 0.515888 66.283C0.687843 66.283 0.917116 66.3406 1.26103 66.3982C0.859798 66.3406 0.45857 66.2254 0.0573415 66.1678L0.171978 66.2254C0.229296 66.2254 0.286615 66.1678 0.343933 66.1102C0.515888 65.9951 0.687843 65.9375 0.859798 65.8223C0.974435 65.7647 0.859798 65.8223 0.687843 65.9375C0.630525 65.9951 0.515888 65.995 0.45857 66.0526C0.401251 66.1102 0.343933 66.1102 0.343933 66.1102C0.745161 65.8799 1.26103 65.6495 1.71957 65.4192C2.23544 65.1312 2.63667 64.9585 2.80862 64.8433L2.23544 65.1312C2.57935 64.9585 2.40739 65.0736 2.17812 65.1888C1.37566 65.5919 1.03175 65.7647 0.974435 65.7647L1.54762 65.4768C1.37566 65.5343 1.14639 65.6495 0.917116 65.7647C0.80248 65.8223 0.630525 65.8799 0.515888 65.9951C0.45857 66.0526 0.343933 66.0526 0.286615 66.1102L0.0573415 66.2254H2.31484e-05C2.31484e-05 66.2254 -0.0572952 66.2254 2.31484e-05 66.2254C0.687843 66.3982 1.4903 66.5133 2.1208 66.6861L1.54762 66.6285L2.86594 66.8589C3.15253 66.9165 3.32449 67.0316 2.69398 66.9165C3.61108 67.1468 3.49644 67.0892 4.2989 67.3196C4.35622 67.3196 4.35622 67.3196 4.24158 67.3196L5.15867 67.4923C4.98672 67.4923 5.27331 67.6075 4.75744 67.4347C6.36236 67.8379 7.33677 67.953 7.96727 68.1834H7.85263C10.088 68.6441 8.08191 68.1834 9.80146 68.4137L10.8905 68.8744L11.1198 68.8168C11.3491 68.8744 11.8076 68.9896 11.693 68.9896C12.5527 69.1048 11.5783 68.932 12.0369 68.9896C13.1259 69.3351 15.0747 69.6231 15.304 69.7958C15.7052 69.7958 14.2723 69.5079 15.476 69.6807C15.7626 69.911 16.8516 69.911 17.826 70.1989C17.4821 70.2565 16.565 69.9686 17.5394 70.2565C18.1699 70.1989 19.4883 70.7172 20.348 70.8324C20.4053 70.7172 22.2395 71.1203 23.6725 71.3507C23.5579 71.4083 26.3665 71.9266 27.7421 72.1569H27.6848C27.9714 71.9842 29.347 72.2721 30.3787 72.3873C30.3214 72.5024 30.1495 72.5024 29.5763 72.5024L30.5507 72.6176C30.78 72.56 31.0666 72.6176 31.6971 72.6752L31.4105 72.7904C32.041 72.848 32.6715 72.9056 33.3593 72.9631C34.0471 73.0207 34.7922 73.0783 35.5947 73.1935C35.7093 73.0783 34.3337 72.6752 36.0532 72.7328C36.1106 72.7904 36.1679 72.9631 35.7093 72.9631C35.8813 72.9631 36.2252 72.9631 36.5691 73.0207L35.8813 73.0783C36.6264 73.1935 36.2825 73.0207 36.8557 73.0783C36.8557 73.1935 37.3142 73.1935 37.1996 73.3087C37.0277 73.3087 36.6837 73.1935 36.4545 73.2511C37.1423 73.3663 37.9447 73.4814 38.174 73.5966C38.1167 73.539 38.174 73.4238 38.6899 73.4814C39.9509 73.5966 39.0911 73.6542 39.8363 73.7694C40.1802 73.7118 40.9826 73.8845 40.9826 73.6542C41.3838 73.6542 41.4412 73.7694 41.5558 73.827C42.2436 73.7694 44.651 73.9421 43.9059 73.7118H43.7339C43.7912 73.7118 43.7912 73.7118 43.8485 73.7118C46.0266 73.5966 48.3767 73.9421 50.5548 73.7694V73.827C51.8158 73.7694 53.4207 73.6542 54.3378 73.4814C54.739 73.4814 55.2549 73.539 55.0829 73.6542C56.0573 73.539 56.172 73.4238 57.6049 73.4238C56.6305 73.6542 57.9488 73.4814 56.5732 73.5966C57.8342 73.539 58.1781 73.6542 59.4964 73.3087C59.0379 73.539 60.4708 73.4238 61.1013 73.3087H60.1843C60.8721 73.1935 61.4453 73.1359 62.0758 73.0783L61.7892 73.3663C64.4831 73.3087 66.3746 72.0417 68.4381 72.1569C69.0686 71.8114 67.0051 72.3297 67.5783 71.9842C68.782 71.7538 70.1003 71.869 70.4442 71.8114C72.1065 71.581 71.8772 71.0628 73.5394 70.7172C73.3102 70.6596 73.0236 70.4869 74.2272 70.0262C75.3736 69.7382 75.7748 70.0838 75.087 70.3141C74.8004 70.3717 74.6858 70.4293 74.6858 70.3717C74.3419 70.4869 73.826 70.6596 74.3419 70.6596L74.4565 70.5445C75.087 70.4869 76.6919 70.0262 76.348 70.3141C77.2078 69.9686 76.6919 70.0262 76.0041 70.1414C77.5517 69.8534 78.3542 69.5079 79.9018 69.1624C79.6152 69.1624 79.3859 69.1048 79.6152 69.0472C81.9079 68.5289 80.5323 68.5289 82.0225 68.0682C82.9396 67.953 81.8506 68.5289 83.3409 67.953C84.3153 67.7803 83.6275 68.1834 83.2835 68.3561C84.6019 67.7227 85.9202 67.6651 86.7226 67.4347L86.0348 67.7803C86.4361 67.6075 86.8373 67.4923 87.1812 67.3772L86.7226 67.3196C87.1812 67.2044 87.5251 67.0892 87.5251 67.2044C87.9263 66.9165 87.0666 66.974 87.869 66.4558C88.4995 66.3982 89.5312 65.7647 89.8751 65.9951C88.041 66.5133 90.1617 66.2254 88.6715 66.7437C88.9581 66.6285 89.302 66.5133 89.7605 66.3982C89.8178 66.3982 89.7032 66.4558 89.5886 66.5133C91.3654 66.2254 90.2764 65.9375 92.0532 65.3616C91.8813 65.5919 92.5691 65.5344 92.8557 65.4192C92.1679 65.6495 92.3972 65.2464 93.0277 64.9009C94.2313 64.6705 94.2313 64.3826 94.8045 64.2098L94.1167 64.3826C94.2887 64.1523 94.8618 63.9795 95.607 63.634C95.7216 63.7491 94.9192 63.9795 95.2058 63.9219C96.0082 63.346 97.2692 63.5764 98.4729 62.9429C99.1034 62.8853 98.6449 63.2308 99.1607 63.1733C100.479 62.4822 100.708 62.8853 102.084 62.1943C101.568 62.0791 101.511 62.1943 102.485 61.6184L100.192 62.5974L101.568 61.7336C100.88 61.9639 100.135 62.4246 99.6766 62.5398C100.307 62.0791 100.307 62.1943 99.8485 62.1367C100.938 62.1367 101.683 61.2729 102.944 61.1001L103.116 61.676C104.893 61.3305 106.039 60.2939 108.274 59.6028L107.529 59.7756C107.758 59.4301 108.848 59.2573 109.535 58.8542C109.535 59.0845 109.994 58.9694 110.338 58.9694C110.223 58.8542 111.943 58.3359 112 57.8752L113.089 57.76C114.866 57.1266 114.866 56.3779 116.528 55.6869C116.127 56.1476 116.929 55.9172 115.898 56.5507C116.471 56.3203 116.987 56.09 116.929 55.9748C117.331 55.9748 118.362 54.9958 118.936 54.9382C119.107 54.7655 119.107 54.4775 119.738 54.2472C119.795 54.2472 119.795 54.3624 119.795 54.3624C119.738 54.2472 120.712 53.7289 120.025 53.7865C122.031 53.5561 124.61 51.3678 126.33 51.0223C127.476 50.3312 128.794 49.4098 129.826 48.7764C129.769 48.8915 129.883 48.8916 129.654 48.9491C131.144 48.2581 130.17 47.855 131.889 47.0487C132.921 46.8184 131.144 47.7398 131.718 47.567C132.348 48.0277 133.552 46.2425 134.87 45.897L134.641 46.1273C135.615 45.7818 136.418 44.5725 137.793 43.7087C137.793 43.7087 137.793 43.8238 137.851 43.8238C138.538 42.9024 140.086 41.5779 141.29 40.5989C141.06 41.1172 140.831 41.1172 141.232 41.1748C141.748 40.7141 140.774 40.8869 141.863 40.0231C142.321 39.9079 143.181 39.3896 143.468 39.5624L142.436 40.3686C143.181 40.311 143.754 39.332 144.328 38.9865L144.385 39.1593C145.932 37.8923 145.646 37.5468 147.365 36.2223L147.136 36.2799C147.767 35.1857 148.053 35.8768 148.741 34.8978L149.314 35.013C149.83 34.4371 151.091 32.9974 152.123 32.076C151.722 32.8246 150.633 33.9764 149.945 34.7826C150.518 34.3219 151.894 33.1126 152.066 32.7094C151.836 32.9398 151.607 33.2853 151.378 33.4005C151.894 32.5367 152.696 31.6153 153.842 30.6939C154.186 31.5577 156.995 28.3328 158.256 28.16C159.46 26.8355 160.893 25.7989 162.44 24.6472L160.663 22.8044C159.975 23.4379 159.288 24.0713 158.6 24.82C159.861 24.532 157.969 25.4534 158.6 25.8565C158.141 26.3748 157.912 26.6052 157.855 26.6052C157.281 27.0083 156.594 27.4114 155.963 27.8145C155.447 27.9873 156.364 27.2386 156.192 27.181C154.989 28.2176 155.505 27.4114 154.645 27.9873C154.989 28.0449 154.473 28.6207 153.785 29.139L154.931 28.5056C153.556 30.2332 153.212 29.3694 151.722 31.0394L152.123 30.4059C151.722 30.8091 150.919 31.5001 150.174 32.1912C149.773 32.5367 149.429 32.8822 149.085 33.2277C148.741 33.5733 148.512 33.8612 148.34 34.1491C148.111 34.2067 147.824 34.2067 148.168 33.8612C147.079 34.6098 145.99 35.6464 144.901 36.5678C143.812 37.4892 142.723 38.2954 141.748 38.7561L141.806 38.5258C141.404 38.8713 141.232 39.2744 140.659 39.5048C140.659 39.4472 140.716 39.2744 140.545 39.3896C140.373 39.5624 139.57 40.311 138.94 40.5989L139.341 40.1382C138.137 40.7141 137.392 41.3476 136.647 41.981C135.902 42.6145 135.214 43.1904 134.24 43.7663C134.01 43.3056 132.119 44.227 131.202 44.6301V44.5725C129.826 45.2059 128.68 45.897 127.648 46.588C126.559 47.2791 125.47 47.9126 124.209 48.6036C123.75 48.6612 123.177 48.834 122.547 49.0643C121.916 49.2947 121.171 49.5826 120.426 49.8705C118.936 50.4464 117.273 51.1375 115.898 51.483C116.356 51.4254 115.955 51.8285 115.496 52.0589C114.866 52.174 113.892 52.9803 113.834 52.5772L114.063 52.5196C113.777 52.4044 113.318 52.5196 112.802 52.6923C112.287 52.8651 111.713 53.0379 111.198 53.2106V53.7865C110.452 53.8441 109.707 54.0168 108.848 54.2472C108.446 54.3624 108.045 54.5351 107.644 54.6503C107.243 54.7655 106.841 54.9382 106.44 55.0534C104.835 55.5717 103.402 56.09 102.6 55.9748C101.969 56.2628 101.167 56.4931 100.536 56.781L100.479 56.4931C98.6449 56.8962 97.7278 57.1266 95.4923 57.7024L95.8936 57.4145C94.6326 57.7024 94.4606 58.5087 93.2569 58.7966L92.7984 58.5087C91.7093 58.739 90.563 58.8542 89.4166 59.0845C88.2702 59.2573 87.1812 59.4877 86.0921 59.8332C86.0921 59.7756 86.1495 59.6604 86.5507 59.6028C85.4616 59.7756 82.4238 60.0635 82.8823 60.4666C82.825 60.1787 80.5323 60.8122 79.3286 61.1001L79.5005 60.8698C78.5261 61.3305 78.4688 61.388 77.0358 61.676C76.6919 61.676 76.6919 61.5608 77.1505 61.5608C76.0041 61.6184 76.2907 61.9063 74.9151 61.9063L75.4309 61.7336C74.2273 61.8487 74.3419 61.9063 73.7114 62.1367C72.9662 62.3094 71.476 62.3094 71.304 62.1367C71.1321 62.2519 70.5016 62.4822 69.8137 62.4822C69.6991 62.4246 69.9857 62.367 70.1003 62.3094C68.0942 62.367 67.1771 62.8277 65.8015 62.7126C65.7441 62.655 65.6868 62.5974 65.5722 62.5974C67.1198 62.4822 68.3808 62.367 68.2661 62.4246C68.2661 62.2519 67.0051 62.3094 67.9795 61.9639C67.0051 62.1943 65.2856 62.655 64.0246 62.655C63.9673 62.655 63.9099 62.655 63.8526 62.5974L63.9673 62.5398C63.6807 62.5398 63.4514 62.5974 63.1648 62.655C62.7636 62.655 62.5343 62.655 62.1331 62.655C61.9611 62.5398 60.7001 62.7126 60.0696 62.7126C60.1269 62.8853 59.3245 62.9429 60.0696 63.0581C59.955 63.0581 60.1843 63.0005 60.5855 63.0005C60.7001 63.0005 60.8148 63.0005 60.8721 62.9429C60.8721 62.9429 60.8721 62.9429 60.8148 62.9429C61.216 62.8853 61.7892 62.8853 62.3624 62.8277C61.8465 62.9429 61.3306 63.1157 60.6428 63.0005C60.2989 63.1157 59.955 63.2884 59.783 63.346C58.9233 63.1157 57.2037 63.0581 56.9744 62.9429C55.0256 63.1733 52.4463 63.1733 51.2426 63.5764C50.6694 63.634 50.6121 63.5188 50.3828 63.4612C50.7267 63.4036 51.0706 63.4036 51.2426 63.346C50.1536 63.4612 47.9755 63.4612 47.7462 63.6915C46.3705 63.634 48.5486 63.4612 46.5998 63.5764L46.8291 63.5188C43.1034 63.2884 40.7533 64.0947 36.5691 63.6915C36.8557 63.6915 37.0277 63.7491 37.085 63.7491C34.7349 63.6915 32.2702 63.634 29.8629 63.634C27.4555 63.5764 24.9908 63.5764 22.6981 63.4036C21.3798 63.346 21.2078 63.4036 20.4053 63.4036L20.1188 63.2884L18.7431 63.346C16.7943 63.2884 15.3613 63.0581 12.8393 63.0581L13.1832 63.1157C12.2661 63.0581 10.3746 63.0005 10.4893 63.0005C10.3746 63.0005 10.2027 63.0005 9.85877 63.0005L7.68068 62.9429C5.96113 62.8853 7.96727 62.8853 5.44526 62.8277C4.58549 62.8277 3.49644 62.7701 3.15253 62.7701C3.49644 62.7701 4.01231 62.8277 4.12694 62.8277L3.26717 62.7701C3.09521 62.7701 2.46471 62.7126 4.52817 62.8853L5.96113 62.9429L6.41967 63.0005L5.21599 62.9429C5.90381 63.0005 6.36236 63.0005 6.8209 63.0581C6.93554 63.0581 7.16481 63.1157 7.4514 63.1157L8.88436 63.1733C9.05632 63.2308 8.25386 63.1733 9.17095 63.2309C9.85877 63.2309 8.54045 63.1733 9.6295 63.2309C10.3173 63.2884 10.088 63.2884 10.9478 63.346C11.0625 63.346 10.8905 63.346 10.5466 63.346C11.2917 63.346 12.4381 63.4612 12.8393 63.4612C13.5845 63.5764 15.2467 63.5764 15.1894 63.6915C15.4187 63.6915 16.4504 63.6915 17.1382 63.7491C15.9345 63.8067 19.6029 63.9219 19.3163 64.0371C20.2334 63.9795 22.5261 64.1523 24.131 64.1523C24.0164 64.1523 23.8444 64.1523 23.7298 64.1523C24.6469 64.2098 24.8762 64.2674 25.4494 64.325C25.564 64.2098 26.9396 64.2098 27.7421 64.1523C28.8311 64.325 27.0543 64.2674 27.3982 64.4402C27.3409 64.325 29.2897 64.4402 28.9458 64.325C29.8055 64.4402 29.6909 64.3826 30.0921 64.5554C30.2641 64.3826 30.8946 64.5554 31.5824 64.4402C32.7861 64.5554 31.869 64.6129 33.2446 64.6129C33.8751 64.2098 32.6715 64.2098 32.6715 64.2098ZM64.3685 63.5188C64.0819 63.5188 63.8526 63.5764 63.738 63.5764C63.8526 63.5764 64.0819 63.5764 64.3685 63.5188ZM67.0625 63.346C66.7185 63.346 66.3173 63.4036 65.9161 63.4036C65.8015 63.346 65.9161 63.2884 66.2027 63.2309C66.0307 63.346 66.6612 63.346 67.0625 63.346ZM61.3306 62.367C61.7318 62.3095 61.9038 62.3095 61.9611 62.367C61.7892 62.367 61.5599 62.4246 61.216 62.4246H61.1587C61.216 62.4246 61.2733 62.4246 61.3306 62.367Z" fill="#202020"/>
<path d="M60.5855 62.6548C60.5281 62.6548 60.4708 62.6548 60.4135 62.6548C60.5282 62.6548 60.5855 62.6548 60.6428 62.7124C60.7001 62.7124 60.7574 62.6548 60.8147 62.6548C60.7574 62.6548 60.7001 62.6548 60.5855 62.6548Z" fill="#202020"/>
<path d="M44.0205 73.8269H43.9631C44.0205 73.7693 44.0205 73.7693 44.0205 73.8269Z" fill="#202020"/>
<path d="M103.574 58.0478L103.517 57.9902L103.345 58.1054L103.574 58.0478Z" fill="#202020"/>
<path d="M29.4616 71.9267C29.4616 71.9267 29.4043 71.8691 29.2897 71.8691C29.2897 71.8691 29.4043 71.9267 29.4616 71.9267Z" fill="#202020"/>
<path d="M23.214 70.9477L22.3542 70.7749C22.7554 70.8325 23.042 70.8901 23.214 70.9477Z" fill="#202020"/>
<path d="M93.9448 62.5401C94.0021 62.5401 94.0594 62.4825 94.1167 62.4825C94.5179 62.2522 94.2314 62.3673 93.9448 62.5401Z" fill="#202020"/>
<path d="M72.2211 70.0838C72.4504 69.9687 72.6797 69.8535 72.9089 69.7959C72.5077 69.8535 72.1638 69.9111 72.2211 70.0838Z" fill="#202020"/>
<path d="M117.675 52.8652C117.732 52.8652 117.789 52.8076 117.789 52.8076L117.675 52.8652Z" fill="#202020"/>
<path d="M73.9407 69.5078C73.5394 69.5654 73.1955 69.6806 72.9089 69.7957C73.2528 69.6806 73.5968 69.623 73.9407 69.5078Z" fill="#202020"/>
<path d="M2.00616 65.3613L2.23544 65.2461L2.00616 65.3613Z" fill="#202020"/>
<path d="M2.23541 65.2465L2.46469 65.1313C2.35005 65.1889 2.29273 65.2465 2.23541 65.2465Z" fill="#202020"/>
<path d="M2.98059 64.9009L2.46472 65.1312C2.63668 65.0736 2.86595 64.9585 2.98059 64.9009Z" fill="#202020"/>
<path d="M6.01845 67.4925C5.5599 67.3773 4.87208 67.2045 4.24158 67.0894H4.18427C4.47086 67.0894 5.5599 67.4349 6.01845 67.4925Z" fill="#202020"/>
<path d="M13.9284 69.5657L12.3235 69.1626C12.6101 69.2778 12.954 69.3929 12.2089 69.2202C14.215 69.7961 11.8076 69.105 13.9284 69.5657Z" fill="#202020"/>
<path d="M18.915 70.6595C18.0553 70.4867 18.915 70.7171 18.8577 70.7171C19.4309 70.8322 19.5455 70.8322 18.915 70.6595Z" fill="#202020"/>
<path d="M55.5415 73.7695L55.4842 73.9423C56.172 73.8847 55.4842 73.8847 55.5415 73.7695Z" fill="#202020"/>
<path d="M62.4197 71.9268H61.7318L61.4453 72.1571C61.7892 72.0995 62.1331 71.9843 62.4197 71.9268Z" fill="#202020"/>
<path d="M66.7758 72.6752L66.4893 72.7328L67.5783 72.4448L66.7758 72.6752Z" fill="#202020"/>
<path d="M125.241 52.0013L124.897 51.771C124.495 52.0589 124.61 52.462 125.241 52.0013Z" fill="#202020"/>
<path d="M147.193 36.5679C147.537 36.5103 148.225 36.1648 148.454 35.7041C147.996 36.0496 147.423 36.3376 147.193 36.5679Z" fill="#202020"/>
<path d="M109.65 53.6137L110.109 53.3833L109.191 53.7288L109.65 53.6137Z" fill="#202020"/>
<path d="M115.21 0.0573837C115.095 -0.000203843 115.153 -0.000203841 115.439 0.230146L115.611 0.402909L115.21 0.0573837Z" fill="#202020"/>
<path d="M116.872 1.49705C117.159 1.7274 117.503 2.01534 117.331 1.84258C117.044 1.61223 116.929 1.55464 116.643 1.32429C116.414 1.09394 116.242 0.921179 116.242 0.978767C116.127 0.921179 115.898 0.690829 115.726 0.518066C116.07 0.748417 116.471 1.15153 116.872 1.49705C116.872 1.49705 116.987 1.55464 116.872 1.49705Z" fill="#202020"/>
<path d="M145.245 15.3178L145.073 15.2603C145.13 15.2603 145.187 15.3178 145.245 15.3178Z" fill="#202020"/>
<path d="M159.001 26.4901C159.001 26.3749 158.944 26.3174 158.944 26.2598C159.001 26.4325 159.001 26.5477 159.001 26.4901Z" fill="#202020"/>
<path d="M145.245 15.3179L145.76 15.4906C145.818 15.433 145.531 15.3755 145.245 15.3179Z" fill="#202020"/>
<path d="M120.426 4.08878C120.311 4.03119 120.254 3.9736 120.197 3.91602L120.426 4.08878C120.426 4.08878 120.368 4.08878 120.426 4.08878Z" fill="#202020"/>
<path d="M136.819 13.1299L136.647 13.0723C136.59 13.0723 136.532 13.0723 136.475 13.0723L136.819 13.1299Z" fill="#202020"/>
<path d="M130.571 10.5956C130.686 10.6532 130.8 10.5956 130.858 10.5381C130.743 10.5381 130.628 10.5381 130.514 10.4805C130.571 10.5381 130.571 10.5381 130.571 10.5956Z" fill="#202020"/>
<path d="M121.515 5.12494L121.343 5.00977C121.4 5.06735 121.458 5.06735 121.515 5.12494Z" fill="#202020"/>
<path d="M141.404 14.5693C141.404 14.5693 141.404 14.6269 141.462 14.6269C141.462 14.6269 141.462 14.6269 141.404 14.5693Z" fill="#202020"/>
<path d="M167.14 28.6209C166.739 29.2543 166.968 27.4691 166.452 28.3905C166.624 28.3329 166.796 29.4271 167.14 28.6209Z" fill="#202020"/>
<path d="M120.54 4.20361L120.77 4.37638C120.655 4.2612 120.598 4.20361 120.54 4.20361Z" fill="#202020"/>
<path d="M166.51 28.4482L166.452 28.5634C166.452 28.4482 166.51 28.4482 166.51 28.4482Z" fill="#202020"/>
<path d="M157.683 50.2162C157.74 50.2162 157.797 50.1587 157.797 50.1011C157.797 50.1011 157.74 50.1011 157.683 50.2162Z" fill="#202020"/>
<path d="M158.485 39.6201L158.428 39.9081C158.485 39.7929 158.485 39.6777 158.485 39.6201Z" fill="#202020"/>
<path d="M157.855 55.7446C157.855 55.8598 157.797 55.9174 157.797 56.1477C157.797 56.1477 157.797 56.0902 157.855 56.0902C157.855 56.0326 157.797 55.9174 157.855 55.7446Z" fill="#202020"/>
<path d="M159.574 58.7969C159.574 58.7969 159.517 58.8545 159.517 58.9121C159.517 58.9696 159.517 59.0272 159.517 59.0848L159.574 58.7969Z" fill="#202020"/>
<path d="M151.951 17.5063C151.836 17.4487 151.779 17.3911 151.722 17.3335C151.779 17.4487 150.919 17.3335 151.951 17.5063Z" fill="#202020"/>
<path d="M120.368 4.08838C120.426 4.08838 120.426 4.14597 120.54 4.14597C120.483 4.14597 120.426 4.14597 120.368 4.08838Z" fill="#202020"/>
<path d="M160.262 56.0903L160.205 57.0117C160.262 56.7238 160.262 56.3783 160.262 56.0903Z" fill="#202020"/>
<path d="M136.016 18.3701L135.787 18.4277C135.902 18.4277 135.959 18.4277 136.016 18.3701Z" fill="#202020"/>
<path d="M160.147 59.6606C160.033 59.8334 159.975 59.9486 159.918 60.1213L157.224 60.0062C157.224 59.9486 157.167 59.9486 157.167 59.891L157.109 60.0062L160.033 60.1213L160.147 59.6606Z" fill="#202020"/>
<path d="M145.703 16.6425C146.563 16.8152 146.104 16.5849 146.334 16.5273C147.365 16.6425 146.792 16.7 147.136 16.8728C147.767 16.9304 148.282 16.8728 148.741 16.9304C148.798 16.988 148.856 16.988 148.741 16.988C149.429 16.988 150.747 17.3335 151.55 17.2183C151.607 17.2183 151.607 17.2759 151.664 17.2759C151.55 17.1608 151.55 17.0456 151.607 16.988C152.008 17.0456 152.352 16.988 152.467 17.1032C152.237 17.0456 152.18 17.1032 152.065 17.1608H152.467C152.811 17.3911 151.894 17.1608 151.894 17.2759C152.696 17.3335 153.613 17.3335 154.186 17.4487C154.301 17.679 152.753 17.2759 153.556 17.5639L152.639 17.3335C153.326 17.7366 152.065 17.2183 152.696 17.6215C153.9 17.8518 154.072 17.7366 155.275 18.0246C155.562 17.967 155.218 17.8518 155.505 17.7942C156.766 17.8518 156.88 18.1973 157.339 18.3701L157.683 16.8152C157.511 16.7001 157.281 16.6425 156.938 16.6425C156.594 16.7001 156.364 16.8728 155.505 16.4697L155.849 16.2969C154.702 15.9514 155.103 16.4697 153.9 15.9514C154.129 15.8938 154.817 16.1242 154.645 16.0666C153.9 15.6635 154.072 16.0666 153.441 15.8938L153.384 15.6635C152.753 15.5483 152.066 15.4331 151.378 15.3755C150.69 15.2604 149.945 15.2028 149.257 15.1452C149.372 15.0876 149.601 15.03 149.257 14.9148C147.423 14.7997 145.417 14.3965 143.64 14.2238C143.41 14.2814 143.181 14.339 142.952 14.4541C142.78 14.4541 142.665 14.339 142.837 14.2814C142.149 14.1662 142.78 14.4541 142.493 14.5117C142.092 14.5117 141.977 14.3965 142.207 14.2814C141.003 14.4541 138.825 14.7997 137.507 14.6845L137.736 14.5693C136.762 14.5693 136.704 15.2028 135.73 15.0876L135.902 15.03C133.781 15.2028 131.488 15.9514 129.826 15.9514C129.711 16.1818 129.253 16.2969 128.737 16.3545L121.801 17.8518L129.024 18.1397C129.539 18.1397 130.055 18.1973 130.113 17.9094C131.316 18.1973 130.972 18.2549 132.692 18.4277C133.15 18.4277 133.38 18.0822 133.896 18.0246V18.3125L134.641 17.967L135.042 18.3125L135.558 18.2549C135.329 18.2549 135.099 18.1397 135.157 18.0246C135.959 17.8518 137.163 18.1973 137.163 18.3701L139.112 18.0822C139.054 18.1973 138.768 18.2549 138.481 18.3125C139.513 17.967 138.653 18.658 139.627 18.3701C139.513 18.3125 139.685 18.1973 139.742 18.1397C140.201 18.3125 141.29 18.3125 142.092 18.2549L141.92 18.4853C143.353 18.5429 144.958 18.3701 146.563 18.3701C145.99 18.2549 146.104 17.9094 146.563 17.8518L146.735 18.1973C147.021 17.967 146.219 18.0822 146.85 17.7942C147.48 17.8518 147.251 18.1973 146.907 18.3125L147.652 18.1973C147.709 18.3125 147.537 18.3701 147.48 18.4853C147.767 18.2549 148.741 18.8308 149.2 18.4277L149.257 18.5429C150.862 18.5429 151.607 18.4277 152.925 18.3701C152.925 18.0822 153.441 18.1397 153.842 17.8518C154.817 17.967 155.906 18.1397 156.995 18.1397C157.797 17.967 157.224 17.8518 157.568 17.679C157.625 17.967 158.714 17.967 158.141 18.1397C158.772 18.1397 159.173 18.1973 159.632 18.1973C160.09 18.2549 160.549 18.2549 161.294 18.4277C161.179 18.2549 161.007 18.1397 161.122 18.0822C161.408 18.1397 161.695 18.4277 161.58 18.5429H161.523C162.383 18.7156 163.128 19.5218 163.472 20.3281C163.873 21.1343 163.93 21.9405 164.389 22.5164L164.332 22.4588C164.561 22.8619 164.733 23.3226 164.847 23.8409C164.847 24.532 164.618 23.4378 164.446 23.9561C164.733 24.7047 164.676 25.3958 164.618 25.9716C164.504 26.6051 164.389 27.1234 164.446 27.872C163.93 28.3327 163.758 29.2541 163.529 30.2331C163.3 31.2121 163.071 32.2487 162.555 32.8821H162.784C162.841 33.2853 162.497 33.2853 162.383 33.5156C162.555 33.5156 162.669 33.1701 162.727 33.458C162.325 35.0129 161.58 36.6253 160.893 38.2378C160.205 39.8502 159.517 41.5203 159.001 43.1903C158.6 44.3997 159.861 44.1693 159.001 45.609L158.714 45.0907C158.542 47.6821 157.625 50.2736 157.683 52.8074C157.625 52.6347 157.511 52.6347 157.568 52.4043C157.224 52.9226 157.339 54.3623 157.511 54.4199C157.453 54.823 157.281 54.4775 157.167 54.7078C156.938 55.2261 157.396 56.0899 157.11 56.3203C157.052 56.3779 157.052 56.1475 156.995 56.0899C157.11 56.4355 156.823 57.7024 157.167 57.4144C156.938 58.3358 157.224 59.1997 156.995 59.9483L159.632 60.0635C159.345 59.5452 159.861 58.5086 159.402 58.3358C159.918 58.3934 159.861 56.7234 159.632 56.1475C159.746 56.3203 159.803 55.6292 159.975 55.8596C159.975 55.1685 159.918 54.5927 159.632 54.7078C160.262 53.4985 159.23 52.2316 159.975 51.5405C159.746 49.5249 159.632 47.6821 159.574 45.8969C160.033 45.9545 159.574 47.8549 160.033 47.7973C159.861 46.0697 159.517 45.0907 159.689 43.4207C159.746 42.96 159.861 43.651 159.975 43.8238C159.861 42.0962 160.09 40.5413 159.918 39.044C159.975 39.044 159.975 39.2168 160.033 39.3895C160.033 39.1016 160.09 38.6985 159.918 38.6985L159.975 38.9864C159.689 39.4471 159.402 37.7771 159.23 37.7195C159.803 38.2378 159.402 36.2222 160.09 37.086C160.033 36.9133 159.975 36.6253 159.861 36.6829C159.918 36.395 159.975 36.2798 160.147 36.6253C160.09 35.5312 159.861 35.9343 159.861 34.9553C159.975 34.9553 159.975 35.1857 160.09 35.2432C159.918 34.725 159.746 34.2643 159.861 33.458C159.918 33.5156 159.975 33.4004 159.975 33.6884C159.975 32.3063 159.574 31.2697 159.803 29.7724C160.205 30.2331 159.918 29.2541 160.262 29.1965L160.147 28.3327L159.975 28.6783C159.975 27.9296 159.746 27.2962 159.803 26.6627L159.975 27.2386C159.918 26.7779 159.861 26.3172 159.803 25.8565C159.803 26.1444 159.803 26.3748 159.746 26.6627C159.517 25.9141 159.345 26.7779 159.345 25.7989C159.402 25.9716 159.23 25.0502 159.345 24.6471C159.173 24.3016 158.944 23.9561 158.829 23.4378C158.886 23.265 159.23 23.4378 159.23 23.3226C159.001 23.2074 158.829 22.8043 158.6 22.4012C158.371 21.9981 158.084 21.6526 157.855 21.4798C157.969 21.595 158.141 21.4798 158.141 21.4222L157.797 21.2495C157.625 20.9615 157.625 20.9039 157.797 20.8464C157.167 19.9825 157.683 21.3646 157.052 20.2705C157.11 20.3281 157.11 20.2705 157.281 20.4432C156.479 19.4643 155.505 18.8308 154.588 18.1973C154.473 17.7942 155.447 18.658 155.275 18.2549C153.842 17.3335 152.123 16.8728 150.69 16.2969L150.976 16.4121C150.633 16.7001 149.945 15.8362 149.142 15.7786C149.314 15.7786 149.429 15.6635 149.372 15.6635C148.397 15.3179 147.251 15.1452 145.703 14.8572L145.932 14.7997C145.359 14.5693 144.328 14.3965 143.697 14.2238C143.468 14.2814 143.124 14.1662 143.296 14.339C142.321 13.8783 141.347 13.7055 140.43 13.5327C139.513 13.36 138.596 13.1872 137.736 12.7265C137.965 12.7841 138.252 12.8417 138.08 12.7841L136.59 12.381C136.647 12.5537 136.762 12.4962 137.048 12.7265C136.819 12.7265 136.418 12.6689 136.016 12.5537C136.704 12.7265 136.074 12.381 135.787 12.2082C135.844 12.2658 135.73 12.2658 135.73 12.3234C135.042 11.8627 135.501 12.4962 134.526 11.9779L134.583 11.9203C134.182 11.8051 133.781 11.7475 133.38 11.5748C133.265 11.402 133.838 11.6899 133.896 11.5748C133.322 11.3444 132.635 11.3444 132.176 10.9989C132.405 11.0565 132.807 11.2292 133.036 11.2868C132.52 10.9413 132.463 10.9413 132.004 10.7109H132.061L131.087 10.2502L131.316 10.3654C130.456 10.3078 129.826 9.78954 128.794 9.44402C129.769 9.73196 128.966 9.44402 129.081 9.38643C128.852 9.21367 128.508 9.04091 128.622 9.04091C128.106 8.86814 127.877 8.63779 127.189 8.40744C127.189 8.34986 126.731 8.17709 126.845 8.11951C126.272 7.83157 126.96 8.23468 126.903 8.23468C125.986 7.83157 124.897 7.02534 123.578 6.39188C122.489 5.75842 122.26 5.70083 121.286 5.06737C120.999 4.83702 121.572 5.18254 121.572 5.18254C121.056 4.83702 120.655 4.54908 120.197 4.20355C120.311 4.26114 120.197 4.20355 120.082 4.03079C119.681 3.74285 119.795 3.91561 119.279 3.5125C119.394 3.57009 119.509 3.62768 119.681 3.74285C119.222 3.45491 118.764 3.10939 118.305 2.76386C118.649 2.87904 119.05 3.16698 119.222 3.28215C118.706 2.87904 117.904 2.30316 117.674 2.18799L118.018 2.47593C117.846 2.30316 117.961 2.36075 118.076 2.47593C118.534 2.82145 118.706 2.99421 118.706 2.99421L118.362 2.76386C118.649 3.0518 119.681 3.80044 120.368 4.26114L120.082 4.03079L120.827 4.49149C120.942 4.60667 121.056 4.72184 120.712 4.49149C121.171 4.8946 121.171 4.77943 121.572 5.12495C121.629 5.18254 121.572 5.12495 121.572 5.12495L122.088 5.41289C121.973 5.3553 122.145 5.52807 121.859 5.29772C122.661 5.93118 123.292 6.21912 123.578 6.44947L123.521 6.39188C124.782 7.14052 123.693 6.39188 124.667 6.91017L125.183 7.48604H125.355C125.47 7.54363 125.756 7.71639 125.642 7.71639C126.158 7.94674 125.584 7.65881 125.871 7.77398C126.444 8.23468 127.648 8.69538 127.705 8.92573C127.992 8.98332 127.132 8.52262 127.82 8.86814C127.934 9.15608 128.622 9.27126 129.195 9.61678C128.966 9.61678 128.45 9.27126 128.966 9.67437C129.367 9.73196 130.113 10.3078 130.628 10.4806C130.686 10.3654 131.775 10.9413 132.635 11.2868C132.577 11.3444 134.24 12.0355 135.042 12.4386H134.985C135.214 12.3234 136.016 12.6689 136.647 12.8417C136.59 12.9569 136.475 12.9569 136.131 12.8417C136.303 12.8993 136.532 13.0144 136.704 13.072C136.876 13.072 137.048 13.072 137.449 13.1872L137.277 13.3024C138.08 13.5903 138.882 13.6479 139.914 14.051C140.029 13.9358 139.226 13.4176 140.315 13.6479C140.315 13.7631 140.315 13.8783 140.029 13.8207C140.143 13.8207 140.373 13.8783 140.545 13.9358C140.373 13.9358 140.258 13.9358 140.086 13.9358C140.545 14.1086 140.373 13.8783 140.716 13.9934C140.659 14.1086 140.946 14.1662 140.888 14.2238C140.774 14.2238 140.602 14.1086 140.43 14.1086C140.831 14.2238 141.347 14.4541 141.462 14.5693C141.462 14.5117 141.519 14.3965 141.806 14.4541C142.608 14.6269 142.035 14.6845 142.493 14.8572C142.723 14.7997 143.181 15.03 143.238 14.8572C143.468 14.9148 143.468 15.03 143.582 15.0876C144.041 15.0876 145.474 15.5483 145.073 15.2028L144.958 15.1452H145.015C146.391 15.2604 147.767 15.9514 149.085 16.2969V16.3545C149.486 16.4121 149.945 16.5849 150.346 16.7001C150.747 16.8152 151.148 16.9304 151.435 16.988C151.664 17.1032 151.894 17.3335 151.779 17.3911C152.352 17.5639 152.467 17.5639 153.212 18.0246C152.581 17.8518 153.327 18.1973 152.581 17.8518C153.269 18.2549 153.327 18.4853 154.186 18.7156C153.842 18.7156 154.53 19.2339 154.874 19.4067L154.473 19.0036C154.817 19.2339 155.161 19.4067 155.39 19.6946L155.103 19.7522C155.619 20.3857 156.192 20.7312 156.708 21.1343C156.938 21.3646 157.167 21.595 157.396 21.8253C157.568 22.1133 157.683 22.4012 157.683 22.6892C158.084 22.9195 157.396 21.8829 157.74 22.1133C157.912 22.4588 158.027 22.8043 158.027 23.1499C158.027 23.4954 158.027 23.7257 158.084 23.8409C158.199 24.3016 158.313 24.4744 158.485 24.7047C158.657 24.8775 158.829 25.1078 158.829 25.6261C158.886 25.4534 159.173 25.2806 159.402 26.0868C159.46 26.8355 159.058 27.0658 158.944 26.6051C158.944 26.4323 158.944 26.3172 159.001 26.3172C158.944 26.0868 158.829 25.7989 158.772 26.0868L158.886 26.1444C158.829 26.4899 158.886 27.5265 158.714 27.2962C158.829 27.872 158.886 27.5265 158.944 27.1234C158.829 28.1024 158.944 28.6207 158.829 29.5997C158.886 29.4269 159.001 29.3117 159.001 29.4845C158.829 30.9818 159.173 30.1179 159.173 31.1545C159.001 31.7304 158.772 30.9242 158.886 31.9608C158.772 32.5942 158.6 32.0759 158.485 31.8456C158.657 32.767 158.256 33.5732 158.199 34.0915L158.141 33.5732C158.199 33.8611 158.141 34.0915 158.141 34.3218L158.371 34.0339C158.313 34.3218 158.313 34.5522 158.199 34.5522C158.313 34.8401 158.6 34.3218 158.772 34.9553C158.657 35.3584 158.829 36.1071 158.542 36.2222C158.714 35.0129 158.256 36.3374 158.256 35.3008C158.256 35.4736 158.256 35.7615 158.199 36.0495C158.141 36.1071 158.141 35.9919 158.141 35.9343C157.797 37.086 158.485 36.4526 158.428 37.6619C158.256 37.4892 158.084 37.9499 158.141 38.1226C158.141 37.6619 158.428 37.8923 158.542 38.353C158.371 39.1016 158.6 39.1592 158.6 39.5623L158.657 39.1016C158.829 39.2744 158.772 39.6199 158.829 40.1958C158.714 40.2534 158.772 39.7351 158.657 39.9078C158.944 40.4837 158.256 41.2323 158.485 42.0386C158.371 42.4417 158.141 42.0386 158.027 42.3841C158.199 43.3055 157.74 43.3631 157.912 44.3421C158.141 44.0541 158.084 43.9965 158.313 44.6876L158.199 43.0751L158.485 44.1117C158.485 43.651 158.371 43.0751 158.428 42.7872C158.6 43.3055 158.542 43.2479 158.772 43.0176C158.371 43.651 158.944 44.3421 158.657 45.0907L158.027 45.0331C157.683 46.1849 158.256 47.1063 158.027 48.546L158.141 48.0853C158.371 48.3156 158.141 49.0067 158.199 49.4674C157.969 49.4098 157.912 49.6977 157.74 49.9281C157.912 49.9281 157.683 51.0222 158.084 51.195L157.797 51.8285C157.625 53.0378 158.371 53.2106 158.256 54.3623C158.027 54.0168 157.855 54.5351 157.74 53.7288C157.74 54.132 157.683 54.4775 157.797 54.4775C157.683 54.7078 158.027 55.5716 157.855 55.9172C157.969 56.0899 158.141 56.1475 158.141 56.5506C158.084 56.6082 158.027 56.5506 158.027 56.5506C158.141 56.5506 158.141 57.2417 158.371 56.8386C157.912 57.6448 158.027 58.8541 157.969 59.8907L159.116 59.9483C159.173 59.43 159.23 59.0269 159.402 58.6814C159.402 57.8176 159.402 56.8386 159.46 56.0899C159.517 56.1475 159.574 56.0899 159.517 56.2627C159.803 55.2261 158.944 55.5716 159.288 54.4199C159.689 53.844 159.402 55.0534 159.574 54.7078C160.319 54.6502 159.632 53.2681 160.147 52.5195V52.6923C160.491 52.1164 160.09 51.195 160.319 50.216C160.319 50.216 160.377 50.2736 160.434 50.216C160.205 49.4674 160.319 48.2004 160.377 47.2214C160.606 47.567 160.434 47.6821 160.778 47.567C160.835 47.1639 160.262 47.567 160.377 46.7032C160.606 46.4728 160.835 45.8969 161.179 45.8969C161.122 46.1849 161.064 46.4152 161.007 46.7032C161.466 46.4152 161.236 45.6666 161.408 45.2635L161.58 45.3786C161.81 44.1693 161.408 44.0541 161.752 42.7296L161.58 42.8448C161.351 42.0386 161.982 42.3265 161.867 41.5203L162.383 41.4627C162.44 40.9444 162.44 39.7351 162.669 38.8713C162.841 39.4471 162.669 40.4837 162.669 41.1172C162.784 40.6565 163.128 39.5623 163.013 39.2744C163.013 39.4471 163.013 39.7351 162.899 39.9078C162.727 39.2168 162.841 38.4681 163.128 37.5467C163.873 38.0074 164.217 35.3008 165.077 34.8401C165.363 33.1125 166.338 31.6152 166.739 29.5997C165.937 30.1755 166.854 29.0238 166.166 28.9662C166.223 28.5055 166.28 28.3327 166.338 28.2751C166.567 27.8144 166.796 27.3537 166.968 26.893C167.198 26.5475 167.083 27.3537 167.198 27.3537C167.37 26.2596 167.541 26.9506 167.828 26.202C167.541 26.3172 167.484 25.7989 167.599 25.1654C167.484 25.4534 167.369 25.7413 167.255 26.0292C167.14 25.2806 167.255 24.9351 167.427 24.5895C167.541 24.244 167.713 23.8985 167.427 23.0923L167.713 23.553C167.599 23.1499 167.541 22.3436 167.255 21.595C167.026 20.8464 166.567 20.0977 166.166 19.8674C166.166 19.6946 166.223 19.4067 166.452 19.7522C165.994 18.7732 165.134 17.9094 164.16 17.3335C163.243 16.7576 162.268 16.4121 161.58 16.009L161.752 15.8938C161.351 15.8362 161.064 16.009 160.663 15.7211C160.721 15.6635 160.835 15.6059 160.663 15.5483C160.434 15.5483 159.689 15.6635 159.23 15.5483C159.345 15.4907 159.517 15.4331 159.632 15.4331C157.797 15.03 156.823 15.7786 155.447 15.8938C155.447 15.4331 154.129 15.2604 153.441 15.2028V15.1452C151.492 15.1452 150.117 15.6059 148.282 15.8362C147.136 15.3755 144.442 15.7211 142.608 15.4907C142.895 15.5483 142.551 15.8362 142.264 15.8938C141.863 15.8362 141.06 16.2393 141.175 15.8362H141.347C141.003 15.4331 140.143 15.5483 139.455 15.5483L139.341 16.0666C137.507 15.3179 134.641 16.4697 133.666 15.7786C133.208 15.8938 132.692 15.9514 132.291 16.0666V15.7786C131.144 15.7211 130.514 15.7211 129.081 15.8362L129.425 18.2549C129.425 18.2549 129.482 18.2549 129.539 18.1973L129.482 18.2549L129.081 15.7211L129.31 15.6059C129.253 15.6059 129.138 15.6059 129.081 15.6059L129.482 18.3701C130.055 18.0822 130.113 17.3911 130.8 17.2183L131.259 17.8518C132.635 17.5063 134.125 17.5063 135.443 16.9304C135.443 16.988 135.386 17.1032 135.157 17.1608C135.844 17.0456 137.736 16.988 137.449 16.5273C137.507 16.8152 138.94 16.4121 139.685 16.1818L139.57 16.4121C140.201 16.0666 140.201 16.009 141.118 15.8362C141.347 15.8362 141.29 16.009 141.003 15.9514C141.748 16.009 141.576 15.7211 142.436 15.8362L142.092 16.009C142.837 16.009 142.78 15.9514 143.181 15.7786C143.64 15.7211 144.614 15.8938 144.729 16.0666C144.843 15.9514 145.245 15.7786 145.703 15.8938C145.76 15.9514 145.589 16.009 145.531 16.009C146.792 16.2393 147.423 15.8938 148.225 16.1818C148.225 16.2394 148.282 16.2969 148.34 16.2969C147.365 16.1818 146.563 16.1242 146.62 16.1242C146.62 16.2969 147.423 16.4121 146.735 16.6425C147.365 16.5849 148.512 16.3545 149.257 16.5273C149.314 16.5273 149.314 16.5849 149.372 16.5849H149.314C149.486 16.6425 149.658 16.6425 149.83 16.6425C150.059 16.7001 150.231 16.7576 150.461 16.7576C150.518 16.9304 151.32 16.988 151.722 17.0456C151.722 16.8728 152.237 16.988 151.779 16.7576C151.836 16.7576 151.722 16.7576 151.435 16.7576C151.378 16.7576 151.32 16.7576 151.263 16.7576C151.263 16.7576 151.263 16.7576 151.32 16.7576C151.034 16.7001 150.747 16.6425 150.346 16.5849C150.69 16.5273 151.034 16.5273 151.435 16.7001C151.664 16.5849 151.894 16.5273 152.065 16.4697C152.581 16.8152 153.556 17.2183 153.67 17.3911C154.301 17.4487 154.989 17.6215 155.619 17.7366C156.25 17.8518 156.88 17.967 157.281 17.9094C157.339 17.9094 157.339 17.9094 157.339 17.9094L157.453 17.3335C157.167 17.3335 157.167 17.1608 157.052 17.1032C157.224 17.1032 157.396 17.1032 157.511 17.1032L157.281 18.0822C157.224 18.0822 157.224 18.0822 157.167 18.0822C157.224 18.0822 157.224 18.0822 157.281 18.0822L157.511 17.1032C156.766 17.1032 155.562 16.8728 155.333 17.0456C154.473 16.8152 155.849 16.9304 154.645 16.8152L154.817 16.7576C153.67 16.4697 152.696 16.4697 151.664 16.4121C150.633 16.4121 149.601 16.3545 148.34 16.009C148.512 16.0666 148.626 16.0666 148.626 16.1242C147.136 15.8362 145.589 15.6635 144.041 15.4907C142.493 15.3179 140.946 15.0876 139.513 14.8572C138.653 14.7421 138.596 14.7997 138.08 14.7421L137.908 14.6269H136.991C135.73 14.5117 134.87 14.2238 133.265 14.1086L133.437 14.1662C132.864 14.1086 131.66 13.9358 131.717 13.9358C131.66 13.9358 131.546 13.9358 131.316 13.8783L129.941 13.7055C128.852 13.5327 130.113 13.7055 128.565 13.4751C127.992 13.4176 127.304 13.36 127.132 13.3024C127.361 13.36 127.648 13.36 127.763 13.36L127.247 13.3024C127.132 13.3024 126.731 13.1872 128.049 13.4176L128.966 13.5903L129.253 13.6479L128.508 13.5327C128.966 13.5903 129.195 13.6479 129.539 13.7055C129.597 13.7055 129.711 13.7631 129.941 13.7631L130.858 13.8783C130.972 13.9358 130.456 13.8207 131.03 13.9358C131.431 13.9934 130.628 13.8207 131.316 13.9358C131.775 14.051 131.603 14.051 132.119 14.1086C132.176 14.1086 132.061 14.1086 131.889 14.1086C132.348 14.1662 133.093 14.2814 133.322 14.2814C133.781 14.3965 134.87 14.5117 134.813 14.5693C134.985 14.5693 135.615 14.6269 136.016 14.6845C135.214 14.6845 137.564 14.9724 137.335 15.03C137.908 15.03 139.398 15.3179 140.373 15.4331C140.315 15.4331 140.201 15.4331 140.143 15.4331C140.716 15.5483 140.888 15.6059 141.232 15.7211C141.347 15.6059 142.207 15.7211 142.665 15.7211C143.353 15.9514 142.207 15.8362 142.436 15.9514C142.436 15.8362 143.64 16.0666 143.41 15.8938C143.926 16.0666 143.869 16.009 144.098 16.1818C144.213 16.009 144.614 16.2394 145.073 16.1818C145.818 16.4121 145.245 16.4121 146.104 16.4697C146.506 16.7001 145.703 16.6425 145.703 16.6425ZM149.372 15.2604C149.543 15.2604 149.715 15.3179 149.773 15.3179C149.658 15.3179 149.543 15.3179 149.372 15.2604ZM147.652 15.0876C147.881 15.1452 148.111 15.1452 148.397 15.2028C148.454 15.2604 148.397 15.3179 148.225 15.3179C148.282 15.2604 147.881 15.1452 147.652 15.0876ZM151.034 16.9304C150.747 16.9304 150.69 16.8728 150.633 16.8152C150.747 16.8152 150.919 16.8728 151.091 16.8728C151.091 16.8728 151.091 16.8728 151.148 16.8728C151.091 16.8728 151.034 16.9304 151.034 16.9304Z" fill="#202020"/>
<path d="M151.55 16.7578C151.607 16.7578 151.607 16.7578 151.664 16.7578C151.607 16.7578 151.55 16.7002 151.492 16.7002C151.435 16.7002 151.435 16.7578 151.378 16.7578C151.435 16.7578 151.492 16.7578 151.55 16.7578Z" fill="#202020"/>
<path d="M134.125 18.5429V18.4277L133.953 18.5429H134.125Z" fill="#202020"/>
<path d="M136.188 12.2085C136.188 12.2085 136.131 12.1509 136.074 12.1509C136.074 12.1509 136.131 12.2085 136.188 12.2085Z" fill="#202020"/>
<path d="M132.405 10.7684L131.889 10.4805C132.119 10.6532 132.291 10.7108 132.405 10.7684Z" fill="#202020"/>
<path d="M160.377 39.4473C160.377 39.5049 160.377 39.5049 160.377 39.5624C160.434 39.8504 160.434 39.6776 160.377 39.4473Z" fill="#202020"/>
<path d="M159.689 24.5894C159.746 24.7621 159.861 24.8773 159.918 25.0501C159.861 24.7621 159.803 24.5894 159.689 24.5894Z" fill="#202020"/>
<path d="M159.975 25.7413C159.975 25.4534 159.918 25.2231 159.861 25.0503C159.918 25.2806 159.918 25.5686 159.975 25.7413Z" fill="#202020"/>
<path d="M118.19 2.47602L118.076 2.36084L118.19 2.47602Z" fill="#202020"/>
<path d="M118.018 2.36078L117.904 2.24561C117.961 2.30319 118.018 2.36078 118.018 2.36078Z" fill="#202020"/>
<path d="M117.617 2.01514L117.904 2.24549C117.789 2.1879 117.675 2.07272 117.617 2.01514Z" fill="#202020"/>
<path d="M122.547 5.52799C122.317 5.35523 121.973 5.06729 121.572 4.89453H121.515C121.744 4.95212 122.317 5.41282 122.547 5.52799Z" fill="#202020"/>
<path d="M126.845 8.52268L125.928 8.00439C126.043 8.11957 126.272 8.29233 125.814 8.06198C126.96 8.81062 125.642 7.83163 126.845 8.52268Z" fill="#202020"/>
<path d="M129.711 10.1352C129.196 9.90487 129.711 10.1928 129.654 10.1928C129.998 10.308 130.055 10.308 129.711 10.1352Z" fill="#202020"/>
<path d="M151.894 17.564L151.779 17.7367C152.18 17.8519 151.836 17.6216 151.894 17.564Z" fill="#202020"/>
<path d="M156.307 18.9461L156.02 18.6006H155.734L156.307 18.9461Z" fill="#202020"/>
<path d="M156.995 21.8256L156.88 21.7104C157.052 21.8832 157.167 22.056 157.281 22.2287C157.224 22.1136 157.167 21.9408 156.995 21.8256Z" fill="#202020"/>
<path d="M159.803 59.7759L159.46 59.8911C159.46 60.179 159.861 60.2942 159.803 59.7759Z" fill="#202020"/>
<path d="M162.096 43.1329C162.325 43.0177 162.555 42.557 162.497 42.269C162.325 42.6146 162.096 42.9025 162.096 43.1329Z" fill="#202020"/>
<path d="M138.596 15.9516L138.94 15.8364L138.309 15.9516H138.596Z" fill="#202020"/>
</g>
<defs>
<clipPath id="clip0">
<rect width="168" height="74" fill="white"/>
</clipPath>
</defs>
</svg>
