<svg xmlns="http://www.w3.org/2000/svg" viewBox="0 0 242.65 290.76"><defs><style>.cls-1,.cls-3,.cls-4,.cls-6{fill:#fff;}.cls-1,.cls-4,.cls-6{stroke:#f09394;stroke-miterlimit:10;}.cls-1{stroke-width:2px;}.cls-2{fill:#f09394;}.cls-5{fill:#232323;}.cls-6{stroke-width:0.5px;}.cls-7{fill:red;}</style></defs><g id="Laag_2" data-name="Laag 2"><g id="Step_4_-_4" data-name="Step 4 - 4"><rect class="cls-1" x="13.37" y="1" width="215.95" height="288.76"/><rect class="cls-1" x="17.25" y="4.95" width="208.2" height="280.86"/><g id="motor_above" data-name="motor above"><rect class="cls-1" x="178.29" y="52.75" width="45.97" height="23.29" rx="2.36"/><rect class="cls-1" x="224.26" y="59.4" width="3.98" height="11.1"/><rect class="cls-1" x="228.23" y="62.48" width="13.41" height="4.94"/></g><g id="motor_above-2" data-name="motor above"><rect class="cls-1" x="178.29" y="216.92" width="45.97" height="23.29" rx="2.36"/><rect class="cls-1" x="224.26" y="223.57" width="3.98" height="11.1"/><rect class="cls-1" x="228.23" y="226.66" width="13.41" height="4.94"/></g><g id="motor_above-3" data-name="motor above"><rect class="cls-1" x="18.39" y="217.82" width="45.97" height="23.29" rx="2.36"/><rect class="cls-1" x="14.41" y="223.35" width="3.98" height="11.1"/><rect class="cls-1" x="1" y="226.44" width="13.41" height="4.94"/></g><g id="motor_above-4" data-name="motor above"><rect class="cls-1" x="18.39" y="53.65" width="45.97" height="23.29" rx="2.36"/><rect class="cls-1" x="14.41" y="59.18" width="3.98" height="11.1"/><rect class="cls-1" x="1" y="62.26" width="13.41" height="4.94"/></g><g id="motor_controller" data-name="motor controller"><rect class="cls-2" x="72.26" y="97.96" width="98.17" height="98.17" transform="translate(242.69 294.09) rotate(180)"/><polygon class="cls-3" points="102.65 107.09 102.65 98.97 140.71 99.31 140.71 107.09 102.65 107.09"/><path class="cls-2" d="M103.65,100l36.06.32v5.79H103.65V100m-2-2v10.13h40.06V98.32L101.65,98Z"/><polygon class="cls-3" points="87.12 181.98 87.12 166.52 155.57 167.12 155.57 181.98 87.12 181.98"/><path class="cls-2" d="M88.12,167.53l66.45.58V181H88.12V167.53m-2-2V183h70.45V166.12l-70.45-.61Z"/><line class="cls-1" x1="143.85" y1="182.36" x2="143.85" y2="166.59"/><line class="cls-1" x1="132.53" y1="182.36" x2="132.53" y2="166.59"/><line class="cls-1" x1="121.21" y1="182.36" x2="121.21" y2="166.59"/><line class="cls-1" x1="109.89" y1="182.36" x2="109.89" y2="166.59"/><line class="cls-1" x1="98.57" y1="182.36" x2="98.57" y2="166.59"/><line class="cls-1" x1="57.04" y1="195.17" x2="72.8" y2="195.17"/><line class="cls-1" x1="56.83" y1="184.29" x2="72.6" y2="184.29"/><line class="cls-1" x1="56.83" y1="172.97" x2="72.6" y2="172.97"/><line class="cls-1" x1="56.83" y1="161.65" x2="72.6" y2="161.65"/><line class="cls-1" x1="56.83" y1="150.33" x2="72.6" y2="150.33"/><line class="cls-1" x1="56.83" y1="143.78" x2="72.6" y2="143.78"/><line class="cls-1" x1="56.83" y1="132.46" x2="72.6" y2="132.46"/><line class="cls-1" x1="56.83" y1="121.14" x2="72.6" y2="121.14"/><line class="cls-1" x1="56.83" y1="109.82" x2="72.6" y2="109.82"/><line class="cls-1" x1="56.49" y1="98.95" x2="72.26" y2="98.95"/><line class="cls-1" x1="170.43" y1="195.07" x2="186.19" y2="195.07"/><line class="cls-1" x1="170.09" y1="184.28" x2="185.85" y2="184.28"/><line class="cls-1" x1="170.09" y1="172.96" x2="185.85" y2="172.96"/><line class="cls-1" x1="170.09" y1="161.64" x2="185.85" y2="161.64"/><line class="cls-1" x1="170.09" y1="150.32" x2="185.85" y2="150.32"/><line class="cls-1" x1="170.09" y1="143.77" x2="185.85" y2="143.77"/><line class="cls-1" x1="170.09" y1="132.45" x2="185.85" y2="132.45"/><line class="cls-1" x1="170.09" y1="121.13" x2="185.85" y2="121.13"/><line class="cls-1" x1="170.09" y1="109.81" x2="185.85" y2="109.81"/><line class="cls-1" x1="170.25" y1="99.02" x2="186.02" y2="99.02"/><circle class="cls-4" cx="149.76" cy="174.47" r="3.05"/><line class="cls-2" x1="151.01" y1="174.47" x2="148.59" y2="174.47"/><path class="cls-5" d="M151,174.47a1.71,1.71,0,0,1-2.42,0,1.71,1.71,0,0,1,2.42,0Z"/><line class="cls-2" x1="149.8" y1="175.68" x2="149.8" y2="173.26"/><path class="cls-5" d="M149.8,175.68a1.71,1.71,0,0,1,0-2.42,1.71,1.71,0,0,1,0,2.42Z"/><circle class="cls-6" cx="136.44" cy="103.02" r="2.39"/><line class="cls-2" x1="136.44" y1="104.23" x2="136.44" y2="101.81"/><path class="cls-5" d="M136.44,104.23a1.71,1.71,0,0,1,0-2.42,1.74,1.74,0,0,1,.5,1.21A1.71,1.71,0,0,1,136.44,104.23Z"/><circle class="cls-4" cx="138.19" cy="174.47" r="3.05"/><line class="cls-2" x1="139.44" y1="174.47" x2="137.03" y2="174.47"/><path class="cls-5" d="M139.44,174.47a1.7,1.7,0,0,1-2.41,0,1.7,1.7,0,0,1,2.41,0Z"/><line class="cls-2" x1="138.24" y1="175.68" x2="138.24" y2="173.26"/><path class="cls-5" d="M138.24,175.68a1.63,1.63,0,0,1-.5-1.21,1.66,1.66,0,0,1,.5-1.21,1.74,1.74,0,0,1,.5,1.21A1.71,1.71,0,0,1,138.24,175.68Z"/><circle class="cls-4" cx="126.87" cy="174.47" r="3.05"/><line class="cls-2" x1="128.12" y1="174.47" x2="125.71" y2="174.47"/><path class="cls-5" d="M128.12,174.47a1.7,1.7,0,0,1-2.41,0,1.7,1.7,0,0,1,2.41,0Z"/><line class="cls-2" x1="126.92" y1="175.68" x2="126.92" y2="173.26"/><path class="cls-5" d="M126.92,175.68a1.63,1.63,0,0,1-.5-1.21,1.66,1.66,0,0,1,.5-1.21,1.74,1.74,0,0,1,.5,1.21A1.71,1.71,0,0,1,126.92,175.68Z"/><circle class="cls-4" cx="115.55" cy="174.47" r="3.05"/><line class="cls-2" x1="116.8" y1="174.47" x2="114.39" y2="174.47"/><path class="cls-5" d="M116.8,174.47a1.7,1.7,0,0,1-2.41,0,1.7,1.7,0,0,1,2.41,0Z"/><line class="cls-2" x1="115.6" y1="175.68" x2="115.6" y2="173.26"/><path class="cls-5" d="M115.6,175.68a1.63,1.63,0,0,1-.5-1.21,1.66,1.66,0,0,1,.5-1.21,1.74,1.74,0,0,1,.5,1.21A1.71,1.71,0,0,1,115.6,175.68Z"/><circle class="cls-4" cx="104.23" cy="174.47" r="3.05"/><line class="cls-2" x1="105.49" y1="174.47" x2="103.07" y2="174.47"/><path class="cls-5" d="M105.49,174.47a1.66,1.66,0,0,1-1.21.5,1.63,1.63,0,0,1-1.21-.5,1.71,1.71,0,0,1,1.21-.5A1.74,1.74,0,0,1,105.49,174.47Z"/><line class="cls-2" x1="104.28" y1="175.68" x2="104.28" y2="173.26"/><path class="cls-5" d="M104.28,175.68a1.63,1.63,0,0,1-.5-1.21,1.66,1.66,0,0,1,.5-1.21,1.74,1.74,0,0,1,.5,1.21A1.71,1.71,0,0,1,104.28,175.68Z"/><circle class="cls-4" cx="92.52" cy="174.48" r="3.05"/><line class="cls-2" x1="93.77" y1="174.48" x2="91.36" y2="174.48"/><path class="cls-5" d="M93.77,174.48a1.7,1.7,0,0,1-2.41,0,1.7,1.7,0,0,1,2.41,0Z"/><line class="cls-2" x1="92.57" y1="175.69" x2="92.57" y2="173.27"/><path class="cls-5" d="M92.57,175.69a1.63,1.63,0,0,1-.5-1.21,1.66,1.66,0,0,1,.5-1.21,1.74,1.74,0,0,1,.5,1.21A1.71,1.71,0,0,1,92.57,175.69Z"/><circle class="cls-6" cx="128.9" cy="103.02" r="2.39"/><line class="cls-2" x1="128.9" y1="104.23" x2="128.9" y2="101.81"/><path class="cls-5" d="M128.9,104.23a1.71,1.71,0,0,1-.5-1.21,1.74,1.74,0,0,1,.5-1.21,1.66,1.66,0,0,1,.5,1.21A1.63,1.63,0,0,1,128.9,104.23Z"/><circle class="cls-6" cx="114.83" cy="103.14" r="2.39"/><line class="cls-2" x1="114.83" y1="104.35" x2="114.83" y2="101.93"/><path class="cls-5" d="M114.83,104.35a1.68,1.68,0,0,1-.5-1.21,1.64,1.64,0,0,1,.5-1.21,1.71,1.71,0,0,1,0,2.42Z"/><circle class="cls-6" cx="107.29" cy="103.14" r="2.39"/><line class="cls-2" x1="107.29" y1="104.35" x2="107.29" y2="101.93"/><path class="cls-5" d="M107.29,104.35a1.71,1.71,0,0,1,0-2.42,1.71,1.71,0,0,1,0,2.42Z"/><path class="cls-3" d="M98.42,165.08a7.77,7.77,0,0,1-7.76-7.76V131a7.76,7.76,0,0,1,15.52,0v26.31A7.77,7.77,0,0,1,98.42,165.08Z"/><path class="cls-2" d="M98.42,124.25a6.76,6.76,0,0,1,6.76,6.76v26.31a6.76,6.76,0,0,1-13.52,0V131a6.76,6.76,0,0,1,6.76-6.76m0-2h0A8.78,8.78,0,0,0,89.66,131v26.31a8.78,8.78,0,0,0,8.76,8.76h0a8.78,8.78,0,0,0,8.76-8.76V131a8.78,8.78,0,0,0-8.76-8.76Z"/><path class="cls-3" d="M116.88,165.08a7.77,7.77,0,0,1-7.76-7.76V131a7.76,7.76,0,0,1,15.52,0v26.31A7.77,7.77,0,0,1,116.88,165.08Z"/><path class="cls-2" d="M116.88,124.25a6.76,6.76,0,0,1,6.76,6.76v26.31a6.76,6.76,0,0,1-13.52,0V131a6.76,6.76,0,0,1,6.76-6.76m0-2h0a8.78,8.78,0,0,0-8.76,8.76v26.31a8.78,8.78,0,0,0,8.76,8.76h0a8.78,8.78,0,0,0,8.76-8.76V131a8.78,8.78,0,0,0-8.76-8.76Z"/><rect class="cls-3" x="151.31" y="109.67" width="10.52" height="29.92" rx="2.79"/><path class="cls-2" d="M159.05,110.67a1.78,1.78,0,0,1,1.78,1.78V136.8a1.78,1.78,0,0,1-1.78,1.78h-5a1.78,1.78,0,0,1-1.78-1.78V112.45a1.78,1.78,0,0,1,1.78-1.78h5m0-2h-5a3.79,3.79,0,0,0-3.78,3.78V136.8a3.79,3.79,0,0,0,3.78,3.78h5a3.79,3.79,0,0,0,3.78-3.78V112.45a3.79,3.79,0,0,0-3.78-3.78Z"/><path class="cls-3" d="M94.89,107.09a2.53,2.53,0,1,1,2.53-2.53A2.53,2.53,0,0,1,94.89,107.09Z"/><path class="cls-2" d="M94.89,103a1.53,1.53,0,1,1-1.53,1.53A1.53,1.53,0,0,1,94.89,103m0-2a3.53,3.53,0,1,0,3.53,3.53A3.53,3.53,0,0,0,94.89,101Z"/><circle class="cls-3" cx="82.98" cy="109.82" r="4.43"/><path class="cls-2" d="M83,106.38a3.44,3.44,0,1,1-3.43,3.44A3.44,3.44,0,0,1,83,106.38m0-2a5.44,5.44,0,1,0,5.43,5.44A5.44,5.44,0,0,0,83,104.38Z"/><path class="cls-3" d="M83,126.61a4.36,4.36,0,1,1,4.36-4.36A4.37,4.37,0,0,1,83,126.61Z"/><path class="cls-2" d="M83,118.89a3.36,3.36,0,1,1-3.37,3.36A3.37,3.37,0,0,1,83,118.89m0-2a5.36,5.36,0,1,0,5.36,5.36A5.37,5.37,0,0,0,83,116.89Z"/></g><path d="M177.09,56.65c-24.38,1-48.42,5.69-72.06,11.51-11.72,2.88-23.4,6-35,9.2a69.22,69.22,0,0,0-14.91,5.53A32.25,32.25,0,0,0,44,92.92c-5.91,8.54-8.1,19.25-9.58,29.34a241.49,241.49,0,0,0-2.61,36.83,139,139,0,0,0,1.28,18.35,61.15,61.15,0,0,0,3.78,15,31.22,31.22,0,0,0,8.57,12.14,41.3,41.3,0,0,0,13.27,7.14A84.72,84.72,0,0,0,75,215.6c5.54.74,11.31.67,16.63-1.21A23.12,23.12,0,0,0,103,206.17c3-4.25,3.89-9.55,4-14.65,0-2.69-.17-5.37-.38-8-.15-1.91-3.15-1.93-3,0,.39,5,.81,10.18-.42,15.09a17.63,17.63,0,0,1-8.15,11c-9.41,5.66-21.07,3.42-31,.66a49.83,49.83,0,0,1-13.34-5.53,27.2,27.2,0,0,1-9.64-10.47,47.83,47.83,0,0,1-4.41-13.91,116.25,116.25,0,0,1-1.68-17.06A236.08,236.08,0,0,1,36.62,128c1.19-10.1,2.85-20.82,7.71-29.9a30.36,30.36,0,0,1,9.09-10.63A47.13,47.13,0,0,1,67.13,81.3C78,78,89,75.3,100,72.52c22.48-5.71,45.28-10.6,68.45-12.36q4.34-.33,8.68-.51c1.92-.08,1.93-3.08,0-3Z"/><path class="cls-7" d="M177.6,66.74a420.91,420.91,0,0,0-62.69,7.63Q99.46,77.46,84.27,81.7,76.56,83.86,69,86.31c-4.32,1.39-8.76,2.86-12.42,5.62-7.18,5.39-9,14.45-10.29,22.83A303.22,303.22,0,0,0,43,147c-.39,9.92-.39,20.09,1.22,29.91,1.23,7.54,3.82,15.54,9.64,20.82a24,24,0,0,0,11.5,5.57c4.62,1,9.8,1.69,14.48.9,7.88-1.33,12.44-8.68,14.46-15.81a40.78,40.78,0,0,0,1.15-5.57,1.57,1.57,0,0,0-1-1.85,1.51,1.51,0,0,0-1.84,1c-.92,6.62-3.33,14.53-9.6,18-3.93,2.15-8.65,1.55-12.92,1S61.35,199.54,57.7,197c-6-4.2-8.74-11.63-10.13-18.54-1.83-9-1.87-18.55-1.66-27.74a273.41,273.41,0,0,1,2.6-30.77c1.09-8,1.81-17.67,7.72-23.78,3.05-3.16,7.2-4.85,11.28-6.23,4.67-1.57,9.38-3,14.11-4.36q14.44-4.17,29.18-7.29a412.83,412.83,0,0,1,59.4-8.14c2.47-.15,4.93-.29,7.4-.4,1.92-.09,1.93-3.09,0-3Z"/></g></g></svg>