<svg xmlns="http://www.w3.org/2000/svg" viewBox="0 0 394.54 155.61"><defs><style>.cls-1,.cls-2{fill:none;}.cls-1,.cls-4{stroke:#232323;}.cls-1,.cls-4,.cls-5{stroke-linecap:round;stroke-linejoin:round;}.cls-2,.cls-3{stroke:#f09394;stroke-miterlimit:10;stroke-width:2px;}.cls-3,.cls-4{fill:#fff;}.cls-5{fill:#232323;stroke:#fff;}</style></defs><g id="Laag_2" data-name="Laag 2"><g id="step1"><polygon class="cls-1" points="130.94 51.84 141.74 55.27 152.31 51.6 152.31 70.97 141.85 74.87 130.94 71.12 130.94 51.84"/><polygon class="cls-2" points="5 68.08 249.93 1.05 391.3 51.81 143.62 127.28 5 68.08"/><polyline class="cls-2" points="393.54 51.98 393.54 59.42 143.89 136.11 2.99 74.6 2.99 67.87"/><polygon class="cls-3" points="1 52.69 139.89 112.26 139.89 85.78 1 26.21 1 52.69"/><polygon class="cls-3" points="382.79 42.69 143.89 112.26 143.89 85.78 382.79 16.21 382.79 42.69"/><path class="cls-4" d="M127.08,155.05a1.69,1.69,0,0,1-.83-.19c-.81-.47.74-.83,2.48-1.57,2-.84,1.58-7.35,1.58-7.35s-.17,6.64,1.31,7.26,4.57,1.7,1.7,1.85C131,155.18,128.05,155.06,127.08,155.05Z"/><path class="cls-4" d="M6.05,97.15a1.72,1.72,0,0,1-.83-.2c-.81-.47.74-.83,2.48-1.57,2-.84,1.58-7.35,1.58-7.35s-.17,6.65,1.32,7.26,4.56,1.7,1.7,1.86C10,97.28,7,97.15,6.05,97.15Z"/><path class="cls-4" d="M152.94,155.05a1.69,1.69,0,0,1-.83-.19c-.81-.47.74-.83,2.48-1.57,2-.84,1.58-7.35,1.58-7.35s-.17,6.64,1.32,7.26,4.56,1.7,1.7,1.85C156.86,155.18,153.91,155.06,152.94,155.05Z"/><path class="cls-4" d="M376.67,88a1.69,1.69,0,0,1-.83-.19c-.81-.47.74-.83,2.48-1.57,2-.84,1.58-7.35,1.58-7.35s-.17,6.64,1.31,7.26,4.57,1.7,1.7,1.85C380.59,88.1,377.64,88,376.67,88Z"/><path class="cls-4" d="M287.45,116.79a1.7,1.7,0,0,1-.83-.2c-.82-.46.74-.83,2.48-1.56,2-.84,1.58-7.35,1.58-7.35s-.17,6.64,1.31,7.26,4.57,1.69,1.7,1.85C291.37,116.92,288.42,116.79,287.45,116.79Z"/><line class="cls-1" x1="141.74" y1="55.27" x2="141.85" y2="74.87"/><ellipse class="cls-5" cx="147.79" cy="63.96" rx="1.98" ry="2.71"/><ellipse class="cls-5" cx="136.2" cy="63.96" rx="2.11" ry="2.71"/></g></g></svg>