<svg xmlns="http://www.w3.org/2000/svg" viewBox="0 0 435.84 187.72"><defs><style>.cls-1,.cls-5,.cls-7{fill:#fff;}.cls-1,.cls-3,.cls-6{stroke:#f09394;stroke-miterlimit:10;}.cls-1,.cls-3{stroke-width:2px;}.cls-2,.cls-6{fill:#f09394;}.cls-3{fill:none;}.cls-4{fill:#232323;}.cls-5{opacity:0.5;}.cls-7{stroke:#232323;stroke-linecap:round;stroke-linejoin:round;}</style></defs><g id="Laag_2" data-name="Laag 2"><g id="step_3" data-name="step 3"><g id="motor"><path class="cls-1" d="M226,128.69,193.72,114.9a.7.7,0,0,0-.92.39l-9.88,25,30.4,16.59Z"/><ellipse class="cls-2" cx="219.68" cy="142.76" rx="15.44" ry="9.88" transform="translate(-0.72 284.41) rotate(-65.75)"/><ellipse class="cls-1" cx="188.83" cy="127.75" rx="13.81" ry="8.86" transform="translate(-5.22 247.44) rotate(-65.75)"/><path class="cls-1" d="M226.11,140.75l-3.06-1.54a4.59,4.59,0,0,0-3.73,1.54,6.68,6.68,0,0,0-1.59,5.6c.27,2.7,4,3.4,4,3.4s-2.44-2.27-.57-5.93S226.11,140.75,226.11,140.75Z"/><path class="cls-3" d="M226.11,140.75s.7.22.89.55a4.56,4.56,0,0,1,.33,2.07,10.18,10.18,0,0,1-2,5.07,3.79,3.79,0,0,1-3.26,1.39l-.33-.08"/><path class="cls-1" d="M225.3,142.76l8.95,4.44s-3.32,1-1.69,4.73l-10-4.83S222,143.05,225.3,142.76Z"/><path class="cls-1" d="M232.56,151.93s2.6.64,3.21-1.62c.49-1.83-.27-2.24-1.52-3.11"/><ellipse class="cls-4" cx="221.89" cy="132.73" rx="1.28" ry="1.04" transform="translate(36.75 313.22) rotate(-75.16)"/><ellipse class="cls-4" cx="228.39" cy="137.23" rx="1.28" ry="1.04" transform="translate(37.24 322.85) rotate(-75.16)"/><ellipse class="cls-4" cx="214.31" cy="140.39" rx="1.28" ry="1.04" transform="translate(23.72 311.59) rotate(-75.16)"/><ellipse class="cls-4" cx="213.98" cy="150.74" rx="1.28" ry="1.04" transform="translate(13.46 318.97) rotate(-75.16)"/><ellipse class="cls-4" cx="221.86" cy="152.94" rx="1.28" ry="1.04" transform="matrix(0.26, -0.97, 0.97, 0.26, 17.2, 328.23)"/></g><g id="motor-2" data-name="motor"><path class="cls-1" d="M381.43,78.57,349.12,64.78a.71.71,0,0,0-.93.39l-9.87,25,30.4,16.59Z"/><ellipse class="cls-2" cx="375.08" cy="92.64" rx="15.44" ry="9.88" transform="translate(136.53 396.55) rotate(-65.75)"/><ellipse class="cls-1" cx="344.23" cy="77.63" rx="13.81" ry="8.86" transform="translate(132.04 359.58) rotate(-65.75)"/><path class="cls-1" d="M381.51,90.63l-3.06-1.54a4.59,4.59,0,0,0-3.73,1.54,6.65,6.65,0,0,0-1.59,5.6c.26,2.7,4,3.4,4,3.4s-2.44-2.27-.58-5.94S381.51,90.63,381.51,90.63Z"/><path class="cls-3" d="M381.51,90.63s.69.22.89.55a4.51,4.51,0,0,1,.32,2.06,10.08,10.08,0,0,1-2,5.08,3.76,3.76,0,0,1-3.26,1.38l-.32-.07"/><path class="cls-1" d="M380.69,92.64l9,4.44s-3.32,1-1.7,4.72L378,97S377.39,92.92,380.69,92.64Z"/><path class="cls-1" d="M388,101.8s2.61.64,3.22-1.61c.49-1.83-.28-2.24-1.52-3.11"/><ellipse class="cls-4" cx="377.29" cy="82.61" rx="1.28" ry="1.04" transform="translate(200.79 426.15) rotate(-75.16)"/><ellipse class="cls-4" cx="383.79" cy="87.11" rx="1.28" ry="1.04" transform="translate(201.28 435.78) rotate(-75.16)"/><ellipse class="cls-4" cx="369.71" cy="90.26" rx="1.28" ry="1.04" transform="translate(187.76 424.52) rotate(-75.16)"/><ellipse class="cls-4" cx="369.38" cy="100.61" rx="1.28" ry="1.04" transform="matrix(0.26, -0.97, 0.97, 0.26, 177.51, 431.9)"/><ellipse class="cls-4" cx="377.26" cy="102.81" rx="1.28" ry="1.04" transform="translate(181.25 441.16) rotate(-75.16)"/></g><polygon class="cls-3" points="433.7 94.99 159.82 176.65 158.53 147.92 433.7 67.62 433.7 94.99"/><polygon class="cls-5" points="433.7 94.99 159.82 176.65 158.53 147.92 433.7 67.62 433.7 94.99"/><polygon class="cls-3" points="278.69 28.89 4.81 110.55 3.52 81.82 278.69 1.51 278.69 28.89"/><polygon class="cls-1" points="3.12 110.82 158.82 177.29 158.82 147.94 3.12 81.47 3.12 110.82"/><polygon class="cls-3" points="2.94 110.78 278.56 28.99 432.93 94.73 160.32 178.13 2.94 110.78"/><polyline class="cls-3" points="433.31 67.51 278.69 1.51 278.69 28.89"/><g id="motor-3" data-name="motor"><path class="cls-1" d="M90,108.57,60,90.62c-.34-.2-.9-.33-.7-.67L73.12,67.44l31.71,14Z"/><ellipse class="cls-1" cx="97.4" cy="95.03" rx="15.44" ry="9.88" transform="translate(-32.71 134.89) rotate(-61.32)"/><ellipse class="cls-6" cx="66.92" cy="79.3" rx="13.81" ry="8.86" transform="translate(-34.76 99.95) rotate(-61.32)"/><path class="cls-2" d="M54,76.71l8.92,4.52S61.7,78,65.63,77l-9.84-5.12S52.21,73.9,54,76.71Z"/><path class="cls-2" d="M65.63,77s2.08,1.71.64,3.54c-1.17,1.49-2,1.13-3.39.65"/></g><g id="motor-4" data-name="motor"><path class="cls-1" d="M253.05,62.34,223.11,44.4c-.34-.2-.91-.34-.7-.67l13.78-22.52,31.7,14.06Z"/><ellipse class="cls-1" cx="260.47" cy="48.8" rx="15.44" ry="9.88" transform="translate(92.66 253.91) rotate(-61.32)"/><ellipse class="cls-6" cx="229.98" cy="33.07" rx="13.81" ry="8.86" transform="translate(90.61 218.97) rotate(-61.32)"/><path class="cls-2" d="M217,30.49,225.94,35s-1.17-3.28,2.76-4.2l-9.85-5.12S215.27,27.67,217,30.49Z"/><path class="cls-2" d="M228.7,30.81s2.07,1.71.64,3.55c-1.17,1.49-2,1.12-3.4.65"/></g><polyline class="cls-3" points="2.94 110.78 2.94 110.78 2.94 117.84 159.53 186.19 159.53 178.47"/><polyline class="cls-3" points="433.83 94.73 433.99 101.31 159.53 186.19"/><path class="cls-7" d="M249.34,171a2,2,0,0,1-.33.51c-.42.45,0-.62.3-1.87.37-1.43-1.88-2.23-1.88-2.23s2.11,1.2,2.79.33,2-2.69,1.16-.8C250.66,168.48,249.66,170.38,249.34,171Z"/><path class="cls-7" d="M241,165.74a2.36,2.36,0,0,1-.33.51c-.42.46,0-.61.29-1.87.38-1.42-1.88-2.22-1.88-2.22s2.11,1.19,2.8.33,2-2.7,1.16-.81C242.33,163.22,241.33,165.11,241,165.74Z"/><path class="cls-7" d="M244.11,155.25a2.06,2.06,0,0,1-.34.51c-.41.45,0-.62.3-1.87.38-1.43-1.88-2.23-1.88-2.23s2.11,1.2,2.8.33,2-2.69,1.15-.8C245.43,152.72,244.43,154.62,244.11,155.25Z"/><path class="cls-7" d="M254.25,154.36a2.38,2.38,0,0,1-.34.51c-.42.46,0-.62.3-1.87.37-1.43-1.88-2.22-1.88-2.22s2.11,1.19,2.79.32,2-2.69,1.16-.8C255.57,151.83,254.56,153.73,254.25,154.36Z"/><path class="cls-7" d="M257.8,163a2,2,0,0,1-.33.51c-.42.46,0-.61.3-1.87.37-1.42-1.88-2.22-1.88-2.22s2.1,1.19,2.79.33,2-2.7,1.16-.81C259.12,160.47,258.12,162.36,257.8,163Z"/></g></g></svg>