<svg xmlns="http://www.w3.org/2000/svg" viewBox="0 0 405.87 165.78"><defs><style>.cls-1{fill:none;}.cls-1,.cls-2{stroke:#f09394;stroke-miterlimit:10;stroke-width:2px;}.cls-2,.cls-4{fill:#fff;}.cls-3{fill:#232323;stroke:#fff;}.cls-3,.cls-4{stroke-linecap:round;stroke-linejoin:round;}.cls-4{stroke:#232323;}</style></defs><g id="Laag_2" data-name="Laag 2"><g id="step_2" data-name="step 2"><polygon class="cls-1" points="3.03 96.69 247.96 29.66 389.33 80.42 141.65 155.89 3.03 96.69"/><polyline class="cls-1" points="391.57 80.58 391.57 88.03 141.93 164.72 1.02 103.2 1.02 96.48"/><line class="cls-1" x1="141.93" y1="164.72" x2="141.65" y2="155.89"/><polygon class="cls-2" points="1.02 95.29 141.79 155.27 141.79 128.79 1.02 68.81 1.02 95.29"/><polygon class="cls-2" points="391.57 80.58 141.93 154.87 140.75 128.73 391.57 55.68 391.57 80.58"/><polyline class="cls-1" points="391.57 55.68 247.82 1.45 247.96 29.66"/><line class="cls-1" x1="1.02" y1="68.81" x2="247.82" y2="1.45"/><circle class="cls-3" cx="196.3" cy="125.89" r="3.17"/><circle class="cls-3" cx="353.47" cy="80.42" r="3.17"/><circle class="cls-3" cx="63.34" cy="66.53" r="3.17"/><circle class="cls-3" cx="220.51" cy="23.05" r="3.17"/><line class="cls-4" x1="200.82" y1="127.89" x2="248.54" y2="148.23"/><line class="cls-4" x1="67.58" y1="68.24" x2="115.31" y2="88.59"/><line class="cls-4" x1="225.02" y1="24.96" x2="272.74" y2="45.3"/><line class="cls-4" x1="357.64" y1="81.6" x2="405.37" y2="101.94"/></g></g></svg>